<svg width="328" height="343" viewBox="0 0 328 343" fill="none" xmlns="http://www.w3.org/2000/svg">
<g filter="url(#filter0_d_539_6210)">
<g clip-path="url(#clip0_539_6210)">
<path d="M4 10.1111C4 6.18375 7.18375 3 11.1111 3H316.889C320.816 3 324 6.18375 324 10.1111V337.556H4V10.1111Z" fill="white"/>
<path d="M18.7773 25.7271C18.7773 25.1202 18.9338 24.5845 19.2467 24.1199C19.5595 23.6554 19.991 23.2951 20.5409 23.0391C21.1003 22.7736 21.7403 22.6408 22.4609 22.6408C23.1625 22.6408 23.7693 22.7641 24.2813 23.0106C24.7933 23.2571 25.1915 23.6079 25.476 24.0631C25.7699 24.5182 25.9264 25.0539 25.9453 25.6702H24.1675C24.1486 25.2245 23.9827 24.8737 23.6698 24.6177C23.3664 24.3617 22.9587 24.2337 22.4467 24.2337C21.8778 24.2337 21.4179 24.3617 21.0671 24.6177C20.7258 24.8737 20.5551 25.2245 20.5551 25.6702C20.5551 26.0494 20.6594 26.3481 20.868 26.5662C21.0766 26.7842 21.399 26.9407 21.8351 27.0355L23.4849 27.4053C24.3667 27.5949 25.0256 27.922 25.4618 28.3866C25.8979 28.8417 26.116 29.458 26.116 30.2355C26.116 30.8708 25.9595 31.4302 25.6467 31.9137C25.3338 32.3878 24.8929 32.7576 24.324 33.0231C23.7551 33.2791 23.0914 33.4071 22.3329 33.4071C21.6028 33.4071 20.9628 33.2838 20.4129 33.0373C19.863 32.7908 19.4315 32.4399 19.1187 31.9848C18.8152 31.5297 18.6541 30.994 18.6351 30.3777H20.4271C20.4271 30.8234 20.5978 31.1742 20.9391 31.4302C21.2804 31.6862 21.7498 31.8142 22.3471 31.8142C22.9539 31.8142 23.4375 31.6862 23.7978 31.4302C24.1581 31.1742 24.3382 30.8281 24.3382 30.3919C24.3382 30.0316 24.2387 29.7472 24.0395 29.5386C23.8499 29.3205 23.5418 29.1641 23.1151 29.0693L21.4653 28.6995C20.5835 28.5099 19.9151 28.1685 19.46 27.6755C19.0049 27.173 18.7773 26.5235 18.7773 25.7271ZM30.6507 33.4071C29.9585 33.4071 29.3422 33.2506 28.8018 32.9377C28.2708 32.6154 27.8536 32.1792 27.5502 31.6293C27.2468 31.0699 27.0951 30.4299 27.0951 29.7093C27.0951 28.9792 27.2421 28.3345 27.536 27.7751C27.8299 27.2156 28.2376 26.7795 28.7591 26.4666C29.2901 26.1537 29.9016 25.9973 30.5938 25.9973C31.2954 25.9973 31.8975 26.1442 32.4 26.4382C32.912 26.7321 33.3102 27.1445 33.5947 27.6755C33.8791 28.2065 34.0213 28.837 34.0213 29.5671V30.0933L27.9911 30.1075L28.0195 29.0266H32.3289C32.3289 28.5241 32.1724 28.1259 31.8595 27.8319C31.5467 27.538 31.1295 27.3911 30.608 27.3911C30.1908 27.3911 29.84 27.4764 29.5555 27.6471C29.2806 27.8177 29.0672 28.0737 28.9155 28.4151C28.7733 28.7564 28.7022 29.1783 28.7022 29.6808C28.7022 30.4488 28.8681 31.0319 29.2 31.4302C29.5318 31.8189 30.0249 32.0133 30.6791 32.0133C31.1532 32.0133 31.5419 31.9232 31.8453 31.7431C32.1582 31.5629 32.3621 31.3022 32.4569 30.9608H34.0355C33.8838 31.7194 33.5093 32.3167 32.912 32.7528C32.3147 33.189 31.5609 33.4071 30.6507 33.4071ZM37.1312 33.2222H35.4388V22.6408H37.1312V33.2222ZM42.0951 33.4071C41.403 33.4071 40.7867 33.2506 40.2462 32.9377C39.7152 32.6154 39.2981 32.1792 38.9947 31.6293C38.6912 31.0699 38.5395 30.4299 38.5395 29.7093C38.5395 28.9792 38.6865 28.3345 38.9804 27.7751C39.2744 27.2156 39.6821 26.7795 40.2035 26.4666C40.7345 26.1537 41.3461 25.9973 42.0382 25.9973C42.7398 25.9973 43.3419 26.1442 43.8444 26.4382C44.3564 26.7321 44.7547 27.1445 45.0391 27.6755C45.3235 28.2065 45.4658 28.837 45.4658 29.5671V30.0933L39.4355 30.1075L39.464 29.0266H43.7733C43.7733 28.5241 43.6169 28.1259 43.304 27.8319C42.9911 27.538 42.5739 27.3911 42.0524 27.3911C41.6352 27.3911 41.2844 27.4764 41 27.6471C40.725 27.8177 40.5117 28.0737 40.36 28.4151C40.2178 28.7564 40.1467 29.1783 40.1467 29.6808C40.1467 30.4488 40.3126 31.0319 40.6444 31.4302C40.9763 31.8189 41.4693 32.0133 42.1235 32.0133C42.5976 32.0133 42.9864 31.9232 43.2898 31.7431C43.6027 31.5629 43.8065 31.3022 43.9013 30.9608H45.48C45.3283 31.7194 44.9538 32.3167 44.3564 32.7528C43.7591 33.189 43.0053 33.4071 42.0951 33.4071ZM46.4423 29.7093C46.4423 28.9792 46.5893 28.3345 46.8832 27.7751C47.1866 27.2156 47.5991 26.7795 48.1205 26.4666C48.6515 26.1537 49.2631 25.9973 49.9552 25.9973C50.9034 25.9973 51.6808 26.2438 52.2877 26.7368C52.8945 27.2299 53.2453 27.8936 53.3401 28.7279H51.6334C51.5386 28.3202 51.349 28.0168 51.0645 27.8177C50.7801 27.6091 50.4293 27.5048 50.0121 27.5048C49.6423 27.5048 49.3152 27.5949 49.0308 27.7751C48.7463 27.9552 48.5235 28.2112 48.3623 28.5431C48.2106 28.8654 48.1348 29.2494 48.1348 29.6951C48.1348 30.1407 48.2059 30.5294 48.3481 30.8613C48.4998 31.1836 48.7131 31.4349 48.9881 31.6151C49.2631 31.7952 49.5902 31.8853 49.9694 31.8853C50.4056 31.8853 50.7706 31.781 51.0645 31.5724C51.3585 31.3543 51.5528 31.0509 51.6477 30.6622H53.3543C53.2785 31.2121 53.0888 31.6909 52.7854 32.0986C52.482 32.5063 52.0838 32.8287 51.5908 33.0657C51.1072 33.2933 50.5668 33.4071 49.9694 33.4071C49.2583 33.4071 48.6373 33.2554 48.1063 32.9519C47.5754 32.6391 47.1629 32.2076 46.869 31.6577C46.5845 31.0983 46.4423 30.4488 46.4423 29.7093ZM53.9634 26.1964H58.3723V27.6186H53.9634V26.1964ZM57.0212 33.2222H55.3288V24.0062H57.0212V33.2222ZM64.309 26.1964L66.5988 32.7102L65.6743 34.4311L62.5028 26.1964H64.309ZM62.6877 36.4648V35.0568H63.7117C63.9392 35.0568 64.1383 35.0284 64.309 34.9715C64.4891 34.9241 64.6456 34.8293 64.7783 34.6871C64.9111 34.5543 65.0296 34.3505 65.1339 34.0755L68.0352 26.1964H69.7988L66.3712 34.7866C66.1152 35.4314 65.7928 35.8959 65.4041 36.1804C65.0154 36.4743 64.5365 36.6213 63.9677 36.6213C63.7306 36.6213 63.5031 36.6071 63.285 36.5786C63.0764 36.5596 62.8773 36.5217 62.6877 36.4648ZM70.0534 29.7093C70.0534 28.9792 70.2146 28.3345 70.537 27.7751C70.8594 27.2156 71.3002 26.7795 71.8597 26.4666C72.4285 26.1537 73.078 25.9973 73.8081 25.9973C74.5287 25.9973 75.1687 26.1537 75.7281 26.4666C76.2875 26.7795 76.7284 27.2156 77.0508 27.7751C77.3826 28.3345 77.5485 28.9792 77.5485 29.7093C77.5485 30.4299 77.3826 31.0699 77.0508 31.6293C76.7284 32.1792 76.2875 32.6106 75.7281 32.9235C75.1687 33.2364 74.5287 33.3928 73.8081 33.3928C73.078 33.3928 72.4285 33.2364 71.8597 32.9235C71.3002 32.6106 70.8594 32.1792 70.537 31.6293C70.2146 31.0699 70.0534 30.4299 70.0534 29.7093ZM71.7601 29.6951C71.7601 30.1217 71.8454 30.501 72.0161 30.8328C72.1962 31.1647 72.438 31.4207 72.7414 31.6008C73.0448 31.781 73.4004 31.8711 73.8081 31.8711C74.2063 31.8711 74.5571 31.781 74.8605 31.6008C75.164 31.4207 75.401 31.1647 75.5717 30.8328C75.7518 30.501 75.8419 30.1217 75.8419 29.6951C75.8419 29.2589 75.7518 28.8796 75.5717 28.5573C75.401 28.2349 75.164 27.9836 74.8605 27.8035C74.5571 27.6139 74.2063 27.5191 73.8081 27.5191C73.4004 27.5191 73.0448 27.6139 72.7414 27.8035C72.438 27.9836 72.1962 28.2349 72.0161 28.5573C71.8454 28.8796 71.7601 29.2589 71.7601 29.6951ZM83.5223 26.1964H85.2148V33.2222H83.6503L83.5081 32.2693C83.309 32.6106 82.9961 32.8856 82.5694 33.0942C82.1522 33.3028 81.7114 33.4071 81.2468 33.4071C80.4314 33.4071 79.7961 33.1511 79.341 32.6391C78.8954 32.1271 78.6725 31.4444 78.6725 30.5911V26.1964H80.365V29.9937C80.365 30.6669 80.493 31.1552 80.749 31.4586C81.0145 31.7525 81.389 31.8995 81.8725 31.8995C82.432 31.8995 82.8444 31.7336 83.1099 31.4017C83.3848 31.0699 83.5223 30.5626 83.5223 29.8799V26.1964ZM91.4019 26.1679V27.7466H90.7619C90.1266 27.7466 89.6288 27.9173 89.2685 28.2586C88.9082 28.5999 88.7281 29.1119 88.7281 29.7946V33.2222H87.0357V26.2106H88.6285L88.7565 27.6613H88.6001C88.6949 27.1967 88.9177 26.8174 89.2685 26.5235C89.6194 26.2296 90.0745 26.0826 90.6339 26.0826C90.7571 26.0826 90.8804 26.0921 91.0037 26.1111C91.1269 26.1205 91.2597 26.1395 91.4019 26.1679ZM96.4245 36.4648V26.1964H97.989L98.0885 27.2915C98.3066 26.8743 98.6337 26.5567 99.0699 26.3386C99.506 26.1111 99.9896 25.9973 100.521 25.9973C101.184 25.9973 101.763 26.149 102.256 26.4524C102.749 26.7463 103.128 27.1682 103.393 27.7182C103.668 28.2586 103.806 28.8986 103.806 29.6382C103.806 30.3588 103.678 31.0035 103.422 31.5724C103.166 32.1413 102.791 32.5916 102.298 32.9235C101.815 33.2459 101.227 33.4071 100.535 33.4071C100.004 33.4071 99.5202 33.3075 99.0841 33.1084C98.6574 32.8998 98.3351 32.6154 98.117 32.2551V36.4648H96.4245ZM98.1312 29.7093C98.1312 30.1359 98.2118 30.5152 98.373 30.8471C98.5342 31.1694 98.7665 31.4254 99.0699 31.6151C99.3733 31.7952 99.7288 31.8853 100.137 31.8853C100.544 31.8853 100.895 31.7905 101.189 31.6008C101.483 31.4112 101.706 31.1552 101.857 30.8328C102.019 30.5105 102.099 30.1359 102.099 29.7093C102.099 29.2826 102.019 28.9081 101.857 28.5857C101.706 28.2634 101.483 28.0121 101.189 27.8319C100.895 27.6423 100.544 27.5475 100.137 27.5475C99.7288 27.5475 99.3733 27.6376 99.0699 27.8177C98.7665 27.9979 98.5342 28.2539 98.373 28.5857C98.2118 28.9081 98.1312 29.2826 98.1312 29.7093ZM109.569 26.1679V27.7466H108.929C108.293 27.7466 107.796 27.9173 107.435 28.2586C107.075 28.5999 106.895 29.1119 106.895 29.7946V33.2222H105.202V26.2106H106.795L106.923 27.6613H106.767C106.862 27.1967 107.084 26.8174 107.435 26.5235C107.786 26.2296 108.241 26.0826 108.801 26.0826C108.924 26.0826 109.047 26.0921 109.17 26.1111C109.294 26.1205 109.426 26.1395 109.569 26.1679ZM113.651 33.4071C112.959 33.4071 112.342 33.2506 111.802 32.9377C111.271 32.6154 110.854 32.1792 110.55 31.6293C110.247 31.0699 110.095 30.4299 110.095 29.7093C110.095 28.9792 110.242 28.3345 110.536 27.7751C110.83 27.2156 111.238 26.7795 111.759 26.4666C112.29 26.1537 112.902 25.9973 113.594 25.9973C114.295 25.9973 114.897 26.1442 115.4 26.4382C115.912 26.7321 116.31 27.1445 116.595 27.6755C116.879 28.2065 117.021 28.837 117.021 29.5671V30.0933L110.991 30.1075L111.02 29.0266H115.329C115.329 28.5241 115.172 28.1259 114.86 27.8319C114.547 27.538 114.129 27.3911 113.608 27.3911C113.191 27.3911 112.84 27.4764 112.556 27.6471C112.281 27.8177 112.067 28.0737 111.916 28.4151C111.773 28.7564 111.702 29.1783 111.702 29.6808C111.702 30.4488 111.868 31.0319 112.2 31.4302C112.532 31.8189 113.025 32.0133 113.679 32.0133C114.153 32.0133 114.542 31.9232 114.845 31.7431C115.158 31.5629 115.362 31.3022 115.457 30.9608H117.036C116.884 31.7194 116.509 32.3167 115.912 32.7528C115.315 33.189 114.561 33.4071 113.651 33.4071ZM117.713 26.1964H122.094V27.6186H117.713V26.1964ZM122.108 22.7119V24.1768C122.013 24.1768 121.914 24.1768 121.809 24.1768C121.705 24.1768 121.606 24.1768 121.511 24.1768C121.065 24.1768 120.771 24.2811 120.629 24.4897C120.487 24.6983 120.416 24.9733 120.416 25.3146V33.2222H118.723V25.3146C118.723 24.6888 118.828 24.1816 119.036 23.7928C119.245 23.3946 119.534 23.1054 119.904 22.9253C120.283 22.7356 120.724 22.6408 121.226 22.6408C121.359 22.6408 121.501 22.6503 121.653 22.6693C121.814 22.6788 121.966 22.693 122.108 22.7119ZM126.137 33.4071C125.445 33.4071 124.828 33.2506 124.288 32.9377C123.757 32.6154 123.34 32.1792 123.036 31.6293C122.733 31.0699 122.581 30.4299 122.581 29.7093C122.581 28.9792 122.728 28.3345 123.022 27.7751C123.316 27.2156 123.724 26.7795 124.245 26.4666C124.776 26.1537 125.388 25.9973 126.08 25.9973C126.782 25.9973 127.384 26.1442 127.886 26.4382C128.398 26.7321 128.796 27.1445 129.081 27.6755C129.365 28.2065 129.507 28.837 129.507 29.5671V30.0933L123.477 30.1075L123.506 29.0266H127.815C127.815 28.5241 127.659 28.1259 127.346 27.8319C127.033 27.538 126.616 27.3911 126.094 27.3911C125.677 27.3911 125.326 27.4764 125.042 27.6471C124.767 27.8177 124.553 28.0737 124.402 28.4151C124.259 28.7564 124.188 29.1783 124.188 29.6808C124.188 30.4488 124.354 31.0319 124.686 31.4302C125.018 31.8189 125.511 32.0133 126.165 32.0133C126.639 32.0133 127.028 31.9232 127.331 31.7431C127.644 31.5629 127.848 31.3022 127.943 30.9608H129.522C129.37 31.7194 128.995 32.3167 128.398 32.7528C127.801 33.189 127.047 33.4071 126.137 33.4071ZM135.277 26.1679V27.7466H134.637C134.002 27.7466 133.504 27.9173 133.144 28.2586C132.783 28.5999 132.603 29.1119 132.603 29.7946V33.2222H130.911V26.2106H132.504L132.632 27.6613H132.475C132.57 27.1967 132.793 26.8174 133.144 26.5235C133.494 26.2296 133.949 26.0826 134.509 26.0826C134.632 26.0826 134.755 26.0921 134.879 26.1111C135.002 26.1205 135.135 26.1395 135.277 26.1679ZM140.832 26.1679V27.7466H140.192C139.557 27.7466 139.059 27.9173 138.699 28.2586C138.339 28.5999 138.159 29.1119 138.159 29.7946V33.2222H136.466V26.2106H138.059L138.187 27.6613H138.031C138.125 27.1967 138.348 26.8174 138.699 26.5235C139.05 26.2296 139.505 26.0826 140.064 26.0826C140.188 26.0826 140.311 26.0921 140.434 26.1111C140.557 26.1205 140.69 26.1395 140.832 26.1679ZM144.915 33.4071C144.222 33.4071 143.606 33.2506 143.066 32.9377C142.535 32.6154 142.118 32.1792 141.814 31.6293C141.511 31.0699 141.359 30.4299 141.359 29.7093C141.359 28.9792 141.506 28.3345 141.8 27.7751C142.094 27.2156 142.502 26.7795 143.023 26.4666C143.554 26.1537 144.166 25.9973 144.858 25.9973C145.559 25.9973 146.161 26.1442 146.664 26.4382C147.176 26.7321 147.574 27.1445 147.859 27.6755C148.143 28.2065 148.285 28.837 148.285 29.5671V30.0933L142.255 30.1075L142.283 29.0266H146.593C146.593 28.5241 146.436 28.1259 146.123 27.8319C145.811 27.538 145.393 27.3911 144.872 27.3911C144.455 27.3911 144.104 27.4764 143.819 27.6471C143.544 27.8177 143.331 28.0737 143.179 28.4151C143.037 28.7564 142.966 29.1783 142.966 29.6808C142.966 30.4488 143.132 31.0319 143.464 31.4302C143.796 31.8189 144.289 32.0133 144.943 32.0133C145.417 32.0133 145.806 31.9232 146.109 31.7431C146.422 31.5629 146.626 31.3022 146.721 30.9608H148.299C148.148 31.7194 147.773 32.3167 147.176 32.7528C146.579 33.189 145.825 33.4071 144.915 33.4071ZM152.561 33.4071C151.879 33.4071 151.291 33.2554 150.798 32.9519C150.314 32.6391 149.935 32.2076 149.66 31.6577C149.395 31.1078 149.262 30.4678 149.262 29.7377C149.262 29.0076 149.395 28.3629 149.66 27.8035C149.935 27.2346 150.324 26.7937 150.826 26.4808C151.338 26.1585 151.945 25.9973 152.647 25.9973C153.149 25.9973 153.604 26.0968 154.012 26.2959C154.42 26.4856 154.733 26.7605 154.951 27.1208V22.6408H156.643V33.2222H155.079L154.965 32.1128C154.756 32.5111 154.434 32.8287 153.998 33.0657C153.571 33.2933 153.092 33.4071 152.561 33.4071ZM152.931 31.8568C153.339 31.8568 153.694 31.7668 153.998 31.5866C154.301 31.397 154.533 31.141 154.695 30.8186C154.856 30.4868 154.936 30.1075 154.936 29.6808C154.936 29.2542 154.856 28.8796 154.695 28.5573C154.533 28.2254 154.301 27.9694 153.998 27.7893C153.694 27.6091 153.339 27.5191 152.931 27.5191C152.533 27.5191 152.182 27.6139 151.879 27.8035C151.585 27.9836 151.357 28.2349 151.196 28.5573C151.044 28.8796 150.968 29.2542 150.968 29.6808C150.968 30.1075 151.044 30.4868 151.196 30.8186C151.357 31.141 151.585 31.397 151.879 31.5866C152.182 31.7668 152.533 31.8568 152.931 31.8568ZM164.006 33.2222H162.314V22.6408H164.006V33.2222ZM167.918 33.4071C167.178 33.4071 166.59 33.2079 166.154 32.8097C165.727 32.4115 165.514 31.8805 165.514 31.2168C165.514 30.5721 165.742 30.0601 166.197 29.6808C166.652 29.2921 167.297 29.0645 168.131 28.9982L170.236 28.8275V28.6711C170.236 28.3487 170.174 28.0879 170.051 27.8888C169.928 27.6897 169.757 27.5428 169.539 27.4479C169.321 27.3531 169.065 27.3057 168.771 27.3057C168.25 27.3057 167.847 27.41 167.562 27.6186C167.287 27.8272 167.15 28.1211 167.15 28.5004H165.713C165.713 27.9884 165.841 27.5475 166.097 27.1777C166.353 26.7985 166.718 26.5093 167.192 26.3102C167.666 26.1016 168.221 25.9973 168.856 25.9973C169.482 25.9973 170.018 26.1063 170.463 26.3244C170.919 26.5425 171.269 26.8743 171.516 27.3199C171.762 27.7561 171.886 28.3013 171.886 28.9555V33.2222H170.407L170.264 32.1697C170.113 32.5395 169.819 32.8382 169.383 33.0657C168.956 33.2933 168.468 33.4071 167.918 33.4071ZM168.458 32.1128C169.008 32.1128 169.439 31.9611 169.752 31.6577C170.075 31.3448 170.236 30.9134 170.236 30.3635V29.9937L168.743 30.1217C168.202 30.1596 167.813 30.2687 167.576 30.4488C167.349 30.629 167.235 30.8613 167.235 31.1457C167.235 31.4776 167.339 31.7241 167.548 31.8853C167.766 32.037 168.069 32.1128 168.458 32.1128ZM175.311 33.2222H173.619V26.1964H175.183L175.326 27.1351C175.544 26.7748 175.852 26.4951 176.25 26.2959C176.658 26.0968 177.099 25.9973 177.573 25.9973C178.464 25.9973 179.132 26.258 179.578 26.7795C180.024 27.2915 180.247 28.0026 180.247 28.9128V33.2222H178.554V29.2968C178.554 28.709 178.417 28.2681 178.142 27.9742C177.876 27.6802 177.516 27.5333 177.061 27.5333C176.511 27.5333 176.079 27.7087 175.767 28.0595C175.463 28.4008 175.311 28.8607 175.311 29.4391V33.2222ZM181.568 29.5528C181.568 28.8702 181.705 28.2634 181.98 27.7324C182.265 27.1919 182.658 26.7653 183.161 26.4524C183.663 26.1395 184.246 25.9831 184.91 25.9831C185.507 25.9831 186.019 26.1205 186.446 26.3955C186.873 26.661 187.171 27.026 187.342 27.4906L187.157 27.6471L187.313 26.1964H188.878V32.8666C188.878 33.6441 188.726 34.3173 188.423 34.8862C188.129 35.4551 187.707 35.8912 187.157 36.1946C186.617 36.5075 185.972 36.6639 185.223 36.6639C184.218 36.6639 183.393 36.3937 182.748 35.8533C182.103 35.3128 181.724 34.578 181.61 33.6488H183.317C183.374 34.1134 183.568 34.4737 183.9 34.7297C184.232 34.9952 184.668 35.1279 185.209 35.1279C185.815 35.1279 186.294 34.9478 186.645 34.5875C187.005 34.2367 187.185 33.7674 187.185 33.1795V31.4017L187.385 31.5866C187.223 32.0417 186.91 32.4068 186.446 32.6817C185.991 32.9472 185.46 33.0799 184.853 33.0799C184.199 33.0799 183.625 32.9282 183.132 32.6248C182.639 32.3119 182.255 31.89 181.98 31.3591C181.705 30.8281 181.568 30.226 181.568 29.5528ZM183.274 29.5244C183.274 29.9131 183.355 30.2639 183.516 30.5768C183.677 30.8897 183.9 31.141 184.185 31.3306C184.478 31.5108 184.815 31.6008 185.194 31.6008C185.602 31.6008 185.953 31.5108 186.247 31.3306C186.541 31.1505 186.764 30.9039 186.915 30.5911C187.076 30.2782 187.157 29.9179 187.157 29.5102C187.157 29.1025 187.076 28.7469 186.915 28.4435C186.764 28.1401 186.541 27.9031 186.247 27.7324C185.953 27.5522 185.602 27.4622 185.194 27.4622C184.806 27.4622 184.464 27.5522 184.17 27.7324C183.886 27.9125 183.663 28.1591 183.502 28.4719C183.35 28.7754 183.274 29.1262 183.274 29.5244ZM195.467 26.1964H197.159V33.2222H195.595L195.453 32.2693C195.253 32.6106 194.941 32.8856 194.514 33.0942C194.097 33.3028 193.656 33.4071 193.191 33.4071C192.376 33.4071 191.741 33.1511 191.285 32.6391C190.84 32.1271 190.617 31.4444 190.617 30.5911V26.1964H192.309V29.9937C192.309 30.6669 192.437 31.1552 192.693 31.4586C192.959 31.7525 193.333 31.8995 193.817 31.8995C194.376 31.8995 194.789 31.7336 195.054 31.4017C195.329 31.0699 195.467 30.5626 195.467 29.8799V26.1964ZM201.057 33.4071C200.317 33.4071 199.729 33.2079 199.293 32.8097C198.866 32.4115 198.653 31.8805 198.653 31.2168C198.653 30.5721 198.881 30.0601 199.336 29.6808C199.791 29.2921 200.436 29.0645 201.27 28.9982L203.375 28.8275V28.6711C203.375 28.3487 203.313 28.0879 203.19 27.8888C203.067 27.6897 202.896 27.5428 202.678 27.4479C202.46 27.3531 202.204 27.3057 201.91 27.3057C201.388 27.3057 200.985 27.41 200.701 27.6186C200.426 27.8272 200.289 28.1211 200.289 28.5004H198.852C198.852 27.9884 198.98 27.5475 199.236 27.1777C199.492 26.7985 199.857 26.5093 200.331 26.3102C200.805 26.1016 201.36 25.9973 201.995 25.9973C202.621 25.9973 203.157 26.1063 203.602 26.3244C204.057 26.5425 204.408 26.8743 204.655 27.3199C204.901 27.7561 205.025 28.3013 205.025 28.9555V33.2222H203.545L203.403 32.1697C203.252 32.5395 202.958 32.8382 202.521 33.0657C202.095 33.2933 201.606 33.4071 201.057 33.4071ZM201.597 32.1128C202.147 32.1128 202.578 31.9611 202.891 31.6577C203.214 31.3448 203.375 30.9134 203.375 30.3635V29.9937L201.881 30.1217C201.341 30.1596 200.952 30.2687 200.715 30.4488C200.488 30.629 200.374 30.8613 200.374 31.1457C200.374 31.4776 200.478 31.7241 200.687 31.8853C200.905 32.037 201.208 32.1128 201.597 32.1128ZM206.345 29.5528C206.345 28.8702 206.483 28.2634 206.758 27.7324C207.042 27.1919 207.436 26.7653 207.938 26.4524C208.441 26.1395 209.024 25.9831 209.688 25.9831C210.285 25.9831 210.797 26.1205 211.224 26.3955C211.65 26.661 211.949 27.026 212.12 27.4906L211.935 27.6471L212.091 26.1964H213.656V32.8666C213.656 33.6441 213.504 34.3173 213.201 34.8862C212.907 35.4551 212.485 35.8912 211.935 36.1946C211.394 36.5075 210.75 36.6639 210.001 36.6639C208.996 36.6639 208.171 36.3937 207.526 35.8533C206.881 35.3128 206.502 34.578 206.388 33.6488H208.095C208.152 34.1134 208.346 34.4737 208.678 34.7297C209.01 34.9952 209.446 35.1279 209.986 35.1279C210.593 35.1279 211.072 34.9478 211.423 34.5875C211.783 34.2367 211.963 33.7674 211.963 33.1795V31.4017L212.162 31.5866C212.001 32.0417 211.688 32.4068 211.224 32.6817C210.769 32.9472 210.238 33.0799 209.631 33.0799C208.977 33.0799 208.403 32.9282 207.91 32.6248C207.417 32.3119 207.033 31.89 206.758 31.3591C206.483 30.8281 206.345 30.226 206.345 29.5528ZM208.052 29.5244C208.052 29.9131 208.133 30.2639 208.294 30.5768C208.455 30.8897 208.678 31.141 208.962 31.3306C209.256 31.5108 209.593 31.6008 209.972 31.6008C210.38 31.6008 210.731 31.5108 211.025 31.3306C211.318 31.1505 211.541 30.9039 211.693 30.5911C211.854 30.2782 211.935 29.9179 211.935 29.5102C211.935 29.1025 211.854 28.7469 211.693 28.4435C211.541 28.1401 211.318 27.9031 211.025 27.7324C210.731 27.5522 210.38 27.4622 209.972 27.4622C209.583 27.4622 209.242 27.5522 208.948 27.7324C208.664 27.9125 208.441 28.1591 208.28 28.4719C208.128 28.7754 208.052 29.1262 208.052 29.5244ZM218.609 33.4071C217.917 33.4071 217.301 33.2506 216.76 32.9377C216.229 32.6154 215.812 32.1792 215.509 31.6293C215.205 31.0699 215.053 30.4299 215.053 29.7093C215.053 28.9792 215.2 28.3345 215.494 27.7751C215.788 27.2156 216.196 26.7795 216.717 26.4666C217.248 26.1537 217.86 25.9973 218.552 25.9973C219.254 25.9973 219.856 26.1442 220.358 26.4382C220.87 26.7321 221.269 27.1445 221.553 27.6755C221.837 28.2065 221.98 28.837 221.98 29.5671V30.0933L215.949 30.1075L215.978 29.0266H220.287C220.287 28.5241 220.131 28.1259 219.818 27.8319C219.505 27.538 219.088 27.3911 218.566 27.3911C218.149 27.3911 217.798 27.4764 217.514 27.6471C217.239 27.8177 217.026 28.0737 216.874 28.4151C216.732 28.7564 216.661 29.1783 216.661 29.6808C216.661 30.4488 216.826 31.0319 217.158 31.4302C217.49 31.8189 217.983 32.0133 218.637 32.0133C219.112 32.0133 219.5 31.9232 219.804 31.7431C220.117 31.5629 220.32 31.3022 220.415 30.9608H221.994C221.842 31.7194 221.468 32.3167 220.87 32.7528C220.273 33.189 219.519 33.4071 218.609 33.4071ZM226.505 26.1964H230.886V27.6186H226.505V26.1964ZM230.9 22.7119V24.1768C230.805 24.1768 230.705 24.1768 230.601 24.1768C230.497 24.1768 230.397 24.1768 230.302 24.1768C229.857 24.1768 229.563 24.2811 229.421 24.4897C229.278 24.6983 229.207 24.9733 229.207 25.3146V33.2222H227.515V25.3146C227.515 24.6888 227.619 24.1816 227.828 23.7928C228.036 23.3946 228.326 23.1054 228.695 22.9253C229.075 22.7356 229.515 22.6408 230.018 22.6408C230.151 22.6408 230.293 22.6503 230.445 22.6693C230.606 22.6788 230.758 22.693 230.9 22.7119ZM231.373 29.7093C231.373 28.9792 231.534 28.3345 231.856 27.7751C232.179 27.2156 232.62 26.7795 233.179 26.4666C233.748 26.1537 234.397 25.9973 235.128 25.9973C235.848 25.9973 236.488 26.1537 237.048 26.4666C237.607 26.7795 238.048 27.2156 238.37 27.7751C238.702 28.3345 238.868 28.9792 238.868 29.7093C238.868 30.4299 238.702 31.0699 238.37 31.6293C238.048 32.1792 237.607 32.6106 237.048 32.9235C236.488 33.2364 235.848 33.3928 235.128 33.3928C234.397 33.3928 233.748 33.2364 233.179 32.9235C232.62 32.6106 232.179 32.1792 231.856 31.6293C231.534 31.0699 231.373 30.4299 231.373 29.7093ZM233.08 29.6951C233.08 30.1217 233.165 30.501 233.336 30.8328C233.516 31.1647 233.757 31.4207 234.061 31.6008C234.364 31.781 234.72 31.8711 235.128 31.8711C235.526 31.8711 235.877 31.781 236.18 31.6008C236.483 31.4207 236.72 31.1647 236.891 30.8328C237.071 30.501 237.161 30.1217 237.161 29.6951C237.161 29.2589 237.071 28.8796 236.891 28.5573C236.72 28.2349 236.483 27.9836 236.18 27.8035C235.877 27.6139 235.526 27.5191 235.128 27.5191C234.72 27.5191 234.364 27.6139 234.061 27.8035C233.757 27.9836 233.516 28.2349 233.336 28.5573C233.165 28.8796 233.08 29.2589 233.08 29.6951ZM244.61 26.1679V27.7466H243.97C243.335 27.7466 242.837 27.9173 242.477 28.2586C242.117 28.5999 241.936 29.1119 241.936 29.7946V33.2222H240.244V26.2106H241.837L241.965 27.6613H241.808C241.903 27.1967 242.126 26.8174 242.477 26.5235C242.828 26.2296 243.283 26.0826 243.842 26.0826C243.965 26.0826 244.089 26.0921 244.212 26.1111C244.335 26.1205 244.468 26.1395 244.61 26.1679ZM251.709 33.4071C250.97 33.4071 250.382 33.2079 249.946 32.8097C249.519 32.4115 249.306 31.8805 249.306 31.2168C249.306 30.5721 249.533 30.0601 249.988 29.6808C250.444 29.2921 251.088 29.0645 251.923 28.9982L254.028 28.8275V28.6711C254.028 28.3487 253.966 28.0879 253.843 27.8888C253.719 27.6897 253.549 27.5428 253.331 27.4479C253.113 27.3531 252.857 27.3057 252.563 27.3057C252.041 27.3057 251.638 27.41 251.354 27.6186C251.079 27.8272 250.941 28.1211 250.941 28.5004H249.505C249.505 27.9884 249.633 27.5475 249.889 27.1777C250.145 26.7985 250.51 26.5093 250.984 26.3102C251.458 26.1016 252.013 25.9973 252.648 25.9973C253.274 25.9973 253.809 26.1063 254.255 26.3244C254.71 26.5425 255.061 26.8743 255.308 27.3199C255.554 27.7561 255.677 28.3013 255.677 28.9555V33.2222H254.198L254.056 32.1697C253.904 32.5395 253.61 32.8382 253.174 33.0657C252.748 33.2933 252.259 33.4071 251.709 33.4071ZM252.25 32.1128C252.8 32.1128 253.231 31.9611 253.544 31.6577C253.866 31.3448 254.028 30.9134 254.028 30.3635V29.9937L252.534 30.1217C251.994 30.1596 251.605 30.2687 251.368 30.4488C251.14 30.629 251.027 30.8613 251.027 31.1457C251.027 31.4776 251.131 31.7241 251.34 31.8853C251.558 32.037 251.861 32.1128 252.25 32.1128ZM262.175 26.1964H263.868V33.2222H262.303L262.161 32.2693C261.962 32.6106 261.649 32.8856 261.222 33.0942C260.805 33.3028 260.364 33.4071 259.9 33.4071C259.084 33.4071 258.449 33.1511 257.994 32.6391C257.548 32.1271 257.325 31.4444 257.325 30.5911V26.1964H259.018V29.9937C259.018 30.6669 259.146 31.1552 259.402 31.4586C259.667 31.7525 260.042 31.8995 260.525 31.8995C261.085 31.8995 261.497 31.7336 261.763 31.4017C262.038 31.0699 262.175 30.5626 262.175 29.8799V26.1964ZM268.422 33.4071C267.74 33.4071 267.152 33.2554 266.659 32.9519C266.175 32.6391 265.796 32.2076 265.521 31.6577C265.256 31.1078 265.123 30.4678 265.123 29.7377C265.123 29.0076 265.256 28.3629 265.521 27.8035C265.796 27.2346 266.185 26.7937 266.687 26.4808C267.199 26.1585 267.806 25.9973 268.508 25.9973C269.01 25.9973 269.465 26.0968 269.873 26.2959C270.281 26.4856 270.594 26.7605 270.812 27.1208V22.6408H272.504V33.2222H270.94L270.826 32.1128C270.617 32.5111 270.295 32.8287 269.859 33.0657C269.432 33.2933 268.953 33.4071 268.422 33.4071ZM268.792 31.8568C269.2 31.8568 269.555 31.7668 269.859 31.5866C270.162 31.397 270.395 31.141 270.556 30.8186C270.717 30.4868 270.798 30.1075 270.798 29.6808C270.798 29.2542 270.717 28.8796 270.556 28.5573C270.395 28.2254 270.162 27.9694 269.859 27.7893C269.555 27.6091 269.2 27.5191 268.792 27.5191C268.394 27.5191 268.043 27.6139 267.74 27.8035C267.446 27.9836 267.218 28.2349 267.057 28.5573C266.905 28.8796 266.83 29.2542 266.83 29.6808C266.83 30.1075 266.905 30.4868 267.057 30.8186C267.218 31.141 267.446 31.397 267.74 31.5866C268.043 31.7668 268.394 31.8568 268.792 31.8568ZM274.327 33.2222V26.1964H276.02V33.2222H274.327ZM275.166 24.7742C274.873 24.7742 274.626 24.6746 274.427 24.4755C274.228 24.2764 274.128 24.0299 274.128 23.7359C274.128 23.4515 274.228 23.2097 274.427 23.0106C274.626 22.8115 274.873 22.7119 275.166 22.7119C275.441 22.7119 275.678 22.8115 275.878 23.0106C276.086 23.2097 276.19 23.4515 276.19 23.7359C276.19 24.0299 276.086 24.2764 275.878 24.4755C275.678 24.6746 275.441 24.7742 275.166 24.7742ZM277.415 29.7093C277.415 28.9792 277.576 28.3345 277.898 27.7751C278.22 27.2156 278.661 26.7795 279.221 26.4666C279.79 26.1537 280.439 25.9973 281.169 25.9973C281.89 25.9973 282.53 26.1537 283.089 26.4666C283.649 26.7795 284.09 27.2156 284.412 27.7751C284.744 28.3345 284.91 28.9792 284.91 29.7093C284.91 30.4299 284.744 31.0699 284.412 31.6293C284.09 32.1792 283.649 32.6106 283.089 32.9235C282.53 33.2364 281.89 33.3928 281.169 33.3928C280.439 33.3928 279.79 33.2364 279.221 32.9235C278.661 32.6106 278.22 32.1792 277.898 31.6293C277.576 31.0699 277.415 30.4299 277.415 29.7093ZM279.121 29.6951C279.121 30.1217 279.207 30.501 279.377 30.8328C279.557 31.1647 279.799 31.4207 280.103 31.6008C280.406 31.781 280.762 31.8711 281.169 31.8711C281.567 31.8711 281.918 31.781 282.222 31.6008C282.525 31.4207 282.762 31.1647 282.933 30.8328C283.113 30.501 283.203 30.1217 283.203 29.6951C283.203 29.2589 283.113 28.8796 282.933 28.5573C282.762 28.2349 282.525 27.9836 282.222 27.8035C281.918 27.6139 281.567 27.5191 281.169 27.5191C280.762 27.5191 280.406 27.6139 280.103 27.8035C279.799 27.9836 279.557 28.2349 279.377 28.5573C279.207 28.8796 279.121 29.2589 279.121 29.6951ZM286.257 30.1786V28.6711H290.808V30.1786H286.257ZM20.6973 54.2222H19.1329V43.6408H20.8253V48.2346C21.0529 47.8364 21.3847 47.5282 21.8209 47.3102C22.257 47.0921 22.7501 46.9831 23.3 46.9831C23.9637 46.9831 24.5326 47.1442 25.0067 47.4666C25.4902 47.789 25.86 48.2346 26.116 48.8035C26.3815 49.3629 26.5142 50.0171 26.5142 50.7662C26.5142 51.4773 26.3767 52.1078 26.1018 52.6577C25.8268 53.2076 25.4381 53.6391 24.9355 53.9519C24.4425 54.2554 23.8594 54.4071 23.1862 54.4071C22.6552 54.4071 22.1764 54.2933 21.7498 54.0657C21.3326 53.8287 21.015 53.5111 20.7969 53.1128L20.6973 54.2222ZM20.8395 50.6808C20.8395 51.1075 20.9201 51.4868 21.0813 51.8186C21.2425 52.141 21.4748 52.397 21.7782 52.5866C22.0816 52.7668 22.4372 52.8568 22.8449 52.8568C23.2526 52.8568 23.6034 52.7668 23.8973 52.5866C24.1912 52.397 24.4141 52.141 24.5658 51.8186C24.727 51.4868 24.8075 51.1075 24.8075 50.6808C24.8075 50.2542 24.727 49.8796 24.5658 49.5573C24.4141 49.2349 24.1912 48.9836 23.8973 48.8035C23.6034 48.6139 23.2526 48.5191 22.8449 48.5191C22.4372 48.5191 22.0816 48.6091 21.7782 48.7893C21.4748 48.9694 21.2425 49.2254 21.0813 49.5573C20.9201 49.8796 20.8395 50.2542 20.8395 50.6808ZM29.9871 54.4071C29.2475 54.4071 28.6597 54.2079 28.2235 53.8097C27.7969 53.4115 27.5835 52.8805 27.5835 52.2168C27.5835 51.5721 27.8111 51.0601 28.2662 50.6808C28.7213 50.2921 29.3661 50.0645 30.2004 49.9982L32.3053 49.8275V49.6711C32.3053 49.3487 32.2437 49.0879 32.1204 48.8888C31.9972 48.6897 31.8265 48.5428 31.6084 48.4479C31.3904 48.3531 31.1344 48.3057 30.8404 48.3057C30.319 48.3057 29.916 48.41 29.6315 48.6186C29.3566 48.8272 29.2191 49.1211 29.2191 49.5004H27.7827C27.7827 48.9884 27.9107 48.5475 28.1667 48.1777C28.4227 47.7985 28.7877 47.5093 29.2618 47.3102C29.7358 47.1016 30.2905 46.9973 30.9258 46.9973C31.5515 46.9973 32.0872 47.1063 32.5329 47.3244C32.988 47.5425 33.3388 47.8743 33.5853 48.3199C33.8318 48.7561 33.9551 49.3013 33.9551 49.9555V54.2222H32.476L32.3338 53.1697C32.1821 53.5395 31.8881 53.8382 31.452 54.0657C31.0253 54.2933 30.537 54.4071 29.9871 54.4071ZM30.5275 53.1128C31.0775 53.1128 31.5089 52.9611 31.8218 52.6577C32.1441 52.3448 32.3053 51.9134 32.3053 51.3635V50.9937L30.812 51.1217C30.2715 51.1596 29.8828 51.2687 29.6458 51.4488C29.4182 51.629 29.3044 51.8613 29.3044 52.1457C29.3044 52.4776 29.4087 52.7241 29.6173 52.8853C29.8354 53.037 30.1388 53.1128 30.5275 53.1128ZM35.148 52.1031H36.7551C36.7646 52.4159 36.8784 52.6625 37.0964 52.8426C37.324 53.0133 37.6321 53.0986 38.0209 53.0986C38.4475 53.0986 38.7652 53.0228 38.9738 52.8711C39.1918 52.7194 39.3009 52.5108 39.3009 52.2453C39.3009 52.0746 39.244 51.9229 39.1302 51.7902C39.0164 51.6574 38.7984 51.5531 38.476 51.4773L37.2244 51.1928C36.5892 51.0411 36.1151 50.8088 35.8022 50.4959C35.4988 50.1831 35.3471 49.7469 35.3471 49.1875C35.3471 48.7324 35.4656 48.3436 35.7027 48.0213C35.9397 47.6894 36.2668 47.4382 36.684 47.2675C37.1012 47.0874 37.58 46.9973 38.1204 46.9973C38.6419 46.9973 39.1018 47.0921 39.5 47.2817C39.8982 47.4619 40.2064 47.7226 40.4244 48.0639C40.652 48.4053 40.7658 48.8035 40.7658 49.2586H39.1587C39.1492 48.9552 39.0449 48.7134 38.8458 48.5333C38.6561 48.3531 38.3907 48.2631 38.0493 48.2631C37.708 48.2631 37.4378 48.3389 37.2387 48.4906C37.049 48.6423 36.9542 48.8509 36.9542 49.1164C36.9542 49.5146 37.2576 49.7848 37.8644 49.9271L39.1302 50.2257C39.7181 50.3585 40.159 50.5718 40.4529 50.8657C40.7563 51.1596 40.908 51.5768 40.908 52.1173C40.908 52.5819 40.7847 52.9896 40.5382 53.3404C40.2917 53.6817 39.9456 53.9472 39.5 54.1368C39.0638 54.317 38.5566 54.4071 37.9782 54.4071C37.1059 54.4071 36.4138 54.1985 35.9018 53.7813C35.3992 53.3546 35.148 52.7952 35.148 52.1031ZM45.3729 54.4071C44.6807 54.4071 44.0644 54.2506 43.524 53.9377C42.993 53.6154 42.5758 53.1792 42.2724 52.6293C41.969 52.0699 41.8173 51.4299 41.8173 50.7093C41.8173 49.9792 41.9643 49.3345 42.2582 48.7751C42.5521 48.2156 42.9598 47.7795 43.4813 47.4666C44.0123 47.1537 44.6238 46.9973 45.316 46.9973C46.0176 46.9973 46.6197 47.1442 47.1222 47.4382C47.6342 47.7321 48.0324 48.1445 48.3169 48.6755C48.6013 49.2065 48.7435 49.837 48.7435 50.5671V51.0933L42.7133 51.1075L42.7418 50.0266H47.0511C47.0511 49.5241 46.8947 49.1259 46.5818 48.8319C46.2689 48.538 45.8517 48.3911 45.3302 48.3911C44.913 48.3911 44.5622 48.4764 44.2778 48.6471C44.0028 48.8177 43.7895 49.0737 43.6378 49.4151C43.4955 49.7564 43.4244 50.1783 43.4244 50.6808C43.4244 51.4488 43.5904 52.0319 43.9222 52.4302C44.2541 52.8189 44.7471 53.0133 45.4013 53.0133C45.8754 53.0133 46.2641 52.9232 46.5675 52.7431C46.8804 52.5629 47.0843 52.3022 47.1791 51.9608H48.7578C48.6061 52.7194 48.2315 53.3167 47.6342 53.7528C47.0369 54.189 46.2831 54.4071 45.3729 54.4071ZM53.0197 54.4071C52.337 54.4071 51.7491 54.2554 51.2561 53.9519C50.7725 53.6391 50.3933 53.2076 50.1183 52.6577C49.8528 52.1078 49.7201 51.4678 49.7201 50.7377C49.7201 50.0076 49.8528 49.3629 50.1183 48.8035C50.3933 48.2346 50.782 47.7937 51.2845 47.4808C51.7965 47.1585 52.4034 46.9973 53.105 46.9973C53.6075 46.9973 54.0626 47.0968 54.4703 47.2959C54.878 47.4856 55.1909 47.7605 55.409 48.1208V43.6408H57.1014V54.2222H55.537L55.4232 53.1128C55.2146 53.5111 54.8922 53.8287 54.4561 54.0657C54.0294 54.2933 53.5506 54.4071 53.0197 54.4071ZM53.3894 52.8568C53.7971 52.8568 54.1527 52.7668 54.4561 52.5866C54.7595 52.397 54.9918 52.141 55.153 51.8186C55.3142 51.4868 55.3948 51.1075 55.3948 50.6808C55.3948 50.2542 55.3142 49.8796 55.153 49.5573C54.9918 49.2254 54.7595 48.9694 54.4561 48.7893C54.1527 48.6091 53.7971 48.5191 53.3894 48.5191C52.9912 48.5191 52.6404 48.6139 52.337 48.8035C52.0431 48.9836 51.8155 49.2349 51.6543 49.5573C51.5026 49.8796 51.4268 50.2542 51.4268 50.6808C51.4268 51.1075 51.5026 51.4868 51.6543 51.8186C51.8155 52.141 52.0431 52.397 52.337 52.5866C52.6404 52.7668 52.9912 52.8568 53.3894 52.8568ZM64.4503 54.2222H62.7579V43.6408H64.4503V48.1351C64.6684 47.7842 64.9765 47.5093 65.3748 47.3102C65.773 47.1016 66.2281 46.9973 66.7401 46.9973C67.6124 46.9973 68.2714 47.258 68.717 47.7795C69.1626 48.2915 69.3854 49.0026 69.3854 49.9128V54.2222H67.693V50.2968C67.693 49.8986 67.6314 49.5715 67.5081 49.3155C67.3848 49.0595 67.2094 48.8651 66.9819 48.7324C66.7638 48.5996 66.5031 48.5333 66.1997 48.5333C65.8394 48.5333 65.5265 48.6139 65.261 48.7751C64.9955 48.9362 64.7917 49.1591 64.6494 49.4435C64.5167 49.7185 64.4503 50.0314 64.4503 50.3822V54.2222ZM74.2479 54.4071C73.5557 54.4071 72.9394 54.2506 72.399 53.9377C71.868 53.6154 71.4508 53.1792 71.1474 52.6293C70.844 52.0699 70.6923 51.4299 70.6923 50.7093C70.6923 49.9792 70.8393 49.3345 71.1332 48.7751C71.4271 48.2156 71.8348 47.7795 72.3563 47.4666C72.8873 47.1537 73.4988 46.9973 74.191 46.9973C74.8926 46.9973 75.4947 47.1442 75.9972 47.4382C76.5092 47.7321 76.9074 48.1445 77.1919 48.6755C77.4763 49.2065 77.6185 49.837 77.6185 50.5671V51.0933L71.5883 51.1075L71.6168 50.0266H75.9261C75.9261 49.5241 75.7697 49.1259 75.4568 48.8319C75.1439 48.538 74.7267 48.3911 74.2052 48.3911C73.788 48.3911 73.4372 48.4764 73.1528 48.6471C72.8778 48.8177 72.6645 49.0737 72.5128 49.4151C72.3705 49.7564 72.2994 50.1783 72.2994 50.6808C72.2994 51.4488 72.4654 52.0319 72.7972 52.4302C73.1291 52.8189 73.6221 53.0133 74.2763 53.0133C74.7504 53.0133 75.1391 52.9232 75.4425 52.7431C75.7554 52.5629 75.9593 52.3022 76.0541 51.9608H77.6328C77.4811 52.7194 77.1065 53.3167 76.5092 53.7528C75.9119 54.189 75.1581 54.4071 74.2479 54.4071ZM80.7284 54.2222H79.036V43.6408H80.7284V54.2222ZM82.5634 57.4648V47.1964H84.1279L84.2274 48.2915C84.4455 47.8743 84.7726 47.5567 85.2088 47.3386C85.6449 47.1111 86.1285 46.9973 86.6594 46.9973C87.3231 46.9973 87.9015 47.149 88.3945 47.4524C88.8876 47.7463 89.2668 48.1682 89.5323 48.7182C89.8073 49.2586 89.9448 49.8986 89.9448 50.6382C89.9448 51.3588 89.8168 52.0035 89.5608 52.5724C89.3048 53.1413 88.9303 53.5916 88.4372 53.9235C87.9537 54.2459 87.3658 54.4071 86.6737 54.4071C86.1427 54.4071 85.6591 54.3075 85.223 54.1084C84.7963 53.8998 84.474 53.6154 84.2559 53.2551V57.4648H82.5634ZM84.2701 50.7093C84.2701 51.1359 84.3507 51.5152 84.5119 51.8471C84.6731 52.1694 84.9054 52.4254 85.2088 52.6151C85.5122 52.7952 85.8677 52.8853 86.2754 52.8853C86.6831 52.8853 87.034 52.7905 87.3279 52.6008C87.6218 52.4112 87.8446 52.1552 87.9963 51.8328C88.1575 51.5105 88.2381 51.1359 88.2381 50.7093C88.2381 50.2826 88.1575 49.9081 87.9963 49.5857C87.8446 49.2634 87.6218 49.0121 87.3279 48.8319C87.034 48.6423 86.6831 48.5475 86.2754 48.5475C85.8677 48.5475 85.5122 48.6376 85.2088 48.8177C84.9054 48.9979 84.6731 49.2539 84.5119 49.5857C84.3507 49.9081 84.2701 50.2826 84.2701 50.7093Z" fill="#393939"/>
<rect x="4" y="63.7777" width="320" height="49.7778" fill="white"/>
<rect opacity="0.8" x="18.2188" y="112.667" width="291.556" height="0.888889" fill="#E5E5E5"/>
<path d="M25.5574 94H19.4561V83.8169H25.5432V84.7556H20.4801V88.4249H25.0739V89.3493H20.4801V93.0613H25.5574V94ZM28.4046 94H27.4233V87.1164H28.2766L28.4189 88.3111C28.874 87.4293 29.7842 86.9316 30.7798 86.9316C32.6713 86.9316 33.4535 88.0551 33.4535 89.7902V94H32.4722V90.0036C32.4722 88.3964 31.7469 87.8276 30.6091 87.8276C29.2011 87.8276 28.4046 88.8516 28.4046 90.4018V94ZM34.9401 90.3591C34.9401 88.4818 36.149 86.9316 38.1685 86.9316C39.3632 86.9316 40.2734 87.4862 40.7143 88.496L40.8139 87.1164H41.6672V93.7867C41.6672 95.8347 40.3587 97.1716 38.3392 97.1716C36.5756 97.1716 35.3383 96.176 35.0681 94.512H36.0494C36.2627 95.6213 37.1161 96.2756 38.3534 96.2756C39.7614 96.2756 40.7001 95.3227 40.7001 93.8862V92.2507C40.2307 93.2178 39.2779 93.7867 38.0974 93.7867C36.1347 93.7867 34.9401 92.2364 34.9401 90.3591ZM35.9214 90.3449C35.9214 91.7529 36.789 92.9049 38.2396 92.9049C39.733 92.9049 40.6147 91.824 40.6147 90.3449C40.6147 88.88 39.7614 87.7991 38.2539 87.7991C36.7747 87.7991 35.9214 88.9511 35.9214 90.3449ZM44.739 94H43.7576V83.632H44.739V94ZM47.3096 85.2249C46.9114 85.2249 46.5843 84.8978 46.5843 84.4996C46.5843 84.1013 46.9114 83.76 47.3096 83.76C47.7079 83.76 48.0492 84.1013 48.0492 84.4996C48.0492 84.8978 47.7079 85.2249 47.3096 85.2249ZM46.8261 94V87.1164H47.8074V94H46.8261ZM49.2707 92.0658H50.2094C50.2094 92.8622 50.8067 93.36 51.7739 93.36C52.8405 93.36 53.4663 92.9049 53.4663 92.1653C53.4663 91.5964 53.1819 91.2693 52.3712 91.0702L51.1907 90.7716C49.9961 90.4729 49.413 89.8471 49.413 88.9084C49.413 87.6996 50.4227 86.9316 51.9019 86.9316C53.3525 86.9316 54.2912 87.728 54.3339 89.008H53.381C53.3525 88.2116 52.7979 87.7422 51.8734 87.7422C50.9063 87.7422 50.3659 88.1547 50.3659 88.8942C50.3659 89.4204 50.7356 89.7902 51.4894 89.9751L52.6699 90.2738C53.8645 90.5724 54.405 91.1271 54.405 92.1227C54.405 93.36 53.3525 94.1707 51.7881 94.1707C50.2379 94.1707 49.2707 93.3458 49.2707 92.0658ZM57.0019 93.9858H56.0205V83.632H57.0019V88.3111C57.4428 87.4862 58.2819 86.9316 59.4339 86.9316C61.2401 86.9316 62.0508 88.0551 62.0508 89.7902V94H61.0694V90.0036C61.0694 88.3964 60.3156 87.8276 59.249 87.8276C57.7699 87.8276 57.0019 88.9227 57.0019 90.2453V93.9858Z" fill="#585858"/>
<path fill-rule="evenodd" clip-rule="evenodd" d="M290.219 88.6666C290.219 83.7599 294.201 79.7777 299.108 79.7777C304.014 79.7777 307.997 83.7599 307.997 88.6666C307.997 93.5733 304.014 97.5555 299.108 97.5555C294.201 97.5555 290.219 93.5733 290.219 88.6666ZM291.997 88.6666C291.997 92.5955 295.179 95.7777 299.108 95.7777C303.037 95.7777 306.219 92.5955 306.219 88.6666C306.219 84.7377 303.037 81.5555 299.108 81.5555C295.179 81.5555 291.997 84.7377 291.997 88.6666Z" fill="#B0B0B0"/>
<rect x="4" y="113.556" width="320" height="49.7778" fill="white"/>
<rect opacity="0.8" x="18.2188" y="162.444" width="291.556" height="0.888889" fill="#E5E5E5"/>
<path d="M22.2152 129.02C23.3625 129.02 24.4102 129.148 25.3583 129.404C26.3065 129.66 27.321 130.03 28.4019 130.514V131.623C26.259 130.552 24.2063 130.016 22.2436 130.016C21.7411 130.016 21.3524 130.149 21.0774 130.414C20.8025 130.67 20.665 131.03 20.665 131.495V132.647H22.3005V133.6H20.665V141.778H19.5556V133.6H17.9059V132.647H19.5556V131.467C19.5556 130.737 19.7974 130.149 20.281 129.703C20.774 129.248 21.4188 129.02 22.2152 129.02ZM28.2404 135.833H24.8271C24.2961 135.833 24.0306 136.046 24.0306 136.473C24.0306 136.719 24.097 136.942 24.2298 137.141C24.3625 137.331 24.5189 137.468 24.6991 137.554C25.0973 137.411 25.5572 137.34 26.0786 137.34C26.8561 137.34 27.4535 137.53 27.8706 137.909C28.2878 138.279 28.4964 138.725 28.4964 139.246C28.4964 139.559 28.4443 139.825 28.34 140.043H27.2449C27.3776 139.862 27.444 139.616 27.444 139.303C27.444 139 27.3255 138.753 27.0884 138.563C26.8609 138.364 26.5195 138.265 26.0644 138.265C25.4386 138.265 24.9503 138.402 24.5995 138.677C24.2487 138.952 24.0733 139.284 24.0733 139.673C24.0733 140.147 24.2772 140.536 24.6849 140.839C25.0926 141.133 25.7136 141.28 26.548 141.28C27.1263 141.28 27.7189 141.195 28.3258 141.024V141.977C27.6715 142.138 27.0505 142.219 26.4626 142.219C25.3438 142.219 24.481 141.963 23.8742 141.451C23.2674 140.939 22.964 140.341 22.964 139.659C22.964 138.985 23.2626 138.426 23.86 137.98C23.2247 137.563 22.9071 137.013 22.9071 136.331C22.9071 135.875 23.0683 135.525 23.3906 135.278C23.713 135.032 24.1302 134.908 24.6422 134.908H27.1453V133.6H21.6697V132.647H29.8475V133.6H28.2404V135.833ZM27.8446 129.703C27.6929 129.561 27.6171 129.381 27.6171 129.163C27.6171 128.945 27.6929 128.76 27.8446 128.608C27.9869 128.456 28.167 128.38 28.3851 128.38C28.6032 128.38 28.788 128.456 28.9397 128.608C29.0915 128.76 29.1673 128.945 29.1673 129.163C29.1673 129.381 29.0915 129.561 28.9397 129.703C28.788 129.845 28.6032 129.916 28.3851 129.916C28.167 129.916 27.9869 129.845 27.8446 129.703ZM29.2114 132.647H37.6594V133.6H35.9528V135.975H33.4496C32.8049 135.975 32.2976 136.141 31.9279 136.473C31.5581 136.805 31.3732 137.269 31.3732 137.867C31.3732 138.483 31.5391 138.966 31.871 139.317C32.2028 139.668 32.6485 139.843 33.2079 139.843C33.7673 139.843 34.2129 139.687 34.5448 139.374C34.8861 139.061 35.0662 138.658 35.0852 138.165H36.1519V141.92H35.0425V140.028C34.6538 140.521 34.0138 140.768 33.1225 140.768C32.2408 140.768 31.5296 140.493 30.9892 139.943C30.4487 139.393 30.1785 138.715 30.1785 137.909C30.1785 137.065 30.4582 136.378 31.0176 135.847C31.577 135.307 32.3593 135.036 33.3643 135.036H34.8434V133.6H29.2114V132.647ZM39.7758 132.647H41.4255V133.6H39.79V141.778H38.6806V133.6H37.0309V132.647H38.6522V131.452C38.6522 130.988 38.5242 130.632 38.2682 130.386C38.0217 130.139 37.6946 130.016 37.2869 130.016C36.8792 130.016 36.5568 130.139 36.3197 130.386C36.0827 130.623 35.9642 130.978 35.9642 131.452V131.708H34.8549V131.424C34.8549 130.627 35.0872 130.03 35.5517 129.632C36.0069 129.234 36.5852 129.035 37.2869 129.035C37.998 129.035 38.5906 129.234 39.0646 129.632C39.5387 130.03 39.7758 130.627 39.7758 131.424V132.647ZM48.1923 144.011H47.2963C46.1016 142.375 45.3194 139.957 45.3194 137.511C45.3194 135.164 46.0732 132.718 47.2963 131.026H48.1923C47.0972 132.562 46.3292 134.951 46.3292 137.511C46.3292 140.014 47.0687 142.446 48.1923 144.011ZM50.4523 141.778H49.4283V131.595H50.4523V136.131H55.9563V131.595H56.9661V141.778H55.9563V137.084H50.4523V141.778ZM59.7263 133.003C59.3281 133.003 59.001 132.675 59.001 132.277C59.001 131.879 59.3281 131.538 59.7263 131.538C60.1245 131.538 60.4659 131.879 60.4659 132.277C60.4659 132.675 60.1245 133.003 59.7263 133.003ZM59.2428 141.778V134.894H60.2241V141.778H59.2428ZM63.2519 141.778H62.2705V134.894H63.1239L63.2661 136.089C63.7212 135.207 64.6314 134.709 65.627 134.709C67.5185 134.709 68.3008 135.833 68.3008 137.568V141.778H67.3194V137.781C67.3194 136.174 66.5941 135.605 65.4563 135.605C64.0483 135.605 63.2519 136.629 63.2519 138.179V141.778ZM72.9589 141.948C70.9535 141.948 69.7731 140.412 69.7731 138.35C69.7731 136.274 70.9535 134.709 73.0015 134.709C74.1393 134.709 75.0495 135.207 75.5331 136.203V131.41H76.5144V141.778H75.6611L75.5615 140.37C75.078 141.436 74.1109 141.948 72.9589 141.948ZM73.1295 141.052C74.6371 141.052 75.5189 139.915 75.5189 138.322C75.5189 136.743 74.6371 135.591 73.1295 135.591C71.6362 135.591 70.7686 136.743 70.7686 138.322C70.7686 139.915 71.6362 141.052 73.1295 141.052ZM79.0457 133.003C78.6475 133.003 78.3204 132.675 78.3204 132.277C78.3204 131.879 78.6475 131.538 79.0457 131.538C79.444 131.538 79.7853 131.879 79.7853 132.277C79.7853 132.675 79.444 133.003 79.0457 133.003ZM78.5622 141.778V134.894H79.5435V141.778H78.5622ZM81.5175 144.011H80.6215C81.7451 142.446 82.4989 140.014 82.4989 137.511C82.4989 134.951 81.7166 132.562 80.6215 131.026H81.5175C82.7549 132.718 83.4944 135.164 83.4944 137.511C83.4944 139.957 82.7122 142.375 81.5175 144.011Z" fill="#585858"/>
<path fill-rule="evenodd" clip-rule="evenodd" d="M290.219 138.444C290.219 133.538 294.201 129.555 299.108 129.555C304.014 129.555 307.997 133.538 307.997 138.444C307.997 143.351 304.014 147.333 299.108 147.333C294.201 147.333 290.219 143.351 290.219 138.444ZM291.997 138.444C291.997 142.373 295.179 145.555 299.108 145.555C303.037 145.555 306.219 142.373 306.219 138.444C306.219 134.515 303.037 131.333 299.108 131.333C295.179 131.333 291.997 134.515 291.997 138.444Z" fill="#B0B0B0"/>
<rect x="4" y="163.333" width="320" height="49.7778" fill="white"/>
<rect opacity="0.8" x="18.2188" y="212.222" width="291.556" height="0.888889" fill="#E5E5E5"/>
<path d="M22.2436 193.726C21.2386 193.726 20.4516 193.484 19.8828 193.001C19.3233 192.517 19.0436 191.887 19.0436 191.109C19.0436 190.294 19.3755 189.654 20.0392 189.189L18.7308 189.204V188.222H21.689C21.7933 188.146 21.8786 188.052 21.945 187.938C22.0208 187.815 22.0588 187.677 22.0588 187.525C22.0588 187.393 22.035 187.265 21.9876 187.141C21.9497 187.018 21.8976 186.909 21.8312 186.814H18.7308V185.719H22.969C23.481 185.719 23.8413 185.695 24.0499 185.648C24.2585 185.601 24.4102 185.539 24.505 185.463C24.6282 185.368 24.7088 185.264 24.7468 185.15C24.7942 185.027 24.8179 184.899 24.8179 184.766C24.8179 184.159 24.5097 183.548 23.8934 182.932L24.8179 182.32C25.2635 182.813 25.5669 183.259 25.7281 183.657C25.8893 184.046 25.9699 184.444 25.9699 184.852C25.9699 185.032 25.9319 185.255 25.8561 185.52C25.7897 185.776 25.6333 186.008 25.3868 186.217C25.1497 186.425 24.8653 186.577 24.5334 186.672C24.211 186.767 23.7749 186.814 23.225 186.814H22.969C23.1112 187.08 23.1823 187.321 23.1823 187.54C23.1823 187.691 23.1633 187.824 23.1254 187.938C23.097 188.042 23.0543 188.137 22.9974 188.222H25.8845V189.204L24.4908 189.189C24.8131 189.369 25.0691 189.625 25.2588 189.957C25.4579 190.289 25.5574 190.664 25.5574 191.081C25.5574 191.868 25.2777 192.508 24.7183 193.001C24.1684 193.484 23.3435 193.726 22.2436 193.726ZM22.3005 192.617C23.059 192.617 23.5995 192.456 23.9219 192.133C24.2537 191.801 24.4196 191.403 24.4196 190.939C24.4196 190.408 24.2395 189.986 23.8792 189.673C23.5284 189.36 23.0022 189.204 22.3005 189.204C21.5799 189.204 21.0442 189.369 20.6934 189.701C20.3521 190.024 20.1814 190.436 20.1814 190.939C20.1814 191.441 20.3568 191.849 20.7076 192.162C21.0585 192.465 21.5894 192.617 22.3005 192.617ZM33.2548 193.726C32.7522 193.726 32.335 193.631 32.0032 193.442C31.6808 193.252 31.4059 193.01 31.1783 192.716C30.9602 192.413 30.7564 192.1 30.5668 191.778C30.3297 191.361 30.1259 191.048 29.9552 190.839C29.7845 190.631 29.6233 190.488 29.4716 190.412C29.3294 190.337 29.1635 190.299 28.9739 190.299C28.6515 190.299 28.4002 190.403 28.2201 190.612C28.0494 190.811 27.9641 191.09 27.9641 191.451C27.9641 191.754 28.0305 192.067 28.1632 192.389C28.2959 192.702 28.4713 193.01 28.6894 193.314L27.5801 193.755C27.362 193.451 27.1819 193.1 27.0396 192.702C26.8974 192.304 26.8263 191.901 26.8263 191.493C26.8263 191.048 26.9211 190.654 27.1108 190.313C27.3004 189.972 27.5564 189.706 27.8788 189.516C28.2011 189.317 28.5614 189.218 28.9596 189.218C29.5475 189.218 30.0121 189.355 30.3534 189.63C30.6948 189.905 31.0266 190.327 31.349 190.896C31.567 191.266 31.7662 191.579 31.9463 191.835C32.1265 192.091 32.3256 192.285 32.5436 192.418C32.7712 192.541 33.0509 192.603 33.3828 192.603C33.8758 192.603 34.2219 192.432 34.421 192.091C34.6296 191.74 34.7339 191.327 34.7339 190.853C34.7339 190.19 34.5916 189.573 34.3072 189.004C34.0322 188.436 33.6577 187.961 33.1836 187.582C32.719 187.193 32.1928 186.937 31.605 186.814H26.8548V185.719H32.8992C33.4112 185.719 33.7668 185.695 33.9659 185.648C34.1745 185.601 34.3309 185.539 34.4352 185.463C34.5585 185.368 34.639 185.264 34.677 185.15C34.7244 185.027 34.7481 184.899 34.7481 184.766C34.7481 184.159 34.4399 183.548 33.8236 182.932L34.7481 182.32C35.1937 182.813 35.4971 183.259 35.6583 183.657C35.8195 184.046 35.9001 184.444 35.9001 184.852C35.9001 185.032 35.8622 185.255 35.7863 185.52C35.7105 185.776 35.554 186.008 35.317 186.217C35.1273 186.378 34.9093 186.506 34.6628 186.601C34.4257 186.696 34.127 186.757 33.7668 186.786C34.4399 187.25 34.9614 187.819 35.3312 188.492C35.7105 189.166 35.9001 189.915 35.9001 190.74C35.9001 191.669 35.6678 192.399 35.2032 192.93C34.7481 193.461 34.0986 193.726 33.2548 193.726ZM33.9365 194.494C34.3442 194.494 34.6903 194.556 34.9748 194.679C35.2592 194.812 35.5199 195.011 35.757 195.276C35.994 195.551 36.2405 195.907 36.4965 196.343C36.8853 195.926 37.0796 195.404 37.0796 194.779C37.0796 194.134 36.9374 193.556 36.653 193.044L37.5916 192.574C37.7813 192.849 37.9235 193.176 38.0183 193.556C38.1131 193.935 38.1605 194.295 38.1605 194.636C38.1605 195.215 38.0515 195.713 37.8334 196.13C37.6248 196.556 37.3451 196.907 36.9943 197.182C37.1555 197.419 37.3167 197.58 37.4779 197.666C37.639 197.751 37.8476 197.794 38.1036 197.794C38.1795 197.794 38.2743 197.784 38.3881 197.765C38.5019 197.746 38.5777 197.727 38.6156 197.708L38.8005 198.661C38.7152 198.699 38.6014 198.728 38.4592 198.747C38.3265 198.775 38.2079 198.789 38.1036 198.789C37.639 198.789 37.2645 198.699 36.9801 198.519C36.6956 198.339 36.4302 198.059 36.1836 197.68C35.8897 197.813 35.5816 197.908 35.2592 197.964C34.9273 198.031 34.6002 198.064 34.2779 198.064C33.7469 198.064 33.3155 197.974 32.9836 197.794C32.6423 197.623 32.3958 197.396 32.2441 197.111C32.0924 196.827 32.0165 196.523 32.0165 196.201C32.0165 195.67 32.2014 195.253 32.5712 194.949C32.9315 194.646 33.3866 194.494 33.9365 194.494ZM33.0974 196.201C33.0974 196.353 33.1306 196.5 33.197 196.642C33.2633 196.784 33.3913 196.903 33.581 196.997C33.7611 197.092 34.0219 197.14 34.3632 197.14C34.8847 197.14 35.3445 197.054 35.7428 196.884C35.4773 196.4 35.207 196.035 34.9321 195.788C34.6571 195.542 34.3442 195.419 33.9934 195.419C33.709 195.419 33.4909 195.49 33.3392 195.632C33.178 195.774 33.0974 195.964 33.0974 196.201ZM41.0685 193.726C40.329 193.726 39.7316 193.451 39.2765 192.901C38.8214 192.351 38.5939 191.527 38.5939 190.427C38.5939 189.63 38.7503 188.919 39.0632 188.293C39.3761 187.658 39.8312 187.165 40.4285 186.814H38.5939V185.719H45.3636C45.8662 185.719 46.2217 185.695 46.4303 185.648C46.6484 185.601 46.8048 185.539 46.8996 185.463C47.0324 185.368 47.1177 185.264 47.1556 185.15C47.1936 185.027 47.2125 184.899 47.2125 184.766C47.2125 184.159 46.9044 183.548 46.2881 182.932L47.2125 182.32C47.6582 182.813 47.9616 183.259 48.1228 183.657C48.2839 184.046 48.3645 184.444 48.3645 184.852C48.3645 185.032 48.3266 185.255 48.2508 185.52C48.1749 185.776 48.0185 186.008 47.7814 186.217C47.6582 186.331 47.5017 186.435 47.3121 186.53C47.1319 186.615 46.9139 186.681 46.6579 186.729C47.0656 186.947 47.3642 187.241 47.5539 187.611C47.7435 187.971 47.8383 188.355 47.8383 188.763C47.8383 188.867 47.8336 188.962 47.8241 189.047C48.1844 189.578 48.3645 190.209 48.3645 190.939C48.3645 191.498 48.2508 191.986 48.0232 192.404C47.8051 192.821 47.5065 193.148 47.1272 193.385C46.7479 193.612 46.3118 193.726 45.8188 193.726C45.2404 193.726 44.771 193.631 44.4108 193.442C44.0505 193.243 43.7233 192.916 43.4294 192.46C43.107 192.982 42.7468 193.323 42.3485 193.484C41.9503 193.646 41.5236 193.726 41.0685 193.726ZM41.225 192.603C41.699 192.603 42.0736 192.446 42.3485 192.133C42.6235 191.811 42.8036 191.413 42.889 190.939H43.9699C44.0647 191.517 44.2685 191.939 44.5814 192.204C44.9038 192.47 45.2783 192.603 45.705 192.603C46.1222 192.603 46.4919 192.475 46.8143 192.219C47.1367 191.963 47.2979 191.531 47.2979 190.924C47.2979 190.668 47.2694 190.417 47.2125 190.171C47.0419 190.36 46.8285 190.512 46.5725 190.626C46.326 190.74 46.0368 190.796 45.705 190.796C45.2404 190.796 44.8327 190.673 44.4819 190.427C44.1405 190.18 43.9699 189.796 43.9699 189.275C43.9699 188.782 44.131 188.421 44.4534 188.194C44.7853 187.957 45.1645 187.838 45.5912 187.838C45.8188 187.838 46.0179 187.862 46.1885 187.909C46.3687 187.947 46.5299 187.999 46.6721 188.066C46.4825 187.677 46.1316 187.369 45.6196 187.141C45.1171 186.904 44.5245 186.786 43.8419 186.786H43.3441C42.5666 186.786 41.9076 186.947 41.3672 187.269C40.8362 187.582 40.4333 188.014 40.1583 188.564C39.8928 189.104 39.7601 189.725 39.7601 190.427C39.7601 191.214 39.8881 191.773 40.1441 192.105C40.4001 192.437 40.7604 192.603 41.225 192.603ZM45.0365 189.275C45.0365 189.692 45.283 189.9 45.7761 189.9C45.9562 189.9 46.1459 189.853 46.345 189.758C46.5441 189.654 46.6863 189.474 46.7716 189.218C46.6484 189.066 46.4967 188.943 46.3165 188.848C46.1459 188.753 45.9468 188.706 45.7192 188.706C45.5201 188.706 45.3542 188.758 45.2214 188.862C45.0982 188.957 45.0365 189.095 45.0365 189.275ZM56.4701 195.788H55.5741C54.3794 194.153 53.5972 191.735 53.5972 189.289C53.5972 186.942 54.351 184.496 55.5741 182.804H56.4701C55.375 184.34 54.607 186.729 54.607 189.289C54.607 191.792 55.3465 194.224 56.4701 195.788ZM58.7301 183.372V189.502L63.6368 183.372H64.8599L61.4039 187.682L64.9168 193.556H63.7221L60.7354 188.535L58.7301 191.024V193.556H57.7061V183.372H58.7301ZM68.0252 193.726C66.5603 193.726 65.6928 192.901 65.6928 191.692C65.6928 190.427 66.6599 189.63 68.267 189.502L70.5425 189.317V189.09C70.5425 187.739 69.7319 187.312 68.7221 187.312C67.5274 187.312 66.8163 187.852 66.8163 188.777H65.9203C65.9203 187.383 67.0581 186.487 68.7505 186.487C70.3434 186.487 71.5096 187.284 71.5096 189.104V193.556H70.6848L70.5568 192.347C70.1301 193.214 69.1914 193.726 68.0252 193.726ZM68.2528 192.93C69.7034 192.93 70.5425 191.92 70.5425 190.427V190.057L68.5088 190.213C67.2145 190.327 66.6883 190.896 66.6883 191.664C66.6883 192.503 67.3141 192.93 68.2528 192.93ZM74.4602 193.556H73.4789V186.672H74.3322L74.4744 187.867C74.9295 186.985 75.8397 186.487 76.8353 186.487C78.7269 186.487 79.5091 187.611 79.5091 189.346V193.556H78.5277V189.559C78.5277 187.952 77.8024 187.383 76.6646 187.383C75.2566 187.383 74.4602 188.407 74.4602 189.957V193.556ZM82.4463 193.556H81.465V186.672H82.3183L82.4605 187.867C82.9156 186.985 83.8259 186.487 84.8214 186.487C86.713 186.487 87.4952 187.611 87.4952 189.346V193.556H86.5139V189.559C86.5139 187.952 85.7885 187.383 84.6508 187.383C83.2428 187.383 82.4463 188.407 82.4463 189.957V193.556ZM91.428 193.726C89.9631 193.726 89.0955 192.901 89.0955 191.692C89.0955 190.427 90.0626 189.63 91.6698 189.502L93.9453 189.317V189.09C93.9453 187.739 93.1346 187.312 92.1249 187.312C90.9302 187.312 90.2191 187.852 90.2191 188.777H89.3231C89.3231 187.383 90.4609 186.487 92.1533 186.487C93.7462 186.487 94.9124 187.284 94.9124 189.104V193.556H94.0875L93.9595 192.347C93.5329 193.214 92.5942 193.726 91.428 193.726ZM91.6555 192.93C93.1062 192.93 93.9453 191.92 93.9453 190.427V190.057L91.9115 190.213C90.6173 190.327 90.0911 190.896 90.0911 191.664C90.0911 192.503 90.7169 192.93 91.6555 192.93ZM99.5839 193.726C97.5785 193.726 96.3981 192.19 96.3981 190.128C96.3981 188.052 97.5785 186.487 99.6265 186.487C100.764 186.487 101.675 186.985 102.158 187.98V183.188H103.139V193.556H102.286L102.187 192.148C101.703 193.214 100.736 193.726 99.5839 193.726ZM99.7545 192.83C101.262 192.83 102.144 191.692 102.144 190.1C102.144 188.521 101.262 187.369 99.7545 187.369C98.2612 187.369 97.3936 188.521 97.3936 190.1C97.3936 191.692 98.2612 192.83 99.7545 192.83ZM107.164 193.726C105.699 193.726 104.832 192.901 104.832 191.692C104.832 190.427 105.799 189.63 107.406 189.502L109.681 189.317V189.09C109.681 187.739 108.871 187.312 107.861 187.312C106.666 187.312 105.955 187.852 105.955 188.777H105.059C105.059 187.383 106.197 186.487 107.889 186.487C109.482 186.487 110.649 187.284 110.649 189.104V193.556H109.824L109.696 192.347C109.269 193.214 108.33 193.726 107.164 193.726ZM107.392 192.93C108.842 192.93 109.681 191.92 109.681 190.427V190.057L107.648 190.213C106.353 190.327 105.827 190.896 105.827 191.664C105.827 192.503 106.453 192.93 107.392 192.93ZM112.49 195.788H111.594C112.717 194.224 113.471 191.792 113.471 189.289C113.471 186.729 112.689 184.34 111.594 182.804H112.49C113.727 184.496 114.467 186.942 114.467 189.289C114.467 191.735 113.684 194.153 112.49 195.788Z" fill="#585858"/>
<path fill-rule="evenodd" clip-rule="evenodd" d="M290.219 188.222C290.219 183.315 294.201 179.333 299.108 179.333C304.014 179.333 307.997 183.315 307.997 188.222C307.997 193.129 304.014 197.111 299.108 197.111C294.201 197.111 290.219 193.129 290.219 188.222ZM291.997 188.222C291.997 192.151 295.179 195.333 299.108 195.333C303.037 195.333 306.219 192.151 306.219 188.222C306.219 184.293 303.037 181.111 299.108 181.111C295.179 181.111 291.997 184.293 291.997 188.222Z" fill="#B0B0B0"/>
<rect x="4" y="213.111" width="320" height="49.7778" fill="white"/>
<path d="M28.0463 235.468C28.0463 235.791 27.9847 236.056 27.8614 236.265C27.7382 236.473 27.6007 236.639 27.449 236.763C27.2309 236.943 26.937 237.075 26.5672 237.161C26.1974 237.246 25.7328 237.289 25.1734 237.289H23.3388V236.222H25.6001C25.9035 236.222 26.131 236.208 26.2828 236.179C26.4439 236.142 26.5719 236.085 26.6668 236.009C26.7426 235.942 26.7948 235.867 26.8232 235.781C26.8611 235.696 26.8801 235.596 26.8801 235.483C26.8801 235.359 26.8611 235.25 26.8232 235.155C26.7853 235.061 26.7284 234.98 26.6525 234.914C26.5577 234.838 26.4392 234.781 26.297 234.743C26.1548 234.705 25.9177 234.686 25.5859 234.686H20.4374V233.619H25.5005C26.022 233.619 26.4297 233.657 26.7236 233.733C27.027 233.809 27.2878 233.942 27.5059 234.131C27.667 234.274 27.795 234.454 27.8899 234.672C27.9942 234.881 28.0463 235.146 28.0463 235.468ZM23.8223 243.504C22.675 243.504 21.7222 243.352 20.9636 243.049C20.2146 242.736 19.6552 242.314 19.2854 241.783C18.9156 241.243 18.7308 240.636 18.7308 239.963C18.7308 239.432 18.8398 238.967 19.0579 238.569C19.2854 238.161 19.5936 237.848 19.9823 237.63C20.371 237.403 20.8167 237.289 21.3192 237.289C21.7174 237.289 22.0588 237.365 22.3432 237.516C22.6276 237.659 22.8457 237.862 22.9974 238.128C23.1491 238.393 23.225 238.702 23.225 239.052C23.225 239.631 23.0259 240.095 22.6276 240.446C22.2389 240.787 21.689 240.958 20.9779 240.958C20.7693 240.958 20.5702 240.939 20.3805 240.901C20.1909 240.854 20.0155 240.797 19.8543 240.731C19.6931 240.664 19.5414 240.588 19.3992 240.503L19.4988 239.493C19.6884 239.635 19.8875 239.749 20.0961 239.835C20.3142 239.92 20.5512 239.963 20.8072 239.963C21.2718 239.963 21.5989 239.877 21.7885 239.707C21.9876 239.536 22.0872 239.318 22.0872 239.052C22.0872 238.806 22.0113 238.621 21.8596 238.498C21.7174 238.365 21.5136 238.299 21.2481 238.299C20.9636 238.299 20.7076 238.365 20.4801 238.498C20.262 238.63 20.0866 238.815 19.9539 239.052C19.8211 239.28 19.7548 239.541 19.7548 239.835V239.906C19.7548 240.313 19.8496 240.674 20.0392 240.987C20.2383 241.29 20.5133 241.546 20.8641 241.755C21.2149 241.963 21.6321 242.12 22.1156 242.224C22.6087 242.328 23.1539 242.38 23.7512 242.38C24.5382 242.38 25.1876 242.3 25.6996 242.139C26.2211 241.977 26.6288 241.769 26.9228 241.513C27.2167 241.257 27.4205 240.982 27.5343 240.688C27.6576 240.394 27.7192 240.11 27.7192 239.835V239.209C27.6339 238.953 27.4774 238.739 27.2499 238.569C27.0223 238.389 26.7426 238.299 26.4108 238.299C26.1737 238.299 25.9556 238.37 25.7565 238.512C25.5669 238.645 25.4721 238.863 25.4721 239.166C25.4721 239.375 25.5479 239.56 25.6996 239.721C25.8513 239.882 26.0884 239.963 26.4108 239.963C26.6573 239.963 26.8706 239.92 27.0508 239.835C27.2309 239.74 27.3731 239.612 27.4774 239.451C27.5912 239.28 27.6718 239.086 27.7192 238.867L27.9468 240.147C27.8045 240.318 27.6481 240.465 27.4774 240.588C27.3162 240.712 27.1313 240.806 26.9228 240.873C26.7236 240.93 26.4913 240.958 26.2259 240.958C25.8656 240.958 25.5432 240.887 25.2588 240.745C24.9743 240.603 24.7515 240.403 24.5903 240.147C24.4291 239.882 24.3485 239.569 24.3485 239.209C24.3485 238.678 24.5145 238.265 24.8463 237.971C25.1876 237.668 25.638 237.516 26.1974 237.516C26.2543 237.516 26.3159 237.521 26.3823 237.531C26.4582 237.54 26.5388 237.554 26.6241 237.573C26.7094 237.592 26.79 237.616 26.8659 237.644L26.6952 237.659C26.4866 237.554 26.2401 237.469 25.9556 237.403C25.6807 237.327 25.4057 237.27 25.1308 237.232C24.8558 237.194 24.614 237.175 24.4054 237.175L24.6045 236.293C25.3346 236.36 25.9651 236.497 26.4961 236.706C27.027 236.914 27.4585 237.175 27.7903 237.488C28.1316 237.801 28.3829 238.156 28.5441 238.555C28.7053 238.953 28.7859 239.384 28.7859 239.849C28.7859 240.37 28.6863 240.854 28.4872 241.299C28.2976 241.745 27.9989 242.134 27.5912 242.466C27.193 242.788 26.681 243.044 26.0552 243.234C25.4294 243.414 24.6851 243.504 23.8223 243.504ZM34.3513 243.504C33.3558 243.504 32.5166 243.333 31.834 242.992C31.1608 242.651 30.6488 242.181 30.298 241.584C29.9566 240.977 29.786 240.285 29.786 239.507C29.786 238.806 29.9045 238.213 30.1415 237.73C30.388 237.237 30.7152 236.862 31.1229 236.606C31.5306 236.35 31.9857 236.222 32.4882 236.222C32.8675 236.222 33.1946 236.298 33.4695 236.45C33.754 236.592 33.972 236.801 34.1238 237.075C34.2849 237.341 34.3655 237.659 34.3655 238.028C34.3655 238.408 34.2849 238.749 34.1238 239.052C33.9626 239.346 33.716 239.579 33.3842 239.749C33.0618 239.91 32.6494 239.991 32.1469 239.991C31.834 239.991 31.5448 239.939 31.2793 239.835C31.0138 239.73 30.7815 239.602 30.5824 239.451C30.3928 239.299 30.2363 239.152 30.1131 239.01L30.4402 238.128C30.516 238.232 30.6203 238.355 30.7531 238.498C30.8953 238.63 31.0755 238.749 31.2935 238.853C31.5116 238.948 31.7723 238.995 32.0758 238.995C32.4645 238.995 32.7537 238.915 32.9433 238.754C33.1424 238.593 33.242 238.37 33.242 238.085C33.242 237.81 33.1661 237.602 33.0144 237.459C32.8627 237.308 32.6636 237.232 32.4171 237.232C31.962 237.232 31.5969 237.417 31.322 237.787C31.047 238.156 30.9095 238.659 30.9095 239.294V239.55C30.9095 239.929 30.9759 240.29 31.1086 240.631C31.2509 240.963 31.4595 241.262 31.7344 241.527C32.0094 241.793 32.3602 242.001 32.7869 242.153C33.223 242.305 33.7303 242.38 34.3086 242.38C35.3516 242.38 36.1765 242.162 36.7833 241.726C37.3901 241.29 37.6935 240.664 37.6935 239.849C37.6935 239.299 37.5371 238.806 37.2242 238.37C36.9208 237.934 36.442 237.583 35.7878 237.317L36.3566 236.222C37.1436 236.563 37.7599 237.038 38.2055 237.644C38.6512 238.251 38.874 238.962 38.874 239.778C38.874 240.479 38.7175 241.115 38.4046 241.683C38.0918 242.243 37.5987 242.689 36.9255 243.02C36.2618 243.343 35.4038 243.504 34.3513 243.504ZM41.0213 243.504C40.386 243.504 39.8314 243.343 39.3573 243.02C38.8738 242.698 38.4471 242.276 38.0773 241.755L38.6462 240.83C38.9117 241.181 39.1724 241.47 39.4284 241.698C39.6939 241.925 39.9641 242.096 40.2391 242.21C40.5235 242.323 40.8175 242.38 41.1209 242.38C41.6044 242.38 41.9742 242.229 42.2302 241.925C42.4862 241.612 42.6142 241.167 42.6142 240.588C42.6142 240.038 42.5004 239.56 42.2729 239.152C42.0548 238.735 41.7561 238.379 41.3769 238.085C41.0071 237.782 40.5852 237.526 40.1111 237.317L40.6373 236.222C41.2252 236.469 41.7561 236.801 42.2302 237.218C42.7043 237.635 43.0835 238.118 43.368 238.668C43.6524 239.218 43.7946 239.83 43.7946 240.503C43.7946 241.442 43.5576 242.177 43.0835 242.707C42.6095 243.238 41.922 243.504 41.0213 243.504ZM48.4695 236.222C49.2091 236.222 49.8443 236.364 50.3753 236.649C50.9063 236.924 51.3092 237.322 51.5842 237.843C51.8686 238.355 52.0109 238.977 52.0109 239.707C52.0109 240.304 51.954 240.83 51.8402 241.285C51.7264 241.74 51.5842 242.143 51.4135 242.494C51.2523 242.845 51.0817 243.163 50.9015 243.447L49.7211 242.921C49.9012 242.655 50.0766 242.38 50.2473 242.096C50.418 241.811 50.5555 241.489 50.6598 241.129C50.7735 240.759 50.8304 240.332 50.8304 239.849C50.8304 239.384 50.7546 238.958 50.6029 238.569C50.4512 238.18 50.1952 237.872 49.8349 237.644C49.484 237.407 49.0052 237.289 48.3984 237.289C47.9149 237.289 47.4977 237.388 47.1469 237.587C46.796 237.787 46.5211 238.076 46.322 238.455C46.1323 238.834 46.0375 239.294 46.0375 239.835C46.0375 240.479 46.1418 241.048 46.3504 241.541C46.559 242.025 46.8245 242.485 47.1469 242.921L45.9664 243.447C45.644 242.954 45.3786 242.404 45.17 241.797C44.9614 241.19 44.8571 240.541 44.8571 239.849C44.8571 239.195 44.9898 238.593 45.2553 238.043C45.5303 237.493 45.9332 237.052 46.4642 236.72C47.0046 236.388 47.6731 236.222 48.4695 236.222ZM48.0429 237.289C47.7679 237.289 47.5024 237.237 47.2464 237.132C46.9999 237.028 46.7723 236.834 46.5638 236.549C46.3552 236.255 46.175 235.843 46.0233 235.312L47.2038 234.928C47.346 235.449 47.4835 235.795 47.6162 235.966C47.7489 236.137 47.9196 236.222 48.1282 236.222C48.3178 236.222 48.4932 236.165 48.6544 236.051C48.8251 235.928 49.0621 235.677 49.3655 235.298L49.8064 234.729C50.1288 234.312 50.4227 233.98 50.6882 233.733C50.9632 233.487 51.2523 233.307 51.5558 233.193C51.8592 233.079 52.2195 233.022 52.6366 233.022L52.722 234.117C52.3901 234.136 52.1104 234.188 51.8829 234.274C51.6648 234.359 51.4609 234.497 51.2713 234.686C51.0912 234.866 50.8778 235.113 50.6313 235.426L50.3042 235.852C50.0387 236.194 49.7875 236.469 49.5504 236.677C49.3134 236.886 49.0716 237.042 48.8251 237.147C48.588 237.241 48.3273 237.289 48.0429 237.289ZM54.2296 243.504C53.5944 243.504 53.0397 243.343 52.5656 243.02C52.0821 242.698 51.6554 242.276 51.2856 241.755L51.8545 240.83C52.12 241.181 52.3807 241.47 52.6367 241.698C52.9022 241.925 53.1725 242.096 53.4474 242.21C53.7319 242.323 54.0258 242.38 54.3292 242.38C54.8127 242.38 55.1825 242.229 55.4385 241.925C55.6945 241.612 55.8225 241.167 55.8225 240.588C55.8225 240.038 55.7087 239.56 55.4812 239.152C55.2631 238.735 54.9645 238.379 54.5852 238.085C54.2154 237.782 53.7935 237.526 53.3194 237.317L53.8456 236.222C54.4335 236.469 54.9645 236.801 55.4385 237.218C55.9126 237.635 56.2919 238.118 56.5763 238.668C56.8607 239.218 57.003 239.83 57.003 240.503C57.003 241.442 56.7659 242.177 56.2919 242.707C55.8178 243.238 55.1304 243.504 54.2296 243.504ZM65.0534 245.566H64.1574C62.9627 243.931 62.1805 241.513 62.1805 239.067C62.1805 236.72 62.9343 234.274 64.1574 232.581H65.0534C63.9583 234.117 63.1903 236.507 63.1903 239.067C63.1903 241.57 63.9299 244.002 65.0534 245.566ZM65.5005 234.089V233.15H72.7965V234.089H69.6534V243.333H68.6294V234.089H65.5005ZM75.8243 243.504C73.8047 243.504 72.4536 242.053 72.4536 239.891C72.4536 237.744 73.7905 236.265 75.7532 236.265C77.6163 236.265 78.8821 237.587 78.8821 239.536V240.019H73.4065C73.4776 241.698 74.3594 242.665 75.8385 242.665C76.9621 242.665 77.6874 242.181 77.9434 241.271H78.8821C78.5123 242.722 77.4456 243.504 75.8243 243.504ZM75.7532 237.104C74.459 237.104 73.6056 237.957 73.435 239.308H77.9007C77.9007 237.986 77.0474 237.104 75.7532 237.104ZM81.4751 243.333H80.4937V232.965H81.4751V243.333ZM88.3977 236.45H89.3791V243.333H88.5257L88.3977 242.167C88.0137 242.963 87.0609 243.504 85.98 243.504C84.3586 243.504 83.4769 242.395 83.4769 240.716V236.435H84.4724V240.403C84.4724 242.039 85.1977 242.622 86.2929 242.622C87.6155 242.622 88.3977 241.74 88.3977 240.105V236.45ZM90.954 239.692C90.954 237.815 92.1629 236.265 94.1824 236.265C95.3771 236.265 96.2873 236.819 96.7282 237.829L96.8278 236.45H97.6811V243.12C97.6811 245.168 96.3726 246.505 94.3531 246.505C92.5895 246.505 91.3522 245.509 91.082 243.845H92.0633C92.2766 244.955 93.13 245.609 94.3673 245.609C95.7753 245.609 96.714 244.656 96.714 243.219V241.584C96.2446 242.551 95.2918 243.12 94.1113 243.12C92.1486 243.12 90.954 241.57 90.954 239.692ZM91.9353 239.678C91.9353 241.086 92.8029 242.238 94.2535 242.238C95.7469 242.238 96.6286 241.157 96.6286 239.678C96.6286 238.213 95.7753 237.132 94.2678 237.132C92.7886 237.132 91.9353 238.284 91.9353 239.678ZM104.564 236.45H105.546V243.333H104.692L104.564 242.167C104.18 242.963 103.228 243.504 102.147 243.504C100.525 243.504 99.6435 242.395 99.6435 240.716V236.435H100.639V240.403C100.639 242.039 101.364 242.622 102.46 242.622C103.782 242.622 104.564 241.74 104.564 240.105V236.45ZM107.462 245.566H106.566C107.69 244.002 108.443 241.57 108.443 239.067C108.443 236.507 107.661 234.117 106.566 232.581H107.462C108.699 234.274 109.439 236.72 109.439 239.067C109.439 241.513 108.657 243.931 107.462 245.566Z" fill="#585858"/>
<path fill-rule="evenodd" clip-rule="evenodd" d="M290.219 238C290.219 233.093 294.201 229.111 299.108 229.111C304.014 229.111 307.997 233.093 307.997 238C307.997 242.907 304.014 246.889 299.108 246.889C294.201 246.889 290.219 242.907 290.219 238ZM291.997 238C291.997 241.929 295.179 245.111 299.108 245.111C303.037 245.111 306.219 241.929 306.219 238C306.219 234.071 303.037 230.889 299.108 230.889C295.179 230.889 291.997 234.071 291.997 238Z" fill="#B0B0B0"/>
<g filter="url(#filter1_d_539_6210)">
<path d="M4 273.556H324V337.556H4V273.556Z" fill="white"/>
</g>
<rect x="18" y="288" width="291.556" height="35.5556" rx="7.11111" fill="#372583"/>
<path d="M152.618 310.778H149.345V301.681H152.531C155.219 301.681 157.073 303.535 157.073 306.248C157.073 308.924 155.256 310.778 152.618 310.778ZM152.382 303.149H150.938V309.309H152.469C154.286 309.309 155.393 308.14 155.393 306.248C155.393 304.319 154.261 303.149 152.382 303.149ZM157.972 307.692C157.972 305.775 159.353 304.456 161.257 304.456C163.161 304.456 164.543 305.775 164.543 307.692C164.543 309.608 163.161 310.927 161.257 310.927C159.353 310.927 157.972 309.608 157.972 307.692ZM159.49 307.692C159.49 308.812 160.212 309.571 161.257 309.571C162.303 309.571 163.025 308.812 163.025 307.692C163.025 306.572 162.303 305.812 161.257 305.812C160.212 305.812 159.49 306.572 159.49 307.692ZM167.264 310.778H165.746V304.63H167.152L167.277 305.427C167.663 304.804 168.409 304.444 169.243 304.444C170.786 304.444 171.583 305.402 171.583 306.995V310.778H170.064V307.356C170.064 306.323 169.554 305.825 168.77 305.825C167.837 305.825 167.264 306.472 167.264 307.468V310.778ZM175.825 310.94C173.995 310.94 172.713 309.608 172.713 307.704C172.713 305.775 173.97 304.444 175.775 304.444C177.617 304.444 178.786 305.676 178.786 307.592V308.052L174.157 308.065C174.269 309.148 174.841 309.695 175.849 309.695C176.683 309.695 177.231 309.372 177.405 308.787H178.811C178.55 310.131 177.43 310.94 175.825 310.94ZM175.787 305.688C174.891 305.688 174.344 306.173 174.194 307.094H177.281C177.281 306.248 176.696 305.688 175.787 305.688Z" fill="white"/>
</g>
</g>
<defs>
<filter id="filter0_d_539_6210" x="0" y="0" width="328" height="342.556" filterUnits="userSpaceOnUse" color-interpolation-filters="sRGB">
<feFlood flood-opacity="0" result="BackgroundImageFix"/>
<feColorMatrix in="SourceAlpha" type="matrix" values="0 0 0 0 0 0 0 0 0 0 0 0 0 0 0 0 0 0 127 0" result="hardAlpha"/>
<feOffset dy="1"/>
<feGaussianBlur stdDeviation="2"/>
<feColorMatrix type="matrix" values="0 0 0 0 0.839216 0 0 0 0 0.839216 0 0 0 0 0.839216 0 0 0 0.25 0"/>
<feBlend mode="normal" in2="BackgroundImageFix" result="effect1_dropShadow_539_6210"/>
<feBlend mode="normal" in="SourceGraphic" in2="effect1_dropShadow_539_6210" result="shape"/>
</filter>
<filter id="filter1_d_539_6210" x="-10.2222" y="259.333" width="348.444" height="92.4444" filterUnits="userSpaceOnUse" color-interpolation-filters="sRGB">
<feFlood flood-opacity="0" result="BackgroundImageFix"/>
<feColorMatrix in="SourceAlpha" type="matrix" values="0 0 0 0 0 0 0 0 0 0 0 0 0 0 0 0 0 0 127 0" result="hardAlpha"/>
<feOffset/>
<feGaussianBlur stdDeviation="7.11111"/>
<feComposite in2="hardAlpha" operator="out"/>
<feColorMatrix type="matrix" values="0 0 0 0 0 0 0 0 0 0 0 0 0 0 0 0 0 0 0.16 0"/>
<feBlend mode="normal" in2="BackgroundImageFix" result="effect1_dropShadow_539_6210"/>
<feBlend mode="normal" in="SourceGraphic" in2="effect1_dropShadow_539_6210" result="shape"/>
</filter>
<clipPath id="clip0_539_6210">
<path d="M4 10.1111C4 6.18375 7.18375 3 11.1111 3H316.889C320.816 3 324 6.18375 324 10.1111V337.556H4V10.1111Z" fill="white"/>
</clipPath>
</defs>
</svg>
