<svg width="500" height="500" viewBox="0 0 500 500" fill="none" xmlns="http://www.w3.org/2000/svg">
<g clip-path="url(#clip0_482_7156)">
<rect width="500" height="500" fill="#EFECF9"/>
<g filter="url(#filter0_d_482_7156)">
<rect x="16" y="440" width="155" height="44" rx="8" fill="white"/>
<rect x="16.5" y="440.5" width="154" height="43" rx="7.5" stroke="#E0E0E0"/>
<path d="M36.672 468.16C34.272 468.16 32.512 466.272 32.512 463.76C32.512 461.248 34.272 459.36 36.672 459.36C39.072 459.36 40.832 461.248 40.832 463.76C40.832 466.272 39.072 468.16 36.672 468.16ZM36.672 466.736C38.064 466.736 39.168 465.616 39.168 463.76C39.168 461.904 38.064 460.8 36.672 460.8C35.28 460.8 34.192 461.904 34.192 463.76C34.192 465.616 35.28 466.736 36.672 466.736ZM50.5754 463.76C50.5754 466.32 49.1034 468.16 46.8314 468.16C45.6794 468.16 44.7034 467.584 44.0954 466.56V471.088H42.4794V459.52H43.9834V461.072C44.5914 459.984 45.6314 459.36 46.8314 459.36C49.0874 459.36 50.5754 461.2 50.5754 463.76ZM48.8954 463.76C48.8954 461.856 47.8874 460.784 46.4954 460.784C45.1514 460.784 44.0954 461.856 44.0954 463.76C44.0954 465.632 45.1354 466.72 46.4954 466.72C47.8874 466.72 48.8954 465.664 48.8954 463.76ZM55.7018 468.16C53.2538 468.16 51.6058 466.384 51.6058 463.712C51.6058 461.2 53.3178 459.36 55.6538 459.36C58.1818 459.36 59.8618 461.408 59.5738 464.16H53.2538C53.3818 465.888 54.2458 466.896 55.6698 466.896C56.8698 466.896 57.7018 466.24 57.9738 465.136H59.5738C59.1578 467.024 57.7018 468.16 55.7018 468.16ZM55.6218 460.576C54.3258 460.576 53.4457 461.504 53.2698 463.088H57.8618C57.7818 461.52 56.9338 460.576 55.6218 460.576ZM62.9079 463.664V468H61.2919V459.52H62.7959V461.312C63.3879 460.144 64.6679 459.408 66.0599 459.408V461.088C64.2359 460.992 62.9079 461.792 62.9079 463.664ZM72.4748 468V466.688C71.9468 467.632 71.0028 468.16 69.7548 468.16C67.9948 468.16 66.8428 467.152 66.8428 465.6C66.8428 463.936 68.1708 463.072 70.6988 463.072C71.1948 463.072 71.5948 463.088 72.2828 463.168V462.544C72.2828 461.328 71.6268 460.64 70.5068 460.64C69.3228 460.64 68.6028 461.344 68.5548 462.528H67.0828C67.1628 460.624 68.5228 459.36 70.5068 459.36C72.6028 459.36 73.8188 460.544 73.8188 462.56V468H72.4748ZM68.3788 465.552C68.3788 466.432 69.0348 467.008 70.0748 467.008C71.4348 467.008 72.2828 466.16 72.2828 464.864V464.176C71.6588 464.096 71.2108 464.08 70.7948 464.08C69.1788 464.08 68.3788 464.56 68.3788 465.552ZM80.6853 466.432V467.856C80.1893 468.08 79.7573 468.16 79.2453 468.16C77.6773 468.16 76.5893 467.312 76.5893 465.44V460.896H74.7172V459.52H76.5893V457.008H78.2053V459.52H80.7653V460.896H78.2053V465.072C78.2053 466.24 78.7653 466.656 79.6293 466.656C80.0133 466.656 80.3493 466.592 80.6853 466.432ZM85.6251 468.16C83.2251 468.16 81.4651 466.272 81.4651 463.76C81.4651 461.248 83.2251 459.36 85.6251 459.36C88.0251 459.36 89.7851 461.248 89.7851 463.76C89.7851 466.272 88.0251 468.16 85.6251 468.16ZM85.6251 466.736C87.0171 466.736 88.1211 465.616 88.1211 463.76C88.1211 461.904 87.0171 460.8 85.6251 460.8C84.2331 460.8 83.1451 461.904 83.1451 463.76C83.1451 465.616 84.2331 466.736 85.6251 466.736ZM93.0485 463.664V468H91.4325V459.52H92.9365V461.312C93.5285 460.144 94.8085 459.408 96.2005 459.408V461.088C94.3765 460.992 93.0485 461.792 93.0485 463.664ZM104.199 465.472C104.199 467.136 102.903 468.16 100.647 468.16C98.4074 468.16 97.0794 467.056 96.9194 465.232H98.4714C98.5354 466.288 99.3834 466.944 100.679 466.944C101.815 466.944 102.567 466.544 102.567 465.744C102.567 465.04 102.135 464.736 101.079 464.528L99.7034 464.272C98.1354 463.968 97.2554 463.168 97.2554 461.888C97.2554 460.4 98.5514 459.36 100.519 459.36C102.551 459.36 103.927 460.448 104.071 462.192H102.519C102.423 461.168 101.671 460.576 100.535 460.576C99.5114 460.576 98.8234 461.008 98.8234 461.744C98.8234 462.432 99.2554 462.752 100.279 462.944L101.719 463.216C103.399 463.52 104.199 464.256 104.199 465.472ZM108.156 466.848C108.156 467.568 107.66 468.08 106.924 468.08C106.204 468.08 105.692 467.568 105.692 466.848C105.692 466.096 106.204 465.584 106.924 465.584C107.66 465.584 108.156 466.096 108.156 466.848ZM113.23 468.176C110.91 468.176 109.278 466.352 109.278 463.76C109.278 461.2 110.942 459.36 113.23 459.36C115.326 459.36 116.846 460.752 117.15 462.96H115.454C115.278 461.6 114.43 460.784 113.246 460.784C111.854 460.784 110.942 461.968 110.942 463.76C110.942 465.568 111.854 466.736 113.246 466.736C114.446 466.736 115.278 465.936 115.47 464.56H117.15C116.862 466.8 115.358 468.176 113.23 468.176ZM120.392 463.664V468H118.776V459.52H120.28V461.312C120.872 460.144 122.152 459.408 123.544 459.408V461.088C121.72 460.992 120.392 461.792 120.392 463.664ZM126.791 457.552C126.791 458.16 126.311 458.624 125.623 458.624C124.935 458.624 124.439 458.16 124.439 457.552C124.439 456.928 124.935 456.48 125.623 456.48C126.311 456.48 126.791 456.928 126.791 457.552ZM126.439 468H124.823V459.52H126.439V468ZM136.779 463.76C136.779 466.304 135.307 468.16 133.019 468.16C131.819 468.16 130.795 467.552 130.187 466.48V468H128.683V456.512H130.299V460.976C130.891 459.936 131.867 459.36 133.019 459.36C135.291 459.36 136.779 461.184 136.779 463.76ZM135.099 463.76C135.099 461.84 134.091 460.784 132.699 460.784C131.355 460.784 130.299 461.824 130.299 463.728C130.299 465.6 131.323 466.72 132.699 466.72C134.091 466.72 135.099 465.648 135.099 463.76ZM140.375 466.848C140.375 467.568 139.879 468.08 139.143 468.08C138.423 468.08 137.911 467.568 137.911 466.848C137.911 466.096 138.423 465.584 139.143 465.584C139.879 465.584 140.375 466.096 140.375 466.848ZM144.307 457.552C144.307 458.16 143.827 458.624 143.139 458.624C142.451 458.624 141.955 458.16 141.955 457.552C141.955 456.928 142.451 456.48 143.139 456.48C143.827 456.48 144.307 456.928 144.307 457.552ZM143.955 468H142.339V459.52H143.955V468ZM147.814 463.216V468H146.198V459.52H147.702V460.928C148.278 459.984 149.238 459.36 150.406 459.36C152.15 459.36 153.302 460.48 153.302 462.512V468H151.686V463.056C151.686 461.6 151.046 460.784 149.846 460.784C148.742 460.784 147.814 461.712 147.814 463.216Z" fill="black"/>
</g>
<g filter="url(#filter1_d_482_7156)">
<rect x="-252" y="46" width="712" height="374.967" rx="12" fill="white" shape-rendering="crispEdges"/>
<rect x="315.755" y="58.3766" width="128.804" height="29.3764" rx="2.63634" stroke="#E4E4E4" stroke-width="0.75324"/>
<path d="M324.565 70.3896V69.4405H330.185V70.3896H327.897V77.0648H326.864V70.3896H324.565ZM332.1 77.0543H331.108V69.3034H332.1V72.699C332.426 72.1401 333.049 71.7605 333.85 71.7605C335.168 71.7605 335.801 72.5936 335.801 73.9118V77.0648H334.81V74.1332C334.81 73.0892 334.314 72.6674 333.576 72.6674C332.616 72.6674 332.1 73.3634 332.1 74.2492V77.0543ZM337.712 70.6849C337.353 70.6849 337.058 70.3896 337.058 70.0311C337.058 69.662 337.353 69.3773 337.712 69.3773C338.07 69.3773 338.366 69.662 338.366 70.0311C338.366 70.3896 338.07 70.6849 337.712 70.6849ZM337.227 77.0648V71.9081H338.218V77.0648H337.227ZM339.288 75.5674H340.237C340.237 76.0946 340.638 76.411 341.292 76.411C341.988 76.411 342.388 76.1263 342.388 75.6517C342.388 75.3037 342.22 75.0928 341.682 74.9557L340.775 74.7448C339.857 74.5234 339.425 74.0699 339.425 73.3107C339.425 72.3616 340.226 71.7605 341.365 71.7605C342.494 71.7605 343.232 72.3932 343.253 73.3739H342.304C342.283 72.8572 341.935 72.5303 341.334 72.5303C340.712 72.5303 340.364 72.8045 340.364 73.279C340.364 73.627 340.617 73.859 341.123 73.9856L342.03 74.207C342.905 74.4179 343.337 74.8187 343.337 75.5885C343.337 76.5692 342.494 77.1914 341.27 77.1914C340.058 77.1914 339.288 76.5481 339.288 75.5674ZM346.93 79.3743V78.5623H347.594C348.069 78.5623 348.448 78.4884 348.691 77.8346L348.87 77.339L346.793 71.9081H347.837L349.334 76.063L350.863 71.9081H351.886L349.45 78.2248C349.102 79.1106 348.586 79.4797 347.795 79.4797C347.468 79.4797 347.194 79.4375 346.93 79.3743ZM354.76 77.1914C353.241 77.1914 352.197 76.0946 352.197 74.4918C352.197 72.8783 353.22 71.7605 354.718 71.7605C356.183 71.7605 357.143 72.7729 357.143 74.3019V74.671L353.157 74.6816C353.231 75.7677 353.8 76.3688 354.781 76.3688C355.551 76.3688 356.057 76.0525 356.226 75.4619H357.154C356.9 76.5692 356.036 77.1914 354.76 77.1914ZM354.718 72.5936C353.853 72.5936 353.305 73.1103 353.178 74.0172H356.152C356.152 73.163 355.593 72.5936 354.718 72.5936ZM359.759 77.1914C358.652 77.1914 357.998 76.5692 357.998 75.6307C357.998 74.6816 358.705 74.091 359.918 73.9961L361.542 73.8696V73.7219C361.542 72.8572 361.025 72.5514 360.329 72.5514C359.496 72.5514 359.021 72.9205 359.021 73.5427H358.157C358.157 72.467 359.042 71.7605 360.371 71.7605C361.647 71.7605 362.512 72.4354 362.512 73.8274V77.0648H361.668L361.563 76.2317C361.299 76.8223 360.593 77.1914 359.759 77.1914ZM360.044 76.4216C360.983 76.4216 361.552 75.8099 361.552 74.8397V74.5656L360.234 74.671C359.359 74.7554 359 75.0928 359 75.599C359 76.1474 359.401 76.4216 360.044 76.4216ZM366.89 71.866V72.7729H366.447C365.509 72.7729 364.929 73.3423 364.929 74.3336V77.0648H363.937V71.9187H364.865L364.929 72.699C365.139 72.1612 365.656 71.8027 366.363 71.8027C366.542 71.8027 366.69 71.8238 366.89 71.866Z" fill="#222222"/>
<g clip-path="url(#clip1_482_7156)">
<path d="M433.855 71.0235C433.561 70.7298 433.087 70.7298 432.793 71.0235L429.87 73.9461L426.948 71.0235C426.654 70.7298 426.179 70.7298 425.886 71.0235C425.592 71.3173 425.592 71.7918 425.886 72.0856L429.343 75.543C429.637 75.8367 430.111 75.8367 430.405 75.543L433.862 72.0856C434.149 71.7994 434.149 71.3173 433.855 71.0235Z" fill="#372583"/>
</g>
<g clip-path="url(#clip2_482_7156)">
<rect x="-207.558" y="100.181" width="376.62" height="271.166" fill="white"/>
<line x1="6.581" y1="100.181" x2="6.58099" y2="269.593" stroke="#F4F4F4" stroke-width="0.470588"/>
<line x1="27.9716" y1="100.181" x2="27.9716" y2="269.593" stroke="#F4F4F4" stroke-width="0.470588"/>
<line x1="-207.558" y1="133.828" x2="27.7365" y2="133.828" stroke="#F4F4F4" stroke-width="0.470588"/>
<line x1="-207.558" y1="167.711" x2="27.7365" y2="167.711" stroke="#F4F4F4" stroke-width="0.470588"/>
<line x1="-207.558" y1="201.593" x2="27.7365" y2="201.593" stroke="#F4F4F4" stroke-width="0.470588"/>
<line x1="-207.558" y1="235.476" x2="27.7365" y2="235.476" stroke="#F4F4F4" stroke-width="0.470588"/>
<line x1="-207.558" y1="269.358" x2="27.7365" y2="269.358" stroke="#F4F4F4" stroke-width="0.470588"/>
<line x1="134.789" y1="101.311" x2="134.789" y2="370.218" stroke="#372583" stroke-width="2.25972" stroke-linecap="round" stroke-dasharray="9.04 9.04"/>
</g>
<rect x="-207.181" y="100.558" width="375.867" height="270.413" stroke="#F4F4F4" stroke-width="0.75324"/>
<path d="M-4.32609 383.483H-5.42582V382.994H-3.80635L-3.80635 388.387H-4.32609V383.483ZM-2.47677 388.387H-2.98897L-0.88743 382.994H-0.360163L-2.47677 388.387ZM0.0441152 382.994H3.71239V383.491L1.58826 388.387H1.03086L3.16253 383.491H0.0441152V382.994Z" fill="#6F6F6F"/>
<path d="M30.3243 383.483H29.2246V382.994H30.844V388.387H30.3243V383.483ZM32.1736 388.387H31.6614L33.763 382.994H34.2902L32.1736 388.387ZM34.5622 386.918C34.5622 386.255 34.9614 385.728 35.6016 385.509C35.0593 385.291 34.7505 384.847 34.7505 384.289C34.7505 383.461 35.4585 382.896 36.4905 382.896C37.5149 382.896 38.2003 383.461 38.2003 384.297C38.2003 384.862 37.899 385.306 37.3642 385.509C37.9894 385.705 38.4037 386.248 38.4037 386.926C38.4037 387.845 37.6278 388.477 36.4829 388.477C35.338 388.477 34.5622 387.845 34.5622 386.918ZM35.2627 384.304C35.2627 384.899 35.7447 385.299 36.4829 385.299C37.2136 385.299 37.6881 384.914 37.6881 384.319C37.6881 383.739 37.2136 383.378 36.4829 383.378C35.7447 383.378 35.2627 383.739 35.2627 384.304ZM35.097 386.873C35.097 387.543 35.6544 387.988 36.4905 387.988C37.3115 387.988 37.8689 387.543 37.8689 386.873C37.8689 386.21 37.3266 385.781 36.4754 385.781C35.6393 385.781 35.097 386.21 35.097 386.873Z" fill="#6F6F6F"/>
<path d="M63.464 383.483H62.3642V382.994H63.9837V388.387H63.464V383.483ZM65.3133 388.387H64.8011L66.9026 382.994H67.4299L65.3133 388.387ZM70.9824 386.564L69.6341 388.387H69.0014L70.4175 386.504C70.1689 386.639 69.9354 386.685 69.6793 386.685C68.557 386.685 67.8113 385.863 67.8113 384.809C67.8113 383.709 68.6474 382.896 69.7245 382.896C70.8092 382.896 71.6603 383.732 71.6603 384.816C71.6603 385.442 71.4946 385.879 70.9824 386.564ZM71.118 384.809C71.118 383.988 70.5455 383.393 69.7245 383.393C68.9261 383.393 68.3536 383.988 68.3536 384.809C68.3536 385.622 68.9261 386.21 69.7245 386.21C70.5455 386.21 71.118 385.622 71.118 384.809Z" fill="#6F6F6F"/>
<path d="M96.6075 383.483H95.5078V382.994H97.1272V388.387H96.6075V383.483ZM98.4568 388.387H97.9446L100.046 382.994H100.573L98.4568 388.387ZM102.082 383.483H100.982V382.994H102.602V388.387H102.082V383.483ZM103.686 385.69C103.686 384.018 104.507 382.888 105.848 382.888C107.181 382.888 108.002 384.018 108.002 385.69C108.002 387.37 107.196 388.485 105.848 388.485C104.492 388.485 103.686 387.37 103.686 385.69ZM104.221 385.69C104.221 387.091 104.816 387.995 105.848 387.995C106.88 387.995 107.475 387.091 107.475 385.69C107.475 384.282 106.88 383.385 105.848 383.385C104.816 383.385 104.221 384.282 104.221 385.69Z" fill="#6F6F6F"/>
<rect x="126.127" y="376.621" width="19.0259" height="17.0259" rx="3.01296" fill="#372583"/>
<path d="M130.601 382.994H129.396V382.127H131.527L131.527 387.634H130.601V382.994ZM133.237 387.634H132.326L134.472 382.135H135.391L133.237 387.634ZM137.002 382.994H135.797V382.127H137.929V387.634H137.002V382.994ZM139.938 382.994H138.733V382.127H140.865V387.634H139.938V382.994Z" fill="white"/>
<path d="M163.648 383.483H162.548V382.994H164.167V388.387H163.648V383.483ZM165.497 388.387H164.985L167.086 382.994H167.613L165.497 388.387ZM169.122 383.483H168.022V382.994H169.642V388.387H169.122V383.483ZM174.206 388.387H170.651V387.957L172.376 386.451C173.37 385.585 173.626 385.208 173.626 384.568C173.626 383.837 173.189 383.393 172.474 383.393C171.728 383.393 171.239 383.935 171.216 384.771H170.674C170.704 383.641 171.419 382.896 172.481 382.896C173.498 382.896 174.176 383.551 174.176 384.538C174.176 385.321 173.822 385.841 172.745 386.782L171.487 387.882H174.206V388.387Z" fill="#6F6F6F"/>
<path d="M-36.5721 208.648L-35.3927 209.585L-35.3444 209.525L-35.3026 209.459L-36.5721 208.648ZM100.518 184.921L101.621 183.895L101.599 183.872L101.577 183.85L100.518 184.921ZM169.053 204.685C169.777 204.274 170.03 203.355 169.619 202.631C169.208 201.908 168.288 201.655 167.565 202.066L169.053 204.685ZM131.921 218.714L130.817 219.739L131.921 218.714ZM63.1847 152.448L62.7461 151.007L63.1847 152.448ZM69.1763 153.928L68.117 154.999L69.1763 153.928ZM30.4264 161.604L30.0996 163.074L30.4264 161.604ZM33.4881 161.486L33.9267 162.927L33.4881 161.486ZM-74.432 242.802L-75.7572 243.518L-74.432 242.802ZM-64.4136 243.684L-65.593 242.747L-64.4136 243.684ZM-110.831 192.471L-109.706 193.473L-110.831 192.471ZM-101.029 193.611L-99.7039 192.895L-101.029 193.611ZM-139.507 224.205L-138.766 225.517L-139.507 224.205ZM-137.971 222.965L-139.096 221.964L-137.971 222.965ZM-4.19288 157.967L-2.92338 158.779L-4.19288 157.967ZM2.19235 155.329L1.86554 156.8L2.19235 155.329ZM-169.23 241.005L-168.489 242.317L-169.23 241.005ZM-208.64 208.943L-177.607 240.998L-175.443 238.903L-206.475 206.847L-208.64 208.943ZM-168.489 242.317L-138.766 225.517L-140.248 222.894L-169.972 239.694L-168.489 242.317ZM-136.846 223.967L-109.706 193.473L-111.956 191.47L-139.096 221.964L-136.846 223.967ZM-102.354 194.328L-75.7572 243.518L-73.1068 242.085L-99.7039 192.895L-102.354 194.328ZM-63.2341 244.622L-35.3927 209.585L-37.7516 207.711L-65.593 242.747L-63.2341 244.622ZM-35.3026 209.459L-2.92338 158.779L-5.46239 157.156L-37.8417 207.837L-35.3026 209.459ZM1.86554 156.8L30.0996 163.074L30.7532 160.133L2.51915 153.859L1.86554 156.8ZM33.9267 162.927L63.6233 153.889L62.7461 151.007L33.0495 160.045L33.9267 162.927ZM68.117 154.999L99.4582 185.992L101.577 183.85L70.2356 152.857L68.117 154.999ZM99.414 185.946L130.817 219.739L133.024 217.688L101.621 183.895L99.414 185.946ZM140.056 221.161L169.053 204.685L167.565 202.066L138.568 218.541L140.056 221.161ZM130.817 219.739C133.195 222.298 137.019 222.886 140.056 221.161L138.568 218.541C136.746 219.576 134.451 219.223 133.024 217.688L130.817 219.739ZM63.6233 153.889C65.2114 153.406 66.9367 153.832 68.117 154.999L70.2356 152.857C68.2683 150.911 65.3929 150.201 62.7461 151.007L63.6233 153.889ZM30.0996 163.074C31.3666 163.356 32.685 163.305 33.9267 162.927L33.0495 160.045C32.3044 160.271 31.5134 160.302 30.7532 160.133L30.0996 163.074ZM-75.7572 243.518C-73.1871 248.271 -66.5959 248.852 -63.2341 244.622L-65.593 242.747C-67.6101 245.286 -71.5648 244.937 -73.1068 242.085L-75.7572 243.518ZM-109.706 193.473C-107.622 191.131 -103.845 191.57 -102.354 194.328L-99.7039 192.895C-102.189 188.299 -108.483 187.567 -111.956 191.47L-109.706 193.473ZM-138.766 225.517C-138.045 225.109 -137.396 224.586 -136.846 223.967L-139.096 221.964C-139.427 222.335 -139.816 222.649 -140.248 222.894L-138.766 225.517ZM-2.92338 158.779C-1.90116 157.179 0.0121014 156.388 1.86554 156.8L2.51915 153.859C-0.569929 153.172 -3.75869 154.49 -5.46239 157.156L-2.92338 158.779ZM-177.607 240.998C-175.222 243.462 -171.474 244.004 -168.489 242.317L-169.972 239.694C-171.763 240.706 -174.012 240.381 -175.443 238.903L-177.607 240.998Z" fill="#0DAA84"/>
<path d="M-35.0653 307.802L-34.4385 309.172L-34.378 309.144L-34.3201 309.111L-35.0653 307.802ZM102.024 299.174L102.573 297.771L102.554 297.763L102.534 297.756L102.024 299.174ZM170.121 307.36C170.936 307.191 171.46 306.394 171.291 305.58C171.123 304.765 170.326 304.241 169.511 304.409L170.121 307.36ZM135.009 312.081L134.46 313.484L135.009 312.081ZM66.7406 287.139L66.9064 288.636L66.7406 287.139ZM69.4426 287.457L69.9523 286.04L69.4426 287.457ZM32.9046 290.773L32.7833 292.275L32.7833 292.275L32.9046 290.773ZM34.0528 290.756L34.2185 292.254L34.0528 290.756ZM-71.3854 321.257L-72.2262 322.507L-71.3854 321.257ZM-100.943 301.378L-101.784 302.628L-100.943 301.378ZM-137.677 313.393L-137.981 311.917L-137.677 313.393ZM-136.611 313.068L-137.181 311.674L-136.611 313.068ZM-2.03077 289L-1.28558 290.309L-2.03077 289ZM-173.407 319.79L-172.877 318.38L-173.407 319.79ZM-206.581 308.938L-173.936 321.2L-172.877 318.38L-205.521 306.118L-206.581 308.938ZM-169.771 321.527L-137.374 314.868L-137.981 311.917L-170.378 318.576L-169.771 321.527ZM-136.042 314.463L-106.015 302.195L-107.155 299.406L-137.181 311.674L-136.042 314.463ZM-101.784 302.628L-72.2262 322.507L-70.5447 320.007L-100.103 300.128L-101.784 302.628ZM-64.8883 323.106L-34.4385 309.172L-35.6922 306.432L-66.142 320.366L-64.8883 323.106ZM-34.3201 309.111L-1.28558 290.309L-2.77596 287.69L-35.8105 306.493L-34.3201 309.111ZM1.31402 289.732L32.7833 292.275L33.0259 289.272L1.55671 286.729L1.31402 289.732ZM34.2185 292.254L66.9064 288.636L66.5749 285.641L33.8871 289.259L34.2185 292.254ZM68.9328 288.875L101.515 300.591L102.534 297.756L69.9523 286.04L68.9328 288.875ZM101.475 300.577L134.46 313.484L135.558 310.678L102.573 297.771L101.475 300.577ZM138.729 313.846L170.121 307.36L169.511 304.409L138.119 310.895L138.729 313.846ZM134.46 313.484C135.818 314.015 137.301 314.141 138.729 313.846L138.119 310.895C137.262 311.072 136.373 310.997 135.558 310.678L134.46 313.484ZM66.9064 288.636C67.5912 288.56 68.2844 288.642 68.9328 288.875L69.9523 286.04C68.8716 285.651 67.7164 285.515 66.5749 285.641L66.9064 288.636ZM32.7833 292.275C33.2613 292.313 33.7419 292.306 34.2185 292.254L33.8871 289.259C33.6011 289.291 33.3127 289.295 33.0259 289.272L32.7833 292.275ZM-72.2262 322.507C-70.051 323.97 -67.2718 324.197 -64.8883 323.106L-66.142 320.366C-67.5721 321.021 -69.2397 320.884 -70.5447 320.007L-72.2262 322.507ZM-106.015 302.195C-104.621 301.625 -103.034 301.788 -101.784 302.628L-100.103 300.128C-102.186 298.727 -104.831 298.456 -107.155 299.406L-106.015 302.195ZM-137.374 314.868C-136.918 314.775 -136.472 314.639 -136.042 314.463L-137.181 311.674C-137.44 311.779 -137.707 311.861 -137.981 311.917L-137.374 314.868ZM-1.28558 290.309C-0.49665 289.86 0.409212 289.659 1.31402 289.732L1.55671 286.729C0.0486841 286.607 -1.46109 286.942 -2.77596 287.69L-1.28558 290.309ZM-173.936 321.2C-172.607 321.7 -171.163 321.813 -169.771 321.527L-170.378 318.576C-171.213 318.747 -172.079 318.679 -172.877 318.38L-173.936 321.2Z" fill="#F6C026"/>
<g clip-path="url(#clip3_482_7156)">
<rect x="199.943" y="100.181" width="244.897" height="166.713" rx="3.01296" fill="white"/>
<path d="M216.744 117.403C216.744 119.723 215.225 121.347 213.063 121.347C210.912 121.347 209.415 119.723 209.415 117.403C209.415 115.093 210.923 113.459 213.074 113.459C215.236 113.459 216.744 115.083 216.744 117.403ZM215.658 117.403C215.658 115.631 214.624 114.461 213.074 114.461C211.524 114.461 210.501 115.631 210.501 117.403C210.501 119.175 211.524 120.356 213.074 120.356C214.624 120.356 215.658 119.164 215.658 117.403ZM217.612 118.647C217.612 117.034 218.635 115.916 220.143 115.916C221.44 115.916 222.347 116.654 222.526 117.804H221.535C221.366 117.15 220.839 116.802 220.175 116.802C219.236 116.802 218.593 117.519 218.593 118.637C218.593 119.744 219.194 120.461 220.132 120.461C220.839 120.461 221.366 120.092 221.546 119.48H222.537C222.336 120.598 221.377 121.347 220.132 121.347C218.614 121.347 217.612 120.271 217.612 118.647ZM223.298 118.647C223.298 117.034 224.321 115.916 225.829 115.916C227.126 115.916 228.033 116.654 228.212 117.804H227.221C227.052 117.15 226.525 116.802 225.861 116.802C224.922 116.802 224.279 117.519 224.279 118.637C224.279 119.744 224.88 120.461 225.818 120.461C226.525 120.461 227.052 120.092 227.231 119.48H228.223C228.022 120.598 227.063 121.347 225.818 121.347C224.3 121.347 223.298 120.271 223.298 118.647ZM232.886 116.064H233.866V121.22H232.981L232.875 120.44C232.58 120.978 231.894 121.347 231.135 121.347C229.933 121.347 229.258 120.535 229.258 119.269V116.064H230.249V118.943C230.249 120.05 230.724 120.472 231.483 120.472C232.39 120.472 232.886 119.892 232.886 118.784V116.064ZM235.357 123.53V116.064H236.254L236.327 116.992C236.675 116.285 237.371 115.916 238.194 115.916C239.67 115.916 240.588 117.023 240.588 118.605C240.588 120.176 239.723 121.357 238.194 121.357C237.371 121.357 236.686 121.009 236.349 120.377V123.53H235.357ZM236.359 118.647C236.359 119.702 236.971 120.461 237.983 120.461C238.995 120.461 239.597 119.702 239.597 118.647C239.597 117.582 238.995 116.823 237.983 116.823C236.971 116.823 236.359 117.572 236.359 118.647ZM243.241 121.347C242.134 121.347 241.48 120.725 241.48 119.786C241.48 118.837 242.187 118.247 243.399 118.152L245.023 118.025V117.877C245.023 117.013 244.507 116.707 243.811 116.707C242.977 116.707 242.503 117.076 242.503 117.698H241.638C241.638 116.623 242.524 115.916 243.853 115.916C245.129 115.916 245.993 116.591 245.993 117.983V121.22H245.15L245.044 120.387C244.781 120.978 244.074 121.347 243.241 121.347ZM243.526 120.577C244.464 120.577 245.034 119.965 245.034 118.995V118.721L243.716 118.827C242.84 118.911 242.482 119.248 242.482 119.755C242.482 120.303 242.883 120.577 243.526 120.577ZM248.41 121.22H247.419V116.064H248.315L248.421 116.855C248.748 116.264 249.401 115.916 250.129 115.916C251.489 115.916 252.112 116.749 252.112 118.067V121.22H251.12V118.289C251.12 117.245 250.635 116.823 249.876 116.823C248.948 116.823 248.41 117.487 248.41 118.489V121.22ZM253.2 118.647C253.2 117.034 254.223 115.916 255.731 115.916C257.028 115.916 257.935 116.654 258.114 117.804H257.123C256.954 117.15 256.427 116.802 255.762 116.802C254.824 116.802 254.181 117.519 254.181 118.637C254.181 119.744 254.782 120.461 255.72 120.461C256.427 120.461 256.954 120.092 257.133 119.48H258.125C257.924 120.598 256.965 121.347 255.72 121.347C254.202 121.347 253.2 120.271 253.2 118.647ZM258.625 123.53V122.718H259.289C259.763 122.718 260.143 122.644 260.386 121.99L260.565 121.495L258.487 116.064H259.531L261.029 120.219L262.558 116.064H263.581L261.145 122.38C260.797 123.266 260.28 123.635 259.489 123.635C259.162 123.635 258.888 123.593 258.625 123.53Z" fill="#6F6F6F"/>
<path d="M209.13 133.816H220.203V136.305L214.614 149.233H211.809L217.503 136.305H209.13V133.816ZM221.011 144.867C221.011 143.033 222.044 141.556 223.647 140.945C222.297 140.333 221.559 139.173 221.559 137.676C221.559 135.229 223.732 133.542 226.916 133.542C230.08 133.542 232.21 135.208 232.21 137.718C232.21 139.215 231.451 140.375 230.08 140.945C231.704 141.514 232.758 143.012 232.758 144.867C232.758 147.651 230.46 149.486 226.874 149.486C223.31 149.486 221.011 147.673 221.011 144.867ZM224.006 137.908C224.006 139.194 225.124 140.017 226.874 140.017C228.604 140.017 229.7 139.215 229.7 137.929C229.7 136.642 228.604 135.841 226.874 135.841C225.124 135.841 224.006 136.642 224.006 137.908ZM223.647 144.678C223.647 146.175 224.892 147.103 226.895 147.103C228.857 147.103 230.101 146.175 230.101 144.678C230.101 143.18 228.857 142.252 226.874 142.252C224.892 142.252 223.647 143.18 223.647 144.678ZM242.41 137.57C242.41 139.953 240.723 141.62 238.382 141.62C236.041 141.62 234.353 139.953 234.353 137.57C234.353 135.208 236.041 133.521 238.382 133.521C240.723 133.521 242.41 135.208 242.41 137.57ZM250.867 133.837L239.162 149.233H236.589L248.294 133.837H250.867ZM240.364 137.57C240.364 136.347 239.563 135.503 238.382 135.503C237.201 135.503 236.42 136.347 236.42 137.57C236.42 138.793 237.222 139.637 238.382 139.637C239.563 139.637 240.364 138.793 240.364 137.57ZM253.124 145.458C253.124 147.82 251.458 149.507 249.117 149.507C246.755 149.507 245.089 147.82 245.089 145.458C245.089 143.096 246.755 141.409 249.117 141.409C251.458 141.409 253.124 143.096 253.124 145.458ZM251.078 145.458C251.078 144.235 250.277 143.391 249.117 143.391C247.936 143.391 247.134 144.235 247.134 145.458C247.134 146.681 247.936 147.525 249.117 147.525C250.277 147.525 251.078 146.681 251.078 145.458Z" fill="#222222"/>
<rect x="208.982" y="167.285" width="154.13" height="22.0259" rx="3.01296" fill="#FFEBEF"/>
<path d="M221.035 172.178C219.825 172.178 218.641 172.537 217.635 173.21C216.629 173.882 215.844 174.838 215.381 175.956C214.918 177.074 214.796 178.305 215.033 179.492C215.269 180.679 215.852 181.77 216.708 182.626C217.563 183.482 218.654 184.065 219.841 184.301C221.028 184.537 222.259 184.416 223.377 183.952C224.495 183.489 225.451 182.705 226.124 181.698C226.796 180.692 227.155 179.509 227.155 178.298C227.153 176.676 226.508 175.12 225.361 173.973C224.213 172.825 222.658 172.18 221.035 172.178ZM223.389 180.181C223.389 180.306 223.339 180.426 223.251 180.514C223.163 180.602 223.043 180.652 222.918 180.652H220.094C219.969 180.652 219.849 180.602 219.761 180.514C219.672 180.426 219.623 180.306 219.623 180.181C219.623 180.056 219.672 179.937 219.761 179.848C219.849 179.76 219.969 179.71 220.094 179.71H221.782L218.819 176.748C218.731 176.66 218.681 176.54 218.681 176.415C218.681 176.29 218.731 176.17 218.819 176.082C218.907 175.994 219.027 175.944 219.152 175.944C219.277 175.944 219.397 175.994 219.485 176.082L222.447 179.045V177.357C222.447 177.232 222.497 177.112 222.585 177.024C222.674 176.935 222.793 176.886 222.918 176.886C223.043 176.886 223.163 176.935 223.251 177.024C223.339 177.112 223.389 177.232 223.389 177.357V180.181Z" fill="#D82650"/>
<path d="M237.261 178.249H236.66V177.721L238.99 175.423H235.373V174.748H239.95V175.359L237.693 177.605C239.106 177.679 240.119 178.576 240.119 179.947C240.119 181.444 239.022 182.425 237.493 182.425C236.006 182.425 235.004 181.507 235.004 179.999H235.753C235.753 181.085 236.428 181.739 237.493 181.739C238.621 181.739 239.349 181.022 239.349 179.925C239.349 178.892 238.611 178.249 237.261 178.249ZM242.073 177.289L243.961 174.748H244.847L242.864 177.373C243.223 177.194 243.55 177.12 243.898 177.12C245.469 177.12 246.513 178.27 246.513 179.746C246.513 181.296 245.342 182.425 243.834 182.425C242.316 182.425 241.124 181.254 241.124 179.746C241.124 178.871 241.367 178.259 242.073 177.289ZM241.894 179.757C241.894 180.906 242.685 181.739 243.834 181.739C244.952 181.739 245.754 180.906 245.754 179.757C245.754 178.607 244.952 177.785 243.834 177.785C242.685 177.785 241.894 178.607 241.894 179.757ZM251.253 176.477C251.253 177.563 250.484 178.344 249.408 178.344C248.332 178.344 247.552 177.563 247.552 176.477C247.552 175.391 248.332 174.6 249.408 174.6C250.484 174.6 251.253 175.391 251.253 176.477ZM255.081 174.748L249.345 182.298H248.585L254.312 174.748H255.081ZM250.621 176.477C250.621 175.728 250.125 175.212 249.408 175.212C248.68 175.212 248.185 175.728 248.185 176.477C248.185 177.215 248.691 177.743 249.408 177.743C250.114 177.743 250.621 177.215 250.621 176.477ZM256.125 180.569C256.125 181.655 255.356 182.435 254.28 182.435C253.204 182.435 252.424 181.655 252.424 180.569C252.424 179.483 253.204 178.692 254.28 178.692C255.356 178.692 256.125 179.483 256.125 180.569ZM255.493 180.569C255.493 179.82 254.997 179.303 254.28 179.303C253.552 179.303 253.057 179.82 253.057 180.569C253.057 181.307 253.563 181.824 254.28 181.824C254.986 181.824 255.493 181.307 255.493 180.569ZM262.426 182.425C260.94 182.425 260.064 181.286 260.064 179.757C260.064 178.217 260.94 177.057 262.458 177.057C263.302 177.057 263.977 177.426 264.335 178.164V174.611H265.063V182.298H264.43L264.356 181.254C263.998 182.045 263.281 182.425 262.426 182.425ZM262.553 181.76C263.671 181.76 264.325 180.917 264.325 179.736C264.325 178.565 263.671 177.711 262.553 177.711C261.446 177.711 260.802 178.565 260.802 179.736C260.802 180.917 261.446 181.76 262.553 181.76ZM266.275 179.746C266.275 178.185 267.372 177.057 268.869 177.057C270.367 177.057 271.464 178.185 271.464 179.746C271.464 181.296 270.367 182.425 268.869 182.425C267.372 182.425 266.275 181.296 266.275 179.746ZM267.013 179.736C267.013 180.938 267.773 181.771 268.869 181.771C269.956 181.771 270.725 180.938 270.725 179.736C270.725 178.555 269.956 177.711 268.869 177.711C267.773 177.711 267.013 178.555 267.013 179.736ZM273.529 182.298L271.842 177.194H272.591L273.592 180.273C273.708 180.611 273.803 180.959 273.909 181.37C273.993 180.959 274.162 180.442 274.215 180.273L275.227 177.194H275.976L276.978 180.273C277.072 180.548 277.199 180.991 277.294 181.37C277.399 180.948 277.42 180.822 277.6 180.273L278.612 177.194H279.371L277.642 182.298H276.935L275.881 179.092C275.754 178.713 275.67 178.396 275.607 178.091C275.533 178.365 275.448 178.671 275.311 179.092L274.257 182.298H273.529ZM281.061 182.298H280.333V177.194H280.966L281.071 178.08C281.409 177.426 282.083 177.057 282.822 177.057C284.224 177.057 284.804 177.89 284.804 179.177V182.298H284.077V179.335C284.077 178.143 283.539 177.721 282.695 177.721C281.651 177.721 281.061 178.481 281.061 179.63V182.298ZM288.715 177.194H289.495V176.203C289.495 175.053 290.128 174.611 290.909 174.611C291.088 174.611 291.299 174.621 291.467 174.653V175.275H291.035C290.392 175.275 290.223 175.602 290.223 176.203V177.194H291.425V177.806H290.223V182.298H289.495V177.806H288.715V177.194ZM295.136 177.131V177.785H294.735C293.797 177.785 293.196 178.417 293.196 179.388V182.298H292.468V177.194H293.153L293.206 177.985C293.406 177.437 293.944 177.078 294.661 177.078C294.82 177.078 294.957 177.089 295.136 177.131ZM295.602 179.746C295.602 178.185 296.698 177.057 298.196 177.057C299.693 177.057 300.79 178.185 300.79 179.746C300.79 181.296 299.693 182.425 298.196 182.425C296.698 182.425 295.602 181.296 295.602 179.746ZM296.34 179.736C296.34 180.938 297.099 181.771 298.196 181.771C299.282 181.771 300.052 180.938 300.052 179.736C300.052 178.555 299.282 177.711 298.196 177.711C297.099 177.711 296.34 178.555 296.34 179.736ZM302.734 182.298H302.007V177.194H302.639L302.724 177.922C302.977 177.384 303.546 177.057 304.263 177.057C305.065 177.057 305.666 177.479 305.908 178.143C306.14 177.479 306.762 177.057 307.585 177.057C308.692 177.057 309.42 177.774 309.42 178.955V182.298H308.713V179.103C308.713 178.228 308.228 177.711 307.448 177.711C306.594 177.711 306.088 178.354 306.088 179.145V182.298H305.371V179.092C305.371 178.228 304.875 177.721 304.105 177.721C303.251 177.721 302.734 178.354 302.734 179.135V182.298ZM315.063 175.433H313.524V174.748H315.791V182.298H315.063V175.433ZM327.352 178.523C327.352 180.811 325.865 182.425 323.756 182.425C321.636 182.425 320.16 180.811 320.16 178.523C320.16 176.235 321.647 174.611 323.756 174.611C325.876 174.611 327.352 176.224 327.352 178.523ZM326.572 178.523C326.572 176.635 325.422 175.349 323.756 175.349C322.09 175.349 320.951 176.635 320.951 178.523C320.951 180.411 322.09 181.697 323.756 181.697C325.422 181.697 326.572 180.4 326.572 178.523ZM328.265 179.757C328.265 178.154 329.245 177.057 330.732 177.057C331.913 177.057 332.778 177.743 332.979 178.797H332.251C332.061 178.091 331.449 177.7 330.743 177.7C329.709 177.7 328.982 178.491 328.982 179.746C328.982 180.959 329.657 181.771 330.69 181.771C331.449 181.771 332.061 181.349 332.261 180.695H333C332.757 181.739 331.85 182.425 330.69 182.425C329.245 182.425 328.265 181.36 328.265 179.757ZM335.325 182.298H334.608V177.806H333.585V177.194H334.608V175.581H335.325V177.194H336.348V177.806H335.325V182.298ZM336.938 179.746C336.938 178.185 338.035 177.057 339.532 177.057C341.03 177.057 342.127 178.185 342.127 179.746C342.127 181.296 341.03 182.425 339.532 182.425C338.035 182.425 336.938 181.296 336.938 179.746ZM337.676 179.736C337.676 180.938 338.436 181.771 339.532 181.771C340.619 181.771 341.388 180.938 341.388 179.736C341.388 178.555 340.619 177.711 339.532 177.711C338.436 177.711 337.676 178.555 337.676 179.736ZM343.976 182.298H343.343V174.611H344.071V178.185C344.429 177.437 345.125 177.057 345.99 177.057C347.477 177.057 348.342 178.217 348.342 179.757C348.342 181.286 347.456 182.425 345.969 182.425C345.115 182.425 344.408 182.045 344.05 181.254L343.976 182.298ZM344.081 179.736C344.081 180.917 344.735 181.76 345.853 181.76C346.96 181.76 347.603 180.917 347.603 179.736C347.603 178.565 346.96 177.711 345.853 177.711C344.735 177.711 344.081 178.565 344.081 179.736ZM351.695 182.425C350.197 182.425 349.196 181.349 349.196 179.746C349.196 178.154 350.187 177.057 351.642 177.057C353.024 177.057 353.962 178.038 353.962 179.483V179.841H349.902C349.955 181.085 350.609 181.803 351.705 181.803C352.539 181.803 353.076 181.444 353.266 180.769H353.962C353.688 181.845 352.897 182.425 351.695 182.425ZM351.642 177.679C350.683 177.679 350.05 178.312 349.923 179.314H353.234C353.234 178.333 352.602 177.679 351.642 177.679ZM357.846 177.131V177.785H357.445C356.507 177.785 355.906 178.417 355.906 179.388V182.298H355.178V177.194H355.864L355.916 177.985C356.117 177.437 356.655 177.078 357.372 177.078C357.53 177.078 357.667 177.089 357.846 177.131Z" fill="#BC0430"/>
<line x1="208.982" y1="200.986" x2="435.802" y2="200.986" stroke="#F4F4F4" stroke-width="0.75324"/>
<g clip-path="url(#clip4_482_7156)">
<rect x="208.982" y="210.596" width="53.0389" height="47.0648" rx="3.01296" fill="white"/>
<rect x="208.982" y="221.109" width="6.02592" height="6.02592" rx="1.50648" fill="#0DAA84"/>
<path d="M225.228 224.078C225.228 226.232 223.818 227.74 221.811 227.74C219.813 227.74 218.423 226.232 218.423 224.078C218.423 221.933 219.823 220.415 221.821 220.415C223.828 220.415 225.228 221.923 225.228 224.078ZM224.22 224.078C224.22 222.432 223.26 221.346 221.821 221.346C220.381 221.346 219.432 222.432 219.432 224.078C219.432 225.723 220.381 226.819 221.821 226.819C223.26 226.819 224.22 225.713 224.22 224.078ZM226.035 225.233C226.035 223.735 226.985 222.697 228.385 222.697C229.589 222.697 230.431 223.382 230.598 224.45H229.677C229.521 223.843 229.031 223.519 228.414 223.519C227.543 223.519 226.945 224.185 226.945 225.223C226.945 226.251 227.504 226.917 228.375 226.917C229.031 226.917 229.521 226.575 229.687 226.007H230.608C230.422 227.045 229.531 227.74 228.375 227.74C226.965 227.74 226.035 226.741 226.035 225.233ZM231.315 225.233C231.315 223.735 232.264 222.697 233.665 222.697C234.869 222.697 235.711 223.382 235.878 224.45H234.957C234.801 223.843 234.311 223.519 233.694 223.519C232.823 223.519 232.225 224.185 232.225 225.223C232.225 226.251 232.783 226.917 233.655 226.917C234.311 226.917 234.801 226.575 234.967 226.007H235.887C235.701 227.045 234.81 227.74 233.655 227.74C232.245 227.74 231.315 226.741 231.315 225.233ZM240.217 222.834H241.128V227.622H240.305L240.208 226.898C239.933 227.397 239.297 227.74 238.592 227.74C237.476 227.74 236.849 226.986 236.849 225.811V222.834H237.769V225.507C237.769 226.535 238.21 226.927 238.915 226.927C239.757 226.927 240.217 226.389 240.217 225.36V222.834ZM242.512 229.767V222.834H243.345L243.413 223.696C243.736 223.04 244.383 222.697 245.146 222.697C246.517 222.697 247.369 223.725 247.369 225.194C247.369 226.653 246.566 227.75 245.146 227.75C244.383 227.75 243.746 227.426 243.433 226.839V229.767H242.512ZM243.443 225.233C243.443 226.212 244.011 226.917 244.951 226.917C245.891 226.917 246.449 226.212 246.449 225.233C246.449 224.244 245.891 223.539 244.951 223.539C244.011 223.539 243.443 224.234 243.443 225.233ZM248.883 221.698C248.55 221.698 248.276 221.424 248.276 221.091C248.276 220.748 248.55 220.484 248.883 220.484C249.216 220.484 249.49 220.748 249.49 221.091C249.49 221.424 249.216 221.698 248.883 221.698ZM248.433 227.622V222.834H249.353V227.622H248.433ZM252.805 227.74C251.395 227.74 250.425 226.721 250.425 225.233C250.425 223.735 251.375 222.697 252.766 222.697C254.127 222.697 255.018 223.637 255.018 225.057V225.4L251.316 225.409C251.385 226.418 251.914 226.976 252.824 226.976C253.539 226.976 254.009 226.682 254.166 226.134H255.028C254.792 227.162 253.99 227.74 252.805 227.74ZM252.766 223.47C251.963 223.47 251.453 223.95 251.336 224.792H254.097C254.097 223.999 253.578 223.47 252.766 223.47ZM258.014 227.74C256.624 227.74 255.781 226.702 255.781 225.243C255.781 223.774 256.633 222.697 258.053 222.697C258.788 222.697 259.405 223.02 259.728 223.608V220.415H260.638V227.622H259.816L259.737 226.751C259.424 227.407 258.778 227.74 258.014 227.74ZM258.2 226.907C259.14 226.907 259.718 226.212 259.718 225.213C259.718 224.234 259.14 223.529 258.2 223.529C257.26 223.529 256.712 224.234 256.712 225.213C256.712 226.202 257.26 226.907 258.2 226.907Z" fill="#6F6F6F"/>
<path d="M216.223 248.622L209.606 248.635V247.618L212.765 244.893C214.352 243.524 214.799 242.859 214.799 241.815C214.799 240.582 214.094 239.849 212.914 239.849C211.708 239.849 210.921 240.731 210.894 242.127H209.565C209.606 240.026 210.935 238.656 212.928 238.656C214.894 238.656 216.155 239.849 216.155 241.734C216.155 243.131 215.463 244.12 213.728 245.625L211.694 247.388H216.223V248.622ZM217.418 245.91C217.418 244.73 218.11 243.781 219.194 243.388C218.273 242.995 217.771 242.222 217.771 241.232C217.771 239.7 219.086 238.656 221.038 238.656C222.964 238.656 224.265 239.7 224.265 241.246C224.265 242.249 223.75 243.022 222.828 243.388C223.926 243.741 224.631 244.717 224.631 245.924C224.631 247.645 223.194 248.798 221.025 248.798C218.842 248.798 217.418 247.645 217.418 245.91ZM218.991 241.314C218.991 242.276 219.791 242.9 221.011 242.9C222.245 242.9 223.018 242.29 223.018 241.341C223.018 240.405 222.245 239.809 221.011 239.809C219.791 239.809 218.991 240.405 218.991 241.314ZM218.72 245.815C218.72 246.913 219.628 247.618 221.025 247.618C222.408 247.618 223.316 246.913 223.316 245.815C223.316 244.73 222.421 244.039 221.011 244.039C219.615 244.039 218.72 244.73 218.72 245.815ZM231.627 245.53L229.336 248.635H227.79L230.245 245.381C229.906 245.517 229.553 245.585 229.214 245.585C227.18 245.585 225.811 244.12 225.811 242.168C225.811 240.134 227.357 238.656 229.377 238.656C231.411 238.656 232.983 240.188 232.983 242.181C232.983 243.334 232.631 244.161 231.627 245.53ZM231.627 242.168C231.627 240.826 230.705 239.849 229.377 239.849C228.075 239.849 227.153 240.826 227.153 242.168C227.153 243.51 228.075 244.459 229.377 244.459C230.705 244.459 231.627 243.51 231.627 242.168Z" fill="#222222"/>
</g>
<g clip-path="url(#clip5_482_7156)">
<rect x="286.021" y="210.596" width="43.0389" height="47.0648" rx="3.01296" fill="white"/>
<rect x="286.021" y="221.109" width="6.02592" height="6.02592" rx="1.50648" fill="#F6C026"/>
<path d="M295.883 227.622V220.543H298.586C299.966 220.543 300.809 221.248 300.809 222.413C300.809 223.226 300.456 223.774 299.751 224.068C300.534 224.322 300.936 224.89 300.936 225.732C300.936 226.907 300.084 227.622 298.684 227.622H295.883ZM298.527 221.395H296.843V223.666H298.586C299.379 223.666 299.829 223.235 299.829 222.501C299.829 221.796 299.359 221.395 298.527 221.395ZM298.664 224.499H296.843V226.77H298.664C299.487 226.77 299.947 226.349 299.947 225.615C299.947 224.91 299.477 224.499 298.664 224.499ZM301.716 225.223C301.716 223.745 302.774 222.707 304.213 222.707C305.643 222.707 306.7 223.745 306.7 225.223C306.7 226.702 305.643 227.74 304.213 227.74C302.774 227.74 301.716 226.702 301.716 225.223ZM302.646 225.223C302.646 226.222 303.283 226.917 304.213 226.917C305.133 226.917 305.78 226.222 305.78 225.223C305.78 224.224 305.133 223.529 304.213 223.529C303.283 223.529 302.646 224.224 302.646 225.223ZM307.455 225.223C307.455 223.745 308.512 222.707 309.952 222.707C311.381 222.707 312.439 223.745 312.439 225.223C312.439 226.702 311.381 227.74 309.952 227.74C308.512 227.74 307.455 226.702 307.455 225.223ZM308.385 225.223C308.385 226.222 309.021 226.917 309.952 226.917C310.872 226.917 311.518 226.222 311.518 225.223C311.518 224.224 310.872 223.529 309.952 223.529C309.021 223.529 308.385 224.224 308.385 225.223ZM314.447 227.622H313.526V220.415H314.447V225.086L316.572 222.834H317.727L315.896 224.743L317.717 227.622H316.66L315.26 225.409L314.447 226.261V227.622ZM320.413 227.74C319.003 227.74 318.033 226.721 318.033 225.233C318.033 223.735 318.983 222.697 320.374 222.697C321.735 222.697 322.626 223.637 322.626 225.057V225.4L318.924 225.409C318.993 226.418 319.522 226.976 320.432 226.976C321.147 226.976 321.617 226.682 321.774 226.134H322.636C322.401 227.162 321.598 227.74 320.413 227.74ZM320.374 223.47C319.571 223.47 319.061 223.95 318.944 224.792H321.705C321.705 223.999 321.186 223.47 320.374 223.47ZM325.622 227.74C324.232 227.74 323.389 226.702 323.389 225.243C323.389 223.774 324.241 222.697 325.661 222.697C326.396 222.697 327.013 223.02 327.336 223.608V220.415H328.246V227.622H327.424L327.345 226.751C327.032 227.407 326.386 227.74 325.622 227.74ZM325.808 226.907C326.748 226.907 327.326 226.212 327.326 225.213C327.326 224.234 326.748 223.529 325.808 223.529C324.868 223.529 324.32 224.234 324.32 225.213C324.32 226.202 324.868 226.907 325.808 226.907Z" fill="#6F6F6F"/>
<path d="M286.13 238.833H292.977V240.053L289.262 248.635H287.879L291.635 240.053H286.13V238.833ZM293.57 245.91C293.57 244.73 294.262 243.781 295.346 243.388C294.424 242.995 293.923 242.222 293.923 241.232C293.923 239.7 295.238 238.656 297.19 238.656C299.116 238.656 300.417 239.7 300.417 241.246C300.417 242.249 299.902 243.022 298.98 243.388C300.078 243.741 300.783 244.717 300.783 245.924C300.783 247.645 299.346 248.798 297.177 248.798C294.994 248.798 293.57 247.645 293.57 245.91ZM295.143 241.314C295.143 242.276 295.943 242.9 297.163 242.9C298.397 242.9 299.17 242.29 299.17 241.341C299.17 240.405 298.397 239.809 297.163 239.809C295.943 239.809 295.143 240.405 295.143 241.314ZM294.872 245.815C294.872 246.913 295.78 247.618 297.177 247.618C298.56 247.618 299.468 246.913 299.468 245.815C299.468 244.73 298.573 244.039 297.163 244.039C295.767 244.039 294.872 244.73 294.872 245.815Z" fill="#222222"/>
</g>
<g clip-path="url(#clip6_482_7156)">
<rect x="353.061" y="210.596" width="40.0389" height="47.0648" rx="3.01296" fill="white"/>
<rect x="353.061" y="221.109" width="6.02592" height="6.02592" rx="1.50648" fill="#B0B0B0"/>
<path d="M364.89 227.622L362.198 220.543H363.226L364.949 225.067C365.106 225.468 365.243 225.87 365.39 226.398C365.556 225.84 365.723 225.37 365.84 225.057L367.554 220.543H368.553L365.889 227.622H364.89ZM369.991 227.74C368.962 227.74 368.355 227.162 368.355 226.291C368.355 225.409 369.011 224.861 370.137 224.773L371.645 224.655V224.518C371.645 223.715 371.166 223.431 370.519 223.431C369.746 223.431 369.305 223.774 369.305 224.352H368.502C368.502 223.353 369.325 222.697 370.558 222.697C371.743 222.697 372.546 223.324 372.546 224.616V227.622H371.763L371.665 226.849C371.42 227.397 370.764 227.74 369.991 227.74ZM370.255 227.025C371.126 227.025 371.655 226.457 371.655 225.556V225.302L370.431 225.4C369.618 225.478 369.285 225.791 369.285 226.261C369.285 226.77 369.658 227.025 370.255 227.025ZM373.557 225.233C373.557 223.735 374.506 222.697 375.907 222.697C377.111 222.697 377.953 223.382 378.12 224.45H377.199C377.043 223.843 376.553 223.519 375.936 223.519C375.065 223.519 374.467 224.185 374.467 225.223C374.467 226.251 375.025 226.917 375.897 226.917C376.553 226.917 377.043 226.575 377.209 226.007H378.13C377.943 227.045 377.052 227.74 375.897 227.74C374.487 227.74 373.557 226.741 373.557 225.233ZM380.55 227.74C379.522 227.74 378.915 227.162 378.915 226.291C378.915 225.409 379.571 224.861 380.697 224.773L382.205 224.655V224.518C382.205 223.715 381.725 223.431 381.079 223.431C380.305 223.431 379.865 223.774 379.865 224.352H379.062C379.062 223.353 379.884 222.697 381.118 222.697C382.303 222.697 383.106 223.324 383.106 224.616V227.622H382.322L382.224 226.849C381.98 227.397 381.324 227.74 380.55 227.74ZM380.814 227.025C381.686 227.025 382.215 226.457 382.215 225.556V225.302L380.991 225.4C380.178 225.478 379.845 225.791 379.845 226.261C379.845 226.77 380.217 227.025 380.814 227.025ZM385.35 227.622H384.429V222.834H385.262L385.36 223.568C385.663 223.02 386.27 222.697 386.946 222.697C388.209 222.697 388.787 223.47 388.787 224.694V227.622H387.866V224.9C387.866 223.931 387.416 223.539 386.711 223.539C385.849 223.539 385.35 224.156 385.35 225.086V227.622ZM391.462 227.622H390.542V223.608H389.602V222.834H390.542V221.336H391.462V222.834H392.402V223.608H391.462V227.622Z" fill="#6F6F6F"/>
<path d="M355.596 240.026H353.535V238.833H356.87V248.635H355.596V240.026ZM358.664 243.741C358.664 240.704 360.236 238.643 362.704 238.643C365.158 238.643 366.731 240.704 366.731 243.741C366.731 246.791 365.226 248.812 362.704 248.812C360.169 248.812 358.664 246.791 358.664 243.741ZM359.979 243.741C359.979 246.154 360.982 247.618 362.704 247.618C364.426 247.618 365.416 246.154 365.416 243.741C365.416 241.3 364.426 239.836 362.704 239.836C360.982 239.836 359.979 241.3 359.979 243.741ZM374.64 248.622L368.024 248.635V247.618L371.183 244.893C372.769 243.524 373.217 242.859 373.217 241.815C373.217 240.582 372.512 239.849 371.332 239.849C370.125 239.849 369.339 240.731 369.312 242.127H367.983C368.024 240.026 369.352 238.656 371.346 238.656C373.311 238.656 374.572 239.849 374.572 241.734C374.572 243.131 373.881 244.12 372.145 245.625L370.112 247.388H374.64V248.622Z" fill="#222222"/>
</g>
</g>
<rect x="200.32" y="100.558" width="244.144" height="165.96" rx="2.63634" stroke="#F4F4F4" stroke-width="0.75324"/>
<rect x="199.943" y="281.96" width="244.897" height="36.1555" rx="3.01296" fill="#F9F9F9"/>
<path d="M216.213 300.038C216.213 299.368 217.517 298.91 218.221 298.029C219.025 297.025 219.025 294.681 219.025 294.681H210.99C210.99 294.681 210.99 297.025 211.794 298.029C212.498 298.91 213.802 299.368 213.802 300.038C213.802 300.708 212.498 301.166 211.794 302.046C210.99 303.051 210.99 305.394 210.99 305.394H219.025C219.025 305.394 219.025 303.051 218.221 302.046C217.517 301.166 216.213 300.708 216.213 300.038Z" fill="#FFE8B6"/>
<path d="M216.213 302.046C215.811 302.046 215.386 301.712 215.386 301.377C215.409 300.803 215.409 300.424 215.409 300.038C215.409 298.96 216.628 298.511 217.378 297.694H212.638C213.387 298.511 214.606 298.96 214.606 300.038C214.606 300.424 214.606 300.804 214.629 301.377C214.629 301.712 214.204 302.046 213.803 302.046C212.999 302.046 212.358 302.644 212.196 303.051C211.794 304.055 211.794 305.394 211.794 305.394H218.222C218.222 305.394 218.222 304.055 217.82 303.051C217.657 302.644 217.016 302.046 216.213 302.046Z" fill="#FFAC33"/>
<path d="M219.83 305.394C219.83 305.764 219.47 306.064 219.026 306.064H210.992C210.548 306.064 210.188 305.764 210.188 305.394C210.188 305.025 210.548 304.725 210.992 304.725H219.026C219.47 304.725 219.83 305.025 219.83 305.394ZM219.83 294.682C219.83 295.051 219.47 295.351 219.026 295.351H210.992C210.548 295.351 210.188 295.051 210.188 294.682C210.188 294.312 210.548 294.012 210.992 294.012H219.026C219.47 294.012 219.83 294.312 219.83 294.682Z" fill="#3B88C3"/>
<path d="M227.978 304.037H227.208L229.982 296.487H230.92L233.725 304.037H232.934L232.196 302.034H228.716L227.978 304.037ZM230.351 297.552L228.948 301.369H231.954L230.541 297.552C230.509 297.447 230.456 297.32 230.446 297.246C230.435 297.309 230.393 297.447 230.351 297.552ZM234.28 301.338C234.28 299.946 235.177 298.796 236.674 298.796C237.56 298.796 238.235 299.208 238.562 299.956L238.635 298.933H239.268V303.879C239.268 305.398 238.298 306.389 236.801 306.389C235.493 306.389 234.575 305.651 234.375 304.417H235.103C235.261 305.24 235.894 305.725 236.811 305.725C237.855 305.725 238.551 305.018 238.551 303.953V302.74C238.203 303.457 237.496 303.879 236.621 303.879C235.166 303.879 234.28 302.73 234.28 301.338ZM235.008 301.327C235.008 302.371 235.651 303.225 236.727 303.225C237.834 303.225 238.488 302.424 238.488 301.327C238.488 300.241 237.855 299.44 236.737 299.44C235.641 299.44 235.008 300.294 235.008 301.327ZM243.507 298.87V299.524H243.106C242.168 299.524 241.567 300.157 241.567 301.127V304.037H240.839V298.933H241.525L241.577 299.724C241.778 299.176 242.316 298.817 243.033 298.817C243.191 298.817 243.328 298.828 243.507 298.87ZM246.472 304.164C244.975 304.164 243.973 303.088 243.973 301.485C243.973 299.893 244.964 298.796 246.42 298.796C247.801 298.796 248.739 299.777 248.739 301.222V301.58H244.68C244.732 302.825 245.386 303.542 246.483 303.542C247.316 303.542 247.854 303.183 248.044 302.508H248.739C248.465 303.584 247.674 304.164 246.472 304.164ZM246.42 299.418C245.46 299.418 244.827 300.051 244.701 301.053H248.012C248.012 300.072 247.379 299.418 246.42 299.418ZM252.096 304.164C250.599 304.164 249.597 303.088 249.597 301.485C249.597 299.893 250.588 298.796 252.044 298.796C253.425 298.796 254.364 299.777 254.364 301.222V301.58H250.304C250.356 302.825 251.01 303.542 252.107 303.542C252.94 303.542 253.478 303.183 253.668 302.508H254.364C254.089 303.584 253.298 304.164 252.096 304.164ZM252.044 299.418C251.084 299.418 250.451 300.051 250.325 301.053H253.636C253.636 300.072 253.003 299.418 252.044 299.418ZM256.307 304.037H255.58V298.933H256.212L256.297 299.661C256.55 299.123 257.119 298.796 257.836 298.796C258.638 298.796 259.239 299.218 259.481 299.882C259.713 299.218 260.336 298.796 261.158 298.796C262.265 298.796 262.993 299.513 262.993 300.694V304.037H262.286V300.842C262.286 299.967 261.801 299.45 261.021 299.45C260.167 299.45 259.661 300.093 259.661 300.884V304.037H258.944V300.832C258.944 299.967 258.448 299.461 257.678 299.461C256.824 299.461 256.307 300.093 256.307 300.874V304.037ZM266.65 304.164C265.153 304.164 264.151 303.088 264.151 301.485C264.151 299.893 265.142 298.796 266.597 298.796C267.979 298.796 268.917 299.777 268.917 301.222V301.58H264.857C264.91 302.825 265.564 303.542 266.661 303.542C267.494 303.542 268.032 303.183 268.221 302.508H268.917C268.643 303.584 267.852 304.164 266.65 304.164ZM266.597 299.418C265.638 299.418 265.005 300.051 264.879 301.053H268.19C268.19 300.072 267.557 299.418 266.597 299.418ZM270.861 304.037H270.133V298.933H270.766L270.872 299.819C271.209 299.165 271.884 298.796 272.622 298.796C274.025 298.796 274.605 299.629 274.605 300.916V304.037H273.877V301.074C273.877 299.882 273.339 299.461 272.496 299.461C271.452 299.461 270.861 300.22 270.861 301.369V304.037ZM277.278 304.037H276.561V299.545H275.538V298.933H276.561V297.32H277.278V298.933H278.301V299.545H277.278V304.037ZM284.419 304.164C282.922 304.164 281.92 303.088 281.92 301.485C281.92 299.893 282.911 298.796 284.367 298.796C285.748 298.796 286.687 299.777 286.687 301.222V301.58H282.627C282.679 302.825 283.333 303.542 284.43 303.542C285.263 303.542 285.801 303.183 285.991 302.508H286.687C286.413 303.584 285.622 304.164 284.419 304.164ZM284.367 299.418C283.407 299.418 282.774 300.051 282.648 301.053H285.959C285.959 300.072 285.326 299.418 284.367 299.418ZM288.63 304.037H287.903V298.933H288.536L288.641 299.819C288.978 299.165 289.653 298.796 290.392 298.796C291.794 298.796 292.374 299.629 292.374 300.916V304.037H291.646V301.074C291.646 299.882 291.109 299.461 290.265 299.461C289.221 299.461 288.63 300.22 288.63 301.369V304.037ZM295.881 304.164C294.394 304.164 293.518 303.025 293.518 301.496C293.518 299.956 294.394 298.796 295.912 298.796C296.756 298.796 297.431 299.165 297.789 299.904V296.35H298.517V304.037H297.884L297.81 302.993C297.452 303.784 296.735 304.164 295.881 304.164ZM296.007 303.5C297.125 303.5 297.779 302.656 297.779 301.475C297.779 300.304 297.125 299.45 296.007 299.45C294.9 299.45 294.257 300.304 294.257 301.475C294.257 302.656 294.9 303.5 296.007 303.5ZM300.447 297.531C300.151 297.531 299.909 297.288 299.909 296.993C299.909 296.698 300.151 296.445 300.447 296.445C300.742 296.445 300.995 296.698 300.995 296.993C300.995 297.288 300.742 297.531 300.447 297.531ZM300.088 304.037V298.933H300.816V304.037H300.088ZM303.113 304.037H302.386V298.933H303.019L303.124 299.819C303.461 299.165 304.136 298.796 304.875 298.796C306.277 298.796 306.857 299.629 306.857 300.916V304.037H306.129V301.074C306.129 299.882 305.592 299.461 304.748 299.461C303.704 299.461 303.113 300.22 303.113 301.369V304.037ZM308.012 301.338C308.012 299.946 308.908 298.796 310.406 298.796C311.292 298.796 311.967 299.208 312.293 299.956L312.367 298.933H313V303.879C313 305.398 312.03 306.389 310.532 306.389C309.225 306.389 308.307 305.651 308.107 304.417H308.835C308.993 305.24 309.625 305.725 310.543 305.725C311.587 305.725 312.283 305.018 312.283 303.953V302.74C311.935 303.457 311.228 303.879 310.353 303.879C308.898 303.879 308.012 302.73 308.012 301.338ZM308.74 301.327C308.74 302.371 309.383 303.225 310.459 303.225C311.566 303.225 312.22 302.424 312.22 301.327C312.22 300.241 311.587 299.44 310.469 299.44C309.372 299.44 308.74 300.294 308.74 301.327ZM316.979 298.933H317.759V297.942C317.759 296.793 318.392 296.35 319.172 296.35C319.352 296.35 319.563 296.36 319.731 296.392V297.014H319.299C318.656 297.014 318.487 297.341 318.487 297.942V298.933H319.689V299.545H318.487V304.037H317.759V299.545H316.979V298.933ZM320.219 301.485C320.219 299.925 321.316 298.796 322.813 298.796C324.31 298.796 325.407 299.925 325.407 301.485C325.407 303.036 324.31 304.164 322.813 304.164C321.316 304.164 320.219 303.036 320.219 301.485ZM320.957 301.475C320.957 302.677 321.716 303.51 322.813 303.51C323.899 303.51 324.669 302.677 324.669 301.475C324.669 300.294 323.899 299.45 322.813 299.45C321.716 299.45 320.957 300.294 320.957 301.475ZM329.292 298.87V299.524H328.891C327.952 299.524 327.351 300.157 327.351 301.127V304.037H326.624V298.933H327.309L327.362 299.724C327.562 299.176 328.1 298.817 328.817 298.817C328.975 298.817 329.112 298.828 329.292 298.87Z" fill="#6F6F6F"/>
<path d="M338.161 304.027L333.015 304.037V303.246L335.472 301.127C336.706 300.062 337.054 299.545 337.054 298.733C337.054 297.773 336.505 297.204 335.588 297.204C334.649 297.204 334.038 297.889 334.017 298.976H332.983C333.015 297.341 334.048 296.276 335.598 296.276C337.128 296.276 338.108 297.204 338.108 298.67C338.108 299.756 337.57 300.526 336.221 301.696L334.639 303.067H338.161V304.027ZM339.144 301.918C339.144 301 339.682 300.262 340.525 299.956C339.808 299.65 339.418 299.049 339.418 298.28C339.418 297.088 340.441 296.276 341.959 296.276C343.457 296.276 344.469 297.088 344.469 298.29C344.469 299.07 344.068 299.672 343.351 299.956C344.206 300.23 344.754 300.99 344.754 301.928C344.754 303.268 343.636 304.164 341.949 304.164C340.251 304.164 339.144 303.268 339.144 301.918ZM340.367 298.343C340.367 299.092 340.989 299.577 341.938 299.577C342.898 299.577 343.499 299.102 343.499 298.364C343.499 297.636 342.898 297.172 341.938 297.172C340.989 297.172 340.367 297.636 340.367 298.343ZM340.156 301.844C340.156 302.698 340.863 303.246 341.949 303.246C343.024 303.246 343.731 302.698 343.731 301.844C343.731 301 343.035 300.462 341.938 300.462C340.852 300.462 340.156 301 340.156 301.844ZM350.4 304.037H349.409V299.714H348.397V298.881H349.409V297.267H350.4V298.881H351.413V299.714H350.4V304.037ZM354.529 304.164C353.01 304.164 351.966 303.067 351.966 301.464C351.966 299.851 352.989 298.733 354.486 298.733C355.952 298.733 356.912 299.745 356.912 301.274V301.644L352.926 301.654C352.999 302.74 353.569 303.341 354.55 303.341C355.319 303.341 355.826 303.025 355.994 302.434H356.922C356.669 303.542 355.805 304.164 354.529 304.164ZM354.486 299.566C353.622 299.566 353.073 300.083 352.947 300.99H355.921C355.921 300.136 355.362 299.566 354.486 299.566ZM359.063 304.037H358.072V298.881H358.968L359.074 299.672C359.4 299.081 360.054 298.733 360.782 298.733C362.142 298.733 362.764 299.566 362.764 300.884V304.037H361.773V301.106C361.773 300.062 361.288 299.64 360.529 299.64C359.601 299.64 359.063 300.304 359.063 301.306V304.037ZM365.698 304.164C364.591 304.164 363.937 303.542 363.937 302.603C363.937 301.654 364.644 301.064 365.856 300.969L367.48 300.842V300.694C367.48 299.83 366.964 299.524 366.268 299.524C365.434 299.524 364.96 299.893 364.96 300.515H364.095C364.095 299.44 364.981 298.733 366.31 298.733C367.586 298.733 368.45 299.408 368.45 300.8V304.037H367.607L367.501 303.204C367.238 303.795 366.531 304.164 365.698 304.164ZM365.983 303.394C366.921 303.394 367.491 302.782 367.491 301.812V301.538L366.173 301.644C365.297 301.728 364.939 302.065 364.939 302.572C364.939 303.12 365.34 303.394 365.983 303.394ZM370.867 304.037H369.876V298.881H370.772L370.878 299.672C371.205 299.081 371.858 298.733 372.586 298.733C373.946 298.733 374.569 299.566 374.569 300.884V304.037H373.577V301.106C373.577 300.062 373.092 299.64 372.333 299.64C371.405 299.64 370.867 300.304 370.867 301.306V304.037ZM377.45 304.037H376.458V299.714H375.446V298.881H376.458V297.267H377.45V298.881H378.462V299.714H377.45V304.037ZM378.982 302.54H379.932C379.932 303.067 380.332 303.384 380.986 303.384C381.682 303.384 382.083 303.099 382.083 302.624C382.083 302.276 381.914 302.065 381.376 301.928L380.469 301.717C379.552 301.496 379.12 301.042 379.12 300.283C379.12 299.334 379.921 298.733 381.06 298.733C382.188 298.733 382.926 299.366 382.947 300.346H381.998C381.977 299.83 381.629 299.503 381.028 299.503C380.406 299.503 380.058 299.777 380.058 300.252C380.058 300.6 380.311 300.832 380.817 300.958L381.724 301.18C382.599 301.39 383.032 301.791 383.032 302.561C383.032 303.542 382.188 304.164 380.965 304.164C379.752 304.164 378.982 303.521 378.982 302.54Z" fill="#222222"/>
<g clip-path="url(#clip7_482_7156)">
<path d="M426.568 296.717C426.324 296.962 426.324 297.357 426.568 297.602L429.004 300.037L426.568 302.473C426.324 302.718 426.324 303.113 426.568 303.358C426.813 303.603 427.209 303.603 427.453 303.358L430.335 300.477C430.579 300.232 430.579 299.836 430.335 299.592L427.453 296.711C427.215 296.472 426.813 296.472 426.568 296.717Z" fill="#6F6F6F"/>
</g>
</g>
</g>
<defs>
<filter id="filter0_d_482_7156" x="8" y="436" width="171" height="60" filterUnits="userSpaceOnUse" color-interpolation-filters="sRGB">
<feFlood flood-opacity="0" result="BackgroundImageFix"/>
<feColorMatrix in="SourceAlpha" type="matrix" values="0 0 0 0 0 0 0 0 0 0 0 0 0 0 0 0 0 0 127 0" result="hardAlpha"/>
<feOffset dy="4"/>
<feGaussianBlur stdDeviation="4"/>
<feComposite in2="hardAlpha" operator="out"/>
<feColorMatrix type="matrix" values="0 0 0 0 0.520329 0 0 0 0 0.520329 0 0 0 0 0.520329 0 0 0 0.25 0"/>
<feBlend mode="normal" in2="BackgroundImageFix" result="effect1_dropShadow_482_7156"/>
<feBlend mode="normal" in="SourceGraphic" in2="effect1_dropShadow_482_7156" result="shape"/>
</filter>
<filter id="filter1_d_482_7156" x="-258.026" y="41.4806" width="724.052" height="387.019" filterUnits="userSpaceOnUse" color-interpolation-filters="sRGB">
<feFlood flood-opacity="0" result="BackgroundImageFix"/>
<feColorMatrix in="SourceAlpha" type="matrix" values="0 0 0 0 0 0 0 0 0 0 0 0 0 0 0 0 0 0 127 0" result="hardAlpha"/>
<feOffset dy="1.50648"/>
<feGaussianBlur stdDeviation="3.01296"/>
<feComposite in2="hardAlpha" operator="out"/>
<feColorMatrix type="matrix" values="0 0 0 0 0.75026 0 0 0 0 0.75026 0 0 0 0 0.75026 0 0 0 0.2 0"/>
<feBlend mode="normal" in2="BackgroundImageFix" result="effect1_dropShadow_482_7156"/>
<feBlend mode="normal" in="SourceGraphic" in2="effect1_dropShadow_482_7156" result="shape"/>
</filter>
<clipPath id="clip0_482_7156">
<rect width="500" height="500" fill="white"/>
</clipPath>
<clipPath id="clip1_482_7156">
<rect x="438.909" y="64.0259" width="18.0778" height="18.0778" rx="9.03888" transform="rotate(90 438.909 64.0259)" fill="white"/>
</clipPath>
<clipPath id="clip2_482_7156">
<rect x="-207.558" y="100.181" width="376.62" height="271.166" fill="white"/>
</clipPath>
<clipPath id="clip3_482_7156">
<rect x="199.943" y="100.181" width="244.897" height="166.713" rx="3.01296" fill="white"/>
</clipPath>
<clipPath id="clip4_482_7156">
<rect x="208.982" y="210.596" width="53.0389" height="47.0648" rx="3.01296" fill="white"/>
</clipPath>
<clipPath id="clip5_482_7156">
<rect x="286.021" y="210.596" width="43.0389" height="47.0648" rx="3.01296" fill="white"/>
</clipPath>
<clipPath id="clip6_482_7156">
<rect x="353.061" y="210.596" width="40.0389" height="47.0648" rx="3.01296" fill="white"/>
</clipPath>
<clipPath id="clip7_482_7156">
<rect width="15.0648" height="15.0648" fill="white" transform="translate(420.737 292.505)"/>
</clipPath>
</defs>
</svg>
