<svg width="800" height="400" viewBox="0 0 800 400" fill="none" xmlns="http://www.w3.org/2000/svg">
<rect width="800" height="400" fill="#F6F6F6"/>
<g clip-path="url(#clip0_498_5897)">
<g filter="url(#filter0_d_498_5897)">
<g clip-path="url(#clip1_498_5897)">
<rect x="81.9805" y="103" width="139.421" height="193.64" rx="15.4912" fill="white"/>
<path d="M103.754 140.871H98.6939V147.491H96.8815V129.467H103.754C107.228 129.467 109.418 131.733 109.418 135.131C109.418 138.404 107.202 140.871 103.754 140.871ZM103.502 131.103H98.6939V139.234H103.401C106.019 139.234 107.53 137.573 107.53 135.106C107.53 132.614 105.994 131.103 103.502 131.103ZM118.461 135.156V136.717H117.505C115.264 136.717 113.83 138.227 113.83 140.543V147.491H112.093V135.307H113.729L113.855 137.195C114.333 135.886 115.617 135.03 117.329 135.03C117.706 135.03 118.033 135.056 118.461 135.156ZM119.573 141.399C119.573 137.674 122.191 134.98 125.766 134.98C129.341 134.98 131.959 137.674 131.959 141.399C131.959 145.1 129.341 147.793 125.766 147.793C122.191 147.793 119.573 145.1 119.573 141.399ZM121.335 141.374C121.335 144.244 123.148 146.233 125.766 146.233C128.359 146.233 130.196 144.244 130.196 141.374C130.196 138.555 128.359 136.541 125.766 136.541C123.148 136.541 121.335 138.555 121.335 141.374ZM134.862 152.803V135.307H136.373L136.549 137.774C137.405 135.886 139.117 134.98 141.156 134.98C144.68 134.98 146.795 137.674 146.795 141.349C146.795 145.024 144.756 147.793 141.156 147.793C139.092 147.793 137.455 146.912 136.599 145.15V152.803H134.862ZM136.625 141.399C136.625 144.194 138.185 146.233 140.854 146.233C143.497 146.233 145.032 144.194 145.032 141.399C145.032 138.58 143.497 136.566 140.854 136.566C138.185 136.566 136.625 138.58 136.625 141.399ZM154.799 147.793C151.225 147.793 148.833 145.226 148.833 141.399C148.833 137.598 151.2 134.98 154.673 134.98C157.971 134.98 160.212 137.321 160.212 140.77V141.626H150.52C150.646 144.596 152.206 146.308 154.824 146.308C156.813 146.308 158.097 145.452 158.55 143.841H160.212C159.557 146.409 157.669 147.793 154.799 147.793ZM154.673 136.465C152.383 136.465 150.872 137.976 150.57 140.367H158.475C158.475 138.026 156.964 136.465 154.673 136.465ZM169.483 135.156V136.717H168.527C166.286 136.717 164.851 138.227 164.851 140.543V147.491H163.114V135.307H164.751L164.877 137.195C165.355 135.886 166.639 135.03 168.351 135.03C168.728 135.03 169.055 135.056 169.483 135.156ZM175.204 147.491H173.492V136.767H171.051V135.307H173.492V131.456H175.204V135.307H177.646V136.767H175.204V147.491ZM180.89 131.959C180.185 131.959 179.606 131.38 179.606 130.676C179.606 129.971 180.185 129.367 180.89 129.367C181.594 129.367 182.199 129.971 182.199 130.676C182.199 131.38 181.594 131.959 180.89 131.959ZM180.034 147.491V135.307H181.771V147.491H180.034ZM190.629 147.793C187.054 147.793 184.663 145.226 184.663 141.399C184.663 137.598 187.029 134.98 190.503 134.98C193.801 134.98 196.041 137.321 196.041 140.77V141.626H186.349C186.475 144.596 188.036 146.308 190.654 146.308C192.643 146.308 193.926 145.452 194.38 143.841H196.041C195.387 146.409 193.499 147.793 190.629 147.793ZM190.503 136.465C188.212 136.465 186.702 137.976 186.4 140.367H194.304C194.304 138.026 192.794 136.465 190.503 136.465ZM197.912 144.068H199.573C199.573 145.477 200.631 146.358 202.342 146.358C204.23 146.358 205.338 145.553 205.338 144.244C205.338 143.237 204.835 142.658 203.4 142.306L201.31 141.777C199.196 141.248 198.164 140.141 198.164 138.479C198.164 136.339 199.951 134.98 202.569 134.98C205.137 134.98 206.798 136.39 206.874 138.655H205.187C205.137 137.246 204.155 136.415 202.519 136.415C200.807 136.415 199.85 137.145 199.85 138.454C199.85 139.385 200.505 140.04 201.839 140.367L203.928 140.896C206.043 141.424 206.999 142.406 206.999 144.168C206.999 146.358 205.137 147.793 202.368 147.793C199.624 147.793 197.912 146.333 197.912 144.068Z" fill="#6F6F6F"/>
<path d="M143.83 181.88C143.83 179.521 145.158 177.623 147.219 176.837C145.484 176.051 144.535 174.56 144.535 172.635C144.535 169.49 147.327 167.322 151.421 167.322C155.487 167.322 158.225 169.463 158.225 172.689C158.225 174.614 157.249 176.105 155.487 176.837C157.575 177.569 158.93 179.494 158.93 181.88C158.93 185.458 155.975 187.817 151.366 187.817C146.785 187.817 143.83 185.485 143.83 181.88ZM147.68 172.933C147.68 174.587 149.116 175.644 151.366 175.644C153.589 175.644 154.999 174.614 154.999 172.96C154.999 171.307 153.589 170.277 151.366 170.277C149.116 170.277 147.68 171.307 147.68 172.933ZM147.219 181.636C147.219 183.56 148.818 184.753 151.394 184.753C153.915 184.753 155.514 183.56 155.514 181.636C155.514 179.711 153.915 178.518 151.366 178.518C148.818 178.518 147.219 179.711 147.219 181.636Z" fill="#222222"/>
<path d="M154.574 306.317V236.328L179.338 222.88V292.878L154.574 306.317Z" fill="#9681CD"/>
<path d="M154.574 306.324V236.543L129.81 223.095V292.885L154.574 306.324Z" fill="#463A7C"/>
<path d="M154.533 209.502L179.326 222.997L154.533 236.342L129.758 222.997L154.533 209.502Z" fill="#F4F1FF"/>
<path d="M159.617 239.229L162.615 237.619V240.935L159.617 242.545V239.229Z" fill="#F4F1FF"/>
<path d="M159.077 238.906L159.614 239.243L159.614 242.528L159.062 242.17L159.077 238.906Z" fill="#463A7C"/>
<path d="M162.612 237.621L162.066 237.269L159.066 238.895L159.612 239.229L162.612 237.621Z" fill="#463A7C"/>
<path d="M159.617 260.541L162.615 258.931V262.247L159.617 263.856V260.541Z" fill="#F4F1FF"/>
<path d="M159.077 260.218L159.614 260.555L159.614 263.84L159.062 263.482L159.077 260.218Z" fill="#463A7C"/>
<path d="M162.612 258.932L162.066 258.581L159.066 260.207L159.612 260.541L162.612 258.932Z" fill="#463A7C"/>
<path d="M159.617 246.303L162.615 244.694V248.009L159.617 249.619V246.303Z" fill="#F4F1FF"/>
<path d="M159.077 245.989L159.614 246.326L159.614 249.611L159.062 249.253L159.077 245.989Z" fill="#463A7C"/>
<path d="M162.612 244.704L162.066 244.352L159.066 245.978L159.612 246.312L162.612 244.704Z" fill="#463A7C"/>
<path d="M159.617 253.391L162.615 251.782V255.097L159.617 256.707V253.391Z" fill="#F4F1FF"/>
<path d="M159.077 253.077L159.614 253.413L159.614 256.699L159.062 256.341L159.077 253.077Z" fill="#463A7C"/>
<path d="M162.612 251.791L162.066 251.44L159.066 253.066L159.612 253.4L162.612 251.791Z" fill="#463A7C"/>
<path d="M166.301 235.581L169.298 233.972V237.287L166.301 238.897V235.581Z" fill="#F4F1FF"/>
<path d="M165.761 235.271L166.298 235.608L166.298 238.893L165.746 238.535L165.761 235.271Z" fill="#463A7C"/>
<path d="M169.295 233.981L168.75 233.63L165.75 235.256L166.296 235.59L169.295 233.981Z" fill="#463A7C"/>
<path d="M166.301 256.879L169.298 255.269V258.585L166.301 260.194V256.879Z" fill="#F4F1FF"/>
<path d="M165.761 256.564L166.298 256.901L166.298 260.186L165.746 259.828L165.761 256.564Z" fill="#463A7C"/>
<path d="M169.295 255.279L168.75 254.927L165.75 256.553L166.296 256.887L169.295 255.279Z" fill="#463A7C"/>
<path d="M166.301 242.688L169.298 241.078V244.394L166.301 246.004V242.688Z" fill="#F4F1FF"/>
<path d="M165.761 242.374L166.298 242.71L166.298 245.995L165.746 245.638L165.761 242.374Z" fill="#463A7C"/>
<path d="M169.295 241.088L168.75 240.737L165.75 242.363L166.296 242.696L169.295 241.088Z" fill="#463A7C"/>
<path d="M166.301 249.762L169.298 248.153V251.468L166.301 253.078V249.762Z" fill="#F4F1FF"/>
<path d="M165.761 249.448L166.298 249.784L166.298 253.07L165.746 252.712L165.761 249.448Z" fill="#463A7C"/>
<path d="M169.295 248.162L168.75 247.811L165.75 249.437L166.296 249.771L169.295 248.162Z" fill="#463A7C"/>
<path d="M172.973 231.965L175.97 230.355V233.671L172.973 235.281V231.965Z" fill="#F4F1FF"/>
<path d="M172.433 231.651L172.97 231.987L172.97 235.272L172.418 234.915L172.433 231.651Z" fill="#463A7C"/>
<path d="M175.967 230.365L175.421 230.014L172.422 231.639L172.968 231.973L175.967 230.365Z" fill="#463A7C"/>
<path d="M172.973 253.29L175.97 251.68V254.996L172.973 256.606V253.29Z" fill="#F4F1FF"/>
<path d="M172.433 252.963L172.97 253.299L172.97 256.585L172.418 256.227L172.433 252.963Z" fill="#463A7C"/>
<path d="M175.967 251.677L175.421 251.326L172.422 252.952L172.968 253.286L175.967 251.677Z" fill="#463A7C"/>
<path d="M172.973 239.048L175.97 237.439V240.754L172.973 242.364V239.048Z" fill="#F4F1FF"/>
<path d="M172.433 238.734L172.97 239.071L172.97 242.356L172.418 241.998L172.433 238.734Z" fill="#463A7C"/>
<path d="M175.967 237.448L175.421 237.097L172.422 238.723L172.968 239.057L175.967 237.448Z" fill="#463A7C"/>
<path d="M172.973 246.132L175.97 244.522V247.838L172.973 249.447V246.132Z" fill="#F4F1FF"/>
<path d="M172.433 245.817L172.97 246.154L172.97 249.439L172.418 249.081L172.433 245.817Z" fill="#463A7C"/>
<path d="M175.967 244.532L175.421 244.18L172.422 245.806L172.968 246.14L175.967 244.532Z" fill="#463A7C"/>
<path d="M159.617 268.168L162.615 266.558V269.874L159.617 271.483V268.168Z" fill="#F4F1FF"/>
<path d="M159.077 267.841L159.614 268.177L159.614 271.462L159.062 271.105L159.077 267.841Z" fill="#463A7C"/>
<path d="M162.612 266.555L162.066 266.204L159.066 267.83L159.612 268.164L162.612 266.555Z" fill="#463A7C"/>
<path d="M159.617 275.233L162.615 273.624V276.939L159.617 278.549V275.233Z" fill="#F4F1FF"/>
<path d="M159.077 274.919L159.614 275.256L159.614 278.541L159.062 278.183L159.077 274.919Z" fill="#463A7C"/>
<path d="M162.612 273.633L162.066 273.282L159.066 274.908L159.612 275.242L162.612 273.633Z" fill="#463A7C"/>
<path d="M159.617 282.325L162.615 280.715V284.031L159.617 285.641V282.325Z" fill="#F4F1FF"/>
<path d="M159.077 281.998L159.614 282.334L159.614 285.62L159.062 285.262L159.077 281.998Z" fill="#463A7C"/>
<path d="M162.612 280.712L162.066 280.361L159.066 281.987L159.612 282.321L162.612 280.712Z" fill="#463A7C"/>
<path d="M166.316 264.517L169.314 262.907V266.223L166.316 267.832V264.517Z" fill="#F4F1FF"/>
<path d="M165.777 264.202L166.314 264.538L166.314 267.824L165.762 267.466L165.777 264.202Z" fill="#463A7C"/>
<path d="M169.311 262.916L168.765 262.565L165.766 264.191L166.311 264.525L169.311 262.916Z" fill="#463A7C"/>
<path d="M166.301 271.595L169.298 269.985V273.301L166.301 274.91V271.595Z" fill="#F4F1FF"/>
<path d="M165.761 271.28L166.298 271.617L166.298 274.902L165.746 274.544L165.761 271.28Z" fill="#463A7C"/>
<path d="M169.295 269.995L168.75 269.643L165.75 271.269L166.296 271.603L169.295 269.995Z" fill="#463A7C"/>
<path d="M166.316 278.673L169.314 277.064V280.379L166.316 281.989V278.673Z" fill="#F4F1FF"/>
<path d="M165.777 278.359L166.314 278.696L166.314 281.981L165.762 281.623L165.777 278.359Z" fill="#463A7C"/>
<path d="M169.311 277.073L168.765 276.722L165.766 278.348L166.311 278.682L169.311 277.073Z" fill="#463A7C"/>
<path d="M172.973 260.899L175.97 259.29V262.605L172.973 264.215V260.899Z" fill="#F4F1FF"/>
<path d="M172.433 260.572L172.97 260.909L172.97 264.194L172.418 263.836L172.433 260.572Z" fill="#463A7C"/>
<path d="M175.967 259.287L175.421 258.935L172.422 260.561L172.968 260.895L175.967 259.287Z" fill="#463A7C"/>
<path d="M172.973 267.965L175.97 266.355V269.671L172.973 271.28V267.965Z" fill="#F4F1FF"/>
<path d="M172.433 267.65L172.97 267.987L172.97 271.272L172.418 270.914L172.433 267.65Z" fill="#463A7C"/>
<path d="M175.967 266.365L175.421 266.013L172.422 267.639L172.968 267.973L175.967 266.365Z" fill="#463A7C"/>
<path d="M172.973 275.065L175.97 273.455V276.771L172.973 278.381V275.065Z" fill="#F4F1FF"/>
<path d="M172.433 274.738L172.97 275.074L172.97 278.36L172.418 278.002L172.433 274.738Z" fill="#463A7C"/>
<path d="M175.967 273.452L175.421 273.101L172.422 274.727L172.968 275.061L175.967 273.452Z" fill="#463A7C"/>
<path d="M150.07 239.551L147.073 237.941V241.257L150.07 242.867V239.551Z" fill="#E4DEFF"/>
<path d="M150.61 239.236L150.073 239.573L150.073 242.858L150.625 242.5L150.61 239.236Z" fill="#463A7C"/>
<path d="M147.076 237.951L147.622 237.6L150.621 239.225L150.075 239.559L147.076 237.951Z" fill="#463A7C"/>
<path d="M150.07 260.885L147.073 259.276V262.591L150.07 264.201V260.885Z" fill="#E4DEFF"/>
<path d="M150.61 260.562L150.073 260.899L150.073 264.184L150.625 263.826L150.61 260.562Z" fill="#463A7C"/>
<path d="M147.076 259.277L147.622 258.926L150.621 260.551L150.075 260.885L147.076 259.277Z" fill="#463A7C"/>
<path d="M150.07 246.644L147.073 245.035V248.35L150.07 249.96V246.644Z" fill="#E4DEFF"/>
<path d="M150.61 246.33L150.073 246.667L150.073 249.952L150.625 249.594L150.61 246.33Z" fill="#463A7C"/>
<path d="M147.076 245.044L147.622 244.693L150.621 246.319L150.075 246.653L147.076 245.044Z" fill="#463A7C"/>
<path d="M150.07 253.717L147.073 252.108V255.423L150.07 257.033V253.717Z" fill="#E4DEFF"/>
<path d="M150.61 253.403L150.073 253.739L150.073 257.025L150.625 256.667L150.61 253.403Z" fill="#463A7C"/>
<path d="M147.076 252.117L147.622 251.766L150.621 253.392L150.075 253.726L147.076 252.117Z" fill="#463A7C"/>
<path d="M143.395 235.922L140.397 234.312V237.628L143.395 239.237V235.922Z" fill="#E4DEFF"/>
<path d="M143.934 235.607L143.397 235.944L143.397 239.229L143.949 238.871L143.934 235.607Z" fill="#463A7C"/>
<path d="M140.4 234.322L140.946 233.97L143.945 235.596L143.4 235.93L140.4 234.322Z" fill="#463A7C"/>
<path d="M143.395 257.233L140.397 255.624V258.939L143.395 260.549V257.233Z" fill="#E4DEFF"/>
<path d="M143.934 256.919L143.397 257.255L143.397 260.541L143.949 260.183L143.934 256.919Z" fill="#463A7C"/>
<path d="M140.4 255.633L140.946 255.282L143.945 256.908L143.4 257.242L140.4 255.633Z" fill="#463A7C"/>
<path d="M143.395 243.005L140.397 241.395V244.711L143.395 246.32V243.005Z" fill="#E4DEFF"/>
<path d="M143.934 242.69L143.397 243.027L143.397 246.312L143.949 245.954L143.934 242.69Z" fill="#463A7C"/>
<path d="M140.4 241.405L140.946 241.053L143.945 242.679L143.4 243.013L140.4 241.405Z" fill="#463A7C"/>
<path d="M143.395 250.101L140.397 248.491V251.807L143.395 253.417V250.101Z" fill="#E4DEFF"/>
<path d="M143.934 249.778L143.397 250.115L143.397 253.4L143.949 253.042L143.934 249.778Z" fill="#463A7C"/>
<path d="M140.4 248.492L140.946 248.141L143.945 249.767L143.4 250.101L140.4 248.492Z" fill="#463A7C"/>
<path d="M136.719 232.292L133.721 230.682V233.998L136.719 235.607V232.292Z" fill="#E4DEFF"/>
<path d="M137.259 231.977L136.722 232.314L136.722 235.599L137.273 235.241L137.259 231.977Z" fill="#463A7C"/>
<path d="M133.724 230.692L134.27 230.341L137.27 231.966L136.724 232.3L133.724 230.692Z" fill="#463A7C"/>
<path d="M136.719 253.608L133.721 251.998V255.314L136.719 256.923V253.608Z" fill="#E4DEFF"/>
<path d="M137.259 253.293L136.722 253.63L136.722 256.915L137.273 256.557L137.259 253.293Z" fill="#463A7C"/>
<path d="M133.724 252.008L134.27 251.656L137.27 253.282L136.724 253.616L133.724 252.008Z" fill="#463A7C"/>
<path d="M136.719 239.378L133.721 237.768V241.084L136.719 242.694V239.378Z" fill="#E4DEFF"/>
<path d="M137.259 239.055L136.722 239.392L136.722 242.677L137.273 242.319L137.259 239.055Z" fill="#463A7C"/>
<path d="M133.724 237.77L134.27 237.418L137.27 239.044L136.724 239.378L133.724 237.77Z" fill="#463A7C"/>
<path d="M136.719 246.468L133.721 244.858V248.174L136.719 249.783V246.468Z" fill="#E4DEFF"/>
<path d="M137.259 246.158L136.722 246.494L136.722 249.779L137.273 249.422L137.259 246.158Z" fill="#463A7C"/>
<path d="M133.724 244.868L134.27 244.516L137.27 246.142L136.724 246.476L133.724 244.868Z" fill="#463A7C"/>
<path d="M150.07 267.794L147.073 266.184V269.5L150.07 271.109V267.794Z" fill="#E4DEFF"/>
<path d="M150.61 267.479L150.073 267.816L150.073 271.101L150.625 270.743L150.61 267.479Z" fill="#463A7C"/>
<path d="M147.076 266.194L147.622 265.842L150.621 267.468L150.075 267.802L147.076 266.194Z" fill="#463A7C"/>
<path d="M150.07 289.11L147.073 287.5V290.816L150.07 292.426V289.11Z" fill="#E4DEFF"/>
<path d="M150.61 288.796L150.073 289.132L150.073 292.417L150.625 292.06L150.61 288.796Z" fill="#463A7C"/>
<path d="M147.076 287.51L147.622 287.159L150.621 288.785L150.075 289.118L147.076 287.51Z" fill="#463A7C"/>
<path d="M150.07 274.877L147.073 273.268V276.583L150.07 278.193V274.877Z" fill="#E4DEFF"/>
<path d="M150.61 274.563L150.073 274.899L150.073 278.185L150.625 277.827L150.61 274.563Z" fill="#463A7C"/>
<path d="M147.076 273.277L147.622 272.926L150.621 274.552L150.075 274.886L147.076 273.277Z" fill="#463A7C"/>
<path d="M150.07 281.955L147.073 280.345V283.661L150.07 285.271V281.955Z" fill="#E4DEFF"/>
<path d="M150.61 281.641L150.073 281.977L150.073 285.262L150.625 284.905L150.61 281.641Z" fill="#463A7C"/>
<path d="M147.076 280.355L147.622 280.004L150.621 281.629L150.075 281.963L147.076 280.355Z" fill="#463A7C"/>
<path d="M143.395 264.164L140.397 262.554V265.87L143.395 267.479V264.164Z" fill="#E4DEFF"/>
<path d="M143.934 263.849L143.397 264.186L143.397 267.471L143.949 267.113L143.934 263.849Z" fill="#463A7C"/>
<path d="M140.4 262.564L140.946 262.213L143.945 263.838L143.4 264.172L140.4 262.564Z" fill="#463A7C"/>
<path d="M143.395 285.485L140.397 283.875V287.191L143.395 288.8V285.485Z" fill="#E4DEFF"/>
<path d="M143.934 285.17L143.397 285.507L143.397 288.792L143.949 288.434L143.934 285.17Z" fill="#463A7C"/>
<path d="M140.4 283.885L140.946 283.533L143.945 285.159L143.4 285.493L140.4 283.885Z" fill="#463A7C"/>
<path d="M143.395 271.247L140.397 269.637V272.953L143.395 274.563V271.247Z" fill="#E4DEFF"/>
<path d="M143.934 270.933L143.397 271.269L143.397 274.554L143.949 274.197L143.934 270.933Z" fill="#463A7C"/>
<path d="M140.4 269.647L140.946 269.296L143.945 270.922L143.4 271.255L140.4 269.647Z" fill="#463A7C"/>
<path d="M143.395 278.33L140.397 276.721V280.036L143.395 281.646V278.33Z" fill="#E4DEFF"/>
<path d="M143.934 278.02L143.397 278.357L143.397 281.642L143.949 281.284L143.934 278.02Z" fill="#463A7C"/>
<path d="M140.4 276.73L140.946 276.379L143.945 278.005L143.4 278.338L140.4 276.73Z" fill="#463A7C"/>
<path d="M136.719 260.529L133.721 258.92V262.235L136.719 263.845V260.529Z" fill="#E4DEFF"/>
<path d="M137.259 260.215L136.722 260.552L136.722 263.837L137.273 263.479L137.259 260.215Z" fill="#463A7C"/>
<path d="M133.724 258.929L134.27 258.578L137.27 260.204L136.724 260.538L133.724 258.929Z" fill="#463A7C"/>
<path d="M136.719 281.85L133.721 280.24V283.556L136.719 285.165V281.85Z" fill="#E4DEFF"/>
<path d="M137.259 281.535L136.722 281.872L136.722 285.157L137.273 284.799L137.259 281.535Z" fill="#463A7C"/>
<path d="M133.724 280.25L134.27 279.899L137.27 281.524L136.724 281.858L133.724 280.25Z" fill="#463A7C"/>
<path d="M136.719 267.613L133.721 266.003V269.319L136.719 270.928V267.613Z" fill="#E4DEFF"/>
<path d="M137.259 267.302L136.722 267.639L136.722 270.924L137.273 270.567L137.259 267.302Z" fill="#463A7C"/>
<path d="M133.724 266.013L134.27 265.661L137.27 267.287L136.724 267.621L133.724 266.013Z" fill="#463A7C"/>
<path d="M136.719 274.696L133.721 273.086V276.402L136.719 278.012V274.696Z" fill="#E4DEFF"/>
<path d="M137.259 274.381L136.722 274.718L136.722 278.003L137.273 277.645L137.259 274.381Z" fill="#463A7C"/>
<path d="M133.724 273.096L134.27 272.745L137.27 274.37L136.724 274.704L133.724 273.096Z" fill="#463A7C"/>
<path d="M165.449 289.673L171.249 286.558V298.652L165.449 301.766V289.673Z" fill="#F4F1FF"/>
<path d="M164.396 289.06L165.435 289.711V301.764L164.367 301.072L164.396 289.06Z" fill="#463A7C"/>
<path d="M171.246 286.571L170.191 285.892L164.387 289.038L165.443 289.684L171.246 286.571Z" fill="#463A7C"/>
<path d="M191.898 314.061V255.27L212.7 243.975V302.772L191.898 314.061Z" fill="#9681CD"/>
<path d="M191.898 314.068V255.451L171.097 244.155V302.779L191.898 314.068Z" fill="#463A7C"/>
<path d="M191.862 232.739L212.688 244.075L191.862 255.284L171.051 244.075L191.862 232.739Z" fill="#F4F1FF"/>
<path d="M196.133 257.704L198.651 256.352V259.137L196.133 260.489V257.704Z" fill="#F4F1FF"/>
<path d="M195.684 257.437L196.135 257.72L196.135 260.479L195.672 260.179L195.684 257.437Z" fill="#463A7C"/>
<path d="M198.654 256.356L198.195 256.061L195.676 257.426L196.134 257.707L198.654 256.356Z" fill="#463A7C"/>
<path d="M196.133 275.614L198.651 274.261V277.047L196.133 278.399V275.614Z" fill="#F4F1FF"/>
<path d="M195.684 275.343L196.135 275.626L196.135 278.385L195.672 278.085L195.684 275.343Z" fill="#463A7C"/>
<path d="M198.654 274.261L198.195 273.966L195.676 275.332L196.134 275.612L198.654 274.261Z" fill="#463A7C"/>
<path d="M196.133 263.65L198.651 262.298V265.083L196.133 266.436V263.65Z" fill="#F4F1FF"/>
<path d="M195.684 263.387L196.135 263.67L196.135 266.429L195.672 266.129L195.684 263.387Z" fill="#463A7C"/>
<path d="M198.654 262.306L198.195 262.01L195.676 263.376L196.134 263.657L198.654 262.306Z" fill="#463A7C"/>
<path d="M196.133 269.605L198.651 268.253V271.038L196.133 272.391V269.605Z" fill="#F4F1FF"/>
<path d="M195.684 269.342L196.135 269.625L196.135 272.384L195.672 272.084L195.684 269.342Z" fill="#463A7C"/>
<path d="M198.654 268.261L198.195 267.965L195.676 269.331L196.134 269.612L198.654 268.261Z" fill="#463A7C"/>
<path d="M201.75 254.648L204.268 253.296V256.081L201.75 257.433V254.648Z" fill="#F4F1FF"/>
<path d="M201.302 254.389L201.753 254.671L201.753 257.431L201.289 257.13L201.302 254.389Z" fill="#463A7C"/>
<path d="M204.271 253.304L203.813 253.008L201.293 254.374L201.751 254.655L204.271 253.304Z" fill="#463A7C"/>
<path d="M201.75 272.533L204.268 271.181V273.966L201.75 275.318V272.533Z" fill="#F4F1FF"/>
<path d="M201.302 272.27L201.753 272.553L201.753 275.312L201.289 275.012L201.302 272.27Z" fill="#463A7C"/>
<path d="M204.271 271.189L203.813 270.893L201.293 272.259L201.751 272.54L204.271 271.189Z" fill="#463A7C"/>
<path d="M201.75 260.614L204.268 259.262V262.047L201.75 263.399V260.614Z" fill="#F4F1FF"/>
<path d="M201.302 260.35L201.753 260.633L201.753 263.393L201.289 263.092L201.302 260.35Z" fill="#463A7C"/>
<path d="M204.271 259.269L203.813 258.974L201.293 260.34L201.751 260.62L204.271 259.269Z" fill="#463A7C"/>
<path d="M201.75 266.557L204.268 265.205V267.99L201.75 269.342V266.557Z" fill="#F4F1FF"/>
<path d="M201.302 266.294L201.753 266.577L201.753 269.336L201.289 269.036L201.302 266.294Z" fill="#463A7C"/>
<path d="M204.271 265.212L203.813 264.917L201.293 266.283L201.751 266.564L204.271 265.212Z" fill="#463A7C"/>
<path d="M207.348 251.605L209.866 250.253V253.038L207.348 254.39V251.605Z" fill="#F4F1FF"/>
<path d="M206.899 251.342L207.35 251.624L207.35 254.384L206.887 254.083L206.899 251.342Z" fill="#463A7C"/>
<path d="M209.869 250.26L209.41 249.965L206.891 251.331L207.349 251.611L209.869 250.26Z" fill="#463A7C"/>
<path d="M207.352 269.518L209.869 268.166V270.951L207.352 272.303V269.518Z" fill="#F4F1FF"/>
<path d="M206.899 269.247L207.35 269.53L207.35 272.29L206.887 271.989L206.899 269.247Z" fill="#463A7C"/>
<path d="M209.869 268.166L209.41 267.871L206.891 269.237L207.349 269.517L209.869 268.166Z" fill="#463A7C"/>
<path d="M207.352 257.555L209.869 256.203V258.988L207.352 260.34V257.555Z" fill="#F4F1FF"/>
<path d="M206.899 257.292L207.35 257.575L207.35 260.334L206.887 260.034L206.899 257.292Z" fill="#463A7C"/>
<path d="M209.869 256.21L209.41 255.915L206.891 257.281L207.349 257.561L209.869 256.21Z" fill="#463A7C"/>
<path d="M207.348 263.507L209.866 262.154V264.94L207.348 266.292V263.507Z" fill="#F4F1FF"/>
<path d="M206.899 263.243L207.35 263.526L207.35 266.285L206.887 265.985L206.899 263.243Z" fill="#463A7C"/>
<path d="M209.869 262.162L209.41 261.867L206.891 263.232L207.349 263.513L209.869 262.162Z" fill="#463A7C"/>
<path d="M196.133 282.013L198.651 280.661V283.446L196.133 284.798V282.013Z" fill="#F4F1FF"/>
<path d="M195.684 281.742L196.135 282.025L196.135 284.785L195.672 284.484L195.684 281.742Z" fill="#463A7C"/>
<path d="M198.654 280.661L198.195 280.366L195.676 281.731L196.134 282.012L198.654 280.661Z" fill="#463A7C"/>
<path d="M196.133 287.953L198.651 286.601V289.386L196.133 290.738V287.953Z" fill="#F4F1FF"/>
<path d="M195.684 287.69L196.135 287.973L196.135 290.732L195.672 290.432L195.684 287.69Z" fill="#463A7C"/>
<path d="M198.654 286.608L198.195 286.313L195.676 287.679L196.134 287.96L198.654 286.608Z" fill="#463A7C"/>
<path d="M196.133 293.904L198.651 292.552V295.337L196.133 296.689V293.904Z" fill="#F4F1FF"/>
<path d="M195.684 293.633L196.135 293.916L196.135 296.676L195.672 296.375L195.684 293.633Z" fill="#463A7C"/>
<path d="M198.654 292.552L198.195 292.257L195.676 293.623L196.134 293.903L198.654 292.552Z" fill="#463A7C"/>
<path d="M201.75 278.952L204.268 277.6V280.385L201.75 281.737V278.952Z" fill="#F4F1FF"/>
<path d="M201.302 278.688L201.753 278.971L201.753 281.73L201.289 281.43L201.302 278.688Z" fill="#463A7C"/>
<path d="M204.271 277.607L203.813 277.312L201.293 278.677L201.751 278.958L204.271 277.607Z" fill="#463A7C"/>
<path d="M201.75 284.899L204.268 283.547V286.332L201.75 287.684V284.899Z" fill="#F4F1FF"/>
<path d="M201.302 284.636L201.753 284.918L201.753 287.678L201.289 287.377L201.302 284.636Z" fill="#463A7C"/>
<path d="M204.271 283.554L203.813 283.259L201.293 284.625L201.751 284.905L204.271 283.554Z" fill="#463A7C"/>
<path d="M201.75 290.842L204.268 289.49V292.275L201.75 293.627V290.842Z" fill="#F4F1FF"/>
<path d="M201.302 290.579L201.753 290.862L201.753 293.621L201.289 293.321L201.302 290.579Z" fill="#463A7C"/>
<path d="M204.271 289.497L203.813 289.202L201.293 290.568L201.751 290.848L204.271 289.497Z" fill="#463A7C"/>
<path d="M207.348 275.908L209.866 274.556V277.341L207.348 278.693V275.908Z" fill="#F4F1FF"/>
<path d="M206.899 275.637L207.35 275.92L207.35 278.679L206.887 278.379L206.899 275.637Z" fill="#463A7C"/>
<path d="M209.869 274.556L209.41 274.26L206.891 275.626L207.349 275.907L209.869 274.556Z" fill="#463A7C"/>
<path d="M207.348 281.851L209.866 280.499V283.284L207.348 284.636V281.851Z" fill="#F4F1FF"/>
<path d="M206.899 281.588L207.35 281.87L207.35 284.63L206.887 284.329L206.899 281.588Z" fill="#463A7C"/>
<path d="M209.869 280.506L209.41 280.211L206.891 281.577L207.349 281.857L209.869 280.506Z" fill="#463A7C"/>
<path d="M207.348 287.806L209.866 286.454V289.239L207.348 290.591V287.806Z" fill="#F4F1FF"/>
<path d="M206.899 287.535L207.35 287.818L207.35 290.577L206.887 290.277L206.899 287.535Z" fill="#463A7C"/>
<path d="M209.869 286.454L209.41 286.159L206.891 287.524L207.349 287.805L209.869 286.454Z" fill="#463A7C"/>
<path d="M188.113 257.981L185.595 256.629V259.414L188.113 260.766V257.981Z" fill="#E4DEFF"/>
<path d="M188.562 257.718L188.111 258.001L188.111 260.76L188.574 260.46L188.562 257.718Z" fill="#463A7C"/>
<path d="M185.592 256.637L186.051 256.341L188.57 257.707L188.112 257.988L185.592 256.637Z" fill="#463A7C"/>
<path d="M188.113 275.895L185.595 274.543V277.328L188.113 278.681V275.895Z" fill="#E4DEFF"/>
<path d="M188.562 275.628L188.111 275.911L188.111 278.671L188.574 278.37L188.562 275.628Z" fill="#463A7C"/>
<path d="M185.592 274.547L186.051 274.252L188.57 275.618L188.112 275.898L185.592 274.547Z" fill="#463A7C"/>
<path d="M188.113 263.94L185.595 262.588V265.373L188.113 266.725V263.94Z" fill="#E4DEFF"/>
<path d="M188.562 263.677L188.111 263.959L188.111 266.719L188.574 266.418L188.562 263.677Z" fill="#463A7C"/>
<path d="M185.592 262.595L186.051 262.3L188.57 263.666L188.112 263.946L185.592 262.595Z" fill="#463A7C"/>
<path d="M188.113 269.879L185.595 268.527V271.312L188.113 272.665V269.879Z" fill="#E4DEFF"/>
<path d="M188.562 269.616L188.111 269.899L188.111 272.658L188.574 272.358L188.562 269.616Z" fill="#463A7C"/>
<path d="M185.592 268.535L186.051 268.24L188.57 269.605L188.112 269.886L185.592 268.535Z" fill="#463A7C"/>
<path d="M182.512 254.934L179.994 253.582V256.367L182.512 257.719V254.934Z" fill="#E4DEFF"/>
<path d="M182.96 254.671L182.509 254.953L182.509 257.713L182.973 257.412L182.96 254.671Z" fill="#463A7C"/>
<path d="M179.991 253.589L180.449 253.294L182.969 254.66L182.51 254.94L179.991 253.589Z" fill="#463A7C"/>
<path d="M182.512 272.837L179.994 271.485V274.27L182.512 275.622V272.837Z" fill="#E4DEFF"/>
<path d="M182.96 272.574L182.509 272.856L182.509 275.616L182.973 275.316L182.96 272.574Z" fill="#463A7C"/>
<path d="M179.991 271.492L180.449 271.197L182.969 272.563L182.51 272.843L179.991 271.492Z" fill="#463A7C"/>
<path d="M182.512 260.881L179.994 259.529V262.314L182.512 263.667V260.881Z" fill="#E4DEFF"/>
<path d="M182.96 260.618L182.509 260.901L182.509 263.66L182.973 263.36L182.96 260.618Z" fill="#463A7C"/>
<path d="M179.991 259.537L180.449 259.241L182.969 260.607L182.51 260.888L179.991 259.537Z" fill="#463A7C"/>
<path d="M182.512 266.836L179.994 265.484V268.269L182.512 269.621V266.836Z" fill="#E4DEFF"/>
<path d="M182.96 266.569L182.509 266.852L182.509 269.611L182.973 269.311L182.96 266.569Z" fill="#463A7C"/>
<path d="M179.991 265.488L180.449 265.193L182.969 266.558L182.51 266.839L179.991 265.488Z" fill="#463A7C"/>
<path d="M176.898 251.88L174.381 250.528V253.313L176.898 254.665V251.88Z" fill="#E4DEFF"/>
<path d="M177.347 251.617L176.896 251.899L176.896 254.659L177.359 254.358L177.347 251.617Z" fill="#463A7C"/>
<path d="M174.377 250.535L174.836 250.24L177.355 251.606L176.897 251.886L174.377 250.535Z" fill="#463A7C"/>
<path d="M176.898 269.783L174.381 268.431V271.216L176.898 272.568V269.783Z" fill="#E4DEFF"/>
<path d="M177.347 269.519L176.896 269.802L176.896 272.562L177.359 272.261L177.347 269.519Z" fill="#463A7C"/>
<path d="M174.377 268.438L174.836 268.143L177.355 269.509L176.897 269.789L174.377 268.438Z" fill="#463A7C"/>
<path d="M176.898 257.83L174.381 256.478V259.264L176.898 260.616V257.83Z" fill="#E4DEFF"/>
<path d="M177.347 257.563L176.896 257.846L176.896 260.606L177.359 260.305L177.347 257.563Z" fill="#463A7C"/>
<path d="M174.377 256.482L174.836 256.187L177.355 257.553L176.897 257.833L174.377 256.482Z" fill="#463A7C"/>
<path d="M176.898 263.788L174.381 262.436V265.222L176.898 266.574V263.788Z" fill="#E4DEFF"/>
<path d="M177.347 263.529L176.896 263.812L176.896 266.571L177.359 266.271L177.347 263.529Z" fill="#463A7C"/>
<path d="M174.377 262.444L174.836 262.149L177.355 263.514L176.897 263.795L174.377 262.444Z" fill="#463A7C"/>
<path d="M188.113 281.703L185.595 280.351V283.136L188.113 284.489V281.703Z" fill="#E4DEFF"/>
<path d="M188.562 281.44L188.111 281.723L188.111 284.482L188.574 284.182L188.562 281.44Z" fill="#463A7C"/>
<path d="M185.592 280.359L186.051 280.063L188.57 281.429L188.112 281.71L185.592 280.359Z" fill="#463A7C"/>
<path d="M188.113 287.658L185.595 286.306V289.091L188.113 290.443V287.658Z" fill="#E4DEFF"/>
<path d="M188.562 287.394L188.111 287.677L188.111 290.437L188.574 290.136L188.562 287.394Z" fill="#463A7C"/>
<path d="M185.592 286.313L186.051 286.018L188.57 287.383L188.112 287.664L185.592 286.313Z" fill="#463A7C"/>
<path d="M188.113 293.608L185.595 292.256V295.041L188.113 296.394V293.608Z" fill="#E4DEFF"/>
<path d="M188.562 293.345L188.111 293.628L188.111 296.387L188.574 296.087L188.562 293.345Z" fill="#463A7C"/>
<path d="M185.592 292.264L186.051 291.969L188.57 293.334L188.112 293.615L185.592 292.264Z" fill="#463A7C"/>
<path d="M182.512 278.662L179.994 277.31V280.095L182.512 281.448V278.662Z" fill="#E4DEFF"/>
<path d="M182.96 278.399L182.509 278.682L182.509 281.441L182.973 281.141L182.96 278.399Z" fill="#463A7C"/>
<path d="M179.991 277.318L180.449 277.022L182.969 278.388L182.51 278.669L179.991 277.318Z" fill="#463A7C"/>
<path d="M182.512 296.57L179.994 295.218V298.003L182.512 299.355V296.57Z" fill="#E4DEFF"/>
<path d="M182.96 296.307L182.509 296.589L182.509 299.349L182.973 299.048L182.96 296.307Z" fill="#463A7C"/>
<path d="M179.991 295.225L180.449 294.93L182.969 296.296L182.51 296.576L179.991 295.225Z" fill="#463A7C"/>
<path d="M182.512 284.61L179.994 283.258V286.043L182.512 287.395V284.61Z" fill="#E4DEFF"/>
<path d="M182.96 284.347L182.509 284.629L182.509 287.389L182.973 287.088L182.96 284.347Z" fill="#463A7C"/>
<path d="M179.991 283.265L180.449 282.97L182.969 284.336L182.51 284.616L179.991 283.265Z" fill="#463A7C"/>
<path d="M182.512 290.557L179.994 289.205V291.99L182.512 293.342V290.557Z" fill="#E4DEFF"/>
<path d="M182.96 290.298L182.509 290.58L182.509 293.34L182.973 293.039L182.96 290.298Z" fill="#463A7C"/>
<path d="M179.991 289.212L180.449 288.917L182.969 290.283L182.51 290.564L179.991 289.212Z" fill="#463A7C"/>
<path d="M176.898 275.608L174.381 274.256V277.041L176.898 278.394V275.608Z" fill="#E4DEFF"/>
<path d="M177.347 275.345L176.896 275.628L176.896 278.387L177.359 278.087L177.347 275.345Z" fill="#463A7C"/>
<path d="M174.377 274.264L174.836 273.969L177.355 275.334L176.897 275.615L174.377 274.264Z" fill="#463A7C"/>
<path d="M176.898 293.514L174.381 292.162V294.947L176.898 296.299V293.514Z" fill="#E4DEFF"/>
<path d="M177.347 293.251L176.896 293.534L176.896 296.293L177.359 295.993L177.347 293.251Z" fill="#463A7C"/>
<path d="M174.377 292.169L174.836 291.874L177.355 293.24L176.897 293.521L174.377 292.169Z" fill="#463A7C"/>
<path d="M176.898 281.559L174.381 280.207V282.992L176.898 284.344V281.559Z" fill="#E4DEFF"/>
<path d="M177.347 281.299L176.896 281.582L176.896 284.342L177.359 284.041L177.347 281.299Z" fill="#463A7C"/>
<path d="M174.377 280.214L174.836 279.919L177.355 281.285L176.897 281.565L174.377 280.214Z" fill="#463A7C"/>
<path d="M176.898 287.506L174.381 286.154V288.939L176.898 290.292V287.506Z" fill="#E4DEFF"/>
<path d="M177.347 287.243L176.896 287.526L176.896 290.285L177.359 289.985L177.347 287.243Z" fill="#463A7C"/>
<path d="M174.377 286.162L174.836 285.866L177.355 287.232L176.897 287.513L174.377 286.162Z" fill="#463A7C"/>
<path d="M120.254 321.807V263.016L141.056 251.72V310.518L120.254 321.807Z" fill="#9681CD"/>
<path d="M120.254 321.813V263.197L99.4522 251.901V310.524L120.254 321.813Z" fill="#463A7C"/>
<path d="M120.217 240.484L141.044 251.821L120.217 263.03L99.4062 251.821L120.217 240.484Z" fill="#F4F1FF"/>
<path d="M124.492 265.449L127.01 264.097V266.883L124.492 268.235V265.449Z" fill="#F4F1FF"/>
<path d="M124.044 265.182L124.495 265.465L124.495 268.225L124.031 267.924L124.044 265.182Z" fill="#463A7C"/>
<path d="M127.013 264.101L126.555 263.806L124.035 265.172L124.494 265.452L127.013 264.101Z" fill="#463A7C"/>
<path d="M124.492 283.359L127.01 282.007V284.792L124.492 286.144V283.359Z" fill="#F4F1FF"/>
<path d="M124.044 283.088L124.495 283.371L124.495 286.131L124.031 285.83L124.044 283.088Z" fill="#463A7C"/>
<path d="M127.013 282.007L126.555 281.712L124.035 283.077L124.494 283.358L127.013 282.007Z" fill="#463A7C"/>
<path d="M124.492 271.396L127.01 270.044V272.829L124.492 274.181V271.396Z" fill="#F4F1FF"/>
<path d="M124.044 271.133L124.495 271.415L124.495 274.175L124.031 273.874L124.044 271.133Z" fill="#463A7C"/>
<path d="M127.013 270.051L126.555 269.756L124.035 271.122L124.494 271.402L127.013 270.051Z" fill="#463A7C"/>
<path d="M124.492 277.351L127.01 275.999V278.784L124.492 280.136V277.351Z" fill="#F4F1FF"/>
<path d="M124.044 277.088L124.495 277.37L124.495 280.13L124.031 279.829L124.044 277.088Z" fill="#463A7C"/>
<path d="M127.013 276.006L126.555 275.711L124.035 277.077L124.494 277.357L127.013 276.006Z" fill="#463A7C"/>
<path d="M130.105 262.394L132.623 261.042V263.827L130.105 265.179V262.394Z" fill="#F4F1FF"/>
<path d="M129.657 262.134L130.108 262.417L130.108 265.177L129.645 264.876L129.657 262.134Z" fill="#463A7C"/>
<path d="M132.626 261.049L132.168 260.754L129.648 262.12L130.107 262.4L132.626 261.049Z" fill="#463A7C"/>
<path d="M130.105 280.279L132.623 278.927V281.712L130.105 283.064V280.279Z" fill="#F4F1FF"/>
<path d="M129.657 280.016L130.108 280.298L130.108 283.058L129.645 282.757L129.657 280.016Z" fill="#463A7C"/>
<path d="M132.626 278.934L132.168 278.639L129.648 280.005L130.107 280.285L132.626 278.934Z" fill="#463A7C"/>
<path d="M130.105 268.359L132.623 267.007V269.792L130.105 271.145V268.359Z" fill="#F4F1FF"/>
<path d="M129.657 268.096L130.108 268.379L130.108 271.138L129.645 270.838L129.657 268.096Z" fill="#463A7C"/>
<path d="M132.626 267.015L132.168 266.719L129.648 268.085L130.107 268.366L132.626 267.015Z" fill="#463A7C"/>
<path d="M130.105 274.303L132.623 272.951V275.736L130.105 277.088V274.303Z" fill="#F4F1FF"/>
<path d="M129.657 274.039L130.108 274.322L130.108 277.082L129.645 276.781L129.657 274.039Z" fill="#463A7C"/>
<path d="M132.626 272.958L132.168 272.663L129.648 274.029L130.107 274.309L132.626 272.958Z" fill="#463A7C"/>
<path d="M135.703 259.35L138.221 257.998V260.784L135.703 262.136V259.35Z" fill="#F4F1FF"/>
<path d="M135.255 259.087L135.706 259.37L135.706 262.129L135.242 261.829L135.255 259.087Z" fill="#463A7C"/>
<path d="M138.224 258.006L137.766 257.711L135.246 259.076L135.704 259.357L138.224 258.006Z" fill="#463A7C"/>
<path d="M135.707 277.264L138.225 275.912V278.697L135.707 280.049V277.264Z" fill="#F4F1FF"/>
<path d="M135.255 276.993L135.706 277.276L135.706 280.035L135.242 279.735L135.255 276.993Z" fill="#463A7C"/>
<path d="M138.224 275.912L137.766 275.616L135.246 276.982L135.704 277.263L138.224 275.912Z" fill="#463A7C"/>
<path d="M135.707 265.301L138.225 263.949V266.734L135.707 268.086V265.301Z" fill="#F4F1FF"/>
<path d="M135.255 265.037L135.706 265.32L135.706 268.08L135.242 267.779L135.255 265.037Z" fill="#463A7C"/>
<path d="M138.224 263.956L137.766 263.661L135.246 265.026L135.704 265.307L138.224 263.956Z" fill="#463A7C"/>
<path d="M135.703 271.252L138.221 269.9V272.685L135.703 274.037V271.252Z" fill="#F4F1FF"/>
<path d="M135.255 270.988L135.706 271.271L135.706 274.031L135.242 273.73L135.255 270.988Z" fill="#463A7C"/>
<path d="M138.224 269.907L137.766 269.612L135.246 270.978L135.704 271.258L138.224 269.907Z" fill="#463A7C"/>
<path d="M124.492 289.759L127.01 288.407V291.192L124.492 292.544V289.759Z" fill="#F4F1FF"/>
<path d="M124.044 289.488L124.495 289.771L124.495 292.53L124.031 292.23L124.044 289.488Z" fill="#463A7C"/>
<path d="M127.013 288.407L126.555 288.111L124.035 289.477L124.494 289.758L127.013 288.407Z" fill="#463A7C"/>
<path d="M124.492 295.699L127.01 294.347V297.132L124.492 298.484V295.699Z" fill="#F4F1FF"/>
<path d="M124.044 295.436L124.495 295.718L124.495 298.478L124.031 298.177L124.044 295.436Z" fill="#463A7C"/>
<path d="M127.013 294.354L126.555 294.059L124.035 295.425L124.494 295.705L127.013 294.354Z" fill="#463A7C"/>
<path d="M130.105 286.697L132.623 285.345V288.13L130.105 289.483V286.697Z" fill="#F4F1FF"/>
<path d="M129.657 286.434L130.108 286.716L130.108 289.476L129.645 289.175L129.657 286.434Z" fill="#463A7C"/>
<path d="M132.626 285.352L132.168 285.057L129.648 286.423L130.107 286.703L132.626 285.352Z" fill="#463A7C"/>
<path d="M130.105 292.645L132.623 291.292V294.078L130.105 295.43V292.645Z" fill="#F4F1FF"/>
<path d="M129.657 292.381L130.108 292.664L130.108 295.424L129.645 295.123L129.657 292.381Z" fill="#463A7C"/>
<path d="M132.626 291.3L132.168 291.005L129.648 292.37L130.107 292.651L132.626 291.3Z" fill="#463A7C"/>
<path d="M135.703 283.653L138.221 282.301V285.087L135.703 286.439V283.653Z" fill="#F4F1FF"/>
<path d="M135.255 283.383L135.706 283.666L135.706 286.425L135.242 286.125L135.255 283.383Z" fill="#463A7C"/>
<path d="M138.224 282.301L137.766 282.006L135.246 283.372L135.704 283.652L138.224 282.301Z" fill="#463A7C"/>
<path d="M135.703 289.597L138.221 288.245V291.03L135.703 292.382V289.597Z" fill="#F4F1FF"/>
<path d="M135.255 289.333L135.706 289.616L135.706 292.376L135.242 292.075L135.255 289.333Z" fill="#463A7C"/>
<path d="M138.224 288.252L137.766 287.957L135.246 289.322L135.704 289.603L138.224 288.252Z" fill="#463A7C"/>
<path d="M135.703 295.551L138.221 294.199V296.984L135.703 298.336V295.551Z" fill="#F4F1FF"/>
<path d="M135.255 295.281L135.706 295.563L135.706 298.323L135.242 298.022L135.255 295.281Z" fill="#463A7C"/>
<path d="M138.224 294.199L137.766 293.904L135.246 295.27L135.704 295.55L138.224 294.199Z" fill="#463A7C"/>
<path d="M116.48 265.727L113.963 264.375V267.16L116.48 268.512V265.727Z" fill="#E4DEFF"/>
<path d="M116.929 265.464L116.478 265.746L116.478 268.506L116.941 268.205L116.929 265.464Z" fill="#463A7C"/>
<path d="M113.959 264.382L114.418 264.087L116.938 265.453L116.479 265.733L113.959 264.382Z" fill="#463A7C"/>
<path d="M116.48 283.641L113.963 282.289V285.074L116.48 286.426V283.641Z" fill="#E4DEFF"/>
<path d="M116.929 283.374L116.478 283.657L116.478 286.416L116.941 286.116L116.929 283.374Z" fill="#463A7C"/>
<path d="M113.959 282.292L114.418 281.997L116.938 283.363L116.479 283.643L113.959 282.292Z" fill="#463A7C"/>
<path d="M116.48 271.685L113.963 270.333V273.118L116.48 274.47V271.685Z" fill="#E4DEFF"/>
<path d="M116.929 271.422L116.478 271.705L116.478 274.464L116.941 274.164L116.929 271.422Z" fill="#463A7C"/>
<path d="M113.959 270.34L114.418 270.045L116.938 271.411L116.479 271.692L113.959 270.34Z" fill="#463A7C"/>
<path d="M116.48 277.625L113.963 276.273V279.058L116.48 280.41V277.625Z" fill="#E4DEFF"/>
<path d="M116.929 277.362L116.478 277.645L116.478 280.404L116.941 280.104L116.929 277.362Z" fill="#463A7C"/>
<path d="M113.959 276.28L114.418 275.985L116.938 277.351L116.479 277.631L113.959 276.28Z" fill="#463A7C"/>
<path d="M110.871 262.679L108.353 261.327V264.112L110.871 265.464V262.679Z" fill="#E4DEFF"/>
<path d="M111.32 262.416L110.868 262.699L110.868 265.458L111.332 265.158L111.32 262.416Z" fill="#463A7C"/>
<path d="M108.35 261.335L108.808 261.04L111.328 262.405L110.87 262.686L108.35 261.335Z" fill="#463A7C"/>
<path d="M110.871 280.583L108.353 279.23V282.016L110.871 283.368V280.583Z" fill="#E4DEFF"/>
<path d="M111.32 280.319L110.868 280.602L110.868 283.362L111.332 283.061L111.32 280.319Z" fill="#463A7C"/>
<path d="M108.35 279.238L108.808 278.943L111.328 280.308L110.87 280.589L108.35 279.238Z" fill="#463A7C"/>
<path d="M110.871 268.627L108.353 267.275V270.06L110.871 271.412V268.627Z" fill="#E4DEFF"/>
<path d="M111.32 268.364L110.868 268.646L110.868 271.406L111.332 271.105L111.32 268.364Z" fill="#463A7C"/>
<path d="M108.35 267.282L108.808 266.987L111.328 268.353L110.87 268.633L108.35 267.282Z" fill="#463A7C"/>
<path d="M110.871 274.582L108.353 273.23V276.015L110.871 277.367V274.582Z" fill="#E4DEFF"/>
<path d="M111.32 274.315L110.868 274.597L110.868 277.357L111.332 277.056L111.32 274.315Z" fill="#463A7C"/>
<path d="M108.35 273.233L108.808 272.938L111.328 274.304L110.87 274.584L108.35 273.233Z" fill="#463A7C"/>
<path d="M105.262 259.626L102.744 258.274V261.059L105.262 262.411V259.626Z" fill="#E4DEFF"/>
<path d="M105.71 259.362L105.259 259.645L105.259 262.405L105.723 262.104L105.71 259.362Z" fill="#463A7C"/>
<path d="M102.741 258.281L103.199 257.986L105.719 259.351L105.26 259.632L102.741 258.281Z" fill="#463A7C"/>
<path d="M105.262 277.528L102.744 276.176V278.961L105.262 280.313V277.528Z" fill="#E4DEFF"/>
<path d="M105.71 277.265L105.259 277.548L105.259 280.307L105.723 280.007L105.71 277.265Z" fill="#463A7C"/>
<path d="M102.741 276.184L103.199 275.888L105.719 277.254L105.26 277.535L102.741 276.184Z" fill="#463A7C"/>
<path d="M105.262 265.576L102.744 264.224V267.009L105.262 268.361V265.576Z" fill="#E4DEFF"/>
<path d="M105.71 265.309L105.259 265.592L105.259 268.351L105.723 268.051L105.71 265.309Z" fill="#463A7C"/>
<path d="M102.741 264.228L103.199 263.932L105.719 265.298L105.26 265.579L102.741 264.228Z" fill="#463A7C"/>
<path d="M105.262 271.534L102.744 270.182V272.967L105.262 274.319V271.534Z" fill="#E4DEFF"/>
<path d="M105.71 271.274L105.259 271.557L105.259 274.317L105.723 274.016L105.71 271.274Z" fill="#463A7C"/>
<path d="M102.741 270.189L103.199 269.894L105.719 271.26L105.26 271.54L102.741 270.189Z" fill="#463A7C"/>
<path d="M116.48 289.449L113.963 288.097V290.882L116.48 292.234V289.449Z" fill="#E4DEFF"/>
<path d="M116.929 289.185L116.478 289.468L116.478 292.228L116.941 291.927L116.929 289.185Z" fill="#463A7C"/>
<path d="M113.959 288.104L114.418 287.809L116.938 289.175L116.479 289.455L113.959 288.104Z" fill="#463A7C"/>
<path d="M116.48 295.403L113.963 294.051V296.836L116.48 298.188V295.403Z" fill="#E4DEFF"/>
<path d="M116.929 295.14L116.478 295.423L116.478 298.182L116.941 297.882L116.929 295.14Z" fill="#463A7C"/>
<path d="M113.959 294.058L114.418 293.763L116.938 295.129L116.479 295.409L113.959 294.058Z" fill="#463A7C"/>
<path d="M110.871 286.408L108.353 285.056V287.841L110.871 289.193V286.408Z" fill="#E4DEFF"/>
<path d="M111.32 286.144L110.868 286.427L110.868 289.187L111.332 288.886L111.32 286.144Z" fill="#463A7C"/>
<path d="M108.35 285.063L108.808 284.768L111.328 286.134L110.87 286.414L108.35 285.063Z" fill="#463A7C"/>
<path d="M110.871 292.355L108.353 291.003V293.788L110.871 295.14V292.355Z" fill="#E4DEFF"/>
<path d="M111.32 292.092L110.868 292.375L110.868 295.134L111.332 294.834L111.32 292.092Z" fill="#463A7C"/>
<path d="M108.35 291.01L108.808 290.715L111.328 292.081L110.87 292.361L108.35 291.01Z" fill="#463A7C"/>
<path d="M105.262 283.354L102.744 282.002V284.787L105.262 286.139V283.354Z" fill="#E4DEFF"/>
<path d="M105.71 283.09L105.259 283.373L105.259 286.133L105.723 285.832L105.71 283.09Z" fill="#463A7C"/>
<path d="M102.741 282.009L103.199 281.714L105.719 283.079L105.26 283.36L102.741 282.009Z" fill="#463A7C"/>
<path d="M105.262 289.304L102.744 287.952V290.738L105.262 292.09V289.304Z" fill="#E4DEFF"/>
<path d="M105.71 289.045L105.259 289.328L105.259 292.087L105.723 291.787L105.71 289.045Z" fill="#463A7C"/>
<path d="M102.741 287.96L103.199 287.665L105.719 289.03L105.26 289.311L102.741 287.96Z" fill="#463A7C"/>
<path d="M105.262 295.252L102.744 293.9V296.685L105.262 298.037V295.252Z" fill="#E4DEFF"/>
<path d="M105.71 294.989L105.259 295.271L105.259 298.031L105.723 297.73L105.71 294.989Z" fill="#463A7C"/>
<path d="M102.741 293.907L103.199 293.612L105.719 294.978L105.26 295.258L102.741 293.907Z" fill="#463A7C"/>
</g>
<rect x="81.9805" y="103" width="139.421" height="193.64" rx="15.4912" stroke="#F4F4F4" stroke-width="1.9364"/>
</g>
<g filter="url(#filter1_d_498_5897)">
<g clip-path="url(#clip2_498_5897)">
<rect x="247.223" y="103" width="139.421" height="193.64" rx="15.4912" fill="white"/>
<path d="M291.124 147.491V129.467H297.719C301.193 129.467 303.333 131.229 303.333 134.124C303.333 136.239 302.401 137.674 300.538 138.404C302.628 139.083 303.685 140.543 303.685 142.759C303.685 145.654 301.52 147.491 298.097 147.491H291.124ZM297.694 131.078H292.936V137.674H297.92C300.186 137.674 301.47 136.415 301.47 134.275C301.47 132.261 300.11 131.078 297.694 131.078ZM298.097 139.26H292.936V145.855H298.097C300.463 145.855 301.847 144.621 301.847 142.532C301.847 140.493 300.438 139.26 298.097 139.26ZM311.814 147.793C308.239 147.793 305.848 145.226 305.848 141.399C305.848 137.598 308.214 134.98 311.688 134.98C314.985 134.98 317.226 137.321 317.226 140.77V141.626H307.534C307.66 144.596 309.221 146.308 311.839 146.308C313.828 146.308 315.111 145.452 315.564 143.841H317.226C316.571 146.409 314.683 147.793 311.814 147.793ZM311.688 136.465C309.397 136.465 307.887 137.976 307.585 140.367H315.489C315.489 138.026 313.979 136.465 311.688 136.465ZM324.912 147.793C321.362 147.793 319.273 145.075 319.273 141.424C319.273 137.749 321.362 134.98 324.987 134.98C327.001 134.98 328.612 135.861 329.468 137.623V129.14H331.205V147.491H329.695L329.518 144.999C328.663 146.887 326.951 147.793 324.912 147.793ZM325.214 146.207C327.882 146.207 329.443 144.194 329.443 141.374C329.443 138.58 327.882 136.541 325.214 136.541C322.571 136.541 321.035 138.58 321.035 141.374C321.035 144.194 322.571 146.207 325.214 146.207ZM333.923 144.068H335.585C335.585 145.477 336.642 146.358 338.354 146.358C340.242 146.358 341.349 145.553 341.349 144.244C341.349 143.237 340.846 142.658 339.411 142.306L337.322 141.777C335.207 141.248 334.175 140.141 334.175 138.479C334.175 136.339 335.962 134.98 338.58 134.98C341.148 134.98 342.81 136.39 342.885 138.655H341.198C341.148 137.246 340.166 136.415 338.53 136.415C336.818 136.415 335.862 137.145 335.862 138.454C335.862 139.385 336.516 140.04 337.85 140.367L339.94 140.896C342.054 141.424 343.011 142.406 343.011 144.168C343.011 146.358 341.148 147.793 338.379 147.793C335.635 147.793 333.923 146.333 333.923 144.068Z" fill="#6F6F6F"/>
<path d="M302.955 177.678H300.542V175.427L305.639 170.737H297.398V167.674H309.976V170.439L305.151 174.885C308.187 175.482 310.546 177.705 310.546 181.202C310.546 185.268 307.374 187.844 303.362 187.844C299.485 187.844 296.476 185.458 296.476 181.175H299.892C299.892 183.452 301.301 184.753 303.416 184.753C305.585 184.753 307.021 183.343 307.021 181.148C307.021 179.141 305.72 177.678 302.955 177.678ZM316.498 170.792H312.161V167.674H319.833V187.491H316.498V170.792ZM322.604 167.674H336.836V170.873L329.652 187.491H326.047L333.366 170.873H322.604V167.674Z" fill="#222222"/>
<path d="M267.984 236.278V261.657L286.511 240.736L305.038 219.816L301.481 217.248L267.984 236.278Z" fill="#B29186"/>
<path d="M271.527 238.738L271.577 263.959L305.024 244.904V219.708L271.527 238.738Z" fill="#906B5F"/>
<path d="M268.027 236.281L271.585 238.839V263.923L268.027 261.673V236.281Z" fill="#58392F"/>
<path d="M365.34 279.402L305.178 245.176L271.794 257.501L271.794 264.168L331.956 298.395L365.34 279.402Z" fill="#58392F"/>
<path d="M314.825 251.892C306.567 256.59 298.008 253.849 294.761 251.892L305.011 246.308L314.825 251.892Z" fill="#F7F4FF"/>
<path d="M365.328 279.397V272.691L357.644 275.797L365.328 279.397Z" fill="#886BD4"/>
<rect width="69.2162" height="38.4081" transform="matrix(-0.869189 -0.494479 -0.869189 0.494479 365.34 272.686)" fill="#F7F4FF"/>
<path d="M365.465 279.378V272.84L331.96 291.639V298.37L365.465 279.378Z" fill="#906B5F"/>
<path d="M362.258 271.372L305.235 239.172L273.594 250.767L273.594 257.04L330.616 289.24L362.258 271.372Z" fill="#E4DCFE"/>
<path d="M314.38 245.489C306.553 249.909 298.44 247.331 295.362 245.489L305.077 240.237L314.38 245.489Z" fill="#F7F4FF"/>
<path d="M362.258 271.372L331.738 254.137L302.677 267.19L300.096 272.005L330.616 289.24L362.258 271.372Z" fill="#A490D9"/>
<path d="M336.152 257.786C328.325 262.205 323.159 261.291 321.554 260.281L331.173 254.974L336.152 257.786Z" fill="#F7F4FF"/>
<path d="M359.621 270.581V264.402L352.54 267.264L359.621 270.581Z" fill="#886BD4"/>
<rect width="65.4859" height="36.3382" transform="matrix(-0.870758 -0.491711 -0.870758 0.491711 362.258 265.054)" fill="#F7F4FF"/>
<path d="M362.359 271.363V265.211L330.603 282.898V289.23L362.359 271.363Z" fill="#9681CD"/>
<path d="M281.027 245.524C285.348 237.369 295.165 234.944 299.534 234.751L308.486 239.818C304.113 246.486 294.388 249.948 290.072 250.845L281.027 245.524Z" fill="#E4DCFE"/>
<path d="M308.403 239.865C304.362 240.861 295.036 244.453 290.066 250.858C294.506 249.895 304.388 246.348 308.403 239.865Z" fill="#C6BAEB"/>
<path d="M337.161 249.606L338.41 250.341C338.41 251.77 336.832 252.636 335.626 251.87L335.574 251.837L303.905 268.546C303.27 268.881 302.872 269.541 302.872 270.26C302.872 271.708 301.342 272.644 300.053 271.985L299.518 271.712C298.747 271.318 298.262 270.525 298.262 269.659V268.826C298.262 267.48 298.999 266.242 300.183 265.602L329.981 249.476C332.231 248.258 334.955 248.307 337.161 249.606Z" fill="#6C53AD"/>
<path d="M304.633 268.211L337.513 250.776L362.19 265.172L330.564 282.908L304.633 268.211Z" fill="#826BBE"/>
</g>
<rect x="247.223" y="103" width="139.421" height="193.64" rx="15.4912" stroke="#F4F4F4" stroke-width="1.9364"/>
</g>
<g filter="url(#filter2_d_498_5897)">
<g clip-path="url(#clip3_498_5897)">
<rect x="412.461" y="103" width="139.421" height="193.64" rx="15.4912" fill="white"/>
<path d="M439.478 131.129V129.467H452.392V131.129H446.828V147.491H445.016V131.129H439.478ZM457.877 147.793C454.302 147.793 451.911 145.226 451.911 141.399C451.911 137.598 454.277 134.98 457.751 134.98C461.049 134.98 463.289 137.321 463.289 140.77V141.626H453.597C453.723 144.596 455.284 146.308 457.902 146.308C459.891 146.308 461.174 145.452 461.628 143.841H463.289C462.634 146.409 460.746 147.793 457.877 147.793ZM457.751 136.465C455.46 136.465 453.95 137.976 453.648 140.367H461.552C461.552 138.026 460.042 136.465 457.751 136.465ZM467.929 147.491H466.192V135.307H467.702L467.954 137.422C468.76 135.861 470.371 134.98 472.133 134.98C475.481 134.98 476.865 136.969 476.865 140.04V147.491H475.128V140.418C475.128 137.573 473.845 136.566 471.831 136.566C469.339 136.566 467.929 138.379 467.929 141.122V147.491ZM483.952 147.793C481.359 147.793 479.824 146.333 479.824 144.194C479.824 141.953 481.536 140.543 484.38 140.317L488.408 139.99V139.587C488.408 137.195 486.973 136.44 485.186 136.44C483.071 136.44 481.812 137.397 481.812 139.033H480.227C480.227 136.566 482.24 134.98 485.236 134.98C488.055 134.98 490.12 136.39 490.12 139.612V147.491H488.66L488.433 145.351C487.678 146.887 486.016 147.793 483.952 147.793ZM484.355 146.384C486.923 146.384 488.408 144.596 488.408 141.953V141.299L484.808 141.576C482.517 141.777 481.586 142.784 481.586 144.143C481.586 145.628 482.694 146.384 484.355 146.384ZM495.468 147.491H493.731V135.307H495.241L495.493 137.422C496.299 135.861 497.91 134.98 499.672 134.98C503.02 134.98 504.404 136.969 504.404 140.04V147.491H502.667V140.418C502.667 137.573 501.384 136.566 499.37 136.566C496.878 136.566 495.468 138.379 495.468 141.122V147.491ZM510.786 147.491H509.075V136.767H506.633V135.307H509.075V131.456H510.786V135.307H513.228V136.767H510.786V147.491ZM514.584 144.068H516.245C516.245 145.477 517.303 146.358 519.014 146.358C520.902 146.358 522.01 145.553 522.01 144.244C522.01 143.237 521.506 142.658 520.072 142.306L517.982 141.777C515.868 141.248 514.836 140.141 514.836 138.479C514.836 136.339 516.623 134.98 519.241 134.98C521.809 134.98 523.47 136.39 523.545 138.655H521.859C521.809 137.246 520.827 136.415 519.191 136.415C517.479 136.415 516.522 137.145 516.522 138.454C516.522 139.385 517.177 140.04 518.511 140.367L520.6 140.896C522.715 141.424 523.671 142.406 523.671 144.168C523.671 146.358 521.809 147.793 519.039 147.793C516.296 147.793 514.584 146.333 514.584 144.068Z" fill="#6F6F6F"/>
<path d="M475.667 187.464L461.923 187.491V184.889L468.402 179.413C471.086 177.135 471.98 175.834 471.98 173.936C471.98 171.686 470.761 170.412 468.673 170.412C466.504 170.412 465.149 171.93 465.122 174.479H461.679C461.706 170.141 464.471 167.322 468.673 167.322C472.902 167.322 475.532 169.734 475.532 173.747C475.532 176.512 474.014 178.599 471.005 181.175L467.426 184.238H475.667V187.464ZM480.76 173.503L485.044 167.674H489.002L484.258 173.991C484.745 173.855 485.261 173.774 485.749 173.774C489.842 173.774 492.607 176.647 492.607 180.66C492.607 184.889 489.463 187.844 485.233 187.844C480.95 187.844 477.751 184.699 477.751 180.632C477.751 178.247 478.537 176.512 480.76 173.503ZM481.303 180.66C481.303 183.072 482.902 184.753 485.233 184.753C487.484 184.753 489.11 183.072 489.11 180.66C489.11 178.274 487.511 176.62 485.233 176.62C482.875 176.62 481.303 178.274 481.303 180.66ZM497.71 170.792H493.373V167.674H501.045V187.491H497.71V170.792Z" fill="#222222"/>
<path d="M457.238 275.509C463.586 272.236 474.981 271.073 474.981 271.073L491.837 276.396L504.257 278.171C504.257 278.171 512.137 279.454 515.79 282.606C520.856 286.978 522 298.575 522 298.575H442.156C442.156 298.575 442.954 288.439 446.592 283.494C449.672 279.307 452.619 277.891 457.238 275.509Z" fill="#9681CD" stroke="#C6BAEB" stroke-width="1.77431"/>
<path d="M505.121 229.415L508.412 226.124C508.412 226.124 510.704 228.529 510.805 230.462C510.881 231.92 509.641 233.35 509.758 234.051L510.057 235.846C510.174 236.547 510.173 237.584 510.057 238.688C509.847 240.691 508.561 243.624 508.561 243.624L506.168 243.026L505.121 237.342V229.415Z" fill="#1E1F24" stroke="#1E1F24" stroke-width="0.299147"/>
<path d="M482.438 250.033L479.378 259.175L476.259 265.841H473.64C472.445 265.841 471.72 266.198 470.58 265.841C469.454 265.489 469.039 264.833 468.094 264.127C467.329 263.555 467.024 263.054 466.181 262.603C465.286 262.125 464.556 262.379 463.695 261.842C462.568 261.138 460.447 258.924 459.551 257.945C459.088 256.848 458.497 248.438 458.497 248.438C458.497 248.438 453.182 241.473 454.278 238.931C455.373 236.388 455.332 233.009 455.332 230.48C455.332 227.951 458.692 225.539 459.551 224.142C460.443 222.693 462.334 217.664 463.771 216.747C465.075 215.751 467.42 214.879 469.045 214.635C472.847 214.063 473.68 210.217 477.483 209.654C480.005 209.281 483.803 210.89 486.263 210.225C487.811 209.806 488.306 208.517 489.897 208.32C492.656 207.98 493.754 209.066 496.47 209.654C498.295 210.049 499.085 211.201 500.799 211.939C502.695 212.755 503.019 213.802 504.908 214.635C506.684 215.418 507.531 214.974 509.214 215.939C510.813 216.856 511.305 218.144 511.7 219.939C512.155 222.005 511.671 223.368 510.744 225.272C510.092 226.61 509.412 227.182 508.449 228.319C505.89 231.342 500.799 234.986 500.799 234.986H488.75L481.742 238.459L482.438 250.033Z" fill="#1E1F24"/>
<path d="M476.247 267.928C477.327 265.011 477.984 260.178 477.984 260.178L496.846 264.935C496.846 264.935 495.138 268.555 494.466 271.004C493.793 273.459 493.423 277.425 493.423 277.425C493.423 277.425 490.224 279.335 487.921 279.669C485.136 280.072 483.328 279.785 480.809 278.58C477.472 276.983 474.622 271.555 474.622 271.555C474.622 271.555 475.709 269.381 476.247 267.928Z" fill="#DEA77E" stroke="#DAA97E" stroke-width="0.299147"/>
<path fill-rule="evenodd" clip-rule="evenodd" d="M486.046 262.124C485.517 264.825 484.722 268.521 483.865 271.261C483.156 273.525 482.041 276.3 481.05 278.622C480.945 278.574 480.838 278.524 480.73 278.473C477.393 276.876 474.543 271.448 474.543 271.448C474.543 271.448 475.63 269.274 476.168 267.82C477.248 264.904 477.905 260.071 477.905 260.071L486.046 262.124Z" fill="#D69E75"/>
<path d="M486.046 262.124L486.193 262.153L486.22 262.014L486.083 261.979L486.046 262.124ZM483.865 271.261L484.007 271.305L484.007 271.305L483.865 271.261ZM481.05 278.622L480.987 278.758L481.127 278.822L481.187 278.681L481.05 278.622ZM480.73 278.473L480.666 278.608L480.666 278.608L480.73 278.473ZM474.543 271.448L474.409 271.381L474.375 271.45L474.411 271.518L474.543 271.448ZM476.168 267.82L476.028 267.768L476.028 267.768L476.168 267.82ZM477.905 260.071L477.941 259.926L477.779 259.885L477.756 260.05L477.905 260.071ZM485.9 262.095C485.37 264.795 484.577 268.485 483.722 271.216L484.007 271.305C484.867 268.557 485.663 264.854 486.193 262.153L485.9 262.095ZM483.722 271.216C483.016 273.473 481.903 276.242 480.912 278.564L481.187 278.681C482.179 276.358 483.297 273.578 484.007 271.305L483.722 271.216ZM481.112 278.486C481.008 278.438 480.902 278.389 480.795 278.338L480.666 278.608C480.774 278.659 480.881 278.71 480.987 278.758L481.112 278.486ZM480.795 278.338C479.162 277.557 477.634 275.827 476.506 274.274C475.945 273.5 475.486 272.775 475.169 272.244C475.01 271.979 474.886 271.762 474.803 271.612C474.761 271.537 474.729 271.478 474.707 271.438C474.697 271.419 474.689 271.404 474.683 271.393C474.681 271.388 474.679 271.385 474.677 271.382C474.677 271.381 474.676 271.38 474.676 271.379C474.676 271.379 474.676 271.379 474.675 271.379C474.675 271.379 474.675 271.379 474.675 271.379C474.675 271.379 474.675 271.379 474.543 271.448C474.411 271.518 474.411 271.518 474.411 271.518C474.411 271.518 474.411 271.518 474.411 271.518C474.411 271.518 474.411 271.519 474.411 271.519C474.412 271.52 474.412 271.521 474.413 271.522C474.414 271.525 474.416 271.529 474.419 271.534C474.425 271.545 474.433 271.56 474.444 271.581C474.466 271.621 474.499 271.681 474.541 271.757C474.626 271.91 474.752 272.13 474.912 272.398C475.233 272.935 475.696 273.667 476.264 274.449C477.396 276.009 478.961 277.792 480.666 278.608L480.795 278.338ZM474.543 271.448C474.677 271.515 474.677 271.515 474.677 271.515C474.677 271.515 474.677 271.515 474.677 271.515C474.677 271.515 474.677 271.515 474.677 271.515C474.677 271.514 474.677 271.514 474.678 271.513C474.678 271.512 474.679 271.511 474.68 271.509C474.682 271.504 474.685 271.498 474.689 271.49C474.697 271.474 474.709 271.449 474.725 271.418C474.756 271.356 474.8 271.265 474.856 271.151C474.966 270.924 475.119 270.606 475.289 270.243C475.628 269.517 476.037 268.605 476.308 267.872L476.028 267.768C475.761 268.489 475.357 269.391 475.018 270.116C474.849 270.478 474.697 270.794 474.587 271.02C474.532 271.133 474.487 271.224 474.457 271.286C474.441 271.317 474.429 271.341 474.421 271.357C474.417 271.365 474.414 271.371 474.412 271.375C474.411 271.377 474.41 271.379 474.41 271.38C474.41 271.38 474.409 271.381 474.409 271.381C474.409 271.381 474.409 271.381 474.409 271.381C474.409 271.381 474.409 271.381 474.409 271.381C474.409 271.381 474.409 271.381 474.543 271.448ZM476.308 267.872C476.853 266.402 477.289 264.454 477.588 262.88C477.738 262.091 477.854 261.394 477.933 260.895C477.972 260.645 478.002 260.444 478.022 260.305C478.032 260.236 478.04 260.183 478.045 260.146C478.048 260.128 478.05 260.114 478.051 260.105C478.052 260.1 478.052 260.097 478.052 260.094C478.052 260.093 478.053 260.092 478.053 260.092C478.053 260.091 478.053 260.091 478.053 260.091C478.053 260.091 478.053 260.091 478.053 260.091C478.053 260.091 478.053 260.091 477.905 260.071C477.756 260.05 477.756 260.05 477.756 260.05C477.756 260.05 477.756 260.051 477.756 260.051C477.756 260.051 477.756 260.051 477.756 260.051C477.756 260.052 477.756 260.053 477.756 260.054C477.756 260.056 477.755 260.059 477.755 260.064C477.753 260.073 477.751 260.087 477.749 260.105C477.744 260.141 477.736 260.194 477.726 260.262C477.706 260.4 477.676 260.599 477.637 260.848C477.559 261.346 477.444 262.039 477.294 262.824C476.995 264.395 476.563 266.322 476.028 267.768L476.308 267.872ZM477.868 260.216L486.01 262.269L486.083 261.979L477.941 259.926L477.868 260.216Z" fill="#D69E75"/>
<path d="M481.506 248.453C481.828 250.786 480.185 253.202 480.185 253.202C480.185 253.202 478.529 252.226 477.709 251.364C476.773 250.379 477.008 249.263 475.894 248.453C474.736 247.613 473.705 247.272 472.262 247.534C471.156 247.735 470.404 248.037 469.787 248.913C469.01 250.014 469.609 250.977 469.787 252.283C469.995 253.824 469.913 254.888 470.942 256.113C471.679 256.99 472.592 257.032 473.418 257.798C474.243 258.564 474.078 259.33 474.738 259.943C475.399 260.556 476.102 260.573 477.049 260.709C477.814 260.818 479.03 260.709 479.03 260.709C479.03 260.709 479.025 263.054 479.855 264.232C480.506 265.156 481.183 265.451 482.166 266.071C484.008 267.232 486.953 267.756 487.448 268.062C487.943 268.368 492.262 270.038 495.536 270.666C497.635 271.069 498.843 271.184 500.983 271.279C502.4 271.342 503.234 271.579 504.614 271.279C506.018 270.974 507.916 269.747 507.916 269.747C507.916 269.747 509.074 268.352 509.401 267.296C509.793 266.031 509.401 265.242 509.401 263.926V260.709C509.401 260.709 509.8 257.447 509.896 255.347C509.993 253.255 510.546 251.99 509.896 249.985C509.432 248.549 507.916 246.615 507.916 246.615C507.916 246.615 508.613 244.117 508.741 242.479C508.825 241.405 508.741 240.334 508.741 239.721C508.741 239.108 507.048 236.804 506.265 234.819C505.373 232.557 504.614 228.844 504.614 228.844C504.614 228.844 503.624 231.142 502.139 232.061C500.653 232.98 497.022 234.206 495.536 234.512C494.051 234.819 489.099 233.746 485.632 234.512C482.166 235.278 482.67 235.21 481.506 236.504C479.882 238.31 480.681 242.479 480.681 242.479L481.506 248.453Z" fill="#E7B58E"/>
<path fill-rule="evenodd" clip-rule="evenodd" d="M487.866 268.198C487.303 266.368 486.6 264.492 485.769 263.024C485.35 262.283 484.859 261.752 484.388 261.244C483.721 260.525 483.096 259.85 482.778 258.686C482.282 256.875 482.983 255.563 483.739 254.151C484.277 253.144 484.843 252.086 485.022 250.759C485.427 247.749 485.022 242.981 485.022 242.981V238.195C485.022 237.344 485.951 235.935 486.964 234.652C486.305 234.687 485.664 234.764 485.07 234.905C482.358 235.551 482.328 235.589 481.691 236.401C481.591 236.53 481.475 236.677 481.331 236.85C479.859 238.613 480.583 242.683 480.583 242.683L481.331 248.517C481.623 250.795 480.134 253.153 480.134 253.153C480.134 253.153 478.633 252.2 477.891 251.358C477.505 250.922 477.339 250.458 477.177 250.009C476.983 249.468 476.796 248.948 476.245 248.517C475.196 247.696 474.262 247.363 472.955 247.619C471.952 247.815 471.271 248.11 470.711 248.965C470.193 249.757 470.351 250.476 470.534 251.309C470.6 251.607 470.669 251.92 470.711 252.256C470.745 252.527 470.771 252.783 470.795 253.027C470.906 254.14 470.993 255.015 471.758 255.995C472.123 256.463 472.535 256.687 472.956 256.917C473.306 257.107 473.662 257.301 474.002 257.641C474.396 258.035 474.541 258.43 474.678 258.803C474.8 259.136 474.916 259.452 475.198 259.735C475.722 260.258 476.275 260.337 476.98 260.437C477.081 260.451 477.185 260.466 477.292 260.482C477.985 260.589 479.087 260.482 479.087 260.482C479.087 260.482 479.083 262.772 479.835 263.923C480.319 264.664 480.82 264.99 481.478 265.419C481.621 265.512 481.77 265.61 481.929 265.717C483.035 266.468 484.579 266.947 485.626 267.271C486.159 267.436 486.564 267.561 486.715 267.662C486.845 267.748 487.264 267.946 487.866 268.198Z" fill="#E2AD84"/>
</g>
<rect x="412.461" y="103" width="139.421" height="193.64" rx="15.4912" stroke="#F4F4F4" stroke-width="1.9364"/>
</g>
<g filter="url(#filter3_d_498_5897)">
<g clip-path="url(#clip4_498_5897)">
<rect x="577.699" y="103" width="139.421" height="193.64" rx="15.4912" fill="white"/>
<path d="M623.018 134.149C623.018 131.129 625.434 129.14 629.059 129.14C632.307 129.14 634.446 130.952 634.723 133.973H632.886C632.684 131.934 631.3 130.776 629.034 130.776C626.492 130.776 624.83 132.085 624.83 134.124C624.83 135.71 625.762 136.717 627.65 137.195L630.746 137.951C633.565 138.63 635.025 140.241 635.025 142.683C635.025 145.805 632.609 147.793 628.883 147.793C625.384 147.793 623.018 145.956 622.791 143.01H624.654C624.755 144.898 626.416 146.132 628.883 146.132C631.526 146.132 633.213 144.848 633.213 142.784C633.213 141.173 632.307 140.115 630.368 139.662L627.322 138.907C624.503 138.227 623.018 136.616 623.018 134.149ZM640.827 147.491H639.115V136.767H636.674V135.307H639.115V131.456H640.827V135.307H643.269V136.767H640.827V147.491ZM648.959 147.793C646.366 147.793 644.831 146.333 644.831 144.194C644.831 141.953 646.543 140.543 649.387 140.317L653.415 139.99V139.587C653.415 137.195 651.98 136.44 650.193 136.44C648.078 136.44 646.819 137.397 646.819 139.033H645.234C645.234 136.566 647.247 134.98 650.243 134.98C653.062 134.98 655.127 136.39 655.127 139.612V147.491H653.667L653.44 145.351C652.685 146.887 651.023 147.793 648.959 147.793ZM649.362 146.384C651.93 146.384 653.415 144.596 653.415 141.953V141.299L649.815 141.576C647.524 141.777 646.593 142.784 646.593 144.143C646.593 145.628 647.7 146.384 649.362 146.384ZM657.28 135.307H659.143V132.941C659.143 130.197 660.653 129.14 662.516 129.14C662.944 129.14 663.448 129.165 663.85 129.241V130.726H662.818C661.283 130.726 660.88 131.506 660.88 132.941V135.307H663.75V136.767H660.88V147.491H659.143V136.767H657.28V135.307ZM664.978 135.307H666.841V132.941C666.841 130.197 668.351 129.14 670.214 129.14C670.642 129.14 671.145 129.165 671.548 129.241V130.726H670.516C668.98 130.726 668.578 131.506 668.578 132.941V135.307H671.447V136.767H668.578V147.491H666.841V136.767H664.978V135.307Z" fill="#6F6F6F"/>
<path d="M637.432 177.678H635.019V175.427L640.115 170.737H631.874V167.674H644.453V170.439L639.627 174.885C642.664 175.482 645.022 177.705 645.022 181.202C645.022 185.268 641.85 187.844 637.838 187.844C633.962 187.844 630.952 185.458 630.952 181.175H634.368C634.368 183.452 635.778 184.753 637.892 184.753C640.061 184.753 641.498 183.343 641.498 181.148C641.498 179.141 640.197 177.678 637.432 177.678ZM662.596 183.723H660.183V187.491H656.903V183.723H646.845V180.687L655.818 167.674H660.183V180.687H662.596V183.723ZM650.532 180.687H656.903V171.415L650.532 180.687Z" fill="#222222"/>
<path d="M622.48 277.446C628.828 274.172 640.223 273.01 640.223 273.01L657.079 278.333L669.499 280.107C669.499 280.107 677.379 281.39 681.032 284.543C686.098 288.915 687.242 300.512 687.242 300.512H607.398C607.398 300.512 608.196 290.375 611.834 285.43C614.914 281.244 617.861 279.827 622.48 277.446Z" fill="#8BC9E3"/>
<path d="M670.355 231.351L673.646 228.061C673.646 228.061 675.938 230.466 676.039 232.398C676.115 233.856 674.875 235.287 674.992 235.988L675.291 237.783C675.408 238.484 675.407 239.521 675.291 240.625C675.082 242.628 673.796 245.561 673.796 245.561L671.402 244.962L670.355 239.279V231.351Z" fill="#1E1F24" stroke="#1E1F24" stroke-width="0.299147"/>
<path d="M648.515 251.2L645.745 259.478L642.92 265.514H640.55C639.468 265.514 638.811 265.837 637.779 265.514C636.759 265.195 636.383 264.601 635.528 263.962C634.835 263.444 634.559 262.99 633.796 262.582C632.986 262.149 632.325 262.379 631.545 261.893C630.525 261.256 628.604 259.251 627.793 258.364C627.374 257.371 626.838 249.757 626.838 249.757C626.838 249.757 624.15 244.723 625.141 242.421C626.133 240.119 628.046 234.06 628.046 231.771C628.046 229.481 630.173 234.004 630.95 232.739C631.757 231.427 630.313 221.894 631.614 221.063C632.794 220.161 634.918 219.372 636.389 219.151C639.831 218.633 640.586 215.151 644.029 214.641C646.312 214.303 649.751 215.76 651.979 215.158C653.38 214.779 653.828 213.611 655.269 213.433C657.767 213.125 658.761 214.109 661.22 214.641C662.872 214.999 663.587 216.042 665.139 216.71C666.856 217.449 667.15 218.397 668.86 219.151C670.468 219.86 662.055 219.278 663.578 220.152C665.026 220.982 669.03 222.4 669.388 224.025C669.799 225.896 671.195 227.142 670.356 228.866C669.766 230.078 672.938 230.511 672.066 231.541C669.749 234.278 665.139 237.577 665.139 237.577H654.23L647.885 240.722L648.515 251.2Z" fill="#1E1F24"/>
<path d="M641.473 269.864C642.553 266.948 643.21 262.115 643.21 262.115L662.073 266.872C662.073 266.872 660.365 270.492 659.693 272.941C659.02 275.396 658.65 279.362 658.65 279.362C658.65 279.362 655.45 281.272 653.148 281.605C650.362 282.009 648.554 281.722 646.036 280.517C642.698 278.92 639.848 273.492 639.848 273.492C639.848 273.492 640.935 271.318 641.473 269.864Z" fill="#DEA77E" stroke="#DAA97E" stroke-width="0.299147"/>
<path fill-rule="evenodd" clip-rule="evenodd" d="M651.281 264.061C650.751 266.761 649.956 270.458 649.099 273.198C648.39 275.462 647.275 278.237 646.284 280.559C646.179 280.511 646.072 280.461 645.965 280.409C642.627 278.813 639.777 273.385 639.777 273.385C639.777 273.385 640.864 271.21 641.402 269.757C642.482 266.841 643.139 262.007 643.139 262.007L651.281 264.061Z" fill="#D69E75"/>
<path d="M651.281 264.061L651.428 264.09L651.455 263.95L651.317 263.916L651.281 264.061ZM649.099 273.198L648.956 273.153L648.956 273.153L649.099 273.198ZM646.284 280.559L646.222 280.695L646.361 280.759L646.422 280.618L646.284 280.559ZM645.965 280.409L645.9 280.544L645.9 280.544L645.965 280.409ZM639.777 273.385L639.644 273.318L639.609 273.387L639.645 273.454L639.777 273.385ZM641.402 269.757L641.262 269.705L641.262 269.705L641.402 269.757ZM643.139 262.007L643.176 261.862L643.013 261.821L642.991 261.987L643.139 262.007ZM651.134 264.032C650.604 266.732 649.811 270.421 648.956 273.153L649.242 273.242C650.102 270.494 650.898 266.791 651.428 264.09L651.134 264.032ZM648.956 273.153C648.25 275.41 647.137 278.179 646.147 280.5L646.422 280.618C647.413 278.294 648.531 275.514 649.242 273.242L648.956 273.153ZM646.346 280.423C646.242 280.375 646.136 280.326 646.029 280.275L645.9 280.544C646.009 280.596 646.116 280.646 646.222 280.695L646.346 280.423ZM646.029 280.275C644.397 279.493 642.868 277.764 641.741 276.211C641.179 275.437 640.721 274.712 640.403 274.181C640.244 273.916 640.121 273.699 640.037 273.548C639.995 273.473 639.963 273.415 639.942 273.375C639.931 273.355 639.923 273.34 639.918 273.33C639.915 273.325 639.913 273.321 639.912 273.319C639.911 273.318 639.911 273.317 639.91 273.316C639.91 273.316 639.91 273.316 639.91 273.316C639.91 273.315 639.91 273.315 639.91 273.315C639.91 273.315 639.91 273.315 639.777 273.385C639.645 273.454 639.645 273.455 639.645 273.455C639.645 273.455 639.645 273.455 639.645 273.455C639.645 273.455 639.645 273.455 639.646 273.456C639.646 273.456 639.646 273.457 639.647 273.459C639.649 273.462 639.651 273.466 639.654 273.471C639.659 273.481 639.668 273.497 639.679 273.517C639.701 273.558 639.733 273.618 639.776 273.694C639.861 273.847 639.986 274.066 640.146 274.335C640.467 274.871 640.93 275.604 641.498 276.386C642.63 277.946 644.195 279.729 645.9 280.544L646.029 280.275ZM639.777 273.385C639.911 273.452 639.911 273.452 639.911 273.452C639.911 273.452 639.911 273.452 639.911 273.452C639.911 273.452 639.911 273.451 639.911 273.451C639.911 273.451 639.912 273.451 639.912 273.45C639.913 273.449 639.913 273.447 639.914 273.445C639.916 273.441 639.92 273.435 639.924 273.427C639.932 273.41 639.944 273.386 639.959 273.355C639.99 273.292 640.035 273.201 640.09 273.088C640.201 272.861 640.354 272.543 640.523 272.179C640.863 271.453 641.271 270.542 641.542 269.809L641.262 269.705C640.995 270.426 640.591 271.328 640.252 272.053C640.083 272.414 639.931 272.731 639.821 272.957C639.766 273.07 639.722 273.16 639.691 273.222C639.676 273.253 639.664 273.277 639.656 273.294C639.652 273.302 639.649 273.308 639.647 273.312C639.646 273.314 639.645 273.316 639.644 273.317C639.644 273.317 639.644 273.317 639.644 273.318C639.644 273.318 639.644 273.318 639.644 273.318C639.644 273.318 639.644 273.318 639.644 273.318C639.644 273.318 639.644 273.318 639.777 273.385ZM641.542 269.809C642.087 268.338 642.523 266.391 642.823 264.816C642.973 264.028 643.089 263.331 643.167 262.831C643.207 262.581 643.237 262.381 643.257 262.242C643.267 262.173 643.274 262.119 643.279 262.083C643.282 262.065 643.284 262.051 643.285 262.042C643.286 262.037 643.286 262.034 643.287 262.031C643.287 262.03 643.287 262.029 643.287 262.028C643.287 262.028 643.287 262.028 643.287 262.028C643.287 262.028 643.287 262.028 643.287 262.028C643.287 262.027 643.287 262.027 643.139 262.007C642.991 261.987 642.991 261.987 642.991 261.987C642.991 261.987 642.991 261.987 642.991 261.987C642.991 261.987 642.991 261.988 642.991 261.988C642.991 261.989 642.99 261.989 642.99 261.991C642.99 261.993 642.99 261.996 642.989 262.001C642.988 262.01 642.986 262.024 642.983 262.042C642.978 262.077 642.971 262.13 642.961 262.199C642.941 262.336 642.911 262.536 642.872 262.785C642.793 263.282 642.678 263.976 642.529 264.761C642.23 266.332 641.797 268.259 641.262 269.705L641.542 269.809ZM643.102 262.152L651.244 264.206L651.317 263.916L643.176 261.862L643.102 262.152Z" fill="#D69E75"/>
<path d="M646.736 250.39C647.059 252.723 645.416 255.139 645.416 255.139C645.416 255.139 643.759 254.163 642.94 253.301C642.004 252.316 642.239 251.2 641.124 250.39C639.967 249.55 638.935 249.209 637.493 249.471C636.386 249.672 635.635 249.974 635.017 250.85C634.24 251.951 634.84 252.914 635.017 254.22C635.226 255.761 635.143 256.825 636.172 258.05C636.91 258.927 637.823 258.969 638.648 259.735C639.474 260.501 639.309 261.267 639.969 261.88C640.629 262.493 641.333 262.51 642.28 262.646C643.044 262.755 644.26 262.646 644.26 262.646C644.26 262.646 644.256 264.991 645.086 266.169C645.736 267.093 647.104 268.613 648.087 269.233C649.929 270.394 652.433 271.378 652.928 271.684C653.424 271.991 658.645 273.235 661.642 273.403C663.775 273.523 664.343 273.308 666.483 273.403C667.9 273.467 668.464 273.516 669.845 273.216C671.248 272.911 673.146 271.684 673.146 271.684C673.146 271.684 674.305 270.289 674.632 269.233C675.023 267.968 676.165 266.974 676.165 265.658V263.721C676.165 263.721 677.037 260.98 677.133 258.88C677.229 256.788 675.776 253.928 675.127 251.922C674.662 250.486 673.972 248.547 673.972 248.547C673.972 248.547 673.843 246.054 673.972 244.416C674.055 243.342 673.972 242.271 673.972 241.658C673.972 241.045 672.278 238.741 671.496 236.756C670.604 234.494 669.845 230.781 669.845 230.781C669.845 230.781 668.855 233.079 667.369 233.998C665.883 234.918 662.252 236.143 660.767 236.449C659.281 236.756 654.329 235.683 650.863 236.449C647.397 237.215 647.9 237.147 646.736 238.441C645.112 240.247 645.911 244.416 645.911 244.416L646.736 250.39Z" fill="#E7B58E"/>
<path fill-rule="evenodd" clip-rule="evenodd" d="M652.723 269.372C652.466 267.862 651.964 266.111 651.008 264.451C650.588 263.724 650.097 263.203 649.626 262.704C648.959 261.997 648.335 261.334 648.016 260.191C647.521 258.412 648.222 257.125 648.977 255.738C649.515 254.749 650.081 253.71 650.26 252.406C650.665 249.45 650.26 244.768 650.26 244.768V240.068C650.26 239.233 651.19 237.849 652.203 236.589C651.543 236.623 650.902 236.699 650.308 236.838C647.596 237.472 647.566 237.509 646.929 238.307C646.829 238.433 646.713 238.578 646.569 238.747C645.097 240.479 645.821 244.476 645.821 244.476L646.569 250.204C646.861 252.441 645.372 254.758 645.372 254.758C645.372 254.758 643.871 253.821 643.129 252.995C642.743 252.566 642.577 252.111 642.416 251.67C642.222 251.139 642.035 250.628 641.484 250.204C640.434 249.398 639.5 249.072 638.193 249.323C637.19 249.516 636.509 249.806 635.949 250.645C635.431 251.423 635.589 252.129 635.773 252.947C635.838 253.24 635.907 253.547 635.949 253.876C635.983 254.143 636.009 254.394 636.033 254.634C636.144 255.727 636.232 256.586 636.996 257.549C637.361 258.008 637.774 258.228 638.195 258.454C638.544 258.641 638.9 258.831 639.24 259.164C639.635 259.552 639.779 259.94 639.916 260.306C640.038 260.633 640.154 260.943 640.437 261.221C640.96 261.735 641.514 261.812 642.219 261.91C642.319 261.924 642.423 261.939 642.531 261.955C643.223 262.06 644.325 261.955 644.325 261.955C644.325 261.955 644.321 264.203 645.073 265.334C645.558 266.061 646.059 266.382 646.716 266.803C646.859 266.894 647.009 266.99 647.167 267.096C648.273 267.834 649.817 268.303 650.864 268.621C651.398 268.784 651.802 268.906 651.954 269.006C652.054 269.071 652.326 269.202 652.723 269.372Z" fill="#E2AD84"/>
<path d="M675.573 257.142L673.607 259.108C673.571 259.144 673.551 259.194 673.551 259.245V270.999C673.551 271.172 673.759 271.258 673.881 271.136L674.56 270.458C674.571 270.447 674.579 270.437 674.587 270.424C674.767 270.128 677.155 266.157 677.651 263.265C678.149 260.366 677.051 256.734 676.62 255.468C676.563 255.302 676.337 255.298 676.272 255.461L675.616 257.078C675.606 257.102 675.592 257.124 675.573 257.142Z" fill="#443A32"/>
<path d="M628.991 224.662C627.65 228.331 628.108 234.33 628.18 235.159C628.185 235.222 628.217 235.274 628.269 235.309C629.003 235.794 634.568 239.418 638.829 240.552C644.309 242.01 647.82 241.633 653.485 240.905C662.125 239.794 673.725 233.099 674.788 232.477C674.843 232.445 674.872 232.396 674.88 232.333C674.973 231.638 675.499 227.385 674.867 224.662C673.972 220.811 672.754 218.568 669.747 215.659C665.25 211.307 660.761 209.936 654.087 209.568C647.66 209.213 643.477 210.26 638.227 213.54C633.241 216.655 630.864 219.542 628.991 224.662Z" fill="#174E80"/>
<path d="M647.762 238.486C650.123 236.665 653.332 234.356 656.016 233.019C660.072 231 662.501 230.024 666.908 229.22C669.044 228.831 672.026 228.713 673.752 228.677C674.646 228.659 675.508 228.982 676.188 229.565L685.477 237.532C685.245 239.198 683.809 240.431 682.128 240.494C680.58 240.552 678.709 240.68 677.253 240.958C672.437 241.876 669.868 243.283 665.526 245.703C663.026 247.096 659.87 249.449 657.962 250.93C657.014 251.665 655.646 251.526 654.885 250.599L647.613 244.056C645.92 242.533 645.959 239.877 647.762 238.486Z" fill="#2E679B"/>
<path d="M660.188 261.893L644.579 255.975C644.579 255.975 643.234 260.783 643.603 263.866C643.792 265.442 643.736 266.471 644.579 267.811C645.951 269.991 647.384 269.614 650.432 270.77L658.237 273.728C661.285 274.884 669.718 277.33 664.839 274.371C659.961 271.412 660.188 267.811 660.188 267.811V261.893Z" fill="#443A32"/>
<path d="M659.998 260.865C661.41 258.936 665.807 258.929 665.807 258.929C665.807 258.929 668.152 257.649 669.68 257.961C671.016 258.233 671.748 258.821 672.585 259.897C673.768 261.419 673.347 262.821 673.553 264.738C673.794 266.994 674.372 268.432 673.553 270.547C673.061 271.819 672.693 272.615 671.616 273.452C670.095 274.636 668.694 274.232 666.775 274.42C664.894 274.605 664.153 274.383 662.903 273.452C661.809 272.638 661.61 271.749 660.966 270.547C659.838 268.439 658.975 267.129 659.03 264.738C659.066 263.18 659.077 262.123 659.998 260.865Z" stroke="#443A32" stroke-width="2.4205"/>
<path d="M666.773 268.562C663.743 268.897 659.027 267.594 659.027 267.594L660.964 274.371H667.741L672.582 272.435L674.519 265.658C674.519 265.658 669.984 268.207 666.773 268.562Z" fill="#443A32"/>
</g>
<rect x="577.699" y="103" width="139.421" height="193.64" rx="15.4912" stroke="#F4F4F4" stroke-width="1.9364"/>
</g>
</g>
<defs>
<filter id="filter0_d_498_5897" x="73.2661" y="96.2227" width="156.851" height="211.067" filterUnits="userSpaceOnUse" color-interpolation-filters="sRGB">
<feFlood flood-opacity="0" result="BackgroundImageFix"/>
<feColorMatrix in="SourceAlpha" type="matrix" values="0 0 0 0 0 0 0 0 0 0 0 0 0 0 0 0 0 0 127 0" result="hardAlpha"/>
<feOffset dy="1.9364"/>
<feGaussianBlur stdDeviation="3.8728"/>
<feComposite in2="hardAlpha" operator="out"/>
<feColorMatrix type="matrix" values="0 0 0 0 0.838184 0 0 0 0 0.838184 0 0 0 0 0.838184 0 0 0 0.25 0"/>
<feBlend mode="normal" in2="BackgroundImageFix" result="effect1_dropShadow_498_5897"/>
<feBlend mode="normal" in="SourceGraphic" in2="effect1_dropShadow_498_5897" result="shape"/>
</filter>
<filter id="filter1_d_498_5897" x="238.508" y="96.2227" width="156.851" height="211.067" filterUnits="userSpaceOnUse" color-interpolation-filters="sRGB">
<feFlood flood-opacity="0" result="BackgroundImageFix"/>
<feColorMatrix in="SourceAlpha" type="matrix" values="0 0 0 0 0 0 0 0 0 0 0 0 0 0 0 0 0 0 127 0" result="hardAlpha"/>
<feOffset dy="1.9364"/>
<feGaussianBlur stdDeviation="3.8728"/>
<feComposite in2="hardAlpha" operator="out"/>
<feColorMatrix type="matrix" values="0 0 0 0 0.838184 0 0 0 0 0.838184 0 0 0 0 0.838184 0 0 0 0.25 0"/>
<feBlend mode="normal" in2="BackgroundImageFix" result="effect1_dropShadow_498_5897"/>
<feBlend mode="normal" in="SourceGraphic" in2="effect1_dropShadow_498_5897" result="shape"/>
</filter>
<filter id="filter2_d_498_5897" x="403.747" y="96.2227" width="156.851" height="211.067" filterUnits="userSpaceOnUse" color-interpolation-filters="sRGB">
<feFlood flood-opacity="0" result="BackgroundImageFix"/>
<feColorMatrix in="SourceAlpha" type="matrix" values="0 0 0 0 0 0 0 0 0 0 0 0 0 0 0 0 0 0 127 0" result="hardAlpha"/>
<feOffset dy="1.9364"/>
<feGaussianBlur stdDeviation="3.8728"/>
<feComposite in2="hardAlpha" operator="out"/>
<feColorMatrix type="matrix" values="0 0 0 0 0.838184 0 0 0 0 0.838184 0 0 0 0 0.838184 0 0 0 0.25 0"/>
<feBlend mode="normal" in2="BackgroundImageFix" result="effect1_dropShadow_498_5897"/>
<feBlend mode="normal" in="SourceGraphic" in2="effect1_dropShadow_498_5897" result="shape"/>
</filter>
<filter id="filter3_d_498_5897" x="568.985" y="96.2227" width="156.851" height="211.067" filterUnits="userSpaceOnUse" color-interpolation-filters="sRGB">
<feFlood flood-opacity="0" result="BackgroundImageFix"/>
<feColorMatrix in="SourceAlpha" type="matrix" values="0 0 0 0 0 0 0 0 0 0 0 0 0 0 0 0 0 0 127 0" result="hardAlpha"/>
<feOffset dy="1.9364"/>
<feGaussianBlur stdDeviation="3.8728"/>
<feComposite in2="hardAlpha" operator="out"/>
<feColorMatrix type="matrix" values="0 0 0 0 0.838184 0 0 0 0 0.838184 0 0 0 0 0.838184 0 0 0 0.25 0"/>
<feBlend mode="normal" in2="BackgroundImageFix" result="effect1_dropShadow_498_5897"/>
<feBlend mode="normal" in="SourceGraphic" in2="effect1_dropShadow_498_5897" result="shape"/>
</filter>
<clipPath id="clip0_498_5897">
<rect width="697.104" height="193.64" fill="white" transform="translate(51 103)"/>
</clipPath>
<clipPath id="clip1_498_5897">
<rect x="81.9805" y="103" width="139.421" height="193.64" rx="15.4912" fill="white"/>
</clipPath>
<clipPath id="clip2_498_5897">
<rect x="247.223" y="103" width="139.421" height="193.64" rx="15.4912" fill="white"/>
</clipPath>
<clipPath id="clip3_498_5897">
<rect x="412.461" y="103" width="139.421" height="193.64" rx="15.4912" fill="white"/>
</clipPath>
<clipPath id="clip4_498_5897">
<rect x="577.699" y="103" width="139.421" height="193.64" rx="15.4912" fill="white"/>
</clipPath>
</defs>
</svg>
