<svg width="60" height="60" viewBox="0 0 60 60" fill="none" xmlns="http://www.w3.org/2000/svg">
<rect width="60" height="60" rx="10.5469" fill="#372583"/>
<g clip-path="url(#clip0_501_6807)">
<path d="M38.2712 30.1562C38.2712 30.3836 38.2712 30.5553 38.2712 30.7271C38.2712 30.8988 38.2775 31.0681 38.2629 31.2409C38.2183 31.2527 38.1728 31.2609 38.1269 31.2655C37.3798 31.2655 36.6327 31.2655 35.8855 31.2655C35.8539 31.2616 35.823 31.2536 35.7934 31.2418C35.7838 31.2178 35.7771 31.1927 35.7734 31.167C35.7734 25.9552 35.7734 20.7431 35.7734 15.531C35.7768 15.4956 35.783 15.4605 35.792 15.4261C35.8295 15.4138 35.8682 15.4053 35.9074 15.401C36.6458 15.401 37.3842 15.401 38.1226 15.401C38.158 15.4039 38.1931 15.4093 38.2278 15.4173C38.2419 15.4623 38.2523 15.5084 38.259 15.5551C38.2643 15.6284 38.259 15.7027 38.259 15.7765V20.5949C38.259 20.6829 38.2639 20.7705 38.2663 20.8655C38.2955 20.865 38.3246 20.8604 38.3525 20.8517C38.3809 20.8363 38.4068 20.8167 38.4295 20.7937C39.1843 20.0619 40.0921 19.6647 41.1144 19.5142C42.3472 19.336 43.5234 19.5191 44.6373 20.0826C45.5992 20.5698 46.333 21.3099 46.8938 22.2282C47.3974 23.0551 47.7012 23.99 47.7807 24.9575C47.8937 26.2242 47.6667 27.4235 47.0741 28.544C46.3345 29.9417 45.1952 30.8605 43.7057 31.3417C43.1122 31.5414 42.4903 31.6411 41.8648 31.637C41.0912 31.6246 40.3307 31.4337 39.6414 31.079C39.229 30.8666 38.8404 30.6102 38.4822 30.3142C38.4276 30.2704 38.3696 30.23 38.2712 30.1562ZM45.2332 25.5092C45.2387 25.1856 45.1999 24.8628 45.1178 24.55C44.8103 23.4181 44.134 22.6091 43.0478 22.1716C42.4479 21.9326 41.7931 21.8707 41.1597 21.993C40.0209 22.1987 39.1843 22.8296 38.66 23.867C38.3251 24.529 38.2033 25.2802 38.3116 26.0155C38.4578 27.08 38.9504 27.9323 39.8387 28.5303C40.5696 29.0224 41.3804 29.1971 42.2512 29.077C43.3607 28.9235 44.2002 28.3551 44.764 27.3807C45.0949 26.8093 45.2396 26.1838 45.2332 25.5092Z" fill="white"/>
<path d="M23.4557 28.258C23.407 28.3716 23.3728 28.4632 23.3305 28.5503C22.9523 29.3229 22.4046 29.9508 21.7225 30.4592C20.9237 31.0593 19.9826 31.4366 18.9938 31.5532C17.9632 31.6782 16.9473 31.6053 15.9791 31.2166C14.2361 30.5178 13.0813 29.2481 12.4922 27.4553C12.2294 26.642 12.1329 25.7833 12.2086 24.9312C12.4035 22.5425 13.9876 20.6104 15.904 19.8491C16.4343 19.6437 16.9911 19.5165 17.5573 19.4717C17.9857 19.4297 18.4172 19.4315 18.8452 19.4771C20.4244 19.6547 21.7444 20.3191 22.7345 21.5991C22.9388 21.8648 23.1106 22.1545 23.2462 22.4618C23.2856 22.5504 23.3178 22.6429 23.3568 22.7418C23.3201 22.7756 23.2812 22.8068 23.2403 22.8353C22.6231 23.1985 22.0059 23.5605 21.3887 23.9214C21.348 23.9425 21.3062 23.9612 21.2635 23.9775C21.1787 23.9244 21.1616 23.8397 21.1265 23.7684C20.982 23.4653 20.7948 23.185 20.5706 22.9362C20.114 22.4367 19.5429 22.1429 18.8915 22.008C18.3407 21.8928 17.7706 21.9132 17.2294 22.0676C16.4687 22.2736 15.8083 22.7522 15.3714 23.414C14.9805 23.998 14.7629 24.6826 14.7444 25.3873C14.726 26.092 14.9073 26.7873 15.2672 27.3913C15.7754 28.2314 16.5107 28.755 17.4628 28.9696C18.0119 29.0936 18.5562 29.0965 19.0956 28.9203C19.4584 28.8002 19.7976 28.617 20.0979 28.379C20.4984 28.0569 20.8547 27.6824 21.1572 27.2654C21.2152 27.1876 21.2742 27.1108 21.3341 27.0321C21.3696 27.0391 21.4042 27.0498 21.4374 27.0641C22.1016 27.4553 22.7652 27.8485 23.4557 28.258Z" fill="white"/>
<path d="M26.8226 31.2598C26.7874 31.2705 26.7514 31.2779 26.7149 31.282C25.9677 31.282 25.2213 31.282 24.4757 31.282C24.4408 31.278 24.4064 31.2708 24.3729 31.2603C24.3591 31.2145 24.3492 31.1676 24.3432 31.1201C24.3378 31.0305 24.3402 30.9399 24.3402 30.8499C24.3402 27.1869 24.3402 23.5244 24.3402 19.8624C24.3402 19.758 24.3168 19.6483 24.3792 19.5533C24.5873 19.5203 26.5838 19.5218 26.7992 19.5567C26.811 19.6084 26.8192 19.6609 26.8236 19.7137C26.826 19.9431 26.8236 20.1724 26.8236 20.4027V20.6409C26.8767 20.6827 26.9064 20.6497 26.9351 20.6232C27.1628 20.4114 27.4123 20.2248 27.6793 20.0666C28.1361 19.8001 28.6417 19.6302 29.1655 19.5671C29.4313 19.5347 29.6992 19.5232 29.9667 19.5326C30.0278 19.5377 30.0885 19.5467 30.1484 19.5597C30.1605 19.5866 30.1693 19.6148 30.1748 19.6438C30.1767 20.4312 30.1775 21.2186 30.1772 22.006C30.1747 22.0368 30.1694 22.0673 30.1611 22.0971C30.0802 22.1669 29.9867 22.1433 29.9004 22.1527C29.5944 22.1852 29.2869 22.2073 28.9823 22.2511C28.6766 22.2967 28.3815 22.3979 28.1115 22.5498C27.4804 22.8982 27.1062 23.4356 26.9712 24.1462C26.9435 24.3075 26.9258 24.4704 26.9181 24.6339C26.8489 25.7058 26.8655 26.7796 26.8577 27.8529C26.8508 28.7541 26.8461 29.6554 26.8435 30.5566C26.8435 30.7288 26.8484 30.9011 26.8465 31.0728C26.8419 31.1356 26.834 31.198 26.8226 31.2598Z" fill="white"/>
<path d="M33.6913 31.2616C33.6075 31.2715 33.5525 31.2818 33.4964 31.2838C32.707 31.3064 31.4687 31.2936 31.2485 31.2601C31.2354 31.2161 31.2257 31.1712 31.2192 31.1258C31.2134 31.0608 31.2163 30.9949 31.2163 30.9289V19.8912C31.2163 19.778 31.2066 19.6634 31.2373 19.5571C31.441 19.5221 33.4301 19.5197 33.6684 19.5536C33.6799 19.597 33.6887 19.641 33.6947 19.6855C33.6996 19.7421 33.6947 19.7997 33.6947 19.8572C33.6947 23.5609 33.6947 27.2648 33.6947 30.9688C33.6972 31.0579 33.6938 31.1474 33.6913 31.2616Z" fill="white"/>
<path d="M32.4695 15.2332C33.3685 15.2224 34.0547 15.9788 34.0493 16.8754C34.0484 17.0866 34.0061 17.2954 33.9248 17.4899C33.8434 17.6844 33.7247 17.8606 33.5755 18.0084C33.4262 18.1563 33.2494 18.2727 33.0553 18.3511C32.8612 18.4295 32.6536 18.4682 32.4446 18.465C31.701 18.4586 30.8677 17.934 30.8711 16.8499C30.8745 15.8307 31.6435 15.2136 32.4695 15.2332Z" fill="white"/>
</g>
<rect x="12.1875" y="37.2656" width="35.625" height="8.4172" rx="0.958317" fill="#FFCE44"/>
<path d="M15.8828 43.8113V39.5262H17.5232C17.8329 39.5262 18.0902 39.575 18.2953 39.6726C18.5017 39.7689 18.6559 39.9007 18.7577 40.0681C18.8609 40.2355 18.9125 40.4252 18.9125 40.6372C18.9125 40.8116 18.879 40.9608 18.8121 41.085C18.7451 41.2077 18.6552 41.3075 18.5422 41.3842C18.4292 41.4609 18.303 41.516 18.1635 41.5495V41.5913C18.3155 41.5997 18.4613 41.6464 18.6008 41.7315C18.7417 41.8152 18.8567 41.9338 18.946 42.0872C19.0353 42.2406 19.0799 42.4262 19.0799 42.6438C19.0799 42.8656 19.0262 43.065 18.9188 43.2422C18.8114 43.4179 18.6496 43.5567 18.4334 43.6586C18.2172 43.7604 17.9452 43.8113 17.6174 43.8113H15.8828ZM16.6591 43.1627H17.4939C17.7757 43.1627 17.9786 43.109 18.1028 43.0016C18.2283 42.8928 18.2911 42.7533 18.2911 42.5831C18.2911 42.4562 18.2597 42.3418 18.1969 42.2399C18.1342 42.1367 18.0449 42.0558 17.9291 41.9972C17.8133 41.9373 17.6753 41.9073 17.5148 41.9073H16.6591V43.1627ZM16.6591 41.3486H17.427C17.5609 41.3486 17.6815 41.3242 17.7889 41.2754C17.8963 41.2252 17.9807 41.1547 18.0421 41.064C18.1049 40.972 18.1363 40.8632 18.1363 40.7376C18.1363 40.5716 18.0777 40.435 17.9605 40.3275C17.8447 40.2201 17.6725 40.1664 17.4437 40.1664H16.6591V41.3486Z" fill="#372583"/>
<path d="M22.4564 39.5262H23.2327V42.3257C23.2327 42.6326 23.1602 42.9025 23.0151 43.1355C22.8714 43.3684 22.6692 43.5504 22.4083 43.6816C22.1475 43.8113 21.8427 43.8762 21.494 43.8762C21.1438 43.8762 20.8384 43.8113 20.5775 43.6816C20.3167 43.5504 20.1144 43.3684 19.9707 43.1355C19.8271 42.9025 19.7552 42.6326 19.7552 42.3257V39.5262H20.5315V42.2609C20.5315 42.4394 20.5705 42.5984 20.6486 42.7379C20.7282 42.8774 20.8397 42.9869 20.9834 43.0664C21.1271 43.1445 21.2973 43.1836 21.494 43.1836C21.6906 43.1836 21.8608 43.1445 22.0045 43.0664C22.1496 42.9869 22.2611 42.8774 22.3393 42.7379C22.4174 42.5984 22.4564 42.4394 22.4564 42.2609V39.5262Z" fill="#372583"/>
<path d="M26.4052 40.7042C26.3857 40.5214 26.3034 40.3792 26.1583 40.2773C26.0146 40.1755 25.8277 40.1246 25.5976 40.1246C25.4358 40.1246 25.297 40.149 25.1812 40.1978C25.0654 40.2466 24.9768 40.3129 24.9155 40.3966C24.8541 40.4803 24.8227 40.5758 24.8213 40.6832C24.8213 40.7725 24.8415 40.8499 24.882 40.9155C24.9238 40.9811 24.9803 41.0368 25.0515 41.0829C25.1226 41.1275 25.2014 41.1652 25.2879 41.1959C25.3744 41.2266 25.4616 41.2524 25.5494 41.2733L25.9512 41.3737C26.113 41.4114 26.2685 41.4623 26.4178 41.5265C26.5684 41.5906 26.703 41.6715 26.8216 41.7692C26.9415 41.8668 27.0364 41.9847 27.1061 42.1228C27.1759 42.2609 27.2108 42.4227 27.2108 42.6082C27.2108 42.8593 27.1466 43.0804 27.0183 43.2715C26.8899 43.4612 26.7044 43.6097 26.4617 43.7171C26.2204 43.8232 25.9281 43.8762 25.585 43.8762C25.2516 43.8762 24.9622 43.8245 24.7167 43.7213C24.4726 43.6181 24.2815 43.4675 24.1434 43.2694C24.0067 43.0713 23.9328 42.83 23.9216 42.5454H24.6853C24.6965 42.6947 24.7425 42.8188 24.8234 42.9179C24.9043 43.0169 25.0096 43.0908 25.1393 43.1397C25.2705 43.1885 25.4169 43.2129 25.5787 43.2129C25.7475 43.2129 25.8954 43.1878 26.0223 43.1376C26.1506 43.0859 26.2511 43.0148 26.3236 42.9241C26.3961 42.8321 26.4331 42.7247 26.4345 42.6019C26.4331 42.4903 26.4003 42.3983 26.3362 42.3257C26.272 42.2518 26.182 42.1904 26.0662 42.1416C25.9519 42.0914 25.818 42.0468 25.6645 42.0077L25.177 41.8822C24.8241 41.7915 24.5451 41.6541 24.3401 41.47C24.1364 41.2844 24.0346 41.0382 24.0346 40.7314C24.0346 40.4789 24.1029 40.2578 24.2396 40.0681C24.3777 39.8784 24.5653 39.7312 24.8025 39.6266C25.0396 39.5206 25.3081 39.4676 25.608 39.4676C25.9121 39.4676 26.1785 39.5206 26.4073 39.6266C26.6375 39.7312 26.8181 39.877 26.9492 40.0639C27.0803 40.2494 27.148 40.4628 27.1522 40.7042H26.4052Z" fill="#372583"/>
<path d="M28.6791 39.5262V43.8113H27.9028V39.5262H28.6791Z" fill="#372583"/>
<path d="M33.0411 39.5262V43.8113H32.3506L30.3315 40.8925H30.2959V43.8113H29.5197V39.5262H30.2143L32.2313 42.4471H32.269V39.5262H33.0411Z" fill="#372583"/>
<path d="M33.8869 43.8113V39.5262H36.6739V40.1769H34.6632V41.3402H36.5295V41.991H34.6632V43.1606H36.6906V43.8113H33.8869Z" fill="#372583"/>
<path d="M39.7946 40.7042C39.7751 40.5214 39.6928 40.3792 39.5477 40.2773C39.4041 40.1755 39.2171 40.1246 38.987 40.1246C38.8252 40.1246 38.6864 40.149 38.5706 40.1978C38.4548 40.2466 38.3663 40.3129 38.3049 40.3966C38.2435 40.4803 38.2121 40.5758 38.2107 40.6832C38.2107 40.7725 38.231 40.8499 38.2714 40.9155C38.3132 40.9811 38.3697 41.0368 38.4409 41.0829C38.512 41.1275 38.5908 41.1652 38.6773 41.1959C38.7638 41.2266 38.851 41.2524 38.9389 41.2733L39.3406 41.3737C39.5024 41.4114 39.6579 41.4623 39.8072 41.5265C39.9578 41.5906 40.0924 41.6715 40.211 41.7692C40.331 41.8668 40.4258 41.9847 40.4956 42.1228C40.5653 42.2609 40.6002 42.4227 40.6002 42.6082C40.6002 42.8593 40.536 43.0804 40.4077 43.2715C40.2794 43.4612 40.0938 43.6097 39.8511 43.7171C39.6098 43.8232 39.3176 43.8762 38.9744 43.8762C38.641 43.8762 38.3516 43.8245 38.1061 43.7213C37.862 43.6181 37.6709 43.4675 37.5328 43.2694C37.3961 43.0713 37.3222 42.83 37.311 42.5454H38.0747C38.0859 42.6947 38.1319 42.8188 38.2128 42.9179C38.2937 43.0169 38.399 43.0908 38.5288 43.1397C38.6599 43.1885 38.8063 43.2129 38.9682 43.2129C39.1369 43.2129 39.2848 43.1878 39.4117 43.1376C39.5401 43.0859 39.6405 43.0148 39.713 42.9241C39.7856 42.8321 39.8225 42.7247 39.8239 42.6019C39.8225 42.4903 39.7897 42.3983 39.7256 42.3257C39.6614 42.2518 39.5714 42.1904 39.4557 42.1416C39.3413 42.0914 39.2074 42.0468 39.0539 42.0077L38.5664 41.8822C38.2135 41.7915 37.9345 41.6541 37.7295 41.47C37.5258 41.2844 37.424 41.0382 37.424 40.7314C37.424 40.4789 37.4924 40.2578 37.6291 40.0681C37.7671 39.8784 37.9548 39.7312 38.1919 39.6266C38.429 39.5206 38.6975 39.4676 38.9974 39.4676C39.3015 39.4676 39.568 39.5206 39.7967 39.6266C40.0269 39.7312 40.2075 39.877 40.3386 40.0639C40.4698 40.2494 40.5374 40.4628 40.5416 40.7042H39.7946Z" fill="#372583"/>
<path d="M43.621 40.7042C43.6015 40.5214 43.5192 40.3792 43.3741 40.2773C43.2304 40.1755 43.0435 40.1246 42.8134 40.1246C42.6515 40.1246 42.5128 40.149 42.397 40.1978C42.2812 40.2466 42.1926 40.3129 42.1313 40.3966C42.0699 40.4803 42.0385 40.5758 42.0371 40.6832C42.0371 40.7725 42.0573 40.8499 42.0978 40.9155C42.1396 40.9811 42.1961 41.0368 42.2673 41.0829C42.3384 41.1275 42.4172 41.1652 42.5037 41.1959C42.5902 41.2266 42.6774 41.2524 42.7652 41.2733L43.167 41.3737C43.3288 41.4114 43.4843 41.4623 43.6336 41.5265C43.7842 41.5906 43.9188 41.6715 44.0374 41.7692C44.1573 41.8668 44.2522 41.9847 44.3219 42.1228C44.3917 42.2609 44.4266 42.4227 44.4266 42.6082C44.4266 42.8593 44.3624 43.0804 44.2341 43.2715C44.1057 43.4612 43.9202 43.6097 43.6775 43.7171C43.4362 43.8232 43.1439 43.8762 42.8008 43.8762C42.4674 43.8762 42.178 43.8245 41.9325 43.7213C41.6884 43.6181 41.4973 43.4675 41.3592 43.2694C41.2225 43.0713 41.1485 42.83 41.1374 42.5454H41.9011C41.9123 42.6947 41.9583 42.8188 42.0392 42.9179C42.1201 43.0169 42.2254 43.0908 42.3551 43.1397C42.4863 43.1885 42.6327 43.2129 42.7945 43.2129C42.9633 43.2129 43.1112 43.1878 43.2381 43.1376C43.3664 43.0859 43.4669 43.0148 43.5394 42.9241C43.6119 42.8321 43.6489 42.7247 43.6503 42.6019C43.6489 42.4903 43.6161 42.3983 43.552 42.3257C43.4878 42.2518 43.3978 42.1904 43.282 42.1416C43.1677 42.0914 43.0337 42.0468 42.8803 42.0077L42.3928 41.8822C42.0399 41.7915 41.7609 41.6541 41.5559 41.47C41.3522 41.2844 41.2504 41.0382 41.2504 40.7314C41.2504 40.4789 41.3187 40.2578 41.4554 40.0681C41.5935 39.8784 41.7811 39.7312 42.0183 39.6266C42.2554 39.5206 42.5239 39.4676 42.8238 39.4676C43.1279 39.4676 43.3943 39.5206 43.6231 39.6266C43.8533 39.7312 44.0339 39.877 44.165 40.0639C44.2961 40.2494 44.3638 40.4628 44.368 40.7042H43.621Z" fill="#372583"/>
<defs>
<clipPath id="clip0_501_6807">
<rect width="35.625" height="16.4062" fill="white" transform="translate(12.1875 15.2344)"/>
</clipPath>
</defs>
</svg>
