<svg width="336" height="324" viewBox="0 0 336 324" fill="none" xmlns="http://www.w3.org/2000/svg">
<g filter="url(#filter0_d_493_14043)">
<rect x="4" y="3" width="328" height="316" rx="8" fill="white" shape-rendering="crispEdges"/>
<g clip-path="url(#clip0_493_14043)">
<g clip-path="url(#clip1_493_14043)">
<path d="M19.762 23.842V37H17.458V23.842H19.762ZM24.5507 37H22.3547V28.108H24.3887L24.5687 29.26C25.1267 28.36 26.2067 27.838 27.4127 27.838C29.6447 27.838 30.7967 29.224 30.7967 31.528V37H28.6007V32.05C28.6007 30.556 27.8627 29.836 26.7287 29.836C25.3787 29.836 24.5507 30.772 24.5507 32.212V37ZM35.2985 37L31.7705 28.108H34.1105L35.6585 32.194C36.0365 33.256 36.3425 34.174 36.4505 34.66C36.5765 34.102 36.9005 33.166 37.2785 32.194L38.8985 28.108H41.1665L37.4585 37H35.2985ZM45.9675 37.234C43.3215 37.234 41.4675 35.308 41.4675 32.554C41.4675 29.764 43.2855 27.838 45.8955 27.838C48.5595 27.838 50.2515 29.62 50.2515 32.392V33.058L43.5555 33.076C43.7175 34.642 44.5455 35.434 46.0035 35.434C47.2095 35.434 48.0015 34.966 48.2535 34.12H50.2875C49.9095 36.064 48.2895 37.234 45.9675 37.234ZM45.9135 29.638C44.6175 29.638 43.8255 30.34 43.6095 31.672H48.0735C48.0735 30.448 47.2275 29.638 45.9135 29.638ZM54.205 37H52.009V28.108H54.043L54.223 29.26C54.781 28.36 55.861 27.838 57.067 27.838C59.299 27.838 60.451 29.224 60.451 31.528V37H58.255V32.05C58.255 30.556 57.517 29.836 56.383 29.836C55.033 29.836 54.205 30.772 54.205 32.212V37ZM65.6326 37H63.4366V29.944H61.7266V28.108H63.4366V25.336H65.6326V28.108H67.3606V29.944H65.6326V37ZM68.1159 32.536C68.1159 29.764 70.1139 27.856 72.8679 27.856C75.6219 27.856 77.6199 29.764 77.6199 32.536C77.6199 35.308 75.6219 37.216 72.8679 37.216C70.1139 37.216 68.1159 35.308 68.1159 32.536ZM70.3119 32.536C70.3119 34.156 71.3559 35.254 72.8679 35.254C74.3799 35.254 75.4239 34.156 75.4239 32.536C75.4239 30.916 74.3799 29.818 72.8679 29.818C71.3559 29.818 70.3119 30.916 70.3119 32.536ZM84.9406 28.072V30.106H84.1306C82.5466 30.106 81.5566 30.952 81.5566 32.68V37H79.3606V28.126H81.4306L81.5566 29.422C81.9346 28.54 82.7806 27.946 83.9686 27.946C84.2746 27.946 84.5806 27.982 84.9406 28.072ZM85.9166 41.122V39.286H87.2306C88.0946 39.286 88.6346 39.088 89.0126 38.044L89.2646 37.378L85.6826 28.108H88.0046L90.2906 34.588L92.7026 28.108H94.9706L90.6146 38.98C89.9486 40.636 89.0126 41.32 87.5546 41.32C86.9426 41.32 86.4026 41.248 85.9166 41.122Z" fill="#222222"/>
<path d="M274.207 36L270.371 25.976H271.449L274.123 32.948C274.333 33.494 274.529 34.04 274.753 34.74C274.963 34.012 275.215 33.312 275.369 32.934L278.029 25.976H279.065L275.257 36H274.207ZM280.754 27.362C280.362 27.362 280.04 27.04 280.04 26.648C280.04 26.256 280.362 25.92 280.754 25.92C281.146 25.92 281.482 26.256 281.482 26.648C281.482 27.04 281.146 27.362 280.754 27.362ZM280.278 36V29.224H281.244V36H280.278ZM286.171 36.168C284.183 36.168 282.853 34.74 282.853 32.612C282.853 30.498 284.169 29.042 286.101 29.042C287.935 29.042 289.181 30.344 289.181 32.262V32.738H283.791C283.861 34.39 284.729 35.342 286.185 35.342C287.291 35.342 288.005 34.866 288.257 33.97H289.181C288.817 35.398 287.767 36.168 286.171 36.168ZM286.101 29.868C284.827 29.868 283.987 30.708 283.819 32.038H288.215C288.215 30.736 287.375 29.868 286.101 29.868ZM292.045 36L289.805 29.224H290.799L292.129 33.312C292.283 33.76 292.409 34.222 292.549 34.768C292.661 34.222 292.885 33.536 292.955 33.312L294.299 29.224H295.293L296.623 33.312C296.749 33.676 296.917 34.264 297.043 34.768C297.183 34.208 297.211 34.04 297.449 33.312L298.793 29.224H299.801L297.505 36H296.567L295.167 31.744C294.999 31.24 294.887 30.82 294.803 30.414C294.705 30.778 294.593 31.184 294.411 31.744L293.011 36H292.045Z" fill="#6F6F6F"/>
<g clip-path="url(#clip2_493_14043)">
<path d="M307.74 26.0917C307.415 26.4167 307.415 26.9417 307.74 27.2667L310.973 30.5001L307.74 33.7334C307.415 34.0584 307.415 34.5834 307.74 34.9084C308.065 35.2334 308.59 35.2334 308.915 34.9084L312.74 31.0834C313.065 30.7584 313.065 30.2334 312.74 29.9084L308.915 26.0834C308.598 25.7667 308.065 25.7667 307.74 26.0917Z" fill="#6F6F6F"/>
</g>
<path d="M261 155C262.657 155 264.005 153.656 263.951 152C263.396 135.086 258.161 118.62 248.782 104.39C239.389 90.1399 226.221 78.7091 210.724 71.3156C209.241 70.6081 207.483 71.2843 206.804 72.7804L199.651 88.5459C198.961 90.0675 199.65 91.8542 201.15 92.5908C212.455 98.1436 222.065 106.58 228.961 117.043C235.857 127.505 239.766 139.578 240.309 152.001C240.382 153.656 241.718 155 243.375 155H261Z" fill="#E4E4E4"/>
<path d="M221.135 80.3227C222.079 78.9613 221.744 77.0878 220.353 76.187C206.778 67.3937 191.157 62.2231 174.981 61.1948C157.807 60.103 140.661 63.7225 125.393 71.6626C110.126 79.6027 97.3164 91.5619 88.3483 106.249C79.9019 120.082 75.1648 135.841 74.5687 152.004C74.5076 153.66 75.8488 155.01 77.5056 155.019L95.1261 155.109C96.7829 155.117 98.1263 153.78 98.2049 152.125C98.7681 140.265 102.304 128.72 108.508 118.559C115.234 107.543 124.841 98.5738 136.292 92.6187C147.742 86.6636 160.602 83.949 173.483 84.7678C185.364 85.5232 196.847 89.2584 206.88 95.6076C208.28 96.4936 210.146 96.1615 211.09 94.8002L221.135 80.3227Z" fill="#0DAA84"/>
<path d="M153.552 125.108H151.06V129H147.672V125.108H137.284V121.972L146.552 108.532H151.06V121.972H153.552V125.108ZM141.092 121.972H147.672V112.396L141.092 121.972ZM155.778 123.204C155.778 120.768 157.15 118.808 159.278 117.996C157.486 117.184 156.506 115.644 156.506 113.656C156.506 110.408 159.39 108.168 163.618 108.168C167.818 108.168 170.646 110.38 170.646 113.712C170.646 115.7 169.638 117.24 167.818 117.996C169.974 118.752 171.374 120.74 171.374 123.204C171.374 126.9 168.322 129.336 163.562 129.336C158.83 129.336 155.778 126.928 155.778 123.204ZM159.754 113.964C159.754 115.672 161.238 116.764 163.562 116.764C165.858 116.764 167.314 115.7 167.314 113.992C167.314 112.284 165.858 111.22 163.562 111.22C161.238 111.22 159.754 112.284 159.754 113.964ZM159.278 122.952C159.278 124.94 160.93 126.172 163.59 126.172C166.194 126.172 167.846 124.94 167.846 122.952C167.846 120.964 166.194 119.732 163.562 119.732C160.93 119.732 159.278 120.964 159.278 122.952ZM184.187 113.516C184.187 116.68 181.947 118.892 178.839 118.892C175.731 118.892 173.491 116.68 173.491 113.516C173.491 110.38 175.731 108.14 178.839 108.14C181.947 108.14 184.187 110.38 184.187 113.516ZM195.415 108.56L179.875 129H176.459L191.999 108.56H195.415ZM181.471 113.516C181.471 111.892 180.407 110.772 178.839 110.772C177.271 110.772 176.235 111.892 176.235 113.516C176.235 115.14 177.299 116.26 178.839 116.26C180.407 116.26 181.471 115.14 181.471 113.516ZM198.411 123.988C198.411 127.124 196.199 129.364 193.091 129.364C189.955 129.364 187.743 127.124 187.743 123.988C187.743 120.852 189.955 118.612 193.091 118.612C196.199 118.612 198.411 120.852 198.411 123.988ZM195.695 123.988C195.695 122.364 194.631 121.244 193.091 121.244C191.523 121.244 190.459 122.364 190.459 123.988C190.459 125.612 191.523 126.732 193.091 126.732C194.631 126.732 195.695 125.612 195.695 123.988Z" fill="#222222"/>
<path d="M144.425 146.346C144.425 149.167 142.592 151.156 139.992 151.156C137.379 151.156 135.559 149.167 135.559 146.346C135.559 143.525 137.392 141.523 139.992 141.523C142.605 141.523 144.425 143.512 144.425 146.346ZM143.463 146.346C143.463 144.019 142.046 142.433 139.992 142.433C137.938 142.433 136.534 144.019 136.534 146.346C136.534 148.673 137.938 150.259 139.992 150.259C142.046 150.259 143.463 148.66 143.463 146.346ZM145.55 147.867C145.55 145.891 146.759 144.539 148.592 144.539C150.048 144.539 151.114 145.384 151.361 146.684H150.464C150.23 145.813 149.476 145.332 148.605 145.332C147.331 145.332 146.434 146.307 146.434 147.854C146.434 149.349 147.266 150.35 148.54 150.35C149.476 150.35 150.23 149.83 150.477 149.024H151.387C151.088 150.311 149.97 151.156 148.54 151.156C146.759 151.156 145.55 149.843 145.55 147.867ZM152.369 147.867C152.369 145.891 153.578 144.539 155.411 144.539C156.867 144.539 157.933 145.384 158.18 146.684H157.283C157.049 145.813 156.295 145.332 155.424 145.332C154.15 145.332 153.253 146.307 153.253 147.854C153.253 149.349 154.085 150.35 155.359 150.35C156.295 150.35 157.049 149.83 157.296 149.024H158.206C157.907 150.311 156.789 151.156 155.359 151.156C153.578 151.156 152.369 149.843 152.369 147.867ZM164.05 144.708H164.947V151H164.167L164.05 149.934C163.699 150.662 162.828 151.156 161.84 151.156C160.358 151.156 159.552 150.142 159.552 148.608V144.695H160.462V148.322C160.462 149.817 161.125 150.35 162.126 150.35C163.335 150.35 164.05 149.544 164.05 148.049V144.708ZM166.881 153.743V144.708H167.661L167.752 145.982C168.194 145.007 169.078 144.539 170.131 144.539C171.951 144.539 173.043 145.93 173.043 147.828C173.043 149.726 171.99 151.156 170.131 151.156C169.065 151.156 168.22 150.701 167.778 149.791V153.743H166.881ZM167.791 147.854C167.791 149.297 168.597 150.35 169.975 150.35C171.34 150.35 172.133 149.297 172.133 147.854C172.133 146.398 171.34 145.358 169.975 145.358C168.597 145.358 167.791 146.398 167.791 147.854ZM176.344 151.156C175.005 151.156 174.212 150.402 174.212 149.297C174.212 148.14 175.096 147.412 176.565 147.295L178.645 147.126V146.918C178.645 145.683 177.904 145.293 176.981 145.293C175.889 145.293 175.239 145.787 175.239 146.632H174.42C174.42 145.358 175.46 144.539 177.007 144.539C178.463 144.539 179.529 145.267 179.529 146.931V151H178.775L178.658 149.895C178.268 150.688 177.41 151.156 176.344 151.156ZM176.552 150.428C177.878 150.428 178.645 149.505 178.645 148.14V147.802L176.786 147.945C175.603 148.049 175.122 148.569 175.122 149.271C175.122 150.038 175.694 150.428 176.552 150.428ZM182.291 151H181.394V144.708H182.174L182.304 145.8C182.72 144.994 183.552 144.539 184.462 144.539C186.191 144.539 186.906 145.566 186.906 147.152V151H186.009V147.347C186.009 145.878 185.346 145.358 184.306 145.358C183.019 145.358 182.291 146.294 182.291 147.711V151ZM188.317 147.867C188.317 145.891 189.526 144.539 191.359 144.539C192.815 144.539 193.881 145.384 194.128 146.684H193.231C192.997 145.813 192.243 145.332 191.372 145.332C190.098 145.332 189.201 146.307 189.201 147.854C189.201 149.349 190.033 150.35 191.307 150.35C192.243 150.35 192.997 149.83 193.244 149.024H194.154C193.855 150.311 192.737 151.156 191.307 151.156C189.526 151.156 188.317 149.843 188.317 147.867ZM194.814 153.743V153.002H195.503C196.049 153.002 196.595 152.963 196.907 152.118L197.18 151.377L194.632 144.708H195.581L197.609 150.194L199.598 144.708H200.521L197.635 152.443C197.271 153.431 196.66 153.834 195.763 153.834C195.386 153.834 195.1 153.808 194.814 153.743Z" fill="#6F6F6F"/>
<rect x="77" y="177" width="12" height="12" rx="4" fill="#0DAA84"/>
<path d="M62.65 203.988C62.65 207.026 60.676 209.168 57.876 209.168C55.062 209.168 53.102 207.026 53.102 203.988C53.102 200.95 55.076 198.794 57.876 198.794C60.69 198.794 62.65 200.936 62.65 203.988ZM61.614 203.988C61.614 201.482 60.088 199.774 57.876 199.774C55.664 199.774 54.152 201.482 54.152 203.988C54.152 206.494 55.664 208.202 57.876 208.202C60.088 208.202 61.614 206.48 61.614 203.988ZM63.8618 205.626C63.8618 203.498 65.1638 202.042 67.1378 202.042C68.7058 202.042 69.8538 202.952 70.1198 204.352H69.1538C68.9018 203.414 68.0898 202.896 67.1518 202.896C65.7798 202.896 64.8138 203.946 64.8138 205.612C64.8138 207.222 65.7098 208.3 67.0818 208.3C68.0898 208.3 68.9018 207.74 69.1678 206.872H70.1478C69.8258 208.258 68.6218 209.168 67.0818 209.168C65.1638 209.168 63.8618 207.754 63.8618 205.626ZM71.2052 205.626C71.2052 203.498 72.5072 202.042 74.4812 202.042C76.0492 202.042 77.1972 202.952 77.4632 204.352H76.4972C76.2452 203.414 75.4332 202.896 74.4952 202.896C73.1232 202.896 72.1572 203.946 72.1572 205.612C72.1572 207.222 73.0532 208.3 74.4252 208.3C75.4332 208.3 76.2452 207.74 76.5112 206.872H77.4912C77.1692 208.258 75.9652 209.168 74.4252 209.168C72.5072 209.168 71.2052 207.754 71.2052 205.626ZM83.7846 202.224H84.7506V209H83.9106L83.7846 207.852C83.4066 208.636 82.4686 209.168 81.4046 209.168C79.8086 209.168 78.9406 208.076 78.9406 206.424V202.21H79.9206V206.116C79.9206 207.726 80.6346 208.3 81.7126 208.3C83.0146 208.3 83.7846 207.432 83.7846 205.822V202.224ZM86.8329 211.954V202.224H87.6729L87.7709 203.596C88.2469 202.546 89.1989 202.042 90.3329 202.042C92.2929 202.042 93.4689 203.54 93.4689 205.584C93.4689 207.628 92.3349 209.168 90.3329 209.168C89.1849 209.168 88.2749 208.678 87.7989 207.698V211.954H86.8329ZM87.8129 205.612C87.8129 207.166 88.6809 208.3 90.1649 208.3C91.6349 208.3 92.4889 207.166 92.4889 205.612C92.4889 204.044 91.6349 202.924 90.1649 202.924C88.6809 202.924 87.8129 204.044 87.8129 205.612ZM95.5547 200.362C95.1627 200.362 94.8407 200.04 94.8407 199.648C94.8407 199.256 95.1627 198.92 95.5547 198.92C95.9467 198.92 96.2827 199.256 96.2827 199.648C96.2827 200.04 95.9467 200.362 95.5547 200.362ZM95.0787 209V202.224H96.0447V209H95.0787ZM100.971 209.168C98.9832 209.168 97.6532 207.74 97.6532 205.612C97.6532 203.498 98.9692 202.042 100.901 202.042C102.735 202.042 103.981 203.344 103.981 205.262V205.738H98.5912C98.6612 207.39 99.5292 208.342 100.985 208.342C102.091 208.342 102.805 207.866 103.057 206.97H103.981C103.617 208.398 102.567 209.168 100.971 209.168ZM100.901 202.868C99.6272 202.868 98.7872 203.708 98.6192 205.038H103.015C103.015 203.736 102.175 202.868 100.901 202.868ZM108.256 209.168C106.282 209.168 105.12 207.656 105.12 205.626C105.12 203.582 106.282 202.042 108.298 202.042C109.418 202.042 110.314 202.532 110.79 203.512V198.794H111.756V209H110.916L110.818 207.614C110.342 208.664 109.39 209.168 108.256 209.168ZM108.424 208.286C109.908 208.286 110.776 207.166 110.776 205.598C110.776 204.044 109.908 202.91 108.424 202.91C106.954 202.91 106.1 204.044 106.1 205.598C106.1 207.166 106.954 208.286 108.424 208.286Z" fill="#585858"/>
<path d="M74.63 230.168C72.488 230.168 71.074 228.796 71.074 226.724H72.852C72.852 227.886 73.538 228.572 74.672 228.572C75.876 228.572 76.646 227.788 76.646 226.542C76.646 225.352 75.932 224.54 74.7 224.54C73.916 224.54 73.202 224.932 72.838 225.464L71.256 225.128L72.516 219.766H77.85V221.418H73.804L73.258 223.546C73.748 223.224 74.364 223.042 75.064 223.042C77.108 223.042 78.466 224.428 78.466 226.444C78.466 228.656 76.912 230.168 74.63 230.168ZM78.9668 219.766H86.3168V221.418L82.6068 230H80.7448L84.5248 221.418H78.9668V219.766ZM94.4922 228.054H93.2462V230H91.5522V228.054H86.3582V226.486L90.9922 219.766H93.2462V226.486H94.4922V228.054ZM88.2622 226.486H91.5522V221.698L88.2622 226.486Z" fill="#585858"/>
<rect x="247" y="177" width="12" height="12" rx="4" fill="#E4E4E4"/>
<path d="M235.476 209L231.64 198.976H232.718L235.392 205.948C235.602 206.494 235.798 207.04 236.022 207.74C236.232 207.012 236.484 206.312 236.638 205.934L239.298 198.976H240.334L236.526 209H235.476ZM242.454 209.168C241.012 209.168 240.158 208.356 240.158 207.166C240.158 205.92 241.11 205.136 242.692 205.01L244.932 204.828V204.604C244.932 203.274 244.134 202.854 243.14 202.854C241.964 202.854 241.264 203.386 241.264 204.296H240.382C240.382 202.924 241.502 202.042 243.168 202.042C244.736 202.042 245.884 202.826 245.884 204.618V209H245.072L244.946 207.81C244.526 208.664 243.602 209.168 242.454 209.168ZM242.678 208.384C244.106 208.384 244.932 207.39 244.932 205.92V205.556L242.93 205.71C241.656 205.822 241.138 206.382 241.138 207.138C241.138 207.964 241.754 208.384 242.678 208.384ZM247.416 205.626C247.416 203.498 248.718 202.042 250.692 202.042C252.26 202.042 253.408 202.952 253.674 204.352H252.708C252.456 203.414 251.644 202.896 250.706 202.896C249.334 202.896 248.368 203.946 248.368 205.612C248.368 207.222 249.264 208.3 250.636 208.3C251.644 208.3 252.456 207.74 252.722 206.872H253.702C253.38 208.258 252.176 209.168 250.636 209.168C248.718 209.168 247.416 207.754 247.416 205.626ZM257.182 209.168C255.74 209.168 254.886 208.356 254.886 207.166C254.886 205.92 255.838 205.136 257.42 205.01L259.66 204.828V204.604C259.66 203.274 258.862 202.854 257.868 202.854C256.692 202.854 255.992 203.386 255.992 204.296H255.11C255.11 202.924 256.23 202.042 257.896 202.042C259.464 202.042 260.612 202.826 260.612 204.618V209H259.8L259.674 207.81C259.254 208.664 258.33 209.168 257.182 209.168ZM257.406 208.384C258.834 208.384 259.66 207.39 259.66 205.92V205.556L257.658 205.71C256.384 205.822 255.866 206.382 255.866 207.138C255.866 207.964 256.482 208.384 257.406 208.384ZM263.586 209H262.62V202.224H263.46L263.6 203.4C264.048 202.532 264.944 202.042 265.924 202.042C267.786 202.042 268.556 203.148 268.556 204.856V209H267.59V205.066C267.59 203.484 266.876 202.924 265.756 202.924C264.37 202.924 263.586 203.932 263.586 205.458V209ZM272.105 209H271.153V203.036H269.795V202.224H271.153V200.082H272.105V202.224H273.463V203.036H272.105V209Z" fill="#585858"/>
<path d="M252.026 228.054H250.78V230H249.086V228.054H243.892V226.486L248.526 219.766H250.78V226.486H252.026V228.054ZM245.796 226.486H249.086V221.698L245.796 226.486ZM253.209 227.102C253.209 225.884 253.895 224.904 254.959 224.498C254.063 224.092 253.573 223.322 253.573 222.328C253.573 220.704 255.015 219.584 257.129 219.584C259.229 219.584 260.643 220.69 260.643 222.356C260.643 223.35 260.139 224.12 259.229 224.498C260.307 224.876 261.007 225.87 261.007 227.102C261.007 228.95 259.481 230.168 257.101 230.168C254.735 230.168 253.209 228.964 253.209 227.102ZM255.197 222.482C255.197 223.336 255.939 223.882 257.101 223.882C258.249 223.882 258.977 223.35 258.977 222.496C258.977 221.642 258.249 221.11 257.101 221.11C255.939 221.11 255.197 221.642 255.197 222.482ZM254.959 226.976C254.959 227.97 255.785 228.586 257.115 228.586C258.417 228.586 259.243 227.97 259.243 226.976C259.243 225.982 258.417 225.366 257.101 225.366C255.785 225.366 254.959 225.982 254.959 226.976Z" fill="#585858"/>
</g>
</g>
<rect x="16.5" y="251.5" width="303" height="51" rx="3.5" fill="#F4F4F4"/>
<rect x="16.5" y="251.5" width="303" height="51" rx="3.5" stroke="#F4F4F4"/>
<path d="M28.546 279.309C28.546 278.178 29.183 277.268 30.171 276.891C29.339 276.514 28.884 275.799 28.884 274.876C28.884 273.368 30.223 272.328 32.186 272.328C34.136 272.328 35.449 273.355 35.449 274.902C35.449 275.825 34.981 276.54 34.136 276.891C35.137 277.242 35.787 278.165 35.787 279.309C35.787 281.025 34.37 282.156 32.16 282.156C29.963 282.156 28.546 281.038 28.546 279.309ZM30.392 275.019C30.392 275.812 31.081 276.319 32.16 276.319C33.226 276.319 33.902 275.825 33.902 275.032C33.902 274.239 33.226 273.745 32.16 273.745C31.081 273.745 30.392 274.239 30.392 275.019ZM30.171 279.192C30.171 280.115 30.938 280.687 32.173 280.687C33.382 280.687 34.149 280.115 34.149 279.192C34.149 278.269 33.382 277.697 32.16 277.697C30.938 277.697 30.171 278.269 30.171 279.192ZM36.3572 272.497H43.1822V274.031L39.7372 282H38.0082L41.5182 274.031H36.3572V272.497ZM49.8982 282H48.3122V276.904H47.0772V275.578H48.3122V273.576H49.8982V275.578H51.1462V276.904H49.8982V282ZM55.0067 282.169C53.0957 282.169 51.7567 280.778 51.7567 278.789C51.7567 276.774 53.0697 275.383 54.9547 275.383C56.8787 275.383 58.1007 276.67 58.1007 278.672V279.153L53.2647 279.166C53.3817 280.297 53.9797 280.869 55.0327 280.869C55.9037 280.869 56.4757 280.531 56.6577 279.92H58.1267C57.8537 281.324 56.6837 282.169 55.0067 282.169ZM54.9677 276.683C54.0317 276.683 53.4597 277.19 53.3037 278.152H56.5277C56.5277 277.268 55.9167 276.683 54.9677 276.683ZM61.021 282H59.435V275.578H60.904L61.034 276.41C61.437 275.76 62.217 275.383 63.088 275.383C64.7 275.383 65.532 276.384 65.532 278.048V282H63.946V278.425C63.946 277.346 63.413 276.826 62.594 276.826C61.619 276.826 61.021 277.502 61.021 278.542V282ZM69.0663 282.169C67.7013 282.169 66.8693 281.376 66.8693 280.167C66.8693 278.984 67.7273 278.243 69.2483 278.126L71.1723 277.983V277.84C71.1723 276.969 70.6523 276.618 69.8463 276.618C68.9103 276.618 68.3903 277.008 68.3903 277.684H67.0383C67.0383 276.293 68.1823 275.383 69.9243 275.383C71.6533 275.383 72.7193 276.319 72.7193 278.1V282H71.3283L71.2113 281.051C70.9383 281.714 70.0673 282.169 69.0663 282.169ZM69.5863 280.973C70.5613 280.973 71.1853 280.388 71.1853 279.4V279.062L69.8463 279.166C68.8583 279.257 68.4813 279.582 68.4813 280.102C68.4813 280.687 68.8713 280.973 69.5863 280.973ZM75.9284 282H74.3424V275.578H75.8114L75.9414 276.41C76.3444 275.76 77.1244 275.383 77.9954 275.383C79.6074 275.383 80.4394 276.384 80.4394 278.048V282H78.8534V278.425C78.8534 277.346 78.3204 276.826 77.5014 276.826C76.5264 276.826 75.9284 277.502 75.9284 278.542V282ZM84.2466 282H82.6606V276.904H81.4256V275.578H82.6606V273.576H84.2466V275.578H85.4946V276.904H84.2466V282ZM86.0516 280.05H87.5596C87.5726 280.609 87.9886 280.96 88.7166 280.96C89.4576 280.96 89.8606 280.661 89.8606 280.193C89.8606 279.868 89.6916 279.634 89.1196 279.504L87.9626 279.231C86.8056 278.971 86.2466 278.425 86.2466 277.398C86.2466 276.137 87.3126 275.383 88.7946 275.383C90.2376 275.383 91.2126 276.215 91.2256 277.463H89.7176C89.7046 276.917 89.3406 276.566 88.7296 276.566C88.1056 276.566 87.7416 276.852 87.7416 277.333C87.7416 277.697 88.0276 277.931 88.5736 278.061L89.7306 278.334C90.8096 278.581 91.3556 279.075 91.3556 280.063C91.3556 281.363 90.2506 282.169 88.6646 282.169C87.0656 282.169 86.0516 281.311 86.0516 280.05ZM97.3126 282H96.4156V275.708H97.1956L97.3256 276.8C97.7416 275.994 98.5736 275.539 99.4836 275.539C101.213 275.539 101.928 276.566 101.928 278.152V282H101.031V278.347C101.031 276.878 100.368 276.358 99.3276 276.358C98.0406 276.358 97.3126 277.294 97.3126 278.711V282ZM103.338 278.854C103.338 276.93 104.69 275.539 106.536 275.539C108.382 275.539 109.734 276.93 109.734 278.854C109.734 280.765 108.382 282.156 106.536 282.156C104.69 282.156 103.338 280.765 103.338 278.854ZM104.248 278.841C104.248 280.323 105.184 281.35 106.536 281.35C107.875 281.35 108.824 280.323 108.824 278.841C108.824 277.385 107.875 276.345 106.536 276.345C105.184 276.345 104.248 277.385 104.248 278.841ZM112.614 282H111.73V276.462H110.469V275.708H111.73V273.719H112.614V275.708H113.875V276.462H112.614V282ZM119.714 282H118.817V272.523H119.714V282ZM122.129 273.979C121.765 273.979 121.466 273.68 121.466 273.316C121.466 272.952 121.765 272.64 122.129 272.64C122.493 272.64 122.805 272.952 122.805 273.316C122.805 273.68 122.493 273.979 122.129 273.979ZM121.687 282V275.708H122.584V282H121.687ZM125.417 282H124.52V275.708H125.3L125.43 276.8C125.846 275.994 126.678 275.539 127.588 275.539C129.317 275.539 130.032 276.566 130.032 278.152V282H129.135V278.347C129.135 276.878 128.472 276.358 127.432 276.358C126.145 276.358 125.417 277.294 125.417 278.711V282ZM132.82 282H131.923V272.523H132.82V278.958L135.94 275.708H137.071L134.653 278.217L137.084 282H136.044L134.042 278.854L132.82 280.115V282ZM140.644 282.156C138.798 282.156 137.563 280.83 137.563 278.854C137.563 276.891 138.785 275.539 140.579 275.539C142.282 275.539 143.439 276.748 143.439 278.529V278.971H138.434C138.499 280.505 139.305 281.389 140.657 281.389C141.684 281.389 142.347 280.947 142.581 280.115H143.439C143.101 281.441 142.126 282.156 140.644 282.156ZM140.579 276.306C139.396 276.306 138.616 277.086 138.46 278.321H142.542C142.542 277.112 141.762 276.306 140.579 276.306ZM147.408 282.156C145.575 282.156 144.496 280.752 144.496 278.867C144.496 276.969 145.575 275.539 147.447 275.539C148.487 275.539 149.319 275.994 149.761 276.904V272.523H150.658V282H149.878L149.787 280.713C149.345 281.688 148.461 282.156 147.408 282.156ZM147.564 281.337C148.942 281.337 149.748 280.297 149.748 278.841C149.748 277.398 148.942 276.345 147.564 276.345C146.199 276.345 145.406 277.398 145.406 278.841C145.406 280.297 146.199 281.337 147.564 281.337ZM157.708 282H156.824V276.462H155.563V275.708H156.824V273.719H157.708V275.708H158.969V276.462H157.708V282ZM159.697 278.854C159.697 276.93 161.049 275.539 162.895 275.539C164.741 275.539 166.093 276.93 166.093 278.854C166.093 280.765 164.741 282.156 162.895 282.156C161.049 282.156 159.697 280.765 159.697 278.854ZM160.607 278.841C160.607 280.323 161.543 281.35 162.895 281.35C164.234 281.35 165.183 280.323 165.183 278.841C165.183 277.385 164.234 276.345 162.895 276.345C161.543 276.345 160.607 277.385 160.607 278.841ZM173.07 282.156C171.731 282.156 170.938 281.402 170.938 280.297C170.938 279.14 171.822 278.412 173.291 278.295L175.371 278.126V277.918C175.371 276.683 174.63 276.293 173.707 276.293C172.615 276.293 171.965 276.787 171.965 277.632H171.146C171.146 276.358 172.186 275.539 173.733 275.539C175.189 275.539 176.255 276.267 176.255 277.931V282H175.501L175.384 280.895C174.994 281.688 174.136 282.156 173.07 282.156ZM173.278 281.428C174.604 281.428 175.371 280.505 175.371 279.14V278.802L173.512 278.945C172.329 279.049 171.848 279.569 171.848 280.271C171.848 281.038 172.42 281.428 173.278 281.428ZM179.017 282H178.12V275.708H178.9L179.03 276.8C179.446 275.994 180.278 275.539 181.188 275.539C182.917 275.539 183.632 276.566 183.632 278.152V282H182.735V278.347C182.735 276.878 182.072 276.358 181.032 276.358C179.745 276.358 179.017 277.294 179.017 278.711V282ZM184.721 284.743V284.002H185.41C185.956 284.002 186.502 283.963 186.814 283.118L187.087 282.377L184.539 275.708H185.488L187.516 281.194L189.505 275.708H190.428L187.542 283.443C187.178 284.431 186.567 284.834 185.67 284.834C185.293 284.834 185.007 284.808 184.721 284.743ZM195.993 282H195.213V272.523H196.11V276.93C196.552 276.007 197.41 275.539 198.476 275.539C200.309 275.539 201.375 276.969 201.375 278.867C201.375 280.752 200.283 282.156 198.45 282.156C197.397 282.156 196.526 281.688 196.084 280.713L195.993 282ZM196.123 278.841C196.123 280.297 196.929 281.337 198.307 281.337C199.672 281.337 200.465 280.297 200.465 278.841C200.465 277.398 199.672 276.345 198.307 276.345C196.929 276.345 196.123 277.398 196.123 278.841ZM205.508 282.156C203.662 282.156 202.427 280.83 202.427 278.854C202.427 276.891 203.649 275.539 205.443 275.539C207.146 275.539 208.303 276.748 208.303 278.529V278.971H203.298C203.363 280.505 204.169 281.389 205.521 281.389C206.548 281.389 207.211 280.947 207.445 280.115H208.303C207.965 281.441 206.99 282.156 205.508 282.156ZM205.443 276.306C204.26 276.306 203.48 277.086 203.324 278.321H207.406C207.406 277.112 206.626 276.306 205.443 276.306ZM212.273 282.156C210.44 282.156 209.361 280.752 209.361 278.867C209.361 276.969 210.44 275.539 212.312 275.539C213.352 275.539 214.184 275.994 214.626 276.904V272.523H215.523V282H214.743L214.652 280.713C214.21 281.688 213.326 282.156 212.273 282.156ZM212.429 281.337C213.807 281.337 214.613 280.297 214.613 278.841C214.613 277.398 213.807 276.345 212.429 276.345C211.064 276.345 210.271 277.398 210.271 278.841C210.271 280.297 211.064 281.337 212.429 281.337Z" fill="#585858"/>
<rect x="251" y="259" width="57" height="36" rx="18" fill="#E4DEFF"/>
<path d="M269.366 272.601V280.817H273.5V282H268.092V272.601H269.366ZM275.339 274.135C274.897 274.135 274.533 273.771 274.533 273.329C274.533 272.874 274.897 272.523 275.339 272.523C275.781 272.523 276.145 272.874 276.145 273.329C276.145 273.771 275.781 274.135 275.339 274.135ZM274.741 282V275.643H275.963V282H274.741ZM279.024 282H277.802V275.643H278.907L279.037 276.618C279.44 275.89 280.246 275.461 281.143 275.461C282.82 275.461 283.587 276.488 283.587 278.113V282H282.365V278.386C282.365 277.099 281.767 276.579 280.831 276.579C279.687 276.579 279.024 277.398 279.024 278.633V282ZM286.593 282H285.371V272.432H286.593V278.633L289.414 275.643H290.948L288.517 278.178L290.935 282H289.531L287.672 279.062L286.593 280.193V282Z" fill="#372583"/>
</g>
<defs>
<filter id="filter0_d_493_14043" x="0" y="0" width="336" height="324" filterUnits="userSpaceOnUse" color-interpolation-filters="sRGB">
<feFlood flood-opacity="0" result="BackgroundImageFix"/>
<feColorMatrix in="SourceAlpha" type="matrix" values="0 0 0 0 0 0 0 0 0 0 0 0 0 0 0 0 0 0 127 0" result="hardAlpha"/>
<feOffset dy="1"/>
<feGaussianBlur stdDeviation="2"/>
<feComposite in2="hardAlpha" operator="out"/>
<feColorMatrix type="matrix" values="0 0 0 0 0.838184 0 0 0 0 0.838184 0 0 0 0 0.838184 0 0 0 0.25 0"/>
<feBlend mode="normal" in2="BackgroundImageFix" result="effect1_dropShadow_493_14043"/>
<feBlend mode="normal" in="SourceGraphic" in2="effect1_dropShadow_493_14043" result="shape"/>
</filter>
<clipPath id="clip0_493_14043">
<rect x="16" y="19" width="304" height="216" rx="4" fill="white"/>
</clipPath>
<clipPath id="clip1_493_14043">
<rect x="16" y="19" width="304" height="216" rx="4" fill="white"/>
</clipPath>
<clipPath id="clip2_493_14043">
<rect width="20" height="20" fill="white" transform="translate(300 20.5)"/>
</clipPath>
</defs>
</svg>
