<svg width="800" height="400" viewBox="0 0 800 400" fill="none" xmlns="http://www.w3.org/2000/svg">
<rect width="800" height="400" fill="#F6F6F6"/>
<rect x="59" y="75" width="681.818" height="250" rx="13.5135" fill="#F6F6F6"/>
<g filter="url(#filter0_d_498_5897)">
<g clip-path="url(#clip0_498_5897)">
<rect x="89.3047" y="105.303" width="136.364" height="189.394" rx="15.1515" fill="white"/>
<path d="M110.852 141.979H105.903V148.455H104.13V130.826H110.852C114.25 130.826 116.392 133.042 116.392 136.366C116.392 139.566 114.225 141.979 110.852 141.979ZM110.606 132.426H105.903V140.379H110.507C113.068 140.379 114.545 138.754 114.545 136.341C114.545 133.904 113.043 132.426 110.606 132.426ZM125.237 136.39V137.917H124.301C122.11 137.917 120.707 139.394 120.707 141.659V148.455H119.008V136.538H120.608L120.731 138.385C121.199 137.104 122.455 136.267 124.129 136.267C124.498 136.267 124.818 136.292 125.237 136.39ZM126.325 142.496C126.325 138.852 128.885 136.218 132.381 136.218C135.878 136.218 138.438 138.852 138.438 142.496C138.438 146.116 135.878 148.75 132.381 148.75C128.885 148.75 126.325 146.116 126.325 142.496ZM128.048 142.472C128.048 145.279 129.821 147.224 132.381 147.224C134.917 147.224 136.715 145.279 136.715 142.472C136.715 139.714 134.917 137.744 132.381 137.744C129.821 137.744 128.048 139.714 128.048 142.472ZM141.279 153.65V136.538H142.756L142.928 138.951C143.765 137.104 145.44 136.218 147.434 136.218C150.881 136.218 152.949 138.852 152.949 142.447C152.949 146.042 150.955 148.75 147.434 148.75C145.415 148.75 143.815 147.888 142.977 146.165V153.65H141.279ZM143.002 142.496C143.002 145.229 144.529 147.224 147.138 147.224C149.724 147.224 151.226 145.229 151.226 142.496C151.226 139.739 149.724 137.769 147.138 137.769C144.529 137.769 143.002 139.739 143.002 142.496ZM160.778 148.75C157.282 148.75 154.943 146.239 154.943 142.496C154.943 138.779 157.257 136.218 160.655 136.218C163.88 136.218 166.072 138.508 166.072 141.881V142.718H156.593C156.716 145.623 158.242 147.298 160.803 147.298C162.748 147.298 164.004 146.46 164.447 144.885H166.072C165.432 147.396 163.585 148.75 160.778 148.75ZM160.655 137.671C158.415 137.671 156.937 139.148 156.642 141.487H164.373C164.373 139.197 162.896 137.671 160.655 137.671ZM175.14 136.39V137.917H174.205C172.013 137.917 170.61 139.394 170.61 141.659V148.455H168.911V136.538H170.511L170.635 138.385C171.102 137.104 172.358 136.267 174.032 136.267C174.402 136.267 174.722 136.292 175.14 136.39ZM180.736 148.455H179.061V137.966H176.673V136.538H179.061V132.771H180.736V136.538H183.124V137.966H180.736V148.455ZM186.296 133.263C185.607 133.263 185.041 132.697 185.041 132.008C185.041 131.318 185.607 130.727 186.296 130.727C186.986 130.727 187.577 131.318 187.577 132.008C187.577 132.697 186.986 133.263 186.296 133.263ZM185.459 148.455V136.538H187.158V148.455H185.459ZM195.822 148.75C192.326 148.75 189.987 146.239 189.987 142.496C189.987 138.779 192.301 136.218 195.699 136.218C198.924 136.218 201.116 138.508 201.116 141.881V142.718H191.636C191.76 145.623 193.286 147.298 195.847 147.298C197.792 147.298 199.047 146.46 199.491 144.885H201.116C200.475 147.396 198.629 148.75 195.822 148.75ZM195.699 137.671C193.458 137.671 191.981 139.148 191.686 141.487H199.417C199.417 139.197 197.939 137.671 195.699 137.671ZM202.945 145.106H204.57C204.57 146.485 205.605 147.347 207.279 147.347C209.125 147.347 210.209 146.559 210.209 145.279C210.209 144.294 209.716 143.727 208.313 143.383L206.269 142.866C204.201 142.349 203.192 141.265 203.192 139.64C203.192 137.548 204.94 136.218 207.5 136.218C210.012 136.218 211.637 137.597 211.711 139.813H210.061C210.012 138.434 209.052 137.621 207.451 137.621C205.777 137.621 204.841 138.335 204.841 139.616C204.841 140.527 205.481 141.167 206.786 141.487L208.83 142.004C210.898 142.521 211.834 143.481 211.834 145.205C211.834 147.347 210.012 148.75 207.303 148.75C204.62 148.75 202.945 147.322 202.945 145.106Z" fill="#6F6F6F"/>
<path d="M150.102 181.966C150.102 179.659 151.401 177.803 153.416 177.034C151.719 176.265 150.791 174.807 150.791 172.924C150.791 169.849 153.522 167.727 157.526 167.727C161.503 167.727 164.181 169.822 164.181 172.977C164.181 174.86 163.227 176.318 161.503 177.034C163.545 177.75 164.871 179.633 164.871 181.966C164.871 185.466 161.981 187.773 157.473 187.773C152.992 187.773 150.102 185.493 150.102 181.966ZM153.867 173.216C153.867 174.833 155.272 175.868 157.473 175.868C159.647 175.868 161.026 174.86 161.026 173.243C161.026 171.625 159.647 170.618 157.473 170.618C155.272 170.618 153.867 171.625 153.867 173.216ZM153.416 181.727C153.416 183.61 154.981 184.777 157.5 184.777C159.966 184.777 161.53 183.61 161.53 181.727C161.53 179.845 159.966 178.678 157.473 178.678C154.981 178.678 153.416 179.845 153.416 181.727Z" fill="#222222"/>
<path d="M157.273 304.692V236.237L181.494 223.085V291.547L157.273 304.692Z" fill="#9681CD"/>
<path d="M157.273 304.699V236.448L133.053 223.295V291.554L157.273 304.699Z" fill="#463A7C"/>
<path d="M157.232 210L181.482 223.199L157.232 236.251L133 223.199L157.232 210Z" fill="#F4F1FF"/>
<path d="M162.219 239.075L165.151 237.501V240.744L162.219 242.318V239.075Z" fill="#F4F1FF"/>
<path d="M161.694 238.759L162.219 239.089L162.219 242.302L161.68 241.952L161.694 238.759Z" fill="#463A7C"/>
<path d="M165.155 237.502L164.621 237.158L161.688 238.749L162.221 239.075L165.155 237.502Z" fill="#463A7C"/>
<path d="M162.219 259.92L165.151 258.345V261.588L162.219 263.162V259.92Z" fill="#F4F1FF"/>
<path d="M161.694 259.604L162.219 259.933L162.219 263.146L161.68 262.796L161.694 259.604Z" fill="#463A7C"/>
<path d="M165.155 258.346L164.621 258.003L161.688 259.593L162.221 259.92L165.155 258.346Z" fill="#463A7C"/>
<path d="M162.219 245.994L165.151 244.42V247.663L162.219 249.237V245.994Z" fill="#F4F1FF"/>
<path d="M161.694 245.687L162.219 246.016L162.219 249.23L161.68 248.88L161.694 245.687Z" fill="#463A7C"/>
<path d="M165.155 244.43L164.621 244.086L161.688 245.676L162.221 246.003L165.155 244.43Z" fill="#463A7C"/>
<path d="M162.219 252.927L165.151 251.353V254.596L162.219 256.17V252.927Z" fill="#F4F1FF"/>
<path d="M161.694 252.62L162.219 252.949L162.219 256.162L161.68 255.812L161.694 252.62Z" fill="#463A7C"/>
<path d="M165.155 251.362L164.621 251.019L161.688 252.609L162.221 252.935L165.155 251.362Z" fill="#463A7C"/>
<path d="M168.754 235.508L171.686 233.933V237.176L168.754 238.751V235.508Z" fill="#F4F1FF"/>
<path d="M168.229 235.204L168.755 235.533L168.755 238.747L168.215 238.397L168.229 235.204Z" fill="#463A7C"/>
<path d="M171.69 233.943L171.156 233.599L168.223 235.189L168.756 235.516L171.69 233.943Z" fill="#463A7C"/>
<path d="M168.754 256.338L171.686 254.764V258.007L168.754 259.581V256.338Z" fill="#F4F1FF"/>
<path d="M168.229 256.03L168.755 256.36L168.755 259.573L168.215 259.223L168.229 256.03Z" fill="#463A7C"/>
<path d="M171.69 254.773L171.156 254.429L168.223 256.019L168.756 256.346L171.69 254.773Z" fill="#463A7C"/>
<path d="M168.754 242.459L171.686 240.884V244.127L168.754 245.702V242.459Z" fill="#F4F1FF"/>
<path d="M168.229 242.151L168.755 242.48L168.755 245.693L168.215 245.343L168.229 242.151Z" fill="#463A7C"/>
<path d="M171.69 240.894L171.156 240.55L168.223 242.14L168.756 242.467L171.69 240.894Z" fill="#463A7C"/>
<path d="M168.754 249.378L171.686 247.803V251.046L168.754 252.621V249.378Z" fill="#F4F1FF"/>
<path d="M168.229 249.07L168.755 249.399L168.755 252.613L168.215 252.263L168.229 249.07Z" fill="#463A7C"/>
<path d="M171.69 247.813L171.156 247.469L168.223 249.059L168.756 249.386L171.69 247.813Z" fill="#463A7C"/>
<path d="M175.273 231.97L178.205 230.396V233.639L175.273 235.213V231.97Z" fill="#F4F1FF"/>
<path d="M174.749 231.663L175.274 231.992L175.274 235.205L174.734 234.855L174.749 231.663Z" fill="#463A7C"/>
<path d="M178.21 230.405L177.676 230.062L174.742 231.652L175.276 231.978L178.21 230.405Z" fill="#463A7C"/>
<path d="M175.273 252.828L178.205 251.254V254.496L175.273 256.071V252.828Z" fill="#F4F1FF"/>
<path d="M174.749 252.508L175.274 252.837L175.274 256.05L174.734 255.7L174.749 252.508Z" fill="#463A7C"/>
<path d="M178.21 251.25L177.676 250.907L174.742 252.497L175.276 252.823L178.21 251.25Z" fill="#463A7C"/>
<path d="M175.273 238.899L178.205 237.324V240.567L175.273 242.142V238.899Z" fill="#F4F1FF"/>
<path d="M174.749 238.591L175.274 238.92L175.274 242.134L174.734 241.784L174.749 238.591Z" fill="#463A7C"/>
<path d="M178.21 237.334L177.676 236.99L174.742 238.58L175.276 238.907L178.21 237.334Z" fill="#463A7C"/>
<path d="M175.273 245.827L178.205 244.252V247.495L175.273 249.069V245.827Z" fill="#F4F1FF"/>
<path d="M174.749 245.519L175.274 245.848L175.274 249.061L174.734 248.711L174.749 245.519Z" fill="#463A7C"/>
<path d="M178.21 244.261L177.676 243.918L174.742 245.508L175.276 245.835L178.21 244.261Z" fill="#463A7C"/>
<path d="M162.219 267.379L165.151 265.805V269.048L162.219 270.622V267.379Z" fill="#F4F1FF"/>
<path d="M161.694 267.06L162.219 267.389L162.219 270.602L161.68 270.252L161.694 267.06Z" fill="#463A7C"/>
<path d="M165.155 265.802L164.621 265.458L161.688 267.049L162.221 267.375L165.155 265.802Z" fill="#463A7C"/>
<path d="M162.219 274.29L165.151 272.716V275.959L162.219 277.533V274.29Z" fill="#F4F1FF"/>
<path d="M161.694 273.983L162.219 274.312L162.219 277.525L161.68 277.175L161.694 273.983Z" fill="#463A7C"/>
<path d="M165.155 272.725L164.621 272.382L161.688 273.972L162.221 274.298L165.155 272.725Z" fill="#463A7C"/>
<path d="M162.219 281.226L165.151 279.652V282.895L162.219 284.469V281.226Z" fill="#F4F1FF"/>
<path d="M161.694 280.906L162.219 281.236L162.219 284.449L161.68 284.099L161.694 280.906Z" fill="#463A7C"/>
<path d="M165.155 279.649L164.621 279.305L161.688 280.895L162.221 281.222L165.155 279.649Z" fill="#463A7C"/>
<path d="M168.766 263.808L171.697 262.234V265.477L168.766 267.051V263.808Z" fill="#F4F1FF"/>
<path d="M168.241 263.501L168.766 263.83L168.766 267.043L168.227 266.693L168.241 263.501Z" fill="#463A7C"/>
<path d="M171.702 262.243L171.168 261.9L168.234 263.49L168.768 263.816L171.702 262.243Z" fill="#463A7C"/>
<path d="M168.754 270.732L171.686 269.157V272.4L168.754 273.974V270.732Z" fill="#F4F1FF"/>
<path d="M168.229 270.424L168.755 270.753L168.755 273.966L168.215 273.616L168.229 270.424Z" fill="#463A7C"/>
<path d="M171.69 269.166L171.156 268.823L168.223 270.413L168.756 270.74L171.69 269.166Z" fill="#463A7C"/>
<path d="M168.766 277.655L171.697 276.081V279.324L168.766 280.898V277.655Z" fill="#F4F1FF"/>
<path d="M168.241 277.348L168.766 277.677L168.766 280.89L168.227 280.54L168.241 277.348Z" fill="#463A7C"/>
<path d="M171.702 276.09L171.168 275.746L168.234 277.337L168.768 277.663L171.702 276.09Z" fill="#463A7C"/>
<path d="M175.277 260.27L178.209 258.696V261.939L175.277 263.513V260.27Z" fill="#F4F1FF"/>
<path d="M174.753 259.951L175.278 260.28L175.278 263.493L174.738 263.143L174.753 259.951Z" fill="#463A7C"/>
<path d="M178.214 258.693L177.68 258.349L174.746 259.94L175.28 260.266L178.214 258.693Z" fill="#463A7C"/>
<path d="M175.273 267.181L178.205 265.606V268.849L175.273 270.424V267.181Z" fill="#F4F1FF"/>
<path d="M174.749 266.873L175.274 267.202L175.274 270.416L174.734 270.066L174.749 266.873Z" fill="#463A7C"/>
<path d="M178.21 265.616L177.676 265.272L174.742 266.862L175.276 267.189L178.21 265.616Z" fill="#463A7C"/>
<path d="M175.273 274.125L178.205 272.551V275.794L175.273 277.368V274.125Z" fill="#F4F1FF"/>
<path d="M174.749 273.806L175.274 274.135L175.274 277.348L174.734 276.998L174.749 273.806Z" fill="#463A7C"/>
<path d="M178.21 272.548L177.676 272.204L174.742 273.795L175.276 274.121L178.21 272.548Z" fill="#463A7C"/>
<path d="M152.883 239.39L149.951 237.816V241.059L152.883 242.633V239.39Z" fill="#E4DEFF"/>
<path d="M153.407 239.083L152.882 239.412L152.882 242.625L153.422 242.275L153.407 239.083Z" fill="#463A7C"/>
<path d="M149.947 237.825L150.48 237.481L153.414 239.072L152.88 239.398L149.947 237.825Z" fill="#463A7C"/>
<path d="M152.883 260.256L149.951 258.682V261.925L152.883 263.499V260.256Z" fill="#E4DEFF"/>
<path d="M153.407 259.941L152.882 260.27L152.882 263.483L153.422 263.133L153.407 259.941Z" fill="#463A7C"/>
<path d="M149.947 258.683L150.48 258.34L153.414 259.93L152.88 260.256L149.947 258.683Z" fill="#463A7C"/>
<path d="M152.883 246.328L149.951 244.754V247.997L152.883 249.571V246.328Z" fill="#E4DEFF"/>
<path d="M153.407 246.021L152.882 246.35L152.882 249.563L153.422 249.213L153.407 246.021Z" fill="#463A7C"/>
<path d="M149.947 244.763L150.48 244.419L153.414 246.01L152.88 246.336L149.947 244.763Z" fill="#463A7C"/>
<path d="M152.883 253.246L149.951 251.672V254.915L152.883 256.489V253.246Z" fill="#E4DEFF"/>
<path d="M153.407 252.939L152.882 253.268L152.882 256.481L153.422 256.131L153.407 252.939Z" fill="#463A7C"/>
<path d="M149.947 251.681L150.48 251.338L153.414 252.928L152.88 253.254L149.947 251.681Z" fill="#463A7C"/>
<path d="M146.355 235.84L143.424 234.266V237.508L146.355 239.083V235.84Z" fill="#E4DEFF"/>
<path d="M146.88 235.532L146.355 235.862L146.355 239.075L146.895 238.725L146.88 235.532Z" fill="#463A7C"/>
<path d="M143.419 234.275L143.953 233.932L146.887 235.522L146.353 235.848L143.419 234.275Z" fill="#463A7C"/>
<path d="M146.355 256.685L143.424 255.11V258.353L146.355 259.927V256.685Z" fill="#E4DEFF"/>
<path d="M146.88 256.377L146.355 256.706L146.355 259.919L146.895 259.569L146.88 256.377Z" fill="#463A7C"/>
<path d="M143.419 255.119L143.953 254.776L146.887 256.366L146.353 256.693L143.419 255.119Z" fill="#463A7C"/>
<path d="M146.355 242.768L143.424 241.194V244.437L146.355 246.011V242.768Z" fill="#E4DEFF"/>
<path d="M146.88 242.461L146.355 242.79L146.355 246.003L146.895 245.653L146.88 242.461Z" fill="#463A7C"/>
<path d="M143.419 241.203L143.953 240.859L146.887 242.45L146.353 242.776L143.419 241.203Z" fill="#463A7C"/>
<path d="M146.355 249.709L143.424 248.134V251.377L146.355 252.952V249.709Z" fill="#E4DEFF"/>
<path d="M146.88 249.393L146.355 249.722L146.355 252.935L146.895 252.585L146.88 249.393Z" fill="#463A7C"/>
<path d="M143.419 248.135L143.953 247.792L146.887 249.382L146.353 249.708L143.419 248.135Z" fill="#463A7C"/>
<path d="M139.82 232.29L136.889 230.716V233.959L139.82 235.533V232.29Z" fill="#E4DEFF"/>
<path d="M140.345 231.982L139.82 232.312L139.82 235.525L140.359 235.175L140.345 231.982Z" fill="#463A7C"/>
<path d="M136.884 230.725L137.418 230.381L140.352 231.972L139.818 232.298L136.884 230.725Z" fill="#463A7C"/>
<path d="M139.82 253.139L136.889 251.564V254.807L139.82 256.382V253.139Z" fill="#E4DEFF"/>
<path d="M140.345 252.831L139.82 253.16L139.82 256.373L140.359 256.023L140.345 252.831Z" fill="#463A7C"/>
<path d="M136.884 251.574L137.418 251.23L140.352 252.82L139.818 253.147L136.884 251.574Z" fill="#463A7C"/>
<path d="M139.82 239.221L136.889 237.646V240.889L139.82 242.463V239.221Z" fill="#E4DEFF"/>
<path d="M140.345 238.905L139.82 239.234L139.82 242.447L140.359 242.097L140.345 238.905Z" fill="#463A7C"/>
<path d="M136.884 237.647L137.418 237.304L140.352 238.894L139.818 239.221L136.884 237.647Z" fill="#463A7C"/>
<path d="M139.82 246.155L136.889 244.581V247.824L139.82 249.398V246.155Z" fill="#E4DEFF"/>
<path d="M140.345 245.852L139.82 246.181L139.82 249.394L140.359 249.044L140.345 245.852Z" fill="#463A7C"/>
<path d="M136.884 244.59L137.418 244.247L140.352 245.837L139.818 246.163L136.884 244.59Z" fill="#463A7C"/>
<path d="M152.883 267.014L149.951 265.44V268.682L152.883 270.257V267.014Z" fill="#E4DEFF"/>
<path d="M153.407 266.706L152.882 267.035L152.882 270.249L153.422 269.899L153.407 266.706Z" fill="#463A7C"/>
<path d="M149.947 265.449L150.48 265.105L153.414 266.695L152.88 267.022L149.947 265.449Z" fill="#463A7C"/>
<path d="M152.883 287.863L149.951 286.288V289.531L152.883 291.106V287.863Z" fill="#E4DEFF"/>
<path d="M153.407 287.555L152.882 287.884L152.882 291.098L153.422 290.748L153.407 287.555Z" fill="#463A7C"/>
<path d="M149.947 286.298L150.48 285.954L153.414 287.544L152.88 287.871L149.947 286.298Z" fill="#463A7C"/>
<path d="M152.883 273.942L149.951 272.367V275.61L152.883 277.185V273.942Z" fill="#E4DEFF"/>
<path d="M153.407 273.634L152.882 273.963L152.882 277.177L153.422 276.827L153.407 273.634Z" fill="#463A7C"/>
<path d="M149.947 272.377L150.48 272.033L153.414 273.623L152.88 273.95L149.947 272.377Z" fill="#463A7C"/>
<path d="M152.883 280.865L149.951 279.291V282.533L152.883 284.108V280.865Z" fill="#E4DEFF"/>
<path d="M153.407 280.557L152.882 280.886L152.882 284.1L153.422 283.75L153.407 280.557Z" fill="#463A7C"/>
<path d="M149.947 279.3L150.48 278.956L153.414 280.546L152.88 280.873L149.947 279.3Z" fill="#463A7C"/>
<path d="M146.355 263.463L143.424 261.889V265.132L146.355 266.706V263.463Z" fill="#E4DEFF"/>
<path d="M146.88 263.156L146.355 263.485L146.355 266.698L146.895 266.348L146.88 263.156Z" fill="#463A7C"/>
<path d="M143.419 261.898L143.953 261.555L146.887 263.145L146.353 263.471L143.419 261.898Z" fill="#463A7C"/>
<path d="M146.355 284.317L143.424 282.743V285.986L146.355 287.56V284.317Z" fill="#E4DEFF"/>
<path d="M146.88 284.01L146.355 284.339L146.355 287.552L146.895 287.202L146.88 284.01Z" fill="#463A7C"/>
<path d="M143.419 282.752L143.953 282.408L146.887 283.999L146.353 284.325L143.419 282.752Z" fill="#463A7C"/>
<path d="M146.355 270.391L143.424 268.816V272.059L146.355 273.634V270.391Z" fill="#E4DEFF"/>
<path d="M146.88 270.083L146.355 270.413L146.355 273.626L146.895 273.276L146.88 270.083Z" fill="#463A7C"/>
<path d="M143.419 268.826L143.953 268.482L146.887 270.073L146.353 270.399L143.419 268.826Z" fill="#463A7C"/>
<path d="M146.355 277.319L143.424 275.745V278.988L146.355 280.562V277.319Z" fill="#E4DEFF"/>
<path d="M146.88 277.016L146.355 277.345L146.355 280.558L146.895 280.208L146.88 277.016Z" fill="#463A7C"/>
<path d="M143.419 275.754L143.953 275.41L146.887 277L146.353 277.327L143.419 275.754Z" fill="#463A7C"/>
<path d="M139.82 259.909L136.889 258.334V261.577L139.82 263.152V259.909Z" fill="#E4DEFF"/>
<path d="M140.345 259.601L139.82 259.93L139.82 263.143L140.359 262.794L140.345 259.601Z" fill="#463A7C"/>
<path d="M136.884 258.344L137.418 258L140.352 259.59L139.818 259.917L136.884 258.344Z" fill="#463A7C"/>
<path d="M139.82 280.762L136.889 279.187V282.43L139.82 284.005V280.762Z" fill="#E4DEFF"/>
<path d="M140.345 280.454L139.82 280.783L139.82 283.996L140.359 283.646L140.345 280.454Z" fill="#463A7C"/>
<path d="M136.884 279.196L137.418 278.853L140.352 280.443L139.818 280.77L136.884 279.196Z" fill="#463A7C"/>
<path d="M139.82 266.837L136.889 265.262V268.505L139.82 270.08V266.837Z" fill="#E4DEFF"/>
<path d="M140.345 266.533L139.82 266.862L139.82 270.076L140.359 269.726L140.345 266.533Z" fill="#463A7C"/>
<path d="M136.884 265.272L137.418 264.928L140.352 266.518L139.818 266.845L136.884 265.272Z" fill="#463A7C"/>
<path d="M139.82 273.765L136.889 272.19V275.433L139.82 277.008V273.765Z" fill="#E4DEFF"/>
<path d="M140.345 273.457L139.82 273.786L139.82 276.999L140.359 276.649L140.345 273.457Z" fill="#463A7C"/>
<path d="M136.884 272.2L137.418 271.856L140.352 273.446L139.818 273.773L136.884 272.2Z" fill="#463A7C"/>
<path d="M167.914 288.413L173.587 285.366V297.195L167.914 300.241V288.413Z" fill="#F4F1FF"/>
<path d="M166.884 287.813L167.9 288.45V300.239L166.855 299.562L166.884 287.813Z" fill="#463A7C"/>
<path d="M173.588 285.379L172.556 284.714L166.879 287.791L167.912 288.423L173.588 285.379Z" fill="#463A7C"/>
<path d="M195.391 327.539V270.037L215.736 258.989V316.498L195.391 327.539Z" fill="#9681CD"/>
<path d="M195.391 327.545V270.214L175.045 259.166V316.504L195.391 327.545Z" fill="#463A7C"/>
<path d="M195.355 248L215.725 259.087L195.355 270.051L175 259.087L195.355 248Z" fill="#F4F1FF"/>
<path d="M199.543 272.418L202.006 271.095V273.819L199.543 275.142V272.418Z" fill="#F4F1FF"/>
<path d="M199.102 272.156L199.543 272.433L199.543 275.132L199.09 274.838L199.102 272.156Z" fill="#463A7C"/>
<path d="M202.01 271.099L201.562 270.81L199.098 272.146L199.546 272.42L202.01 271.099Z" fill="#463A7C"/>
<path d="M199.543 289.935L202.006 288.612V291.336L199.543 292.659V289.935Z" fill="#F4F1FF"/>
<path d="M199.102 289.67L199.543 289.946L199.543 292.646L199.09 292.352L199.102 289.67Z" fill="#463A7C"/>
<path d="M202.01 288.612L201.562 288.323L199.098 289.659L199.546 289.934L202.01 288.612Z" fill="#463A7C"/>
<path d="M199.543 278.234L202.006 276.911V279.635L199.543 280.958V278.234Z" fill="#F4F1FF"/>
<path d="M199.102 277.976L199.543 278.253L199.543 280.952L199.09 280.658L199.102 277.976Z" fill="#463A7C"/>
<path d="M202.01 276.918L201.562 276.63L199.098 277.966L199.546 278.24L202.01 276.918Z" fill="#463A7C"/>
<path d="M199.543 284.058L202.006 282.736V285.46L199.543 286.782V284.058Z" fill="#F4F1FF"/>
<path d="M199.102 283.801L199.543 284.077L199.543 286.776L199.09 286.482L199.102 283.801Z" fill="#463A7C"/>
<path d="M202.01 282.743L201.562 282.454L199.098 283.79L199.546 284.064L202.01 282.743Z" fill="#463A7C"/>
<path d="M205.039 269.429L207.502 268.107V270.831L205.039 272.153V269.429Z" fill="#F4F1FF"/>
<path d="M204.594 269.175L205.035 269.452L205.035 272.151L204.582 271.857L204.594 269.175Z" fill="#463A7C"/>
<path d="M207.503 268.114L207.054 267.825L204.59 269.161L205.038 269.435L207.503 268.114Z" fill="#463A7C"/>
<path d="M205.039 286.922L207.502 285.6V288.324L205.039 289.646V286.922Z" fill="#F4F1FF"/>
<path d="M204.594 286.665L205.035 286.941L205.035 289.64L204.582 289.346L204.594 286.665Z" fill="#463A7C"/>
<path d="M207.503 285.607L207.054 285.318L204.59 286.654L205.038 286.928L207.503 285.607Z" fill="#463A7C"/>
<path d="M205.039 275.264L207.502 273.941V276.665L205.039 277.988V275.264Z" fill="#F4F1FF"/>
<path d="M204.594 275.006L205.035 275.283L205.035 277.982L204.582 277.688L204.594 275.006Z" fill="#463A7C"/>
<path d="M207.503 273.949L207.054 273.66L204.59 274.996L205.038 275.27L207.503 273.949Z" fill="#463A7C"/>
<path d="M205.039 281.077L207.502 279.754V282.478L205.039 283.801V281.077Z" fill="#F4F1FF"/>
<path d="M204.594 280.819L205.035 281.096L205.035 283.795L204.582 283.501L204.594 280.819Z" fill="#463A7C"/>
<path d="M207.503 279.761L207.054 279.473L204.59 280.809L205.038 281.083L207.503 279.761Z" fill="#463A7C"/>
<path d="M210.512 266.453L212.974 265.13V267.854L210.512 269.177V266.453Z" fill="#F4F1FF"/>
<path d="M210.067 266.195L210.508 266.471L210.508 269.17L210.055 268.876L210.067 266.195Z" fill="#463A7C"/>
<path d="M212.975 265.137L212.527 264.849L210.062 266.184L210.511 266.459L212.975 265.137Z" fill="#463A7C"/>
<path d="M210.512 283.973L212.974 282.651V285.375L210.512 286.697V283.973Z" fill="#F4F1FF"/>
<path d="M210.067 283.708L210.508 283.985L210.508 286.684L210.055 286.39L210.067 283.708Z" fill="#463A7C"/>
<path d="M212.975 282.651L212.527 282.362L210.062 283.698L210.511 283.972L212.975 282.651Z" fill="#463A7C"/>
<path d="M210.512 272.272L212.974 270.95V273.674L210.512 274.996V272.272Z" fill="#F4F1FF"/>
<path d="M210.067 272.015L210.508 272.291L210.508 274.99L210.055 274.696L210.067 272.015Z" fill="#463A7C"/>
<path d="M212.975 270.957L212.527 270.668L210.062 272.004L210.511 272.278L212.975 270.957Z" fill="#463A7C"/>
<path d="M210.512 278.093L212.974 276.771V279.495L210.512 280.817V278.093Z" fill="#F4F1FF"/>
<path d="M210.067 277.835L210.508 278.112L210.508 280.811L210.055 280.517L210.067 277.835Z" fill="#463A7C"/>
<path d="M212.975 276.778L212.527 276.489L210.062 277.825L210.511 278.099L212.975 276.778Z" fill="#463A7C"/>
<path d="M202.01 294.871L201.562 294.583L199.098 295.919L199.546 296.193L202.01 294.871Z" fill="#463A7C"/>
<path d="M205.039 293.2L207.502 291.877V294.601L205.039 295.924V293.2Z" fill="#F4F1FF"/>
<path d="M204.594 292.942L205.035 293.218L205.035 295.917L204.582 295.624L204.594 292.942Z" fill="#463A7C"/>
<path d="M207.503 291.884L207.054 291.595L204.59 292.931L205.038 293.206L207.503 291.884Z" fill="#463A7C"/>
<path d="M210.512 290.223L212.974 288.9V291.624L210.512 292.947V290.223Z" fill="#F4F1FF"/>
<path d="M210.067 289.958L210.508 290.234L210.508 292.933L210.055 292.64L210.067 289.958Z" fill="#463A7C"/>
<path d="M212.975 288.9L212.527 288.611L210.062 289.947L210.511 290.222L212.975 288.9Z" fill="#463A7C"/>
<path d="M212.975 294.72L212.527 294.432L210.062 295.768L210.511 296.042L212.975 294.72Z" fill="#463A7C"/>
<path d="M191.691 272.689L189.229 271.367V274.091L191.691 275.413V272.689Z" fill="#E4DEFF"/>
<path d="M192.132 272.431L191.691 272.708L191.691 275.407L192.145 275.113L192.132 272.431Z" fill="#463A7C"/>
<path d="M189.224 271.374L189.672 271.085L192.137 272.421L191.688 272.695L189.224 271.374Z" fill="#463A7C"/>
<path d="M191.691 290.21L189.229 288.888V291.612L191.691 292.934V290.21Z" fill="#E4DEFF"/>
<path d="M192.132 289.949L191.691 290.226L191.691 292.925L192.145 292.631L192.132 289.949Z" fill="#463A7C"/>
<path d="M189.224 288.892L189.672 288.603L192.137 289.939L191.688 290.213L189.224 288.892Z" fill="#463A7C"/>
<path d="M191.691 278.517L189.229 277.194V279.919L191.691 281.241V278.517Z" fill="#E4DEFF"/>
<path d="M192.132 278.26L191.691 278.536L191.691 281.235L192.145 280.941L192.132 278.26Z" fill="#463A7C"/>
<path d="M189.224 277.202L189.672 276.913L192.137 278.249L191.688 278.523L189.224 277.202Z" fill="#463A7C"/>
<path d="M191.691 284.326L189.229 283.004V285.728L191.691 287.05V284.326Z" fill="#E4DEFF"/>
<path d="M192.132 284.069L191.691 284.345L191.691 287.044L192.145 286.75L192.132 284.069Z" fill="#463A7C"/>
<path d="M189.224 283.011L189.672 282.722L192.137 284.058L191.688 284.332L189.224 283.011Z" fill="#463A7C"/>
<path d="M186.199 269.708L183.737 268.386V271.11L186.199 272.432V269.708Z" fill="#E4DEFF"/>
<path d="M186.64 269.451L186.199 269.727L186.199 272.427L186.652 272.133L186.64 269.451Z" fill="#463A7C"/>
<path d="M183.732 268.393L184.18 268.105L186.645 269.44L186.196 269.715L183.732 268.393Z" fill="#463A7C"/>
<path d="M186.199 287.219L183.737 285.897V288.621L186.199 289.943V287.219Z" fill="#E4DEFF"/>
<path d="M186.64 286.962L186.199 287.238L186.199 289.937L186.652 289.643L186.64 286.962Z" fill="#463A7C"/>
<path d="M183.732 285.904L184.18 285.615L186.645 286.951L186.196 287.225L183.732 285.904Z" fill="#463A7C"/>
<path d="M186.199 275.526L183.737 274.203V276.927L186.199 278.25V275.526Z" fill="#E4DEFF"/>
<path d="M186.64 275.268L186.199 275.545L186.199 278.244L186.652 277.95L186.64 275.268Z" fill="#463A7C"/>
<path d="M183.732 274.21L184.18 273.922L186.645 275.257L186.196 275.532L183.732 274.21Z" fill="#463A7C"/>
<path d="M186.199 281.35L183.737 280.027V282.751L186.199 284.074V281.35Z" fill="#E4DEFF"/>
<path d="M186.64 281.089L186.199 281.365L186.199 284.064L186.652 283.77L186.64 281.089Z" fill="#463A7C"/>
<path d="M183.732 280.031L184.18 279.742L186.645 281.078L186.196 281.352L183.732 280.031Z" fill="#463A7C"/>
<path d="M180.715 266.721L178.252 265.399V268.123L180.715 269.445V266.721Z" fill="#E4DEFF"/>
<path d="M181.16 266.464L180.718 266.74L180.718 269.439L181.172 269.146L181.16 266.464Z" fill="#463A7C"/>
<path d="M178.251 265.406L178.7 265.118L181.164 266.453L180.716 266.728L178.251 265.406Z" fill="#463A7C"/>
<path d="M180.715 284.231L178.252 282.909V285.633L180.715 286.955V284.231Z" fill="#E4DEFF"/>
<path d="M181.16 283.974L180.718 284.25L180.718 286.949L181.172 286.656L181.16 283.974Z" fill="#463A7C"/>
<path d="M178.251 282.916L178.7 282.628L181.164 283.963L180.716 284.238L178.251 282.916Z" fill="#463A7C"/>
<path d="M180.715 272.541L178.252 271.219V273.943L180.715 275.265V272.541Z" fill="#E4DEFF"/>
<path d="M181.16 272.28L180.718 272.557L180.718 275.256L181.172 274.962L181.16 272.28Z" fill="#463A7C"/>
<path d="M178.251 271.223L178.7 270.934L181.164 272.27L180.716 272.544L178.251 271.223Z" fill="#463A7C"/>
<path d="M180.715 278.369L178.252 277.047V279.771L180.715 281.093V278.369Z" fill="#E4DEFF"/>
<path d="M181.16 278.115L180.718 278.392L180.718 281.091L181.172 280.797L181.16 278.115Z" fill="#463A7C"/>
<path d="M178.251 277.054L178.7 276.765L181.164 278.101L180.716 278.375L178.251 277.054Z" fill="#463A7C"/>
<path d="M191.691 295.891L189.229 294.569V297.293L191.691 298.615V295.891Z" fill="#E4DEFF"/>
<path d="M189.224 294.576L189.672 294.287L192.137 295.623L191.688 295.897L189.224 294.576Z" fill="#463A7C"/>
<path d="M186.199 292.917L183.737 291.594V294.319L186.199 295.641V292.917Z" fill="#E4DEFF"/>
<path d="M186.64 292.659L186.199 292.936L186.199 295.635L186.652 295.341L186.64 292.659Z" fill="#463A7C"/>
<path d="M183.732 291.602L184.18 291.313L186.645 292.649L186.196 292.923L183.732 291.602Z" fill="#463A7C"/>
<path d="M180.715 289.93L178.252 288.608V291.332L180.715 292.654V289.93Z" fill="#E4DEFF"/>
<path d="M181.16 289.672L180.718 289.949L180.718 292.648L181.172 292.354L181.16 289.672Z" fill="#463A7C"/>
<path d="M178.251 288.615L178.7 288.326L181.164 289.662L180.716 289.936L178.251 288.615Z" fill="#463A7C"/>
<path d="M180.715 295.75L178.252 294.427V297.152L180.715 298.474V295.75Z" fill="#E4DEFF"/>
<path d="M178.251 294.435L178.7 294.146L181.164 295.482L180.716 295.756L178.251 294.435Z" fill="#463A7C"/>
<path d="M119.391 319.539V262.037L139.736 250.989V308.498L119.391 319.539Z" fill="#9681CD"/>
<path d="M119.391 319.545V262.214L99.0451 251.166V308.504L119.391 319.545Z" fill="#463A7C"/>
<path d="M119.355 240L139.725 251.087L119.355 262.051L99 251.087L119.355 240Z" fill="#F4F1FF"/>
<path d="M123.535 264.418L125.998 263.095V265.819L123.535 267.142V264.418Z" fill="#F4F1FF"/>
<path d="M123.094 264.156L123.535 264.433L123.535 267.132L123.082 266.838L123.094 264.156Z" fill="#463A7C"/>
<path d="M126.003 263.099L125.554 262.81L123.09 264.146L123.538 264.42L126.003 263.099Z" fill="#463A7C"/>
<path d="M123.535 281.934L125.998 280.612V283.336L123.535 284.659V281.934Z" fill="#F4F1FF"/>
<path d="M123.094 281.67L123.535 281.946L123.535 284.645L123.082 284.351L123.094 281.67Z" fill="#463A7C"/>
<path d="M126.003 280.612L125.554 280.323L123.09 281.659L123.538 281.933L126.003 280.612Z" fill="#463A7C"/>
<path d="M123.535 270.234L125.998 268.911V271.635L123.535 272.958V270.234Z" fill="#F4F1FF"/>
<path d="M123.094 269.976L123.535 270.253L123.535 272.952L123.082 272.658L123.094 269.976Z" fill="#463A7C"/>
<path d="M126.003 268.918L125.554 268.63L123.09 269.966L123.538 270.24L126.003 268.918Z" fill="#463A7C"/>
<path d="M123.535 276.058L125.998 274.736V277.46L123.535 278.782V276.058Z" fill="#F4F1FF"/>
<path d="M123.094 275.801L123.535 276.077L123.535 278.776L123.082 278.482L123.094 275.801Z" fill="#463A7C"/>
<path d="M126.003 274.743L125.554 274.454L123.09 275.79L123.538 276.064L126.003 274.743Z" fill="#463A7C"/>
<path d="M129.027 261.429L131.49 260.107V262.831L129.027 264.153V261.429Z" fill="#F4F1FF"/>
<path d="M128.586 261.175L129.028 261.452L129.028 264.151L128.574 263.857L128.586 261.175Z" fill="#463A7C"/>
<path d="M131.495 260.114L131.046 259.825L128.582 261.161L129.03 261.435L131.495 260.114Z" fill="#463A7C"/>
<path d="M129.027 278.922L131.49 277.599V280.324L129.027 281.646V278.922Z" fill="#F4F1FF"/>
<path d="M128.586 278.664L129.028 278.941L129.028 281.64L128.574 281.346L128.586 278.664Z" fill="#463A7C"/>
<path d="M131.495 277.607L131.046 277.318L128.582 278.654L129.03 278.928L131.495 277.607Z" fill="#463A7C"/>
<path d="M129.027 267.264L131.49 265.942V268.666L129.027 269.988V267.264Z" fill="#F4F1FF"/>
<path d="M128.586 267.006L129.028 267.283L129.028 269.982L128.574 269.688L128.586 267.006Z" fill="#463A7C"/>
<path d="M131.495 265.949L131.046 265.66L128.582 266.996L129.03 267.27L131.495 265.949Z" fill="#463A7C"/>
<path d="M129.027 273.077L131.49 271.754V274.478L129.027 275.801V273.077Z" fill="#F4F1FF"/>
<path d="M128.586 272.819L129.028 273.096L129.028 275.795L128.574 275.501L128.586 272.819Z" fill="#463A7C"/>
<path d="M131.495 271.762L131.046 271.473L128.582 272.809L129.03 273.083L131.495 271.762Z" fill="#463A7C"/>
<path d="M134.508 258.453L136.97 257.13V259.854L134.508 261.177V258.453Z" fill="#F4F1FF"/>
<path d="M134.063 258.195L134.504 258.471L134.504 261.17L134.051 260.876L134.063 258.195Z" fill="#463A7C"/>
<path d="M136.971 257.137L136.523 256.849L134.059 258.184L134.507 258.459L136.971 257.137Z" fill="#463A7C"/>
<path d="M134.508 275.973L136.97 274.651V277.375L134.508 278.697V275.973Z" fill="#F4F1FF"/>
<path d="M134.063 275.708L134.504 275.985L134.504 278.684L134.051 278.39L134.063 275.708Z" fill="#463A7C"/>
<path d="M136.971 274.65L136.523 274.362L134.059 275.698L134.507 275.972L136.971 274.65Z" fill="#463A7C"/>
<path d="M134.508 264.272L136.97 262.95V265.674L134.508 266.996V264.272Z" fill="#F4F1FF"/>
<path d="M134.063 264.015L134.504 264.291L134.504 266.99L134.051 266.696L134.063 264.015Z" fill="#463A7C"/>
<path d="M136.971 262.957L136.523 262.668L134.059 264.004L134.507 264.278L136.971 262.957Z" fill="#463A7C"/>
<path d="M134.508 270.093L136.97 268.77V271.494L134.508 272.817V270.093Z" fill="#F4F1FF"/>
<path d="M134.063 269.835L134.504 270.112L134.504 272.811L134.051 272.517L134.063 269.835Z" fill="#463A7C"/>
<path d="M136.971 268.778L136.523 268.489L134.059 269.825L134.507 270.099L136.971 268.778Z" fill="#463A7C"/>
<path d="M123.535 288.194L125.998 286.872V289.596L123.535 290.918V288.194Z" fill="#F4F1FF"/>
<path d="M123.094 287.929L123.535 288.206L123.535 290.905L123.082 290.611L123.094 287.929Z" fill="#463A7C"/>
<path d="M126.003 286.871L125.554 286.583L123.09 287.919L123.538 288.193L126.003 286.871Z" fill="#463A7C"/>
<path d="M123.535 294.004L125.998 292.682V295.406L123.535 296.728V294.004Z" fill="#F4F1FF"/>
<path d="M123.094 293.747L123.535 294.023L123.535 296.722L123.082 296.428L123.094 293.747Z" fill="#463A7C"/>
<path d="M126.003 292.689L125.554 292.4L123.09 293.736L123.538 294.01L126.003 292.689Z" fill="#463A7C"/>
<path d="M129.027 285.2L131.49 283.877V286.601L129.027 287.924V285.2Z" fill="#F4F1FF"/>
<path d="M128.586 284.942L129.028 285.218L129.028 287.917L128.574 287.623L128.586 284.942Z" fill="#463A7C"/>
<path d="M131.495 283.884L131.046 283.595L128.582 284.931L129.03 285.205L131.495 283.884Z" fill="#463A7C"/>
<path d="M129.027 291.016L131.49 289.694V292.418L129.027 293.74V291.016Z" fill="#F4F1FF"/>
<path d="M128.586 290.759L129.028 291.035L129.028 293.735L128.574 293.441L128.586 290.759Z" fill="#463A7C"/>
<path d="M131.495 289.701L131.046 289.412L128.582 290.748L129.03 291.023L131.495 289.701Z" fill="#463A7C"/>
<path d="M134.508 282.223L136.97 280.9V283.624L134.508 284.947V282.223Z" fill="#F4F1FF"/>
<path d="M134.063 281.958L134.504 282.234L134.504 284.933L134.051 284.639L134.063 281.958Z" fill="#463A7C"/>
<path d="M136.971 280.9L136.523 280.611L134.059 281.947L134.507 282.221L136.971 280.9Z" fill="#463A7C"/>
<path d="M134.508 288.035L136.97 286.713V289.437L134.508 290.759V288.035Z" fill="#F4F1FF"/>
<path d="M134.063 287.778L134.504 288.054L134.504 290.753L134.051 290.459L134.063 287.778Z" fill="#463A7C"/>
<path d="M136.971 286.72L136.523 286.431L134.059 287.767L134.507 288.041L136.971 286.72Z" fill="#463A7C"/>
<path d="M134.508 293.86L136.97 292.537V295.261L134.508 296.584V293.86Z" fill="#F4F1FF"/>
<path d="M134.063 293.595L134.504 293.871L134.504 296.57L134.051 296.276L134.063 293.595Z" fill="#463A7C"/>
<path d="M136.971 292.537L136.523 292.249L134.059 293.584L134.507 293.859L136.971 292.537Z" fill="#463A7C"/>
<path d="M115.695 264.689L113.233 263.367V266.091L115.695 267.413V264.689Z" fill="#E4DEFF"/>
<path d="M116.14 264.431L115.699 264.708L115.699 267.407L116.152 267.113L116.14 264.431Z" fill="#463A7C"/>
<path d="M113.232 263.374L113.68 263.085L116.145 264.421L115.696 264.695L113.232 263.374Z" fill="#463A7C"/>
<path d="M115.695 282.21L113.233 280.888V283.612L115.695 284.934V282.21Z" fill="#E4DEFF"/>
<path d="M116.14 281.949L115.699 282.225L115.699 284.925L116.152 284.631L116.14 281.949Z" fill="#463A7C"/>
<path d="M113.232 280.891L113.68 280.603L116.145 281.938L115.696 282.213L113.232 280.891Z" fill="#463A7C"/>
<path d="M115.695 270.517L113.233 269.194V271.918L115.695 273.241V270.517Z" fill="#E4DEFF"/>
<path d="M116.14 270.259L115.699 270.536L115.699 273.235L116.152 272.941L116.14 270.259Z" fill="#463A7C"/>
<path d="M113.232 269.201L113.68 268.913L116.145 270.248L115.696 270.523L113.232 269.201Z" fill="#463A7C"/>
<path d="M115.695 276.326L113.233 275.003V277.727L115.695 279.05V276.326Z" fill="#E4DEFF"/>
<path d="M116.14 276.068L115.699 276.345L115.699 279.044L116.152 278.75L116.14 276.068Z" fill="#463A7C"/>
<path d="M113.232 275.011L113.68 274.722L116.145 276.058L115.696 276.332L113.232 275.011Z" fill="#463A7C"/>
<path d="M110.207 261.708L107.744 260.386V263.11L110.207 264.432V261.708Z" fill="#E4DEFF"/>
<path d="M110.648 261.451L110.207 261.727L110.207 264.426L110.66 264.132L110.648 261.451Z" fill="#463A7C"/>
<path d="M107.74 260.393L108.188 260.105L110.652 261.44L110.204 261.715L107.74 260.393Z" fill="#463A7C"/>
<path d="M110.207 279.219L107.744 277.896V280.62L110.207 281.943V279.219Z" fill="#E4DEFF"/>
<path d="M110.648 278.961L110.207 279.238L110.207 281.937L110.66 281.643L110.648 278.961Z" fill="#463A7C"/>
<path d="M107.74 277.903L108.188 277.615L110.652 278.951L110.204 279.225L107.74 277.903Z" fill="#463A7C"/>
<path d="M110.207 267.525L107.744 266.203V268.927L110.207 270.249V267.525Z" fill="#E4DEFF"/>
<path d="M110.648 267.268L110.207 267.544L110.207 270.244L110.66 269.95L110.648 267.268Z" fill="#463A7C"/>
<path d="M107.74 266.21L108.188 265.922L110.652 267.257L110.204 267.532L107.74 266.21Z" fill="#463A7C"/>
<path d="M110.207 273.349L107.744 272.027V274.751L110.207 276.073V273.349Z" fill="#E4DEFF"/>
<path d="M110.648 273.088L110.207 273.365L110.207 276.064L110.66 275.77L110.648 273.088Z" fill="#463A7C"/>
<path d="M107.74 272.03L108.188 271.742L110.652 273.078L110.204 273.352L107.74 272.03Z" fill="#463A7C"/>
<path d="M104.727 258.721L102.264 257.399V260.123L104.727 261.445V258.721Z" fill="#E4DEFF"/>
<path d="M105.171 258.464L104.73 258.74L104.73 261.439L105.184 261.146L105.171 258.464Z" fill="#463A7C"/>
<path d="M102.263 257.406L102.711 257.117L105.176 258.453L104.727 258.727L102.263 257.406Z" fill="#463A7C"/>
<path d="M104.727 276.231L102.264 274.909V277.633L104.727 278.956V276.231Z" fill="#E4DEFF"/>
<path d="M105.171 275.974L104.73 276.251L104.73 278.95L105.184 278.656L105.171 275.974Z" fill="#463A7C"/>
<path d="M102.263 274.916L102.711 274.628L105.176 275.963L104.727 276.238L102.263 274.916Z" fill="#463A7C"/>
<path d="M104.727 264.541L102.264 263.219V265.943L104.727 267.265V264.541Z" fill="#E4DEFF"/>
<path d="M105.171 264.28L104.73 264.557L104.73 267.256L105.184 266.962L105.171 264.28Z" fill="#463A7C"/>
<path d="M102.263 263.222L102.711 262.934L105.176 264.27L104.727 264.544L102.263 263.222Z" fill="#463A7C"/>
<path d="M104.727 270.369L102.264 269.046V271.77L104.727 273.093V270.369Z" fill="#E4DEFF"/>
<path d="M105.171 270.115L104.73 270.391L104.73 273.09L105.184 272.796L105.171 270.115Z" fill="#463A7C"/>
<path d="M102.263 269.053L102.711 268.765L105.176 270.1L104.727 270.375L102.263 269.053Z" fill="#463A7C"/>
<path d="M115.695 287.891L113.233 286.568V289.292L115.695 290.615V287.891Z" fill="#E4DEFF"/>
<path d="M116.14 287.633L115.699 287.91L115.699 290.609L116.152 290.315L116.14 287.633Z" fill="#463A7C"/>
<path d="M113.232 286.575L113.68 286.287L116.145 287.622L115.696 287.897L113.232 286.575Z" fill="#463A7C"/>
<path d="M115.695 293.714L113.233 292.392V295.116L115.695 296.438V293.714Z" fill="#E4DEFF"/>
<path d="M116.14 293.457L115.699 293.733L115.699 296.433L116.152 296.139L116.14 293.457Z" fill="#463A7C"/>
<path d="M113.232 292.399L113.68 292.11L116.145 293.446L115.696 293.721L113.232 292.399Z" fill="#463A7C"/>
<path d="M110.207 284.916L107.744 283.594V286.318L110.207 287.64V284.916Z" fill="#E4DEFF"/>
<path d="M110.648 284.659L110.207 284.935L110.207 287.635L110.66 287.341L110.648 284.659Z" fill="#463A7C"/>
<path d="M107.74 283.601L108.188 283.312L110.652 284.648L110.204 284.922L107.74 283.601Z" fill="#463A7C"/>
<path d="M110.207 290.734L107.744 289.411V292.136L110.207 293.458V290.734Z" fill="#E4DEFF"/>
<path d="M110.648 290.476L110.207 290.753L110.207 293.452L110.66 293.158L110.648 290.476Z" fill="#463A7C"/>
<path d="M107.74 289.419L108.188 289.13L110.652 290.466L110.204 290.74L107.74 289.419Z" fill="#463A7C"/>
<path d="M104.727 281.929L102.264 280.607V283.331L104.727 284.654V281.929Z" fill="#E4DEFF"/>
<path d="M105.171 281.672L104.73 281.949L104.73 284.648L105.184 284.354L105.171 281.672Z" fill="#463A7C"/>
<path d="M102.263 280.614L102.711 280.326L105.176 281.661L104.727 281.936L102.263 280.614Z" fill="#463A7C"/>
<path d="M104.727 287.75L102.264 286.427V289.151L104.727 290.474V287.75Z" fill="#E4DEFF"/>
<path d="M105.171 287.496L104.73 287.772L104.73 290.471L105.184 290.177L105.171 287.496Z" fill="#463A7C"/>
<path d="M102.263 286.434L102.711 286.146L105.176 287.482L104.727 287.756L102.263 286.434Z" fill="#463A7C"/>
<path d="M104.727 293.567L102.264 292.244V294.968L104.727 296.291V293.567Z" fill="#E4DEFF"/>
<path d="M105.171 293.309L104.73 293.586L104.73 296.285L105.184 295.991L105.171 293.309Z" fill="#463A7C"/>
<path d="M102.263 292.251L102.711 291.963L105.176 293.299L104.727 293.573L102.263 292.251Z" fill="#463A7C"/>
</g>
<rect x="89.3047" y="105.303" width="136.364" height="189.394" rx="15.1515" stroke="#F4F4F4" stroke-width="1.89394"/>
</g>
<g filter="url(#filter1_d_498_5897)">
<rect x="250.918" y="105.303" width="136.364" height="189.394" rx="15.1515" fill="white"/>
<rect x="250.918" y="105.303" width="136.364" height="189.394" rx="15.1515" stroke="#F4F4F4" stroke-width="1.89394"/>
<path d="M294.236 148.454V130.826H300.687C304.084 130.826 306.177 132.549 306.177 135.381C306.177 137.449 305.266 138.852 303.444 139.566C305.488 140.231 306.522 141.659 306.522 143.826C306.522 146.657 304.404 148.454 301.056 148.454H294.236ZM300.662 132.401H296.009V138.852H300.884C303.099 138.852 304.355 137.621 304.355 135.528C304.355 133.559 303.026 132.401 300.662 132.401ZM301.056 140.403H296.009V146.854H301.056C303.37 146.854 304.724 145.648 304.724 143.604C304.724 141.61 303.346 140.403 301.056 140.403ZM314.472 148.75C310.976 148.75 308.637 146.239 308.637 142.496C308.637 138.778 310.951 136.218 314.349 136.218C317.574 136.218 319.766 138.507 319.766 141.881V142.718H310.287C310.41 145.623 311.936 147.297 314.497 147.297C316.442 147.297 317.698 146.46 318.141 144.884H319.766C319.126 147.396 317.279 148.75 314.472 148.75ZM314.349 137.67C312.108 137.67 310.631 139.148 310.336 141.487H318.067C318.067 139.197 316.59 137.67 314.349 137.67ZM327.283 148.75C323.811 148.75 321.768 146.091 321.768 142.521C321.768 138.926 323.811 136.218 327.357 136.218C329.327 136.218 330.902 137.079 331.739 138.803V130.506H333.438V148.454H331.961L331.789 146.017C330.952 147.864 329.277 148.75 327.283 148.75ZM327.579 147.199C330.188 147.199 331.715 145.229 331.715 142.472C331.715 139.739 330.188 137.744 327.579 137.744C324.993 137.744 323.491 139.739 323.491 142.472C323.491 145.229 324.993 147.199 327.579 147.199ZM336.097 145.106H337.722C337.722 146.485 338.756 147.347 340.43 147.347C342.277 147.347 343.36 146.559 343.36 145.278C343.36 144.293 342.868 143.727 341.464 143.382L339.421 142.865C337.353 142.348 336.343 141.265 336.343 139.64C336.343 137.547 338.091 136.218 340.652 136.218C343.163 136.218 344.788 137.597 344.862 139.812H343.213C343.163 138.434 342.203 137.621 340.603 137.621C338.928 137.621 337.993 138.335 337.993 139.615C337.993 140.526 338.633 141.167 339.938 141.487L341.982 142.004C344.05 142.521 344.985 143.481 344.985 145.204C344.985 147.347 343.163 148.75 340.455 148.75C337.771 148.75 336.097 147.322 336.097 145.106Z" fill="#6F6F6F"/>
<path d="M305.461 177.856H303.101V175.655L308.086 171.068H300.026V168.072H312.329V170.776L307.609 175.125C310.579 175.708 312.885 177.882 312.885 181.303C312.885 185.28 309.783 187.799 305.859 187.799C302.067 187.799 299.124 185.466 299.124 181.276H302.465C302.465 183.504 303.844 184.776 305.912 184.776C308.033 184.776 309.438 183.398 309.438 181.25C309.438 179.288 308.166 177.856 305.461 177.856ZM318.707 171.121H314.465V168.072H321.969V187.454H318.707V171.121ZM324.679 168.072H338.6V171.201L331.573 187.454H328.047L335.206 171.201H324.679V168.072Z" fill="#222222"/>
<path d="M271.059 230.028V255.404L289.583 234.486L308.108 213.568L304.552 211L271.059 230.028Z" fill="#F7F4FF"/>
<path d="M274.605 232.488L274.655 257.706L308.098 238.653V213.46L274.605 232.488Z" fill="#C7BFDF"/>
<path d="M271.102 230.031L274.659 232.589V257.67L271.102 255.42V230.031Z" fill="#46397C"/>
<path d="M368.395 273.147L308.239 238.925L274.859 251.248L274.859 257.915L335.014 292.137L368.395 273.147Z" fill="#46397C"/>
<path d="M317.887 245.64C309.629 250.338 301.071 247.598 297.824 245.64L308.073 240.058L317.887 245.64Z" fill="#F7F4FF"/>
<path d="M368.387 273.142V266.437L360.703 269.543L368.387 273.142Z" fill="#886BD4"/>
<rect width="69.2086" height="38.4039" transform="matrix(-0.869189 -0.494479 -0.869189 0.494479 368.395 266.432)" fill="#F7F4FF"/>
<path d="M368.527 273.124V266.586L335.027 285.383V292.113L368.527 273.124Z" fill="#886BD4"/>
<path d="M365.312 265.118L308.296 232.922L276.658 244.515L276.658 250.787L333.674 282.984L365.312 265.118Z" fill="#E4DCFE"/>
<path d="M317.441 239.238C309.615 243.658 301.504 241.08 298.426 239.238L308.14 233.986L317.441 239.238Z" fill="#F7F4FF"/>
<path d="M365.312 265.118L334.796 247.885L305.738 260.937L303.157 265.751L333.674 282.984L365.312 265.118Z" fill="#A490D9"/>
<path d="M339.206 251.533C331.38 255.953 326.214 255.038 324.61 254.029L334.228 248.722L339.206 251.533Z" fill="#F7F4FF"/>
<path d="M362.684 264.328V258.149L355.603 261.011L362.684 264.328Z" fill="#886BD4"/>
<rect width="65.4788" height="36.3342" transform="matrix(-0.870758 -0.491711 -0.870758 0.491711 365.312 258.802)" fill="#F7F4FF"/>
<path d="M365.422 265.109V258.958L333.669 276.643V282.974L365.422 265.109Z" fill="#9681CD"/>
<path d="M284.102 239.273C288.422 231.119 298.238 228.694 302.606 228.501L311.557 233.568C307.185 240.235 297.461 243.697 293.145 244.594L284.102 239.273Z" fill="#E4DCFE"/>
<path d="M311.476 233.615C307.434 234.611 298.109 238.203 293.141 244.607C297.579 243.644 307.461 240.097 311.476 233.615Z" fill="#C6BAEB"/>
<path d="M340.231 243.354L341.479 244.089C341.479 245.518 339.902 246.385 338.696 245.619L338.644 245.585L306.979 262.293C306.343 262.628 305.946 263.288 305.946 264.006C305.946 265.454 304.416 266.39 303.127 265.731L302.592 265.458C301.821 265.064 301.336 264.272 301.336 263.406V262.573C301.336 261.227 302.073 259.989 303.257 259.349L333.051 243.225C335.302 242.007 338.026 242.056 340.231 243.354Z" fill="#826BBE"/>
<path d="M307.703 261.958L340.58 244.525L365.254 258.919L333.632 276.653L307.703 261.958Z" fill="#826BBE"/>
</g>
<g filter="url(#filter2_d_498_5897)">
<g clip-path="url(#clip1_498_5897)">
<rect x="412.535" y="105.303" width="136.364" height="189.394" rx="15.1515" fill="white"/>
<path d="M439.01 132.451V130.826H451.641V132.451H446.2V148.455H444.427V132.451H439.01ZM457.006 148.75C453.51 148.75 451.17 146.239 451.17 142.496C451.17 138.779 453.485 136.218 456.883 136.218C460.108 136.218 462.299 138.508 462.299 141.881V142.718H452.82C452.943 145.623 454.47 147.298 457.03 147.298C458.975 147.298 460.231 146.46 460.674 144.885H462.299C461.659 147.396 459.813 148.75 457.006 148.75ZM456.883 137.671C454.642 137.671 453.165 139.148 452.869 141.487H460.6C460.6 139.197 459.123 137.671 456.883 137.671ZM466.837 148.455H465.139V136.538H466.616L466.862 138.606C467.65 137.08 469.226 136.218 470.949 136.218C474.224 136.218 475.578 138.163 475.578 141.167V148.455H473.879V141.536C473.879 138.754 472.623 137.769 470.654 137.769C468.216 137.769 466.837 139.542 466.837 142.226V148.455ZM482.509 148.75C479.973 148.75 478.472 147.322 478.472 145.229C478.472 143.038 480.146 141.659 482.928 141.438L486.867 141.118V140.724C486.867 138.385 485.464 137.646 483.716 137.646C481.648 137.646 480.417 138.582 480.417 140.182H478.866C478.866 137.769 480.835 136.218 483.765 136.218C486.523 136.218 488.542 137.597 488.542 140.748V148.455H487.114L486.892 146.362C486.153 147.864 484.528 148.75 482.509 148.75ZM482.903 147.371C485.415 147.371 486.867 145.623 486.867 143.038V142.398L483.347 142.669C481.106 142.866 480.195 143.851 480.195 145.18C480.195 146.633 481.278 147.371 482.903 147.371ZM493.773 148.455H492.074V136.538H493.551L493.797 138.606C494.585 137.08 496.161 136.218 497.884 136.218C501.159 136.218 502.513 138.163 502.513 141.167V148.455H500.814V141.536C500.814 138.754 499.559 137.769 497.589 137.769C495.151 137.769 493.773 139.542 493.773 142.226V148.455ZM508.755 148.455H507.081V137.966H504.693V136.538H507.081V132.771H508.755V136.538H511.144V137.966H508.755V148.455ZM512.469 145.106H514.094C514.094 146.485 515.129 147.347 516.803 147.347C518.649 147.347 519.733 146.559 519.733 145.279C519.733 144.294 519.24 143.727 517.837 143.383L515.793 142.866C513.725 142.349 512.716 141.265 512.716 139.64C512.716 137.548 514.464 136.218 517.024 136.218C519.536 136.218 521.161 137.597 521.235 139.813H519.585C519.536 138.434 518.575 137.621 516.975 137.621C515.301 137.621 514.365 138.335 514.365 139.616C514.365 140.527 515.005 141.167 516.31 141.487L518.354 142.004C520.422 142.521 521.358 143.481 521.358 145.205C521.358 147.347 519.536 148.75 516.827 148.75C514.144 148.75 512.469 147.322 512.469 145.106Z" fill="#6F6F6F"/>
<path d="M474.378 187.428L460.935 187.455V184.909L467.272 179.553C469.897 177.326 470.772 176.053 470.772 174.197C470.772 171.996 469.578 170.75 467.537 170.75C465.416 170.75 464.09 172.235 464.063 174.727H460.696C460.722 170.485 463.427 167.727 467.537 167.727C471.673 167.727 474.245 170.087 474.245 174.012C474.245 176.716 472.76 178.758 469.817 181.277L466.317 184.273H474.378V187.428ZM479.359 173.773L483.548 168.072H487.42L482.78 174.25C483.257 174.118 483.761 174.038 484.238 174.038C488.242 174.038 490.946 176.849 490.946 180.773C490.946 184.909 487.87 187.799 483.734 187.799C479.545 187.799 476.416 184.724 476.416 180.746C476.416 178.413 477.185 176.716 479.359 173.773ZM479.889 180.773C479.889 183.133 481.454 184.777 483.734 184.777C485.935 184.777 487.526 183.133 487.526 180.773C487.526 178.44 485.961 176.822 483.734 176.822C481.427 176.822 479.889 178.44 479.889 180.773ZM495.937 171.121H491.695V168.072H499.199V187.455H495.937V171.121Z" fill="#222222"/>
<path d="M456.325 274.03C462.534 270.828 473.679 269.691 473.679 269.691L490.166 274.897L502.313 276.633C502.313 276.633 510.02 277.887 513.594 280.971C518.548 285.247 519.667 296.59 519.667 296.59H441.574C441.574 296.59 442.354 286.676 445.913 281.839C448.925 277.745 451.807 276.359 456.325 274.03Z" fill="#9681CD" stroke="#C6BAEB" stroke-width="1.7354"/>
<path d="M503.156 228.946L506.375 225.727C506.375 225.727 508.617 228.08 508.715 229.97C508.79 231.396 507.577 232.795 507.691 233.481L507.984 235.236C508.098 235.922 508.097 236.936 507.984 238.016C507.779 239.975 506.521 242.843 506.521 242.843L504.18 242.258L503.156 236.699V228.946Z" fill="#1E1F24" stroke="#1E1F24" stroke-width="0.292588"/>
<path d="M481.796 248.36L479.086 256.456L476.324 262.359H474.005C472.947 262.359 472.305 262.675 471.295 262.359C470.298 262.047 469.93 261.466 469.094 260.841C468.416 260.335 468.146 259.891 467.4 259.492C466.607 259.068 465.96 259.293 465.198 258.817C464.2 258.194 462.322 256.233 461.529 255.366C461.118 254.395 460.594 246.947 460.594 246.947C460.594 246.947 455.888 240.779 456.858 238.528C457.828 236.277 457.792 233.284 457.792 231.044C457.792 228.805 460.768 226.669 461.529 225.432C462.318 224.148 463.993 219.696 465.265 218.883C466.42 218.001 468.497 217.229 469.936 217.013C473.302 216.506 474.04 213.1 477.408 212.602C479.641 212.272 483.005 213.697 485.184 213.107C486.554 212.737 486.992 211.595 488.402 211.421C490.844 211.119 491.817 212.081 494.222 212.602C495.838 212.952 496.538 213.972 498.056 214.625C499.735 215.348 500.022 216.275 501.695 217.013C503.267 217.706 504.018 217.313 505.508 218.168C506.923 218.979 507.36 220.12 507.71 221.71C508.112 223.54 507.684 224.747 506.863 226.432C506.286 227.618 505.683 228.124 504.83 229.131C502.565 231.808 498.056 235.035 498.056 235.035H487.385L481.179 238.111L481.796 248.36Z" fill="#1E1F24"/>
<path d="M474.912 266.614C475.968 263.761 476.61 259.034 476.61 259.034L495.06 263.687C495.06 263.687 493.389 267.228 492.732 269.623C492.073 272.024 491.712 275.904 491.712 275.904C491.712 275.904 488.582 277.772 486.33 278.098C483.606 278.492 481.837 278.211 479.374 277.033C476.11 275.471 473.323 270.162 473.323 270.162C473.323 270.162 474.385 268.036 474.912 266.614Z" fill="#DEA77E" stroke="#DAA97E" stroke-width="0.292588"/>
<path fill-rule="evenodd" clip-rule="evenodd" d="M484.504 260.938C483.986 263.579 483.208 267.194 482.37 269.874C481.677 272.089 480.586 274.803 479.617 277.074C479.514 277.027 479.411 276.978 479.306 276.928C476.041 275.366 473.254 270.058 473.254 270.058C473.254 270.058 474.317 267.931 474.843 266.509C475.9 263.657 476.542 258.93 476.542 258.93L484.504 260.938Z" fill="#D69E75"/>
<path d="M484.504 260.938L484.647 260.966L484.674 260.83L484.54 260.796L484.504 260.938ZM482.37 269.874L482.51 269.918L482.51 269.918L482.37 269.874ZM479.617 277.074L479.556 277.207L479.693 277.27L479.751 277.131L479.617 277.074ZM479.306 276.928L479.242 277.06L479.242 277.06L479.306 276.928ZM473.254 270.058L473.123 269.992L473.09 270.059L473.124 270.126L473.254 270.058ZM474.843 266.509L474.706 266.459L474.706 266.459L474.843 266.509ZM476.542 258.93L476.578 258.788L476.419 258.748L476.397 258.91L476.542 258.93ZM484.36 260.91C483.842 263.55 483.066 267.159 482.23 269.831L482.51 269.918C483.351 267.23 484.129 263.608 484.647 260.966L484.36 260.91ZM482.23 269.831C481.54 272.038 480.451 274.746 479.482 277.017L479.751 277.131C480.721 274.859 481.814 272.14 482.51 269.918L482.23 269.831ZM479.678 276.941C479.576 276.894 479.473 276.846 479.369 276.796L479.242 277.06C479.348 277.111 479.453 277.16 479.556 277.207L479.678 276.941ZM479.369 276.796C477.772 276.032 476.277 274.341 475.174 272.821C474.625 272.064 474.177 271.356 473.866 270.836C473.711 270.577 473.59 270.365 473.508 270.218C473.467 270.144 473.436 270.087 473.415 270.048C473.404 270.029 473.396 270.014 473.391 270.004C473.389 269.999 473.387 269.996 473.385 269.993C473.385 269.992 473.384 269.991 473.384 269.99C473.384 269.99 473.384 269.99 473.384 269.99C473.383 269.99 473.383 269.99 473.383 269.99C473.383 269.99 473.383 269.99 473.254 270.058C473.124 270.126 473.124 270.126 473.124 270.126C473.124 270.126 473.125 270.126 473.125 270.126C473.125 270.126 473.125 270.126 473.125 270.127C473.125 270.128 473.126 270.129 473.127 270.13C473.128 270.133 473.13 270.137 473.133 270.142C473.138 270.152 473.147 270.167 473.157 270.187C473.179 270.227 473.211 270.285 473.252 270.36C473.336 270.509 473.458 270.724 473.615 270.987C473.929 271.511 474.382 272.228 474.937 272.993C476.044 274.518 477.575 276.262 479.242 277.06L479.369 276.796ZM473.254 270.058C473.385 270.123 473.385 270.123 473.385 270.123C473.385 270.123 473.385 270.123 473.385 270.123C473.385 270.123 473.385 270.123 473.385 270.123C473.385 270.122 473.385 270.122 473.386 270.121C473.386 270.12 473.387 270.119 473.388 270.117C473.39 270.113 473.393 270.107 473.397 270.099C473.405 270.083 473.417 270.059 473.432 270.028C473.462 269.967 473.506 269.878 473.56 269.767C473.668 269.545 473.817 269.234 473.984 268.879C474.315 268.168 474.715 267.277 474.98 266.56L474.706 266.459C474.445 267.163 474.05 268.046 473.719 268.755C473.553 269.109 473.404 269.418 473.297 269.639C473.243 269.75 473.199 269.838 473.169 269.899C473.154 269.929 473.143 269.953 473.135 269.968C473.131 269.976 473.128 269.982 473.126 269.986C473.125 269.988 473.124 269.99 473.124 269.991C473.124 269.991 473.123 269.992 473.123 269.992C473.123 269.992 473.123 269.992 473.123 269.992C473.123 269.992 473.123 269.992 473.123 269.992C473.123 269.992 473.123 269.992 473.254 270.058ZM474.98 266.56C475.513 265.122 475.939 263.217 476.232 261.677C476.379 260.906 476.493 260.224 476.569 259.736C476.608 259.491 476.637 259.295 476.657 259.159C476.667 259.092 476.674 259.039 476.679 259.004C476.682 258.986 476.684 258.972 476.685 258.963C476.686 258.959 476.686 258.955 476.686 258.953C476.686 258.952 476.687 258.951 476.687 258.95C476.687 258.95 476.687 258.95 476.687 258.95C476.687 258.949 476.687 258.949 476.687 258.949C476.687 258.949 476.687 258.949 476.542 258.93C476.397 258.91 476.397 258.91 476.397 258.91C476.397 258.91 476.397 258.91 476.397 258.91C476.397 258.91 476.397 258.91 476.397 258.911C476.397 258.911 476.397 258.912 476.396 258.913C476.396 258.915 476.396 258.919 476.395 258.923C476.394 258.932 476.392 258.945 476.389 258.963C476.385 258.998 476.377 259.05 476.367 259.117C476.348 259.252 476.319 259.447 476.28 259.69C476.204 260.177 476.091 260.855 475.945 261.622C475.653 263.159 475.23 265.044 474.706 266.459L474.98 266.56ZM476.506 259.071L484.468 261.08L484.54 260.796L476.578 258.788L476.506 259.071Z" fill="#D69E75"/>
<path d="M480.057 247.567C480.372 249.849 478.765 252.212 478.765 252.212C478.765 252.212 477.145 251.256 476.344 250.414C475.428 249.45 475.658 248.358 474.568 247.567C473.435 246.744 472.427 246.411 471.016 246.668C469.934 246.864 469.199 247.16 468.594 248.016C467.835 249.093 468.421 250.035 468.594 251.313C468.799 252.82 468.718 253.861 469.724 255.058C470.446 255.917 471.339 255.957 472.146 256.707C472.953 257.456 472.792 258.205 473.438 258.804C474.083 259.404 474.772 259.421 475.698 259.554C476.446 259.661 477.635 259.554 477.635 259.554C477.635 259.554 477.631 261.847 478.442 263C479.078 263.903 479.741 264.192 480.703 264.798C482.504 265.933 485.384 266.446 485.869 266.746C486.353 267.045 490.577 268.678 493.779 269.293C495.832 269.687 497.014 269.799 499.107 269.892C500.492 269.954 501.308 270.186 502.659 269.892C504.031 269.594 505.888 268.394 505.888 268.394C505.888 268.394 507.021 267.029 507.341 265.996C507.724 264.759 507.341 263.987 507.341 262.7V259.554C507.341 259.554 507.73 256.363 507.825 254.309C507.919 252.263 508.46 251.026 507.825 249.065C507.37 247.661 505.888 245.769 505.888 245.769C505.888 245.769 506.569 243.326 506.695 241.723C506.777 240.673 506.695 239.625 506.695 239.026C506.695 238.427 505.039 236.173 504.273 234.231C503.401 232.019 502.659 228.388 502.659 228.388C502.659 228.388 501.69 230.635 500.237 231.534C498.784 232.433 495.232 233.632 493.779 233.932C492.326 234.231 487.483 233.182 484.093 233.932C480.702 234.681 481.195 234.614 480.057 235.879C478.468 237.646 479.25 241.723 479.25 241.723L480.057 247.567Z" fill="#E7B58E"/>
<path fill-rule="evenodd" clip-rule="evenodd" d="M486.281 266.881C485.729 265.091 485.042 263.255 484.229 261.818C483.819 261.094 483.338 260.575 482.878 260.078C482.226 259.374 481.615 258.714 481.303 257.576C480.818 255.804 481.504 254.521 482.243 253.14C482.769 252.155 483.323 251.12 483.498 249.822C483.894 246.878 483.498 242.215 483.498 242.215V237.533C483.498 236.701 484.407 235.323 485.398 234.069C484.751 234.102 484.122 234.178 483.54 234.316C480.888 234.948 480.858 234.985 480.236 235.779C480.137 235.905 480.024 236.049 479.883 236.218C478.444 237.943 479.152 241.924 479.152 241.924L479.883 247.629C480.169 249.857 478.713 252.164 478.713 252.164C478.713 252.164 477.244 251.232 476.518 250.409C476.141 249.981 475.979 249.528 475.821 249.088C475.631 248.56 475.448 248.051 474.909 247.629C473.883 246.826 472.969 246.501 471.691 246.751C470.71 246.943 470.044 247.232 469.496 248.068C468.989 248.842 469.144 249.546 469.323 250.361C469.388 250.652 469.455 250.958 469.496 251.286C469.53 251.551 469.555 251.802 469.578 252.041C469.687 253.129 469.772 253.985 470.52 254.944C470.877 255.401 471.281 255.621 471.692 255.845C472.035 256.031 472.383 256.221 472.715 256.553C473.101 256.939 473.242 257.325 473.376 257.69C473.496 258.016 473.609 258.325 473.885 258.601C474.397 259.113 474.938 259.19 475.628 259.288C475.727 259.302 475.828 259.316 475.933 259.333C476.611 259.437 477.689 259.333 477.689 259.333C477.689 259.333 477.685 261.572 478.42 262.697C478.894 263.422 479.384 263.741 480.027 264.161C480.167 264.252 480.313 264.347 480.468 264.453C481.55 265.187 483.06 265.655 484.084 265.972C484.606 266.133 485.002 266.256 485.15 266.355C485.277 266.439 485.689 266.634 486.281 266.881Z" fill="#E2AD84"/>
</g>
<rect x="412.535" y="105.303" width="136.364" height="189.394" rx="15.1515" stroke="#F4F4F4" stroke-width="1.89394"/>
</g>
<g filter="url(#filter3_d_498_5897)">
<g clip-path="url(#clip2_498_5897)">
<rect x="574.152" y="105.303" width="136.364" height="189.394" rx="15.1515" fill="white"/>
<path d="M618.915 135.405C618.915 132.451 621.279 130.506 624.824 130.506C628.001 130.506 630.093 132.279 630.364 135.233H628.567C628.37 133.239 627.016 132.106 624.8 132.106C622.313 132.106 620.688 133.387 620.688 135.381C620.688 136.932 621.599 137.917 623.446 138.385L626.474 139.123C629.232 139.788 630.66 141.364 630.66 143.752C630.66 146.805 628.296 148.75 624.652 148.75C621.23 148.75 618.915 146.953 618.694 144.072H620.516C620.614 145.919 622.239 147.125 624.652 147.125C627.237 147.125 628.887 145.869 628.887 143.851C628.887 142.275 628.001 141.241 626.105 140.798L623.126 140.059C620.368 139.394 618.915 137.818 618.915 135.405ZM636.334 148.455H634.66V137.966H632.272V136.538H634.66V132.771H636.334V136.538H638.723V137.966H636.334V148.455ZM644.288 148.75C641.752 148.75 640.25 147.322 640.25 145.229C640.25 143.038 641.924 141.659 644.706 141.438L648.646 141.118V140.724C648.646 138.385 647.242 137.646 645.494 137.646C643.426 137.646 642.195 138.582 642.195 140.182H640.644C640.644 137.769 642.614 136.218 645.544 136.218C648.301 136.218 650.32 137.597 650.32 140.748V148.455H648.892L648.67 146.362C647.932 147.864 646.307 148.75 644.288 148.75ZM644.682 147.371C647.193 147.371 648.646 145.623 648.646 143.038V142.398L645.125 142.669C642.885 142.866 641.974 143.851 641.974 145.18C641.974 146.633 643.057 147.371 644.682 147.371ZM652.427 136.538H654.249V134.224C654.249 131.54 655.726 130.506 657.548 130.506C657.966 130.506 658.459 130.53 658.853 130.604V132.057H657.843C656.341 132.057 655.947 132.82 655.947 134.224V136.538H658.754V137.966H655.947V148.455H654.249V137.966H652.427V136.538ZM659.955 136.538H661.777V134.224C661.777 131.54 663.255 130.506 665.076 130.506C665.495 130.506 665.987 130.53 666.381 130.604V132.057H665.372C663.87 132.057 663.476 132.82 663.476 134.224V136.538H666.283V137.966H663.476V148.455H661.777V137.966H659.955V136.538Z" fill="#6F6F6F"/>
<path d="M632.699 177.856H630.34V175.655L635.324 171.068H627.264V168.072H639.567V170.777L634.847 175.125C637.817 175.708 640.124 177.883 640.124 181.303C640.124 185.28 637.021 187.799 633.097 187.799C629.306 187.799 626.362 185.466 626.362 181.277H629.703C629.703 183.504 631.082 184.777 633.15 184.777C635.271 184.777 636.677 183.398 636.677 181.25C636.677 179.288 635.404 177.856 632.699 177.856ZM657.312 183.769H654.952V187.455H651.744V183.769H641.907V180.799L650.683 168.072H654.952V180.799H657.312V183.769ZM645.513 180.799H651.744V171.731L645.513 180.799Z" fill="#222222"/>
<path d="M617.946 274.03C624.155 270.828 635.3 269.691 635.3 269.691L651.787 274.897L663.934 276.633C663.934 276.633 671.642 277.887 675.215 280.971C680.169 285.247 681.289 296.59 681.289 296.59H603.195C603.195 296.59 603.976 286.676 607.534 281.839C610.546 277.745 613.429 276.359 617.946 274.03Z" fill="#9681CD" stroke="#C6BAEB" stroke-width="1.7354"/>
<path d="M661.93 228.946L665.148 225.727C665.148 225.727 667.39 228.08 667.489 229.97C667.563 231.396 666.351 232.795 666.465 233.481L666.757 235.236C666.872 235.922 666.87 236.936 666.757 238.016C666.552 239.975 665.294 242.844 665.294 242.844L662.954 242.258L661.93 236.699V228.946Z" fill="#1E1F24" stroke="#1E1F24" stroke-width="0.292588"/>
<path d="M643.424 247.574L640.907 255.084L638.341 260.56H636.187C635.204 260.56 634.608 260.853 633.67 260.56C632.743 260.27 632.402 259.731 631.625 259.152C630.995 258.682 630.745 258.27 630.051 257.9C629.315 257.507 628.714 257.715 628.006 257.274C627.079 256.696 625.334 254.877 624.597 254.073C624.216 253.172 623.73 246.264 623.73 246.264C623.73 246.264 619.358 240.543 620.259 238.455C621.16 236.366 621.127 233.59 621.127 231.513C621.127 229.436 623.891 227.454 624.597 226.307C625.331 225.116 626.887 220.986 628.068 220.232C629.141 219.414 631.07 218.698 632.407 218.497C635.534 218.028 636.22 214.868 639.348 214.406C641.423 214.1 644.547 215.422 646.571 214.875C647.844 214.531 648.251 213.472 649.56 213.311C651.829 213.031 652.733 213.923 654.967 214.406C656.468 214.731 657.118 215.677 658.528 216.283C660.088 216.954 660.355 217.813 661.908 218.497C663.369 219.141 664.066 218.776 665.45 219.569C666.765 220.322 667.171 221.38 667.496 222.854C667.87 224.552 667.471 225.671 666.709 227.235C666.173 228.335 665.613 228.804 664.821 229.738C662.716 232.221 658.528 235.214 658.528 235.214H648.616L642.851 238.068L643.424 247.574Z" fill="#1E1F24"/>
<path d="M636.533 266.615C637.589 263.762 638.232 259.035 638.232 259.035L656.681 263.688C656.681 263.688 655.01 267.228 654.353 269.624C653.695 272.025 653.333 275.904 653.333 275.904C653.333 275.904 650.203 277.772 647.951 278.098C645.227 278.493 643.458 278.212 640.995 277.034C637.731 275.472 634.944 270.163 634.944 270.163C634.944 270.163 636.006 268.036 636.533 266.615Z" fill="#DEA77E" stroke="#DAA97E" stroke-width="0.292588"/>
<path fill-rule="evenodd" clip-rule="evenodd" d="M646.117 260.939C645.598 263.581 644.821 267.196 643.983 269.875C643.29 272.091 642.199 274.805 641.229 277.076C641.126 277.029 641.021 276.98 640.915 276.929C637.651 275.367 634.863 270.058 634.863 270.058C634.863 270.058 635.926 267.932 636.452 266.51C637.509 263.658 638.151 258.93 638.151 258.93L646.117 260.939Z" fill="#D69E75"/>
<path d="M646.117 260.939L646.26 260.967L646.287 260.831L646.152 260.797L646.117 260.939ZM643.983 269.875L644.122 269.919L644.122 269.919L643.983 269.875ZM641.229 277.076L641.168 277.209L641.305 277.272L641.364 277.134L641.229 277.076ZM640.915 276.929L640.852 277.061L640.852 277.061L640.915 276.929ZM634.863 270.058L634.732 269.993L634.699 270.06L634.734 270.126L634.863 270.058ZM636.452 266.51L636.315 266.459L636.315 266.459L636.452 266.51ZM638.151 258.93L638.187 258.788L638.028 258.748L638.006 258.911L638.151 258.93ZM645.973 260.911C645.455 263.552 644.679 267.16 643.843 269.832L644.122 269.919C644.963 267.231 645.742 263.609 646.26 260.967L645.973 260.911ZM643.843 269.832C643.152 272.04 642.064 274.748 641.095 277.019L641.364 277.134C642.334 274.861 643.427 272.141 644.122 269.919L643.843 269.832ZM641.29 276.943C641.187 276.896 641.083 276.847 640.978 276.797L640.852 277.061C640.959 277.112 641.064 277.161 641.168 277.209L641.29 276.943ZM640.978 276.797C639.381 276.033 637.886 274.342 636.783 272.822C636.234 272.065 635.786 271.357 635.475 270.837C635.32 270.578 635.199 270.365 635.117 270.218C635.076 270.145 635.045 270.088 635.024 270.049C635.014 270.03 635.006 270.015 635.001 270.005C634.998 270 634.996 269.996 634.995 269.994C634.994 269.993 634.994 269.992 634.993 269.991C634.993 269.991 634.993 269.991 634.993 269.991C634.993 269.99 634.993 269.99 634.993 269.99C634.993 269.99 634.993 269.99 634.863 270.058C634.734 270.126 634.734 270.126 634.734 270.127C634.734 270.127 634.734 270.127 634.734 270.127C634.734 270.127 634.734 270.127 634.734 270.128C634.735 270.128 634.735 270.129 634.736 270.131C634.737 270.133 634.739 270.137 634.742 270.142C634.748 270.153 634.756 270.168 634.767 270.188C634.788 270.228 634.82 270.286 634.862 270.361C634.945 270.51 635.067 270.725 635.224 270.987C635.538 271.512 635.991 272.228 636.547 272.994C637.654 274.519 639.184 276.263 640.852 277.061L640.978 276.797ZM634.863 270.058C634.994 270.124 634.994 270.124 634.994 270.124C634.994 270.124 634.994 270.124 634.994 270.124C634.994 270.124 634.994 270.124 634.994 270.123C634.994 270.123 634.995 270.123 634.995 270.122C634.995 270.121 634.996 270.12 634.997 270.118C634.999 270.113 635.002 270.107 635.006 270.099C635.014 270.083 635.026 270.06 635.041 270.029C635.071 269.968 635.115 269.879 635.169 269.768C635.277 269.546 635.427 269.235 635.593 268.879C635.925 268.169 636.324 267.278 636.59 266.561L636.315 266.459C636.054 267.164 635.659 268.047 635.328 268.755C635.163 269.109 635.014 269.419 634.906 269.64C634.852 269.75 634.809 269.839 634.779 269.899C634.764 269.93 634.752 269.953 634.744 269.969C634.74 269.977 634.737 269.983 634.735 269.987C634.734 269.989 634.734 269.991 634.733 269.992C634.733 269.992 634.733 269.992 634.733 269.993C634.733 269.993 634.732 269.993 634.732 269.993C634.732 269.993 634.732 269.993 634.732 269.993C634.732 269.993 634.732 269.993 634.863 270.058ZM636.59 266.561C637.122 265.123 637.549 263.218 637.842 261.678C637.988 260.907 638.102 260.225 638.179 259.736C638.217 259.492 638.247 259.295 638.266 259.16C638.276 259.092 638.284 259.04 638.289 259.004C638.291 258.987 638.293 258.973 638.294 258.964C638.295 258.959 638.295 258.956 638.296 258.954C638.296 258.952 638.296 258.952 638.296 258.951C638.296 258.951 638.296 258.95 638.296 258.95C638.296 258.95 638.296 258.95 638.296 258.95C638.296 258.95 638.296 258.95 638.151 258.93C638.006 258.911 638.006 258.911 638.006 258.911C638.006 258.911 638.006 258.911 638.006 258.911C638.006 258.911 638.006 258.911 638.006 258.911C638.006 258.912 638.006 258.913 638.006 258.914C638.006 258.916 638.005 258.919 638.004 258.924C638.003 258.933 638.001 258.946 637.999 258.964C637.994 258.999 637.987 259.051 637.977 259.118C637.957 259.252 637.928 259.447 637.89 259.691C637.813 260.177 637.7 260.856 637.554 261.623C637.262 263.16 636.839 265.045 636.315 266.459L636.59 266.561ZM638.115 259.072L646.081 261.081L646.152 260.797L638.187 258.788L638.115 259.072Z" fill="#D69E75"/>
<path d="M641.666 247.566C641.981 249.848 640.375 252.211 640.375 252.211C640.375 252.211 638.754 251.255 637.953 250.413C637.037 249.449 637.267 248.357 636.177 247.566C635.045 246.743 634.036 246.41 632.625 246.667C631.543 246.863 630.808 247.159 630.204 248.015C629.444 249.092 630.031 250.034 630.204 251.312C630.408 252.819 630.327 253.86 631.334 255.057C632.055 255.916 632.948 255.956 633.756 256.706C634.563 257.455 634.401 258.204 635.047 258.803C635.693 259.403 636.381 259.42 637.307 259.553C638.055 259.66 639.245 259.553 639.245 259.553C639.245 259.553 639.24 261.846 640.052 262.999C640.688 263.902 641.35 264.191 642.312 264.797C644.113 265.932 646.994 266.445 647.478 266.745C647.963 267.044 652.187 268.677 655.389 269.292C657.441 269.686 658.623 269.798 660.716 269.891C662.102 269.953 662.918 270.185 664.268 269.891C665.641 269.593 667.497 268.393 667.497 268.393C667.497 268.393 668.63 267.028 668.95 265.995C669.333 264.758 668.95 263.986 668.95 262.699V259.553C668.95 259.553 669.34 256.362 669.434 254.308C669.528 252.262 670.069 251.025 669.434 249.064C668.98 247.66 667.497 245.768 667.497 245.768C667.497 245.768 668.179 243.325 668.304 241.722C668.386 240.672 668.304 239.624 668.304 239.025C668.304 238.426 666.648 236.172 665.883 234.23C665.01 232.018 664.268 228.387 664.268 228.387C664.268 228.387 663.3 230.634 661.846 231.533C660.393 232.432 656.842 233.631 655.389 233.931C653.936 234.23 649.093 233.181 645.702 233.931C642.312 234.68 642.805 234.613 641.666 235.879C640.078 237.645 640.859 241.722 640.859 241.722L641.666 247.566Z" fill="#E7B58E"/>
<path fill-rule="evenodd" clip-rule="evenodd" d="M647.898 266.881C647.346 265.091 646.659 263.254 645.846 261.818C645.436 261.093 644.955 260.574 644.495 260.078C643.843 259.373 643.232 258.714 642.92 257.575C642.436 255.804 643.121 254.521 643.86 253.14C644.387 252.155 644.94 251.12 645.115 249.822C645.511 246.878 645.115 242.215 645.115 242.215V237.533C645.115 236.701 646.024 235.323 647.015 234.068C646.369 234.102 645.74 234.177 645.158 234.316C642.505 234.948 642.476 234.985 641.853 235.779C641.754 235.905 641.641 236.049 641.5 236.218C640.061 237.942 640.769 241.923 640.769 241.923L641.5 247.629C641.786 249.857 640.33 252.164 640.33 252.164C640.33 252.164 638.862 251.231 638.136 250.408C637.759 249.981 637.596 249.528 637.438 249.088C637.248 248.56 637.065 248.05 636.526 247.629C635.5 246.826 634.586 246.501 633.308 246.751C632.327 246.943 631.661 247.231 631.113 248.068C630.606 248.842 630.761 249.545 630.941 250.36C631.005 250.652 631.072 250.957 631.113 251.286C631.147 251.551 631.172 251.801 631.196 252.04C631.304 253.129 631.39 253.985 632.138 254.943C632.494 255.401 632.898 255.62 633.309 255.845C633.652 256.031 634 256.221 634.332 256.553C634.718 256.939 634.86 257.325 634.993 257.69C635.113 258.016 635.226 258.324 635.502 258.601C636.014 259.113 636.556 259.19 637.245 259.288C637.344 259.302 637.445 259.316 637.55 259.332C638.228 259.437 639.306 259.332 639.306 259.332C639.306 259.332 639.302 261.571 640.037 262.697C640.511 263.422 641.001 263.741 641.644 264.161C641.784 264.251 641.93 264.347 642.086 264.452C643.167 265.187 644.677 265.655 645.701 265.972C646.223 266.133 646.619 266.256 646.767 266.354C646.894 266.439 647.306 266.633 647.898 266.881Z" fill="#E2AD84"/>
<path d="M655.594 257.765L640.443 252.083C640.443 252.083 639.137 256.699 639.496 259.659C639.679 261.173 639.624 262.16 640.443 263.447C641.775 265.54 643.166 265.178 646.125 266.288L653.701 269.129C656.659 270.238 663.171 271.969 658.435 269.129C653.7 266.288 655.594 263.447 655.594 263.447V257.765Z" fill="#A78469" stroke="#A78469" stroke-width="0.94697"/>
<path d="M655.594 256.818C656.975 254.93 661.276 254.924 661.276 254.924C661.276 254.924 663.57 253.672 665.064 253.977C666.37 254.243 667.086 254.818 667.905 255.871C669.062 257.359 668.651 258.731 668.851 260.606C669.088 262.812 669.652 264.218 668.851 266.287C668.37 267.531 668.01 268.31 666.958 269.128C665.469 270.286 664.099 269.891 662.223 270.075C660.382 270.256 659.658 270.039 658.435 269.128C657.365 268.332 657.17 267.463 656.541 266.287C655.437 264.225 654.593 262.944 654.647 260.606C654.682 259.081 654.693 258.048 655.594 256.818Z" stroke="#443A32" stroke-width="2.36742"/>
</g>
<rect x="574.152" y="105.303" width="136.364" height="189.394" rx="15.1515" stroke="#F4F4F4" stroke-width="1.89394"/>
</g>
<defs>
<filter id="filter0_d_498_5897" x="80.7836" y="98.6741" width="153.409" height="206.439" filterUnits="userSpaceOnUse" color-interpolation-filters="sRGB">
<feFlood flood-opacity="0" result="BackgroundImageFix"/>
<feColorMatrix in="SourceAlpha" type="matrix" values="0 0 0 0 0 0 0 0 0 0 0 0 0 0 0 0 0 0 127 0" result="hardAlpha"/>
<feOffset dy="1.89394"/>
<feGaussianBlur stdDeviation="3.78788"/>
<feComposite in2="hardAlpha" operator="out"/>
<feColorMatrix type="matrix" values="0 0 0 0 0.838184 0 0 0 0 0.838184 0 0 0 0 0.838184 0 0 0 0.25 0"/>
<feBlend mode="normal" in2="BackgroundImageFix" result="effect1_dropShadow_498_5897"/>
<feBlend mode="normal" in="SourceGraphic" in2="effect1_dropShadow_498_5897" result="shape"/>
</filter>
<filter id="filter1_d_498_5897" x="242.397" y="98.6741" width="153.409" height="206.439" filterUnits="userSpaceOnUse" color-interpolation-filters="sRGB">
<feFlood flood-opacity="0" result="BackgroundImageFix"/>
<feColorMatrix in="SourceAlpha" type="matrix" values="0 0 0 0 0 0 0 0 0 0 0 0 0 0 0 0 0 0 127 0" result="hardAlpha"/>
<feOffset dy="1.89394"/>
<feGaussianBlur stdDeviation="3.78788"/>
<feComposite in2="hardAlpha" operator="out"/>
<feColorMatrix type="matrix" values="0 0 0 0 0.838184 0 0 0 0 0.838184 0 0 0 0 0.838184 0 0 0 0.25 0"/>
<feBlend mode="normal" in2="BackgroundImageFix" result="effect1_dropShadow_498_5897"/>
<feBlend mode="normal" in="SourceGraphic" in2="effect1_dropShadow_498_5897" result="shape"/>
</filter>
<filter id="filter2_d_498_5897" x="404.014" y="98.6741" width="153.409" height="206.439" filterUnits="userSpaceOnUse" color-interpolation-filters="sRGB">
<feFlood flood-opacity="0" result="BackgroundImageFix"/>
<feColorMatrix in="SourceAlpha" type="matrix" values="0 0 0 0 0 0 0 0 0 0 0 0 0 0 0 0 0 0 127 0" result="hardAlpha"/>
<feOffset dy="1.89394"/>
<feGaussianBlur stdDeviation="3.78788"/>
<feComposite in2="hardAlpha" operator="out"/>
<feColorMatrix type="matrix" values="0 0 0 0 0.838184 0 0 0 0 0.838184 0 0 0 0 0.838184 0 0 0 0.25 0"/>
<feBlend mode="normal" in2="BackgroundImageFix" result="effect1_dropShadow_498_5897"/>
<feBlend mode="normal" in="SourceGraphic" in2="effect1_dropShadow_498_5897" result="shape"/>
</filter>
<filter id="filter3_d_498_5897" x="565.631" y="98.6741" width="153.409" height="206.439" filterUnits="userSpaceOnUse" color-interpolation-filters="sRGB">
<feFlood flood-opacity="0" result="BackgroundImageFix"/>
<feColorMatrix in="SourceAlpha" type="matrix" values="0 0 0 0 0 0 0 0 0 0 0 0 0 0 0 0 0 0 127 0" result="hardAlpha"/>
<feOffset dy="1.89394"/>
<feGaussianBlur stdDeviation="3.78788"/>
<feComposite in2="hardAlpha" operator="out"/>
<feColorMatrix type="matrix" values="0 0 0 0 0.838184 0 0 0 0 0.838184 0 0 0 0 0.838184 0 0 0 0.25 0"/>
<feBlend mode="normal" in2="BackgroundImageFix" result="effect1_dropShadow_498_5897"/>
<feBlend mode="normal" in="SourceGraphic" in2="effect1_dropShadow_498_5897" result="shape"/>
</filter>
<clipPath id="clip0_498_5897">
<rect x="89.3047" y="105.303" width="136.364" height="189.394" rx="15.1515" fill="white"/>
</clipPath>
<clipPath id="clip1_498_5897">
<rect x="412.535" y="105.303" width="136.364" height="189.394" rx="15.1515" fill="white"/>
</clipPath>
<clipPath id="clip2_498_5897">
<rect x="574.152" y="105.303" width="136.364" height="189.394" rx="15.1515" fill="white"/>
</clipPath>
</defs>
</svg>
