<svg width="336" height="292" viewBox="0 0 336 292" fill="none" xmlns="http://www.w3.org/2000/svg">
<g filter="url(#filter0_d_493_13990)">
<rect x="4" y="3" width="328" height="284" rx="8" fill="white" shape-rendering="crispEdges"/>
<g clip-path="url(#clip0_493_13990)">
<path d="M23.02 41.716C19.186 41.716 16.702 39.052 16.702 34.93C16.702 30.844 19.276 28.126 23.128 28.126C26.242 28.126 28.564 29.944 29.014 32.77H26.584C26.134 31.24 24.82 30.34 23.074 30.34C20.644 30.34 19.114 32.104 19.114 34.912C19.114 37.702 20.662 39.502 23.074 39.502C24.856 39.502 26.224 38.566 26.656 37.108H29.05C28.546 39.88 26.134 41.716 23.02 41.716ZM30.2702 37.036C30.2702 34.264 32.2682 32.356 35.0222 32.356C37.7762 32.356 39.7742 34.264 39.7742 37.036C39.7742 39.808 37.7762 41.716 35.0222 41.716C32.2682 41.716 30.2702 39.808 30.2702 37.036ZM32.4662 37.036C32.4662 38.656 33.5102 39.754 35.0222 39.754C36.5342 39.754 37.5782 38.656 37.5782 37.036C37.5782 35.416 36.5342 34.318 35.0222 34.318C33.5102 34.318 32.4662 35.416 32.4662 37.036ZM43.7289 41.5H41.5509V28.108H43.7289V41.5ZM48.2464 41.5H46.0684V28.108H48.2464V41.5ZM54.528 41.734C51.882 41.734 50.028 39.808 50.028 37.054C50.028 34.264 51.846 32.338 54.456 32.338C57.12 32.338 58.812 34.12 58.812 36.892V37.558L52.116 37.576C52.278 39.142 53.106 39.934 54.564 39.934C55.77 39.934 56.562 39.466 56.814 38.62H58.848C58.47 40.564 56.85 41.734 54.528 41.734ZM54.474 34.138C53.178 34.138 52.386 34.84 52.17 36.172H56.634C56.634 34.948 55.788 34.138 54.474 34.138ZM60.0475 37.036C60.0475 34.282 61.8655 32.338 64.4935 32.338C66.9235 32.338 68.5795 33.688 68.8135 35.83H66.6175C66.3655 34.822 65.6275 34.3 64.5835 34.3C63.1795 34.3 62.2435 35.362 62.2435 37.036C62.2435 38.71 63.1075 39.754 64.5115 39.754C65.6095 39.754 66.3835 39.214 66.6175 38.242H68.8315C68.5615 40.312 66.8335 41.734 64.5115 41.734C61.8115 41.734 60.0475 39.862 60.0475 37.036ZM73.49 41.5H71.294V34.444H69.584V32.608H71.294V29.836H73.49V32.608H75.218V34.444H73.49V41.5ZM77.6812 30.826C76.9252 30.826 76.3312 30.232 76.3312 29.494C76.3312 28.756 76.9252 28.18 77.6812 28.18C78.4012 28.18 78.9952 28.756 78.9952 29.494C78.9952 30.232 78.4012 30.826 77.6812 30.826ZM76.5832 41.5V32.608H78.7792V41.5H76.5832ZM80.5261 37.036C80.5261 34.264 82.5241 32.356 85.2781 32.356C88.0321 32.356 90.0301 34.264 90.0301 37.036C90.0301 39.808 88.0321 41.716 85.2781 41.716C82.5241 41.716 80.5261 39.808 80.5261 37.036ZM82.7221 37.036C82.7221 38.656 83.7661 39.754 85.2781 39.754C86.7901 39.754 87.8341 38.656 87.8341 37.036C87.8341 35.416 86.7901 34.318 85.2781 34.318C83.7661 34.318 82.7221 35.416 82.7221 37.036ZM93.9667 41.5H91.7707V32.608H93.8047L93.9847 33.76C94.5427 32.86 95.6227 32.338 96.8287 32.338C99.0607 32.338 100.213 33.724 100.213 36.028V41.5H98.0167V36.55C98.0167 35.056 97.2787 34.336 96.1447 34.336C94.7947 34.336 93.9667 35.272 93.9667 36.712V41.5Z" fill="#222222"/>
<rect x="240.5" y="19.5" width="79" height="31" rx="15.5" fill="white"/>
<rect x="240.5" y="19.5" width="79" height="31" rx="15.5" stroke="#C8C8C8"/>
<path d="M253.131 40H252.182L255.601 30.692H256.758L260.216 40H259.241L258.331 37.53H254.041L253.131 40ZM256.056 32.005L254.327 36.711H258.032L256.29 32.005C256.251 31.875 256.186 31.719 256.173 31.628C256.16 31.706 256.108 31.875 256.056 32.005ZM265.686 33.708H266.583V40H265.803L265.686 38.934C265.335 39.662 264.464 40.156 263.476 40.156C261.994 40.156 261.188 39.142 261.188 37.608V33.695H262.098V37.322C262.098 38.817 262.761 39.35 263.762 39.35C264.971 39.35 265.686 38.544 265.686 37.049V33.708ZM268.087 36.672C268.087 34.956 269.192 33.539 271.038 33.539C272.13 33.539 272.962 34.046 273.365 34.969L273.456 33.708H274.236V39.805C274.236 41.677 273.04 42.899 271.194 42.899C269.582 42.899 268.451 41.989 268.204 40.468H269.101C269.296 41.482 270.076 42.08 271.207 42.08C272.494 42.08 273.352 41.209 273.352 39.896V38.401C272.923 39.285 272.052 39.805 270.973 39.805C269.179 39.805 268.087 38.388 268.087 36.672ZM268.984 36.659C268.984 37.946 269.777 38.999 271.103 38.999C272.468 38.999 273.274 38.011 273.274 36.659C273.274 35.32 272.494 34.332 271.116 34.332C269.764 34.332 268.984 35.385 268.984 36.659ZM280.593 33.708H281.49V40H280.71L280.593 38.934C280.242 39.662 279.371 40.156 278.383 40.156C276.901 40.156 276.095 39.142 276.095 37.608V33.695H277.005V37.322C277.005 38.817 277.668 39.35 278.669 39.35C279.878 39.35 280.593 38.544 280.593 37.049V33.708ZM282.764 38.232H283.622C283.622 38.96 284.168 39.415 285.052 39.415C286.027 39.415 286.599 38.999 286.599 38.323C286.599 37.803 286.339 37.504 285.598 37.322L284.519 37.049C283.427 36.776 282.894 36.204 282.894 35.346C282.894 34.241 283.817 33.539 285.169 33.539C286.495 33.539 287.353 34.267 287.392 35.437H286.521C286.495 34.709 285.988 34.28 285.143 34.28C284.259 34.28 283.765 34.657 283.765 35.333C283.765 35.814 284.103 36.152 284.792 36.321L285.871 36.594C286.963 36.867 287.457 37.374 287.457 38.284C287.457 39.415 286.495 40.156 285.065 40.156C283.648 40.156 282.764 39.402 282.764 38.232ZM290.441 40H289.557V34.462H288.296V33.708H289.557V31.719H290.441V33.708H291.702V34.462H290.441V40Z" fill="#585858"/>
<g clip-path="url(#clip1_493_13990)">
<path d="M303.259 34.7583L305.417 36.9166C305.742 37.2416 306.267 37.2416 306.592 36.9166L308.75 34.7583C309.275 34.2333 308.9 33.3333 308.159 33.3333H303.842C303.1 33.3333 302.734 34.2333 303.259 34.7583Z" fill="#6F6F6F"/>
</g>
<g clip-path="url(#clip2_493_13990)">
<rect x="16" y="67" width="40" height="24" rx="4" fill="#0DAA84"/>
<rect x="16" y="67" width="40" height="24" rx="4" stroke="white" stroke-width="3"/>
<rect x="56" y="67" width="264" height="24" rx="4" fill="#F96B74"/>
<rect x="56" y="67" width="264" height="24" rx="4" stroke="white" stroke-width="3"/>
</g>
<rect x="18" y="111.5" width="12" height="12" rx="4" fill="#F96B74"/>
<path d="M43.04 119.318H40.226V123H39.218V112.976H43.04C44.972 112.976 46.19 114.236 46.19 116.126C46.19 117.946 44.958 119.318 43.04 119.318ZM42.9 113.886H40.226V118.408H42.844C44.3 118.408 45.14 117.484 45.14 116.112C45.14 114.726 44.286 113.886 42.9 113.886ZM50.2188 123.168C48.2308 123.168 46.9008 121.74 46.9008 119.612C46.9008 117.498 48.2168 116.042 50.1488 116.042C51.9828 116.042 53.2288 117.344 53.2288 119.262V119.738H47.8388C47.9088 121.39 48.7768 122.342 50.2328 122.342C51.3388 122.342 52.0528 121.866 52.3048 120.97H53.2288C52.8648 122.398 51.8148 123.168 50.2188 123.168ZM50.1488 116.868C48.8748 116.868 48.0348 117.708 47.8668 119.038H52.2628C52.2628 117.736 51.4228 116.868 50.1488 116.868ZM55.8093 123H54.8433V116.224H55.6833L55.8233 117.4C56.2713 116.532 57.1673 116.042 58.1473 116.042C60.0093 116.042 60.7793 117.148 60.7793 118.856V123H59.8133V119.066C59.8133 117.484 59.0993 116.924 57.9793 116.924C56.5933 116.924 55.8093 117.932 55.8093 119.458V123ZM65.4346 123.168C63.4606 123.168 62.2986 121.656 62.2986 119.626C62.2986 117.582 63.4606 116.042 65.4766 116.042C66.5966 116.042 67.4926 116.532 67.9686 117.512V112.794H68.9346V123H68.0946L67.9966 121.614C67.5206 122.664 66.5686 123.168 65.4346 123.168ZM65.6026 122.286C67.0866 122.286 67.9546 121.166 67.9546 119.598C67.9546 118.044 67.0866 116.91 65.6026 116.91C64.1326 116.91 63.2786 118.044 63.2786 119.598C63.2786 121.166 64.1326 122.286 65.6026 122.286ZM71.4964 114.362C71.1044 114.362 70.7824 114.04 70.7824 113.648C70.7824 113.256 71.1044 112.92 71.4964 112.92C71.8884 112.92 72.2244 113.256 72.2244 113.648C72.2244 114.04 71.8884 114.362 71.4964 114.362ZM71.0204 123V116.224H71.9864V123H71.0204ZM75.0369 123H74.0709V116.224H74.9109L75.0509 117.4C75.4989 116.532 76.3949 116.042 77.3749 116.042C79.2369 116.042 80.0069 117.148 80.0069 118.856V123H79.0409V119.066C79.0409 117.484 78.3269 116.924 77.2069 116.924C75.8209 116.924 75.0369 117.932 75.0369 119.458V123ZM81.5402 119.416C81.5402 117.568 82.7302 116.042 84.7182 116.042C85.8942 116.042 86.7902 116.588 87.2242 117.582L87.3222 116.224H88.1622V122.79C88.1622 124.806 86.8742 126.122 84.8862 126.122C83.1502 126.122 81.9322 125.142 81.6662 123.504H82.6322C82.8422 124.596 83.6822 125.24 84.9002 125.24C86.2862 125.24 87.2102 124.302 87.2102 122.888V121.278C86.7482 122.23 85.8102 122.79 84.6482 122.79C82.7162 122.79 81.5402 121.264 81.5402 119.416ZM82.5062 119.402C82.5062 120.788 83.3602 121.922 84.7882 121.922C86.2582 121.922 87.1262 120.858 87.1262 119.402C87.1262 117.96 86.2862 116.896 84.8022 116.896C83.3462 116.896 82.5062 118.03 82.5062 119.402Z" fill="#585858"/>
<path d="M249.43 123L246.91 118.604V117.568H247.75C248.086 117.568 248.38 117.521 248.632 117.428C248.893 117.325 249.108 117.181 249.276 116.994C249.453 116.807 249.575 116.583 249.64 116.322H246.91V115.286H249.626C249.57 115.043 249.472 114.829 249.332 114.642C249.201 114.455 249.024 114.311 248.8 114.208C248.585 114.096 248.324 114.04 248.016 114.04H246.91V113.004H253.224V114.04H251.026C251.185 114.217 251.315 114.409 251.418 114.614C251.53 114.819 251.605 115.043 251.642 115.286H253.224V116.322H251.67C251.577 117.013 251.311 117.554 250.872 117.946C250.433 118.329 249.869 118.59 249.178 118.73L251.922 123H249.43ZM256.798 114.376H254.558V112.766H258.52V123H256.798V114.376ZM263.764 123.168C261.622 123.168 260.208 121.796 260.208 119.724H261.986C261.986 120.886 262.672 121.572 263.806 121.572C265.01 121.572 265.78 120.788 265.78 119.542C265.78 118.352 265.066 117.54 263.834 117.54C263.05 117.54 262.336 117.932 261.972 118.464L260.39 118.128L261.65 112.766H266.984V114.418H262.938L262.392 116.546C262.882 116.224 263.498 116.042 264.198 116.042C266.242 116.042 267.6 117.428 267.6 119.444C267.6 121.656 266.046 123.168 263.764 123.168ZM271.044 122.384C271.044 123.546 270.204 124.47 269.07 124.61V123.924C269.7 123.812 270.176 123.434 270.176 122.944C270.064 123 269.938 123.028 269.77 123.028C269.224 123.028 268.776 122.622 268.776 122.062C268.776 121.39 269.21 120.942 269.84 120.942C270.54 120.942 271.044 121.516 271.044 122.384ZM272.12 117.904C272.12 114.726 273.828 112.57 276.446 112.57C279.064 112.57 280.786 114.726 280.786 117.904C280.786 121.068 279.162 123.182 276.446 123.182C273.73 123.182 272.12 121.068 272.12 117.904ZM273.884 117.904C273.884 120.27 274.836 121.6 276.446 121.6C278.07 121.6 279.022 120.27 279.022 117.904C279.022 115.482 278.07 114.152 276.446 114.152C274.836 114.152 273.884 115.482 273.884 117.904ZM288.081 119.99L285.869 123H283.825L286.275 119.738C286.023 119.808 285.757 119.85 285.505 119.85C283.391 119.85 281.963 118.366 281.963 116.294C281.963 114.11 283.587 112.584 285.771 112.584C287.983 112.584 289.635 114.208 289.635 116.308C289.635 117.54 289.229 118.436 288.081 119.99ZM287.801 116.294C287.801 115.048 286.975 114.18 285.771 114.18C284.595 114.18 283.769 115.048 283.769 116.294C283.769 117.526 284.595 118.38 285.771 118.38C286.989 118.38 287.801 117.526 287.801 116.294ZM292.869 122.384C292.869 123.546 292.029 124.47 290.895 124.61V123.924C291.525 123.812 292.001 123.434 292.001 122.944C291.889 123 291.763 123.028 291.595 123.028C291.049 123.028 290.601 122.622 290.601 122.062C290.601 121.39 291.035 120.942 291.665 120.942C292.365 120.942 292.869 121.516 292.869 122.384ZM297.761 123.168C295.619 123.168 294.205 121.796 294.205 119.724H295.983C295.983 120.886 296.669 121.572 297.803 121.572C299.007 121.572 299.777 120.788 299.777 119.542C299.777 118.352 299.063 117.54 297.831 117.54C297.047 117.54 296.333 117.932 295.969 118.464L294.387 118.128L295.647 112.766H300.981V114.418H296.935L296.389 116.546C296.879 116.224 297.495 116.042 298.195 116.042C300.239 116.042 301.597 117.428 301.597 119.444C301.597 121.656 300.043 123.168 297.761 123.168ZM302.097 112.766H309.447V114.418L305.737 123H303.875L307.655 114.418H302.097V112.766ZM313.324 117.932H312.078V116.77L314.71 114.348H310.454V112.766H316.95V114.194L314.458 116.49C316.026 116.798 317.244 117.946 317.244 119.752C317.244 121.852 315.606 123.182 313.534 123.182C311.532 123.182 309.978 121.95 309.978 119.738H311.742C311.742 120.914 312.47 121.586 313.562 121.586C314.682 121.586 315.424 120.858 315.424 119.724C315.424 118.688 314.752 117.932 313.324 117.932Z" fill="#F96B74"/>
<rect x="18" y="144.5" width="12" height="12" rx="4" fill="#0DAA84"/>
<path d="M40.226 156H39.218V145.976H42.956C44.986 145.976 46.218 147.096 46.218 148.874C46.218 150.316 45.462 151.324 44.174 151.674L46.316 156H45.196L43.152 151.842H40.226V156ZM40.226 146.886V150.932H42.984C44.37 150.932 45.182 150.176 45.182 148.902C45.182 147.6 44.328 146.886 42.956 146.886H40.226ZM50.3829 156.168C48.3949 156.168 47.0649 154.74 47.0649 152.612C47.0649 150.498 48.3809 149.042 50.3129 149.042C52.1469 149.042 53.3929 150.344 53.3929 152.262V152.738H48.0029C48.0729 154.39 48.9409 155.342 50.3969 155.342C51.5029 155.342 52.2169 154.866 52.4689 153.97H53.3929C53.0289 155.398 51.9789 156.168 50.3829 156.168ZM50.3129 149.868C49.0389 149.868 48.1989 150.708 48.0309 152.038H52.4269C52.4269 150.736 51.5869 149.868 50.3129 149.868ZM54.5314 152.626C54.5314 150.498 55.8334 149.042 57.8074 149.042C59.3754 149.042 60.5234 149.952 60.7894 151.352H59.8234C59.5714 150.414 58.7594 149.896 57.8214 149.896C56.4494 149.896 55.4834 150.946 55.4834 152.612C55.4834 154.222 56.3794 155.3 57.7514 155.3C58.7594 155.3 59.5714 154.74 59.8374 153.872H60.8174C60.4954 155.258 59.2914 156.168 57.7514 156.168C55.8334 156.168 54.5314 154.754 54.5314 152.626ZM65.1928 156.168C63.2048 156.168 61.8748 154.74 61.8748 152.612C61.8748 150.498 63.1908 149.042 65.1228 149.042C66.9568 149.042 68.2028 150.344 68.2028 152.262V152.738H62.8128C62.8828 154.39 63.7508 155.342 65.2068 155.342C66.3128 155.342 67.0268 154.866 67.2788 153.97H68.2028C67.8388 155.398 66.7888 156.168 65.1928 156.168ZM65.1228 149.868C63.8488 149.868 63.0088 150.708 62.8408 152.038H67.2368C67.2368 150.736 66.3968 149.868 65.1228 149.868ZM70.2933 147.362C69.9013 147.362 69.5793 147.04 69.5793 146.648C69.5793 146.256 69.9013 145.92 70.2933 145.92C70.6853 145.92 71.0213 146.256 71.0213 146.648C71.0213 147.04 70.6853 147.362 70.2933 147.362ZM69.8173 156V149.224H70.7833V156H69.8173ZM74.7578 156L71.9858 149.224H73.0218L74.7718 153.592C74.9538 154.082 75.1358 154.544 75.2618 154.992C75.3878 154.53 75.5698 154.082 75.7658 153.592L77.5438 149.224H78.5378L75.7238 156H74.7578ZM82.2876 156.168C80.2996 156.168 78.9696 154.74 78.9696 152.612C78.9696 150.498 80.2856 149.042 82.2176 149.042C84.0516 149.042 85.2976 150.344 85.2976 152.262V152.738H79.9076C79.9776 154.39 80.8456 155.342 82.3016 155.342C83.4076 155.342 84.1216 154.866 84.3736 153.97H85.2976C84.9336 155.398 83.8836 156.168 82.2876 156.168ZM82.2176 149.868C80.9436 149.868 80.1036 150.708 79.9356 152.038H84.3316C84.3316 150.736 83.4916 149.868 82.2176 149.868ZM89.5721 156.168C87.5981 156.168 86.4361 154.656 86.4361 152.626C86.4361 150.582 87.5981 149.042 89.6141 149.042C90.7341 149.042 91.6301 149.532 92.1061 150.512V145.794H93.0721V156H92.2321L92.1341 154.614C91.6581 155.664 90.7061 156.168 89.5721 156.168ZM89.7401 155.286C91.2241 155.286 92.0921 154.166 92.0921 152.598C92.0921 151.044 91.2241 149.91 89.7401 149.91C88.2701 149.91 87.4161 151.044 87.4161 152.598C87.4161 154.166 88.2701 155.286 89.7401 155.286Z" fill="#585858"/>
<path d="M255.43 156L252.91 151.604V150.568H253.75C254.086 150.568 254.38 150.521 254.632 150.428C254.893 150.325 255.108 150.181 255.276 149.994C255.453 149.807 255.575 149.583 255.64 149.322H252.91V148.286H255.626C255.57 148.043 255.472 147.829 255.332 147.642C255.201 147.455 255.024 147.311 254.8 147.208C254.585 147.096 254.324 147.04 254.016 147.04H252.91V146.004H259.224V147.04H257.026C257.185 147.217 257.315 147.409 257.418 147.614C257.53 147.819 257.605 148.043 257.642 148.286H259.224V149.322H257.67C257.577 150.013 257.311 150.554 256.872 150.946C256.433 151.329 255.869 151.59 255.178 151.73L257.922 156H255.43ZM263.708 150.932H262.462V149.77L265.094 147.348H260.838V145.766H267.334V147.194L264.842 149.49C266.41 149.798 267.628 150.946 267.628 152.752C267.628 154.852 265.99 156.182 263.918 156.182C261.916 156.182 260.362 154.95 260.362 152.738H262.126C262.126 153.914 262.854 154.586 263.946 154.586C265.066 154.586 265.808 153.858 265.808 152.724C265.808 151.688 265.136 150.932 263.708 150.932ZM271.163 155.384C271.163 156.546 270.323 157.47 269.189 157.61V156.924C269.819 156.812 270.295 156.434 270.295 155.944C270.183 156 270.057 156.028 269.889 156.028C269.343 156.028 268.895 155.622 268.895 155.062C268.895 154.39 269.329 153.942 269.959 153.942C270.659 153.942 271.163 154.516 271.163 155.384ZM280.547 154.054H279.301V156H277.607V154.054H272.413V152.486L277.047 145.766H279.301V152.486H280.547V154.054ZM274.317 152.486H277.607V147.698L274.317 152.486ZM285.189 156.168C283.047 156.168 281.633 154.796 281.633 152.724H283.411C283.411 153.886 284.097 154.572 285.231 154.572C286.435 154.572 287.205 153.788 287.205 152.542C287.205 151.352 286.491 150.54 285.259 150.54C284.475 150.54 283.761 150.932 283.397 151.464L281.815 151.128L283.075 145.766H288.409V147.418H284.363L283.817 149.546C284.307 149.224 284.923 149.042 285.623 149.042C287.667 149.042 289.025 150.428 289.025 152.444C289.025 154.656 287.471 156.168 285.189 156.168ZM292.469 155.384C292.469 156.546 291.629 157.47 290.495 157.61V156.924C291.125 156.812 291.601 156.434 291.601 155.944C291.489 156 291.363 156.028 291.195 156.028C290.649 156.028 290.201 155.622 290.201 155.062C290.201 154.39 290.635 153.942 291.265 153.942C291.965 153.942 292.469 154.516 292.469 155.384ZM301.191 155.986L294.093 156V154.656L297.439 151.828C298.825 150.652 299.287 149.98 299.287 149C299.287 147.838 298.657 147.18 297.579 147.18C296.459 147.18 295.759 147.964 295.745 149.28H293.967C293.981 147.04 295.409 145.584 297.579 145.584C299.763 145.584 301.121 146.83 301.121 148.902C301.121 150.33 300.337 151.408 298.783 152.738L296.935 154.32H301.191V155.986ZM304.575 147.376H302.335V145.766H306.297V156H304.575V147.376ZM308.109 150.904C308.109 147.726 309.817 145.57 312.435 145.57C315.053 145.57 316.775 147.726 316.775 150.904C316.775 154.068 315.151 156.182 312.435 156.182C309.719 156.182 308.109 154.068 308.109 150.904ZM309.873 150.904C309.873 153.27 310.825 154.6 312.435 154.6C314.059 154.6 315.011 153.27 315.011 150.904C315.011 148.482 314.059 147.152 312.435 147.152C310.825 147.152 309.873 148.482 309.873 150.904Z" fill="#0DAA84"/>
<line x1="16" y1="176.5" x2="320" y2="176.5" stroke="#F4F4F4" stroke-dasharray="4 4"/>
<path d="M16.168 199.9V198.976H23.35V199.9H20.256V209H19.248V199.9H16.168ZM23.0825 205.612C23.0825 203.54 24.5385 202.042 26.5265 202.042C28.5145 202.042 29.9705 203.54 29.9705 205.612C29.9705 207.67 28.5145 209.168 26.5265 209.168C24.5385 209.168 23.0825 207.67 23.0825 205.612ZM24.0625 205.598C24.0625 207.194 25.0705 208.3 26.5265 208.3C27.9685 208.3 28.9905 207.194 28.9905 205.598C28.9905 204.03 27.9685 202.91 26.5265 202.91C25.0705 202.91 24.0625 204.03 24.0625 205.598ZM33.0711 209H32.1191V203.036H30.7611V202.224H32.1191V200.082H33.0711V202.224H34.4291V203.036H33.0711V209ZM37.5937 209.168C36.1517 209.168 35.2977 208.356 35.2977 207.166C35.2977 205.92 36.2497 205.136 37.8317 205.01L40.0717 204.828V204.604C40.0717 203.274 39.2737 202.854 38.2797 202.854C37.1037 202.854 36.4037 203.386 36.4037 204.296H35.5217C35.5217 202.924 36.6417 202.042 38.3077 202.042C39.8757 202.042 41.0237 202.826 41.0237 204.618V209H40.2117L40.0857 207.81C39.6657 208.664 38.7417 209.168 37.5937 209.168ZM37.8177 208.384C39.2457 208.384 40.0717 207.39 40.0717 205.92V205.556L38.0697 205.71C36.7957 205.822 36.2777 206.382 36.2777 207.138C36.2777 207.964 36.8937 208.384 37.8177 208.384ZM44.0401 209H43.0741V198.794H44.0401V209ZM49.6415 205.626C49.6415 203.498 50.9435 202.042 52.9175 202.042C54.4855 202.042 55.6335 202.952 55.8995 204.352H54.9335C54.6815 203.414 53.8695 202.896 52.9315 202.896C51.5595 202.896 50.5935 203.946 50.5935 205.612C50.5935 207.222 51.4895 208.3 52.8615 208.3C53.8695 208.3 54.6815 207.74 54.9475 206.872H55.9275C55.6055 208.258 54.4015 209.168 52.8615 209.168C50.9435 209.168 49.6415 207.754 49.6415 205.626ZM56.9849 205.612C56.9849 203.54 58.4409 202.042 60.4289 202.042C62.4169 202.042 63.8729 203.54 63.8729 205.612C63.8729 207.67 62.4169 209.168 60.4289 209.168C58.4409 209.168 56.9849 207.67 56.9849 205.612ZM57.9649 205.598C57.9649 207.194 58.9729 208.3 60.4289 208.3C61.8709 208.3 62.8929 207.194 62.8929 205.598C62.8929 204.03 61.8709 202.91 60.4289 202.91C58.9729 202.91 57.9649 204.03 57.9649 205.598ZM66.4959 209H65.5299V198.794H66.4959V209ZM69.6284 209H68.6624V198.794H69.6284V209ZM74.5949 209.168C72.6069 209.168 71.2769 207.74 71.2769 205.612C71.2769 203.498 72.5929 202.042 74.5249 202.042C76.3589 202.042 77.6049 203.344 77.6049 205.262V205.738H72.2149C72.2849 207.39 73.1529 208.342 74.6089 208.342C75.7149 208.342 76.4289 207.866 76.6809 206.97H77.6049C77.2409 208.398 76.1909 209.168 74.5949 209.168ZM74.5249 202.868C73.2509 202.868 72.4109 203.708 72.2429 205.038H76.6389C76.6389 203.736 75.7989 202.868 74.5249 202.868ZM78.7434 205.626C78.7434 203.498 80.0454 202.042 82.0194 202.042C83.5874 202.042 84.7354 202.952 85.0014 204.352H84.0354C83.7834 203.414 82.9714 202.896 82.0334 202.896C80.6614 202.896 79.6954 203.946 79.6954 205.612C79.6954 207.222 80.5914 208.3 81.9634 208.3C82.9714 208.3 83.7834 207.74 84.0494 206.872H85.0294C84.7074 208.258 83.5034 209.168 81.9634 209.168C80.0454 209.168 78.7434 207.754 78.7434 205.626ZM88.1168 209H87.1648V203.036H85.8068V202.224H87.1648V200.082H88.1168V202.224H89.4748V203.036H88.1168V209ZM91.2788 200.362C90.8868 200.362 90.5648 200.04 90.5648 199.648C90.5648 199.256 90.8868 198.92 91.2788 198.92C91.6708 198.92 92.0068 199.256 92.0068 199.648C92.0068 200.04 91.6708 200.362 91.2788 200.362ZM90.8028 209V202.224H91.7688V209H90.8028ZM93.3772 205.612C93.3772 203.54 94.8332 202.042 96.8212 202.042C98.8092 202.042 100.265 203.54 100.265 205.612C100.265 207.67 98.8092 209.168 96.8212 209.168C94.8332 209.168 93.3772 207.67 93.3772 205.612ZM94.3572 205.598C94.3572 207.194 95.3652 208.3 96.8212 208.3C98.2632 208.3 99.2852 207.194 99.2852 205.598C99.2852 204.03 98.2632 202.91 96.8212 202.91C95.3652 202.91 94.3572 204.03 94.3572 205.598ZM102.846 209H101.88V202.224H102.72L102.86 203.4C103.308 202.532 104.204 202.042 105.184 202.042C107.046 202.042 107.816 203.148 107.816 204.856V209H106.85V205.066C106.85 203.484 106.136 202.924 105.016 202.924C103.63 202.924 102.846 203.932 102.846 205.458V209Z" fill="#585858"/>
<path d="M250.43 209L247.91 204.604V203.568H248.75C249.086 203.568 249.38 203.521 249.632 203.428C249.893 203.325 250.108 203.181 250.276 202.994C250.453 202.807 250.575 202.583 250.64 202.322H247.91V201.286H250.626C250.57 201.043 250.472 200.829 250.332 200.642C250.201 200.455 250.024 200.311 249.8 200.208C249.585 200.096 249.324 200.04 249.016 200.04H247.91V199.004H254.224V200.04H252.026C252.185 200.217 252.315 200.409 252.418 200.614C252.53 200.819 252.605 201.043 252.642 201.286H254.224V202.322H252.67C252.577 203.013 252.311 203.554 251.872 203.946C251.433 204.329 250.869 204.59 250.178 204.73L252.922 209H250.43ZM257.798 200.376H255.558V198.766H259.52V209H257.798V200.376ZM261.222 206.102C261.222 204.884 261.908 203.904 262.972 203.498C262.076 203.092 261.586 202.322 261.586 201.328C261.586 199.704 263.028 198.584 265.142 198.584C267.242 198.584 268.656 199.69 268.656 201.356C268.656 202.35 268.152 203.12 267.242 203.498C268.32 203.876 269.02 204.87 269.02 206.102C269.02 207.95 267.494 209.168 265.114 209.168C262.748 209.168 261.222 207.964 261.222 206.102ZM263.21 201.482C263.21 202.336 263.952 202.882 265.114 202.882C266.262 202.882 266.99 202.35 266.99 201.496C266.99 200.642 266.262 200.11 265.114 200.11C263.952 200.11 263.21 200.642 263.21 201.482ZM262.972 205.976C262.972 206.97 263.798 207.586 265.128 207.586C266.43 207.586 267.256 206.97 267.256 205.976C267.256 204.982 266.43 204.366 265.114 204.366C263.798 204.366 262.972 204.982 262.972 205.976ZM272.755 208.384C272.755 209.546 271.915 210.47 270.781 210.61V209.924C271.411 209.812 271.887 209.434 271.887 208.944C271.775 209 271.649 209.028 271.481 209.028C270.935 209.028 270.487 208.622 270.487 208.062C270.487 207.39 270.921 206.942 271.551 206.942C272.251 206.942 272.755 207.516 272.755 208.384ZM277.646 209.168C275.504 209.168 274.09 207.796 274.09 205.724H275.868C275.868 206.886 276.554 207.572 277.688 207.572C278.892 207.572 279.662 206.788 279.662 205.542C279.662 204.352 278.948 203.54 277.716 203.54C276.932 203.54 276.218 203.932 275.854 204.464L274.272 204.128L275.532 198.766H280.866V200.418H276.82L276.274 202.546C276.764 202.224 277.38 202.042 278.08 202.042C280.124 202.042 281.482 203.428 281.482 205.444C281.482 207.656 279.928 209.168 277.646 209.168ZM290.507 207.054H289.261V209H287.567V207.054H282.373V205.486L287.007 198.766H289.261V205.486H290.507V207.054ZM284.277 205.486H287.567V200.698L284.277 205.486ZM294.047 208.384C294.047 209.546 293.207 210.47 292.073 210.61V209.924C292.703 209.812 293.179 209.434 293.179 208.944C293.067 209 292.941 209.028 292.773 209.028C292.227 209.028 291.779 208.622 291.779 208.062C291.779 207.39 292.213 206.942 292.843 206.942C293.543 206.942 294.047 207.516 294.047 208.384ZM294.701 198.766H302.051V200.418L298.341 209H296.479L300.259 200.418H294.701V198.766ZM302.658 206.102C302.658 204.884 303.344 203.904 304.408 203.498C303.512 203.092 303.022 202.322 303.022 201.328C303.022 199.704 304.464 198.584 306.578 198.584C308.678 198.584 310.092 199.69 310.092 201.356C310.092 202.35 309.588 203.12 308.678 203.498C309.756 203.876 310.456 204.87 310.456 206.102C310.456 207.95 308.93 209.168 306.55 209.168C304.184 209.168 302.658 207.964 302.658 206.102ZM304.646 201.482C304.646 202.336 305.388 202.882 306.55 202.882C307.698 202.882 308.426 202.35 308.426 201.496C308.426 200.642 307.698 200.11 306.55 200.11C305.388 200.11 304.646 200.642 304.646 201.482ZM304.408 205.976C304.408 206.97 305.234 207.586 306.564 207.586C307.866 207.586 308.692 206.97 308.692 205.976C308.692 204.982 307.866 204.366 306.55 204.366C305.234 204.366 304.408 204.982 304.408 205.976ZM314.83 203.932H313.584V202.77L316.216 200.348H311.96V198.766H318.456V200.194L315.964 202.49C317.532 202.798 318.75 203.946 318.75 205.752C318.75 207.852 317.112 209.182 315.04 209.182C313.038 209.182 311.484 207.95 311.484 205.738H313.248C313.248 206.914 313.976 207.586 315.068 207.586C316.188 207.586 316.93 206.858 316.93 205.724C316.93 204.688 316.258 203.932 314.83 203.932Z" fill="#3E3E3E"/>
<rect x="16.5" y="230.5" width="303" height="40" rx="3.5" fill="#F4F4F4"/>
<rect x="16.5" y="230.5" width="303" height="40" rx="3.5" stroke="#F4F4F4"/>
<path d="M48 250.5C48 256.023 43.5228 260.5 38 260.5C32.4778 260.5 28 256.023 28 250.5C28 244.978 32.4778 240.5 38 240.5C43.5228 240.5 48 244.978 48 250.5Z" fill="#FFCC4D"/>
<path d="M34.3889 250.502C35.156 250.502 35.7778 249.632 35.7778 248.558C35.7778 247.484 35.156 246.613 34.3889 246.613C33.6218 246.613 33 247.484 33 248.558C33 249.632 33.6218 250.502 34.3889 250.502Z" fill="#664500"/>
<path d="M41.6115 250.502C42.3786 250.502 43.0004 249.632 43.0004 248.558C43.0004 247.484 42.3786 246.613 41.6115 246.613C40.8445 246.613 40.2227 247.484 40.2227 248.558C40.2227 249.632 40.8445 250.502 41.6115 250.502Z" fill="#664500"/>
<path d="M32.8145 255.982C32.9134 256.072 33.0612 256.077 33.1673 255.998C33.189 255.982 35.3462 254.387 38.0006 254.387C40.6484 254.387 42.8129 255.982 42.834 255.998C42.9401 256.077 43.0879 256.071 43.1867 255.982C43.2851 255.893 43.3073 255.747 43.239 255.633C43.1673 255.515 41.4517 252.721 38.0006 252.721C34.5495 252.721 32.8334 255.514 32.7623 255.633C32.694 255.747 32.7156 255.893 32.8145 255.982Z" fill="#664500"/>
<path d="M60.27 256H57.218V245.976H60.242C63.266 245.976 65.282 247.992 65.282 250.988C65.282 253.984 63.28 256 60.27 256ZM60.2 246.9H58.226V255.076H60.228C62.678 255.076 64.246 253.48 64.246 250.988C64.246 248.482 62.678 246.9 60.2 246.9ZM71.7228 249.224H72.6888V256H71.8488L71.7228 254.852C71.3448 255.636 70.4068 256.168 69.3428 256.168C67.7468 256.168 66.8788 255.076 66.8788 253.424V249.21H67.8588V253.116C67.8588 254.726 68.5728 255.3 69.6508 255.3C70.9528 255.3 71.7228 254.432 71.7228 252.822V249.224ZM77.4763 256.168C75.4883 256.168 74.1583 254.74 74.1583 252.612C74.1583 250.498 75.4743 249.042 77.4063 249.042C79.2403 249.042 80.4863 250.344 80.4863 252.262V252.738H75.0963C75.1663 254.39 76.0343 255.342 77.4903 255.342C78.5963 255.342 79.3103 254.866 79.5623 253.97H80.4863C80.1223 255.398 79.0723 256.168 77.4763 256.168ZM77.4063 249.868C76.1323 249.868 75.2923 250.708 75.1243 252.038H79.5203C79.5203 250.736 78.6803 249.868 77.4063 249.868ZM81.5268 254.096H82.4508C82.4508 254.88 83.0388 255.37 83.9908 255.37C85.0408 255.37 85.6568 254.922 85.6568 254.194C85.6568 253.634 85.3768 253.312 84.5788 253.116L83.4168 252.822C82.2408 252.528 81.6668 251.912 81.6668 250.988C81.6668 249.798 82.6608 249.042 84.1168 249.042C85.5448 249.042 86.4688 249.826 86.5108 251.086H85.5728C85.5448 250.302 84.9988 249.84 84.0888 249.84C83.1368 249.84 82.6048 250.246 82.6048 250.974C82.6048 251.492 82.9688 251.856 83.7108 252.038L84.8728 252.332C86.0488 252.626 86.5808 253.172 86.5808 254.152C86.5808 255.37 85.5448 256.168 84.0048 256.168C82.4788 256.168 81.5268 255.356 81.5268 254.096ZM92.1939 258.954V249.224H93.0339L93.1319 250.596C93.6079 249.546 94.5599 249.042 95.6939 249.042C97.6539 249.042 98.8299 250.54 98.8299 252.584C98.8299 254.628 97.6959 256.168 95.6939 256.168C94.5459 256.168 93.6359 255.678 93.1599 254.698V258.954H92.1939ZM93.1739 252.612C93.1739 254.166 94.0419 255.3 95.5259 255.3C96.9959 255.3 97.8499 254.166 97.8499 252.612C97.8499 251.044 96.9959 249.924 95.5259 249.924C94.0419 249.924 93.1739 251.044 93.1739 252.612ZM103.282 256.168C101.294 256.168 99.9637 254.74 99.9637 252.612C99.9637 250.498 101.28 249.042 103.212 249.042C105.046 249.042 106.292 250.344 106.292 252.262V252.738H100.902C100.972 254.39 101.84 255.342 103.296 255.342C104.402 255.342 105.116 254.866 105.368 253.97H106.292C105.928 255.398 104.878 256.168 103.282 256.168ZM103.212 249.868C101.938 249.868 101.098 250.708 100.93 252.038H105.326C105.326 250.736 104.486 249.868 103.212 249.868ZM108.872 256H107.906V249.224H108.746L108.886 250.4C109.334 249.532 110.23 249.042 111.21 249.042C113.072 249.042 113.842 250.148 113.842 251.856V256H112.876V252.066C112.876 250.484 112.162 249.924 111.042 249.924C109.656 249.924 108.872 250.932 108.872 252.458V256ZM118.498 256.168C116.524 256.168 115.362 254.656 115.362 252.626C115.362 250.582 116.524 249.042 118.54 249.042C119.66 249.042 120.556 249.532 121.032 250.512V245.794H121.998V256H121.158L121.06 254.614C120.584 255.664 119.632 256.168 118.498 256.168ZM118.666 255.286C120.15 255.286 121.018 254.166 121.018 252.598C121.018 251.044 120.15 249.91 118.666 249.91C117.196 249.91 116.342 251.044 116.342 252.598C116.342 254.166 117.196 255.286 118.666 255.286ZM124.559 247.362C124.167 247.362 123.845 247.04 123.845 246.648C123.845 246.256 124.167 245.92 124.559 245.92C124.951 245.92 125.287 246.256 125.287 246.648C125.287 247.04 124.951 247.362 124.559 247.362ZM124.083 256V249.224H125.049V256H124.083ZM128.1 256H127.134V249.224H127.974L128.114 250.4C128.562 249.532 129.458 249.042 130.438 249.042C132.3 249.042 133.07 250.148 133.07 251.856V256H132.104V252.066C132.104 250.484 131.39 249.924 130.27 249.924C128.884 249.924 128.1 250.932 128.1 252.458V256ZM134.603 252.416C134.603 250.568 135.793 249.042 137.781 249.042C138.957 249.042 139.853 249.588 140.287 250.582L140.385 249.224H141.225V255.79C141.225 257.806 139.937 259.122 137.949 259.122C136.213 259.122 134.995 258.142 134.729 256.504H135.695C135.905 257.596 136.745 258.24 137.963 258.24C139.349 258.24 140.273 257.302 140.273 255.888V254.278C139.811 255.23 138.873 255.79 137.711 255.79C135.779 255.79 134.603 254.264 134.603 252.416ZM135.569 252.402C135.569 253.788 136.423 254.922 137.851 254.922C139.321 254.922 140.189 253.858 140.189 252.402C140.189 250.96 139.349 249.896 137.865 249.896C136.409 249.896 135.569 251.03 135.569 252.402ZM146.508 249.224H147.544V247.908C147.544 246.382 148.384 245.794 149.42 245.794C149.658 245.794 149.938 245.808 150.162 245.85V246.676H149.588C148.734 246.676 148.51 247.11 148.51 247.908V249.224H150.106V250.036H148.51V256H147.544V250.036H146.508V249.224ZM155.032 249.14V250.008H154.5C153.254 250.008 152.456 250.848 152.456 252.136V256H151.49V249.224H152.4L152.47 250.274C152.736 249.546 153.45 249.07 154.402 249.07C154.612 249.07 154.794 249.084 155.032 249.14ZM155.65 252.612C155.65 250.54 157.106 249.042 159.094 249.042C161.082 249.042 162.538 250.54 162.538 252.612C162.538 254.67 161.082 256.168 159.094 256.168C157.106 256.168 155.65 254.67 155.65 252.612ZM156.63 252.598C156.63 254.194 157.638 255.3 159.094 255.3C160.536 255.3 161.558 254.194 161.558 252.598C161.558 251.03 160.536 249.91 159.094 249.91C157.638 249.91 156.63 251.03 156.63 252.598ZM165.119 256H164.153V249.224H164.993L165.105 250.19C165.441 249.476 166.197 249.042 167.149 249.042C168.213 249.042 169.011 249.602 169.333 250.484C169.641 249.602 170.467 249.042 171.559 249.042C173.029 249.042 173.995 249.994 173.995 251.562V256H173.057V251.758C173.057 250.596 172.413 249.91 171.377 249.91C170.243 249.91 169.571 250.764 169.571 251.814V256H168.619V251.744C168.619 250.596 167.961 249.924 166.939 249.924C165.805 249.924 165.119 250.764 165.119 251.8V256ZM181.615 247.376H179.375V245.766H183.337V256H181.615V247.376ZM185.149 250.904C185.149 247.726 186.857 245.57 189.475 245.57C192.093 245.57 193.815 247.726 193.815 250.904C193.815 254.068 192.191 256.182 189.475 256.182C186.759 256.182 185.149 254.068 185.149 250.904ZM186.913 250.904C186.913 253.27 187.865 254.6 189.475 254.6C191.099 254.6 192.051 253.27 192.051 250.904C192.051 248.482 191.099 247.152 189.475 247.152C187.865 247.152 186.913 248.482 186.913 250.904ZM194.408 245.766H201.758V247.418L198.048 256H196.186L199.966 247.418H194.408V245.766ZM208.991 256H207.283V250.512H205.953V249.084H207.283V246.928H208.991V249.084H210.335V250.512H208.991V256ZM214.492 256.182C212.434 256.182 210.992 254.684 210.992 252.542C210.992 250.372 212.406 248.874 214.436 248.874C216.508 248.874 217.824 250.26 217.824 252.416V252.934L212.616 252.948C212.742 254.166 213.386 254.782 214.52 254.782C215.458 254.782 216.074 254.418 216.27 253.76H217.852C217.558 255.272 216.298 256.182 214.492 256.182ZM214.45 250.274C213.442 250.274 212.826 250.82 212.658 251.856H216.13C216.13 250.904 215.472 250.274 214.45 250.274ZM220.969 256H219.261V249.084H220.843L220.983 249.98C221.417 249.28 222.257 248.874 223.195 248.874C224.931 248.874 225.827 249.952 225.827 251.744V256H224.119V252.15C224.119 250.988 223.545 250.428 222.663 250.428C221.613 250.428 220.969 251.156 220.969 252.276V256ZM229.633 256.182C228.163 256.182 227.267 255.328 227.267 254.026C227.267 252.752 228.191 251.954 229.829 251.828L231.901 251.674V251.52C231.901 250.582 231.341 250.204 230.473 250.204C229.465 250.204 228.905 250.624 228.905 251.352H227.449C227.449 249.854 228.681 248.874 230.557 248.874C232.419 248.874 233.567 249.882 233.567 251.8V256H232.069L231.943 254.978C231.649 255.692 230.711 256.182 229.633 256.182ZM230.193 254.894C231.243 254.894 231.915 254.264 231.915 253.2V252.836L230.473 252.948C229.409 253.046 229.003 253.396 229.003 253.956C229.003 254.586 229.423 254.894 230.193 254.894ZM237.023 256H235.315V249.084H236.897L237.037 249.98C237.471 249.28 238.311 248.874 239.249 248.874C240.985 248.874 241.881 249.952 241.881 251.744V256H240.173V252.15C240.173 250.988 239.599 250.428 238.717 250.428C237.667 250.428 237.023 251.156 237.023 252.276V256ZM245.981 256H244.273V250.512H242.943V249.084H244.273V246.928H245.981V249.084H247.325V250.512H245.981V256ZM247.925 253.9H249.549C249.563 254.502 250.011 254.88 250.795 254.88C251.593 254.88 252.027 254.558 252.027 254.054C252.027 253.704 251.845 253.452 251.229 253.312L249.983 253.018C248.737 252.738 248.135 252.15 248.135 251.044C248.135 249.686 249.283 248.874 250.879 248.874C252.433 248.874 253.483 249.77 253.497 251.114H251.873C251.859 250.526 251.467 250.148 250.809 250.148C250.137 250.148 249.745 250.456 249.745 250.974C249.745 251.366 250.053 251.618 250.641 251.758L251.887 252.052C253.049 252.318 253.637 252.85 253.637 253.914C253.637 255.314 252.447 256.182 250.739 256.182C249.017 256.182 247.925 255.258 247.925 253.9Z" fill="#585858"/>
<g clip-path="url(#clip3_493_13990)">
<path d="M295.74 246.092C295.415 246.417 295.415 246.942 295.74 247.267L298.973 250.5L295.74 253.733C295.415 254.058 295.415 254.583 295.74 254.908C296.065 255.233 296.59 255.233 296.915 254.908L300.74 251.083C301.065 250.758 301.065 250.233 300.74 249.908L296.915 246.083C296.598 245.767 296.065 245.767 295.74 246.092Z" fill="#6F6F6F"/>
</g>
</g>
</g>
<defs>
<filter id="filter0_d_493_13990" x="0" y="0" width="336" height="292" filterUnits="userSpaceOnUse" color-interpolation-filters="sRGB">
<feFlood flood-opacity="0" result="BackgroundImageFix"/>
<feColorMatrix in="SourceAlpha" type="matrix" values="0 0 0 0 0 0 0 0 0 0 0 0 0 0 0 0 0 0 127 0" result="hardAlpha"/>
<feOffset dy="1"/>
<feGaussianBlur stdDeviation="2"/>
<feComposite in2="hardAlpha" operator="out"/>
<feColorMatrix type="matrix" values="0 0 0 0 0.838184 0 0 0 0 0.838184 0 0 0 0 0.838184 0 0 0 0.25 0"/>
<feBlend mode="normal" in2="BackgroundImageFix" result="effect1_dropShadow_493_13990"/>
<feBlend mode="normal" in="SourceGraphic" in2="effect1_dropShadow_493_13990" result="shape"/>
</filter>
<clipPath id="clip0_493_13990">
<rect x="16" y="19" width="304" height="252" rx="4" fill="white"/>
</clipPath>
<clipPath id="clip1_493_13990">
<rect width="20" height="20" fill="white" transform="translate(296 25)"/>
</clipPath>
<clipPath id="clip2_493_13990">
<rect width="304" height="24" fill="white" transform="translate(16 67)"/>
</clipPath>
<clipPath id="clip3_493_13990">
<rect width="20" height="20" fill="white" transform="translate(288 240.5)"/>
</clipPath>
</defs>
</svg>
