<svg width="380" height="380" viewBox="0 0 380 380" fill="none" xmlns="http://www.w3.org/2000/svg">
<rect width="380" height="380" rx="12" fill="#F6F6F6"/>
<g filter="url(#filter0_d_501_6672)">
<rect x="26" y="32" width="328" height="316" rx="8" fill="white" shape-rendering="crispEdges"/>
<g clip-path="url(#clip0_501_6672)">
<g clip-path="url(#clip1_501_6672)">
<path d="M41.762 52.842V66H39.458V52.842H41.762ZM46.5507 66H44.3547V57.108H46.3887L46.5687 58.26C47.1267 57.36 48.2067 56.838 49.4127 56.838C51.6447 56.838 52.7967 58.224 52.7967 60.528V66H50.6007V61.05C50.6007 59.556 49.8627 58.836 48.7287 58.836C47.3787 58.836 46.5507 59.772 46.5507 61.212V66ZM57.2985 66L53.7705 57.108H56.1105L57.6585 61.194C58.0365 62.256 58.3425 63.174 58.4505 63.66C58.5765 63.102 58.9005 62.166 59.2785 61.194L60.8985 57.108H63.1665L59.4585 66H57.2985ZM67.9675 66.234C65.3215 66.234 63.4675 64.308 63.4675 61.554C63.4675 58.764 65.2855 56.838 67.8955 56.838C70.5595 56.838 72.2515 58.62 72.2515 61.392V62.058L65.5555 62.076C65.7175 63.642 66.5455 64.434 68.0035 64.434C69.2095 64.434 70.0015 63.966 70.2535 63.12H72.2875C71.9095 65.064 70.2895 66.234 67.9675 66.234ZM67.9135 58.638C66.6175 58.638 65.8255 59.34 65.6095 60.672H70.0735C70.0735 59.448 69.2275 58.638 67.9135 58.638ZM76.205 66H74.009V57.108H76.043L76.223 58.26C76.781 57.36 77.861 56.838 79.067 56.838C81.299 56.838 82.451 58.224 82.451 60.528V66H80.255V61.05C80.255 59.556 79.517 58.836 78.383 58.836C77.033 58.836 76.205 59.772 76.205 61.212V66ZM87.6326 66H85.4366V58.944H83.7266V57.108H85.4366V54.336H87.6326V57.108H89.3606V58.944H87.6326V66ZM90.1159 61.536C90.1159 58.764 92.1139 56.856 94.8679 56.856C97.6219 56.856 99.6199 58.764 99.6199 61.536C99.6199 64.308 97.6219 66.216 94.8679 66.216C92.1139 66.216 90.1159 64.308 90.1159 61.536ZM92.3119 61.536C92.3119 63.156 93.3559 64.254 94.8679 64.254C96.3799 64.254 97.4239 63.156 97.4239 61.536C97.4239 59.916 96.3799 58.818 94.8679 58.818C93.3559 58.818 92.3119 59.916 92.3119 61.536ZM106.941 57.072V59.106H106.131C104.547 59.106 103.557 59.952 103.557 61.68V66H101.361V57.126H103.431L103.557 58.422C103.935 57.54 104.781 56.946 105.969 56.946C106.275 56.946 106.581 56.982 106.941 57.072ZM107.917 70.122V68.286H109.231C110.095 68.286 110.635 68.088 111.013 67.044L111.265 66.378L107.683 57.108H110.005L112.291 63.588L114.703 57.108H116.971L112.615 67.98C111.949 69.636 111.013 70.32 109.555 70.32C108.943 70.32 108.403 70.248 107.917 70.122Z" fill="#222222"/>
<path d="M296.207 65L292.371 54.976H293.449L296.123 61.948C296.333 62.494 296.529 63.04 296.753 63.74C296.963 63.012 297.215 62.312 297.369 61.934L300.029 54.976H301.065L297.257 65H296.207ZM302.754 56.362C302.362 56.362 302.04 56.04 302.04 55.648C302.04 55.256 302.362 54.92 302.754 54.92C303.146 54.92 303.482 55.256 303.482 55.648C303.482 56.04 303.146 56.362 302.754 56.362ZM302.278 65V58.224H303.244V65H302.278ZM308.171 65.168C306.183 65.168 304.853 63.74 304.853 61.612C304.853 59.498 306.169 58.042 308.101 58.042C309.935 58.042 311.181 59.344 311.181 61.262V61.738H305.791C305.861 63.39 306.729 64.342 308.185 64.342C309.291 64.342 310.005 63.866 310.257 62.97H311.181C310.817 64.398 309.767 65.168 308.171 65.168ZM308.101 58.868C306.827 58.868 305.987 59.708 305.819 61.038H310.215C310.215 59.736 309.375 58.868 308.101 58.868ZM314.045 65L311.805 58.224H312.799L314.129 62.312C314.283 62.76 314.409 63.222 314.549 63.768C314.661 63.222 314.885 62.536 314.955 62.312L316.299 58.224H317.293L318.623 62.312C318.749 62.676 318.917 63.264 319.043 63.768C319.183 63.208 319.211 63.04 319.449 62.312L320.793 58.224H321.801L319.505 65H318.567L317.167 60.744C316.999 60.24 316.887 59.82 316.803 59.414C316.705 59.778 316.593 60.184 316.411 60.744L315.011 65H314.045Z" fill="#6F6F6F"/>
<g clip-path="url(#clip2_501_6672)">
<path d="M329.74 55.0917C329.415 55.4167 329.415 55.9417 329.74 56.2667L332.973 59.5001L329.74 62.7334C329.415 63.0584 329.415 63.5834 329.74 63.9084C330.065 64.2334 330.59 64.2334 330.915 63.9084L334.74 60.0834C335.065 59.7584 335.065 59.2334 334.74 58.9084L330.915 55.0834C330.598 54.7667 330.065 54.7667 329.74 55.0917Z" fill="#6F6F6F"/>
</g>
<path d="M283 184C284.657 184 286.005 182.656 285.951 181C285.396 164.086 280.161 147.62 270.782 133.39C261.389 119.14 248.221 107.709 232.724 100.316C231.241 99.6081 229.483 100.284 228.804 101.78L221.651 117.546C220.961 119.067 221.65 120.854 223.15 121.591C234.455 127.144 244.065 135.58 250.961 146.043C257.857 156.505 261.766 168.578 262.309 181.001C262.382 182.656 263.718 184 265.375 184H283Z" fill="#E4E4E4"/>
<path d="M243.135 109.323C244.079 107.961 243.744 106.088 242.353 105.187C228.778 96.3937 213.157 91.2231 196.981 90.1948C179.807 89.103 162.661 92.7225 147.393 100.663C132.126 108.603 119.316 120.562 110.348 135.249C101.902 149.082 97.1648 164.841 96.5687 181.004C96.5076 182.66 97.8488 184.01 99.5056 184.019L117.126 184.109C118.783 184.117 120.126 182.78 120.205 181.125C120.768 169.265 124.304 157.72 130.508 147.559C137.234 136.543 146.841 127.574 158.292 121.619C169.742 115.664 182.602 112.949 195.483 113.768C207.364 114.523 218.847 118.258 228.88 124.608C230.28 125.494 232.146 125.162 233.09 123.8L243.135 109.323Z" fill="#0DAA84"/>
<path d="M175.552 154.108H173.06V158H169.672V154.108H159.284V150.972L168.552 137.532H173.06V150.972H175.552V154.108ZM163.092 150.972H169.672V141.396L163.092 150.972ZM177.778 152.204C177.778 149.768 179.15 147.808 181.278 146.996C179.486 146.184 178.506 144.644 178.506 142.656C178.506 139.408 181.39 137.168 185.618 137.168C189.818 137.168 192.646 139.38 192.646 142.712C192.646 144.7 191.638 146.24 189.818 146.996C191.974 147.752 193.374 149.74 193.374 152.204C193.374 155.9 190.322 158.336 185.562 158.336C180.83 158.336 177.778 155.928 177.778 152.204ZM181.754 142.964C181.754 144.672 183.238 145.764 185.562 145.764C187.858 145.764 189.314 144.7 189.314 142.992C189.314 141.284 187.858 140.22 185.562 140.22C183.238 140.22 181.754 141.284 181.754 142.964ZM181.278 151.952C181.278 153.94 182.93 155.172 185.59 155.172C188.194 155.172 189.846 153.94 189.846 151.952C189.846 149.964 188.194 148.732 185.562 148.732C182.93 148.732 181.278 149.964 181.278 151.952ZM206.187 142.516C206.187 145.68 203.947 147.892 200.839 147.892C197.731 147.892 195.491 145.68 195.491 142.516C195.491 139.38 197.731 137.14 200.839 137.14C203.947 137.14 206.187 139.38 206.187 142.516ZM217.415 137.56L201.875 158H198.459L213.999 137.56H217.415ZM203.471 142.516C203.471 140.892 202.407 139.772 200.839 139.772C199.271 139.772 198.235 140.892 198.235 142.516C198.235 144.14 199.299 145.26 200.839 145.26C202.407 145.26 203.471 144.14 203.471 142.516ZM220.411 152.988C220.411 156.124 218.199 158.364 215.091 158.364C211.955 158.364 209.743 156.124 209.743 152.988C209.743 149.852 211.955 147.612 215.091 147.612C218.199 147.612 220.411 149.852 220.411 152.988ZM217.695 152.988C217.695 151.364 216.631 150.244 215.091 150.244C213.523 150.244 212.459 151.364 212.459 152.988C212.459 154.612 213.523 155.732 215.091 155.732C216.631 155.732 217.695 154.612 217.695 152.988Z" fill="#222222"/>
<path d="M166.425 175.346C166.425 178.167 164.592 180.156 161.992 180.156C159.379 180.156 157.559 178.167 157.559 175.346C157.559 172.525 159.392 170.523 161.992 170.523C164.605 170.523 166.425 172.512 166.425 175.346ZM165.463 175.346C165.463 173.019 164.046 171.433 161.992 171.433C159.938 171.433 158.534 173.019 158.534 175.346C158.534 177.673 159.938 179.259 161.992 179.259C164.046 179.259 165.463 177.66 165.463 175.346ZM167.55 176.867C167.55 174.891 168.759 173.539 170.592 173.539C172.048 173.539 173.114 174.384 173.361 175.684H172.464C172.23 174.813 171.476 174.332 170.605 174.332C169.331 174.332 168.434 175.307 168.434 176.854C168.434 178.349 169.266 179.35 170.54 179.35C171.476 179.35 172.23 178.83 172.477 178.024H173.387C173.088 179.311 171.97 180.156 170.54 180.156C168.759 180.156 167.55 178.843 167.55 176.867ZM174.369 176.867C174.369 174.891 175.578 173.539 177.411 173.539C178.867 173.539 179.933 174.384 180.18 175.684H179.283C179.049 174.813 178.295 174.332 177.424 174.332C176.15 174.332 175.253 175.307 175.253 176.854C175.253 178.349 176.085 179.35 177.359 179.35C178.295 179.35 179.049 178.83 179.296 178.024H180.206C179.907 179.311 178.789 180.156 177.359 180.156C175.578 180.156 174.369 178.843 174.369 176.867ZM186.05 173.708H186.947V180H186.167L186.05 178.934C185.699 179.662 184.828 180.156 183.84 180.156C182.358 180.156 181.552 179.142 181.552 177.608V173.695H182.462V177.322C182.462 178.817 183.125 179.35 184.126 179.35C185.335 179.35 186.05 178.544 186.05 177.049V173.708ZM188.881 182.743V173.708H189.661L189.752 174.982C190.194 174.007 191.078 173.539 192.131 173.539C193.951 173.539 195.043 174.93 195.043 176.828C195.043 178.726 193.99 180.156 192.131 180.156C191.065 180.156 190.22 179.701 189.778 178.791V182.743H188.881ZM189.791 176.854C189.791 178.297 190.597 179.35 191.975 179.35C193.34 179.35 194.133 178.297 194.133 176.854C194.133 175.398 193.34 174.358 191.975 174.358C190.597 174.358 189.791 175.398 189.791 176.854ZM198.344 180.156C197.005 180.156 196.212 179.402 196.212 178.297C196.212 177.14 197.096 176.412 198.565 176.295L200.645 176.126V175.918C200.645 174.683 199.904 174.293 198.981 174.293C197.889 174.293 197.239 174.787 197.239 175.632H196.42C196.42 174.358 197.46 173.539 199.007 173.539C200.463 173.539 201.529 174.267 201.529 175.931V180H200.775L200.658 178.895C200.268 179.688 199.41 180.156 198.344 180.156ZM198.552 179.428C199.878 179.428 200.645 178.505 200.645 177.14V176.802L198.786 176.945C197.603 177.049 197.122 177.569 197.122 178.271C197.122 179.038 197.694 179.428 198.552 179.428ZM204.291 180H203.394V173.708H204.174L204.304 174.8C204.72 173.994 205.552 173.539 206.462 173.539C208.191 173.539 208.906 174.566 208.906 176.152V180H208.009V176.347C208.009 174.878 207.346 174.358 206.306 174.358C205.019 174.358 204.291 175.294 204.291 176.711V180ZM210.317 176.867C210.317 174.891 211.526 173.539 213.359 173.539C214.815 173.539 215.881 174.384 216.128 175.684H215.231C214.997 174.813 214.243 174.332 213.372 174.332C212.098 174.332 211.201 175.307 211.201 176.854C211.201 178.349 212.033 179.35 213.307 179.35C214.243 179.35 214.997 178.83 215.244 178.024H216.154C215.855 179.311 214.737 180.156 213.307 180.156C211.526 180.156 210.317 178.843 210.317 176.867ZM216.814 182.743V182.002H217.503C218.049 182.002 218.595 181.963 218.907 181.118L219.18 180.377L216.632 173.708H217.581L219.609 179.194L221.598 173.708H222.521L219.635 181.443C219.271 182.431 218.66 182.834 217.763 182.834C217.386 182.834 217.1 182.808 216.814 182.743Z" fill="#6F6F6F"/>
<rect x="99" y="206" width="12" height="12" rx="4" fill="#0DAA84"/>
<path d="M84.65 232.988C84.65 236.026 82.676 238.168 79.876 238.168C77.062 238.168 75.102 236.026 75.102 232.988C75.102 229.95 77.076 227.794 79.876 227.794C82.69 227.794 84.65 229.936 84.65 232.988ZM83.614 232.988C83.614 230.482 82.088 228.774 79.876 228.774C77.664 228.774 76.152 230.482 76.152 232.988C76.152 235.494 77.664 237.202 79.876 237.202C82.088 237.202 83.614 235.48 83.614 232.988ZM85.8618 234.626C85.8618 232.498 87.1638 231.042 89.1378 231.042C90.7058 231.042 91.8538 231.952 92.1198 233.352H91.1538C90.9018 232.414 90.0898 231.896 89.1518 231.896C87.7798 231.896 86.8138 232.946 86.8138 234.612C86.8138 236.222 87.7098 237.3 89.0818 237.3C90.0898 237.3 90.9018 236.74 91.1678 235.872H92.1478C91.8258 237.258 90.6218 238.168 89.0818 238.168C87.1638 238.168 85.8618 236.754 85.8618 234.626ZM93.2052 234.626C93.2052 232.498 94.5072 231.042 96.4812 231.042C98.0492 231.042 99.1972 231.952 99.4632 233.352H98.4972C98.2452 232.414 97.4332 231.896 96.4952 231.896C95.1232 231.896 94.1572 232.946 94.1572 234.612C94.1572 236.222 95.0532 237.3 96.4252 237.3C97.4332 237.3 98.2452 236.74 98.5112 235.872H99.4912C99.1692 237.258 97.9652 238.168 96.4252 238.168C94.5072 238.168 93.2052 236.754 93.2052 234.626ZM105.785 231.224H106.751V238H105.911L105.785 236.852C105.407 237.636 104.469 238.168 103.405 238.168C101.809 238.168 100.941 237.076 100.941 235.424V231.21H101.921V235.116C101.921 236.726 102.635 237.3 103.713 237.3C105.015 237.3 105.785 236.432 105.785 234.822V231.224ZM108.833 240.954V231.224H109.673L109.771 232.596C110.247 231.546 111.199 231.042 112.333 231.042C114.293 231.042 115.469 232.54 115.469 234.584C115.469 236.628 114.335 238.168 112.333 238.168C111.185 238.168 110.275 237.678 109.799 236.698V240.954H108.833ZM109.813 234.612C109.813 236.166 110.681 237.3 112.165 237.3C113.635 237.3 114.489 236.166 114.489 234.612C114.489 233.044 113.635 231.924 112.165 231.924C110.681 231.924 109.813 233.044 109.813 234.612ZM117.555 229.362C117.163 229.362 116.841 229.04 116.841 228.648C116.841 228.256 117.163 227.92 117.555 227.92C117.947 227.92 118.283 228.256 118.283 228.648C118.283 229.04 117.947 229.362 117.555 229.362ZM117.079 238V231.224H118.045V238H117.079ZM122.971 238.168C120.983 238.168 119.653 236.74 119.653 234.612C119.653 232.498 120.969 231.042 122.901 231.042C124.735 231.042 125.981 232.344 125.981 234.262V234.738H120.591C120.661 236.39 121.529 237.342 122.985 237.342C124.091 237.342 124.805 236.866 125.057 235.97H125.981C125.617 237.398 124.567 238.168 122.971 238.168ZM122.901 231.868C121.627 231.868 120.787 232.708 120.619 234.038H125.015C125.015 232.736 124.175 231.868 122.901 231.868ZM130.256 238.168C128.282 238.168 127.12 236.656 127.12 234.626C127.12 232.582 128.282 231.042 130.298 231.042C131.418 231.042 132.314 231.532 132.79 232.512V227.794H133.756V238H132.916L132.818 236.614C132.342 237.664 131.39 238.168 130.256 238.168ZM130.424 237.286C131.908 237.286 132.776 236.166 132.776 234.598C132.776 233.044 131.908 231.91 130.424 231.91C128.954 231.91 128.1 233.044 128.1 234.598C128.1 236.166 128.954 237.286 130.424 237.286Z" fill="#585858"/>
<path d="M96.63 259.168C94.488 259.168 93.074 257.796 93.074 255.724H94.852C94.852 256.886 95.538 257.572 96.672 257.572C97.876 257.572 98.646 256.788 98.646 255.542C98.646 254.352 97.932 253.54 96.7 253.54C95.916 253.54 95.202 253.932 94.838 254.464L93.256 254.128L94.516 248.766H99.85V250.418H95.804L95.258 252.546C95.748 252.224 96.364 252.042 97.064 252.042C99.108 252.042 100.466 253.428 100.466 255.444C100.466 257.656 98.912 259.168 96.63 259.168ZM100.967 248.766H108.317V250.418L104.607 259H102.745L106.525 250.418H100.967V248.766ZM116.492 257.054H115.246V259H113.552V257.054H108.358V255.486L112.992 248.766H115.246V255.486H116.492V257.054ZM110.262 255.486H113.552V250.698L110.262 255.486Z" fill="#585858"/>
<rect x="269" y="206" width="12" height="12" rx="4" fill="#E4E4E4"/>
<path d="M257.476 238L253.64 227.976H254.718L257.392 234.948C257.602 235.494 257.798 236.04 258.022 236.74C258.232 236.012 258.484 235.312 258.638 234.934L261.298 227.976H262.334L258.526 238H257.476ZM264.454 238.168C263.012 238.168 262.158 237.356 262.158 236.166C262.158 234.92 263.11 234.136 264.692 234.01L266.932 233.828V233.604C266.932 232.274 266.134 231.854 265.14 231.854C263.964 231.854 263.264 232.386 263.264 233.296H262.382C262.382 231.924 263.502 231.042 265.168 231.042C266.736 231.042 267.884 231.826 267.884 233.618V238H267.072L266.946 236.81C266.526 237.664 265.602 238.168 264.454 238.168ZM264.678 237.384C266.106 237.384 266.932 236.39 266.932 234.92V234.556L264.93 234.71C263.656 234.822 263.138 235.382 263.138 236.138C263.138 236.964 263.754 237.384 264.678 237.384ZM269.416 234.626C269.416 232.498 270.718 231.042 272.692 231.042C274.26 231.042 275.408 231.952 275.674 233.352H274.708C274.456 232.414 273.644 231.896 272.706 231.896C271.334 231.896 270.368 232.946 270.368 234.612C270.368 236.222 271.264 237.3 272.636 237.3C273.644 237.3 274.456 236.74 274.722 235.872H275.702C275.38 237.258 274.176 238.168 272.636 238.168C270.718 238.168 269.416 236.754 269.416 234.626ZM279.182 238.168C277.74 238.168 276.886 237.356 276.886 236.166C276.886 234.92 277.838 234.136 279.42 234.01L281.66 233.828V233.604C281.66 232.274 280.862 231.854 279.868 231.854C278.692 231.854 277.992 232.386 277.992 233.296H277.11C277.11 231.924 278.23 231.042 279.896 231.042C281.464 231.042 282.612 231.826 282.612 233.618V238H281.8L281.674 236.81C281.254 237.664 280.33 238.168 279.182 238.168ZM279.406 237.384C280.834 237.384 281.66 236.39 281.66 234.92V234.556L279.658 234.71C278.384 234.822 277.866 235.382 277.866 236.138C277.866 236.964 278.482 237.384 279.406 237.384ZM285.586 238H284.62V231.224H285.46L285.6 232.4C286.048 231.532 286.944 231.042 287.924 231.042C289.786 231.042 290.556 232.148 290.556 233.856V238H289.59V234.066C289.59 232.484 288.876 231.924 287.756 231.924C286.37 231.924 285.586 232.932 285.586 234.458V238ZM294.105 238H293.153V232.036H291.795V231.224H293.153V229.082H294.105V231.224H295.463V232.036H294.105V238Z" fill="#585858"/>
<path d="M274.026 257.054H272.78V259H271.086V257.054H265.892V255.486L270.526 248.766H272.78V255.486H274.026V257.054ZM267.796 255.486H271.086V250.698L267.796 255.486ZM275.209 256.102C275.209 254.884 275.895 253.904 276.959 253.498C276.063 253.092 275.573 252.322 275.573 251.328C275.573 249.704 277.015 248.584 279.129 248.584C281.229 248.584 282.643 249.69 282.643 251.356C282.643 252.35 282.139 253.12 281.229 253.498C282.307 253.876 283.007 254.87 283.007 256.102C283.007 257.95 281.481 259.168 279.101 259.168C276.735 259.168 275.209 257.964 275.209 256.102ZM277.197 251.482C277.197 252.336 277.939 252.882 279.101 252.882C280.249 252.882 280.977 252.35 280.977 251.496C280.977 250.642 280.249 250.11 279.101 250.11C277.939 250.11 277.197 250.642 277.197 251.482ZM276.959 255.976C276.959 256.97 277.785 257.586 279.115 257.586C280.417 257.586 281.243 256.97 281.243 255.976C281.243 254.982 280.417 254.366 279.101 254.366C277.785 254.366 276.959 254.982 276.959 255.976Z" fill="#585858"/>
</g>
</g>
<rect x="38.5" y="280.5" width="303" height="51" rx="3.5" fill="#F4F4F4"/>
<rect x="38.5" y="280.5" width="303" height="51" rx="3.5" stroke="#F4F4F4"/>
<path d="M50.546 308.309C50.546 307.178 51.183 306.268 52.171 305.891C51.339 305.514 50.884 304.799 50.884 303.876C50.884 302.368 52.223 301.328 54.186 301.328C56.136 301.328 57.449 302.355 57.449 303.902C57.449 304.825 56.981 305.54 56.136 305.891C57.137 306.242 57.787 307.165 57.787 308.309C57.787 310.025 56.37 311.156 54.16 311.156C51.963 311.156 50.546 310.038 50.546 308.309ZM52.392 304.019C52.392 304.812 53.081 305.319 54.16 305.319C55.226 305.319 55.902 304.825 55.902 304.032C55.902 303.239 55.226 302.745 54.16 302.745C53.081 302.745 52.392 303.239 52.392 304.019ZM52.171 308.192C52.171 309.115 52.938 309.687 54.173 309.687C55.382 309.687 56.149 309.115 56.149 308.192C56.149 307.269 55.382 306.697 54.16 306.697C52.938 306.697 52.171 307.269 52.171 308.192ZM58.3572 301.497H65.1822V303.031L61.7372 311H60.0082L63.5182 303.031H58.3572V301.497ZM71.8982 311H70.3122V305.904H69.0772V304.578H70.3122V302.576H71.8982V304.578H73.1462V305.904H71.8982V311ZM77.0067 311.169C75.0957 311.169 73.7567 309.778 73.7567 307.789C73.7567 305.774 75.0697 304.383 76.9547 304.383C78.8787 304.383 80.1007 305.67 80.1007 307.672V308.153L75.2647 308.166C75.3817 309.297 75.9797 309.869 77.0327 309.869C77.9037 309.869 78.4757 309.531 78.6577 308.92H80.1267C79.8537 310.324 78.6837 311.169 77.0067 311.169ZM76.9677 305.683C76.0317 305.683 75.4597 306.19 75.3037 307.152H78.5277C78.5277 306.268 77.9167 305.683 76.9677 305.683ZM83.021 311H81.435V304.578H82.904L83.034 305.41C83.437 304.76 84.217 304.383 85.088 304.383C86.7 304.383 87.532 305.384 87.532 307.048V311H85.946V307.425C85.946 306.346 85.413 305.826 84.594 305.826C83.619 305.826 83.021 306.502 83.021 307.542V311ZM91.0663 311.169C89.7013 311.169 88.8693 310.376 88.8693 309.167C88.8693 307.984 89.7273 307.243 91.2483 307.126L93.1723 306.983V306.84C93.1723 305.969 92.6523 305.618 91.8463 305.618C90.9103 305.618 90.3903 306.008 90.3903 306.684H89.0383C89.0383 305.293 90.1823 304.383 91.9243 304.383C93.6533 304.383 94.7193 305.319 94.7193 307.1V311H93.3283L93.2113 310.051C92.9383 310.714 92.0673 311.169 91.0663 311.169ZM91.5863 309.973C92.5613 309.973 93.1853 309.388 93.1853 308.4V308.062L91.8463 308.166C90.8583 308.257 90.4813 308.582 90.4813 309.102C90.4813 309.687 90.8713 309.973 91.5863 309.973ZM97.9284 311H96.3424V304.578H97.8114L97.9414 305.41C98.3444 304.76 99.1244 304.383 99.9954 304.383C101.607 304.383 102.439 305.384 102.439 307.048V311H100.853V307.425C100.853 306.346 100.32 305.826 99.5014 305.826C98.5264 305.826 97.9284 306.502 97.9284 307.542V311ZM106.247 311H104.661V305.904H103.426V304.578H104.661V302.576H106.247V304.578H107.495V305.904H106.247V311ZM108.052 309.05H109.56C109.573 309.609 109.989 309.96 110.717 309.96C111.458 309.96 111.861 309.661 111.861 309.193C111.861 308.868 111.692 308.634 111.12 308.504L109.963 308.231C108.806 307.971 108.247 307.425 108.247 306.398C108.247 305.137 109.313 304.383 110.795 304.383C112.238 304.383 113.213 305.215 113.226 306.463H111.718C111.705 305.917 111.341 305.566 110.73 305.566C110.106 305.566 109.742 305.852 109.742 306.333C109.742 306.697 110.028 306.931 110.574 307.061L111.731 307.334C112.81 307.581 113.356 308.075 113.356 309.063C113.356 310.363 112.251 311.169 110.665 311.169C109.066 311.169 108.052 310.311 108.052 309.05ZM119.313 311H118.416V304.708H119.196L119.326 305.8C119.742 304.994 120.574 304.539 121.484 304.539C123.213 304.539 123.928 305.566 123.928 307.152V311H123.031V307.347C123.031 305.878 122.368 305.358 121.328 305.358C120.041 305.358 119.313 306.294 119.313 307.711V311ZM125.338 307.854C125.338 305.93 126.69 304.539 128.536 304.539C130.382 304.539 131.734 305.93 131.734 307.854C131.734 309.765 130.382 311.156 128.536 311.156C126.69 311.156 125.338 309.765 125.338 307.854ZM126.248 307.841C126.248 309.323 127.184 310.35 128.536 310.35C129.875 310.35 130.824 309.323 130.824 307.841C130.824 306.385 129.875 305.345 128.536 305.345C127.184 305.345 126.248 306.385 126.248 307.841ZM134.614 311H133.73V305.462H132.469V304.708H133.73V302.719H134.614V304.708H135.875V305.462H134.614V311ZM141.714 311H140.817V301.523H141.714V311ZM144.129 302.979C143.765 302.979 143.466 302.68 143.466 302.316C143.466 301.952 143.765 301.64 144.129 301.64C144.493 301.64 144.805 301.952 144.805 302.316C144.805 302.68 144.493 302.979 144.129 302.979ZM143.687 311V304.708H144.584V311H143.687ZM147.417 311H146.52V304.708H147.3L147.43 305.8C147.846 304.994 148.678 304.539 149.588 304.539C151.317 304.539 152.032 305.566 152.032 307.152V311H151.135V307.347C151.135 305.878 150.472 305.358 149.432 305.358C148.145 305.358 147.417 306.294 147.417 307.711V311ZM154.82 311H153.923V301.523H154.82V307.958L157.94 304.708H159.071L156.653 307.217L159.084 311H158.044L156.042 307.854L154.82 309.115V311ZM162.644 311.156C160.798 311.156 159.563 309.83 159.563 307.854C159.563 305.891 160.785 304.539 162.579 304.539C164.282 304.539 165.439 305.748 165.439 307.529V307.971H160.434C160.499 309.505 161.305 310.389 162.657 310.389C163.684 310.389 164.347 309.947 164.581 309.115H165.439C165.101 310.441 164.126 311.156 162.644 311.156ZM162.579 305.306C161.396 305.306 160.616 306.086 160.46 307.321H164.542C164.542 306.112 163.762 305.306 162.579 305.306ZM169.408 311.156C167.575 311.156 166.496 309.752 166.496 307.867C166.496 305.969 167.575 304.539 169.447 304.539C170.487 304.539 171.319 304.994 171.761 305.904V301.523H172.658V311H171.878L171.787 309.713C171.345 310.688 170.461 311.156 169.408 311.156ZM169.564 310.337C170.942 310.337 171.748 309.297 171.748 307.841C171.748 306.398 170.942 305.345 169.564 305.345C168.199 305.345 167.406 306.398 167.406 307.841C167.406 309.297 168.199 310.337 169.564 310.337ZM179.708 311H178.824V305.462H177.563V304.708H178.824V302.719H179.708V304.708H180.969V305.462H179.708V311ZM181.697 307.854C181.697 305.93 183.049 304.539 184.895 304.539C186.741 304.539 188.093 305.93 188.093 307.854C188.093 309.765 186.741 311.156 184.895 311.156C183.049 311.156 181.697 309.765 181.697 307.854ZM182.607 307.841C182.607 309.323 183.543 310.35 184.895 310.35C186.234 310.35 187.183 309.323 187.183 307.841C187.183 306.385 186.234 305.345 184.895 305.345C183.543 305.345 182.607 306.385 182.607 307.841ZM195.07 311.156C193.731 311.156 192.938 310.402 192.938 309.297C192.938 308.14 193.822 307.412 195.291 307.295L197.371 307.126V306.918C197.371 305.683 196.63 305.293 195.707 305.293C194.615 305.293 193.965 305.787 193.965 306.632H193.146C193.146 305.358 194.186 304.539 195.733 304.539C197.189 304.539 198.255 305.267 198.255 306.931V311H197.501L197.384 309.895C196.994 310.688 196.136 311.156 195.07 311.156ZM195.278 310.428C196.604 310.428 197.371 309.505 197.371 308.14V307.802L195.512 307.945C194.329 308.049 193.848 308.569 193.848 309.271C193.848 310.038 194.42 310.428 195.278 310.428ZM201.017 311H200.12V304.708H200.9L201.03 305.8C201.446 304.994 202.278 304.539 203.188 304.539C204.917 304.539 205.632 305.566 205.632 307.152V311H204.735V307.347C204.735 305.878 204.072 305.358 203.032 305.358C201.745 305.358 201.017 306.294 201.017 307.711V311ZM206.721 313.743V313.002H207.41C207.956 313.002 208.502 312.963 208.814 312.118L209.087 311.377L206.539 304.708H207.488L209.516 310.194L211.505 304.708H212.428L209.542 312.443C209.178 313.431 208.567 313.834 207.67 313.834C207.293 313.834 207.007 313.808 206.721 313.743ZM217.993 311H217.213V301.523H218.11V305.93C218.552 305.007 219.41 304.539 220.476 304.539C222.309 304.539 223.375 305.969 223.375 307.867C223.375 309.752 222.283 311.156 220.45 311.156C219.397 311.156 218.526 310.688 218.084 309.713L217.993 311ZM218.123 307.841C218.123 309.297 218.929 310.337 220.307 310.337C221.672 310.337 222.465 309.297 222.465 307.841C222.465 306.398 221.672 305.345 220.307 305.345C218.929 305.345 218.123 306.398 218.123 307.841ZM227.508 311.156C225.662 311.156 224.427 309.83 224.427 307.854C224.427 305.891 225.649 304.539 227.443 304.539C229.146 304.539 230.303 305.748 230.303 307.529V307.971H225.298C225.363 309.505 226.169 310.389 227.521 310.389C228.548 310.389 229.211 309.947 229.445 309.115H230.303C229.965 310.441 228.99 311.156 227.508 311.156ZM227.443 305.306C226.26 305.306 225.48 306.086 225.324 307.321H229.406C229.406 306.112 228.626 305.306 227.443 305.306ZM234.273 311.156C232.44 311.156 231.361 309.752 231.361 307.867C231.361 305.969 232.44 304.539 234.312 304.539C235.352 304.539 236.184 304.994 236.626 305.904V301.523H237.523V311H236.743L236.652 309.713C236.21 310.688 235.326 311.156 234.273 311.156ZM234.429 310.337C235.807 310.337 236.613 309.297 236.613 307.841C236.613 306.398 235.807 305.345 234.429 305.345C233.064 305.345 232.271 306.398 232.271 307.841C232.271 309.297 233.064 310.337 234.429 310.337Z" fill="#585858"/>
<rect x="273" y="288" width="57" height="36" rx="18" fill="#E4DEFF"/>
<path d="M291.366 301.601V309.817H295.5V311H290.092V301.601H291.366ZM297.339 303.135C296.897 303.135 296.533 302.771 296.533 302.329C296.533 301.874 296.897 301.523 297.339 301.523C297.781 301.523 298.145 301.874 298.145 302.329C298.145 302.771 297.781 303.135 297.339 303.135ZM296.741 311V304.643H297.963V311H296.741ZM301.024 311H299.802V304.643H300.907L301.037 305.618C301.44 304.89 302.246 304.461 303.143 304.461C304.82 304.461 305.587 305.488 305.587 307.113V311H304.365V307.386C304.365 306.099 303.767 305.579 302.831 305.579C301.687 305.579 301.024 306.398 301.024 307.633V311ZM308.593 311H307.371V301.432H308.593V307.633L311.414 304.643H312.948L310.517 307.178L312.935 311H311.531L309.672 308.062L308.593 309.193V311Z" fill="#372583"/>
</g>
<defs>
<filter id="filter0_d_501_6672" x="22" y="29" width="336" height="324" filterUnits="userSpaceOnUse" color-interpolation-filters="sRGB">
<feFlood flood-opacity="0" result="BackgroundImageFix"/>
<feColorMatrix in="SourceAlpha" type="matrix" values="0 0 0 0 0 0 0 0 0 0 0 0 0 0 0 0 0 0 127 0" result="hardAlpha"/>
<feOffset dy="1"/>
<feGaussianBlur stdDeviation="2"/>
<feComposite in2="hardAlpha" operator="out"/>
<feColorMatrix type="matrix" values="0 0 0 0 0.838184 0 0 0 0 0.838184 0 0 0 0 0.838184 0 0 0 0.25 0"/>
<feBlend mode="normal" in2="BackgroundImageFix" result="effect1_dropShadow_501_6672"/>
<feBlend mode="normal" in="SourceGraphic" in2="effect1_dropShadow_501_6672" result="shape"/>
</filter>
<clipPath id="clip0_501_6672">
<rect x="38" y="48" width="304" height="216" rx="4" fill="white"/>
</clipPath>
<clipPath id="clip1_501_6672">
<rect x="38" y="48" width="304" height="216" rx="4" fill="white"/>
</clipPath>
<clipPath id="clip2_501_6672">
<rect width="20" height="20" fill="white" transform="translate(322 49.5)"/>
</clipPath>
</defs>
</svg>
