<svg width="360" height="212" viewBox="0 0 360 212" fill="none" xmlns="http://www.w3.org/2000/svg">
<rect width="360" height="212" rx="8" fill="white"/>
<path d="M18.067 37H17.131V27.692H18.067V31.839H23.098V27.692H24.021V37H23.098V32.71H18.067V37ZM26.609 28.979C26.245 28.979 25.946 28.68 25.946 28.316C25.946 27.952 26.245 27.64 26.609 27.64C26.973 27.64 27.285 27.952 27.285 28.316C27.285 28.68 26.973 28.979 26.609 28.979ZM26.167 37V30.708H27.064V37H26.167ZM29.8966 37H28.9996V30.708H29.7796L29.8836 31.605C30.1956 30.942 30.8976 30.539 31.7816 30.539C32.7696 30.539 33.5106 31.059 33.8096 31.878C34.0956 31.059 34.8626 30.539 35.8766 30.539C37.2416 30.539 38.1386 31.423 38.1386 32.879V37H37.2676V33.061C37.2676 31.982 36.6696 31.345 35.7076 31.345C34.6546 31.345 34.0306 32.138 34.0306 33.113V37H33.1466V33.048C33.1466 31.982 32.5356 31.358 31.5866 31.358C30.5336 31.358 29.8966 32.138 29.8966 33.1V37ZM41.815 37.156C40.476 37.156 39.683 36.402 39.683 35.297C39.683 34.14 40.567 33.412 42.036 33.295L44.116 33.126V32.918C44.116 31.683 43.375 31.293 42.452 31.293C41.36 31.293 40.71 31.787 40.71 32.632H39.891C39.891 31.358 40.931 30.539 42.478 30.539C43.934 30.539 45 31.267 45 32.931V37H44.246L44.129 35.895C43.739 36.688 42.881 37.156 41.815 37.156ZM42.023 36.428C43.349 36.428 44.116 35.505 44.116 34.14V33.802L42.257 33.945C41.074 34.049 40.593 34.569 40.593 35.271C40.593 36.038 41.165 36.428 42.023 36.428ZM47.7619 37H46.8649V30.708H47.6449L47.7749 31.8C48.1909 30.994 49.0229 30.539 49.9329 30.539C51.6619 30.539 52.3769 31.566 52.3769 33.152V37H51.4799V33.347C51.4799 31.878 50.8169 31.358 49.7769 31.358C48.4899 31.358 47.7619 32.294 47.7619 33.711V37ZM53.6206 35.232H54.4786C54.4786 35.96 55.0246 36.415 55.9086 36.415C56.8836 36.415 57.4556 35.999 57.4556 35.323C57.4556 34.803 57.1956 34.504 56.4546 34.322L55.3756 34.049C54.2836 33.776 53.7506 33.204 53.7506 32.346C53.7506 31.241 54.6736 30.539 56.0256 30.539C57.3516 30.539 58.2096 31.267 58.2486 32.437H57.3776C57.3516 31.709 56.8446 31.28 55.9996 31.28C55.1156 31.28 54.6216 31.657 54.6216 32.333C54.6216 32.814 54.9596 33.152 55.6486 33.321L56.7276 33.594C57.8196 33.867 58.3136 34.374 58.3136 35.284C58.3136 36.415 57.3516 37.156 55.9216 37.156C54.5046 37.156 53.6206 36.402 53.6206 35.232ZM60.7523 36.987H59.8553V27.523H60.7523V31.8C61.1553 31.046 61.9223 30.539 62.9753 30.539C64.6263 30.539 65.3673 31.566 65.3673 33.152V37H64.4703V33.347C64.4703 31.878 63.7813 31.358 62.8063 31.358C61.4543 31.358 60.7523 32.359 60.7523 33.568V36.987ZM71.6401 30.708H72.5371V37H71.7571L71.6401 35.934C71.2891 36.662 70.4181 37.156 69.4301 37.156C67.9481 37.156 67.1421 36.142 67.1421 34.608V30.695H68.0521V34.322C68.0521 35.817 68.7151 36.35 69.7161 36.35C70.9251 36.35 71.6401 35.544 71.6401 34.049V30.708ZM77.7771 30.11C77.7771 28.55 79.0251 27.523 80.8971 27.523C82.5741 27.523 83.6791 28.459 83.8221 30.019H82.8731C82.7691 28.966 82.0541 28.368 80.8841 28.368C79.5711 28.368 78.7131 29.044 78.7131 30.097C78.7131 30.916 79.1941 31.436 80.1691 31.683L81.7681 32.073C83.2241 32.424 83.9781 33.256 83.9781 34.517C83.9781 36.129 82.7301 37.156 80.8061 37.156C78.9991 37.156 77.7771 36.207 77.6601 34.686H78.6221C78.6741 35.661 79.5321 36.298 80.8061 36.298C82.1711 36.298 83.0421 35.635 83.0421 34.569C83.0421 33.737 82.5741 33.191 81.5731 32.957L80.0001 32.567C78.5441 32.216 77.7771 31.384 77.7771 30.11ZM87.3383 37.156C85.9993 37.156 85.2063 36.402 85.2063 35.297C85.2063 34.14 86.0903 33.412 87.5593 33.295L89.6393 33.126V32.918C89.6393 31.683 88.8983 31.293 87.9753 31.293C86.8833 31.293 86.2333 31.787 86.2333 32.632H85.4143C85.4143 31.358 86.4543 30.539 88.0013 30.539C89.4573 30.539 90.5233 31.267 90.5233 32.931V37H89.7693L89.6523 35.895C89.2623 36.688 88.4043 37.156 87.3383 37.156ZM87.5463 36.428C88.8723 36.428 89.6393 35.505 89.6393 34.14V33.802L87.7803 33.945C86.5973 34.049 86.1163 34.569 86.1163 35.271C86.1163 36.038 86.6883 36.428 87.5463 36.428ZM92.8303 28.979C92.4663 28.979 92.1673 28.68 92.1673 28.316C92.1673 27.952 92.4663 27.64 92.8303 27.64C93.1943 27.64 93.5063 27.952 93.5063 28.316C93.5063 28.68 93.1943 28.979 92.8303 28.979ZM92.3883 37V30.708H93.2853V37H92.3883ZM96.1179 37H95.2209V30.708H96.0009L96.1309 31.8C96.5469 30.994 97.3789 30.539 98.2889 30.539C100.018 30.539 100.733 31.566 100.733 33.152V37H99.8359V33.347C99.8359 31.878 99.1729 31.358 98.1329 31.358C96.8459 31.358 96.1179 32.294 96.1179 33.711V37ZM103.028 28.979C102.664 28.979 102.365 28.68 102.365 28.316C102.365 27.952 102.664 27.64 103.028 27.64C103.392 27.64 103.704 27.952 103.704 28.316C103.704 28.68 103.392 28.979 103.028 28.979ZM102.586 37V30.708H103.483V37H102.586ZM108.153 37.91H121.153V24.91H108.153V37.91Z" fill="#6F6F6F"/>
<path d="M22.24 58.192C18.832 58.192 16.624 55.824 16.624 52.16C16.624 48.528 18.912 46.112 22.336 46.112C25.104 46.112 27.168 47.728 27.568 50.24H25.408C25.008 48.88 23.84 48.08 22.288 48.08C20.128 48.08 18.768 49.648 18.768 52.144C18.768 54.624 20.144 56.224 22.288 56.224C23.872 56.224 25.088 55.392 25.472 54.096H27.6C27.152 56.56 25.008 58.192 22.24 58.192ZM28.7646 54.032C28.7646 51.568 30.5406 49.872 32.9886 49.872C35.4366 49.872 37.2126 51.568 37.2126 54.032C37.2126 56.496 35.4366 58.192 32.9886 58.192C30.5406 58.192 28.7646 56.496 28.7646 54.032ZM30.7166 54.032C30.7166 55.472 31.6446 56.448 32.9886 56.448C34.3326 56.448 35.2606 55.472 35.2606 54.032C35.2606 52.592 34.3326 51.616 32.9886 51.616C31.6446 51.616 30.7166 52.592 30.7166 54.032ZM40.7919 58H38.8399V50.096H40.6319L40.7919 51.024C41.1919 50.368 41.9919 49.856 43.1279 49.856C44.3279 49.856 45.1599 50.448 45.5759 51.36C45.9759 50.448 46.9039 49.856 48.1039 49.856C50.0239 49.856 51.0799 51.008 51.0799 52.832V58H49.1439V53.344C49.1439 52.208 48.5359 51.616 47.6079 51.616C46.6639 51.616 45.9439 52.224 45.9439 53.52V58H43.9919V53.328C43.9919 52.224 43.3999 51.632 42.4719 51.632C41.5439 51.632 40.7919 52.24 40.7919 53.52V58ZM52.2921 50.096H53.4281V49.136C53.4281 46.992 54.5641 46.096 56.2761 46.096C56.5801 46.096 56.9481 46.112 57.2841 46.176V47.84H56.5961C55.6041 47.84 55.3641 48.352 55.3641 49.136V50.096H57.2521V51.728H55.3641V58H53.4281V51.728H52.2921V50.096ZM57.8796 54.032C57.8796 51.568 59.6556 49.872 62.1036 49.872C64.5516 49.872 66.3276 51.568 66.3276 54.032C66.3276 56.496 64.5516 58.192 62.1036 58.192C59.6556 58.192 57.8796 56.496 57.8796 54.032ZM59.8316 54.032C59.8316 55.472 60.7596 56.448 62.1036 56.448C63.4476 56.448 64.3756 55.472 64.3756 54.032C64.3756 52.592 63.4476 51.616 62.1036 51.616C60.7596 51.616 59.8316 52.592 59.8316 54.032ZM72.9149 50.064V51.872H72.1949C70.7869 51.872 69.9069 52.624 69.9069 54.16V58H67.9549V50.112H69.7949L69.9069 51.264C70.2429 50.48 70.9949 49.952 72.0509 49.952C72.3229 49.952 72.5949 49.984 72.9149 50.064ZM77.3166 58H75.3646V51.728H73.8446V50.096H75.3646V47.632H77.3166V50.096H78.8526V51.728H77.3166V58ZM79.7621 49.568C79.7621 47.52 81.4581 46.096 83.9221 46.096C86.2901 46.096 87.7941 47.408 87.8581 49.52H85.8101C85.7621 48.512 85.0421 47.92 83.8901 47.92C82.6261 47.92 81.8101 48.528 81.8101 49.504C81.8101 50.336 82.2581 50.8 83.2341 51.024L85.0741 51.424C87.0741 51.856 88.0501 52.88 88.0501 54.624C88.0501 56.8 86.3541 58.208 83.7781 58.208C81.2821 58.208 79.6501 56.88 79.6021 54.784H81.6501C81.6661 55.776 82.4661 56.368 83.7781 56.368C85.1381 56.368 86.0021 55.776 86.0021 54.8C86.0021 54.016 85.6021 53.552 84.6421 53.344L82.7861 52.928C80.8021 52.496 79.7621 51.36 79.7621 49.568ZM92.3829 58H90.4309V51.728H88.9109V50.096H90.4309V47.632H92.3829V50.096H93.9189V51.728H92.3829V58ZM97.5175 58.208C95.8375 58.208 94.8135 57.232 94.8135 55.744C94.8135 54.288 95.8695 53.376 97.7415 53.232L100.11 53.056V52.88C100.11 51.808 99.4695 51.376 98.4775 51.376C97.3255 51.376 96.6855 51.856 96.6855 52.688H95.0215C95.0215 50.976 96.4295 49.856 98.5735 49.856C100.702 49.856 102.014 51.008 102.014 53.2V58H100.302L100.158 56.832C99.8215 57.648 98.7495 58.208 97.5175 58.208ZM98.1575 56.736C99.3575 56.736 100.126 56.016 100.126 54.8V54.384L98.4775 54.512C97.2615 54.624 96.7975 55.024 96.7975 55.664C96.7975 56.384 97.2775 56.736 98.1575 56.736ZM103.104 61.664V60.032H104.272C105.04 60.032 105.52 59.856 105.856 58.928L106.08 58.336L102.896 50.096H104.96L106.992 55.856L109.136 50.096H111.152L107.28 59.76C106.688 61.232 105.856 61.84 104.56 61.84C104.016 61.84 103.536 61.776 103.104 61.664ZM111.561 55.6H113.417C113.433 56.288 113.945 56.72 114.841 56.72C115.753 56.72 116.249 56.352 116.249 55.776C116.249 55.376 116.041 55.088 115.337 54.928L113.913 54.592C112.489 54.272 111.801 53.6 111.801 52.336C111.801 50.784 113.113 49.856 114.937 49.856C116.713 49.856 117.913 50.88 117.929 52.416H116.073C116.057 51.744 115.609 51.312 114.857 51.312C114.089 51.312 113.641 51.664 113.641 52.256C113.641 52.704 113.993 52.992 114.665 53.152L116.089 53.488C117.417 53.792 118.089 54.4 118.089 55.616C118.089 57.216 116.729 58.208 114.777 58.208C112.809 58.208 111.561 57.152 111.561 55.6Z" fill="#222222"/>
<rect x="207.5" y="22.5" width="80" height="39" rx="19.5" fill="#E5F5EC"/>
<rect x="207.5" y="22.5" width="80" height="39" rx="19.5" stroke="#C8EDD7"/>
<path d="M227.992 36.008H229.24V47H227.992V41.992H221.512V47H220.264V36.008H221.512V40.808H227.992V36.008ZM235.444 46.12C236.42 46.12 237.54 45.688 238.052 45.128L238.788 45.912C238.068 46.696 236.612 47.192 235.46 47.192C233.252 47.192 231.268 45.384 231.268 42.84C231.268 40.376 233.124 38.536 235.348 38.536C237.844 38.536 239.268 40.424 239.268 43.32H232.5C232.676 44.936 233.812 46.12 235.444 46.12ZM235.396 39.608C233.924 39.608 232.74 40.648 232.516 42.248H238.084C237.924 40.76 237.044 39.608 235.396 39.608ZM241.232 47V35.816H242.432V47H241.232ZM249.177 38.536C251.353 38.536 252.985 40.328 252.985 42.856C252.985 45.4 251.353 47.192 249.177 47.192C247.849 47.192 246.793 46.536 246.169 45.448V49.752H244.969V38.728H246.169V40.28C246.793 39.192 247.849 38.536 249.177 38.536ZM248.953 46.12C250.569 46.12 251.721 44.76 251.721 42.856C251.721 40.952 250.569 39.608 248.953 39.608C247.321 39.608 246.169 40.952 246.169 42.856C246.169 44.76 247.321 46.12 248.953 46.12Z" fill="#0DAA84"/>
<g clip-path="url(#clip0_798_63222)">
<path d="M271.84 43.1937C271.809 43.1787 270.643 42.6044 270.435 42.5298C270.351 42.4994 270.26 42.4697 270.164 42.4697C270.006 42.4697 269.874 42.5482 269.771 42.7024C269.654 42.8756 269.302 43.2879 269.193 43.4111C269.178 43.4273 269.159 43.4467 269.147 43.4467C269.137 43.4467 268.956 43.3724 268.902 43.3487C267.65 42.8051 266.701 41.4981 266.57 41.2777C266.552 41.246 266.551 41.2316 266.551 41.2316C266.555 41.2148 266.597 41.1726 266.619 41.1509C266.683 41.088 266.752 41.0051 266.818 40.925C266.85 40.887 266.881 40.849 266.912 40.8131C267.009 40.7007 267.052 40.6135 267.102 40.5124L267.128 40.4598C267.25 40.2179 267.146 40.0138 267.112 39.9478C267.084 39.8927 266.592 38.704 266.54 38.5791C266.414 38.2778 266.247 38.1375 266.016 38.1375C265.995 38.1375 266.016 38.1375 265.926 38.1412C265.817 38.1459 265.22 38.2244 264.956 38.3907C264.676 38.5671 264.203 39.1292 264.203 40.1179C264.203 41.0077 264.768 41.8479 265.01 42.1674C265.016 42.1755 265.027 42.1918 265.043 42.2153C265.972 43.5713 267.129 44.5762 268.303 45.0449C269.432 45.4961 269.967 45.5483 270.271 45.5483H270.271C270.399 45.5483 270.501 45.5382 270.592 45.5293L270.649 45.5239C271.039 45.4893 271.897 45.0449 272.092 44.5029C272.245 44.0759 272.286 43.6094 272.184 43.4401C272.114 43.325 271.993 43.2671 271.84 43.1937Z" fill="#0DAA84"/>
<path d="M268.142 34C263.809 34 260.283 37.4989 260.283 41.7996C260.283 43.1906 260.656 44.5523 261.361 45.7439L260.011 49.7255C259.986 49.7997 260.005 49.8818 260.059 49.9377C260.099 49.9782 260.153 50 260.208 50C260.229 50 260.25 49.9968 260.271 49.9902L264.422 48.671C265.558 49.278 266.843 49.5984 268.142 49.5984C272.475 49.5984 276 46.0999 276 41.7996C276 37.4989 272.475 34 268.142 34ZM268.142 47.9737C266.919 47.9737 265.735 47.6206 264.717 46.9526C264.683 46.9301 264.643 46.9185 264.603 46.9185C264.582 46.9185 264.56 46.9218 264.54 46.9283L262.46 47.5894L263.131 45.6087C263.153 45.5446 263.142 45.4739 263.102 45.4192C262.327 44.3599 261.917 43.1083 261.917 41.7996C261.917 38.3948 264.71 35.6247 268.142 35.6247C271.574 35.6247 274.366 38.3948 274.366 41.7996C274.366 45.2041 271.574 47.9737 268.142 47.9737Z" fill="#0DAA84"/>
</g>
<rect x="304" y="22" width="40" height="40" rx="20" fill="#E1EDFF"/>
<path d="M316.548 47H315.176V36.878H316.548V41.232H321.56V36.878H322.932V47H321.56V42.506H316.548V47ZM324.553 39.608C324.553 37.872 325.953 36.696 328.039 36.696C329.971 36.696 331.217 37.774 331.329 39.524H329.943C329.873 38.516 329.159 37.928 328.025 37.928C326.751 37.928 325.925 38.572 325.925 39.566C325.925 40.378 326.387 40.868 327.339 41.092L329.005 41.484C330.657 41.862 331.497 42.758 331.497 44.186C331.497 46.006 330.083 47.168 327.927 47.168C325.869 47.168 324.497 46.09 324.413 44.354H325.813C325.841 45.32 326.653 45.936 327.927 45.936C329.271 45.936 330.125 45.306 330.125 44.298C330.125 43.5 329.691 42.996 328.725 42.772L327.059 42.394C325.407 42.016 324.553 41.064 324.553 39.608Z" fill="#2F80ED"/>
<g filter="url(#filter0_d_798_63222)">
<g clip-path="url(#clip1_798_63222)">
<rect x="16" y="84" width="72" height="100" rx="8" fill="white"/>
<path d="M27.18 103.581H24.567V107H23.631V97.692H27.18C28.974 97.692 30.105 98.862 30.105 100.617C30.105 102.307 28.961 103.581 27.18 103.581ZM27.05 98.537H24.567V102.736H26.998C28.35 102.736 29.13 101.878 29.13 100.604C29.13 99.317 28.337 98.537 27.05 98.537ZM34.7754 100.63V101.436H34.2814C33.1244 101.436 32.3834 102.216 32.3834 103.412V107H31.4864V100.708H32.3314L32.3964 101.683C32.6434 101.007 33.3064 100.565 34.1904 100.565C34.3854 100.565 34.5544 100.578 34.7754 100.63ZM35.3496 103.854C35.3496 101.93 36.7016 100.539 38.5476 100.539C40.3936 100.539 41.7456 101.93 41.7456 103.854C41.7456 105.765 40.3936 107.156 38.5476 107.156C36.7016 107.156 35.3496 105.765 35.3496 103.854ZM36.2596 103.841C36.2596 105.323 37.1956 106.35 38.5476 106.35C39.8866 106.35 40.8356 105.323 40.8356 103.841C40.8356 102.385 39.8866 101.345 38.5476 101.345C37.1956 101.345 36.2596 102.385 36.2596 103.841ZM43.2453 109.743V100.708H44.0253L44.1163 101.982C44.5583 101.007 45.4423 100.539 46.4953 100.539C48.3153 100.539 49.4073 101.93 49.4073 103.828C49.4073 105.726 48.3543 107.156 46.4953 107.156C45.4293 107.156 44.5843 106.701 44.1423 105.791V109.743H43.2453ZM44.1553 103.854C44.1553 105.297 44.9613 106.35 46.3393 106.35C47.7043 106.35 48.4973 105.297 48.4973 103.854C48.4973 102.398 47.7043 101.358 46.3393 101.358C44.9613 101.358 44.1553 102.398 44.1553 103.854ZM53.5411 107.156C51.6951 107.156 50.4601 105.83 50.4601 103.854C50.4601 101.891 51.6821 100.539 53.4761 100.539C55.1791 100.539 56.3361 101.748 56.3361 103.529V103.971H51.3311C51.3961 105.505 52.2021 106.389 53.5541 106.389C54.5811 106.389 55.2441 105.947 55.4781 105.115H56.3361C55.9981 106.441 55.0231 107.156 53.5411 107.156ZM53.4761 101.306C52.2931 101.306 51.5131 102.086 51.3571 103.321H55.4391C55.4391 102.112 54.6591 101.306 53.4761 101.306ZM61.1242 100.63V101.436H60.6302C59.4732 101.436 58.7322 102.216 58.7322 103.412V107H57.8352V100.708H58.6802L58.7452 101.683C58.9922 101.007 59.6552 100.565 60.5392 100.565C60.7342 100.565 60.9032 100.578 61.1242 100.63ZM64.0786 107H63.1946V101.462H61.9336V100.708H63.1946V98.719H64.0786V100.708H65.3396V101.462H64.0786V107ZM67.0146 98.979C66.6506 98.979 66.3516 98.68 66.3516 98.316C66.3516 97.952 66.6506 97.64 67.0146 97.64C67.3786 97.64 67.6906 97.952 67.6906 98.316C67.6906 98.68 67.3786 98.979 67.0146 98.979ZM66.5726 107V100.708H67.4696V107H66.5726ZM72.0442 107.156C70.1982 107.156 68.9632 105.83 68.9632 103.854C68.9632 101.891 70.1852 100.539 71.9792 100.539C73.6822 100.539 74.8392 101.748 74.8392 103.529V103.971H69.8342C69.8992 105.505 70.7052 106.389 72.0572 106.389C73.0842 106.389 73.7472 105.947 73.9812 105.115H74.8392C74.5012 106.441 73.5262 107.156 72.0442 107.156ZM71.9792 101.306C70.7962 101.306 70.0162 102.086 69.8602 103.321H73.9422C73.9422 102.112 73.1622 101.306 71.9792 101.306ZM75.8054 105.232H76.6634C76.6634 105.96 77.2094 106.415 78.0934 106.415C79.0684 106.415 79.6404 105.999 79.6404 105.323C79.6404 104.803 79.3804 104.504 78.6394 104.322L77.5604 104.049C76.4684 103.776 75.9354 103.204 75.9354 102.346C75.9354 101.241 76.8584 100.539 78.2104 100.539C79.5364 100.539 80.3944 101.267 80.4334 102.437H79.5624C79.5364 101.709 79.0294 101.28 78.1844 101.28C77.3004 101.28 76.8064 101.657 76.8064 102.333C76.8064 102.814 77.1444 103.152 77.8334 103.321L78.9124 103.594C80.0044 103.867 80.4984 104.374 80.4984 105.284C80.4984 106.415 79.5364 107.156 78.1064 107.156C76.6894 107.156 75.8054 106.402 75.8054 105.232Z" fill="#6F6F6F"/>
<path d="M48.088 125.102C48.088 123.884 48.774 122.904 49.838 122.498C48.942 122.092 48.452 121.322 48.452 120.328C48.452 118.704 49.894 117.584 52.008 117.584C54.108 117.584 55.522 118.69 55.522 120.356C55.522 121.35 55.018 122.12 54.108 122.498C55.186 122.876 55.886 123.87 55.886 125.102C55.886 126.95 54.36 128.168 51.98 128.168C49.614 128.168 48.088 126.964 48.088 125.102ZM50.076 120.482C50.076 121.336 50.818 121.882 51.98 121.882C53.128 121.882 53.856 121.35 53.856 120.496C53.856 119.642 53.128 119.11 51.98 119.11C50.818 119.11 50.076 119.642 50.076 120.482ZM49.838 124.976C49.838 125.97 50.664 126.586 51.994 126.586C53.296 126.586 54.122 125.97 54.122 124.976C54.122 123.982 53.296 123.366 51.98 123.366C50.664 123.366 49.838 123.982 49.838 124.976Z" fill="#222222"/>
<path d="M51.4922 188.997V152.853L64.2808 145.909V182.057L51.4922 188.997Z" fill="#9681CD"/>
<path d="M51.4922 189.001V152.964L38.7036 146.02V182.061L51.4922 189.001Z" fill="#463A7C"/>
<path d="M51.4703 139L64.274 145.969L51.4703 152.861L38.6758 145.969L51.4703 139Z" fill="#F4F1FF"/>
<path d="M54.0977 154.352L55.6456 153.521V155.233L54.0977 156.064V154.352Z" fill="#F4F1FF"/>
<path d="M53.8202 154.185L54.0975 154.359L54.0975 156.055L53.8125 155.871L53.8202 154.185Z" fill="#463A7C"/>
<path d="M55.6473 153.521L55.3655 153.34L53.8164 154.179L54.0982 154.352L55.6473 153.521Z" fill="#463A7C"/>
<path d="M54.0977 165.358L55.6456 164.527V166.239L54.0977 167.07V165.358Z" fill="#F4F1FF"/>
<path d="M53.8202 165.191L54.0975 165.365L54.0975 167.062L53.8125 166.877L53.8202 165.191Z" fill="#463A7C"/>
<path d="M55.6473 164.527L55.3655 164.346L53.8164 165.185L54.0982 165.358L55.6473 164.527Z" fill="#463A7C"/>
<path d="M54.0977 158.005L55.6456 157.174V158.886L54.0977 159.718V158.005Z" fill="#F4F1FF"/>
<path d="M53.8202 157.843L54.0975 158.017L54.0975 159.713L53.8125 159.528L53.8202 157.843Z" fill="#463A7C"/>
<path d="M55.6473 157.179L55.3655 156.998L53.8164 157.837L54.0982 158.01L55.6473 157.179Z" fill="#463A7C"/>
<path d="M54.0977 161.666L55.6456 160.834V162.547L54.0977 163.378V161.666Z" fill="#F4F1FF"/>
<path d="M53.8202 161.503L54.0975 161.677L54.0975 163.374L53.8125 163.189L53.8202 161.503Z" fill="#463A7C"/>
<path d="M55.6473 160.839L55.3655 160.658L53.8164 161.498L54.0982 161.67L55.6473 160.839Z" fill="#463A7C"/>
<path d="M57.5508 152.468L59.0988 151.637V153.349L57.5508 154.18V152.468Z" fill="#F4F1FF"/>
<path d="M57.2733 152.308L57.5506 152.482L57.5506 154.178L57.2656 153.993L57.2733 152.308Z" fill="#463A7C"/>
<path d="M59.1004 151.642L58.8186 151.46L57.2695 152.3L57.5513 152.472L59.1004 151.642Z" fill="#463A7C"/>
<path d="M57.5508 163.467L59.0988 162.635V164.348L57.5508 165.179V163.467Z" fill="#F4F1FF"/>
<path d="M57.2733 163.304L57.5506 163.478L57.5506 165.175L57.2656 164.99L57.2733 163.304Z" fill="#463A7C"/>
<path d="M59.1004 162.64L58.8186 162.459L57.2695 163.298L57.5513 163.471L59.1004 162.64Z" fill="#463A7C"/>
<path d="M57.5508 156.138L59.0988 155.307V157.019L57.5508 157.85V156.138Z" fill="#F4F1FF"/>
<path d="M57.2733 155.976L57.5506 156.149L57.5506 157.846L57.2656 157.661L57.2733 155.976Z" fill="#463A7C"/>
<path d="M59.1004 155.312L58.8186 155.13L57.2695 155.97L57.5513 156.142L59.1004 155.312Z" fill="#463A7C"/>
<path d="M57.5508 159.791L59.0988 158.96V160.672L57.5508 161.503V159.791Z" fill="#F4F1FF"/>
<path d="M57.2733 159.629L57.5506 159.803L57.5506 161.499L57.2656 161.315L57.2733 159.629Z" fill="#463A7C"/>
<path d="M59.1004 158.965L58.8186 158.783L57.2695 159.623L57.5513 159.795L59.1004 158.965Z" fill="#463A7C"/>
<path d="M60.9922 150.601L62.5402 149.769V151.482L60.9922 152.313V150.601Z" fill="#F4F1FF"/>
<path d="M60.7147 150.438L60.992 150.612L60.992 152.309L60.707 152.124L60.7147 150.438Z" fill="#463A7C"/>
<path d="M62.5418 149.774L62.26 149.593L60.7109 150.432L60.9927 150.605L62.5418 149.774Z" fill="#463A7C"/>
<path d="M60.9922 161.613L62.5402 160.782V162.494L60.9922 163.325V161.613Z" fill="#F4F1FF"/>
<path d="M60.7147 161.444L60.992 161.618L60.992 163.314L60.707 163.13L60.7147 161.444Z" fill="#463A7C"/>
<path d="M62.5418 160.78L62.26 160.599L60.7109 161.438L60.9927 161.611L62.5418 160.78Z" fill="#463A7C"/>
<path d="M60.9922 154.258L62.5402 153.427V155.14L60.9922 155.971V154.258Z" fill="#F4F1FF"/>
<path d="M60.7147 154.096L60.992 154.27L60.992 155.967L60.707 155.782L60.7147 154.096Z" fill="#463A7C"/>
<path d="M62.5418 153.432L62.26 153.251L60.7109 154.09L60.9927 154.263L62.5418 153.432Z" fill="#463A7C"/>
<path d="M60.9922 157.916L62.5402 157.085V158.797L60.9922 159.629V157.916Z" fill="#F4F1FF"/>
<path d="M60.7147 157.754L60.992 157.928L60.992 159.625L60.707 159.44L60.7147 157.754Z" fill="#463A7C"/>
<path d="M62.5418 157.09L62.26 156.909L60.7109 157.748L60.9927 157.921L62.5418 157.09Z" fill="#463A7C"/>
<path d="M54.0977 169.297L55.6456 168.465V170.178L54.0977 171.009V169.297Z" fill="#F4F1FF"/>
<path d="M53.8202 169.128L54.0975 169.301L54.0975 170.998L53.8125 170.813L53.8202 169.128Z" fill="#463A7C"/>
<path d="M55.6473 168.464L55.3655 168.282L53.8164 169.122L54.0982 169.294L55.6473 168.464Z" fill="#463A7C"/>
<path d="M54.0977 172.946L55.6456 172.114V173.827L54.0977 174.658V172.946Z" fill="#F4F1FF"/>
<path d="M53.8202 172.783L54.0975 172.957L54.0975 174.654L53.8125 174.469L53.8202 172.783Z" fill="#463A7C"/>
<path d="M55.6473 172.119L55.3655 171.938L53.8164 172.777L54.0982 172.95L55.6473 172.119Z" fill="#463A7C"/>
<path d="M54.0977 176.607L55.6456 175.776V177.488L54.0977 178.32V176.607Z" fill="#F4F1FF"/>
<path d="M53.8202 176.438L54.0975 176.612L54.0975 178.309L53.8125 178.124L53.8202 176.438Z" fill="#463A7C"/>
<path d="M55.6473 175.775L55.3655 175.593L53.8164 176.433L54.0982 176.605L55.6473 175.775Z" fill="#463A7C"/>
<path d="M57.5547 167.411L59.1027 166.579V168.292L57.5547 169.123V167.411Z" fill="#F4F1FF"/>
<path d="M57.2772 167.248L57.5545 167.422L57.5545 169.119L57.2695 168.934L57.2772 167.248Z" fill="#463A7C"/>
<path d="M59.1043 166.584L58.8225 166.403L57.2734 167.242L57.5552 167.415L59.1043 166.584Z" fill="#463A7C"/>
<path d="M57.5508 171.066L59.0988 170.235V171.947L57.5508 172.779V171.066Z" fill="#F4F1FF"/>
<path d="M57.2733 170.904L57.5506 171.078L57.5506 172.774L57.2656 172.59L57.2733 170.904Z" fill="#463A7C"/>
<path d="M59.1004 170.24L58.8186 170.059L57.2695 170.898L57.5513 171.071L59.1004 170.24Z" fill="#463A7C"/>
<path d="M57.5547 174.722L59.1027 173.891V175.603L57.5547 176.434V174.722Z" fill="#F4F1FF"/>
<path d="M57.2772 174.56L57.5545 174.733L57.5545 176.43L57.2695 176.245L57.2772 174.56Z" fill="#463A7C"/>
<path d="M59.1043 173.896L58.8225 173.714L57.2734 174.554L57.5552 174.726L59.1043 173.896Z" fill="#463A7C"/>
<path d="M60.9961 165.543L62.5441 164.712V166.424L60.9961 167.255V165.543Z" fill="#F4F1FF"/>
<path d="M60.7186 165.374L60.996 165.548L60.9959 167.244L60.7109 167.06L60.7186 165.374Z" fill="#463A7C"/>
<path d="M62.5457 164.71L62.2639 164.529L60.7148 165.368L60.9966 165.541L62.5457 164.71Z" fill="#463A7C"/>
<path d="M60.9922 169.191L62.5402 168.36V170.072L60.9922 170.904V169.191Z" fill="#F4F1FF"/>
<path d="M60.7147 169.029L60.992 169.203L60.992 170.899L60.707 170.715L60.7147 169.029Z" fill="#463A7C"/>
<path d="M62.5418 168.365L62.26 168.184L60.7109 169.023L60.9927 169.196L62.5418 168.365Z" fill="#463A7C"/>
<path d="M60.9922 172.858L62.5402 172.027V173.739L60.9922 174.571V172.858Z" fill="#F4F1FF"/>
<path d="M60.7147 172.689L60.992 172.863L60.992 174.56L60.707 174.375L60.7147 172.689Z" fill="#463A7C"/>
<path d="M62.5418 172.025L62.26 171.844L60.7109 172.684L60.9927 172.856L62.5418 172.025Z" fill="#463A7C"/>
<path d="M49.1719 154.518L47.6239 153.687V155.399L49.1719 156.23V154.518Z" fill="#E4DEFF"/>
<path d="M49.4494 154.356L49.172 154.53L49.172 156.226L49.457 156.041L49.4494 154.356Z" fill="#463A7C"/>
<path d="M47.6223 153.692L47.9041 153.51L49.4531 154.35L49.1713 154.522L47.6223 153.692Z" fill="#463A7C"/>
<path d="M49.1719 165.536L47.6239 164.704V166.417L49.1719 167.248V165.536Z" fill="#E4DEFF"/>
<path d="M49.4494 165.369L49.172 165.543L49.172 167.239L49.457 167.055L49.4494 165.369Z" fill="#463A7C"/>
<path d="M47.6223 164.705L47.9041 164.523L49.4531 165.363L49.1713 165.535L47.6223 164.705Z" fill="#463A7C"/>
<path d="M49.1719 158.181L47.6239 157.35V159.062L49.1719 159.893V158.181Z" fill="#E4DEFF"/>
<path d="M49.4494 158.019L49.172 158.193L49.172 159.889L49.457 159.704L49.4494 158.019Z" fill="#463A7C"/>
<path d="M47.6223 157.355L47.9041 157.173L49.4531 158.013L49.1713 158.185L47.6223 157.355Z" fill="#463A7C"/>
<path d="M49.1719 161.834L47.6239 161.003V162.715L49.1719 163.546V161.834Z" fill="#E4DEFF"/>
<path d="M49.4494 161.672L49.172 161.845L49.172 163.542L49.457 163.357L49.4494 161.672Z" fill="#463A7C"/>
<path d="M47.6223 161.008L47.9041 160.826L49.4531 161.666L49.1713 161.838L47.6223 161.008Z" fill="#463A7C"/>
<path d="M45.7227 152.644L44.1747 151.812V153.525L45.7227 154.356V152.644Z" fill="#E4DEFF"/>
<path d="M46.0002 152.481L45.7228 152.655L45.7228 154.352L46.0078 154.167L46.0002 152.481Z" fill="#463A7C"/>
<path d="M44.1731 151.817L44.4549 151.636L46.0039 152.476L45.7221 152.648L44.1731 151.817Z" fill="#463A7C"/>
<path d="M45.7227 163.65L44.1747 162.818V164.531L45.7227 165.362V163.65Z" fill="#E4DEFF"/>
<path d="M46.0002 163.487L45.7228 163.661L45.7228 165.358L46.0078 165.173L46.0002 163.487Z" fill="#463A7C"/>
<path d="M44.1731 162.823L44.4549 162.642L46.0039 163.481L45.7221 163.654L44.1731 162.823Z" fill="#463A7C"/>
<path d="M45.7227 156.301L44.1747 155.47V157.182L45.7227 158.014V156.301Z" fill="#E4DEFF"/>
<path d="M46.0002 156.139L45.7228 156.313L45.7228 158.01L46.0078 157.825L46.0002 156.139Z" fill="#463A7C"/>
<path d="M44.1731 155.475L44.4549 155.294L46.0039 156.133L45.7221 156.306L44.1731 155.475Z" fill="#463A7C"/>
<path d="M45.7227 159.966L44.1747 159.135V160.847L45.7227 161.679V159.966Z" fill="#E4DEFF"/>
<path d="M46.0002 159.8L45.7228 159.973L45.7228 161.67L46.0078 161.485L46.0002 159.8Z" fill="#463A7C"/>
<path d="M44.1731 159.136L44.4549 158.954L46.0039 159.794L45.7221 159.966L44.1731 159.136Z" fill="#463A7C"/>
<path d="M42.2734 150.769L40.7255 149.938V151.65L42.2734 152.481V150.769Z" fill="#E4DEFF"/>
<path d="M42.5509 150.607L42.2736 150.781L42.2736 152.477L42.5586 152.293L42.5509 150.607Z" fill="#463A7C"/>
<path d="M40.7238 149.943L41.0056 149.761L42.5547 150.601L42.2729 150.774L40.7238 149.943Z" fill="#463A7C"/>
<path d="M42.2734 161.777L40.7255 160.946V162.658L42.2734 163.49V161.777Z" fill="#E4DEFF"/>
<path d="M42.5509 161.615L42.2736 161.789L42.2736 163.485L42.5586 163.301L42.5509 161.615Z" fill="#463A7C"/>
<path d="M40.7238 160.951L41.0056 160.77L42.5547 161.609L42.2729 161.782L40.7238 160.951Z" fill="#463A7C"/>
<path d="M42.2734 154.429L40.7255 153.597V155.31L42.2734 156.141V154.429Z" fill="#E4DEFF"/>
<path d="M42.5509 154.262L42.2736 154.436L42.2736 156.132L42.5586 155.948L42.5509 154.262Z" fill="#463A7C"/>
<path d="M40.7238 153.598L41.0056 153.417L42.5547 154.256L42.2729 154.429L40.7238 153.598Z" fill="#463A7C"/>
<path d="M42.2734 158.09L40.7255 157.259V158.971L42.2734 159.802V158.09Z" fill="#E4DEFF"/>
<path d="M42.5509 157.93L42.2736 158.103L42.2736 159.8L42.5586 159.615L42.5509 157.93Z" fill="#463A7C"/>
<path d="M40.7238 157.264L41.0056 157.082L42.5547 157.922L42.2729 158.094L40.7238 157.264Z" fill="#463A7C"/>
<path d="M49.1719 169.103L47.6239 168.272V169.984L49.1719 170.816V169.103Z" fill="#E4DEFF"/>
<path d="M49.4494 168.941L49.172 169.115L49.172 170.812L49.457 170.627L49.4494 168.941Z" fill="#463A7C"/>
<path d="M47.6223 168.277L47.9041 168.096L49.4531 168.935L49.1713 169.108L47.6223 168.277Z" fill="#463A7C"/>
<path d="M49.1719 180.111L47.6239 179.28V180.992L49.1719 181.824V180.111Z" fill="#E4DEFF"/>
<path d="M49.4494 179.949L49.172 180.123L49.172 181.819L49.457 181.635L49.4494 179.949Z" fill="#463A7C"/>
<path d="M47.6223 179.285L47.9041 179.104L49.4531 179.943L49.1713 180.116L47.6223 179.285Z" fill="#463A7C"/>
<path d="M49.1719 172.761L47.6239 171.93V173.642L49.1719 174.474V172.761Z" fill="#E4DEFF"/>
<path d="M49.4494 172.599L49.172 172.773L49.172 174.469L49.457 174.285L49.4494 172.599Z" fill="#463A7C"/>
<path d="M47.6223 171.935L47.9041 171.754L49.4531 172.593L49.1713 172.766L47.6223 171.935Z" fill="#463A7C"/>
<path d="M49.1719 176.416L47.6239 175.585V177.297L49.1719 178.129V176.416Z" fill="#E4DEFF"/>
<path d="M49.4494 176.254L49.172 176.428L49.172 178.125L49.457 177.94L49.4494 176.254Z" fill="#463A7C"/>
<path d="M47.6223 175.59L47.9041 175.409L49.4531 176.248L49.1713 176.421L47.6223 175.59Z" fill="#463A7C"/>
<path d="M45.7227 167.228L44.1747 166.397V168.109L45.7227 168.941V167.228Z" fill="#E4DEFF"/>
<path d="M46.0002 167.066L45.7228 167.24L45.7228 168.937L46.0078 168.752L46.0002 167.066Z" fill="#463A7C"/>
<path d="M44.1731 166.402L44.4549 166.221L46.0039 167.06L45.7221 167.233L44.1731 166.402Z" fill="#463A7C"/>
<path d="M45.7227 178.239L44.1747 177.408V179.12L45.7227 179.951V178.239Z" fill="#E4DEFF"/>
<path d="M46.0002 178.077L45.7228 178.251L45.7228 179.947L46.0078 179.763L46.0002 178.077Z" fill="#463A7C"/>
<path d="M44.1731 177.413L44.4549 177.232L46.0039 178.071L45.7221 178.244L44.1731 177.413Z" fill="#463A7C"/>
<path d="M45.7227 170.886L44.1747 170.055V171.767L45.7227 172.599V170.886Z" fill="#E4DEFF"/>
<path d="M46.0002 170.724L45.7228 170.898L45.7228 172.594L46.0078 172.409L46.0002 170.724Z" fill="#463A7C"/>
<path d="M44.1731 170.06L44.4549 169.879L46.0039 170.718L45.7221 170.891L44.1731 170.06Z" fill="#463A7C"/>
<path d="M45.7227 174.544L44.1747 173.713V175.425L45.7227 176.257V174.544Z" fill="#E4DEFF"/>
<path d="M46.0002 174.384L45.7228 174.558L45.7228 176.255L46.0078 176.07L46.0002 174.384Z" fill="#463A7C"/>
<path d="M44.1731 173.718L44.4549 173.537L46.0039 174.376L45.7221 174.549L44.1731 173.718Z" fill="#463A7C"/>
<path d="M42.2734 165.352L40.7255 164.521V166.233L42.2734 167.064V165.352Z" fill="#E4DEFF"/>
<path d="M42.5509 165.189L42.2736 165.363L42.2736 167.06L42.5586 166.875L42.5509 165.189Z" fill="#463A7C"/>
<path d="M40.7238 164.525L41.0056 164.344L42.5547 165.184L42.2729 165.356L40.7238 164.525Z" fill="#463A7C"/>
<path d="M42.2734 176.362L40.7255 175.531V177.243L42.2734 178.075V176.362Z" fill="#E4DEFF"/>
<path d="M42.5509 176.2L42.2736 176.374L42.2736 178.07L42.5586 177.886L42.5509 176.2Z" fill="#463A7C"/>
<path d="M40.7238 175.536L41.0056 175.354L42.5547 176.194L42.2729 176.367L40.7238 175.536Z" fill="#463A7C"/>
<path d="M42.2734 169.01L40.7255 168.178V169.891L42.2734 170.722V169.01Z" fill="#E4DEFF"/>
<path d="M42.5509 168.849L42.2736 169.023L42.2736 170.72L42.5586 170.535L42.5509 168.849Z" fill="#463A7C"/>
<path d="M40.7238 168.183L41.0056 168.002L42.5547 168.842L42.2729 169.014L40.7238 168.183Z" fill="#463A7C"/>
<path d="M42.2734 172.668L40.7255 171.836V173.549L42.2734 174.38V172.668Z" fill="#E4DEFF"/>
<path d="M42.5509 172.505L42.2736 172.679L42.2736 174.376L42.5586 174.191L42.5509 172.505Z" fill="#463A7C"/>
<path d="M40.7238 171.841L41.0056 171.66L42.5547 172.5L42.2729 172.672L40.7238 171.841Z" fill="#463A7C"/>
<path d="M57.1094 180.402L60.1045 178.793V185.039L57.1094 186.647V180.402Z" fill="#F4F1FF"/>
<path d="M56.5656 180.085L57.1022 180.422V186.646L56.5508 186.289L56.5656 180.085Z" fill="#463A7C"/>
<path d="M60.105 178.8L59.5597 178.449L56.5625 180.074L57.1077 180.407L60.105 178.8Z" fill="#463A7C"/>
<path d="M70.7656 192.997V162.636L81.5081 156.802V187.167L70.7656 192.997Z" fill="#9681CD"/>
<path d="M70.7656 193V162.729L60.0232 156.896V187.17L70.7656 193Z" fill="#463A7C"/>
<path d="M70.7474 151L81.5025 156.854L70.7474 162.643L60 156.854L70.7474 151Z" fill="#F4F1FF"/>
<path d="M72.9531 163.893L74.2534 163.194V164.633L72.9531 165.331V163.893Z" fill="#F4F1FF"/>
<path d="M72.7213 163.754L72.9543 163.9L72.9543 165.326L72.7148 165.17L72.7213 163.754Z" fill="#463A7C"/>
<path d="M74.2567 163.196L74.02 163.044L72.7188 163.749L72.9555 163.894L74.2567 163.196Z" fill="#463A7C"/>
<path d="M72.9531 173.141L74.2534 172.443V173.881L72.9531 174.58V173.141Z" fill="#F4F1FF"/>
<path d="M72.7213 173.002L72.9543 173.148L72.9543 174.573L72.7148 174.418L72.7213 173.002Z" fill="#463A7C"/>
<path d="M74.2567 172.443L74.02 172.291L72.7188 172.996L72.9555 173.141L74.2567 172.443Z" fill="#463A7C"/>
<path d="M72.9531 166.963L74.2534 166.265V167.703L72.9531 168.402V166.963Z" fill="#F4F1FF"/>
<path d="M72.7213 166.827L72.9543 166.973L72.9543 168.399L72.7148 168.243L72.7213 166.827Z" fill="#463A7C"/>
<path d="M74.2567 166.269L74.02 166.116L72.7188 166.822L72.9555 166.967L74.2567 166.269Z" fill="#463A7C"/>
<path d="M72.9531 170.039L74.2534 169.34V170.779L72.9531 171.477V170.039Z" fill="#F4F1FF"/>
<path d="M72.7213 169.903L72.9543 170.049L72.9543 171.474L72.7148 171.318L72.7213 169.903Z" fill="#463A7C"/>
<path d="M74.2567 169.344L74.02 169.192L72.7188 169.897L72.9555 170.042L74.2567 169.344Z" fill="#463A7C"/>
<path d="M75.8555 162.315L77.1558 161.616V163.055L75.8555 163.753V162.315Z" fill="#F4F1FF"/>
<path d="M75.6236 162.18L75.8566 162.326L75.8566 163.752L75.6172 163.596L75.6236 162.18Z" fill="#463A7C"/>
<path d="M77.159 161.62L76.9223 161.468L75.6211 162.173L75.8578 162.318L77.159 161.62Z" fill="#463A7C"/>
<path d="M75.8555 171.551L77.1558 170.853V172.291L75.8555 172.989V171.551Z" fill="#F4F1FF"/>
<path d="M75.6236 171.415L75.8566 171.561L75.8566 172.986L75.6172 172.831L75.6236 171.415Z" fill="#463A7C"/>
<path d="M77.159 170.856L76.9223 170.704L75.6211 171.409L75.8578 171.554L77.159 170.856Z" fill="#463A7C"/>
<path d="M75.8555 165.395L77.1558 164.697V166.135L75.8555 166.834V165.395Z" fill="#F4F1FF"/>
<path d="M75.6236 165.259L75.8566 165.405L75.8566 166.83L75.6172 166.675L75.6236 165.259Z" fill="#463A7C"/>
<path d="M77.159 164.701L76.9223 164.548L75.6211 165.254L75.8578 165.398L77.159 164.701Z" fill="#463A7C"/>
<path d="M75.8555 168.465L77.1558 167.766V169.205L75.8555 169.903V168.465Z" fill="#F4F1FF"/>
<path d="M75.6236 168.329L75.8566 168.475L75.8566 169.9L75.6172 169.745L75.6236 168.329Z" fill="#463A7C"/>
<path d="M77.159 167.77L76.9223 167.618L75.6211 168.323L75.8578 168.468L77.159 167.77Z" fill="#463A7C"/>
<path d="M78.7461 160.743L80.0464 160.045V161.483L78.7461 162.181V160.743Z" fill="#F4F1FF"/>
<path d="M78.5142 160.607L78.7472 160.753L78.7472 162.178L78.5078 162.023L78.5142 160.607Z" fill="#463A7C"/>
<path d="M80.0496 160.048L79.8129 159.896L78.5117 160.601L78.7484 160.746L80.0496 160.048Z" fill="#463A7C"/>
<path d="M78.75 169.994L80.0503 169.295V170.734L78.75 171.432V169.994Z" fill="#F4F1FF"/>
<path d="M78.5142 169.854L78.7472 170L78.7472 171.425L78.5078 171.27L78.5142 169.854Z" fill="#463A7C"/>
<path d="M80.0496 169.295L79.8129 169.143L78.5117 169.848L78.7484 169.993L80.0496 169.295Z" fill="#463A7C"/>
<path d="M78.75 163.816L80.0503 163.117V164.556L78.75 165.254V163.816Z" fill="#F4F1FF"/>
<path d="M78.5142 163.68L78.7472 163.826L78.7472 165.251L78.5078 165.096L78.5142 163.68Z" fill="#463A7C"/>
<path d="M80.0496 163.121L79.8129 162.969L78.5117 163.674L78.7484 163.819L80.0496 163.121Z" fill="#463A7C"/>
<path d="M78.7461 166.889L80.0464 166.191V167.629L78.7461 168.327V166.889Z" fill="#F4F1FF"/>
<path d="M78.5142 166.753L78.7472 166.899L78.7472 168.324L78.5078 168.169L78.5142 166.753Z" fill="#463A7C"/>
<path d="M80.0496 166.195L79.8129 166.042L78.5117 166.748L78.7484 166.892L80.0496 166.195Z" fill="#463A7C"/>
<path d="M72.9531 176.446L74.2534 175.748V177.186L72.9531 177.885V176.446Z" fill="#F4F1FF"/>
<path d="M72.7213 176.307L72.9543 176.453L72.9543 177.878L72.7148 177.723L72.7213 176.307Z" fill="#463A7C"/>
<path d="M74.2567 175.748L74.02 175.596L72.7188 176.301L72.9555 176.446L74.2567 175.748Z" fill="#463A7C"/>
<path d="M72.9531 179.514L74.2534 178.816V180.254L72.9531 180.952V179.514Z" fill="#F4F1FF"/>
<path d="M72.7213 179.378L72.9543 179.524L72.9543 180.949L72.7148 180.794L72.7213 179.378Z" fill="#463A7C"/>
<path d="M74.2567 178.819L74.02 178.667L72.7188 179.372L72.9555 179.517L74.2567 178.819Z" fill="#463A7C"/>
<path d="M72.9531 182.587L74.2534 181.889V183.327L72.9531 184.025V182.587Z" fill="#F4F1FF"/>
<path d="M72.7213 182.447L72.9543 182.593L72.9543 184.018L72.7148 183.863L72.7213 182.447Z" fill="#463A7C"/>
<path d="M74.2567 181.889L74.02 181.736L72.7188 182.442L72.9555 182.586L74.2567 181.889Z" fill="#463A7C"/>
<path d="M75.8555 174.865L77.1558 174.167V175.605L75.8555 176.304V174.865Z" fill="#F4F1FF"/>
<path d="M75.6236 174.729L75.8566 174.875L75.8566 176.3L75.6172 176.145L75.6236 174.729Z" fill="#463A7C"/>
<path d="M77.159 174.17L76.9223 174.018L75.6211 174.723L75.8578 174.868L77.159 174.17Z" fill="#463A7C"/>
<path d="M75.8555 177.937L77.1558 177.238V178.677L75.8555 179.375V177.937Z" fill="#F4F1FF"/>
<path d="M75.6236 177.801L75.8566 177.947L75.8566 179.372L75.6172 179.216L75.6236 177.801Z" fill="#463A7C"/>
<path d="M77.159 177.242L76.9223 177.09L75.6211 177.795L75.8578 177.94L77.159 177.242Z" fill="#463A7C"/>
<path d="M75.8555 181.006L77.1558 180.308V181.746L75.8555 182.444V181.006Z" fill="#F4F1FF"/>
<path d="M75.6236 180.87L75.8566 181.016L75.8566 182.441L75.6172 182.286L75.6236 180.87Z" fill="#463A7C"/>
<path d="M77.159 180.311L76.9223 180.159L75.6211 180.864L75.8578 181.009L77.159 180.311Z" fill="#463A7C"/>
<path d="M78.7461 173.293L80.0464 172.595V174.033L78.7461 174.732V173.293Z" fill="#F4F1FF"/>
<path d="M78.5142 173.154L78.7472 173.3L78.7472 174.725L78.5078 174.569L78.5142 173.154Z" fill="#463A7C"/>
<path d="M80.0496 172.595L79.8129 172.443L78.5117 173.148L78.7484 173.293L80.0496 172.595Z" fill="#463A7C"/>
<path d="M78.7461 176.363L80.0464 175.664V177.103L78.7461 177.801V176.363Z" fill="#F4F1FF"/>
<path d="M78.5142 176.227L78.7472 176.373L78.7472 177.798L78.5078 177.642L78.5142 176.227Z" fill="#463A7C"/>
<path d="M80.0496 175.668L79.8129 175.516L78.5117 176.221L78.7484 176.366L80.0496 175.668Z" fill="#463A7C"/>
<path d="M78.7461 179.438L80.0464 178.739V180.178L78.7461 180.876V179.438Z" fill="#F4F1FF"/>
<path d="M78.5142 179.298L78.7472 179.444L78.7472 180.869L78.5078 180.714L78.5142 179.298Z" fill="#463A7C"/>
<path d="M80.0496 178.739L79.8129 178.587L78.5117 179.292L78.7484 179.437L80.0496 178.739Z" fill="#463A7C"/>
<path d="M68.8164 164.036L67.5161 163.337V164.776L68.8164 165.474V164.036Z" fill="#E4DEFF"/>
<path d="M69.0483 163.9L68.8153 164.046L68.8153 165.471L69.0547 165.316L69.0483 163.9Z" fill="#463A7C"/>
<path d="M67.5129 163.341L67.7496 163.189L69.0508 163.894L68.8141 164.039L67.5129 163.341Z" fill="#463A7C"/>
<path d="M68.8164 173.287L67.5161 172.589V174.027L68.8164 174.725V173.287Z" fill="#E4DEFF"/>
<path d="M69.0483 173.149L68.8153 173.295L68.8153 174.72L69.0547 174.565L69.0483 173.149Z" fill="#463A7C"/>
<path d="M67.5129 172.591L67.7496 172.438L69.0508 173.144L68.8141 173.288L67.5129 172.591Z" fill="#463A7C"/>
<path d="M68.8164 167.113L67.5161 166.415V167.853L68.8164 168.551V167.113Z" fill="#E4DEFF"/>
<path d="M69.0483 166.977L68.8153 167.123L68.8153 168.548L69.0547 168.393L69.0483 166.977Z" fill="#463A7C"/>
<path d="M67.5129 166.419L67.7496 166.266L69.0508 166.971L68.8141 167.116L67.5129 166.419Z" fill="#463A7C"/>
<path d="M68.8164 170.18L67.5161 169.482V170.92L68.8164 171.619V170.18Z" fill="#E4DEFF"/>
<path d="M69.0483 170.044L68.8153 170.19L68.8153 171.616L69.0547 171.46L69.0483 170.044Z" fill="#463A7C"/>
<path d="M67.5129 169.486L67.7496 169.333L69.0508 170.039L68.8141 170.184L67.5129 169.486Z" fill="#463A7C"/>
<path d="M65.918 162.462L64.6177 161.764V163.202L65.918 163.9V162.462Z" fill="#E4DEFF"/>
<path d="M66.1498 162.326L65.9168 162.472L65.9168 163.897L66.1562 163.742L66.1498 162.326Z" fill="#463A7C"/>
<path d="M64.6144 161.768L64.8511 161.615L66.1523 162.321L65.9156 162.465L64.6144 161.768Z" fill="#463A7C"/>
<path d="M65.918 171.708L64.6177 171.01V172.448L65.918 173.146V171.708Z" fill="#E4DEFF"/>
<path d="M66.1498 171.572L65.9168 171.718L65.9168 173.143L66.1562 172.988L66.1498 171.572Z" fill="#463A7C"/>
<path d="M64.6144 171.013L64.8511 170.861L66.1523 171.566L65.9156 171.711L64.6144 171.013Z" fill="#463A7C"/>
<path d="M65.918 165.533L64.6177 164.835V166.274L65.918 166.972V165.533Z" fill="#E4DEFF"/>
<path d="M66.1498 165.397L65.9168 165.543L65.9168 166.969L66.1562 166.813L66.1498 165.397Z" fill="#463A7C"/>
<path d="M64.6144 164.839L64.8511 164.687L66.1523 165.392L65.9156 165.537L64.6144 164.839Z" fill="#463A7C"/>
<path d="M65.918 168.609L64.6177 167.91V169.349L65.918 170.047V168.609Z" fill="#E4DEFF"/>
<path d="M66.1498 168.471L65.9168 168.617L65.9168 170.042L66.1562 169.887L66.1498 168.471Z" fill="#463A7C"/>
<path d="M64.6144 167.912L64.8511 167.76L66.1523 168.465L65.9156 168.61L64.6144 167.912Z" fill="#463A7C"/>
<path d="M63.0234 160.885L61.7231 160.187V161.625L63.0234 162.323V160.885Z" fill="#E4DEFF"/>
<path d="M63.2553 160.749L63.0223 160.895L63.0223 162.32L63.2617 162.165L63.2553 160.749Z" fill="#463A7C"/>
<path d="M61.7199 160.19L61.9566 160.038L63.2578 160.743L63.0211 160.888L61.7199 160.19Z" fill="#463A7C"/>
<path d="M63.0234 170.13L61.7231 169.432V170.87L63.0234 171.568V170.13Z" fill="#E4DEFF"/>
<path d="M63.2553 169.994L63.0223 170.14L63.0223 171.565L63.2617 171.41L63.2553 169.994Z" fill="#463A7C"/>
<path d="M61.7199 169.436L61.9566 169.283L63.2578 169.988L63.0211 170.133L61.7199 169.436Z" fill="#463A7C"/>
<path d="M63.0234 163.958L61.7231 163.26V164.698L63.0234 165.396V163.958Z" fill="#E4DEFF"/>
<path d="M63.2553 163.82L63.0223 163.966L63.0223 165.391L63.2617 165.236L63.2553 163.82Z" fill="#463A7C"/>
<path d="M61.7199 163.262L61.9566 163.109L63.2578 163.814L63.0211 163.959L61.7199 163.262Z" fill="#463A7C"/>
<path d="M63.0234 167.035L61.7231 166.337V167.775L63.0234 168.473V167.035Z" fill="#E4DEFF"/>
<path d="M63.2553 166.901L63.0223 167.047L63.0223 168.472L63.2617 168.317L63.2553 166.901Z" fill="#463A7C"/>
<path d="M61.7199 166.34L61.9566 166.188L63.2578 166.893L63.0211 167.038L61.7199 166.34Z" fill="#463A7C"/>
<path d="M68.8164 176.286L67.5161 175.588V177.026L68.8164 177.725V176.286Z" fill="#E4DEFF"/>
<path d="M69.0483 176.15L68.8153 176.296L68.8153 177.721L69.0547 177.566L69.0483 176.15Z" fill="#463A7C"/>
<path d="M67.5129 175.592L67.7496 175.439L69.0508 176.145L68.8141 176.29L67.5129 175.592Z" fill="#463A7C"/>
<path d="M68.8164 179.361L67.5161 178.663V180.101L68.8164 180.8V179.361Z" fill="#E4DEFF"/>
<path d="M69.0483 179.225L68.8153 179.371L68.8153 180.796L69.0547 180.641L69.0483 179.225Z" fill="#463A7C"/>
<path d="M67.5129 178.667L67.7496 178.514L69.0508 179.22L68.8141 179.365L67.5129 178.667Z" fill="#463A7C"/>
<path d="M68.8164 182.435L67.5161 181.736V183.175L68.8164 183.873V182.435Z" fill="#E4DEFF"/>
<path d="M69.0483 182.299L68.8153 182.445L68.8153 183.87L69.0547 183.714L69.0483 182.299Z" fill="#463A7C"/>
<path d="M67.5129 181.74L67.7496 181.588L69.0508 182.293L68.8141 182.438L67.5129 181.74Z" fill="#463A7C"/>
<path d="M65.918 174.716L64.6177 174.018V175.456L65.918 176.154V174.716Z" fill="#E4DEFF"/>
<path d="M66.1498 174.58L65.9168 174.726L65.9168 176.151L66.1562 175.996L66.1498 174.58Z" fill="#463A7C"/>
<path d="M64.6144 174.022L64.8511 173.869L66.1523 174.574L65.9156 174.719L64.6144 174.022Z" fill="#463A7C"/>
<path d="M65.918 183.964L64.6177 183.266V184.704L65.918 185.402V183.964Z" fill="#E4DEFF"/>
<path d="M66.1498 183.828L65.9168 183.974L65.9168 185.399L66.1562 185.244L66.1498 183.828Z" fill="#463A7C"/>
<path d="M64.6144 183.269L64.8511 183.117L66.1523 183.822L65.9156 183.967L64.6144 183.269Z" fill="#463A7C"/>
<path d="M65.918 177.788L64.6177 177.089V178.528L65.918 179.226V177.788Z" fill="#E4DEFF"/>
<path d="M66.1498 177.652L65.9168 177.798L65.9168 179.223L66.1562 179.068L66.1498 177.652Z" fill="#463A7C"/>
<path d="M64.6144 177.093L64.8511 176.941L66.1523 177.646L65.9156 177.791L64.6144 177.093Z" fill="#463A7C"/>
<path d="M65.918 180.859L64.6177 180.161V181.599L65.918 182.297V180.859Z" fill="#E4DEFF"/>
<path d="M66.1498 180.725L65.9168 180.871L65.9168 182.296L66.1562 182.141L66.1498 180.725Z" fill="#463A7C"/>
<path d="M64.6144 180.164L64.8511 180.012L66.1523 180.717L65.9156 180.862L64.6144 180.164Z" fill="#463A7C"/>
<path d="M63.0234 173.139L61.7231 172.441V173.879L63.0234 174.577V173.139Z" fill="#E4DEFF"/>
<path d="M63.2553 173.003L63.0223 173.149L63.0223 174.574L63.2617 174.419L63.2553 173.003Z" fill="#463A7C"/>
<path d="M61.7199 172.444L61.9566 172.292L63.2578 172.997L63.0211 173.142L61.7199 172.444Z" fill="#463A7C"/>
<path d="M63.0234 182.386L61.7231 181.688V183.126L63.0234 183.824V182.386Z" fill="#E4DEFF"/>
<path d="M63.2553 182.25L63.0223 182.396L63.0223 183.821L63.2617 183.666L63.2553 182.25Z" fill="#463A7C"/>
<path d="M61.7199 181.691L61.9566 181.539L63.2578 182.244L63.0211 182.389L61.7199 181.691Z" fill="#463A7C"/>
<path d="M63.0234 176.212L61.7231 175.514V176.952L63.0234 177.65V176.212Z" fill="#E4DEFF"/>
<path d="M63.2553 176.078L63.0223 176.224L63.0223 177.649L63.2617 177.494L63.2553 176.078Z" fill="#463A7C"/>
<path d="M61.7199 175.517L61.9566 175.365L63.2578 176.07L63.0211 176.215L61.7199 175.517Z" fill="#463A7C"/>
<path d="M63.0234 179.283L61.7231 178.585V180.023L63.0234 180.722V179.283Z" fill="#E4DEFF"/>
<path d="M63.2553 179.147L63.0223 179.293L63.0223 180.718L63.2617 180.563L63.2553 179.147Z" fill="#463A7C"/>
<path d="M61.7199 178.589L61.9566 178.436L63.2578 179.142L63.0211 179.286L61.7199 178.589Z" fill="#463A7C"/>
<path d="M33.7656 196.997V166.636L44.5081 160.802V191.167L33.7656 196.997Z" fill="#9681CD"/>
<path d="M33.7656 197V166.729L23.0232 160.896V191.17L33.7656 197Z" fill="#463A7C"/>
<path d="M33.7474 155L44.5025 160.854L33.7474 166.643L23 160.854L33.7474 155Z" fill="#F4F1FF"/>
<path d="M35.9531 167.893L37.2534 167.194V168.633L35.9531 169.331V167.893Z" fill="#F4F1FF"/>
<path d="M35.7213 167.754L35.9543 167.9L35.9543 169.326L35.7148 169.17L35.7213 167.754Z" fill="#463A7C"/>
<path d="M37.2567 167.196L37.02 167.044L35.7188 167.749L35.9555 167.894L37.2567 167.196Z" fill="#463A7C"/>
<path d="M35.9531 177.141L37.2534 176.443V177.881L35.9531 178.58V177.141Z" fill="#F4F1FF"/>
<path d="M35.7213 177.002L35.9543 177.148L35.9543 178.573L35.7148 178.418L35.7213 177.002Z" fill="#463A7C"/>
<path d="M37.2567 176.443L37.02 176.291L35.7188 176.996L35.9555 177.141L37.2567 176.443Z" fill="#463A7C"/>
<path d="M35.9531 170.963L37.2534 170.265V171.703L35.9531 172.402V170.963Z" fill="#F4F1FF"/>
<path d="M35.7213 170.827L35.9543 170.973L35.9543 172.399L35.7148 172.243L35.7213 170.827Z" fill="#463A7C"/>
<path d="M37.2567 170.269L37.02 170.116L35.7188 170.822L35.9555 170.967L37.2567 170.269Z" fill="#463A7C"/>
<path d="M35.9531 174.039L37.2534 173.34V174.779L35.9531 175.477V174.039Z" fill="#F4F1FF"/>
<path d="M35.7213 173.903L35.9543 174.049L35.9543 175.474L35.7148 175.318L35.7213 173.903Z" fill="#463A7C"/>
<path d="M37.2567 173.344L37.02 173.192L35.7188 173.897L35.9555 174.042L37.2567 173.344Z" fill="#463A7C"/>
<path d="M38.8555 166.315L40.1558 165.616V167.055L38.8555 167.753V166.315Z" fill="#F4F1FF"/>
<path d="M38.6236 166.18L38.8566 166.326L38.8566 167.752L38.6172 167.596L38.6236 166.18Z" fill="#463A7C"/>
<path d="M40.159 165.62L39.9223 165.468L38.6211 166.173L38.8578 166.318L40.159 165.62Z" fill="#463A7C"/>
<path d="M38.8555 175.551L40.1558 174.853V176.291L38.8555 176.989V175.551Z" fill="#F4F1FF"/>
<path d="M38.6236 175.415L38.8566 175.561L38.8566 176.986L38.6172 176.831L38.6236 175.415Z" fill="#463A7C"/>
<path d="M40.159 174.856L39.9223 174.704L38.6211 175.409L38.8578 175.554L40.159 174.856Z" fill="#463A7C"/>
<path d="M38.8555 169.395L40.1558 168.697V170.135L38.8555 170.834V169.395Z" fill="#F4F1FF"/>
<path d="M38.6236 169.259L38.8566 169.405L38.8566 170.83L38.6172 170.675L38.6236 169.259Z" fill="#463A7C"/>
<path d="M40.159 168.701L39.9223 168.548L38.6211 169.254L38.8578 169.398L40.159 168.701Z" fill="#463A7C"/>
<path d="M38.8555 172.465L40.1558 171.766V173.205L38.8555 173.903V172.465Z" fill="#F4F1FF"/>
<path d="M38.6236 172.329L38.8566 172.475L38.8566 173.9L38.6172 173.745L38.6236 172.329Z" fill="#463A7C"/>
<path d="M40.159 171.77L39.9223 171.618L38.6211 172.323L38.8578 172.468L40.159 171.77Z" fill="#463A7C"/>
<path d="M41.7461 164.743L43.0464 164.045V165.483L41.7461 166.181V164.743Z" fill="#F4F1FF"/>
<path d="M41.5142 164.607L41.7472 164.753L41.7472 166.178L41.5078 166.023L41.5142 164.607Z" fill="#463A7C"/>
<path d="M43.0496 164.048L42.8129 163.896L41.5117 164.601L41.7484 164.746L43.0496 164.048Z" fill="#463A7C"/>
<path d="M41.75 173.994L43.0503 173.295V174.734L41.75 175.432V173.994Z" fill="#F4F1FF"/>
<path d="M41.5142 173.854L41.7472 174L41.7472 175.425L41.5078 175.27L41.5142 173.854Z" fill="#463A7C"/>
<path d="M43.0496 173.295L42.8129 173.143L41.5117 173.848L41.7484 173.993L43.0496 173.295Z" fill="#463A7C"/>
<path d="M41.75 167.816L43.0503 167.117V168.556L41.75 169.254V167.816Z" fill="#F4F1FF"/>
<path d="M41.5142 167.68L41.7472 167.826L41.7472 169.251L41.5078 169.096L41.5142 167.68Z" fill="#463A7C"/>
<path d="M43.0496 167.121L42.8129 166.969L41.5117 167.674L41.7484 167.819L43.0496 167.121Z" fill="#463A7C"/>
<path d="M41.7461 170.889L43.0464 170.191V171.629L41.7461 172.327V170.889Z" fill="#F4F1FF"/>
<path d="M41.5142 170.753L41.7472 170.899L41.7472 172.324L41.5078 172.169L41.5142 170.753Z" fill="#463A7C"/>
<path d="M43.0496 170.195L42.8129 170.042L41.5117 170.748L41.7484 170.892L43.0496 170.195Z" fill="#463A7C"/>
<path d="M35.9531 180.446L37.2534 179.748V181.186L35.9531 181.885V180.446Z" fill="#F4F1FF"/>
<path d="M35.7213 180.307L35.9543 180.453L35.9543 181.878L35.7148 181.723L35.7213 180.307Z" fill="#463A7C"/>
<path d="M37.2567 179.748L37.02 179.596L35.7188 180.301L35.9555 180.446L37.2567 179.748Z" fill="#463A7C"/>
<path d="M35.9531 183.514L37.2534 182.816V184.254L35.9531 184.952V183.514Z" fill="#F4F1FF"/>
<path d="M35.7213 183.378L35.9543 183.524L35.9543 184.949L35.7148 184.794L35.7213 183.378Z" fill="#463A7C"/>
<path d="M37.2567 182.819L37.02 182.667L35.7188 183.372L35.9555 183.517L37.2567 182.819Z" fill="#463A7C"/>
<path d="M38.8555 178.865L40.1558 178.167V179.605L38.8555 180.304V178.865Z" fill="#F4F1FF"/>
<path d="M38.6236 178.729L38.8566 178.875L38.8566 180.3L38.6172 180.145L38.6236 178.729Z" fill="#463A7C"/>
<path d="M40.159 178.17L39.9223 178.018L38.6211 178.723L38.8578 178.868L40.159 178.17Z" fill="#463A7C"/>
<path d="M38.8555 181.937L40.1558 181.238V182.677L38.8555 183.375V181.937Z" fill="#F4F1FF"/>
<path d="M38.6236 181.801L38.8566 181.947L38.8566 183.372L38.6172 183.216L38.6236 181.801Z" fill="#463A7C"/>
<path d="M40.159 181.242L39.9223 181.09L38.6211 181.795L38.8578 181.94L40.159 181.242Z" fill="#463A7C"/>
<path d="M41.7461 177.293L43.0464 176.595V178.033L41.7461 178.732V177.293Z" fill="#F4F1FF"/>
<path d="M41.5142 177.154L41.7472 177.3L41.7472 178.725L41.5078 178.569L41.5142 177.154Z" fill="#463A7C"/>
<path d="M43.0496 176.595L42.8129 176.443L41.5117 177.148L41.7484 177.293L43.0496 176.595Z" fill="#463A7C"/>
<path d="M41.7461 180.363L43.0464 179.664V181.103L41.7461 181.801V180.363Z" fill="#F4F1FF"/>
<path d="M41.5142 180.227L41.7472 180.373L41.7472 181.798L41.5078 181.642L41.5142 180.227Z" fill="#463A7C"/>
<path d="M43.0496 179.668L42.8129 179.516L41.5117 180.221L41.7484 180.366L43.0496 179.668Z" fill="#463A7C"/>
<path d="M41.7461 183.438L43.0464 182.739V184.178L41.7461 184.876V183.438Z" fill="#F4F1FF"/>
<path d="M41.5142 183.298L41.7472 183.444L41.7472 184.869L41.5078 184.714L41.5142 183.298Z" fill="#463A7C"/>
<path d="M43.0496 182.739L42.8129 182.587L41.5117 183.292L41.7484 183.437L43.0496 182.739Z" fill="#463A7C"/>
<path d="M31.8164 168.036L30.5161 167.337V168.776L31.8164 169.474V168.036Z" fill="#E4DEFF"/>
<path d="M32.0483 167.9L31.8153 168.046L31.8153 169.471L32.0547 169.316L32.0483 167.9Z" fill="#463A7C"/>
<path d="M30.5129 167.341L30.7496 167.189L32.0508 167.894L31.8141 168.039L30.5129 167.341Z" fill="#463A7C"/>
<path d="M31.8164 177.287L30.5161 176.589V178.027L31.8164 178.725V177.287Z" fill="#E4DEFF"/>
<path d="M32.0483 177.149L31.8153 177.295L31.8153 178.72L32.0547 178.565L32.0483 177.149Z" fill="#463A7C"/>
<path d="M30.5129 176.591L30.7496 176.438L32.0508 177.144L31.8141 177.288L30.5129 176.591Z" fill="#463A7C"/>
<path d="M31.8164 171.113L30.5161 170.415V171.853L31.8164 172.551V171.113Z" fill="#E4DEFF"/>
<path d="M32.0483 170.977L31.8153 171.123L31.8153 172.548L32.0547 172.393L32.0483 170.977Z" fill="#463A7C"/>
<path d="M30.5129 170.419L30.7496 170.266L32.0508 170.971L31.8141 171.116L30.5129 170.419Z" fill="#463A7C"/>
<path d="M31.8164 174.18L30.5161 173.482V174.92L31.8164 175.619V174.18Z" fill="#E4DEFF"/>
<path d="M32.0483 174.044L31.8153 174.19L31.8153 175.616L32.0547 175.46L32.0483 174.044Z" fill="#463A7C"/>
<path d="M30.5129 173.486L30.7496 173.333L32.0508 174.039L31.8141 174.184L30.5129 173.486Z" fill="#463A7C"/>
<path d="M28.918 166.462L27.6177 165.764V167.202L28.918 167.9V166.462Z" fill="#E4DEFF"/>
<path d="M29.1498 166.326L28.9168 166.472L28.9168 167.897L29.1562 167.742L29.1498 166.326Z" fill="#463A7C"/>
<path d="M27.6144 165.768L27.8511 165.615L29.1523 166.321L28.9156 166.465L27.6144 165.768Z" fill="#463A7C"/>
<path d="M28.918 175.708L27.6177 175.01V176.448L28.918 177.146V175.708Z" fill="#E4DEFF"/>
<path d="M29.1498 175.572L28.9168 175.718L28.9168 177.143L29.1562 176.988L29.1498 175.572Z" fill="#463A7C"/>
<path d="M27.6144 175.013L27.8511 174.861L29.1523 175.566L28.9156 175.711L27.6144 175.013Z" fill="#463A7C"/>
<path d="M28.918 169.533L27.6177 168.835V170.274L28.918 170.972V169.533Z" fill="#E4DEFF"/>
<path d="M29.1498 169.397L28.9168 169.543L28.9168 170.969L29.1562 170.813L29.1498 169.397Z" fill="#463A7C"/>
<path d="M27.6144 168.839L27.8511 168.687L29.1523 169.392L28.9156 169.537L27.6144 168.839Z" fill="#463A7C"/>
<path d="M28.918 172.609L27.6177 171.91V173.349L28.918 174.047V172.609Z" fill="#E4DEFF"/>
<path d="M29.1498 172.471L28.9168 172.617L28.9168 174.042L29.1562 173.887L29.1498 172.471Z" fill="#463A7C"/>
<path d="M27.6144 171.912L27.8511 171.76L29.1523 172.465L28.9156 172.61L27.6144 171.912Z" fill="#463A7C"/>
<path d="M26.0234 164.885L24.7231 164.187V165.625L26.0234 166.323V164.885Z" fill="#E4DEFF"/>
<path d="M26.2553 164.749L26.0223 164.895L26.0223 166.32L26.2617 166.165L26.2553 164.749Z" fill="#463A7C"/>
<path d="M24.7199 164.19L24.9566 164.038L26.2578 164.743L26.0211 164.888L24.7199 164.19Z" fill="#463A7C"/>
<path d="M26.0234 174.13L24.7231 173.432V174.87L26.0234 175.568V174.13Z" fill="#E4DEFF"/>
<path d="M26.2553 173.994L26.0223 174.14L26.0223 175.565L26.2617 175.41L26.2553 173.994Z" fill="#463A7C"/>
<path d="M24.7199 173.436L24.9566 173.283L26.2578 173.988L26.0211 174.133L24.7199 173.436Z" fill="#463A7C"/>
<path d="M26.0234 167.958L24.7231 167.26V168.698L26.0234 169.396V167.958Z" fill="#E4DEFF"/>
<path d="M26.2553 167.82L26.0223 167.966L26.0223 169.391L26.2617 169.236L26.2553 167.82Z" fill="#463A7C"/>
<path d="M24.7199 167.262L24.9566 167.109L26.2578 167.814L26.0211 167.959L24.7199 167.262Z" fill="#463A7C"/>
<path d="M26.0234 171.035L24.7231 170.337V171.775L26.0234 172.473V171.035Z" fill="#E4DEFF"/>
<path d="M26.2553 170.901L26.0223 171.047L26.0223 172.472L26.2617 172.317L26.2553 170.901Z" fill="#463A7C"/>
<path d="M24.7199 170.34L24.9566 170.188L26.2578 170.893L26.0211 171.038L24.7199 170.34Z" fill="#463A7C"/>
<path d="M31.8164 180.286L30.5161 179.588V181.026L31.8164 181.725V180.286Z" fill="#E4DEFF"/>
<path d="M32.0483 180.15L31.8153 180.296L31.8153 181.721L32.0547 181.566L32.0483 180.15Z" fill="#463A7C"/>
<path d="M30.5129 179.592L30.7496 179.439L32.0508 180.145L31.8141 180.29L30.5129 179.592Z" fill="#463A7C"/>
<path d="M31.8164 183.361L30.5161 182.663V184.101L31.8164 184.8V183.361Z" fill="#E4DEFF"/>
<path d="M32.0483 183.225L31.8153 183.371L31.8153 184.796L32.0547 184.641L32.0483 183.225Z" fill="#463A7C"/>
<path d="M30.5129 182.667L30.7496 182.514L32.0508 183.22L31.8141 183.365L30.5129 182.667Z" fill="#463A7C"/>
<path d="M28.918 178.716L27.6177 178.018V179.456L28.918 180.154V178.716Z" fill="#E4DEFF"/>
<path d="M29.1498 178.58L28.9168 178.726L28.9168 180.151L29.1562 179.996L29.1498 178.58Z" fill="#463A7C"/>
<path d="M27.6144 178.022L27.8511 177.869L29.1523 178.574L28.9156 178.719L27.6144 178.022Z" fill="#463A7C"/>
<path d="M28.918 181.788L27.6177 181.089V182.528L28.918 183.226V181.788Z" fill="#E4DEFF"/>
<path d="M29.1498 181.652L28.9168 181.798L28.9168 183.223L29.1562 183.068L29.1498 181.652Z" fill="#463A7C"/>
<path d="M27.6144 181.093L27.8511 180.941L29.1523 181.646L28.9156 181.791L27.6144 181.093Z" fill="#463A7C"/>
<path d="M26.0234 177.139L24.7231 176.441V177.879L26.0234 178.577V177.139Z" fill="#E4DEFF"/>
<path d="M26.2553 177.003L26.0223 177.149L26.0223 178.574L26.2617 178.419L26.2553 177.003Z" fill="#463A7C"/>
<path d="M24.7199 176.444L24.9566 176.292L26.2578 176.997L26.0211 177.142L24.7199 176.444Z" fill="#463A7C"/>
<path d="M26.0234 180.212L24.7231 179.514V180.952L26.0234 181.65V180.212Z" fill="#E4DEFF"/>
<path d="M26.2553 180.078L26.0223 180.224L26.0223 181.649L26.2617 181.494L26.2553 180.078Z" fill="#463A7C"/>
<path d="M24.7199 179.517L24.9566 179.365L26.2578 180.07L26.0211 180.215L24.7199 179.517Z" fill="#463A7C"/>
<path d="M26.0234 183.283L24.7231 182.585V184.023L26.0234 184.722V183.283Z" fill="#E4DEFF"/>
<path d="M26.2553 183.147L26.0223 183.293L26.0223 184.718L26.2617 184.563L26.2553 183.147Z" fill="#463A7C"/>
<path d="M24.7199 182.589L24.9566 182.436L26.2578 183.142L26.0211 183.286L24.7199 182.589Z" fill="#463A7C"/>
</g>
<rect x="16" y="84" width="72" height="100" rx="8" stroke="#F4F4F4"/>
</g>
<g filter="url(#filter1_d_798_63222)">
<g clip-path="url(#clip2_798_63222)">
<rect x="101.332" y="84" width="72" height="100" rx="8" fill="white"/>
<path d="M123.963 107V97.692H127.369C129.163 97.692 130.268 98.602 130.268 100.097C130.268 101.189 129.787 101.93 128.825 102.307C129.904 102.658 130.45 103.412 130.45 104.556C130.45 106.051 129.332 107 127.564 107H123.963ZM127.356 98.524H124.899V101.93H127.473C128.643 101.93 129.306 101.28 129.306 100.175C129.306 99.135 128.604 98.524 127.356 98.524ZM127.564 102.749H124.899V106.155H127.564C128.786 106.155 129.501 105.518 129.501 104.439C129.501 103.386 128.773 102.749 127.564 102.749ZM134.648 107.156C132.802 107.156 131.567 105.83 131.567 103.854C131.567 101.891 132.789 100.539 134.583 100.539C136.286 100.539 137.443 101.748 137.443 103.529V103.971H132.438C132.503 105.505 133.309 106.389 134.661 106.389C135.688 106.389 136.351 105.947 136.585 105.115H137.443C137.105 106.441 136.13 107.156 134.648 107.156ZM134.583 101.306C133.4 101.306 132.62 102.086 132.464 103.321H136.546C136.546 102.112 135.766 101.306 134.583 101.306ZM141.412 107.156C139.579 107.156 138.5 105.752 138.5 103.867C138.5 101.969 139.579 100.539 141.451 100.539C142.491 100.539 143.323 100.994 143.765 101.904V97.523H144.662V107H143.882L143.791 105.713C143.349 106.688 142.465 107.156 141.412 107.156ZM141.568 106.337C142.946 106.337 143.752 105.297 143.752 103.841C143.752 102.398 142.946 101.345 141.568 101.345C140.203 101.345 139.41 102.398 139.41 103.841C139.41 105.297 140.203 106.337 141.568 106.337ZM146.066 105.232H146.924C146.924 105.96 147.47 106.415 148.354 106.415C149.329 106.415 149.901 105.999 149.901 105.323C149.901 104.803 149.641 104.504 148.9 104.322L147.821 104.049C146.729 103.776 146.196 103.204 146.196 102.346C146.196 101.241 147.119 100.539 148.471 100.539C149.797 100.539 150.655 101.267 150.694 102.437H149.823C149.797 101.709 149.29 101.28 148.445 101.28C147.561 101.28 147.067 101.657 147.067 102.333C147.067 102.814 147.405 103.152 148.094 103.321L149.173 103.594C150.265 103.867 150.759 104.374 150.759 105.284C150.759 106.415 149.797 107.156 148.367 107.156C146.95 107.156 146.066 106.402 146.066 105.232Z" fill="#6F6F6F"/>
<path d="M129.958 122.932H128.712V121.77L131.344 119.348H127.088V117.766H133.584V119.194L131.092 121.49C132.66 121.798 133.878 122.946 133.878 124.752C133.878 126.852 132.24 128.182 130.168 128.182C128.166 128.182 126.612 126.95 126.612 124.738H128.376C128.376 125.914 129.104 126.586 130.196 126.586C131.316 126.586 132.058 125.858 132.058 124.724C132.058 123.688 131.386 122.932 129.958 122.932ZM136.952 119.376H134.712V117.766H138.674V128H136.952V119.376ZM140.105 117.766H147.455V119.418L143.745 128H141.883L145.663 119.418H140.105V117.766Z" fill="#222222"/>
<path d="M112.055 155.828V168.934L121.622 158.13L131.19 147.326L129.353 146L112.055 155.828Z" fill="#B29186"/>
<path d="M113.887 157.098L113.912 170.123L131.185 160.282V147.271L113.887 157.098Z" fill="#906B5F"/>
<path d="M112.078 155.829L113.916 157.151V170.104L112.078 168.942V155.829Z" fill="#58392F"/>
<path d="M162.332 178.098L131.263 160.423L114.023 166.788L114.023 170.231L145.092 187.906L162.332 178.098Z" fill="#58392F"/>
<path d="M136.243 163.891C131.979 166.317 127.559 164.902 125.882 163.891L131.175 161.008L136.243 163.891Z" fill="#F7F4FF"/>
<path d="M162.328 178.095V174.632L158.36 176.236L162.328 178.095Z" fill="#886BD4"/>
<rect width="35.7448" height="19.8348" transform="matrix(-0.869189 -0.494479 -0.869189 0.494479 162.332 174.63)" fill="#F7F4FF"/>
<path d="M162.398 178.086V174.709L145.096 184.417V187.893L162.398 178.086Z" fill="#906B5F"/>
<path d="M160.738 173.951L131.291 157.322L114.95 163.31L114.95 166.549L144.398 183.178L160.738 173.951Z" fill="#E4DCFE"/>
<path d="M136.012 160.585C131.97 162.867 127.781 161.536 126.191 160.585L131.208 157.872L136.012 160.585Z" fill="#F7F4FF"/>
<path d="M160.738 173.951L144.977 165.051L129.97 171.791L128.636 174.278L144.398 183.178L160.738 173.951Z" fill="#A490D9"/>
<path d="M147.257 166.935C143.215 169.217 140.547 168.745 139.718 168.223L144.686 165.483L147.257 166.935Z" fill="#F7F4FF"/>
<path d="M159.379 173.542V170.351L155.722 171.83L159.379 173.542Z" fill="#886BD4"/>
<rect width="33.8184" height="18.7659" transform="matrix(-0.870758 -0.491711 -0.870758 0.491711 160.738 170.688)" fill="#F7F4FF"/>
<path d="M160.793 173.946V170.77L144.393 179.903V183.173L160.793 173.946Z" fill="#9681CD"/>
<path d="M118.793 160.603C121.024 156.391 126.094 155.139 128.35 155.039L132.973 157.656C130.715 161.099 125.693 162.887 123.464 163.351L118.793 160.603Z" fill="#E4DCFE"/>
<path d="M132.931 157.68C130.843 158.194 126.027 160.05 123.461 163.357C125.753 162.86 130.857 161.028 132.931 157.68Z" fill="#C6BAEB"/>
<path d="M147.78 162.71L148.425 163.09C148.425 163.828 147.61 164.276 146.987 163.88L146.96 163.863L130.606 172.492C130.278 172.665 130.072 173.006 130.072 173.377C130.072 174.124 129.282 174.608 128.616 174.268L128.34 174.127C127.942 173.923 127.691 173.514 127.691 173.067V172.636C127.691 171.941 128.072 171.302 128.684 170.971L144.072 162.644C145.234 162.015 146.641 162.04 147.78 162.71Z" fill="#6C53AD"/>
<path d="M130.98 172.319L147.961 163.315L160.704 170.749L144.372 179.908L130.98 172.319Z" fill="#826BBE"/>
</g>
<rect x="101.332" y="84" width="72" height="100" rx="8" stroke="#F4F4F4"/>
</g>
<g filter="url(#filter2_d_798_63222)">
<g clip-path="url(#clip3_798_63222)">
<rect x="186.668" y="84" width="72" height="100" rx="8" fill="white"/>
<path d="M200.324 98.55V97.692H206.993V98.55H204.12V107H203.184V98.55H200.324ZM209.826 107.156C207.98 107.156 206.745 105.83 206.745 103.854C206.745 101.891 207.967 100.539 209.761 100.539C211.464 100.539 212.621 101.748 212.621 103.529V103.971H207.616C207.681 105.505 208.487 106.389 209.839 106.389C210.866 106.389 211.529 105.947 211.763 105.115H212.621C212.283 106.441 211.308 107.156 209.826 107.156ZM209.761 101.306C208.578 101.306 207.798 102.086 207.642 103.321H211.724C211.724 102.112 210.944 101.306 209.761 101.306ZM215.017 107H214.12V100.708H214.9L215.03 101.8C215.446 100.994 216.278 100.539 217.188 100.539C218.917 100.539 219.632 101.566 219.632 103.152V107H218.735V103.347C218.735 101.878 218.072 101.358 217.032 101.358C215.745 101.358 215.017 102.294 215.017 103.711V107ZM223.292 107.156C221.953 107.156 221.16 106.402 221.16 105.297C221.16 104.14 222.044 103.412 223.513 103.295L225.593 103.126V102.918C225.593 101.683 224.852 101.293 223.929 101.293C222.837 101.293 222.187 101.787 222.187 102.632H221.368C221.368 101.358 222.408 100.539 223.955 100.539C225.411 100.539 226.477 101.267 226.477 102.931V107H225.723L225.606 105.895C225.216 106.688 224.358 107.156 223.292 107.156ZM223.5 106.428C224.826 106.428 225.593 105.505 225.593 104.14V103.802L223.734 103.945C222.551 104.049 222.07 104.569 222.07 105.271C222.07 106.038 222.642 106.428 223.5 106.428ZM229.239 107H228.342V100.708H229.122L229.252 101.8C229.668 100.994 230.5 100.539 231.41 100.539C233.139 100.539 233.854 101.566 233.854 103.152V107H232.957V103.347C232.957 101.878 232.294 101.358 231.254 101.358C229.967 101.358 229.239 102.294 229.239 103.711V107ZM237.149 107H236.265V101.462H235.004V100.708H236.265V98.719H237.149V100.708H238.41V101.462H237.149V107ZM239.11 105.232H239.968C239.968 105.96 240.514 106.415 241.398 106.415C242.373 106.415 242.945 105.999 242.945 105.323C242.945 104.803 242.685 104.504 241.944 104.322L240.865 104.049C239.773 103.776 239.24 103.204 239.24 102.346C239.24 101.241 240.163 100.539 241.515 100.539C242.841 100.539 243.699 101.267 243.738 102.437H242.867C242.841 101.709 242.334 101.28 241.489 101.28C240.605 101.28 240.111 101.657 240.111 102.333C240.111 102.814 240.449 103.152 241.138 103.321L242.217 103.594C243.309 103.867 243.803 104.374 243.803 105.284C243.803 106.415 242.841 107.156 241.411 107.156C239.994 107.156 239.11 106.402 239.11 105.232Z" fill="#6F6F6F"/>
<path d="M219.41 127.986L212.312 128V126.656L215.658 123.828C217.044 122.652 217.506 121.98 217.506 121C217.506 119.838 216.876 119.18 215.798 119.18C214.678 119.18 213.978 119.964 213.964 121.28H212.186C212.2 119.04 213.628 117.584 215.798 117.584C217.982 117.584 219.34 118.83 219.34 120.902C219.34 122.33 218.556 123.408 217.002 124.738L215.154 126.32H219.41V127.986ZM222.04 120.776L224.252 117.766H226.296L223.846 121.028C224.098 120.958 224.364 120.916 224.616 120.916C226.73 120.916 228.158 122.4 228.158 124.472C228.158 126.656 226.534 128.182 224.35 128.182C222.138 128.182 220.486 126.558 220.486 124.458C220.486 123.226 220.892 122.33 222.04 120.776ZM222.32 124.472C222.32 125.718 223.146 126.586 224.35 126.586C225.512 126.586 226.352 125.718 226.352 124.472C226.352 123.24 225.526 122.386 224.35 122.386C223.132 122.386 222.32 123.24 222.32 124.472ZM230.793 119.376H228.553V117.766H232.515V128H230.793V119.376Z" fill="#222222"/>
<path d="M209.788 173.088C213.067 171.397 218.951 170.797 218.951 170.797L227.656 173.546L234.07 174.462C234.07 174.462 238.14 175.125 240.026 176.753C242.642 179.01 243.233 184.999 243.233 184.999H202C202 184.999 202.412 179.765 204.291 177.211C205.881 175.049 207.403 174.318 209.788 173.088Z" fill="#9681CD" stroke="#C6BAEB" stroke-width="0.916294"/>
<path d="M234.516 149.283L236.215 147.584C236.215 147.584 237.399 148.826 237.451 149.824C237.49 150.577 236.85 151.316 236.91 151.678L237.065 152.605C237.125 152.967 237.124 153.502 237.065 154.072C236.956 155.107 236.292 156.621 236.292 156.621L235.056 156.312L234.516 153.377V149.283Z" fill="#1E1F24" stroke="#1E1F24" stroke-width="0.154486"/>
<path d="M223.237 159.534L221.806 163.809L220.347 166.926H219.123C218.564 166.926 218.225 167.093 217.692 166.926C217.166 166.761 216.971 166.454 216.53 166.124C216.172 165.857 216.03 165.622 215.635 165.412C215.217 165.188 214.875 165.307 214.473 165.056C213.946 164.727 212.954 163.691 212.535 163.234C212.319 162.721 212.042 158.788 212.042 158.788C212.042 158.788 209.557 155.532 210.07 154.343C210.582 153.154 210.563 151.574 210.563 150.392C210.563 149.209 212.134 148.081 212.535 147.428C212.952 146.75 213.837 144.399 214.508 143.97C215.118 143.505 216.215 143.097 216.974 142.983C218.752 142.715 219.142 140.917 220.92 140.654C222.099 140.479 223.875 141.232 225.025 140.921C225.749 140.725 225.98 140.122 226.724 140.03C228.014 139.871 228.528 140.379 229.798 140.654C230.651 140.839 231.02 141.377 231.822 141.722C232.708 142.104 232.86 142.593 233.743 142.983C234.574 143.349 234.97 143.141 235.757 143.593C236.504 144.021 236.734 144.624 236.919 145.463C237.132 146.429 236.905 147.066 236.472 147.956C236.167 148.582 235.849 148.85 235.399 149.381C234.203 150.795 231.822 152.498 231.822 152.498H226.188L222.911 154.123L223.237 159.534Z" fill="#1E1F24"/>
<path d="M219.604 169.172C220.162 167.666 220.501 165.17 220.501 165.17L230.242 167.627C230.242 167.627 229.36 169.496 229.013 170.761C228.665 172.029 228.474 174.077 228.474 174.077C228.474 174.077 226.822 175.064 225.633 175.236C224.194 175.444 223.261 175.296 221.96 174.674C220.237 173.849 218.765 171.046 218.765 171.046C218.765 171.046 219.326 169.923 219.604 169.172Z" fill="#DEA77E" stroke="#DAA97E" stroke-width="0.154486"/>
<path fill-rule="evenodd" clip-rule="evenodd" d="M224.665 166.175C224.392 167.57 223.981 169.479 223.538 170.894C223.173 172.063 222.597 173.496 222.085 174.695C222.031 174.67 221.977 174.645 221.922 174.618C220.198 173.794 218.727 170.991 218.727 170.991C218.727 170.991 219.288 169.868 219.566 169.117C220.123 167.611 220.463 165.115 220.463 165.115L224.665 166.175Z" fill="#D69E75"/>
<path d="M224.665 166.175L224.741 166.19L224.755 166.118L224.684 166.1L224.665 166.175ZM223.538 170.894L223.612 170.917L223.612 170.917L223.538 170.894ZM222.085 174.695L222.053 174.765L222.125 174.798L222.156 174.725L222.085 174.695ZM221.922 174.618L221.955 174.549L221.955 174.549L221.922 174.618ZM218.727 170.991L218.657 170.956L218.64 170.992L218.658 171.027L218.727 170.991ZM219.566 169.117L219.638 169.144L219.566 169.117ZM220.463 165.115L220.481 165.04L220.398 165.019L220.386 165.105L220.463 165.115ZM224.589 166.16C224.316 167.555 223.906 169.46 223.465 170.871L223.612 170.917C224.056 169.498 224.467 167.585 224.741 166.19L224.589 166.16ZM223.465 170.871C223.1 172.036 222.526 173.466 222.014 174.664L222.156 174.725C222.668 173.525 223.245 172.09 223.612 170.917L223.465 170.871ZM222.117 174.624C222.064 174.6 222.01 174.575 221.955 174.549L221.889 174.688C221.944 174.714 221.999 174.74 222.053 174.765L222.117 174.624ZM221.955 174.549C221.112 174.145 220.323 173.252 219.74 172.45C219.45 172.05 219.214 171.676 219.05 171.402C218.968 171.265 218.904 171.153 218.861 171.075C218.839 171.036 218.823 171.006 218.811 170.986C218.806 170.975 218.802 170.968 218.799 170.962C218.798 170.96 218.797 170.958 218.796 170.957C218.796 170.956 218.795 170.955 218.795 170.955C218.795 170.955 218.795 170.955 218.795 170.955C218.795 170.955 218.795 170.955 218.795 170.955C218.795 170.955 218.795 170.955 218.727 170.991C218.658 171.027 218.658 171.027 218.658 171.027C218.658 171.027 218.658 171.027 218.658 171.027C218.658 171.027 218.658 171.027 218.658 171.027C218.659 171.028 218.659 171.028 218.659 171.029C218.66 171.03 218.661 171.032 218.663 171.035C218.666 171.04 218.67 171.049 218.676 171.059C218.687 171.08 218.704 171.111 218.726 171.15C218.77 171.229 218.834 171.343 218.917 171.481C219.083 171.758 219.322 172.136 219.615 172.541C220.2 173.346 221.008 174.267 221.889 174.688L221.955 174.549ZM218.727 170.991C218.796 171.025 218.796 171.025 218.796 171.025C218.796 171.025 218.796 171.025 218.796 171.025C218.796 171.025 218.796 171.025 218.796 171.025C218.796 171.025 218.796 171.025 218.796 171.024C218.796 171.024 218.797 171.023 218.797 171.022C218.798 171.02 218.8 171.016 218.802 171.012C218.806 171.004 218.813 170.991 218.82 170.975C218.836 170.943 218.859 170.896 218.888 170.837C218.945 170.72 219.024 170.556 219.112 170.368C219.287 169.993 219.498 169.522 219.638 169.144L219.493 169.09C219.355 169.462 219.147 169.928 218.972 170.303C218.885 170.489 218.806 170.653 218.749 170.77C218.721 170.828 218.698 170.875 218.682 170.907C218.674 170.923 218.668 170.935 218.664 170.943C218.662 170.948 218.66 170.951 218.659 170.953C218.659 170.954 218.658 170.955 218.658 170.955C218.658 170.956 218.658 170.956 218.658 170.956C218.658 170.956 218.658 170.956 218.657 170.956C218.657 170.956 218.657 170.956 218.657 170.956C218.657 170.956 218.657 170.956 218.727 170.991ZM219.638 169.144C219.919 168.385 220.145 167.379 220.299 166.566C220.377 166.159 220.437 165.799 220.477 165.541C220.497 165.411 220.513 165.308 220.523 165.236C220.529 165.201 220.533 165.173 220.535 165.154C220.536 165.145 220.537 165.138 220.538 165.133C220.538 165.13 220.539 165.129 220.539 165.127C220.539 165.127 220.539 165.126 220.539 165.126C220.539 165.126 220.539 165.126 220.539 165.126C220.539 165.125 220.539 165.125 220.539 165.125C220.539 165.125 220.539 165.125 220.463 165.115C220.386 165.105 220.386 165.105 220.386 165.105C220.386 165.105 220.386 165.105 220.386 165.105C220.386 165.105 220.386 165.105 220.386 165.105C220.386 165.105 220.386 165.106 220.386 165.106C220.386 165.107 220.385 165.109 220.385 165.112C220.384 165.116 220.383 165.123 220.382 165.133C220.38 165.151 220.376 165.179 220.37 165.214C220.36 165.285 220.345 165.388 220.325 165.517C220.284 165.773 220.224 166.132 220.147 166.537C219.993 167.348 219.77 168.344 219.493 169.09L219.638 169.144ZM220.444 165.19L224.646 166.25L224.684 166.1L220.481 165.04L220.444 165.19Z" fill="#D69E75"/>
<path d="M222.319 159.116C222.485 160.32 221.637 161.568 221.637 161.568C221.637 161.568 220.781 161.064 220.358 160.619C219.875 160.11 219.996 159.533 219.421 159.116C218.823 158.681 218.29 158.506 217.545 158.641C216.974 158.745 216.586 158.901 216.267 159.353C215.866 159.922 216.175 160.419 216.267 161.093C216.375 161.889 216.332 162.439 216.864 163.071C217.244 163.524 217.716 163.546 218.142 163.941C218.568 164.337 218.483 164.733 218.824 165.049C219.165 165.365 219.528 165.375 220.017 165.445C220.412 165.501 221.04 165.445 221.04 165.445C221.04 165.445 221.038 166.655 221.467 167.264C221.802 167.741 222.152 167.893 222.66 168.214C223.611 168.813 225.132 169.084 225.388 169.242C225.643 169.4 227.874 170.263 229.564 170.587C230.648 170.795 231.272 170.854 232.377 170.903C233.109 170.936 233.54 171.058 234.253 170.903C234.978 170.746 235.958 170.112 235.958 170.112C235.958 170.112 236.556 169.392 236.725 168.846C236.927 168.193 236.725 167.786 236.725 167.106V165.445C236.725 165.445 236.931 163.76 236.98 162.676C237.03 161.595 237.316 160.942 236.98 159.907C236.74 159.165 235.958 158.166 235.958 158.166C235.958 158.166 236.318 156.876 236.384 156.03C236.427 155.475 236.384 154.923 236.384 154.606C236.384 154.29 235.509 153.1 235.105 152.074C234.645 150.906 234.253 148.989 234.253 148.989C234.253 148.989 233.741 150.176 232.974 150.65C232.207 151.125 230.332 151.758 229.564 151.916C228.797 152.074 226.24 151.521 224.45 151.916C222.66 152.312 222.92 152.276 222.319 152.945C221.48 153.877 221.893 156.03 221.893 156.03L222.319 159.116Z" fill="#E7B58E"/>
<path fill-rule="evenodd" clip-rule="evenodd" d="M225.602 169.311C225.311 168.367 224.948 167.398 224.519 166.64C224.303 166.257 224.049 165.983 223.806 165.721C223.461 165.349 223.139 165.001 222.974 164.4C222.718 163.464 223.081 162.787 223.47 162.058C223.748 161.538 224.041 160.991 224.133 160.306C224.342 158.751 224.133 156.289 224.133 156.289V153.818C224.133 153.378 224.613 152.651 225.136 151.988C224.796 152.006 224.465 152.046 224.159 152.119C222.759 152.452 222.743 152.472 222.415 152.891C222.363 152.958 222.303 153.034 222.228 153.123C221.468 154.034 221.842 156.135 221.842 156.135L222.228 159.148C222.379 160.324 221.61 161.542 221.61 161.542C221.61 161.542 220.835 161.05 220.452 160.616C220.253 160.39 220.167 160.151 220.083 159.918C219.983 159.639 219.887 159.371 219.602 159.148C219.06 158.724 218.578 158.552 217.903 158.684C217.385 158.786 217.033 158.938 216.744 159.38C216.476 159.789 216.558 160.16 216.653 160.59C216.687 160.744 216.722 160.906 216.744 161.079C216.762 161.219 216.775 161.351 216.787 161.477C216.845 162.052 216.89 162.504 217.285 163.01C217.473 163.252 217.686 163.368 217.904 163.486C218.084 163.584 218.268 163.684 218.443 163.86C218.647 164.064 218.722 164.268 218.793 164.46C218.856 164.632 218.916 164.795 219.061 164.941C219.332 165.211 219.618 165.252 219.982 165.304C220.034 165.311 220.087 165.319 220.143 165.327C220.501 165.383 221.07 165.327 221.07 165.327C221.07 165.327 221.068 166.51 221.456 167.104C221.706 167.487 221.965 167.655 222.304 167.877C222.378 167.925 222.455 167.975 222.537 168.031C223.108 168.419 223.906 168.666 224.447 168.833C224.722 168.918 224.931 168.983 225.009 169.035C225.076 169.08 225.292 169.181 225.602 169.311Z" fill="#E2AD84"/>
</g>
<rect x="186.668" y="84" width="72" height="100" rx="8" stroke="#F4F4F4"/>
</g>
<g filter="url(#filter3_d_798_63222)">
<g clip-path="url(#clip4_798_63222)">
<rect x="272" y="84" width="72" height="100" rx="8" fill="white"/>
<path d="M295.572 100.11C295.572 98.55 296.82 97.523 298.692 97.523C300.369 97.523 301.474 98.459 301.617 100.019H300.668C300.564 98.966 299.849 98.368 298.679 98.368C297.366 98.368 296.508 99.044 296.508 100.097C296.508 100.916 296.989 101.436 297.964 101.683L299.563 102.073C301.019 102.424 301.773 103.256 301.773 104.517C301.773 106.129 300.525 107.156 298.601 107.156C296.794 107.156 295.572 106.207 295.455 104.686H296.417C296.469 105.661 297.327 106.298 298.601 106.298C299.966 106.298 300.837 105.635 300.837 104.569C300.837 103.737 300.369 103.191 299.368 102.957L297.795 102.567C296.339 102.216 295.572 101.384 295.572 100.11ZM304.769 107H303.885V101.462H302.624V100.708H303.885V98.719H304.769V100.708H306.03V101.462H304.769V107ZM308.969 107.156C307.63 107.156 306.837 106.402 306.837 105.297C306.837 104.14 307.721 103.412 309.19 103.295L311.27 103.126V102.918C311.27 101.683 310.529 101.293 309.606 101.293C308.514 101.293 307.864 101.787 307.864 102.632H307.045C307.045 101.358 308.085 100.539 309.632 100.539C311.088 100.539 312.154 101.267 312.154 102.931V107H311.4L311.283 105.895C310.893 106.688 310.035 107.156 308.969 107.156ZM309.177 106.428C310.503 106.428 311.27 105.505 311.27 104.14V103.802L309.411 103.945C308.228 104.049 307.747 104.569 307.747 105.271C307.747 106.038 308.319 106.428 309.177 106.428ZM313.266 100.708H314.228V99.486C314.228 98.069 315.008 97.523 315.97 97.523C316.191 97.523 316.451 97.536 316.659 97.575V98.342H316.126C315.333 98.342 315.125 98.745 315.125 99.486V100.708H316.607V101.462H315.125V107H314.228V101.462H313.266V100.708ZM317.241 100.708H318.203V99.486C318.203 98.069 318.983 97.523 319.945 97.523C320.166 97.523 320.426 97.536 320.634 97.575V98.342H320.101C319.308 98.342 319.1 98.745 319.1 99.486V100.708H320.582V101.462H319.1V107H318.203V101.462H317.241V100.708Z" fill="#6F6F6F"/>
<path d="M302.626 122.932H301.38V121.77L304.012 119.348H299.756V117.766H306.252V119.194L303.76 121.49C305.328 121.798 306.546 122.946 306.546 124.752C306.546 126.852 304.908 128.182 302.836 128.182C300.834 128.182 299.28 126.95 299.28 124.738H301.044C301.044 125.914 301.772 126.586 302.864 126.586C303.984 126.586 304.726 125.858 304.726 124.724C304.726 123.688 304.054 122.932 302.626 122.932ZM315.621 126.054H314.375V128H312.681V126.054H307.487V124.486L312.121 117.766H314.375V124.486H315.621V126.054ZM309.391 124.486H312.681V119.698L309.391 124.486Z" fill="#222222"/>
<path d="M295.124 174.088C298.403 172.397 304.287 171.797 304.287 171.797L312.992 174.546L319.406 175.462C319.406 175.462 323.476 176.125 325.362 177.753C327.978 180.01 328.569 185.999 328.569 185.999H287.336C287.336 185.999 287.748 180.765 289.627 178.211C291.217 176.049 292.739 175.318 295.124 174.088Z" fill="#8BC9E3"/>
<path d="M319.852 150.283L321.551 148.584C321.551 148.584 322.735 149.826 322.787 150.824C322.826 151.577 322.186 152.316 322.246 152.678L322.401 153.605C322.461 153.967 322.46 154.502 322.401 155.072C322.292 156.107 321.628 157.621 321.628 157.621L320.392 157.312L319.852 154.377V150.283Z" fill="#1E1F24" stroke="#1E1F24" stroke-width="0.154486"/>
<path d="M308.571 160.534L307.14 164.809L305.682 167.926H304.457C303.899 167.926 303.56 168.093 303.027 167.926C302.5 167.761 302.306 167.454 301.864 167.124C301.506 166.857 301.364 166.622 300.97 166.412C300.551 166.188 300.21 166.307 299.807 166.056C299.28 165.727 298.288 164.691 297.87 164.234C297.653 163.721 297.376 159.788 297.376 159.788C297.376 159.788 295.988 157.189 296.5 156C297.012 154.811 298 151.682 298 150.5C298 149.318 299.098 151.653 299.5 151C299.917 150.322 299.171 145.399 299.842 144.97C300.452 144.505 301.549 144.097 302.309 143.983C304.086 143.715 304.476 141.917 306.254 141.654C307.433 141.479 309.209 142.232 310.36 141.921C311.083 141.725 311.314 141.122 312.059 141.03C313.348 140.871 313.862 141.379 315.132 141.654C315.985 141.839 316.354 142.377 317.156 142.722C318.043 143.104 318.194 143.593 319.078 143.983C319.908 144.349 315.563 144.049 316.35 144.5C317.097 144.929 319.165 145.661 319.35 146.5C319.562 147.466 320.283 148.11 319.85 149C319.545 149.626 321.183 149.85 320.733 150.381C319.537 151.795 317.156 153.498 317.156 153.498H311.522L308.245 155.123L308.571 160.534Z" fill="#1E1F24"/>
<path d="M304.936 170.172C305.494 168.666 305.833 166.17 305.833 166.17L315.574 168.627C315.574 168.627 314.692 170.496 314.345 171.761C313.997 173.029 313.806 175.077 313.806 175.077C313.806 175.077 312.154 176.064 310.965 176.236C309.526 176.444 308.593 176.296 307.292 175.674C305.569 174.849 304.097 172.046 304.097 172.046C304.097 172.046 304.658 170.923 304.936 170.172Z" fill="#DEA77E" stroke="#DAA97E" stroke-width="0.154486"/>
<path fill-rule="evenodd" clip-rule="evenodd" d="M309.997 167.175C309.724 168.569 309.313 170.479 308.87 171.894C308.505 173.063 307.929 174.495 307.417 175.694C307.363 175.67 307.309 175.644 307.254 175.618C305.53 174.793 304.059 171.99 304.059 171.99C304.059 171.99 304.62 170.867 304.898 170.117C305.455 168.611 305.795 166.115 305.795 166.115L309.997 167.175Z" fill="#D69E75"/>
<path d="M309.997 167.175L310.073 167.19L310.087 167.118L310.016 167.1L309.997 167.175ZM308.87 171.894L308.944 171.917L308.944 171.917L308.87 171.894ZM307.417 175.694L307.385 175.765L307.457 175.798L307.488 175.725L307.417 175.694ZM307.254 175.618L307.287 175.548L307.287 175.548L307.254 175.618ZM304.059 171.99L303.989 171.956L303.972 171.991L303.99 172.026L304.059 171.99ZM304.898 170.117L304.97 170.144L304.898 170.117ZM305.795 166.115L305.814 166.04L305.73 166.019L305.718 166.104L305.795 166.115ZM309.921 167.16C309.648 168.554 309.238 170.46 308.797 171.871L308.944 171.917C309.388 170.497 309.799 168.585 310.073 167.19L309.921 167.16ZM308.797 171.871C308.432 173.036 307.858 174.466 307.346 175.664L307.488 175.725C308 174.525 308.577 173.09 308.944 171.917L308.797 171.871ZM307.449 175.624C307.396 175.6 307.342 175.574 307.287 175.548L307.221 175.688C307.276 175.714 307.331 175.74 307.385 175.765L307.449 175.624ZM307.287 175.548C306.444 175.145 305.655 174.252 305.072 173.45C304.782 173.05 304.546 172.676 304.382 172.402C304.3 172.265 304.236 172.152 304.193 172.075C304.171 172.036 304.155 172.006 304.144 171.985C304.138 171.975 304.134 171.967 304.131 171.962C304.13 171.96 304.129 171.958 304.128 171.956C304.128 171.956 304.127 171.955 304.127 171.955C304.127 171.955 304.127 171.955 304.127 171.955C304.127 171.955 304.127 171.955 304.127 171.954C304.127 171.954 304.127 171.954 304.059 171.99C303.99 172.026 303.99 172.026 303.99 172.026C303.99 172.026 303.99 172.026 303.99 172.026C303.99 172.027 303.99 172.027 303.991 172.027C303.991 172.027 303.991 172.028 303.991 172.029C303.992 172.03 303.993 172.032 303.995 172.035C303.998 172.04 304.002 172.048 304.008 172.059C304.019 172.08 304.036 172.111 304.058 172.15C304.102 172.229 304.166 172.342 304.249 172.481C304.415 172.758 304.654 173.136 304.947 173.54C305.532 174.346 306.34 175.266 307.221 175.688L307.287 175.548ZM304.059 171.99C304.128 172.025 304.128 172.025 304.128 172.025C304.128 172.025 304.128 172.025 304.128 172.025C304.128 172.025 304.128 172.025 304.128 172.025C304.128 172.025 304.128 172.024 304.128 172.024C304.128 172.024 304.129 172.023 304.129 172.022C304.13 172.019 304.132 172.016 304.134 172.012C304.138 172.004 304.145 171.991 304.153 171.975C304.168 171.943 304.192 171.896 304.22 171.837C304.277 171.72 304.356 171.556 304.444 171.368C304.619 170.993 304.83 170.522 304.97 170.144L304.825 170.09C304.687 170.462 304.479 170.928 304.304 171.302C304.217 171.489 304.138 171.653 304.081 171.769C304.053 171.828 304.03 171.874 304.014 171.906C304.006 171.923 304 171.935 303.996 171.943C303.994 171.947 303.992 171.951 303.991 171.953C303.991 171.954 303.99 171.955 303.99 171.955C303.99 171.955 303.99 171.956 303.99 171.956C303.99 171.956 303.99 171.956 303.99 171.956C303.99 171.956 303.99 171.956 303.99 171.956C303.989 171.956 303.989 171.956 304.059 171.99ZM304.97 170.144C305.251 169.384 305.477 168.378 305.631 167.565C305.709 167.158 305.769 166.798 305.809 166.54C305.83 166.411 305.845 166.308 305.855 166.236C305.861 166.2 305.865 166.173 305.867 166.154C305.868 166.145 305.869 166.137 305.87 166.133C305.87 166.13 305.871 166.128 305.871 166.127C305.871 166.126 305.871 166.126 305.871 166.126C305.871 166.125 305.871 166.125 305.871 166.125C305.871 166.125 305.871 166.125 305.871 166.125C305.871 166.125 305.871 166.125 305.795 166.115C305.718 166.104 305.718 166.104 305.718 166.104C305.718 166.104 305.718 166.104 305.718 166.104C305.718 166.105 305.718 166.105 305.718 166.105C305.718 166.105 305.718 166.105 305.718 166.106C305.718 166.107 305.717 166.109 305.717 166.111C305.716 166.116 305.715 166.123 305.714 166.132C305.712 166.151 305.708 166.178 305.703 166.214C305.692 166.285 305.677 166.388 305.657 166.516C305.616 166.773 305.557 167.131 305.479 167.537C305.325 168.348 305.102 169.343 304.825 170.09L304.97 170.144ZM305.776 166.19L309.978 167.25L310.016 167.1L305.814 166.04L305.776 166.19Z" fill="#D69E75"/>
<path d="M307.651 160.116C307.817 161.32 306.969 162.568 306.969 162.568C306.969 162.568 306.114 162.064 305.69 161.619C305.207 161.11 305.328 160.533 304.753 160.116C304.155 159.681 303.622 159.506 302.877 159.641C302.306 159.745 301.918 159.901 301.599 160.353C301.198 160.922 301.507 161.419 301.599 162.093C301.707 162.889 301.664 163.439 302.196 164.071C302.576 164.524 303.048 164.546 303.474 164.941C303.9 165.337 303.815 165.733 304.156 166.049C304.497 166.365 304.86 166.375 305.349 166.445C305.744 166.501 306.372 166.445 306.372 166.445C306.372 166.445 306.37 167.655 306.799 168.264C307.134 168.741 307.841 169.526 308.349 169.846C309.3 170.446 310.593 170.954 310.849 171.112C311.104 171.27 313.801 171.913 315.349 172C316.45 172.062 316.743 171.951 317.849 172C318.58 172.033 318.872 172.058 319.585 171.903C320.31 171.746 321.29 171.112 321.29 171.112C321.29 171.112 321.888 170.392 322.057 169.846C322.259 169.193 322.849 168.68 322.849 168V167C322.849 167 323.299 165.584 323.349 164.5C323.398 163.42 322.648 161.942 322.313 160.907C322.073 160.165 321.716 159.164 321.716 159.164C321.716 159.164 321.65 157.876 321.716 157.03C321.759 156.475 321.716 155.923 321.716 155.606C321.716 155.29 320.841 154.1 320.437 153.074C319.977 151.906 319.585 149.989 319.585 149.989C319.585 149.989 319.073 151.176 318.306 151.65C317.539 152.125 315.664 152.758 314.897 152.916C314.129 153.074 311.572 152.521 309.782 152.916C307.992 153.312 308.252 153.276 307.651 153.945C306.812 154.877 307.225 157.03 307.225 157.03L307.651 160.116Z" fill="#E7B58E"/>
<path fill-rule="evenodd" clip-rule="evenodd" d="M310.74 169.917C310.608 169.138 310.349 168.234 309.855 167.377C309.638 167.001 309.384 166.732 309.141 166.474C308.797 166.109 308.474 165.767 308.31 165.177C308.054 164.258 308.416 163.593 308.806 162.877C309.084 162.366 309.376 161.83 309.469 161.157C309.678 159.63 309.469 157.212 309.469 157.212V154.785C309.469 154.353 309.949 153.639 310.472 152.989C310.132 153.006 309.801 153.045 309.495 153.117C308.095 153.444 308.079 153.464 307.75 153.875C307.698 153.94 307.639 154.015 307.564 154.103C306.804 154.997 307.178 157.061 307.178 157.061L307.564 160.019C307.715 161.175 306.946 162.371 306.946 162.371C306.946 162.371 306.171 161.887 305.788 161.461C305.589 161.239 305.503 161.004 305.419 160.776C305.319 160.502 305.223 160.238 304.938 160.019C304.396 159.603 303.914 159.435 303.239 159.564C302.721 159.664 302.369 159.813 302.08 160.247C301.812 160.649 301.894 161.013 301.989 161.436C302.023 161.587 302.058 161.745 302.08 161.916C302.098 162.053 302.111 162.183 302.123 162.307C302.181 162.871 302.226 163.315 302.621 163.812C302.809 164.049 303.022 164.163 303.24 164.28C303.42 164.376 303.604 164.474 303.779 164.647C303.983 164.847 304.058 165.047 304.129 165.236C304.192 165.405 304.251 165.565 304.397 165.709C304.668 165.974 304.954 166.014 305.318 166.065C305.37 166.072 305.423 166.079 305.479 166.088C305.836 166.142 306.406 166.088 306.406 166.088C306.406 166.088 306.403 167.249 306.792 167.833C307.042 168.208 307.301 168.374 307.64 168.591C307.714 168.639 307.791 168.688 307.873 168.743C308.444 169.124 309.242 169.366 309.782 169.53C310.058 169.614 310.267 169.678 310.345 169.729C310.397 169.763 310.537 169.83 310.74 169.917Z" fill="#E2AD84"/>
<path d="M322.544 163.603L321.529 164.618C321.511 164.637 321.5 164.662 321.5 164.688V170.759C321.5 170.848 321.608 170.892 321.671 170.829L322.021 170.479C322.027 170.473 322.031 170.468 322.035 170.461C322.128 170.309 323.362 168.258 323.618 166.765C323.875 165.267 323.308 163.392 323.085 162.738C323.056 162.652 322.939 162.65 322.905 162.734L322.566 163.569C322.561 163.582 322.554 163.593 322.544 163.603Z" fill="#443A32"/>
<path d="M298.488 146.829C297.795 148.723 298.032 151.822 298.069 152.25C298.071 152.282 298.088 152.309 298.115 152.327C298.494 152.578 301.368 154.449 303.568 155.035C306.398 155.788 308.211 155.593 311.137 155.217C315.599 154.643 321.589 151.186 322.138 150.865C322.167 150.848 322.181 150.823 322.186 150.79C322.234 150.431 322.505 148.235 322.179 146.829C321.717 144.84 321.088 143.682 319.535 142.179C317.212 139.932 314.894 139.224 311.448 139.034C308.129 138.851 305.969 139.392 303.257 141.085C300.682 142.694 299.455 144.185 298.488 146.829Z" fill="#174E80"/>
<path d="M308.18 153.968C309.399 153.027 311.056 151.835 312.442 151.145C314.537 150.102 315.791 149.598 318.067 149.183C319.17 148.982 320.71 148.921 321.601 148.903C322.063 148.893 322.509 149.06 322.859 149.361L327.656 153.475C327.537 154.336 326.795 154.972 325.927 155.005C325.128 155.035 324.161 155.101 323.41 155.245C320.922 155.719 319.595 156.445 317.353 157.695C316.062 158.415 314.433 159.63 313.447 160.394C312.958 160.774 312.251 160.702 311.858 160.224L308.103 156.844C307.229 156.058 307.249 154.686 308.18 153.968Z" fill="#2E679B"/>
<path d="M314.598 166.056L306.537 163C306.537 163 305.842 165.483 306.033 167.075C306.131 167.889 306.101 168.42 306.537 169.112C307.246 170.238 307.986 170.043 309.56 170.64L313.59 172.168C315.164 172.765 319.519 174.028 317 172.5C314.481 170.972 314.598 169.112 314.598 169.112V166.056Z" fill="#443A32"/>
<path d="M314.501 165.525C315.231 164.529 317.501 164.525 317.501 164.525C317.501 164.525 318.712 163.864 319.501 164.025C320.191 164.166 320.569 164.47 321.001 165.025C321.613 165.811 321.395 166.535 321.501 167.525C321.626 168.69 321.924 169.433 321.501 170.525C321.247 171.182 321.057 171.593 320.501 172.025C319.715 172.636 318.992 172.428 318.001 172.525C317.03 172.62 316.647 172.506 316.001 172.025C315.436 171.605 315.334 171.146 315.001 170.525C314.418 169.436 313.973 168.76 314.001 167.525C314.02 166.72 314.026 166.175 314.501 165.525Z" stroke="#443A32" stroke-width="1.25"/>
<path d="M318 169.5C316.435 169.673 314 169 314 169L315 172.5H318.5L321 171.5L322 168C322 168 319.658 169.317 318 169.5Z" fill="#443A32"/>
</g>
<rect x="272" y="84" width="72" height="100" rx="8" stroke="#F4F4F4"/>
</g>
<defs>
<filter id="filter0_d_798_63222" x="11.5" y="80.5" width="81" height="109" filterUnits="userSpaceOnUse" color-interpolation-filters="sRGB">
<feFlood flood-opacity="0" result="BackgroundImageFix"/>
<feColorMatrix in="SourceAlpha" type="matrix" values="0 0 0 0 0 0 0 0 0 0 0 0 0 0 0 0 0 0 127 0" result="hardAlpha"/>
<feOffset dy="1"/>
<feGaussianBlur stdDeviation="2"/>
<feComposite in2="hardAlpha" operator="out"/>
<feColorMatrix type="matrix" values="0 0 0 0 0.838184 0 0 0 0 0.838184 0 0 0 0 0.838184 0 0 0 0.25 0"/>
<feBlend mode="normal" in2="BackgroundImageFix" result="effect1_dropShadow_798_63222"/>
<feBlend mode="normal" in="SourceGraphic" in2="effect1_dropShadow_798_63222" result="shape"/>
</filter>
<filter id="filter1_d_798_63222" x="96.832" y="80.5" width="81" height="109" filterUnits="userSpaceOnUse" color-interpolation-filters="sRGB">
<feFlood flood-opacity="0" result="BackgroundImageFix"/>
<feColorMatrix in="SourceAlpha" type="matrix" values="0 0 0 0 0 0 0 0 0 0 0 0 0 0 0 0 0 0 127 0" result="hardAlpha"/>
<feOffset dy="1"/>
<feGaussianBlur stdDeviation="2"/>
<feComposite in2="hardAlpha" operator="out"/>
<feColorMatrix type="matrix" values="0 0 0 0 0.838184 0 0 0 0 0.838184 0 0 0 0 0.838184 0 0 0 0.25 0"/>
<feBlend mode="normal" in2="BackgroundImageFix" result="effect1_dropShadow_798_63222"/>
<feBlend mode="normal" in="SourceGraphic" in2="effect1_dropShadow_798_63222" result="shape"/>
</filter>
<filter id="filter2_d_798_63222" x="182.168" y="80.5" width="81" height="109" filterUnits="userSpaceOnUse" color-interpolation-filters="sRGB">
<feFlood flood-opacity="0" result="BackgroundImageFix"/>
<feColorMatrix in="SourceAlpha" type="matrix" values="0 0 0 0 0 0 0 0 0 0 0 0 0 0 0 0 0 0 127 0" result="hardAlpha"/>
<feOffset dy="1"/>
<feGaussianBlur stdDeviation="2"/>
<feComposite in2="hardAlpha" operator="out"/>
<feColorMatrix type="matrix" values="0 0 0 0 0.838184 0 0 0 0 0.838184 0 0 0 0 0.838184 0 0 0 0.25 0"/>
<feBlend mode="normal" in2="BackgroundImageFix" result="effect1_dropShadow_798_63222"/>
<feBlend mode="normal" in="SourceGraphic" in2="effect1_dropShadow_798_63222" result="shape"/>
</filter>
<filter id="filter3_d_798_63222" x="267.5" y="80.5" width="81" height="109" filterUnits="userSpaceOnUse" color-interpolation-filters="sRGB">
<feFlood flood-opacity="0" result="BackgroundImageFix"/>
<feColorMatrix in="SourceAlpha" type="matrix" values="0 0 0 0 0 0 0 0 0 0 0 0 0 0 0 0 0 0 127 0" result="hardAlpha"/>
<feOffset dy="1"/>
<feGaussianBlur stdDeviation="2"/>
<feComposite in2="hardAlpha" operator="out"/>
<feColorMatrix type="matrix" values="0 0 0 0 0.838184 0 0 0 0 0.838184 0 0 0 0 0.838184 0 0 0 0.25 0"/>
<feBlend mode="normal" in2="BackgroundImageFix" result="effect1_dropShadow_798_63222"/>
<feBlend mode="normal" in="SourceGraphic" in2="effect1_dropShadow_798_63222" result="shape"/>
</filter>
<clipPath id="clip0_798_63222">
<rect width="16" height="16" fill="white" transform="translate(260 34)"/>
</clipPath>
<clipPath id="clip1_798_63222">
<rect x="16" y="84" width="72" height="100" rx="8" fill="white"/>
</clipPath>
<clipPath id="clip2_798_63222">
<rect x="101.332" y="84" width="72" height="100" rx="8" fill="white"/>
</clipPath>
<clipPath id="clip3_798_63222">
<rect x="186.668" y="84" width="72" height="100" rx="8" fill="white"/>
</clipPath>
<clipPath id="clip4_798_63222">
<rect x="272" y="84" width="72" height="100" rx="8" fill="white"/>
</clipPath>
</defs>
</svg>
