<svg width="380" height="380" viewBox="0 0 380 380" fill="none" xmlns="http://www.w3.org/2000/svg">
<rect width="380" height="380" rx="12" fill="#F6F6F6"/>
<g filter="url(#filter0_d_498_5898)">
<rect x="26" y="48" width="328" height="284" rx="8" fill="white" shape-rendering="crispEdges"/>
<g clip-path="url(#clip0_498_5898)">
<path d="M45.02 86.716C41.186 86.716 38.702 84.052 38.702 79.93C38.702 75.844 41.276 73.126 45.128 73.126C48.242 73.126 50.564 74.944 51.014 77.77H48.584C48.134 76.24 46.82 75.34 45.074 75.34C42.644 75.34 41.114 77.104 41.114 79.912C41.114 82.702 42.662 84.502 45.074 84.502C46.856 84.502 48.224 83.566 48.656 82.108H51.05C50.546 84.88 48.134 86.716 45.02 86.716ZM52.2702 82.036C52.2702 79.264 54.2682 77.356 57.0222 77.356C59.7762 77.356 61.7742 79.264 61.7742 82.036C61.7742 84.808 59.7762 86.716 57.0222 86.716C54.2682 86.716 52.2702 84.808 52.2702 82.036ZM54.4662 82.036C54.4662 83.656 55.5102 84.754 57.0222 84.754C58.5342 84.754 59.5782 83.656 59.5782 82.036C59.5782 80.416 58.5342 79.318 57.0222 79.318C55.5102 79.318 54.4662 80.416 54.4662 82.036ZM65.7289 86.5H63.5509V73.108H65.7289V86.5ZM70.2464 86.5H68.0684V73.108H70.2464V86.5ZM76.528 86.734C73.882 86.734 72.028 84.808 72.028 82.054C72.028 79.264 73.846 77.338 76.456 77.338C79.12 77.338 80.812 79.12 80.812 81.892V82.558L74.116 82.576C74.278 84.142 75.106 84.934 76.564 84.934C77.77 84.934 78.562 84.466 78.814 83.62H80.848C80.47 85.564 78.85 86.734 76.528 86.734ZM76.474 79.138C75.178 79.138 74.386 79.84 74.17 81.172H78.634C78.634 79.948 77.788 79.138 76.474 79.138ZM82.0475 82.036C82.0475 79.282 83.8655 77.338 86.4935 77.338C88.9235 77.338 90.5795 78.688 90.8135 80.83H88.6175C88.3655 79.822 87.6275 79.3 86.5835 79.3C85.1795 79.3 84.2435 80.362 84.2435 82.036C84.2435 83.71 85.1075 84.754 86.5115 84.754C87.6095 84.754 88.3835 84.214 88.6175 83.242H90.8315C90.5615 85.312 88.8335 86.734 86.5115 86.734C83.8115 86.734 82.0475 84.862 82.0475 82.036ZM95.49 86.5H93.294V79.444H91.584V77.608H93.294V74.836H95.49V77.608H97.218V79.444H95.49V86.5ZM99.6812 75.826C98.9252 75.826 98.3312 75.232 98.3312 74.494C98.3312 73.756 98.9252 73.18 99.6812 73.18C100.401 73.18 100.995 73.756 100.995 74.494C100.995 75.232 100.401 75.826 99.6812 75.826ZM98.5832 86.5V77.608H100.779V86.5H98.5832ZM102.526 82.036C102.526 79.264 104.524 77.356 107.278 77.356C110.032 77.356 112.03 79.264 112.03 82.036C112.03 84.808 110.032 86.716 107.278 86.716C104.524 86.716 102.526 84.808 102.526 82.036ZM104.722 82.036C104.722 83.656 105.766 84.754 107.278 84.754C108.79 84.754 109.834 83.656 109.834 82.036C109.834 80.416 108.79 79.318 107.278 79.318C105.766 79.318 104.722 80.416 104.722 82.036ZM115.967 86.5H113.771V77.608H115.805L115.985 78.76C116.543 77.86 117.623 77.338 118.829 77.338C121.061 77.338 122.213 78.724 122.213 81.028V86.5H120.017V81.55C120.017 80.056 119.279 79.336 118.145 79.336C116.795 79.336 115.967 80.272 115.967 81.712V86.5Z" fill="#222222"/>
<rect x="262.5" y="64.5" width="79" height="31" rx="15.5" fill="white"/>
<rect x="262.5" y="64.5" width="79" height="31" rx="15.5" stroke="#C8C8C8"/>
<path d="M275.131 85H274.182L277.601 75.692H278.758L282.216 85H281.241L280.331 82.53H276.041L275.131 85ZM278.056 77.005L276.327 81.711H280.032L278.29 77.005C278.251 76.875 278.186 76.719 278.173 76.628C278.16 76.706 278.108 76.875 278.056 77.005ZM287.686 78.708H288.583V85H287.803L287.686 83.934C287.335 84.662 286.464 85.156 285.476 85.156C283.994 85.156 283.188 84.142 283.188 82.608V78.695H284.098V82.322C284.098 83.817 284.761 84.35 285.762 84.35C286.971 84.35 287.686 83.544 287.686 82.049V78.708ZM290.087 81.672C290.087 79.956 291.192 78.539 293.038 78.539C294.13 78.539 294.962 79.046 295.365 79.969L295.456 78.708H296.236V84.805C296.236 86.677 295.04 87.899 293.194 87.899C291.582 87.899 290.451 86.989 290.204 85.468H291.101C291.296 86.482 292.076 87.08 293.207 87.08C294.494 87.08 295.352 86.209 295.352 84.896V83.401C294.923 84.285 294.052 84.805 292.973 84.805C291.179 84.805 290.087 83.388 290.087 81.672ZM290.984 81.659C290.984 82.946 291.777 83.999 293.103 83.999C294.468 83.999 295.274 83.011 295.274 81.659C295.274 80.32 294.494 79.332 293.116 79.332C291.764 79.332 290.984 80.385 290.984 81.659ZM302.593 78.708H303.49V85H302.71L302.593 83.934C302.242 84.662 301.371 85.156 300.383 85.156C298.901 85.156 298.095 84.142 298.095 82.608V78.695H299.005V82.322C299.005 83.817 299.668 84.35 300.669 84.35C301.878 84.35 302.593 83.544 302.593 82.049V78.708ZM304.764 83.232H305.622C305.622 83.96 306.168 84.415 307.052 84.415C308.027 84.415 308.599 83.999 308.599 83.323C308.599 82.803 308.339 82.504 307.598 82.322L306.519 82.049C305.427 81.776 304.894 81.204 304.894 80.346C304.894 79.241 305.817 78.539 307.169 78.539C308.495 78.539 309.353 79.267 309.392 80.437H308.521C308.495 79.709 307.988 79.28 307.143 79.28C306.259 79.28 305.765 79.657 305.765 80.333C305.765 80.814 306.103 81.152 306.792 81.321L307.871 81.594C308.963 81.867 309.457 82.374 309.457 83.284C309.457 84.415 308.495 85.156 307.065 85.156C305.648 85.156 304.764 84.402 304.764 83.232ZM312.441 85H311.557V79.462H310.296V78.708H311.557V76.719H312.441V78.708H313.702V79.462H312.441V85Z" fill="#585858"/>
<g clip-path="url(#clip1_498_5898)">
<path d="M325.259 79.7584L327.417 81.9167C327.742 82.2417 328.267 82.2417 328.592 81.9167L330.75 79.7584C331.275 79.2334 330.9 78.3334 330.159 78.3334H325.842C325.1 78.3334 324.734 79.2334 325.259 79.7584Z" fill="#6F6F6F"/>
</g>
<g clip-path="url(#clip2_498_5898)">
<rect x="38" y="112" width="40" height="24" rx="4" fill="#0DAA84"/>
<rect x="38" y="112" width="40" height="24" rx="4" stroke="white" stroke-width="3"/>
<rect x="78" y="112" width="264" height="24" rx="4" fill="#F96B74"/>
<rect x="78" y="112" width="264" height="24" rx="4" stroke="white" stroke-width="3"/>
</g>
<rect x="40" y="156.5" width="12" height="12" rx="4" fill="#F96B74"/>
<path d="M65.04 164.318H62.226V168H61.218V157.976H65.04C66.972 157.976 68.19 159.236 68.19 161.126C68.19 162.946 66.958 164.318 65.04 164.318ZM64.9 158.886H62.226V163.408H64.844C66.3 163.408 67.14 162.484 67.14 161.112C67.14 159.726 66.286 158.886 64.9 158.886ZM72.2188 168.168C70.2308 168.168 68.9008 166.74 68.9008 164.612C68.9008 162.498 70.2168 161.042 72.1488 161.042C73.9828 161.042 75.2288 162.344 75.2288 164.262V164.738H69.8388C69.9088 166.39 70.7768 167.342 72.2328 167.342C73.3388 167.342 74.0528 166.866 74.3048 165.97H75.2288C74.8648 167.398 73.8148 168.168 72.2188 168.168ZM72.1488 161.868C70.8748 161.868 70.0348 162.708 69.8668 164.038H74.2628C74.2628 162.736 73.4228 161.868 72.1488 161.868ZM77.8093 168H76.8433V161.224H77.6833L77.8233 162.4C78.2713 161.532 79.1673 161.042 80.1473 161.042C82.0093 161.042 82.7793 162.148 82.7793 163.856V168H81.8133V164.066C81.8133 162.484 81.0993 161.924 79.9793 161.924C78.5933 161.924 77.8093 162.932 77.8093 164.458V168ZM87.4346 168.168C85.4606 168.168 84.2986 166.656 84.2986 164.626C84.2986 162.582 85.4606 161.042 87.4766 161.042C88.5966 161.042 89.4926 161.532 89.9686 162.512V157.794H90.9346V168H90.0946L89.9966 166.614C89.5206 167.664 88.5686 168.168 87.4346 168.168ZM87.6026 167.286C89.0866 167.286 89.9546 166.166 89.9546 164.598C89.9546 163.044 89.0866 161.91 87.6026 161.91C86.1326 161.91 85.2786 163.044 85.2786 164.598C85.2786 166.166 86.1326 167.286 87.6026 167.286ZM93.4964 159.362C93.1044 159.362 92.7824 159.04 92.7824 158.648C92.7824 158.256 93.1044 157.92 93.4964 157.92C93.8884 157.92 94.2244 158.256 94.2244 158.648C94.2244 159.04 93.8884 159.362 93.4964 159.362ZM93.0204 168V161.224H93.9864V168H93.0204ZM97.0369 168H96.0709V161.224H96.9109L97.0509 162.4C97.4989 161.532 98.3949 161.042 99.3749 161.042C101.237 161.042 102.007 162.148 102.007 163.856V168H101.041V164.066C101.041 162.484 100.327 161.924 99.2069 161.924C97.8209 161.924 97.0369 162.932 97.0369 164.458V168ZM103.54 164.416C103.54 162.568 104.73 161.042 106.718 161.042C107.894 161.042 108.79 161.588 109.224 162.582L109.322 161.224H110.162V167.79C110.162 169.806 108.874 171.122 106.886 171.122C105.15 171.122 103.932 170.142 103.666 168.504H104.632C104.842 169.596 105.682 170.24 106.9 170.24C108.286 170.24 109.21 169.302 109.21 167.888V166.278C108.748 167.23 107.81 167.79 106.648 167.79C104.716 167.79 103.54 166.264 103.54 164.416ZM104.506 164.402C104.506 165.788 105.36 166.922 106.788 166.922C108.258 166.922 109.126 165.858 109.126 164.402C109.126 162.96 108.286 161.896 106.802 161.896C105.346 161.896 104.506 163.03 104.506 164.402Z" fill="#585858"/>
<path d="M271.43 168L268.91 163.604V162.568H269.75C270.086 162.568 270.38 162.521 270.632 162.428C270.893 162.325 271.108 162.181 271.276 161.994C271.453 161.807 271.575 161.583 271.64 161.322H268.91V160.286H271.626C271.57 160.043 271.472 159.829 271.332 159.642C271.201 159.455 271.024 159.311 270.8 159.208C270.585 159.096 270.324 159.04 270.016 159.04H268.91V158.004H275.224V159.04H273.026C273.185 159.217 273.315 159.409 273.418 159.614C273.53 159.819 273.605 160.043 273.642 160.286H275.224V161.322H273.67C273.577 162.013 273.311 162.554 272.872 162.946C272.433 163.329 271.869 163.59 271.178 163.73L273.922 168H271.43ZM278.798 159.376H276.558V157.766H280.52V168H278.798V159.376ZM285.764 168.168C283.622 168.168 282.208 166.796 282.208 164.724H283.986C283.986 165.886 284.672 166.572 285.806 166.572C287.01 166.572 287.78 165.788 287.78 164.542C287.78 163.352 287.066 162.54 285.834 162.54C285.05 162.54 284.336 162.932 283.972 163.464L282.39 163.128L283.65 157.766H288.984V159.418H284.938L284.392 161.546C284.882 161.224 285.498 161.042 286.198 161.042C288.242 161.042 289.6 162.428 289.6 164.444C289.6 166.656 288.046 168.168 285.764 168.168ZM293.044 167.384C293.044 168.546 292.204 169.47 291.07 169.61V168.924C291.7 168.812 292.176 168.434 292.176 167.944C292.064 168 291.938 168.028 291.77 168.028C291.224 168.028 290.776 167.622 290.776 167.062C290.776 166.39 291.21 165.942 291.84 165.942C292.54 165.942 293.044 166.516 293.044 167.384ZM294.12 162.904C294.12 159.726 295.828 157.57 298.446 157.57C301.064 157.57 302.786 159.726 302.786 162.904C302.786 166.068 301.162 168.182 298.446 168.182C295.73 168.182 294.12 166.068 294.12 162.904ZM295.884 162.904C295.884 165.27 296.836 166.6 298.446 166.6C300.07 166.6 301.022 165.27 301.022 162.904C301.022 160.482 300.07 159.152 298.446 159.152C296.836 159.152 295.884 160.482 295.884 162.904ZM310.081 164.99L307.869 168H305.825L308.275 164.738C308.023 164.808 307.757 164.85 307.505 164.85C305.391 164.85 303.963 163.366 303.963 161.294C303.963 159.11 305.587 157.584 307.771 157.584C309.983 157.584 311.635 159.208 311.635 161.308C311.635 162.54 311.229 163.436 310.081 164.99ZM309.801 161.294C309.801 160.048 308.975 159.18 307.771 159.18C306.595 159.18 305.769 160.048 305.769 161.294C305.769 162.526 306.595 163.38 307.771 163.38C308.989 163.38 309.801 162.526 309.801 161.294ZM314.869 167.384C314.869 168.546 314.029 169.47 312.895 169.61V168.924C313.525 168.812 314.001 168.434 314.001 167.944C313.889 168 313.763 168.028 313.595 168.028C313.049 168.028 312.601 167.622 312.601 167.062C312.601 166.39 313.035 165.942 313.665 165.942C314.365 165.942 314.869 166.516 314.869 167.384ZM319.761 168.168C317.619 168.168 316.205 166.796 316.205 164.724H317.983C317.983 165.886 318.669 166.572 319.803 166.572C321.007 166.572 321.777 165.788 321.777 164.542C321.777 163.352 321.063 162.54 319.831 162.54C319.047 162.54 318.333 162.932 317.969 163.464L316.387 163.128L317.647 157.766H322.981V159.418H318.935L318.389 161.546C318.879 161.224 319.495 161.042 320.195 161.042C322.239 161.042 323.597 162.428 323.597 164.444C323.597 166.656 322.043 168.168 319.761 168.168ZM324.097 157.766H331.447V159.418L327.737 168H325.875L329.655 159.418H324.097V157.766ZM335.324 162.932H334.078V161.77L336.71 159.348H332.454V157.766H338.95V159.194L336.458 161.49C338.026 161.798 339.244 162.946 339.244 164.752C339.244 166.852 337.606 168.182 335.534 168.182C333.532 168.182 331.978 166.95 331.978 164.738H333.742C333.742 165.914 334.47 166.586 335.562 166.586C336.682 166.586 337.424 165.858 337.424 164.724C337.424 163.688 336.752 162.932 335.324 162.932Z" fill="#F96B74"/>
<rect x="40" y="189.5" width="12" height="12" rx="4" fill="#0DAA84"/>
<path d="M62.226 201H61.218V190.976H64.956C66.986 190.976 68.218 192.096 68.218 193.874C68.218 195.316 67.462 196.324 66.174 196.674L68.316 201H67.196L65.152 196.842H62.226V201ZM62.226 191.886V195.932H64.984C66.37 195.932 67.182 195.176 67.182 193.902C67.182 192.6 66.328 191.886 64.956 191.886H62.226ZM72.3829 201.168C70.3949 201.168 69.0649 199.74 69.0649 197.612C69.0649 195.498 70.3809 194.042 72.3129 194.042C74.1469 194.042 75.3929 195.344 75.3929 197.262V197.738H70.0029C70.0729 199.39 70.9409 200.342 72.3969 200.342C73.5029 200.342 74.2169 199.866 74.4689 198.97H75.3929C75.0289 200.398 73.9789 201.168 72.3829 201.168ZM72.3129 194.868C71.0389 194.868 70.1989 195.708 70.0309 197.038H74.4269C74.4269 195.736 73.5869 194.868 72.3129 194.868ZM76.5314 197.626C76.5314 195.498 77.8334 194.042 79.8074 194.042C81.3754 194.042 82.5234 194.952 82.7894 196.352H81.8234C81.5714 195.414 80.7594 194.896 79.8214 194.896C78.4494 194.896 77.4834 195.946 77.4834 197.612C77.4834 199.222 78.3794 200.3 79.7514 200.3C80.7594 200.3 81.5714 199.74 81.8374 198.872H82.8174C82.4954 200.258 81.2914 201.168 79.7514 201.168C77.8334 201.168 76.5314 199.754 76.5314 197.626ZM87.1928 201.168C85.2048 201.168 83.8748 199.74 83.8748 197.612C83.8748 195.498 85.1908 194.042 87.1228 194.042C88.9568 194.042 90.2028 195.344 90.2028 197.262V197.738H84.8128C84.8828 199.39 85.7508 200.342 87.2068 200.342C88.3128 200.342 89.0268 199.866 89.2788 198.97H90.2028C89.8388 200.398 88.7888 201.168 87.1928 201.168ZM87.1228 194.868C85.8488 194.868 85.0088 195.708 84.8408 197.038H89.2368C89.2368 195.736 88.3968 194.868 87.1228 194.868ZM92.2933 192.362C91.9013 192.362 91.5793 192.04 91.5793 191.648C91.5793 191.256 91.9013 190.92 92.2933 190.92C92.6853 190.92 93.0213 191.256 93.0213 191.648C93.0213 192.04 92.6853 192.362 92.2933 192.362ZM91.8173 201V194.224H92.7833V201H91.8173ZM96.7578 201L93.9858 194.224H95.0218L96.7718 198.592C96.9538 199.082 97.1358 199.544 97.2618 199.992C97.3878 199.53 97.5698 199.082 97.7658 198.592L99.5438 194.224H100.538L97.7238 201H96.7578ZM104.288 201.168C102.3 201.168 100.97 199.74 100.97 197.612C100.97 195.498 102.286 194.042 104.218 194.042C106.052 194.042 107.298 195.344 107.298 197.262V197.738H101.908C101.978 199.39 102.846 200.342 104.302 200.342C105.408 200.342 106.122 199.866 106.374 198.97H107.298C106.934 200.398 105.884 201.168 104.288 201.168ZM104.218 194.868C102.944 194.868 102.104 195.708 101.936 197.038H106.332C106.332 195.736 105.492 194.868 104.218 194.868ZM111.572 201.168C109.598 201.168 108.436 199.656 108.436 197.626C108.436 195.582 109.598 194.042 111.614 194.042C112.734 194.042 113.63 194.532 114.106 195.512V190.794H115.072V201H114.232L114.134 199.614C113.658 200.664 112.706 201.168 111.572 201.168ZM111.74 200.286C113.224 200.286 114.092 199.166 114.092 197.598C114.092 196.044 113.224 194.91 111.74 194.91C110.27 194.91 109.416 196.044 109.416 197.598C109.416 199.166 110.27 200.286 111.74 200.286Z" fill="#585858"/>
<path d="M277.43 201L274.91 196.604V195.568H275.75C276.086 195.568 276.38 195.521 276.632 195.428C276.893 195.325 277.108 195.181 277.276 194.994C277.453 194.807 277.575 194.583 277.64 194.322H274.91V193.286H277.626C277.57 193.043 277.472 192.829 277.332 192.642C277.201 192.455 277.024 192.311 276.8 192.208C276.585 192.096 276.324 192.04 276.016 192.04H274.91V191.004H281.224V192.04H279.026C279.185 192.217 279.315 192.409 279.418 192.614C279.53 192.819 279.605 193.043 279.642 193.286H281.224V194.322H279.67C279.577 195.013 279.311 195.554 278.872 195.946C278.433 196.329 277.869 196.59 277.178 196.73L279.922 201H277.43ZM285.708 195.932H284.462V194.77L287.094 192.348H282.838V190.766H289.334V192.194L286.842 194.49C288.41 194.798 289.628 195.946 289.628 197.752C289.628 199.852 287.99 201.182 285.918 201.182C283.916 201.182 282.362 199.95 282.362 197.738H284.126C284.126 198.914 284.854 199.586 285.946 199.586C287.066 199.586 287.808 198.858 287.808 197.724C287.808 196.688 287.136 195.932 285.708 195.932ZM293.163 200.384C293.163 201.546 292.323 202.47 291.189 202.61V201.924C291.819 201.812 292.295 201.434 292.295 200.944C292.183 201 292.057 201.028 291.889 201.028C291.343 201.028 290.895 200.622 290.895 200.062C290.895 199.39 291.329 198.942 291.959 198.942C292.659 198.942 293.163 199.516 293.163 200.384ZM302.547 199.054H301.301V201H299.607V199.054H294.413V197.486L299.047 190.766H301.301V197.486H302.547V199.054ZM296.317 197.486H299.607V192.698L296.317 197.486ZM307.189 201.168C305.047 201.168 303.633 199.796 303.633 197.724H305.411C305.411 198.886 306.097 199.572 307.231 199.572C308.435 199.572 309.205 198.788 309.205 197.542C309.205 196.352 308.491 195.54 307.259 195.54C306.475 195.54 305.761 195.932 305.397 196.464L303.815 196.128L305.075 190.766H310.409V192.418H306.363L305.817 194.546C306.307 194.224 306.923 194.042 307.623 194.042C309.667 194.042 311.025 195.428 311.025 197.444C311.025 199.656 309.471 201.168 307.189 201.168ZM314.469 200.384C314.469 201.546 313.629 202.47 312.495 202.61V201.924C313.125 201.812 313.601 201.434 313.601 200.944C313.489 201 313.363 201.028 313.195 201.028C312.649 201.028 312.201 200.622 312.201 200.062C312.201 199.39 312.635 198.942 313.265 198.942C313.965 198.942 314.469 199.516 314.469 200.384ZM323.191 200.986L316.093 201V199.656L319.439 196.828C320.825 195.652 321.287 194.98 321.287 194C321.287 192.838 320.657 192.18 319.579 192.18C318.459 192.18 317.759 192.964 317.745 194.28H315.967C315.981 192.04 317.409 190.584 319.579 190.584C321.763 190.584 323.121 191.83 323.121 193.902C323.121 195.33 322.337 196.408 320.783 197.738L318.935 199.32H323.191V200.986ZM326.575 192.376H324.335V190.766H328.297V201H326.575V192.376ZM330.109 195.904C330.109 192.726 331.817 190.57 334.435 190.57C337.053 190.57 338.775 192.726 338.775 195.904C338.775 199.068 337.151 201.182 334.435 201.182C331.719 201.182 330.109 199.068 330.109 195.904ZM331.873 195.904C331.873 198.27 332.825 199.6 334.435 199.6C336.059 199.6 337.011 198.27 337.011 195.904C337.011 193.482 336.059 192.152 334.435 192.152C332.825 192.152 331.873 193.482 331.873 195.904Z" fill="#0DAA84"/>
<line x1="38" y1="221.5" x2="342" y2="221.5" stroke="#F4F4F4" stroke-dasharray="4 4"/>
<path d="M38.168 244.9V243.976H45.35V244.9H42.256V254H41.248V244.9H38.168ZM45.0825 250.612C45.0825 248.54 46.5385 247.042 48.5265 247.042C50.5145 247.042 51.9705 248.54 51.9705 250.612C51.9705 252.67 50.5145 254.168 48.5265 254.168C46.5385 254.168 45.0825 252.67 45.0825 250.612ZM46.0625 250.598C46.0625 252.194 47.0705 253.3 48.5265 253.3C49.9685 253.3 50.9905 252.194 50.9905 250.598C50.9905 249.03 49.9685 247.91 48.5265 247.91C47.0705 247.91 46.0625 249.03 46.0625 250.598ZM55.0711 254H54.1191V248.036H52.7611V247.224H54.1191V245.082H55.0711V247.224H56.4291V248.036H55.0711V254ZM59.5937 254.168C58.1517 254.168 57.2977 253.356 57.2977 252.166C57.2977 250.92 58.2497 250.136 59.8317 250.01L62.0717 249.828V249.604C62.0717 248.274 61.2737 247.854 60.2797 247.854C59.1037 247.854 58.4037 248.386 58.4037 249.296H57.5217C57.5217 247.924 58.6417 247.042 60.3077 247.042C61.8757 247.042 63.0237 247.826 63.0237 249.618V254H62.2117L62.0857 252.81C61.6657 253.664 60.7417 254.168 59.5937 254.168ZM59.8177 253.384C61.2457 253.384 62.0717 252.39 62.0717 250.92V250.556L60.0697 250.71C58.7957 250.822 58.2777 251.382 58.2777 252.138C58.2777 252.964 58.8937 253.384 59.8177 253.384ZM66.0401 254H65.0741V243.794H66.0401V254ZM71.6415 250.626C71.6415 248.498 72.9435 247.042 74.9175 247.042C76.4855 247.042 77.6335 247.952 77.8995 249.352H76.9335C76.6815 248.414 75.8695 247.896 74.9315 247.896C73.5595 247.896 72.5935 248.946 72.5935 250.612C72.5935 252.222 73.4895 253.3 74.8615 253.3C75.8695 253.3 76.6815 252.74 76.9475 251.872H77.9275C77.6055 253.258 76.4015 254.168 74.8615 254.168C72.9435 254.168 71.6415 252.754 71.6415 250.626ZM78.9849 250.612C78.9849 248.54 80.4409 247.042 82.4289 247.042C84.4169 247.042 85.8729 248.54 85.8729 250.612C85.8729 252.67 84.4169 254.168 82.4289 254.168C80.4409 254.168 78.9849 252.67 78.9849 250.612ZM79.9649 250.598C79.9649 252.194 80.9729 253.3 82.4289 253.3C83.8709 253.3 84.8929 252.194 84.8929 250.598C84.8929 249.03 83.8709 247.91 82.4289 247.91C80.9729 247.91 79.9649 249.03 79.9649 250.598ZM88.4959 254H87.5299V243.794H88.4959V254ZM91.6284 254H90.6624V243.794H91.6284V254ZM96.5949 254.168C94.6069 254.168 93.2769 252.74 93.2769 250.612C93.2769 248.498 94.5929 247.042 96.5249 247.042C98.3589 247.042 99.6049 248.344 99.6049 250.262V250.738H94.2149C94.2849 252.39 95.1529 253.342 96.6089 253.342C97.7149 253.342 98.4289 252.866 98.6809 251.97H99.6049C99.2409 253.398 98.1909 254.168 96.5949 254.168ZM96.5249 247.868C95.2509 247.868 94.4109 248.708 94.2429 250.038H98.6389C98.6389 248.736 97.7989 247.868 96.5249 247.868ZM100.743 250.626C100.743 248.498 102.045 247.042 104.019 247.042C105.587 247.042 106.735 247.952 107.001 249.352H106.035C105.783 248.414 104.971 247.896 104.033 247.896C102.661 247.896 101.695 248.946 101.695 250.612C101.695 252.222 102.591 253.3 103.963 253.3C104.971 253.3 105.783 252.74 106.049 251.872H107.029C106.707 253.258 105.503 254.168 103.963 254.168C102.045 254.168 100.743 252.754 100.743 250.626ZM110.117 254H109.165V248.036H107.807V247.224H109.165V245.082H110.117V247.224H111.475V248.036H110.117V254ZM113.279 245.362C112.887 245.362 112.565 245.04 112.565 244.648C112.565 244.256 112.887 243.92 113.279 243.92C113.671 243.92 114.007 244.256 114.007 244.648C114.007 245.04 113.671 245.362 113.279 245.362ZM112.803 254V247.224H113.769V254H112.803ZM115.377 250.612C115.377 248.54 116.833 247.042 118.821 247.042C120.809 247.042 122.265 248.54 122.265 250.612C122.265 252.67 120.809 254.168 118.821 254.168C116.833 254.168 115.377 252.67 115.377 250.612ZM116.357 250.598C116.357 252.194 117.365 253.3 118.821 253.3C120.263 253.3 121.285 252.194 121.285 250.598C121.285 249.03 120.263 247.91 118.821 247.91C117.365 247.91 116.357 249.03 116.357 250.598ZM124.846 254H123.88V247.224H124.72L124.86 248.4C125.308 247.532 126.204 247.042 127.184 247.042C129.046 247.042 129.816 248.148 129.816 249.856V254H128.85V250.066C128.85 248.484 128.136 247.924 127.016 247.924C125.63 247.924 124.846 248.932 124.846 250.458V254Z" fill="#585858"/>
<path d="M272.43 254L269.91 249.604V248.568H270.75C271.086 248.568 271.38 248.521 271.632 248.428C271.893 248.325 272.108 248.181 272.276 247.994C272.453 247.807 272.575 247.583 272.64 247.322H269.91V246.286H272.626C272.57 246.043 272.472 245.829 272.332 245.642C272.201 245.455 272.024 245.311 271.8 245.208C271.585 245.096 271.324 245.04 271.016 245.04H269.91V244.004H276.224V245.04H274.026C274.185 245.217 274.315 245.409 274.418 245.614C274.53 245.819 274.605 246.043 274.642 246.286H276.224V247.322H274.67C274.577 248.013 274.311 248.554 273.872 248.946C273.433 249.329 272.869 249.59 272.178 249.73L274.922 254H272.43ZM279.798 245.376H277.558V243.766H281.52V254H279.798V245.376ZM283.222 251.102C283.222 249.884 283.908 248.904 284.972 248.498C284.076 248.092 283.586 247.322 283.586 246.328C283.586 244.704 285.028 243.584 287.142 243.584C289.242 243.584 290.656 244.69 290.656 246.356C290.656 247.35 290.152 248.12 289.242 248.498C290.32 248.876 291.02 249.87 291.02 251.102C291.02 252.95 289.494 254.168 287.114 254.168C284.748 254.168 283.222 252.964 283.222 251.102ZM285.21 246.482C285.21 247.336 285.952 247.882 287.114 247.882C288.262 247.882 288.99 247.35 288.99 246.496C288.99 245.642 288.262 245.11 287.114 245.11C285.952 245.11 285.21 245.642 285.21 246.482ZM284.972 250.976C284.972 251.97 285.798 252.586 287.128 252.586C288.43 252.586 289.256 251.97 289.256 250.976C289.256 249.982 288.43 249.366 287.114 249.366C285.798 249.366 284.972 249.982 284.972 250.976ZM294.755 253.384C294.755 254.546 293.915 255.47 292.781 255.61V254.924C293.411 254.812 293.887 254.434 293.887 253.944C293.775 254 293.649 254.028 293.481 254.028C292.935 254.028 292.487 253.622 292.487 253.062C292.487 252.39 292.921 251.942 293.551 251.942C294.251 251.942 294.755 252.516 294.755 253.384ZM299.646 254.168C297.504 254.168 296.09 252.796 296.09 250.724H297.868C297.868 251.886 298.554 252.572 299.688 252.572C300.892 252.572 301.662 251.788 301.662 250.542C301.662 249.352 300.948 248.54 299.716 248.54C298.932 248.54 298.218 248.932 297.854 249.464L296.272 249.128L297.532 243.766H302.866V245.418H298.82L298.274 247.546C298.764 247.224 299.38 247.042 300.08 247.042C302.124 247.042 303.482 248.428 303.482 250.444C303.482 252.656 301.928 254.168 299.646 254.168ZM312.507 252.054H311.261V254H309.567V252.054H304.373V250.486L309.007 243.766H311.261V250.486H312.507V252.054ZM306.277 250.486H309.567V245.698L306.277 250.486ZM316.047 253.384C316.047 254.546 315.207 255.47 314.073 255.61V254.924C314.703 254.812 315.179 254.434 315.179 253.944C315.067 254 314.941 254.028 314.773 254.028C314.227 254.028 313.779 253.622 313.779 253.062C313.779 252.39 314.213 251.942 314.843 251.942C315.543 251.942 316.047 252.516 316.047 253.384ZM316.701 243.766H324.051V245.418L320.341 254H318.479L322.259 245.418H316.701V243.766ZM324.658 251.102C324.658 249.884 325.344 248.904 326.408 248.498C325.512 248.092 325.022 247.322 325.022 246.328C325.022 244.704 326.464 243.584 328.578 243.584C330.678 243.584 332.092 244.69 332.092 246.356C332.092 247.35 331.588 248.12 330.678 248.498C331.756 248.876 332.456 249.87 332.456 251.102C332.456 252.95 330.93 254.168 328.55 254.168C326.184 254.168 324.658 252.964 324.658 251.102ZM326.646 246.482C326.646 247.336 327.388 247.882 328.55 247.882C329.698 247.882 330.426 247.35 330.426 246.496C330.426 245.642 329.698 245.11 328.55 245.11C327.388 245.11 326.646 245.642 326.646 246.482ZM326.408 250.976C326.408 251.97 327.234 252.586 328.564 252.586C329.866 252.586 330.692 251.97 330.692 250.976C330.692 249.982 329.866 249.366 328.55 249.366C327.234 249.366 326.408 249.982 326.408 250.976ZM336.83 248.932H335.584V247.77L338.216 245.348H333.96V243.766H340.456V245.194L337.964 247.49C339.532 247.798 340.75 248.946 340.75 250.752C340.75 252.852 339.112 254.182 337.04 254.182C335.038 254.182 333.484 252.95 333.484 250.738H335.248C335.248 251.914 335.976 252.586 337.068 252.586C338.188 252.586 338.93 251.858 338.93 250.724C338.93 249.688 338.258 248.932 336.83 248.932Z" fill="#3E3E3E"/>
<rect x="38.5" y="275.5" width="303" height="40" rx="3.5" fill="#F4F4F4"/>
<rect x="38.5" y="275.5" width="303" height="40" rx="3.5" stroke="#F4F4F4"/>
<path d="M70 295.5C70 301.023 65.5228 305.5 60 305.5C54.4778 305.5 50 301.023 50 295.5C50 289.978 54.4778 285.5 60 285.5C65.5228 285.5 70 289.978 70 295.5Z" fill="#FFCC4D"/>
<path d="M56.3889 295.502C57.156 295.502 57.7778 294.632 57.7778 293.558C57.7778 292.484 57.156 291.613 56.3889 291.613C55.6218 291.613 55 292.484 55 293.558C55 294.632 55.6218 295.502 56.3889 295.502Z" fill="#664500"/>
<path d="M63.6115 295.502C64.3786 295.502 65.0004 294.632 65.0004 293.558C65.0004 292.484 64.3786 291.613 63.6115 291.613C62.8445 291.613 62.2227 292.484 62.2227 293.558C62.2227 294.632 62.8445 295.502 63.6115 295.502Z" fill="#664500"/>
<path d="M54.8145 300.982C54.9134 301.072 55.0612 301.077 55.1673 300.998C55.189 300.982 57.3462 299.387 60.0006 299.387C62.6484 299.387 64.8129 300.982 64.834 300.998C64.9401 301.077 65.0879 301.071 65.1867 300.982C65.2851 300.893 65.3073 300.747 65.239 300.633C65.1673 300.515 63.4517 297.721 60.0006 297.721C56.5495 297.721 54.8334 300.514 54.7623 300.633C54.694 300.747 54.7156 300.893 54.8145 300.982Z" fill="#664500"/>
<path d="M82.27 301H79.218V290.976H82.242C85.266 290.976 87.282 292.992 87.282 295.988C87.282 298.984 85.28 301 82.27 301ZM82.2 291.9H80.226V300.076H82.228C84.678 300.076 86.246 298.48 86.246 295.988C86.246 293.482 84.678 291.9 82.2 291.9ZM93.7228 294.224H94.6888V301H93.8488L93.7228 299.852C93.3448 300.636 92.4068 301.168 91.3428 301.168C89.7468 301.168 88.8788 300.076 88.8788 298.424V294.21H89.8588V298.116C89.8588 299.726 90.5728 300.3 91.6508 300.3C92.9528 300.3 93.7228 299.432 93.7228 297.822V294.224ZM99.4763 301.168C97.4883 301.168 96.1583 299.74 96.1583 297.612C96.1583 295.498 97.4743 294.042 99.4063 294.042C101.24 294.042 102.486 295.344 102.486 297.262V297.738H97.0963C97.1663 299.39 98.0343 300.342 99.4903 300.342C100.596 300.342 101.31 299.866 101.562 298.97H102.486C102.122 300.398 101.072 301.168 99.4763 301.168ZM99.4063 294.868C98.1323 294.868 97.2923 295.708 97.1243 297.038H101.52C101.52 295.736 100.68 294.868 99.4063 294.868ZM103.527 299.096H104.451C104.451 299.88 105.039 300.37 105.991 300.37C107.041 300.37 107.657 299.922 107.657 299.194C107.657 298.634 107.377 298.312 106.579 298.116L105.417 297.822C104.241 297.528 103.667 296.912 103.667 295.988C103.667 294.798 104.661 294.042 106.117 294.042C107.545 294.042 108.469 294.826 108.511 296.086H107.573C107.545 295.302 106.999 294.84 106.089 294.84C105.137 294.84 104.605 295.246 104.605 295.974C104.605 296.492 104.969 296.856 105.711 297.038L106.873 297.332C108.049 297.626 108.581 298.172 108.581 299.152C108.581 300.37 107.545 301.168 106.005 301.168C104.479 301.168 103.527 300.356 103.527 299.096ZM114.194 303.954V294.224H115.034L115.132 295.596C115.608 294.546 116.56 294.042 117.694 294.042C119.654 294.042 120.83 295.54 120.83 297.584C120.83 299.628 119.696 301.168 117.694 301.168C116.546 301.168 115.636 300.678 115.16 299.698V303.954H114.194ZM115.174 297.612C115.174 299.166 116.042 300.3 117.526 300.3C118.996 300.3 119.85 299.166 119.85 297.612C119.85 296.044 118.996 294.924 117.526 294.924C116.042 294.924 115.174 296.044 115.174 297.612ZM125.282 301.168C123.294 301.168 121.964 299.74 121.964 297.612C121.964 295.498 123.28 294.042 125.212 294.042C127.046 294.042 128.292 295.344 128.292 297.262V297.738H122.902C122.972 299.39 123.84 300.342 125.296 300.342C126.402 300.342 127.116 299.866 127.368 298.97H128.292C127.928 300.398 126.878 301.168 125.282 301.168ZM125.212 294.868C123.938 294.868 123.098 295.708 122.93 297.038H127.326C127.326 295.736 126.486 294.868 125.212 294.868ZM130.872 301H129.906V294.224H130.746L130.886 295.4C131.334 294.532 132.23 294.042 133.21 294.042C135.072 294.042 135.842 295.148 135.842 296.856V301H134.876V297.066C134.876 295.484 134.162 294.924 133.042 294.924C131.656 294.924 130.872 295.932 130.872 297.458V301ZM140.498 301.168C138.524 301.168 137.362 299.656 137.362 297.626C137.362 295.582 138.524 294.042 140.54 294.042C141.66 294.042 142.556 294.532 143.032 295.512V290.794H143.998V301H143.158L143.06 299.614C142.584 300.664 141.632 301.168 140.498 301.168ZM140.666 300.286C142.15 300.286 143.018 299.166 143.018 297.598C143.018 296.044 142.15 294.91 140.666 294.91C139.196 294.91 138.342 296.044 138.342 297.598C138.342 299.166 139.196 300.286 140.666 300.286ZM146.559 292.362C146.167 292.362 145.845 292.04 145.845 291.648C145.845 291.256 146.167 290.92 146.559 290.92C146.951 290.92 147.287 291.256 147.287 291.648C147.287 292.04 146.951 292.362 146.559 292.362ZM146.083 301V294.224H147.049V301H146.083ZM150.1 301H149.134V294.224H149.974L150.114 295.4C150.562 294.532 151.458 294.042 152.438 294.042C154.3 294.042 155.07 295.148 155.07 296.856V301H154.104V297.066C154.104 295.484 153.39 294.924 152.27 294.924C150.884 294.924 150.1 295.932 150.1 297.458V301ZM156.603 297.416C156.603 295.568 157.793 294.042 159.781 294.042C160.957 294.042 161.853 294.588 162.287 295.582L162.385 294.224H163.225V300.79C163.225 302.806 161.937 304.122 159.949 304.122C158.213 304.122 156.995 303.142 156.729 301.504H157.695C157.905 302.596 158.745 303.24 159.963 303.24C161.349 303.24 162.273 302.302 162.273 300.888V299.278C161.811 300.23 160.873 300.79 159.711 300.79C157.779 300.79 156.603 299.264 156.603 297.416ZM157.569 297.402C157.569 298.788 158.423 299.922 159.851 299.922C161.321 299.922 162.189 298.858 162.189 297.402C162.189 295.96 161.349 294.896 159.865 294.896C158.409 294.896 157.569 296.03 157.569 297.402ZM168.508 294.224H169.544V292.908C169.544 291.382 170.384 290.794 171.42 290.794C171.658 290.794 171.938 290.808 172.162 290.85V291.676H171.588C170.734 291.676 170.51 292.11 170.51 292.908V294.224H172.106V295.036H170.51V301H169.544V295.036H168.508V294.224ZM177.032 294.14V295.008H176.5C175.254 295.008 174.456 295.848 174.456 297.136V301H173.49V294.224H174.4L174.47 295.274C174.736 294.546 175.45 294.07 176.402 294.07C176.612 294.07 176.794 294.084 177.032 294.14ZM177.65 297.612C177.65 295.54 179.106 294.042 181.094 294.042C183.082 294.042 184.538 295.54 184.538 297.612C184.538 299.67 183.082 301.168 181.094 301.168C179.106 301.168 177.65 299.67 177.65 297.612ZM178.63 297.598C178.63 299.194 179.638 300.3 181.094 300.3C182.536 300.3 183.558 299.194 183.558 297.598C183.558 296.03 182.536 294.91 181.094 294.91C179.638 294.91 178.63 296.03 178.63 297.598ZM187.119 301H186.153V294.224H186.993L187.105 295.19C187.441 294.476 188.197 294.042 189.149 294.042C190.213 294.042 191.011 294.602 191.333 295.484C191.641 294.602 192.467 294.042 193.559 294.042C195.029 294.042 195.995 294.994 195.995 296.562V301H195.057V296.758C195.057 295.596 194.413 294.91 193.377 294.91C192.243 294.91 191.571 295.764 191.571 296.814V301H190.619V296.744C190.619 295.596 189.961 294.924 188.939 294.924C187.805 294.924 187.119 295.764 187.119 296.8V301ZM203.615 292.376H201.375V290.766H205.337V301H203.615V292.376ZM207.149 295.904C207.149 292.726 208.857 290.57 211.475 290.57C214.093 290.57 215.815 292.726 215.815 295.904C215.815 299.068 214.191 301.182 211.475 301.182C208.759 301.182 207.149 299.068 207.149 295.904ZM208.913 295.904C208.913 298.27 209.865 299.6 211.475 299.6C213.099 299.6 214.051 298.27 214.051 295.904C214.051 293.482 213.099 292.152 211.475 292.152C209.865 292.152 208.913 293.482 208.913 295.904ZM216.408 290.766H223.758V292.418L220.048 301H218.186L221.966 292.418H216.408V290.766ZM230.991 301H229.283V295.512H227.953V294.084H229.283V291.928H230.991V294.084H232.335V295.512H230.991V301ZM236.492 301.182C234.434 301.182 232.992 299.684 232.992 297.542C232.992 295.372 234.406 293.874 236.436 293.874C238.508 293.874 239.824 295.26 239.824 297.416V297.934L234.616 297.948C234.742 299.166 235.386 299.782 236.52 299.782C237.458 299.782 238.074 299.418 238.27 298.76H239.852C239.558 300.272 238.298 301.182 236.492 301.182ZM236.45 295.274C235.442 295.274 234.826 295.82 234.658 296.856H238.13C238.13 295.904 237.472 295.274 236.45 295.274ZM242.969 301H241.261V294.084H242.843L242.983 294.98C243.417 294.28 244.257 293.874 245.195 293.874C246.931 293.874 247.827 294.952 247.827 296.744V301H246.119V297.15C246.119 295.988 245.545 295.428 244.663 295.428C243.613 295.428 242.969 296.156 242.969 297.276V301ZM251.633 301.182C250.163 301.182 249.267 300.328 249.267 299.026C249.267 297.752 250.191 296.954 251.829 296.828L253.901 296.674V296.52C253.901 295.582 253.341 295.204 252.473 295.204C251.465 295.204 250.905 295.624 250.905 296.352H249.449C249.449 294.854 250.681 293.874 252.557 293.874C254.419 293.874 255.567 294.882 255.567 296.8V301H254.069L253.943 299.978C253.649 300.692 252.711 301.182 251.633 301.182ZM252.193 299.894C253.243 299.894 253.915 299.264 253.915 298.2V297.836L252.473 297.948C251.409 298.046 251.003 298.396 251.003 298.956C251.003 299.586 251.423 299.894 252.193 299.894ZM259.023 301H257.315V294.084H258.897L259.037 294.98C259.471 294.28 260.311 293.874 261.249 293.874C262.985 293.874 263.881 294.952 263.881 296.744V301H262.173V297.15C262.173 295.988 261.599 295.428 260.717 295.428C259.667 295.428 259.023 296.156 259.023 297.276V301ZM267.981 301H266.273V295.512H264.943V294.084H266.273V291.928H267.981V294.084H269.325V295.512H267.981V301ZM269.925 298.9H271.549C271.563 299.502 272.011 299.88 272.795 299.88C273.593 299.88 274.027 299.558 274.027 299.054C274.027 298.704 273.845 298.452 273.229 298.312L271.983 298.018C270.737 297.738 270.135 297.15 270.135 296.044C270.135 294.686 271.283 293.874 272.879 293.874C274.433 293.874 275.483 294.77 275.497 296.114H273.873C273.859 295.526 273.467 295.148 272.809 295.148C272.137 295.148 271.745 295.456 271.745 295.974C271.745 296.366 272.053 296.618 272.641 296.758L273.887 297.052C275.049 297.318 275.637 297.85 275.637 298.914C275.637 300.314 274.447 301.182 272.739 301.182C271.017 301.182 269.925 300.258 269.925 298.9Z" fill="#585858"/>
<g clip-path="url(#clip3_498_5898)">
<path d="M317.74 291.092C317.415 291.417 317.415 291.942 317.74 292.267L320.973 295.5L317.74 298.733C317.415 299.058 317.415 299.583 317.74 299.908C318.065 300.233 318.59 300.233 318.915 299.908L322.74 296.083C323.065 295.758 323.065 295.233 322.74 294.908L318.915 291.083C318.598 290.767 318.065 290.767 317.74 291.092Z" fill="#6F6F6F"/>
</g>
</g>
</g>
<defs>
<filter id="filter0_d_498_5898" x="22" y="45" width="336" height="292" filterUnits="userSpaceOnUse" color-interpolation-filters="sRGB">
<feFlood flood-opacity="0" result="BackgroundImageFix"/>
<feColorMatrix in="SourceAlpha" type="matrix" values="0 0 0 0 0 0 0 0 0 0 0 0 0 0 0 0 0 0 127 0" result="hardAlpha"/>
<feOffset dy="1"/>
<feGaussianBlur stdDeviation="2"/>
<feComposite in2="hardAlpha" operator="out"/>
<feColorMatrix type="matrix" values="0 0 0 0 0.838184 0 0 0 0 0.838184 0 0 0 0 0.838184 0 0 0 0.25 0"/>
<feBlend mode="normal" in2="BackgroundImageFix" result="effect1_dropShadow_498_5898"/>
<feBlend mode="normal" in="SourceGraphic" in2="effect1_dropShadow_498_5898" result="shape"/>
</filter>
<clipPath id="clip0_498_5898">
<rect x="38" y="64" width="304" height="252" rx="4" fill="white"/>
</clipPath>
<clipPath id="clip1_498_5898">
<rect width="20" height="20" fill="white" transform="translate(318 70)"/>
</clipPath>
<clipPath id="clip2_498_5898">
<rect width="304" height="24" fill="white" transform="translate(38 112)"/>
</clipPath>
<clipPath id="clip3_498_5898">
<rect width="20" height="20" fill="white" transform="translate(310 285.5)"/>
</clipPath>
</defs>
</svg>
