<svg width="380" height="380" viewBox="0 0 380 380" fill="none" xmlns="http://www.w3.org/2000/svg">
<rect width="380" height="380" rx="12" fill="#F6F6F6"/>
<g filter="url(#filter0_d_539_6284)">
<g clip-path="url(#clip0_539_6284)">
<path d="M30 30.1111C30 26.1837 33.1838 23 37.1111 23H342.889C346.816 23 350 26.1838 350 30.1111V357.556H30V30.1111Z" fill="white"/>
<path d="M44.7773 45.7271C44.7773 45.1202 44.9338 44.5845 45.2467 44.1199C45.5595 43.6554 45.991 43.2951 46.5409 43.0391C47.1003 42.7736 47.7403 42.6408 48.4609 42.6408C49.1625 42.6408 49.7693 42.7641 50.2813 43.0106C50.7933 43.2571 51.1915 43.6079 51.476 44.0631C51.7699 44.5182 51.9264 45.0539 51.9453 45.6702H50.1675C50.1486 45.2245 49.9827 44.8737 49.6698 44.6177C49.3664 44.3617 48.9587 44.2337 48.4467 44.2337C47.8778 44.2337 47.4179 44.3617 47.0671 44.6177C46.7258 44.8737 46.5551 45.2245 46.5551 45.6702C46.5551 46.0494 46.6594 46.3481 46.868 46.5662C47.0766 46.7842 47.399 46.9407 47.8351 47.0355L49.4849 47.4053C50.3667 47.5949 51.0256 47.922 51.4618 48.3866C51.8979 48.8417 52.116 49.458 52.116 50.2355C52.116 50.8708 51.9595 51.4302 51.6467 51.9137C51.3338 52.3878 50.8929 52.7576 50.324 53.0231C49.7551 53.2791 49.0914 53.4071 48.3329 53.4071C47.6028 53.4071 46.9628 53.2838 46.4129 53.0373C45.863 52.7908 45.4315 52.4399 45.1187 51.9848C44.8152 51.5297 44.6541 50.994 44.6351 50.3777H46.4271C46.4271 50.8234 46.5978 51.1742 46.9391 51.4302C47.2804 51.6862 47.7498 51.8142 48.3471 51.8142C48.9539 51.8142 49.4375 51.6862 49.7978 51.4302C50.1581 51.1742 50.3382 50.8281 50.3382 50.3919C50.3382 50.0316 50.2387 49.7472 50.0395 49.5386C49.8499 49.3205 49.5418 49.1641 49.1151 49.0693L47.4653 48.6995C46.5835 48.5099 45.9151 48.1685 45.46 47.6755C45.0049 47.173 44.7773 46.5235 44.7773 45.7271ZM56.6507 53.4071C55.9585 53.4071 55.3422 53.2506 54.8018 52.9377C54.2708 52.6154 53.8536 52.1792 53.5502 51.6293C53.2468 51.0699 53.0951 50.4299 53.0951 49.7093C53.0951 48.9792 53.2421 48.3345 53.536 47.7751C53.8299 47.2156 54.2376 46.7795 54.7591 46.4666C55.2901 46.1537 55.9016 45.9973 56.5938 45.9973C57.2954 45.9973 57.8975 46.1442 58.4 46.4382C58.912 46.7321 59.3102 47.1445 59.5947 47.6755C59.8791 48.2065 60.0213 48.837 60.0213 49.5671V50.0933L53.9911 50.1075L54.0195 49.0266H58.3289C58.3289 48.5241 58.1724 48.1259 57.8595 47.8319C57.5467 47.538 57.1295 47.3911 56.608 47.3911C56.1908 47.3911 55.84 47.4764 55.5555 47.6471C55.2806 47.8177 55.0672 48.0737 54.9155 48.4151C54.7733 48.7564 54.7022 49.1783 54.7022 49.6808C54.7022 50.4488 54.8681 51.0319 55.2 51.4302C55.5318 51.8189 56.0249 52.0133 56.6791 52.0133C57.1532 52.0133 57.5419 51.9232 57.8453 51.7431C58.1582 51.5629 58.3621 51.3022 58.4569 50.9608H60.0355C59.8838 51.7194 59.5093 52.3167 58.912 52.7528C58.3147 53.189 57.5609 53.4071 56.6507 53.4071ZM63.1312 53.2222H61.4388V42.6408H63.1312V53.2222ZM68.0951 53.4071C67.403 53.4071 66.7867 53.2506 66.2462 52.9377C65.7152 52.6154 65.2981 52.1792 64.9947 51.6293C64.6912 51.0699 64.5395 50.4299 64.5395 49.7093C64.5395 48.9792 64.6865 48.3345 64.9804 47.7751C65.2744 47.2156 65.6821 46.7795 66.2035 46.4666C66.7345 46.1537 67.3461 45.9973 68.0382 45.9973C68.7398 45.9973 69.3419 46.1442 69.8444 46.4382C70.3564 46.7321 70.7547 47.1445 71.0391 47.6755C71.3235 48.2065 71.4658 48.837 71.4658 49.5671V50.0933L65.4355 50.1075L65.464 49.0266H69.7733C69.7733 48.5241 69.6169 48.1259 69.304 47.8319C68.9911 47.538 68.5739 47.3911 68.0524 47.3911C67.6352 47.3911 67.2844 47.4764 67 47.6471C66.725 47.8177 66.5117 48.0737 66.36 48.4151C66.2178 48.7564 66.1467 49.1783 66.1467 49.6808C66.1467 50.4488 66.3126 51.0319 66.6444 51.4302C66.9763 51.8189 67.4693 52.0133 68.1235 52.0133C68.5976 52.0133 68.9864 51.9232 69.2898 51.7431C69.6027 51.5629 69.8065 51.3022 69.9013 50.9608H71.48C71.3283 51.7194 70.9538 52.3167 70.3564 52.7528C69.7591 53.189 69.0053 53.4071 68.0951 53.4071ZM72.4423 49.7093C72.4423 48.9792 72.5893 48.3345 72.8832 47.7751C73.1866 47.2156 73.5991 46.7795 74.1205 46.4666C74.6515 46.1537 75.2631 45.9973 75.9552 45.9973C76.9034 45.9973 77.6808 46.2438 78.2877 46.7368C78.8945 47.2299 79.2453 47.8936 79.3401 48.7279H77.6334C77.5386 48.3202 77.349 48.0168 77.0645 47.8177C76.7801 47.6091 76.4293 47.5048 76.0121 47.5048C75.6423 47.5048 75.3152 47.5949 75.0308 47.7751C74.7463 47.9552 74.5235 48.2112 74.3623 48.5431C74.2106 48.8654 74.1348 49.2494 74.1348 49.6951C74.1348 50.1407 74.2059 50.5294 74.3481 50.8613C74.4998 51.1836 74.7131 51.4349 74.9881 51.6151C75.2631 51.7952 75.5902 51.8853 75.9694 51.8853C76.4056 51.8853 76.7706 51.781 77.0645 51.5724C77.3585 51.3543 77.5528 51.0509 77.6477 50.6622H79.3543C79.2785 51.2121 79.0888 51.6909 78.7854 52.0986C78.482 52.5063 78.0838 52.8287 77.5908 53.0657C77.1072 53.2933 76.5668 53.4071 75.9694 53.4071C75.2583 53.4071 74.6373 53.2554 74.1063 52.9519C73.5754 52.6391 73.1629 52.2076 72.869 51.6577C72.5845 51.0983 72.4423 50.4488 72.4423 49.7093ZM79.9634 46.1964H84.3723V47.6186H79.9634V46.1964ZM83.0212 53.2222H81.3288V44.0062H83.0212V53.2222ZM90.309 46.1964L92.5988 52.7102L91.6743 54.4311L88.5028 46.1964H90.309ZM88.6877 56.4648V55.0568H89.7117C89.9392 55.0568 90.1383 55.0284 90.309 54.9715C90.4891 54.9241 90.6456 54.8293 90.7783 54.6871C90.9111 54.5543 91.0296 54.3505 91.1339 54.0755L94.0352 46.1964H95.7988L92.3712 54.7866C92.1152 55.4314 91.7928 55.8959 91.4041 56.1804C91.0154 56.4743 90.5365 56.6213 89.9677 56.6213C89.7306 56.6213 89.5031 56.6071 89.285 56.5786C89.0764 56.5596 88.8773 56.5217 88.6877 56.4648ZM96.0534 49.7093C96.0534 48.9792 96.2146 48.3345 96.537 47.7751C96.8594 47.2156 97.3002 46.7795 97.8597 46.4666C98.4285 46.1537 99.078 45.9973 99.8081 45.9973C100.529 45.9973 101.169 46.1537 101.728 46.4666C102.288 46.7795 102.728 47.2156 103.051 47.7751C103.383 48.3345 103.549 48.9792 103.549 49.7093C103.549 50.4299 103.383 51.0699 103.051 51.6293C102.728 52.1792 102.288 52.6106 101.728 52.9235C101.169 53.2364 100.529 53.3928 99.8081 53.3928C99.078 53.3928 98.4285 53.2364 97.8597 52.9235C97.3002 52.6106 96.8594 52.1792 96.537 51.6293C96.2146 51.0699 96.0534 50.4299 96.0534 49.7093ZM97.7601 49.6951C97.7601 50.1217 97.8454 50.501 98.0161 50.8328C98.1962 51.1647 98.438 51.4207 98.7414 51.6008C99.0448 51.781 99.4004 51.8711 99.8081 51.8711C100.206 51.8711 100.557 51.781 100.861 51.6008C101.164 51.4207 101.401 51.1647 101.572 50.8328C101.752 50.501 101.842 50.1217 101.842 49.6951C101.842 49.2589 101.752 48.8796 101.572 48.5573C101.401 48.2349 101.164 47.9836 100.861 47.8035C100.557 47.6139 100.206 47.5191 99.8081 47.5191C99.4004 47.5191 99.0448 47.6139 98.7414 47.8035C98.438 47.9836 98.1962 48.2349 98.0161 48.5573C97.8454 48.8796 97.7601 49.2589 97.7601 49.6951ZM109.522 46.1964H111.215V53.2222H109.65L109.508 52.2693C109.309 52.6106 108.996 52.8856 108.569 53.0942C108.152 53.3028 107.711 53.4071 107.247 53.4071C106.431 53.4071 105.796 53.1511 105.341 52.6391C104.895 52.1271 104.673 51.4444 104.673 50.5911V46.1964H106.365V49.9937C106.365 50.6669 106.493 51.1552 106.749 51.4586C107.014 51.7525 107.389 51.8995 107.873 51.8995C108.432 51.8995 108.844 51.7336 109.11 51.4017C109.385 51.0699 109.522 50.5626 109.522 49.8799V46.1964ZM117.402 46.1679V47.7466H116.762C116.127 47.7466 115.629 47.9173 115.269 48.2586C114.908 48.5999 114.728 49.1119 114.728 49.7946V53.2222H113.036V46.2106H114.629L114.757 47.6613H114.6C114.695 47.1967 114.918 46.8174 115.269 46.5235C115.619 46.2296 116.074 46.0826 116.634 46.0826C116.757 46.0826 116.88 46.0921 117.004 46.1111C117.127 46.1205 117.26 46.1395 117.402 46.1679ZM122.425 56.4648V46.1964H123.989L124.089 47.2915C124.307 46.8743 124.634 46.5567 125.07 46.3386C125.506 46.1111 125.99 45.9973 126.521 45.9973C127.184 45.9973 127.763 46.149 128.256 46.4524C128.749 46.7463 129.128 47.1682 129.393 47.7182C129.668 48.2586 129.806 48.8986 129.806 49.6382C129.806 50.3588 129.678 51.0035 129.422 51.5724C129.166 52.1413 128.791 52.5916 128.298 52.9235C127.815 53.2459 127.227 53.4071 126.535 53.4071C126.004 53.4071 125.52 53.3075 125.084 53.1084C124.657 52.8998 124.335 52.6154 124.117 52.2551V56.4648H122.425ZM124.131 49.7093C124.131 50.1359 124.212 50.5152 124.373 50.8471C124.534 51.1694 124.766 51.4254 125.07 51.6151C125.373 51.7952 125.729 51.8853 126.137 51.8853C126.544 51.8853 126.895 51.7905 127.189 51.6008C127.483 51.4112 127.706 51.1552 127.857 50.8328C128.019 50.5105 128.099 50.1359 128.099 49.7093C128.099 49.2826 128.019 48.9081 127.857 48.5857C127.706 48.2634 127.483 48.0121 127.189 47.8319C126.895 47.6423 126.544 47.5475 126.137 47.5475C125.729 47.5475 125.373 47.6376 125.07 47.8177C124.766 47.9979 124.534 48.2539 124.373 48.5857C124.212 48.9081 124.131 49.2826 124.131 49.7093ZM135.569 46.1679V47.7466H134.929C134.293 47.7466 133.796 47.9173 133.435 48.2586C133.075 48.5999 132.895 49.1119 132.895 49.7946V53.2222H131.202V46.2106H132.795L132.923 47.6613H132.767C132.862 47.1967 133.084 46.8174 133.435 46.5235C133.786 46.2296 134.241 46.0826 134.801 46.0826C134.924 46.0826 135.047 46.0921 135.17 46.1111C135.294 46.1205 135.426 46.1395 135.569 46.1679ZM139.651 53.4071C138.959 53.4071 138.342 53.2506 137.802 52.9377C137.271 52.6154 136.854 52.1792 136.55 51.6293C136.247 51.0699 136.095 50.4299 136.095 49.7093C136.095 48.9792 136.242 48.3345 136.536 47.7751C136.83 47.2156 137.238 46.7795 137.759 46.4666C138.29 46.1537 138.902 45.9973 139.594 45.9973C140.295 45.9973 140.897 46.1442 141.4 46.4382C141.912 46.7321 142.31 47.1445 142.595 47.6755C142.879 48.2065 143.021 48.837 143.021 49.5671V50.0933L136.991 50.1075L137.02 49.0266H141.329C141.329 48.5241 141.172 48.1259 140.86 47.8319C140.547 47.538 140.129 47.3911 139.608 47.3911C139.191 47.3911 138.84 47.4764 138.556 47.6471C138.281 47.8177 138.067 48.0737 137.916 48.4151C137.773 48.7564 137.702 49.1783 137.702 49.6808C137.702 50.4488 137.868 51.0319 138.2 51.4302C138.532 51.8189 139.025 52.0133 139.679 52.0133C140.153 52.0133 140.542 51.9232 140.845 51.7431C141.158 51.5629 141.362 51.3022 141.457 50.9608H143.036C142.884 51.7194 142.509 52.3167 141.912 52.7528C141.315 53.189 140.561 53.4071 139.651 53.4071ZM143.713 46.1964H148.094V47.6186H143.713V46.1964ZM148.108 42.7119V44.1768C148.013 44.1768 147.914 44.1768 147.809 44.1768C147.705 44.1768 147.606 44.1768 147.511 44.1768C147.065 44.1768 146.771 44.2811 146.629 44.4897C146.487 44.6983 146.416 44.9733 146.416 45.3146V53.2222H144.723V45.3146C144.723 44.6888 144.828 44.1816 145.036 43.7928C145.245 43.3946 145.534 43.1054 145.904 42.9253C146.283 42.7356 146.724 42.6408 147.226 42.6408C147.359 42.6408 147.501 42.6503 147.653 42.6693C147.814 42.6788 147.966 42.693 148.108 42.7119ZM152.137 53.4071C151.445 53.4071 150.828 53.2506 150.288 52.9377C149.757 52.6154 149.34 52.1792 149.036 51.6293C148.733 51.0699 148.581 50.4299 148.581 49.7093C148.581 48.9792 148.728 48.3345 149.022 47.7751C149.316 47.2156 149.724 46.7795 150.245 46.4666C150.776 46.1537 151.388 45.9973 152.08 45.9973C152.782 45.9973 153.384 46.1442 153.886 46.4382C154.398 46.7321 154.796 47.1445 155.081 47.6755C155.365 48.2065 155.507 48.837 155.507 49.5671V50.0933L149.477 50.1075L149.506 49.0266H153.815C153.815 48.5241 153.659 48.1259 153.346 47.8319C153.033 47.538 152.616 47.3911 152.094 47.3911C151.677 47.3911 151.326 47.4764 151.042 47.6471C150.767 47.8177 150.553 48.0737 150.402 48.4151C150.259 48.7564 150.188 49.1783 150.188 49.6808C150.188 50.4488 150.354 51.0319 150.686 51.4302C151.018 51.8189 151.511 52.0133 152.165 52.0133C152.639 52.0133 153.028 51.9232 153.331 51.7431C153.644 51.5629 153.848 51.3022 153.943 50.9608H155.522C155.37 51.7194 154.995 52.3167 154.398 52.7528C153.801 53.189 153.047 53.4071 152.137 53.4071ZM161.277 46.1679V47.7466H160.637C160.002 47.7466 159.504 47.9173 159.144 48.2586C158.783 48.5999 158.603 49.1119 158.603 49.7946V53.2222H156.911V46.2106H158.504L158.632 47.6613H158.475C158.57 47.1967 158.793 46.8174 159.144 46.5235C159.494 46.2296 159.949 46.0826 160.509 46.0826C160.632 46.0826 160.755 46.0921 160.879 46.1111C161.002 46.1205 161.135 46.1395 161.277 46.1679ZM166.832 46.1679V47.7466H166.192C165.557 47.7466 165.059 47.9173 164.699 48.2586C164.339 48.5999 164.159 49.1119 164.159 49.7946V53.2222H162.466V46.2106H164.059L164.187 47.6613H164.031C164.125 47.1967 164.348 46.8174 164.699 46.5235C165.05 46.2296 165.505 46.0826 166.064 46.0826C166.188 46.0826 166.311 46.0921 166.434 46.1111C166.557 46.1205 166.69 46.1395 166.832 46.1679ZM170.915 53.4071C170.222 53.4071 169.606 53.2506 169.066 52.9377C168.535 52.6154 168.118 52.1792 167.814 51.6293C167.511 51.0699 167.359 50.4299 167.359 49.7093C167.359 48.9792 167.506 48.3345 167.8 47.7751C168.094 47.2156 168.502 46.7795 169.023 46.4666C169.554 46.1537 170.166 45.9973 170.858 45.9973C171.559 45.9973 172.161 46.1442 172.664 46.4382C173.176 46.7321 173.574 47.1445 173.859 47.6755C174.143 48.2065 174.285 48.837 174.285 49.5671V50.0933L168.255 50.1075L168.283 49.0266H172.593C172.593 48.5241 172.436 48.1259 172.123 47.8319C171.811 47.538 171.393 47.3911 170.872 47.3911C170.455 47.3911 170.104 47.4764 169.819 47.6471C169.544 47.8177 169.331 48.0737 169.179 48.4151C169.037 48.7564 168.966 49.1783 168.966 49.6808C168.966 50.4488 169.132 51.0319 169.464 51.4302C169.796 51.8189 170.289 52.0133 170.943 52.0133C171.417 52.0133 171.806 51.9232 172.109 51.7431C172.422 51.5629 172.626 51.3022 172.721 50.9608H174.299C174.148 51.7194 173.773 52.3167 173.176 52.7528C172.579 53.189 171.825 53.4071 170.915 53.4071ZM178.561 53.4071C177.879 53.4071 177.291 53.2554 176.798 52.9519C176.314 52.6391 175.935 52.2076 175.66 51.6577C175.395 51.1078 175.262 50.4678 175.262 49.7377C175.262 49.0076 175.395 48.3629 175.66 47.8035C175.935 47.2346 176.324 46.7937 176.826 46.4808C177.338 46.1585 177.945 45.9973 178.647 45.9973C179.149 45.9973 179.604 46.0968 180.012 46.2959C180.42 46.4856 180.733 46.7605 180.951 47.1208V42.6408H182.643V53.2222H181.079L180.965 52.1128C180.756 52.5111 180.434 52.8287 179.998 53.0657C179.571 53.2933 179.092 53.4071 178.561 53.4071ZM178.931 51.8568C179.339 51.8568 179.694 51.7668 179.998 51.5866C180.301 51.397 180.533 51.141 180.695 50.8186C180.856 50.4868 180.936 50.1075 180.936 49.6808C180.936 49.2542 180.856 48.8796 180.695 48.5573C180.533 48.2254 180.301 47.9694 179.998 47.7893C179.694 47.6091 179.339 47.5191 178.931 47.5191C178.533 47.5191 178.182 47.6139 177.879 47.8035C177.585 47.9836 177.357 48.2349 177.196 48.5573C177.044 48.8796 176.968 49.2542 176.968 49.6808C176.968 50.1075 177.044 50.4868 177.196 50.8186C177.357 51.141 177.585 51.397 177.879 51.5866C178.182 51.7668 178.533 51.8568 178.931 51.8568ZM190.006 53.2222H188.314V42.6408H190.006V53.2222ZM193.918 53.4071C193.178 53.4071 192.59 53.2079 192.154 52.8097C191.727 52.4115 191.514 51.8805 191.514 51.2168C191.514 50.5721 191.742 50.0601 192.197 49.6808C192.652 49.2921 193.297 49.0645 194.131 48.9982L196.236 48.8275V48.6711C196.236 48.3487 196.174 48.0879 196.051 47.8888C195.928 47.6897 195.757 47.5428 195.539 47.4479C195.321 47.3531 195.065 47.3057 194.771 47.3057C194.25 47.3057 193.847 47.41 193.562 47.6186C193.287 47.8272 193.15 48.1211 193.15 48.5004H191.713C191.713 47.9884 191.841 47.5475 192.097 47.1777C192.353 46.7985 192.718 46.5093 193.192 46.3102C193.666 46.1016 194.221 45.9973 194.856 45.9973C195.482 45.9973 196.018 46.1063 196.463 46.3244C196.919 46.5425 197.269 46.8743 197.516 47.3199C197.762 47.7561 197.886 48.3013 197.886 48.9555V53.2222H196.407L196.264 52.1697C196.113 52.5395 195.819 52.8382 195.383 53.0657C194.956 53.2933 194.468 53.4071 193.918 53.4071ZM194.458 52.1128C195.008 52.1128 195.439 51.9611 195.752 51.6577C196.075 51.3448 196.236 50.9134 196.236 50.3635V49.9937L194.743 50.1217C194.202 50.1596 193.813 50.2687 193.576 50.4488C193.349 50.629 193.235 50.8613 193.235 51.1457C193.235 51.4776 193.339 51.7241 193.548 51.8853C193.766 52.037 194.069 52.1128 194.458 52.1128ZM201.311 53.2222H199.619V46.1964H201.183L201.326 47.1351C201.544 46.7748 201.852 46.4951 202.25 46.2959C202.658 46.0968 203.099 45.9973 203.573 45.9973C204.464 45.9973 205.132 46.258 205.578 46.7795C206.024 47.2915 206.247 48.0026 206.247 48.9128V53.2222H204.554V49.2968C204.554 48.709 204.417 48.2681 204.142 47.9742C203.876 47.6802 203.516 47.5333 203.061 47.5333C202.511 47.5333 202.079 47.7087 201.767 48.0595C201.463 48.4008 201.311 48.8607 201.311 49.4391V53.2222ZM207.568 49.5528C207.568 48.8702 207.705 48.2634 207.98 47.7324C208.265 47.1919 208.658 46.7653 209.161 46.4524C209.663 46.1395 210.246 45.9831 210.91 45.9831C211.507 45.9831 212.019 46.1205 212.446 46.3955C212.873 46.661 213.171 47.026 213.342 47.4906L213.157 47.6471L213.313 46.1964H214.878V52.8666C214.878 53.6441 214.726 54.3173 214.423 54.8862C214.129 55.4551 213.707 55.8912 213.157 56.1946C212.617 56.5075 211.972 56.6639 211.223 56.6639C210.218 56.6639 209.393 56.3937 208.748 55.8533C208.103 55.3128 207.724 54.578 207.61 53.6488H209.317C209.374 54.1134 209.568 54.4737 209.9 54.7297C210.232 54.9952 210.668 55.1279 211.209 55.1279C211.815 55.1279 212.294 54.9478 212.645 54.5875C213.005 54.2367 213.185 53.7674 213.185 53.1795V51.4017L213.385 51.5866C213.223 52.0417 212.91 52.4068 212.446 52.6817C211.991 52.9472 211.46 53.0799 210.853 53.0799C210.199 53.0799 209.625 52.9282 209.132 52.6248C208.639 52.3119 208.255 51.89 207.98 51.3591C207.705 50.8281 207.568 50.226 207.568 49.5528ZM209.274 49.5244C209.274 49.9131 209.355 50.2639 209.516 50.5768C209.677 50.8897 209.9 51.141 210.185 51.3306C210.478 51.5108 210.815 51.6008 211.194 51.6008C211.602 51.6008 211.953 51.5108 212.247 51.3306C212.541 51.1505 212.764 50.9039 212.915 50.5911C213.076 50.2782 213.157 49.9179 213.157 49.5102C213.157 49.1025 213.076 48.7469 212.915 48.4435C212.764 48.1401 212.541 47.9031 212.247 47.7324C211.953 47.5522 211.602 47.4622 211.194 47.4622C210.806 47.4622 210.464 47.5522 210.17 47.7324C209.886 47.9125 209.663 48.1591 209.502 48.4719C209.35 48.7754 209.274 49.1262 209.274 49.5244ZM221.467 46.1964H223.159V53.2222H221.595L221.453 52.2693C221.253 52.6106 220.941 52.8856 220.514 53.0942C220.097 53.3028 219.656 53.4071 219.191 53.4071C218.376 53.4071 217.741 53.1511 217.285 52.6391C216.84 52.1271 216.617 51.4444 216.617 50.5911V46.1964H218.309V49.9937C218.309 50.6669 218.437 51.1552 218.693 51.4586C218.959 51.7525 219.333 51.8995 219.817 51.8995C220.376 51.8995 220.789 51.7336 221.054 51.4017C221.329 51.0699 221.467 50.5626 221.467 49.8799V46.1964ZM227.057 53.4071C226.317 53.4071 225.729 53.2079 225.293 52.8097C224.866 52.4115 224.653 51.8805 224.653 51.2168C224.653 50.5721 224.881 50.0601 225.336 49.6808C225.791 49.2921 226.436 49.0645 227.27 48.9982L229.375 48.8275V48.6711C229.375 48.3487 229.313 48.0879 229.19 47.8888C229.067 47.6897 228.896 47.5428 228.678 47.4479C228.46 47.3531 228.204 47.3057 227.91 47.3057C227.388 47.3057 226.985 47.41 226.701 47.6186C226.426 47.8272 226.289 48.1211 226.289 48.5004H224.852C224.852 47.9884 224.98 47.5475 225.236 47.1777C225.492 46.7985 225.857 46.5093 226.331 46.3102C226.805 46.1016 227.36 45.9973 227.995 45.9973C228.621 45.9973 229.157 46.1063 229.602 46.3244C230.057 46.5425 230.408 46.8743 230.655 47.3199C230.901 47.7561 231.025 48.3013 231.025 48.9555V53.2222H229.545L229.403 52.1697C229.252 52.5395 228.958 52.8382 228.521 53.0657C228.095 53.2933 227.606 53.4071 227.057 53.4071ZM227.597 52.1128C228.147 52.1128 228.578 51.9611 228.891 51.6577C229.214 51.3448 229.375 50.9134 229.375 50.3635V49.9937L227.881 50.1217C227.341 50.1596 226.952 50.2687 226.715 50.4488C226.488 50.629 226.374 50.8613 226.374 51.1457C226.374 51.4776 226.478 51.7241 226.687 51.8853C226.905 52.037 227.208 52.1128 227.597 52.1128ZM232.345 49.5528C232.345 48.8702 232.483 48.2634 232.758 47.7324C233.042 47.1919 233.436 46.7653 233.938 46.4524C234.441 46.1395 235.024 45.9831 235.688 45.9831C236.285 45.9831 236.797 46.1205 237.224 46.3955C237.65 46.661 237.949 47.026 238.12 47.4906L237.935 47.6471L238.091 46.1964H239.656V52.8666C239.656 53.6441 239.504 54.3173 239.201 54.8862C238.907 55.4551 238.485 55.8912 237.935 56.1946C237.394 56.5075 236.75 56.6639 236.001 56.6639C234.996 56.6639 234.171 56.3937 233.526 55.8533C232.881 55.3128 232.502 54.578 232.388 53.6488H234.095C234.152 54.1134 234.346 54.4737 234.678 54.7297C235.01 54.9952 235.446 55.1279 235.986 55.1279C236.593 55.1279 237.072 54.9478 237.423 54.5875C237.783 54.2367 237.963 53.7674 237.963 53.1795V51.4017L238.162 51.5866C238.001 52.0417 237.688 52.4068 237.224 52.6817C236.769 52.9472 236.238 53.0799 235.631 53.0799C234.977 53.0799 234.403 52.9282 233.91 52.6248C233.417 52.3119 233.033 51.89 232.758 51.3591C232.483 50.8281 232.345 50.226 232.345 49.5528ZM234.052 49.5244C234.052 49.9131 234.133 50.2639 234.294 50.5768C234.455 50.8897 234.678 51.141 234.962 51.3306C235.256 51.5108 235.593 51.6008 235.972 51.6008C236.38 51.6008 236.731 51.5108 237.025 51.3306C237.318 51.1505 237.541 50.9039 237.693 50.5911C237.854 50.2782 237.935 49.9179 237.935 49.5102C237.935 49.1025 237.854 48.7469 237.693 48.4435C237.541 48.1401 237.318 47.9031 237.025 47.7324C236.731 47.5522 236.38 47.4622 235.972 47.4622C235.583 47.4622 235.242 47.5522 234.948 47.7324C234.664 47.9125 234.441 48.1591 234.28 48.4719C234.128 48.7754 234.052 49.1262 234.052 49.5244ZM244.609 53.4071C243.917 53.4071 243.301 53.2506 242.76 52.9377C242.229 52.6154 241.812 52.1792 241.509 51.6293C241.205 51.0699 241.053 50.4299 241.053 49.7093C241.053 48.9792 241.2 48.3345 241.494 47.7751C241.788 47.2156 242.196 46.7795 242.717 46.4666C243.248 46.1537 243.86 45.9973 244.552 45.9973C245.254 45.9973 245.856 46.1442 246.358 46.4382C246.87 46.7321 247.269 47.1445 247.553 47.6755C247.837 48.2065 247.98 48.837 247.98 49.5671V50.0933L241.949 50.1075L241.978 49.0266H246.287C246.287 48.5241 246.131 48.1259 245.818 47.8319C245.505 47.538 245.088 47.3911 244.566 47.3911C244.149 47.3911 243.798 47.4764 243.514 47.6471C243.239 47.8177 243.026 48.0737 242.874 48.4151C242.732 48.7564 242.661 49.1783 242.661 49.6808C242.661 50.4488 242.826 51.0319 243.158 51.4302C243.49 51.8189 243.983 52.0133 244.637 52.0133C245.112 52.0133 245.5 51.9232 245.804 51.7431C246.117 51.5629 246.32 51.3022 246.415 50.9608H247.994C247.842 51.7194 247.468 52.3167 246.87 52.7528C246.273 53.189 245.519 53.4071 244.609 53.4071ZM252.505 46.1964H256.886V47.6186H252.505V46.1964ZM256.9 42.7119V44.1768C256.805 44.1768 256.705 44.1768 256.601 44.1768C256.497 44.1768 256.397 44.1768 256.302 44.1768C255.857 44.1768 255.563 44.2811 255.421 44.4897C255.278 44.6983 255.207 44.9733 255.207 45.3146V53.2222H253.515V45.3146C253.515 44.6888 253.619 44.1816 253.828 43.7928C254.036 43.3946 254.326 43.1054 254.695 42.9253C255.075 42.7356 255.515 42.6408 256.018 42.6408C256.151 42.6408 256.293 42.6503 256.445 42.6693C256.606 42.6788 256.758 42.693 256.9 42.7119ZM257.373 49.7093C257.373 48.9792 257.534 48.3345 257.856 47.7751C258.179 47.2156 258.62 46.7795 259.179 46.4666C259.748 46.1537 260.397 45.9973 261.128 45.9973C261.848 45.9973 262.488 46.1537 263.048 46.4666C263.607 46.7795 264.048 47.2156 264.37 47.7751C264.702 48.3345 264.868 48.9792 264.868 49.7093C264.868 50.4299 264.702 51.0699 264.37 51.6293C264.048 52.1792 263.607 52.6106 263.048 52.9235C262.488 53.2364 261.848 53.3928 261.128 53.3928C260.397 53.3928 259.748 53.2364 259.179 52.9235C258.62 52.6106 258.179 52.1792 257.856 51.6293C257.534 51.0699 257.373 50.4299 257.373 49.7093ZM259.08 49.6951C259.08 50.1217 259.165 50.501 259.336 50.8328C259.516 51.1647 259.757 51.4207 260.061 51.6008C260.364 51.781 260.72 51.8711 261.128 51.8711C261.526 51.8711 261.877 51.781 262.18 51.6008C262.483 51.4207 262.72 51.1647 262.891 50.8328C263.071 50.501 263.161 50.1217 263.161 49.6951C263.161 49.2589 263.071 48.8796 262.891 48.5573C262.72 48.2349 262.483 47.9836 262.18 47.8035C261.877 47.6139 261.526 47.5191 261.128 47.5191C260.72 47.5191 260.364 47.6139 260.061 47.8035C259.757 47.9836 259.516 48.2349 259.336 48.5573C259.165 48.8796 259.08 49.2589 259.08 49.6951ZM270.61 46.1679V47.7466H269.97C269.335 47.7466 268.837 47.9173 268.477 48.2586C268.117 48.5999 267.936 49.1119 267.936 49.7946V53.2222H266.244V46.2106H267.837L267.965 47.6613H267.808C267.903 47.1967 268.126 46.8174 268.477 46.5235C268.828 46.2296 269.283 46.0826 269.842 46.0826C269.965 46.0826 270.089 46.0921 270.212 46.1111C270.335 46.1205 270.468 46.1395 270.61 46.1679ZM277.709 53.4071C276.97 53.4071 276.382 53.2079 275.946 52.8097C275.519 52.4115 275.306 51.8805 275.306 51.2168C275.306 50.5721 275.533 50.0601 275.988 49.6808C276.444 49.2921 277.088 49.0645 277.923 48.9982L280.028 48.8275V48.6711C280.028 48.3487 279.966 48.0879 279.843 47.8888C279.719 47.6897 279.549 47.5428 279.331 47.4479C279.113 47.3531 278.857 47.3057 278.563 47.3057C278.041 47.3057 277.638 47.41 277.354 47.6186C277.079 47.8272 276.941 48.1211 276.941 48.5004H275.505C275.505 47.9884 275.633 47.5475 275.889 47.1777C276.145 46.7985 276.51 46.5093 276.984 46.3102C277.458 46.1016 278.013 45.9973 278.648 45.9973C279.274 45.9973 279.809 46.1063 280.255 46.3244C280.71 46.5425 281.061 46.8743 281.308 47.3199C281.554 47.7561 281.677 48.3013 281.677 48.9555V53.2222H280.198L280.056 52.1697C279.904 52.5395 279.61 52.8382 279.174 53.0657C278.748 53.2933 278.259 53.4071 277.709 53.4071ZM278.25 52.1128C278.8 52.1128 279.231 51.9611 279.544 51.6577C279.866 51.3448 280.028 50.9134 280.028 50.3635V49.9937L278.534 50.1217C277.994 50.1596 277.605 50.2687 277.368 50.4488C277.14 50.629 277.027 50.8613 277.027 51.1457C277.027 51.4776 277.131 51.7241 277.34 51.8853C277.558 52.037 277.861 52.1128 278.25 52.1128ZM288.175 46.1964H289.868V53.2222H288.303L288.161 52.2693C287.962 52.6106 287.649 52.8856 287.222 53.0942C286.805 53.3028 286.364 53.4071 285.9 53.4071C285.084 53.4071 284.449 53.1511 283.994 52.6391C283.548 52.1271 283.325 51.4444 283.325 50.5911V46.1964H285.018V49.9937C285.018 50.6669 285.146 51.1552 285.402 51.4586C285.667 51.7525 286.042 51.8995 286.525 51.8995C287.085 51.8995 287.497 51.7336 287.763 51.4017C288.038 51.0699 288.175 50.5626 288.175 49.8799V46.1964ZM294.422 53.4071C293.74 53.4071 293.152 53.2554 292.659 52.9519C292.175 52.6391 291.796 52.2076 291.521 51.6577C291.256 51.1078 291.123 50.4678 291.123 49.7377C291.123 49.0076 291.256 48.3629 291.521 47.8035C291.796 47.2346 292.185 46.7937 292.687 46.4808C293.199 46.1585 293.806 45.9973 294.508 45.9973C295.01 45.9973 295.465 46.0968 295.873 46.2959C296.281 46.4856 296.594 46.7605 296.812 47.1208V42.6408H298.504V53.2222H296.94L296.826 52.1128C296.617 52.5111 296.295 52.8287 295.859 53.0657C295.432 53.2933 294.953 53.4071 294.422 53.4071ZM294.792 51.8568C295.2 51.8568 295.555 51.7668 295.859 51.5866C296.162 51.397 296.395 51.141 296.556 50.8186C296.717 50.4868 296.798 50.1075 296.798 49.6808C296.798 49.2542 296.717 48.8796 296.556 48.5573C296.395 48.2254 296.162 47.9694 295.859 47.7893C295.555 47.6091 295.2 47.5191 294.792 47.5191C294.394 47.5191 294.043 47.6139 293.74 47.8035C293.446 47.9836 293.218 48.2349 293.057 48.5573C292.905 48.8796 292.83 49.2542 292.83 49.6808C292.83 50.1075 292.905 50.4868 293.057 50.8186C293.218 51.141 293.446 51.397 293.74 51.5866C294.043 51.7668 294.394 51.8568 294.792 51.8568ZM300.327 53.2222V46.1964H302.02V53.2222H300.327ZM301.166 44.7742C300.873 44.7742 300.626 44.6746 300.427 44.4755C300.228 44.2764 300.128 44.0299 300.128 43.7359C300.128 43.4515 300.228 43.2097 300.427 43.0106C300.626 42.8115 300.873 42.7119 301.166 42.7119C301.441 42.7119 301.678 42.8115 301.878 43.0106C302.086 43.2097 302.19 43.4515 302.19 43.7359C302.19 44.0299 302.086 44.2764 301.878 44.4755C301.678 44.6746 301.441 44.7742 301.166 44.7742ZM303.415 49.7093C303.415 48.9792 303.576 48.3345 303.898 47.7751C304.22 47.2156 304.661 46.7795 305.221 46.4666C305.79 46.1537 306.439 45.9973 307.169 45.9973C307.89 45.9973 308.53 46.1537 309.089 46.4666C309.649 46.7795 310.09 47.2156 310.412 47.7751C310.744 48.3345 310.91 48.9792 310.91 49.7093C310.91 50.4299 310.744 51.0699 310.412 51.6293C310.09 52.1792 309.649 52.6106 309.089 52.9235C308.53 53.2364 307.89 53.3928 307.169 53.3928C306.439 53.3928 305.79 53.2364 305.221 52.9235C304.661 52.6106 304.22 52.1792 303.898 51.6293C303.576 51.0699 303.415 50.4299 303.415 49.7093ZM305.121 49.6951C305.121 50.1217 305.207 50.501 305.377 50.8328C305.557 51.1647 305.799 51.4207 306.103 51.6008C306.406 51.781 306.762 51.8711 307.169 51.8711C307.567 51.8711 307.918 51.781 308.222 51.6008C308.525 51.4207 308.762 51.1647 308.933 50.8328C309.113 50.501 309.203 50.1217 309.203 49.6951C309.203 49.2589 309.113 48.8796 308.933 48.5573C308.762 48.2349 308.525 47.9836 308.222 47.8035C307.918 47.6139 307.567 47.5191 307.169 47.5191C306.762 47.5191 306.406 47.6139 306.103 47.8035C305.799 47.9836 305.557 48.2349 305.377 48.5573C305.207 48.8796 305.121 49.2589 305.121 49.6951ZM312.257 50.1786V48.6711H316.808V50.1786H312.257ZM46.6973 74.2222H45.1329V63.6408H46.8253V68.2346C47.0529 67.8364 47.3847 67.5282 47.8209 67.3102C48.257 67.0921 48.7501 66.9831 49.3 66.9831C49.9637 66.9831 50.5326 67.1442 51.0067 67.4666C51.4902 67.789 51.86 68.2346 52.116 68.8035C52.3815 69.3629 52.5142 70.0171 52.5142 70.7662C52.5142 71.4773 52.3767 72.1078 52.1018 72.6577C51.8268 73.2076 51.4381 73.6391 50.9355 73.9519C50.4425 74.2554 49.8594 74.4071 49.1862 74.4071C48.6552 74.4071 48.1764 74.2933 47.7498 74.0657C47.3326 73.8287 47.015 73.5111 46.7969 73.1128L46.6973 74.2222ZM46.8395 70.6808C46.8395 71.1075 46.9201 71.4868 47.0813 71.8186C47.2425 72.141 47.4748 72.397 47.7782 72.5866C48.0816 72.7668 48.4372 72.8568 48.8449 72.8568C49.2526 72.8568 49.6034 72.7668 49.8973 72.5866C50.1912 72.397 50.4141 72.141 50.5658 71.8186C50.727 71.4868 50.8075 71.1075 50.8075 70.6808C50.8075 70.2542 50.727 69.8796 50.5658 69.5573C50.4141 69.2349 50.1912 68.9836 49.8973 68.8035C49.6034 68.6139 49.2526 68.5191 48.8449 68.5191C48.4372 68.5191 48.0816 68.6091 47.7782 68.7893C47.4748 68.9694 47.2425 69.2254 47.0813 69.5573C46.9201 69.8796 46.8395 70.2542 46.8395 70.6808ZM55.9871 74.4071C55.2475 74.4071 54.6597 74.2079 54.2235 73.8097C53.7969 73.4115 53.5835 72.8805 53.5835 72.2168C53.5835 71.5721 53.8111 71.0601 54.2662 70.6808C54.7213 70.2921 55.3661 70.0645 56.2004 69.9982L58.3053 69.8275V69.6711C58.3053 69.3487 58.2437 69.0879 58.1204 68.8888C57.9972 68.6897 57.8265 68.5428 57.6084 68.4479C57.3904 68.3531 57.1344 68.3057 56.8404 68.3057C56.319 68.3057 55.916 68.41 55.6315 68.6186C55.3566 68.8272 55.2191 69.1211 55.2191 69.5004H53.7827C53.7827 68.9884 53.9107 68.5475 54.1667 68.1777C54.4227 67.7985 54.7877 67.5093 55.2618 67.3102C55.7358 67.1016 56.2905 66.9973 56.9258 66.9973C57.5515 66.9973 58.0872 67.1063 58.5329 67.3244C58.988 67.5425 59.3388 67.8743 59.5853 68.3199C59.8318 68.7561 59.9551 69.3013 59.9551 69.9555V74.2222H58.476L58.3338 73.1697C58.1821 73.5395 57.8881 73.8382 57.452 74.0657C57.0253 74.2933 56.537 74.4071 55.9871 74.4071ZM56.5275 73.1128C57.0775 73.1128 57.5089 72.9611 57.8218 72.6577C58.1441 72.3448 58.3053 71.9134 58.3053 71.3635V70.9937L56.812 71.1217C56.2715 71.1596 55.8828 71.2687 55.6458 71.4488C55.4182 71.629 55.3044 71.8613 55.3044 72.1457C55.3044 72.4776 55.4087 72.7241 55.6173 72.8853C55.8354 73.037 56.1388 73.1128 56.5275 73.1128ZM61.148 72.1031H62.7551C62.7646 72.4159 62.8784 72.6625 63.0964 72.8426C63.324 73.0133 63.6321 73.0986 64.0209 73.0986C64.4475 73.0986 64.7652 73.0228 64.9738 72.8711C65.1918 72.7194 65.3009 72.5108 65.3009 72.2453C65.3009 72.0746 65.244 71.9229 65.1302 71.7902C65.0164 71.6574 64.7984 71.5531 64.476 71.4773L63.2244 71.1928C62.5892 71.0411 62.1151 70.8088 61.8022 70.4959C61.4988 70.1831 61.3471 69.7469 61.3471 69.1875C61.3471 68.7324 61.4656 68.3436 61.7027 68.0213C61.9397 67.6894 62.2668 67.4382 62.684 67.2675C63.1012 67.0874 63.58 66.9973 64.1204 66.9973C64.6419 66.9973 65.1018 67.0921 65.5 67.2817C65.8982 67.4619 66.2064 67.7226 66.4244 68.0639C66.652 68.4053 66.7658 68.8035 66.7658 69.2586H65.1587C65.1492 68.9552 65.0449 68.7134 64.8458 68.5333C64.6561 68.3531 64.3907 68.2631 64.0493 68.2631C63.708 68.2631 63.4378 68.3389 63.2387 68.4906C63.049 68.6423 62.9542 68.8509 62.9542 69.1164C62.9542 69.5146 63.2576 69.7848 63.8644 69.9271L65.1302 70.2257C65.7181 70.3585 66.159 70.5718 66.4529 70.8657C66.7563 71.1596 66.908 71.5768 66.908 72.1173C66.908 72.5819 66.7847 72.9896 66.5382 73.3404C66.2917 73.6817 65.9456 73.9472 65.5 74.1368C65.0638 74.317 64.5566 74.4071 63.9782 74.4071C63.1059 74.4071 62.4138 74.1985 61.9018 73.7813C61.3992 73.3546 61.148 72.7952 61.148 72.1031ZM71.3729 74.4071C70.6807 74.4071 70.0644 74.2506 69.524 73.9377C68.993 73.6154 68.5758 73.1792 68.2724 72.6293C67.969 72.0699 67.8173 71.4299 67.8173 70.7093C67.8173 69.9792 67.9643 69.3345 68.2582 68.7751C68.5521 68.2156 68.9598 67.7795 69.4813 67.4666C70.0123 67.1537 70.6238 66.9973 71.316 66.9973C72.0176 66.9973 72.6197 67.1442 73.1222 67.4382C73.6342 67.7321 74.0324 68.1445 74.3169 68.6755C74.6013 69.2065 74.7435 69.837 74.7435 70.5671V71.0933L68.7133 71.1075L68.7418 70.0266H73.0511C73.0511 69.5241 72.8947 69.1259 72.5818 68.8319C72.2689 68.538 71.8517 68.3911 71.3302 68.3911C70.913 68.3911 70.5622 68.4764 70.2778 68.6471C70.0028 68.8177 69.7895 69.0737 69.6378 69.4151C69.4955 69.7564 69.4244 70.1783 69.4244 70.6808C69.4244 71.4488 69.5904 72.0319 69.9222 72.4302C70.2541 72.8189 70.7471 73.0133 71.4013 73.0133C71.8754 73.0133 72.2641 72.9232 72.5675 72.7431C72.8804 72.5629 73.0843 72.3022 73.1791 71.9608H74.7578C74.6061 72.7194 74.2315 73.3167 73.6342 73.7528C73.0369 74.189 72.2831 74.4071 71.3729 74.4071ZM79.0197 74.4071C78.337 74.4071 77.7491 74.2554 77.2561 73.9519C76.7725 73.6391 76.3933 73.2076 76.1183 72.6577C75.8528 72.1078 75.7201 71.4678 75.7201 70.7377C75.7201 70.0076 75.8528 69.3629 76.1183 68.8035C76.3933 68.2346 76.782 67.7937 77.2845 67.4808C77.7965 67.1585 78.4034 66.9973 79.105 66.9973C79.6075 66.9973 80.0626 67.0968 80.4703 67.2959C80.878 67.4856 81.1909 67.7605 81.409 68.1208V63.6408H83.1014V74.2222H81.537L81.4232 73.1128C81.2146 73.5111 80.8922 73.8287 80.4561 74.0657C80.0294 74.2933 79.5506 74.4071 79.0197 74.4071ZM79.3894 72.8568C79.7971 72.8568 80.1527 72.7668 80.4561 72.5866C80.7595 72.397 80.9918 72.141 81.153 71.8186C81.3142 71.4868 81.3948 71.1075 81.3948 70.6808C81.3948 70.2542 81.3142 69.8796 81.153 69.5573C80.9918 69.2254 80.7595 68.9694 80.4561 68.7893C80.1527 68.6091 79.7971 68.5191 79.3894 68.5191C78.9912 68.5191 78.6404 68.6139 78.337 68.8035C78.0431 68.9836 77.8155 69.2349 77.6543 69.5573C77.5026 69.8796 77.4268 70.2542 77.4268 70.6808C77.4268 71.1075 77.5026 71.4868 77.6543 71.8186C77.8155 72.141 78.0431 72.397 78.337 72.5866C78.6404 72.7668 78.9912 72.8568 79.3894 72.8568ZM90.4503 74.2222H88.7579V63.6408H90.4503V68.1351C90.6684 67.7842 90.9765 67.5093 91.3748 67.3102C91.773 67.1016 92.2281 66.9973 92.7401 66.9973C93.6124 66.9973 94.2714 67.258 94.717 67.7795C95.1626 68.2915 95.3854 69.0026 95.3854 69.9128V74.2222H93.693V70.2968C93.693 69.8986 93.6314 69.5715 93.5081 69.3155C93.3848 69.0595 93.2094 68.8651 92.9819 68.7324C92.7638 68.5996 92.5031 68.5333 92.1997 68.5333C91.8394 68.5333 91.5265 68.6139 91.261 68.7751C90.9955 68.9362 90.7917 69.1591 90.6494 69.4435C90.5167 69.7185 90.4503 70.0314 90.4503 70.3822V74.2222ZM100.248 74.4071C99.5557 74.4071 98.9394 74.2506 98.399 73.9377C97.868 73.6154 97.4508 73.1792 97.1474 72.6293C96.844 72.0699 96.6923 71.4299 96.6923 70.7093C96.6923 69.9792 96.8393 69.3345 97.1332 68.7751C97.4271 68.2156 97.8348 67.7795 98.3563 67.4666C98.8873 67.1537 99.4988 66.9973 100.191 66.9973C100.893 66.9973 101.495 67.1442 101.997 67.4382C102.509 67.7321 102.907 68.1445 103.192 68.6755C103.476 69.2065 103.619 69.837 103.619 70.5671V71.0933L97.5883 71.1075L97.6168 70.0266H101.926C101.926 69.5241 101.77 69.1259 101.457 68.8319C101.144 68.538 100.727 68.3911 100.205 68.3911C99.788 68.3911 99.4372 68.4764 99.1528 68.6471C98.8778 68.8177 98.6645 69.0737 98.5128 69.4151C98.3705 69.7564 98.2994 70.1783 98.2994 70.6808C98.2994 71.4488 98.4654 72.0319 98.7972 72.4302C99.1291 72.8189 99.6221 73.0133 100.276 73.0133C100.75 73.0133 101.139 72.9232 101.443 72.7431C101.755 72.5629 101.959 72.3022 102.054 71.9608H103.633C103.481 72.7194 103.107 73.3167 102.509 73.7528C101.912 74.189 101.158 74.4071 100.248 74.4071ZM106.728 74.2222H105.036V63.6408H106.728V74.2222ZM108.563 77.4648V67.1964H110.128L110.227 68.2915C110.446 67.8743 110.773 67.5567 111.209 67.3386C111.645 67.1111 112.128 66.9973 112.659 66.9973C113.323 66.9973 113.902 67.149 114.395 67.4524C114.888 67.7463 115.267 68.1682 115.532 68.7182C115.807 69.2586 115.945 69.8986 115.945 70.6382C115.945 71.3588 115.817 72.0035 115.561 72.5724C115.305 73.1413 114.93 73.5916 114.437 73.9235C113.954 74.2459 113.366 74.4071 112.674 74.4071C112.143 74.4071 111.659 74.3075 111.223 74.1084C110.796 73.8998 110.474 73.6154 110.256 73.2551V77.4648H108.563ZM110.27 70.7093C110.27 71.1359 110.351 71.5152 110.512 71.8471C110.673 72.1694 110.905 72.4254 111.209 72.6151C111.512 72.7952 111.868 72.8853 112.275 72.8853C112.683 72.8853 113.034 72.7905 113.328 72.6008C113.622 72.4112 113.845 72.1552 113.996 71.8328C114.158 71.5105 114.238 71.1359 114.238 70.7093C114.238 70.2826 114.158 69.9081 113.996 69.5857C113.845 69.2634 113.622 69.0121 113.328 68.8319C113.034 68.6423 112.683 68.5475 112.275 68.5475C111.868 68.5475 111.512 68.6376 111.209 68.8177C110.905 68.9979 110.673 69.2539 110.512 69.5857C110.351 69.9081 110.27 70.2826 110.27 70.7093Z" fill="#393939"/>
<rect x="30" y="83.7777" width="320" height="49.7778" fill="white"/>
<rect opacity="0.8" x="44.2188" y="132.667" width="291.556" height="0.888889" fill="#E5E5E5"/>
<path d="M51.5574 114H45.4561V103.817H51.5432V104.756H46.4801V108.425H51.0739V109.349H46.4801V113.061H51.5574V114ZM54.4046 114H53.4233V107.116H54.2766L54.4189 108.311C54.874 107.429 55.7842 106.932 56.7798 106.932C58.6713 106.932 59.4535 108.055 59.4535 109.79V114H58.4722V110.004C58.4722 108.396 57.7469 107.828 56.6091 107.828C55.2011 107.828 54.4046 108.852 54.4046 110.402V114ZM60.9401 110.359C60.9401 108.482 62.149 106.932 64.1685 106.932C65.3632 106.932 66.2734 107.486 66.7143 108.496L66.8139 107.116H67.6672V113.787C67.6672 115.835 66.3587 117.172 64.3392 117.172C62.5756 117.172 61.3383 116.176 61.0681 114.512H62.0494C62.2627 115.621 63.1161 116.276 64.3534 116.276C65.7614 116.276 66.7001 115.323 66.7001 113.886V112.251C66.2307 113.218 65.2779 113.787 64.0974 113.787C62.1347 113.787 60.9401 112.236 60.9401 110.359ZM61.9214 110.345C61.9214 111.753 62.789 112.905 64.2396 112.905C65.733 112.905 66.6147 111.824 66.6147 110.345C66.6147 108.88 65.7614 107.799 64.2539 107.799C62.7747 107.799 61.9214 108.951 61.9214 110.345ZM70.739 114H69.7576V103.632H70.739V114ZM73.3096 105.225C72.9114 105.225 72.5843 104.898 72.5843 104.5C72.5843 104.101 72.9114 103.76 73.3096 103.76C73.7079 103.76 74.0492 104.101 74.0492 104.5C74.0492 104.898 73.7079 105.225 73.3096 105.225ZM72.8261 114V107.116H73.8074V114H72.8261ZM75.2707 112.066H76.2094C76.2094 112.862 76.8067 113.36 77.7739 113.36C78.8405 113.36 79.4663 112.905 79.4663 112.165C79.4663 111.596 79.1819 111.269 78.3712 111.07L77.1907 110.772C75.9961 110.473 75.413 109.847 75.413 108.908C75.413 107.7 76.4227 106.932 77.9019 106.932C79.3525 106.932 80.2912 107.728 80.3339 109.008H79.381C79.3525 108.212 78.7979 107.742 77.8734 107.742C76.9063 107.742 76.3659 108.155 76.3659 108.894C76.3659 109.42 76.7356 109.79 77.4894 109.975L78.6699 110.274C79.8645 110.572 80.405 111.127 80.405 112.123C80.405 113.36 79.3525 114.171 77.7881 114.171C76.2379 114.171 75.2707 113.346 75.2707 112.066ZM83.0019 113.986H82.0205V103.632H83.0019V108.311C83.4428 107.486 84.2819 106.932 85.4339 106.932C87.2401 106.932 88.0508 108.055 88.0508 109.79V114H87.0694V110.004C87.0694 108.396 86.3156 107.828 85.249 107.828C83.7699 107.828 83.0019 108.923 83.0019 110.245V113.986Z" fill="#585858"/>
<path fill-rule="evenodd" clip-rule="evenodd" d="M316.219 108.667C316.219 103.76 320.201 99.7777 325.108 99.7777C330.014 99.7777 333.997 103.76 333.997 108.667C333.997 113.573 330.014 117.555 325.108 117.555C320.201 117.555 316.219 113.573 316.219 108.667ZM317.997 108.667C317.997 112.595 321.179 115.778 325.108 115.778C329.037 115.778 332.219 112.595 332.219 108.667C332.219 104.738 329.037 101.555 325.108 101.555C321.179 101.555 317.997 104.738 317.997 108.667Z" fill="#B0B0B0"/>
<rect x="30" y="133.556" width="320" height="49.7778" fill="white"/>
<rect opacity="0.8" x="44.2188" y="182.444" width="291.556" height="0.888889" fill="#E5E5E5"/>
<path d="M48.2152 149.02C49.3625 149.02 50.4102 149.148 51.3583 149.404C52.3065 149.66 53.321 150.03 54.4019 150.514V151.623C52.259 150.552 50.2063 150.016 48.2436 150.016C47.7411 150.016 47.3524 150.149 47.0774 150.414C46.8025 150.67 46.665 151.03 46.665 151.495V152.647H48.3005V153.6H46.665V161.778H45.5556V153.6H43.9059V152.647H45.5556V151.467C45.5556 150.737 45.7974 150.149 46.281 149.703C46.774 149.248 47.4188 149.02 48.2152 149.02ZM54.2404 155.833H50.8271C50.2961 155.833 50.0306 156.046 50.0306 156.473C50.0306 156.719 50.097 156.942 50.2298 157.141C50.3625 157.331 50.5189 157.468 50.6991 157.554C51.0973 157.411 51.5572 157.34 52.0786 157.34C52.8561 157.34 53.4535 157.53 53.8706 157.909C54.2878 158.279 54.4964 158.725 54.4964 159.246C54.4964 159.559 54.4443 159.825 54.34 160.043H53.2449C53.3776 159.862 53.444 159.616 53.444 159.303C53.444 159 53.3255 158.753 53.0884 158.563C52.8609 158.364 52.5195 158.265 52.0644 158.265C51.4386 158.265 50.9503 158.402 50.5995 158.677C50.2487 158.952 50.0733 159.284 50.0733 159.673C50.0733 160.147 50.2772 160.536 50.6849 160.839C51.0926 161.133 51.7136 161.28 52.548 161.28C53.1263 161.28 53.7189 161.195 54.3258 161.024V161.977C53.6715 162.138 53.0505 162.219 52.4626 162.219C51.3438 162.219 50.481 161.963 49.8742 161.451C49.2674 160.939 48.964 160.341 48.964 159.659C48.964 158.985 49.2626 158.426 49.86 157.98C49.2247 157.563 48.9071 157.013 48.9071 156.331C48.9071 155.875 49.0683 155.525 49.3906 155.278C49.713 155.032 50.1302 154.908 50.6422 154.908H53.1453V153.6H47.6697V152.647H55.8475V153.6H54.2404V155.833ZM53.8446 149.703C53.6929 149.561 53.6171 149.381 53.6171 149.163C53.6171 148.945 53.6929 148.76 53.8446 148.608C53.9869 148.456 54.167 148.38 54.3851 148.38C54.6032 148.38 54.788 148.456 54.9397 148.608C55.0915 148.76 55.1673 148.945 55.1673 149.163C55.1673 149.381 55.0915 149.561 54.9397 149.703C54.788 149.845 54.6032 149.916 54.3851 149.916C54.167 149.916 53.9869 149.845 53.8446 149.703ZM55.2114 152.647H63.6594V153.6H61.9528V155.975H59.4496C58.8049 155.975 58.2976 156.141 57.9279 156.473C57.5581 156.805 57.3732 157.269 57.3732 157.867C57.3732 158.483 57.5391 158.966 57.871 159.317C58.2028 159.668 58.6485 159.843 59.2079 159.843C59.7673 159.843 60.2129 159.687 60.5448 159.374C60.8861 159.061 61.0662 158.658 61.0852 158.165H62.1519V161.92H61.0425V160.028C60.6538 160.521 60.0138 160.768 59.1225 160.768C58.2408 160.768 57.5296 160.493 56.9892 159.943C56.4487 159.393 56.1785 158.715 56.1785 157.909C56.1785 157.065 56.4582 156.378 57.0176 155.847C57.577 155.307 58.3593 155.036 59.3643 155.036H60.8434V153.6H55.2114V152.647ZM65.7758 152.647H67.4255V153.6H65.79V161.778H64.6806V153.6H63.0309V152.647H64.6522V151.452C64.6522 150.988 64.5242 150.632 64.2682 150.386C64.0217 150.139 63.6946 150.016 63.2869 150.016C62.8792 150.016 62.5568 150.139 62.3197 150.386C62.0827 150.623 61.9642 150.978 61.9642 151.452V151.708H60.8549V151.424C60.8549 150.627 61.0872 150.03 61.5517 149.632C62.0069 149.234 62.5852 149.035 63.2869 149.035C63.998 149.035 64.5906 149.234 65.0646 149.632C65.5387 150.03 65.7758 150.627 65.7758 151.424V152.647ZM74.1923 164.011H73.2963C72.1016 162.375 71.3194 159.957 71.3194 157.511C71.3194 155.164 72.0732 152.718 73.2963 151.026H74.1923C73.0972 152.562 72.3292 154.951 72.3292 157.511C72.3292 160.014 73.0687 162.446 74.1923 164.011ZM76.4523 161.778H75.4283V151.595H76.4523V156.131H81.9563V151.595H82.9661V161.778H81.9563V157.084H76.4523V161.778ZM85.7263 153.003C85.3281 153.003 85.001 152.675 85.001 152.277C85.001 151.879 85.3281 151.538 85.7263 151.538C86.1245 151.538 86.4659 151.879 86.4659 152.277C86.4659 152.675 86.1245 153.003 85.7263 153.003ZM85.2428 161.778V154.894H86.2241V161.778H85.2428ZM89.2519 161.778H88.2705V154.894H89.1239L89.2661 156.089C89.7212 155.207 90.6314 154.709 91.627 154.709C93.5185 154.709 94.3008 155.833 94.3008 157.568V161.778H93.3194V157.781C93.3194 156.174 92.5941 155.605 91.4563 155.605C90.0483 155.605 89.2519 156.629 89.2519 158.179V161.778ZM98.9589 161.948C96.9535 161.948 95.7731 160.412 95.7731 158.35C95.7731 156.274 96.9535 154.709 99.0015 154.709C100.139 154.709 101.05 155.207 101.533 156.203V151.41H102.514V161.778H101.661L101.562 160.37C101.078 161.436 100.111 161.948 98.9589 161.948ZM99.1295 161.052C100.637 161.052 101.519 159.915 101.519 158.322C101.519 156.743 100.637 155.591 99.1295 155.591C97.6362 155.591 96.7686 156.743 96.7686 158.322C96.7686 159.915 97.6362 161.052 99.1295 161.052ZM105.046 153.003C104.648 153.003 104.32 152.675 104.32 152.277C104.32 151.879 104.648 151.538 105.046 151.538C105.444 151.538 105.785 151.879 105.785 152.277C105.785 152.675 105.444 153.003 105.046 153.003ZM104.562 161.778V154.894H105.544V161.778H104.562ZM107.518 164.011H106.622C107.745 162.446 108.499 160.014 108.499 157.511C108.499 154.951 107.717 152.562 106.622 151.026H107.518C108.755 152.718 109.494 155.164 109.494 157.511C109.494 159.957 108.712 162.375 107.518 164.011Z" fill="#585858"/>
<path fill-rule="evenodd" clip-rule="evenodd" d="M316.219 158.444C316.219 153.538 320.201 149.555 325.108 149.555C330.014 149.555 333.997 153.538 333.997 158.444C333.997 163.351 330.014 167.333 325.108 167.333C320.201 167.333 316.219 163.351 316.219 158.444ZM317.997 158.444C317.997 162.373 321.179 165.555 325.108 165.555C329.037 165.555 332.219 162.373 332.219 158.444C332.219 154.515 329.037 151.333 325.108 151.333C321.179 151.333 317.997 154.515 317.997 158.444Z" fill="#B0B0B0"/>
<rect x="30" y="183.333" width="320" height="49.7778" fill="white"/>
<rect opacity="0.8" x="44.2188" y="232.222" width="291.556" height="0.888889" fill="#E5E5E5"/>
<path d="M48.2436 213.726C47.2386 213.726 46.4516 213.484 45.8828 213.001C45.3233 212.517 45.0436 211.887 45.0436 211.109C45.0436 210.294 45.3755 209.654 46.0392 209.189L44.7308 209.204V208.222H47.689C47.7933 208.146 47.8786 208.052 47.945 207.938C48.0208 207.815 48.0588 207.677 48.0588 207.525C48.0588 207.393 48.035 207.265 47.9876 207.141C47.9497 207.018 47.8976 206.909 47.8312 206.814H44.7308V205.719H48.969C49.481 205.719 49.8413 205.695 50.0499 205.648C50.2585 205.601 50.4102 205.539 50.505 205.463C50.6282 205.368 50.7088 205.264 50.7468 205.15C50.7942 205.027 50.8179 204.899 50.8179 204.766C50.8179 204.159 50.5097 203.548 49.8934 202.932L50.8179 202.32C51.2635 202.813 51.5669 203.259 51.7281 203.657C51.8893 204.046 51.9699 204.444 51.9699 204.852C51.9699 205.032 51.9319 205.255 51.8561 205.52C51.7897 205.776 51.6333 206.008 51.3868 206.217C51.1497 206.425 50.8653 206.577 50.5334 206.672C50.211 206.767 49.7749 206.814 49.225 206.814H48.969C49.1112 207.08 49.1823 207.321 49.1823 207.54C49.1823 207.691 49.1633 207.824 49.1254 207.938C49.097 208.042 49.0543 208.137 48.9974 208.222H51.8845V209.204L50.4908 209.189C50.8131 209.369 51.0691 209.625 51.2588 209.957C51.4579 210.289 51.5574 210.664 51.5574 211.081C51.5574 211.868 51.2777 212.508 50.7183 213.001C50.1684 213.484 49.3435 213.726 48.2436 213.726ZM48.3005 212.617C49.059 212.617 49.5995 212.456 49.9219 212.133C50.2537 211.801 50.4196 211.403 50.4196 210.939C50.4196 210.408 50.2395 209.986 49.8792 209.673C49.5284 209.36 49.0022 209.204 48.3005 209.204C47.5799 209.204 47.0442 209.369 46.6934 209.701C46.3521 210.024 46.1814 210.436 46.1814 210.939C46.1814 211.441 46.3568 211.849 46.7076 212.162C47.0585 212.465 47.5894 212.617 48.3005 212.617ZM59.2548 213.726C58.7522 213.726 58.335 213.631 58.0032 213.442C57.6808 213.252 57.4059 213.01 57.1783 212.716C56.9602 212.413 56.7564 212.1 56.5668 211.778C56.3297 211.361 56.1259 211.048 55.9552 210.839C55.7845 210.631 55.6233 210.488 55.4716 210.412C55.3294 210.337 55.1635 210.299 54.9739 210.299C54.6515 210.299 54.4002 210.403 54.2201 210.612C54.0494 210.811 53.9641 211.09 53.9641 211.451C53.9641 211.754 54.0305 212.067 54.1632 212.389C54.2959 212.702 54.4713 213.01 54.6894 213.314L53.5801 213.755C53.362 213.451 53.1819 213.1 53.0396 212.702C52.8974 212.304 52.8263 211.901 52.8263 211.493C52.8263 211.048 52.9211 210.654 53.1108 210.313C53.3004 209.972 53.5564 209.706 53.8788 209.516C54.2011 209.317 54.5614 209.218 54.9596 209.218C55.5475 209.218 56.0121 209.355 56.3534 209.63C56.6948 209.905 57.0266 210.327 57.349 210.896C57.567 211.266 57.7662 211.579 57.9463 211.835C58.1265 212.091 58.3256 212.285 58.5436 212.418C58.7712 212.541 59.0509 212.603 59.3828 212.603C59.8758 212.603 60.2219 212.432 60.421 212.091C60.6296 211.74 60.7339 211.327 60.7339 210.853C60.7339 210.19 60.5916 209.573 60.3072 209.004C60.0322 208.436 59.6577 207.961 59.1836 207.582C58.719 207.193 58.1928 206.937 57.605 206.814H52.8548V205.719H58.8992C59.4112 205.719 59.7668 205.695 59.9659 205.648C60.1745 205.601 60.3309 205.539 60.4352 205.463C60.5585 205.368 60.639 205.264 60.677 205.15C60.7244 205.027 60.7481 204.899 60.7481 204.766C60.7481 204.159 60.4399 203.548 59.8236 202.932L60.7481 202.32C61.1937 202.813 61.4971 203.259 61.6583 203.657C61.8195 204.046 61.9001 204.444 61.9001 204.852C61.9001 205.032 61.8622 205.255 61.7863 205.52C61.7105 205.776 61.554 206.008 61.317 206.217C61.1273 206.378 60.9093 206.506 60.6628 206.601C60.4257 206.696 60.127 206.757 59.7668 206.786C60.4399 207.25 60.9614 207.819 61.3312 208.492C61.7105 209.166 61.9001 209.915 61.9001 210.74C61.9001 211.669 61.6678 212.399 61.2032 212.93C60.7481 213.461 60.0986 213.726 59.2548 213.726ZM59.9365 214.494C60.3442 214.494 60.6903 214.556 60.9748 214.679C61.2592 214.812 61.5199 215.011 61.757 215.276C61.994 215.551 62.2405 215.907 62.4965 216.343C62.8853 215.926 63.0796 215.404 63.0796 214.779C63.0796 214.134 62.9374 213.556 62.653 213.044L63.5916 212.574C63.7813 212.849 63.9235 213.176 64.0183 213.556C64.1131 213.935 64.1605 214.295 64.1605 214.636C64.1605 215.215 64.0515 215.713 63.8334 216.13C63.6248 216.556 63.3451 216.907 62.9943 217.182C63.1555 217.419 63.3167 217.58 63.4779 217.666C63.639 217.751 63.8476 217.794 64.1036 217.794C64.1795 217.794 64.2743 217.784 64.3881 217.765C64.5019 217.746 64.5777 217.727 64.6156 217.708L64.8005 218.661C64.7152 218.699 64.6014 218.728 64.4592 218.747C64.3265 218.775 64.2079 218.789 64.1036 218.789C63.639 218.789 63.2645 218.699 62.9801 218.519C62.6956 218.339 62.4302 218.059 62.1836 217.68C61.8897 217.813 61.5816 217.908 61.2592 217.964C60.9273 218.031 60.6002 218.064 60.2779 218.064C59.7469 218.064 59.3155 217.974 58.9836 217.794C58.6423 217.623 58.3958 217.396 58.2441 217.111C58.0924 216.827 58.0165 216.523 58.0165 216.201C58.0165 215.67 58.2014 215.253 58.5712 214.949C58.9315 214.646 59.3866 214.494 59.9365 214.494ZM59.0974 216.201C59.0974 216.353 59.1306 216.5 59.197 216.642C59.2633 216.784 59.3913 216.903 59.581 216.997C59.7611 217.092 60.0219 217.14 60.3632 217.14C60.8847 217.14 61.3445 217.054 61.7428 216.884C61.4773 216.4 61.207 216.035 60.9321 215.788C60.6571 215.542 60.3442 215.419 59.9934 215.419C59.709 215.419 59.4909 215.49 59.3392 215.632C59.178 215.774 59.0974 215.964 59.0974 216.201ZM67.0685 213.726C66.329 213.726 65.7316 213.451 65.2765 212.901C64.8214 212.351 64.5939 211.527 64.5939 210.427C64.5939 209.63 64.7503 208.919 65.0632 208.293C65.3761 207.658 65.8312 207.165 66.4285 206.814H64.5939V205.719H71.3636C71.8662 205.719 72.2217 205.695 72.4303 205.648C72.6484 205.601 72.8048 205.539 72.8996 205.463C73.0324 205.368 73.1177 205.264 73.1556 205.15C73.1936 205.027 73.2125 204.899 73.2125 204.766C73.2125 204.159 72.9044 203.548 72.2881 202.932L73.2125 202.32C73.6582 202.813 73.9616 203.259 74.1228 203.657C74.2839 204.046 74.3645 204.444 74.3645 204.852C74.3645 205.032 74.3266 205.255 74.2508 205.52C74.1749 205.776 74.0185 206.008 73.7814 206.217C73.6582 206.331 73.5017 206.435 73.3121 206.53C73.1319 206.615 72.9139 206.681 72.6579 206.729C73.0656 206.947 73.3642 207.241 73.5539 207.611C73.7435 207.971 73.8383 208.355 73.8383 208.763C73.8383 208.867 73.8336 208.962 73.8241 209.047C74.1844 209.578 74.3645 210.209 74.3645 210.939C74.3645 211.498 74.2508 211.986 74.0232 212.404C73.8051 212.821 73.5065 213.148 73.1272 213.385C72.7479 213.612 72.3118 213.726 71.8188 213.726C71.2404 213.726 70.771 213.631 70.4108 213.442C70.0505 213.243 69.7233 212.916 69.4294 212.46C69.107 212.982 68.7468 213.323 68.3485 213.484C67.9503 213.646 67.5236 213.726 67.0685 213.726ZM67.225 212.603C67.699 212.603 68.0736 212.446 68.3485 212.133C68.6235 211.811 68.8036 211.413 68.889 210.939H69.9699C70.0647 211.517 70.2685 211.939 70.5814 212.204C70.9038 212.47 71.2783 212.603 71.705 212.603C72.1222 212.603 72.4919 212.475 72.8143 212.219C73.1367 211.963 73.2979 211.531 73.2979 210.924C73.2979 210.668 73.2694 210.417 73.2125 210.171C73.0419 210.36 72.8285 210.512 72.5725 210.626C72.326 210.74 72.0368 210.796 71.705 210.796C71.2404 210.796 70.8327 210.673 70.4819 210.427C70.1405 210.18 69.9699 209.796 69.9699 209.275C69.9699 208.782 70.131 208.421 70.4534 208.194C70.7853 207.957 71.1645 207.838 71.5912 207.838C71.8188 207.838 72.0179 207.862 72.1885 207.909C72.3687 207.947 72.5299 207.999 72.6721 208.066C72.4825 207.677 72.1316 207.369 71.6196 207.141C71.1171 206.904 70.5245 206.786 69.8419 206.786H69.3441C68.5666 206.786 67.9076 206.947 67.3672 207.269C66.8362 207.582 66.4333 208.014 66.1583 208.564C65.8928 209.104 65.7601 209.725 65.7601 210.427C65.7601 211.214 65.8881 211.773 66.1441 212.105C66.4001 212.437 66.7604 212.603 67.225 212.603ZM71.0365 209.275C71.0365 209.692 71.283 209.9 71.7761 209.9C71.9562 209.9 72.1459 209.853 72.345 209.758C72.5441 209.654 72.6863 209.474 72.7716 209.218C72.6484 209.066 72.4967 208.943 72.3165 208.848C72.1459 208.753 71.9468 208.706 71.7192 208.706C71.5201 208.706 71.3542 208.758 71.2214 208.862C71.0982 208.957 71.0365 209.095 71.0365 209.275ZM82.4701 215.788H81.5741C80.3794 214.153 79.5972 211.735 79.5972 209.289C79.5972 206.942 80.351 204.496 81.5741 202.804H82.4701C81.375 204.34 80.607 206.729 80.607 209.289C80.607 211.792 81.3465 214.224 82.4701 215.788ZM84.7301 203.372V209.502L89.6368 203.372H90.8599L87.4039 207.682L90.9168 213.556H89.7221L86.7354 208.535L84.7301 211.024V213.556H83.7061V203.372H84.7301ZM94.0252 213.726C92.5603 213.726 91.6928 212.901 91.6928 211.692C91.6928 210.427 92.6599 209.63 94.267 209.502L96.5425 209.317V209.09C96.5425 207.739 95.7319 207.312 94.7221 207.312C93.5274 207.312 92.8163 207.852 92.8163 208.777H91.9203C91.9203 207.383 93.0581 206.487 94.7505 206.487C96.3434 206.487 97.5096 207.284 97.5096 209.104V213.556H96.6848L96.5568 212.347C96.1301 213.214 95.1914 213.726 94.0252 213.726ZM94.2528 212.93C95.7034 212.93 96.5425 211.92 96.5425 210.427V210.057L94.5088 210.213C93.2145 210.327 92.6883 210.896 92.6883 211.664C92.6883 212.503 93.3141 212.93 94.2528 212.93ZM100.46 213.556H99.4789V206.672H100.332L100.474 207.867C100.93 206.985 101.84 206.487 102.835 206.487C104.727 206.487 105.509 207.611 105.509 209.346V213.556H104.528V209.559C104.528 207.952 103.802 207.383 102.665 207.383C101.257 207.383 100.46 208.407 100.46 209.957V213.556ZM108.446 213.556H107.465V206.672H108.318L108.461 207.867C108.916 206.985 109.826 206.487 110.821 206.487C112.713 206.487 113.495 207.611 113.495 209.346V213.556H112.514V209.559C112.514 207.952 111.789 207.383 110.651 207.383C109.243 207.383 108.446 208.407 108.446 209.957V213.556ZM117.428 213.726C115.963 213.726 115.096 212.901 115.096 211.692C115.096 210.427 116.063 209.63 117.67 209.502L119.945 209.317V209.09C119.945 207.739 119.135 207.312 118.125 207.312C116.93 207.312 116.219 207.852 116.219 208.777H115.323C115.323 207.383 116.461 206.487 118.153 206.487C119.746 206.487 120.912 207.284 120.912 209.104V213.556H120.088L119.96 212.347C119.533 213.214 118.594 213.726 117.428 213.726ZM117.656 212.93C119.106 212.93 119.945 211.92 119.945 210.427V210.057L117.912 210.213C116.617 210.327 116.091 210.896 116.091 211.664C116.091 212.503 116.717 212.93 117.656 212.93ZM125.584 213.726C123.579 213.726 122.398 212.19 122.398 210.128C122.398 208.052 123.579 206.487 125.627 206.487C126.764 206.487 127.675 206.985 128.158 207.98V203.188H129.139V213.556H128.286L128.187 212.148C127.703 213.214 126.736 213.726 125.584 213.726ZM125.755 212.83C127.262 212.83 128.144 211.692 128.144 210.1C128.144 208.521 127.262 207.369 125.755 207.369C124.261 207.369 123.394 208.521 123.394 210.1C123.394 211.692 124.261 212.83 125.755 212.83ZM133.164 213.726C131.699 213.726 130.832 212.901 130.832 211.692C130.832 210.427 131.799 209.63 133.406 209.502L135.681 209.317V209.09C135.681 207.739 134.871 207.312 133.861 207.312C132.666 207.312 131.955 207.852 131.955 208.777H131.059C131.059 207.383 132.197 206.487 133.889 206.487C135.482 206.487 136.649 207.284 136.649 209.104V213.556H135.824L135.696 212.347C135.269 213.214 134.33 213.726 133.164 213.726ZM133.392 212.93C134.842 212.93 135.681 211.92 135.681 210.427V210.057L133.648 210.213C132.353 210.327 131.827 210.896 131.827 211.664C131.827 212.503 132.453 212.93 133.392 212.93ZM138.49 215.788H137.594C138.717 214.224 139.471 211.792 139.471 209.289C139.471 206.729 138.689 204.34 137.594 202.804H138.49C139.727 204.496 140.467 206.942 140.467 209.289C140.467 211.735 139.684 214.153 138.49 215.788Z" fill="#585858"/>
<path fill-rule="evenodd" clip-rule="evenodd" d="M316.219 208.222C316.219 203.315 320.201 199.333 325.108 199.333C330.014 199.333 333.997 203.315 333.997 208.222C333.997 213.129 330.014 217.111 325.108 217.111C320.201 217.111 316.219 213.129 316.219 208.222ZM317.997 208.222C317.997 212.151 321.179 215.333 325.108 215.333C329.037 215.333 332.219 212.151 332.219 208.222C332.219 204.293 329.037 201.111 325.108 201.111C321.179 201.111 317.997 204.293 317.997 208.222Z" fill="#B0B0B0"/>
<rect x="30" y="233.111" width="320" height="49.7778" fill="white"/>
<path d="M54.0463 255.468C54.0463 255.791 53.9847 256.056 53.8614 256.265C53.7382 256.473 53.6007 256.639 53.449 256.763C53.2309 256.943 52.937 257.075 52.5672 257.161C52.1974 257.246 51.7328 257.289 51.1734 257.289H49.3388V256.222H51.6001C51.9035 256.222 52.131 256.208 52.2828 256.179C52.4439 256.142 52.5719 256.085 52.6668 256.009C52.7426 255.942 52.7948 255.867 52.8232 255.781C52.8611 255.696 52.8801 255.596 52.8801 255.483C52.8801 255.359 52.8611 255.25 52.8232 255.155C52.7853 255.061 52.7284 254.98 52.6525 254.914C52.5577 254.838 52.4392 254.781 52.297 254.743C52.1548 254.705 51.9177 254.686 51.5859 254.686H46.4374V253.619H51.5005C52.022 253.619 52.4297 253.657 52.7236 253.733C53.027 253.809 53.2878 253.942 53.5059 254.131C53.667 254.274 53.795 254.454 53.8899 254.672C53.9942 254.881 54.0463 255.146 54.0463 255.468ZM49.8223 263.504C48.675 263.504 47.7222 263.352 46.9636 263.049C46.2146 262.736 45.6552 262.314 45.2854 261.783C44.9156 261.243 44.7308 260.636 44.7308 259.963C44.7308 259.432 44.8398 258.967 45.0579 258.569C45.2854 258.161 45.5936 257.848 45.9823 257.63C46.371 257.403 46.8167 257.289 47.3192 257.289C47.7174 257.289 48.0588 257.365 48.3432 257.516C48.6276 257.659 48.8457 257.862 48.9974 258.128C49.1491 258.393 49.225 258.702 49.225 259.052C49.225 259.631 49.0259 260.095 48.6276 260.446C48.2389 260.787 47.689 260.958 46.9779 260.958C46.7693 260.958 46.5702 260.939 46.3805 260.901C46.1909 260.854 46.0155 260.797 45.8543 260.731C45.6931 260.664 45.5414 260.588 45.3992 260.503L45.4988 259.493C45.6884 259.635 45.8875 259.749 46.0961 259.835C46.3142 259.92 46.5512 259.963 46.8072 259.963C47.2718 259.963 47.5989 259.877 47.7885 259.707C47.9876 259.536 48.0872 259.318 48.0872 259.052C48.0872 258.806 48.0113 258.621 47.8596 258.498C47.7174 258.365 47.5136 258.299 47.2481 258.299C46.9636 258.299 46.7076 258.365 46.4801 258.498C46.262 258.63 46.0866 258.815 45.9539 259.052C45.8211 259.28 45.7548 259.541 45.7548 259.835V259.906C45.7548 260.313 45.8496 260.674 46.0392 260.987C46.2383 261.29 46.5133 261.546 46.8641 261.755C47.2149 261.963 47.6321 262.12 48.1156 262.224C48.6087 262.328 49.1539 262.38 49.7512 262.38C50.5382 262.38 51.1876 262.3 51.6996 262.139C52.2211 261.977 52.6288 261.769 52.9228 261.513C53.2167 261.257 53.4205 260.982 53.5343 260.688C53.6576 260.394 53.7192 260.11 53.7192 259.835V259.209C53.6339 258.953 53.4774 258.739 53.2499 258.569C53.0223 258.389 52.7426 258.299 52.4108 258.299C52.1737 258.299 51.9556 258.37 51.7565 258.512C51.5669 258.645 51.4721 258.863 51.4721 259.166C51.4721 259.375 51.5479 259.56 51.6996 259.721C51.8513 259.882 52.0884 259.963 52.4108 259.963C52.6573 259.963 52.8706 259.92 53.0508 259.835C53.2309 259.74 53.3731 259.612 53.4774 259.451C53.5912 259.28 53.6718 259.086 53.7192 258.867L53.9468 260.147C53.8045 260.318 53.6481 260.465 53.4774 260.588C53.3162 260.712 53.1313 260.806 52.9228 260.873C52.7236 260.93 52.4913 260.958 52.2259 260.958C51.8656 260.958 51.5432 260.887 51.2588 260.745C50.9743 260.603 50.7515 260.403 50.5903 260.147C50.4291 259.882 50.3485 259.569 50.3485 259.209C50.3485 258.678 50.5145 258.265 50.8463 257.971C51.1876 257.668 51.638 257.516 52.1974 257.516C52.2543 257.516 52.3159 257.521 52.3823 257.531C52.4582 257.54 52.5388 257.554 52.6241 257.573C52.7094 257.592 52.79 257.616 52.8659 257.644L52.6952 257.659C52.4866 257.554 52.2401 257.469 51.9556 257.403C51.6807 257.327 51.4057 257.27 51.1308 257.232C50.8558 257.194 50.614 257.175 50.4054 257.175L50.6045 256.293C51.3346 256.36 51.9651 256.497 52.4961 256.706C53.027 256.914 53.4585 257.175 53.7903 257.488C54.1316 257.801 54.3829 258.156 54.5441 258.555C54.7053 258.953 54.7859 259.384 54.7859 259.849C54.7859 260.37 54.6863 260.854 54.4872 261.299C54.2976 261.745 53.9989 262.134 53.5912 262.466C53.193 262.788 52.681 263.044 52.0552 263.234C51.4294 263.414 50.6851 263.504 49.8223 263.504ZM60.3513 263.504C59.3558 263.504 58.5166 263.333 57.834 262.992C57.1608 262.651 56.6488 262.181 56.298 261.584C55.9566 260.977 55.786 260.285 55.786 259.507C55.786 258.806 55.9045 258.213 56.1415 257.73C56.388 257.237 56.7152 256.862 57.1229 256.606C57.5306 256.35 57.9857 256.222 58.4882 256.222C58.8675 256.222 59.1946 256.298 59.4695 256.45C59.754 256.592 59.972 256.801 60.1238 257.075C60.2849 257.341 60.3655 257.659 60.3655 258.028C60.3655 258.408 60.2849 258.749 60.1238 259.052C59.9626 259.346 59.716 259.579 59.3842 259.749C59.0618 259.91 58.6494 259.991 58.1469 259.991C57.834 259.991 57.5448 259.939 57.2793 259.835C57.0138 259.73 56.7815 259.602 56.5824 259.451C56.3928 259.299 56.2363 259.152 56.1131 259.01L56.4402 258.128C56.516 258.232 56.6203 258.355 56.7531 258.498C56.8953 258.63 57.0755 258.749 57.2935 258.853C57.5116 258.948 57.7723 258.995 58.0758 258.995C58.4645 258.995 58.7537 258.915 58.9433 258.754C59.1424 258.593 59.242 258.37 59.242 258.085C59.242 257.81 59.1661 257.602 59.0144 257.459C58.8627 257.308 58.6636 257.232 58.4171 257.232C57.962 257.232 57.5969 257.417 57.322 257.787C57.047 258.156 56.9095 258.659 56.9095 259.294V259.55C56.9095 259.929 56.9759 260.29 57.1086 260.631C57.2509 260.963 57.4595 261.262 57.7344 261.527C58.0094 261.793 58.3602 262.001 58.7869 262.153C59.223 262.305 59.7303 262.38 60.3086 262.38C61.3516 262.38 62.1765 262.162 62.7833 261.726C63.3901 261.29 63.6935 260.664 63.6935 259.849C63.6935 259.299 63.5371 258.806 63.2242 258.37C62.9208 257.934 62.442 257.583 61.7878 257.317L62.3566 256.222C63.1436 256.563 63.7599 257.038 64.2055 257.644C64.6512 258.251 64.874 258.962 64.874 259.778C64.874 260.479 64.7175 261.115 64.4046 261.683C64.0918 262.243 63.5987 262.689 62.9255 263.02C62.2618 263.343 61.4038 263.504 60.3513 263.504ZM67.0213 263.504C66.386 263.504 65.8314 263.343 65.3573 263.02C64.8738 262.698 64.4471 262.276 64.0773 261.755L64.6462 260.83C64.9117 261.181 65.1724 261.47 65.4284 261.698C65.6939 261.925 65.9641 262.096 66.2391 262.21C66.5235 262.323 66.8175 262.38 67.1209 262.38C67.6044 262.38 67.9742 262.229 68.2302 261.925C68.4862 261.612 68.6142 261.167 68.6142 260.588C68.6142 260.038 68.5004 259.56 68.2729 259.152C68.0548 258.735 67.7561 258.379 67.3769 258.085C67.0071 257.782 66.5852 257.526 66.1111 257.317L66.6373 256.222C67.2252 256.469 67.7561 256.801 68.2302 257.218C68.7043 257.635 69.0835 258.118 69.368 258.668C69.6524 259.218 69.7946 259.83 69.7946 260.503C69.7946 261.442 69.5576 262.177 69.0835 262.707C68.6095 263.238 67.922 263.504 67.0213 263.504ZM74.4695 256.222C75.2091 256.222 75.8443 256.364 76.3753 256.649C76.9063 256.924 77.3092 257.322 77.5842 257.843C77.8686 258.355 78.0109 258.977 78.0109 259.707C78.0109 260.304 77.954 260.83 77.8402 261.285C77.7264 261.74 77.5842 262.143 77.4135 262.494C77.2523 262.845 77.0817 263.163 76.9015 263.447L75.7211 262.921C75.9012 262.655 76.0766 262.38 76.2473 262.096C76.418 261.811 76.5555 261.489 76.6598 261.129C76.7735 260.759 76.8304 260.332 76.8304 259.849C76.8304 259.384 76.7546 258.958 76.6029 258.569C76.4512 258.18 76.1952 257.872 75.8349 257.644C75.484 257.407 75.0052 257.289 74.3984 257.289C73.9149 257.289 73.4977 257.388 73.1469 257.587C72.796 257.787 72.5211 258.076 72.322 258.455C72.1323 258.834 72.0375 259.294 72.0375 259.835C72.0375 260.479 72.1418 261.048 72.3504 261.541C72.559 262.025 72.8245 262.485 73.1469 262.921L71.9664 263.447C71.644 262.954 71.3786 262.404 71.17 261.797C70.9614 261.19 70.8571 260.541 70.8571 259.849C70.8571 259.195 70.9898 258.593 71.2553 258.043C71.5303 257.493 71.9332 257.052 72.4642 256.72C73.0046 256.388 73.6731 256.222 74.4695 256.222ZM74.0429 257.289C73.7679 257.289 73.5024 257.237 73.2464 257.132C72.9999 257.028 72.7723 256.834 72.5638 256.549C72.3552 256.255 72.175 255.843 72.0233 255.312L73.2038 254.928C73.346 255.449 73.4835 255.795 73.6162 255.966C73.7489 256.137 73.9196 256.222 74.1282 256.222C74.3178 256.222 74.4932 256.165 74.6544 256.051C74.8251 255.928 75.0621 255.677 75.3655 255.298L75.8064 254.729C76.1288 254.312 76.4227 253.98 76.6882 253.733C76.9632 253.487 77.2523 253.307 77.5558 253.193C77.8592 253.079 78.2195 253.022 78.6366 253.022L78.722 254.117C78.3901 254.136 78.1104 254.188 77.8829 254.274C77.6648 254.359 77.4609 254.497 77.2713 254.686C77.0912 254.866 76.8778 255.113 76.6313 255.426L76.3042 255.852C76.0387 256.194 75.7875 256.469 75.5504 256.677C75.3134 256.886 75.0716 257.042 74.8251 257.147C74.588 257.241 74.3273 257.289 74.0429 257.289ZM80.2296 263.504C79.5944 263.504 79.0397 263.343 78.5656 263.02C78.0821 262.698 77.6554 262.276 77.2856 261.755L77.8545 260.83C78.12 261.181 78.3807 261.47 78.6367 261.698C78.9022 261.925 79.1725 262.096 79.4474 262.21C79.7319 262.323 80.0258 262.38 80.3292 262.38C80.8127 262.38 81.1825 262.229 81.4385 261.925C81.6945 261.612 81.8225 261.167 81.8225 260.588C81.8225 260.038 81.7087 259.56 81.4812 259.152C81.2631 258.735 80.9645 258.379 80.5852 258.085C80.2154 257.782 79.7935 257.526 79.3194 257.317L79.8456 256.222C80.4335 256.469 80.9645 256.801 81.4385 257.218C81.9126 257.635 82.2919 258.118 82.5763 258.668C82.8607 259.218 83.003 259.83 83.003 260.503C83.003 261.442 82.7659 262.177 82.2919 262.707C81.8178 263.238 81.1304 263.504 80.2296 263.504ZM91.0534 265.566H90.1574C88.9627 263.931 88.1805 261.513 88.1805 259.067C88.1805 256.72 88.9343 254.274 90.1574 252.581H91.0534C89.9583 254.117 89.1903 256.507 89.1903 259.067C89.1903 261.57 89.9299 264.002 91.0534 265.566ZM91.5005 254.089V253.15H98.7965V254.089H95.6534V263.333H94.6294V254.089H91.5005ZM101.824 263.504C99.8047 263.504 98.4536 262.053 98.4536 259.891C98.4536 257.744 99.7905 256.265 101.753 256.265C103.616 256.265 104.882 257.587 104.882 259.536V260.019H99.4065C99.4776 261.698 100.359 262.665 101.839 262.665C102.962 262.665 103.687 262.181 103.943 261.271H104.882C104.512 262.722 103.446 263.504 101.824 263.504ZM101.753 257.104C100.459 257.104 99.6056 257.957 99.435 259.308H103.901C103.901 257.986 103.047 257.104 101.753 257.104ZM107.475 263.333H106.494V252.965H107.475V263.333ZM114.398 256.45H115.379V263.333H114.526L114.398 262.167C114.014 262.963 113.061 263.504 111.98 263.504C110.359 263.504 109.477 262.395 109.477 260.716V256.435H110.472V260.403C110.472 262.039 111.198 262.622 112.293 262.622C113.616 262.622 114.398 261.74 114.398 260.105V256.45ZM116.954 259.692C116.954 257.815 118.163 256.265 120.182 256.265C121.377 256.265 122.287 256.819 122.728 257.829L122.828 256.45H123.681V263.12C123.681 265.168 122.373 266.505 120.353 266.505C118.59 266.505 117.352 265.509 117.082 263.845H118.063C118.277 264.955 119.13 265.609 120.367 265.609C121.775 265.609 122.714 264.656 122.714 263.219V261.584C122.245 262.551 121.292 263.12 120.111 263.12C118.149 263.12 116.954 261.57 116.954 259.692ZM117.935 259.678C117.935 261.086 118.803 262.238 120.254 262.238C121.747 262.238 122.629 261.157 122.629 259.678C122.629 258.213 121.775 257.132 120.268 257.132C118.789 257.132 117.935 258.284 117.935 259.678ZM130.564 256.45H131.546V263.333H130.692L130.564 262.167C130.18 262.963 129.228 263.504 128.147 263.504C126.525 263.504 125.644 262.395 125.644 260.716V256.435H126.639V260.403C126.639 262.039 127.364 262.622 128.46 262.622C129.782 262.622 130.564 261.74 130.564 260.105V256.45ZM133.462 265.566H132.566C133.69 264.002 134.443 261.57 134.443 259.067C134.443 256.507 133.661 254.117 132.566 252.581H133.462C134.699 254.274 135.439 256.72 135.439 259.067C135.439 261.513 134.657 263.931 133.462 265.566Z" fill="#585858"/>
<path fill-rule="evenodd" clip-rule="evenodd" d="M316.219 258C316.219 253.093 320.201 249.111 325.108 249.111C330.014 249.111 333.997 253.093 333.997 258C333.997 262.907 330.014 266.889 325.108 266.889C320.201 266.889 316.219 262.907 316.219 258ZM317.997 258C317.997 261.929 321.179 265.111 325.108 265.111C329.037 265.111 332.219 261.929 332.219 258C332.219 254.071 329.037 250.889 325.108 250.889C321.179 250.889 317.997 254.071 317.997 258Z" fill="#B0B0B0"/>
<g filter="url(#filter1_d_539_6284)">
<path d="M30 293.556H350V357.556H30V293.556Z" fill="white"/>
</g>
<rect x="44" y="308" width="291.556" height="35.5556" rx="4" fill="#372583"/>
<path d="M178.618 330.778H175.345V321.681H178.531C181.219 321.681 183.073 323.535 183.073 326.248C183.073 328.924 181.256 330.778 178.618 330.778ZM178.382 323.149H176.938V329.309H178.469C180.286 329.309 181.393 328.14 181.393 326.248C181.393 324.319 180.261 323.149 178.382 323.149ZM183.972 327.692C183.972 325.775 185.353 324.456 187.257 324.456C189.161 324.456 190.543 325.775 190.543 327.692C190.543 329.608 189.161 330.927 187.257 330.927C185.353 330.927 183.972 329.608 183.972 327.692ZM185.49 327.692C185.49 328.812 186.212 329.571 187.257 329.571C188.303 329.571 189.025 328.812 189.025 327.692C189.025 326.572 188.303 325.812 187.257 325.812C186.212 325.812 185.49 326.572 185.49 327.692ZM193.264 330.778H191.746V324.63H193.152L193.277 325.427C193.663 324.804 194.409 324.444 195.243 324.444C196.786 324.444 197.583 325.402 197.583 326.995V330.778H196.064V327.356C196.064 326.323 195.554 325.825 194.77 325.825C193.837 325.825 193.264 326.472 193.264 327.468V330.778ZM201.825 330.94C199.995 330.94 198.713 329.608 198.713 327.704C198.713 325.775 199.97 324.444 201.775 324.444C203.617 324.444 204.786 325.676 204.786 327.592V328.052L200.157 328.065C200.269 329.148 200.841 329.695 201.849 329.695C202.683 329.695 203.231 329.372 203.405 328.787H204.811C204.55 330.131 203.43 330.94 201.825 330.94ZM201.787 325.688C200.891 325.688 200.344 326.173 200.194 327.094H203.281C203.281 326.248 202.696 325.688 201.787 325.688Z" fill="white"/>
</g>
</g>
<defs>
<filter id="filter0_d_539_6284" x="26" y="20" width="328" height="342.556" filterUnits="userSpaceOnUse" color-interpolation-filters="sRGB">
<feFlood flood-opacity="0" result="BackgroundImageFix"/>
<feColorMatrix in="SourceAlpha" type="matrix" values="0 0 0 0 0 0 0 0 0 0 0 0 0 0 0 0 0 0 127 0" result="hardAlpha"/>
<feOffset dy="1"/>
<feGaussianBlur stdDeviation="2"/>
<feColorMatrix type="matrix" values="0 0 0 0 0.839216 0 0 0 0 0.839216 0 0 0 0 0.839216 0 0 0 0.25 0"/>
<feBlend mode="normal" in2="BackgroundImageFix" result="effect1_dropShadow_539_6284"/>
<feBlend mode="normal" in="SourceGraphic" in2="effect1_dropShadow_539_6284" result="shape"/>
</filter>
<filter id="filter1_d_539_6284" x="15.7778" y="279.333" width="348.444" height="92.4444" filterUnits="userSpaceOnUse" color-interpolation-filters="sRGB">
<feFlood flood-opacity="0" result="BackgroundImageFix"/>
<feColorMatrix in="SourceAlpha" type="matrix" values="0 0 0 0 0 0 0 0 0 0 0 0 0 0 0 0 0 0 127 0" result="hardAlpha"/>
<feOffset/>
<feGaussianBlur stdDeviation="7.11111"/>
<feComposite in2="hardAlpha" operator="out"/>
<feColorMatrix type="matrix" values="0 0 0 0 0 0 0 0 0 0 0 0 0 0 0 0 0 0 0.16 0"/>
<feBlend mode="normal" in2="BackgroundImageFix" result="effect1_dropShadow_539_6284"/>
<feBlend mode="normal" in="SourceGraphic" in2="effect1_dropShadow_539_6284" result="shape"/>
</filter>
<clipPath id="clip0_539_6284">
<path d="M30 30.1111C30 26.1837 33.1838 23 37.1111 23H342.889C346.816 23 350 26.1838 350 30.1111V357.556H30V30.1111Z" fill="white"/>
</clipPath>
</defs>
</svg>
