<svg width="336" height="218" viewBox="0 0 336 218" fill="none" xmlns="http://www.w3.org/2000/svg">
<g clip-path="url(#clip0_226_1857)">
<path d="M163.529 102.186C162.73 103.134 161.27 103.134 160.471 102.186L153.34 93.7283H170.66L163.529 102.186Z" fill="#222222"/>
</g>
<path opacity="0.5" d="M0 116C0 113.791 1.79086 112 4 112H332C334.209 112 336 113.791 336 116V156C336 158.209 334.209 160 332 160H4C1.79087 160 0 158.209 0 156V116Z" fill="white"/>
<rect x="4.5" y="116.5" width="327" height="39" rx="3.5" stroke="#9C8FD3"/>
<path d="M125.787 140V130.382H127.537L130.701 136.248L133.879 130.382H135.615V140H133.879V133.574L130.701 139.44L127.537 133.574V140H125.787ZM140.841 132.594C142.759 132.594 143.949 133.812 143.949 135.646V140H142.283V139.132C141.751 139.804 140.841 140.168 140.001 140.168C138.461 140.168 137.299 139.258 137.299 137.858C137.299 136.43 138.629 135.45 140.253 135.45C140.911 135.45 141.625 135.59 142.283 135.842V135.646C142.283 134.806 141.821 133.994 140.505 133.994C139.819 133.994 139.161 134.232 138.545 134.54L137.957 133.35C138.979 132.846 139.931 132.594 140.841 132.594ZM140.379 138.922C141.205 138.922 142.087 138.502 142.283 137.732V136.92C141.751 136.738 141.149 136.64 140.505 136.64C139.651 136.64 138.965 137.116 138.965 137.802C138.965 138.488 139.567 138.922 140.379 138.922ZM147.548 134.162C148.01 133.196 148.948 132.594 150.138 132.594V134.05C148.584 134.05 147.548 134.974 147.548 136.346V140H145.84V132.762H147.548V134.162ZM158.236 132.762L155.254 135.996L158.138 140H156.15L154.106 137.116L153.084 138.194V140H151.376V130.214H153.084V136.192L156.22 132.762H158.236ZM166.38 132.594C168.298 132.594 169.488 133.812 169.488 135.646V140H167.822V139.132C167.29 139.804 166.38 140.168 165.54 140.168C164 140.168 162.838 139.258 162.838 137.858C162.838 136.43 164.168 135.45 165.792 135.45C166.45 135.45 167.164 135.59 167.822 135.842V135.646C167.822 134.806 167.36 133.994 166.044 133.994C165.358 133.994 164.7 134.232 164.084 134.54L163.496 133.35C164.518 132.846 165.47 132.594 166.38 132.594ZM165.918 138.922C166.744 138.922 167.626 138.502 167.822 137.732V136.92C167.29 136.738 166.688 136.64 166.044 136.64C165.19 136.64 164.504 137.116 164.504 137.802C164.504 138.488 165.106 138.922 165.918 138.922ZM174.011 140.168C172.905 140.168 171.715 139.776 170.847 139.076L171.617 137.886C172.317 138.39 173.129 138.726 174.039 138.726C174.725 138.726 175.201 138.432 175.201 137.984C175.201 137.424 174.571 137.242 173.745 137.018C172.177 136.612 171.183 136.164 171.169 134.876C171.169 133.518 172.289 132.594 173.899 132.594C174.893 132.594 175.887 132.944 176.671 133.462L175.957 134.708C175.271 134.274 174.529 134.05 173.899 134.05C173.297 134.05 172.835 134.288 172.835 134.694C172.835 135.156 173.213 135.296 174.319 135.618C175.537 135.954 176.853 136.374 176.853 137.886C176.853 139.272 175.705 140.168 174.011 140.168ZM186.572 132.594C188.49 132.594 189.89 134.162 189.89 136.374C189.89 138.6 188.49 140.168 186.572 140.168C185.494 140.168 184.626 139.678 184.052 138.852V142.408H182.344V132.762H184.052V133.91C184.626 133.084 185.494 132.594 186.572 132.594ZM186.11 138.712C187.328 138.712 188.196 137.732 188.196 136.374C188.196 135.016 187.328 134.05 186.11 134.05C184.906 134.05 184.066 135.016 184.066 136.374C184.066 137.732 184.906 138.712 186.11 138.712ZM194.585 132.594C196.503 132.594 197.693 133.812 197.693 135.646V140H196.027V139.132C195.495 139.804 194.585 140.168 193.745 140.168C192.205 140.168 191.043 139.258 191.043 137.858C191.043 136.43 192.373 135.45 193.997 135.45C194.655 135.45 195.369 135.59 196.027 135.842V135.646C196.027 134.806 195.565 133.994 194.249 133.994C193.563 133.994 192.905 134.232 192.289 134.54L191.701 133.35C192.723 132.846 193.675 132.594 194.585 132.594ZM194.123 138.922C194.949 138.922 195.831 138.502 196.027 137.732V136.92C195.495 136.738 194.893 136.64 194.249 136.64C193.395 136.64 192.709 137.116 192.709 137.802C192.709 138.488 193.311 138.922 194.123 138.922ZM200.41 131.67C199.864 131.67 199.43 131.208 199.43 130.69C199.43 130.172 199.864 129.724 200.41 129.724C200.942 129.724 201.376 130.172 201.376 130.69C201.376 131.208 200.942 131.67 200.41 131.67ZM199.542 140V132.762H201.25V140H199.542ZM208.64 130.214H210.348V140H208.64V138.88C208.066 139.692 207.198 140.168 206.134 140.168C204.216 140.168 202.816 138.6 202.816 136.374C202.816 134.162 204.216 132.594 206.134 132.594C207.198 132.594 208.066 133.07 208.64 133.882V130.214ZM206.596 138.712C207.8 138.712 208.64 137.732 208.64 136.374C208.64 135.016 207.8 134.05 206.596 134.05C205.378 134.05 204.51 135.016 204.51 136.374C204.51 137.732 205.378 138.712 206.596 138.712Z" fill="#372583"/>
<rect x="68" width="200" height="94" rx="4" fill="#222222"/>
<path d="M83.376 25.154C80.492 25.154 78.574 23.082 78.574 19.946C78.574 16.824 80.548 14.71 83.446 14.71C85.728 14.71 87.478 16.068 87.856 18.14H86.386C86.008 16.824 84.874 16.026 83.404 16.026C81.36 16.026 80.016 17.566 80.016 19.932C80.016 22.298 81.36 23.838 83.404 23.838C84.888 23.838 86.064 23.04 86.442 21.794H87.898C87.464 23.81 85.658 25.154 83.376 25.154ZM90.6319 25H89.3159V14.696H90.6319V25ZM93.2132 16.53C92.7372 16.53 92.3452 16.138 92.3452 15.662C92.3452 15.172 92.7372 14.794 93.2132 14.794C93.6892 14.794 94.0812 15.172 94.0812 15.662C94.0812 16.138 93.6892 16.53 93.2132 16.53ZM92.5692 25V18.154H93.8852V25H92.5692ZM95.3478 21.584C95.3478 19.442 96.7058 17.958 98.7078 17.958C100.43 17.958 101.634 18.938 101.872 20.464H100.556C100.332 19.596 99.6318 19.134 98.7498 19.134C97.5038 19.134 96.6498 20.086 96.6498 21.57C96.6498 23.04 97.4478 23.992 98.6938 23.992C99.6318 23.992 100.332 23.502 100.57 22.69H101.886C101.62 24.174 100.346 25.168 98.6938 25.168C96.6778 25.168 95.3478 23.74 95.3478 21.584ZM104.618 25H103.302V14.696H104.618V21.374L107.656 18.154H109.308L106.69 20.884L109.294 25H107.782L105.78 21.836L104.618 23.054V25ZM115.528 24.986H114.212V14.696H115.528V19.204C115.962 18.462 116.788 17.958 117.852 17.958C119.602 17.958 120.442 19.064 120.442 20.814V25H119.126V21.108C119.126 19.722 118.468 19.162 117.488 19.162C116.214 19.162 115.528 20.086 115.528 21.262V24.986ZM125.219 25.168C123.203 25.168 121.817 23.712 121.817 21.584C121.817 19.442 123.175 17.958 125.163 17.958C127.109 17.958 128.382 19.302 128.382 21.332V21.822L123.091 21.836C123.189 23.278 123.945 24.076 125.247 24.076C126.269 24.076 126.941 23.656 127.165 22.872H128.397C128.061 24.342 126.913 25.168 125.219 25.168ZM125.163 19.064C124.015 19.064 123.287 19.75 123.119 20.954H127.067C127.067 19.82 126.325 19.064 125.163 19.064ZM133.772 18.098V19.302H133.184C131.938 19.302 131.168 20.058 131.168 21.374V25H129.852V18.168H131.084L131.168 19.204C131.448 18.49 132.134 18.014 133.072 18.014C133.31 18.014 133.506 18.042 133.772 18.098ZM137.715 25.168C135.699 25.168 134.313 23.712 134.313 21.584C134.313 19.442 135.671 17.958 137.659 17.958C139.605 17.958 140.879 19.302 140.879 21.332V21.822L135.587 21.836C135.685 23.278 136.441 24.076 137.743 24.076C138.765 24.076 139.437 23.656 139.661 22.872H140.893C140.557 24.342 139.409 25.168 137.715 25.168ZM137.659 19.064C136.511 19.064 135.783 19.75 135.615 20.954H139.563C139.563 19.82 138.821 19.064 137.659 19.064ZM148.109 25H146.793V19.26H145.449V18.154H146.793V16.012H148.109V18.154H149.453V19.26H148.109V25ZM150.117 21.57C150.117 19.456 151.629 17.972 153.687 17.972C155.731 17.972 157.243 19.456 157.243 21.57C157.243 23.684 155.731 25.168 153.687 25.168C151.629 25.168 150.117 23.684 150.117 21.57ZM151.447 21.57C151.447 22.998 152.357 23.992 153.687 23.992C155.003 23.992 155.927 22.998 155.927 21.57C155.927 20.142 155.003 19.148 153.687 19.148C152.357 19.148 151.447 20.142 151.447 21.57ZM166.448 18.098V19.302H165.86C164.614 19.302 163.844 20.058 163.844 21.374V25H162.528V18.168H163.76L163.844 19.204C164.124 18.49 164.81 18.014 165.748 18.014C165.986 18.014 166.182 18.042 166.448 18.098ZM170.39 25.168C168.374 25.168 166.988 23.712 166.988 21.584C166.988 19.442 168.346 17.958 170.334 17.958C172.28 17.958 173.554 19.302 173.554 21.332V21.822L168.262 21.836C168.36 23.278 169.116 24.076 170.418 24.076C171.44 24.076 172.112 23.656 172.336 22.872H173.568C173.232 24.342 172.084 25.168 170.39 25.168ZM170.334 19.064C169.186 19.064 168.458 19.75 168.29 20.954H172.238C172.238 19.82 171.496 19.064 170.334 19.064ZM174.576 21.584C174.576 19.442 175.934 17.958 177.936 17.958C179.658 17.958 180.862 18.938 181.1 20.464H179.784C179.56 19.596 178.86 19.134 177.978 19.134C176.732 19.134 175.878 20.086 175.878 21.57C175.878 23.04 176.676 23.992 177.922 23.992C178.86 23.992 179.56 23.502 179.798 22.69H181.114C180.848 24.174 179.574 25.168 177.922 25.168C175.906 25.168 174.576 23.74 174.576 21.584ZM182.055 21.57C182.055 19.456 183.567 17.972 185.625 17.972C187.669 17.972 189.181 19.456 189.181 21.57C189.181 23.684 187.669 25.168 185.625 25.168C183.567 25.168 182.055 23.684 182.055 21.57ZM183.385 21.57C183.385 22.998 184.295 23.992 185.625 23.992C186.941 23.992 187.865 22.998 187.865 21.57C187.865 20.142 186.941 19.148 185.625 19.148C184.295 19.148 183.385 20.142 183.385 21.57ZM194.558 18.098V19.302H193.97C192.724 19.302 191.954 20.058 191.954 21.374V25H190.638V18.168H191.87L191.954 19.204C192.234 18.49 192.92 18.014 193.858 18.014C194.096 18.014 194.292 18.042 194.558 18.098ZM198.29 25.168C196.302 25.168 195.098 23.684 195.098 21.598C195.098 19.498 196.316 17.958 198.346 17.958C199.396 17.958 200.278 18.42 200.74 19.26V14.696H202.042V25H200.866L200.754 23.754C200.306 24.692 199.382 25.168 198.29 25.168ZM198.556 23.978C199.9 23.978 200.726 22.984 200.726 21.556C200.726 20.156 199.9 19.148 198.556 19.148C197.212 19.148 196.428 20.156 196.428 21.556C196.428 22.97 197.212 23.978 198.556 23.978ZM209.77 25.168C208.3 25.168 207.432 24.342 207.432 23.096C207.432 21.836 208.37 21.052 209.98 20.926L212.136 20.758V20.562C212.136 19.414 211.45 19.008 210.526 19.008C209.42 19.008 208.79 19.498 208.79 20.324H207.642C207.642 18.896 208.818 17.958 210.582 17.958C212.276 17.958 213.424 18.854 213.424 20.702V25H212.304L212.164 23.894C211.814 24.678 210.876 25.168 209.77 25.168ZM210.148 24.146C211.394 24.146 212.15 23.334 212.15 22.046V21.682L210.4 21.822C209.238 21.934 208.762 22.382 208.762 23.054C208.762 23.782 209.294 24.146 210.148 24.146ZM78.952 48.066V38.154H80.142L80.24 39.386C80.702 38.448 81.626 37.958 82.718 37.958C84.678 37.958 85.896 39.428 85.896 41.528C85.896 43.614 84.748 45.182 82.718 45.182C81.626 45.182 80.716 44.72 80.268 43.88V48.066H78.952ZM80.282 41.584C80.282 42.984 81.094 43.992 82.438 43.992C83.782 43.992 84.58 42.984 84.58 41.584C84.58 40.17 83.782 39.162 82.438 39.162C81.094 39.162 80.282 40.156 80.282 41.584ZM89.3485 45.168C87.8785 45.168 87.0105 44.342 87.0105 43.096C87.0105 41.836 87.9485 41.052 89.5585 40.926L91.7145 40.758V40.562C91.7145 39.414 91.0285 39.008 90.1045 39.008C88.9985 39.008 88.3685 39.498 88.3685 40.324H87.2205C87.2205 38.896 88.3965 37.958 90.1605 37.958C91.8545 37.958 93.0025 38.854 93.0025 40.702V45H91.8825L91.7425 43.894C91.3925 44.678 90.4545 45.168 89.3485 45.168ZM89.7265 44.146C90.9725 44.146 91.7285 43.334 91.7285 42.046V41.682L89.9785 41.822C88.8165 41.934 88.3405 42.382 88.3405 43.054C88.3405 43.782 88.8725 44.146 89.7265 44.146ZM94.003 48.066V46.988H94.885C95.515 46.988 96.019 46.89 96.341 46.022L96.579 45.364L93.821 38.154H95.207L97.195 43.67L99.225 38.154H100.583L97.349 46.54C96.887 47.716 96.201 48.206 95.151 48.206C94.717 48.206 94.353 48.15 94.003 48.066ZM102.95 45H101.634V38.154H102.81L102.936 39.05C103.286 38.406 104.014 37.958 104.98 37.958C106.044 37.958 106.8 38.49 107.15 39.344C107.472 38.49 108.298 37.958 109.362 37.958C110.93 37.958 111.882 38.938 111.882 40.52V45H110.594V40.842C110.594 39.764 109.992 39.148 109.068 39.148C108.074 39.148 107.416 39.848 107.416 40.94V45H106.114V40.828C106.114 39.75 105.526 39.162 104.602 39.162C103.608 39.162 102.95 39.848 102.95 40.94V45ZM116.66 45.168C114.644 45.168 113.258 43.712 113.258 41.584C113.258 39.442 114.616 37.958 116.604 37.958C118.55 37.958 119.824 39.302 119.824 41.332V41.822L114.532 41.836C114.63 43.278 115.386 44.076 116.688 44.076C117.71 44.076 118.382 43.656 118.606 42.872H119.838C119.502 44.342 118.354 45.168 116.66 45.168ZM116.604 39.064C115.456 39.064 114.728 39.75 114.56 40.954H118.508C118.508 39.82 117.766 39.064 116.604 39.064ZM122.61 45H121.294V38.154H122.484L122.624 39.204C123.058 38.42 123.926 37.958 124.892 37.958C126.698 37.958 127.524 39.064 127.524 40.814V45H126.208V41.108C126.208 39.722 125.564 39.162 124.556 39.162C123.324 39.162 122.61 40.044 122.61 41.374V45ZM131.279 45H129.963V39.26H128.619V38.154H129.963V36.012H131.279V38.154H132.623V39.26H131.279V45Z" fill="#F4F4F4"/>
<path d="M86 79C87.1 79 88 78.1 88 77V67C88 65.9 87.1 65 86 65C84.9 65 84 65.9 84 67V77C84 78.1 84.9 79 86 79ZM92 67V77C92 78.1 92.9 79 94 79C95.1 79 96 78.1 96 77V67C96 65.9 95.1 65 94 65C92.9 65 92 65.9 92 67Z" fill="#F4F4F4"/>
<path d="M225.96 76V67.756H228.864C231.588 67.756 233.508 69.46 233.508 71.872C233.508 74.284 231.588 76 228.864 76H225.96ZM227.46 74.644H229.02C230.76 74.644 231.984 73.492 231.984 71.872C231.984 70.252 230.76 69.112 229.02 69.112H227.46V74.644ZM238.333 76.144C236.533 76.144 235.009 74.656 235.009 72.892C235.009 71.128 236.533 69.652 238.333 69.652C240.133 69.652 241.657 71.128 241.657 72.892C241.657 74.656 240.133 76.144 238.333 76.144ZM238.333 74.896C239.353 74.896 240.217 73.984 240.217 72.892C240.217 71.812 239.353 70.9 238.333 70.9C237.301 70.9 236.437 71.812 236.437 72.892C236.437 73.984 237.301 74.896 238.333 74.896ZM246.711 69.652C248.067 69.652 249.015 70.648 249.015 72.052V76H247.599V72.34C247.599 71.5 247.059 70.9 246.291 70.9C245.523 70.9 244.887 71.416 244.791 72.076V76H243.327V69.796H244.791V70.624C245.175 70.048 245.895 69.652 246.711 69.652ZM253.896 74.848C254.472 74.848 255.156 74.584 255.504 74.224L256.428 75.184C255.888 75.76 254.808 76.144 253.908 76.144C252.132 76.144 250.668 74.788 250.668 72.88C250.668 71.02 252.06 69.652 253.824 69.652C255.744 69.652 256.86 71.104 256.86 73.396H252.18C252.36 74.248 253.008 74.848 253.896 74.848ZM253.884 70.948C253.068 70.948 252.408 71.464 252.192 72.28H255.456C255.288 71.5 254.76 70.948 253.884 70.948Z" fill="#FFDE85"/>
<rect x="18" y="182" width="308" height="36" rx="12" fill="#F2EFFF"/>
<path d="M38.1492 191.938C38.0441 191.887 37.9268 191.866 37.8105 191.879C37.6942 191.891 37.5836 191.935 37.4914 192.007L32.0352 196.25H28.5C28.1685 196.25 27.8505 196.382 27.6161 196.616C27.3817 196.851 27.25 197.169 27.25 197.5V202.5C27.25 202.832 27.3817 203.15 27.6161 203.384C27.8505 203.618 28.1685 203.75 28.5 203.75H32.0352L37.4914 207.993C37.5837 208.065 37.6944 208.109 37.8107 208.121C37.927 208.133 38.0444 208.113 38.1495 208.061C38.2545 208.01 38.3431 207.93 38.405 207.831C38.467 207.732 38.4999 207.617 38.5 207.5V192.5C38.5 192.383 38.4671 192.268 38.4051 192.169C38.3431 192.07 38.2544 191.99 38.1492 191.938ZM28.5 197.5H31.625V202.5H28.5V197.5ZM37.25 206.222L32.875 202.82V197.181L37.25 193.778V206.222ZM41.4688 197.934C41.9715 198.505 42.2488 199.24 42.2488 200C42.2488 200.761 41.9715 201.495 41.4688 202.066C41.3583 202.187 41.2046 202.26 41.0408 202.269C40.877 202.278 40.7162 202.222 40.5932 202.114C40.4701 202.005 40.3947 201.853 40.3831 201.689C40.3715 201.526 40.4247 201.364 40.5313 201.239C40.8327 200.897 40.999 200.456 40.999 200C40.999 199.544 40.8327 199.103 40.5313 198.761C40.4247 198.636 40.3715 198.475 40.3831 198.311C40.3947 198.147 40.4701 197.995 40.5932 197.886C40.7162 197.778 40.877 197.722 41.0408 197.731C41.2046 197.74 41.3583 197.813 41.4688 197.934ZM45.375 200C45.3759 201.538 44.8092 203.022 43.7836 204.167C43.6723 204.288 43.518 204.36 43.3542 204.367C43.1903 204.375 43.03 204.318 42.9077 204.209C42.7855 204.099 42.7112 203.946 42.7008 203.783C42.6905 203.619 42.7449 203.458 42.8523 203.334C43.6722 202.417 44.1254 201.23 44.1254 200.001C44.1254 198.771 43.6722 197.584 42.8523 196.667C42.7961 196.606 42.7525 196.535 42.7241 196.457C42.6957 196.379 42.6831 196.296 42.687 196.214C42.691 196.131 42.7113 196.05 42.7469 195.975C42.7826 195.9 42.8327 195.833 42.8945 195.777C42.9563 195.722 43.0284 195.68 43.1068 195.653C43.1851 195.625 43.2681 195.614 43.3508 195.619C43.4336 195.625 43.5145 195.646 43.5888 195.683C43.6631 195.72 43.7293 195.771 43.7836 195.834C44.8095 196.979 45.3762 198.463 45.375 200Z" fill="#9C8FD3"/>
<path d="M54.434 198.364V197.286H62.988V198.364H54.434ZM57.164 205.168C56.6413 205.168 56.17 205.065 55.75 204.86C55.3393 204.655 55.0173 204.365 54.784 203.992C54.5507 203.619 54.434 203.175 54.434 202.662C54.434 202.251 54.518 201.883 54.686 201.556C54.854 201.22 55.0967 200.954 55.414 200.758C55.7313 200.562 56.114 200.464 56.562 200.464C57.0567 200.464 57.4533 200.581 57.752 200.814C58.0507 201.047 58.2 201.365 58.2 201.766C58.2 201.915 58.186 202.065 58.158 202.214C58.13 202.363 58.0833 202.489 58.018 202.592L57.066 202.508C57.0847 202.433 57.1033 202.359 57.122 202.284C57.1407 202.2 57.15 202.125 57.15 202.06C57.15 201.649 56.94 201.444 56.52 201.444C56.2307 201.444 55.988 201.547 55.792 201.752C55.6053 201.948 55.512 202.237 55.512 202.62C55.512 203.04 55.6567 203.385 55.946 203.656C56.2353 203.927 56.6787 204.062 57.276 204.062C57.92 204.062 58.3913 203.899 58.69 203.572C58.9887 203.245 59.1613 202.811 59.208 202.27H60.272C60.3187 202.895 60.5007 203.353 60.818 203.642C61.1447 203.922 61.532 204.062 61.98 204.062C62.484 204.062 62.8433 203.899 63.058 203.572C63.2727 203.236 63.38 202.821 63.38 202.326C63.38 201.897 63.296 201.463 63.128 201.024C62.96 200.576 62.652 200.095 62.204 199.582L63.198 198.91C63.6273 199.386 63.954 199.895 64.178 200.436C64.4113 200.968 64.528 201.565 64.528 202.228C64.528 202.9 64.4113 203.455 64.178 203.894C63.954 204.323 63.6553 204.645 63.282 204.86C62.9087 205.065 62.5073 205.168 62.078 205.168C61.6487 205.168 61.294 205.117 61.014 205.014C60.734 204.921 60.496 204.781 60.3 204.594C60.104 204.407 59.9173 204.179 59.74 203.908C59.404 204.421 59.0307 204.762 58.62 204.93C58.2093 205.089 57.724 205.168 57.164 205.168ZM59.614 200.842C59.39 200.842 59.1987 200.763 59.04 200.604C58.8907 200.445 58.816 200.254 58.816 200.03C58.816 199.787 58.8907 199.587 59.04 199.428C59.1987 199.269 59.39 199.19 59.614 199.19C59.8473 199.19 60.0433 199.269 60.202 199.428C60.3607 199.587 60.44 199.787 60.44 200.03C60.44 200.254 60.3607 200.445 60.202 200.604C60.0433 200.763 59.8473 200.842 59.614 200.842ZM70.7859 201.626C70.7859 202.755 70.5292 203.628 70.0159 204.244C69.5026 204.86 68.7699 205.168 67.8179 205.168C67.3046 205.168 66.8659 205.07 66.5019 204.874C66.1472 204.669 65.8766 204.398 65.6899 204.062C65.5126 203.717 65.4239 203.339 65.4239 202.928C65.4239 202.321 65.5732 201.864 65.8719 201.556C66.1799 201.248 66.5486 201.094 66.9779 201.094C67.3232 201.094 67.5846 201.183 67.7619 201.36C67.9486 201.528 68.0419 201.752 68.0419 202.032C68.0419 202.293 67.9672 202.503 67.8179 202.662C67.6779 202.821 67.4959 202.9 67.2719 202.9C66.8332 202.9 66.5766 202.695 66.5019 202.284C66.4552 202.443 66.4319 202.625 66.4319 202.83C66.4319 203.166 66.5346 203.469 66.7399 203.74C66.9546 204.001 67.3186 204.132 67.8319 204.132C68.3826 204.132 68.8212 203.927 69.1479 203.516C69.4746 203.105 69.6379 202.475 69.6379 201.626C69.6379 200.599 69.3766 199.811 68.8539 199.26C68.6672 199.055 68.4572 198.887 68.2239 198.756C67.9906 198.625 67.6919 198.527 67.3279 198.462C66.9639 198.397 66.4972 198.364 65.9279 198.364H62.5119V197.286H66.1939C67.1272 197.286 67.8692 197.393 68.4199 197.608C68.9799 197.823 69.4419 198.14 69.8059 198.56C70.1232 198.905 70.3659 199.339 70.5339 199.862C70.7019 200.375 70.7859 200.963 70.7859 201.626ZM74.541 205.168C74.0183 205.168 73.547 205.065 73.127 204.86C72.7163 204.655 72.3943 204.365 72.161 203.992C71.9276 203.619 71.811 203.175 71.811 202.662C71.811 202.251 71.895 201.883 72.063 201.556C72.231 201.22 72.4736 200.954 72.791 200.758C73.1083 200.562 73.491 200.464 73.939 200.464C74.4336 200.464 74.8303 200.581 75.129 200.814C75.4276 201.047 75.577 201.365 75.577 201.766C75.577 201.915 75.563 202.065 75.535 202.214C75.507 202.363 75.4603 202.489 75.395 202.592L74.443 202.508C74.4616 202.452 74.4803 202.382 74.499 202.298C74.5176 202.205 74.527 202.125 74.527 202.06C74.527 201.649 74.317 201.444 73.897 201.444C73.6076 201.444 73.365 201.547 73.169 201.752C72.9823 201.948 72.889 202.237 72.889 202.62C72.889 203.04 73.0336 203.385 73.323 203.656C73.6123 203.927 74.0556 204.062 74.653 204.062C75.297 204.062 75.7683 203.899 76.067 203.572C76.3656 203.245 76.5383 202.811 76.585 202.27H77.649C77.6956 202.895 77.8776 203.353 78.195 203.642C78.5216 203.922 78.909 204.062 79.357 204.062C79.8796 204.062 80.2436 203.894 80.449 203.558C80.6543 203.213 80.757 202.802 80.757 202.326C80.757 201.626 80.6076 201.001 80.309 200.45C80.0103 199.89 79.6276 199.433 79.161 199.078C78.7036 198.714 78.2323 198.476 77.747 198.364H71.811V197.286H78.951C79.455 197.286 79.8096 197.263 80.015 197.216C80.2203 197.169 80.3696 197.109 80.463 197.034C80.5936 196.941 80.6776 196.838 80.715 196.726C80.7523 196.605 80.771 196.479 80.771 196.348C80.771 195.751 80.4676 195.149 79.861 194.542L80.771 193.94C81.2096 194.425 81.5083 194.864 81.667 195.256C81.8256 195.639 81.905 196.031 81.905 196.432C81.905 196.609 81.8676 196.829 81.793 197.09C81.7276 197.342 81.5736 197.571 81.331 197.776C81.1443 197.944 80.9296 198.075 80.687 198.168C80.4536 198.252 80.1596 198.308 79.805 198.336C80.477 198.793 80.995 199.353 81.359 200.016C81.723 200.679 81.905 201.416 81.905 202.228C81.905 202.9 81.7883 203.455 81.555 203.894C81.331 204.323 81.0323 204.645 80.659 204.86C80.2856 205.065 79.8843 205.168 79.455 205.168C79.0256 205.168 78.671 205.117 78.391 205.014C78.111 204.921 77.873 204.781 77.677 204.594C77.481 204.407 77.2943 204.179 77.117 203.908C76.781 204.421 76.4076 204.762 75.997 204.93C75.5863 205.089 75.101 205.168 74.541 205.168ZM86.7482 205.168C85.8895 205.168 85.1709 205.037 84.5922 204.776C84.0229 204.505 83.5982 204.146 83.3182 203.698C83.0382 203.241 82.8982 202.737 82.8982 202.186C82.8982 201.897 82.9262 201.626 82.9822 201.374L84.0882 201.528C84.0509 201.687 84.0322 201.869 84.0322 202.074C84.0322 202.391 84.1069 202.704 84.2562 203.012C84.4149 203.32 84.6902 203.572 85.0822 203.768C85.4742 203.964 86.0249 204.062 86.7342 204.062C87.3222 204.062 87.8029 204.001 88.1762 203.88C88.5589 203.759 88.8529 203.6 89.0582 203.404C89.2635 203.208 89.4035 202.998 89.4782 202.774C89.5622 202.55 89.6042 202.335 89.6042 202.13C89.6042 201.99 89.5902 201.855 89.5622 201.724C89.5435 201.593 89.5062 201.467 89.4502 201.346C89.2169 201.719 88.9042 201.999 88.5122 202.186C88.1295 202.373 87.7095 202.466 87.2522 202.466C86.6362 202.466 86.1555 202.335 85.8102 202.074C85.4649 201.803 85.2922 201.397 85.2922 200.856C85.2922 200.417 85.4509 200.053 85.7682 199.764C86.0949 199.465 86.6269 199.316 87.3642 199.316C87.6442 199.316 87.9055 199.344 88.1482 199.4C88.3909 199.447 88.6195 199.517 88.8342 199.61C88.8342 199.526 88.8342 199.442 88.8342 199.358C88.8342 198.854 88.7502 198.387 88.5822 197.958C88.4235 197.529 88.2042 197.16 87.9242 196.852C87.7375 197.375 87.4575 197.757 87.0842 198C86.7109 198.233 86.2769 198.35 85.7822 198.35C85.1849 198.35 84.7042 198.205 84.3402 197.916C83.9855 197.617 83.8082 197.188 83.8082 196.628C83.8082 196.143 83.9949 195.741 84.3682 195.424C84.7415 195.097 85.2455 194.934 85.8802 194.934C86.4962 194.934 87.0562 195.06 87.5602 195.312C88.0642 195.555 88.4935 195.886 88.8482 196.306C89.2029 196.726 89.4735 197.202 89.6602 197.734C89.8562 198.257 89.9542 198.798 89.9542 199.358C89.9542 199.685 89.9262 199.993 89.8702 200.282C90.1222 200.525 90.3089 200.805 90.4302 201.122C90.5515 201.439 90.6122 201.766 90.6122 202.102C90.6122 203.045 90.2995 203.791 89.6742 204.342C89.0582 204.893 88.0829 205.168 86.7482 205.168ZM84.9002 196.642C84.9002 196.866 84.9702 197.043 85.1102 197.174C85.2595 197.305 85.4649 197.37 85.7262 197.37C86.0529 197.37 86.3375 197.281 86.5802 197.104C86.8322 196.927 86.9862 196.619 87.0422 196.18C86.6782 196.003 86.2909 195.914 85.8802 195.914C85.5442 195.914 85.2969 195.984 85.1382 196.124C84.9795 196.255 84.9002 196.427 84.9002 196.642ZM86.4122 200.898C86.4122 201.262 86.7155 201.444 87.3222 201.444C87.6582 201.444 87.9382 201.374 88.1622 201.234C88.3862 201.094 88.5542 200.87 88.6662 200.562C88.5169 200.478 88.3442 200.417 88.1482 200.38C87.9522 200.333 87.7375 200.31 87.5042 200.31C87.1122 200.31 86.8322 200.361 86.6642 200.464C86.4962 200.557 86.4122 200.702 86.4122 200.898ZM95.4311 205.168C94.7405 205.168 94.1571 205.047 93.6811 204.804C93.2051 204.561 92.8178 204.239 92.5191 203.838C92.2298 203.437 92.0151 202.998 91.8751 202.522C91.7445 202.046 91.6791 201.57 91.6791 201.094C91.6791 200.338 91.8331 199.661 92.1411 199.064C92.4491 198.457 92.8831 197.981 93.4431 197.636C94.0031 197.291 94.6565 197.118 95.4031 197.118C96.1031 197.118 96.6911 197.244 97.1671 197.496C97.6431 197.739 98.0258 198.061 98.3151 198.462C98.6045 198.863 98.8098 199.302 98.9311 199.778C99.0618 200.245 99.1271 200.697 99.1271 201.136C99.1271 201.733 99.0385 202.279 98.8611 202.774C99.2158 203.194 99.5798 203.516 99.9531 203.74C100.326 203.955 100.751 204.062 101.227 204.062C101.806 204.062 102.249 203.88 102.557 203.516C102.865 203.152 103.019 202.667 103.019 202.06C103.019 201.164 102.767 200.394 102.263 199.75C101.768 199.097 101.106 198.635 100.275 198.364H99.5191V197.286H101.087C101.591 197.286 101.946 197.263 102.151 197.216C102.356 197.169 102.506 197.109 102.599 197.034C102.72 196.941 102.8 196.838 102.837 196.726C102.884 196.605 102.907 196.479 102.907 196.348C102.907 195.751 102.604 195.149 101.997 194.542L102.907 193.94C103.346 194.425 103.644 194.864 103.803 195.256C103.962 195.639 104.041 196.031 104.041 196.432C104.041 196.609 104.004 196.829 103.929 197.09C103.864 197.342 103.71 197.571 103.467 197.776C103.299 197.925 103.108 198.047 102.893 198.14C102.688 198.224 102.44 198.285 102.151 198.322C102.795 198.742 103.29 199.251 103.635 199.848C103.99 200.436 104.167 201.15 104.167 201.99C104.167 202.298 104.139 202.597 104.083 202.886C104.419 203.269 104.769 203.563 105.133 203.768C105.506 203.964 105.926 204.062 106.393 204.062C106.953 204.062 107.387 203.88 107.695 203.516C108.003 203.152 108.157 202.667 108.157 202.06C108.157 201.08 107.9 200.277 107.387 199.652C106.883 199.017 106.225 198.523 105.413 198.168L106.015 197.09C106.65 197.398 107.214 197.785 107.709 198.252C108.204 198.719 108.591 199.265 108.871 199.89C109.16 200.515 109.305 201.215 109.305 201.99C109.305 202.597 109.198 203.143 108.983 203.628C108.768 204.104 108.442 204.482 108.003 204.762C107.574 205.033 107.023 205.168 106.351 205.168C105.8 205.168 105.306 205.056 104.867 204.832C104.428 204.608 104.027 204.319 103.663 203.964C103.439 204.309 103.126 204.599 102.725 204.832C102.333 205.056 101.829 205.168 101.213 205.168C100.616 205.168 100.079 205.037 99.6031 204.776C99.1365 204.515 98.7165 204.179 98.3431 203.768C98.0165 204.207 97.6058 204.552 97.1111 204.804C96.6165 205.047 96.0565 205.168 95.4311 205.168ZM95.4031 204.062C96.1778 204.062 96.7985 203.805 97.2651 203.292C97.7411 202.779 97.9791 202.046 97.9791 201.094C97.9791 200.235 97.7598 199.545 97.3211 199.022C96.8918 198.49 96.2478 198.224 95.3891 198.224C94.6611 198.224 94.0498 198.467 93.5551 198.952C93.0698 199.428 92.8271 200.151 92.8271 201.122C92.8271 202.074 93.0558 202.802 93.5131 203.306C93.9705 203.81 94.6005 204.062 95.4031 204.062ZM116.584 205.168C116.09 205.168 115.679 205.075 115.352 204.888C115.035 204.701 114.764 204.463 114.54 204.174C114.326 203.875 114.125 203.567 113.938 203.25C113.705 202.839 113.504 202.531 113.336 202.326C113.168 202.121 113.01 201.981 112.86 201.906C112.72 201.831 112.557 201.794 112.37 201.794C112.053 201.794 111.806 201.897 111.628 202.102C111.46 202.298 111.376 202.573 111.376 202.928C111.376 203.227 111.442 203.535 111.572 203.852C111.703 204.16 111.876 204.463 112.09 204.762L110.998 205.196C110.784 204.897 110.606 204.552 110.466 204.16C110.326 203.768 110.256 203.371 110.256 202.97C110.256 202.531 110.35 202.144 110.536 201.808C110.723 201.472 110.975 201.211 111.292 201.024C111.61 200.828 111.964 200.73 112.356 200.73C112.935 200.73 113.392 200.865 113.728 201.136C114.064 201.407 114.391 201.822 114.708 202.382C114.923 202.746 115.119 203.054 115.296 203.306C115.474 203.558 115.67 203.749 115.884 203.88C116.108 204.001 116.384 204.062 116.71 204.062C117.196 204.062 117.536 203.894 117.732 203.558C117.938 203.213 118.04 202.807 118.04 202.34C118.04 201.687 117.9 201.08 117.62 200.52C117.35 199.96 116.981 199.493 116.514 199.12C116.057 198.737 115.539 198.485 114.96 198.364H110.284V197.286H116.234C116.738 197.286 117.088 197.263 117.284 197.216C117.49 197.169 117.644 197.109 117.746 197.034C117.868 196.941 117.947 196.838 117.984 196.726C118.031 196.605 118.054 196.479 118.054 196.348C118.054 195.751 117.751 195.149 117.144 194.542L118.054 193.94C118.493 194.425 118.792 194.864 118.95 195.256C119.109 195.639 119.188 196.031 119.188 196.432C119.188 196.609 119.151 196.829 119.076 197.09C119.002 197.342 118.848 197.571 118.614 197.776C118.428 197.935 118.213 198.061 117.97 198.154C117.737 198.247 117.443 198.308 117.088 198.336C117.751 198.793 118.264 199.353 118.628 200.016C119.002 200.679 119.188 201.416 119.188 202.228C119.188 203.143 118.96 203.861 118.502 204.384C118.054 204.907 117.415 205.168 116.584 205.168ZM121.399 205.168C120.69 205.168 120.069 204.991 119.537 204.636C119.005 204.272 118.529 203.819 118.109 203.278L118.823 202.522C119.215 203.017 119.612 203.399 120.013 203.67C120.424 203.931 120.9 204.062 121.441 204.062C122.001 204.062 122.435 203.88 122.743 203.516C123.051 203.152 123.205 202.667 123.205 202.06C123.205 201.08 122.949 200.277 122.435 199.652C121.931 199.017 121.273 198.523 120.461 198.168L121.063 197.09C121.698 197.398 122.263 197.785 122.757 198.252C123.252 198.719 123.639 199.265 123.919 199.89C124.209 200.515 124.353 201.215 124.353 201.99C124.353 202.597 124.246 203.143 124.031 203.628C123.817 204.104 123.49 204.482 123.051 204.762C122.613 205.033 122.062 205.168 121.399 205.168ZM122.355 205.924C122.756 205.924 123.097 205.985 123.377 206.106C123.657 206.237 123.914 206.433 124.147 206.694C124.38 206.965 124.623 207.315 124.875 207.744C125.258 207.333 125.449 206.82 125.449 206.204C125.449 205.569 125.309 205 125.029 204.496L125.953 204.034C126.14 204.305 126.28 204.627 126.373 205C126.466 205.373 126.513 205.728 126.513 206.064C126.513 206.633 126.406 207.123 126.191 207.534C125.986 207.954 125.71 208.299 125.365 208.57C125.524 208.803 125.682 208.962 125.841 209.046C126 209.13 126.205 209.172 126.457 209.172C126.532 209.172 126.625 209.163 126.737 209.144C126.849 209.125 126.924 209.107 126.961 209.088L127.143 210.026C127.059 210.063 126.947 210.091 126.807 210.11C126.676 210.138 126.56 210.152 126.457 210.152C126 210.152 125.631 210.063 125.351 209.886C125.071 209.709 124.81 209.433 124.567 209.06C124.278 209.191 123.974 209.284 123.657 209.34C123.33 209.405 123.008 209.438 122.691 209.438C122.168 209.438 121.744 209.349 121.417 209.172C121.081 209.004 120.838 208.78 120.689 208.5C120.54 208.22 120.465 207.921 120.465 207.604C120.465 207.081 120.647 206.671 121.011 206.372C121.366 206.073 121.814 205.924 122.355 205.924ZM121.529 207.604C121.529 207.753 121.562 207.898 121.627 208.038C121.692 208.178 121.818 208.295 122.005 208.388C122.182 208.481 122.439 208.528 122.775 208.528C123.288 208.528 123.741 208.444 124.133 208.276C123.872 207.8 123.606 207.441 123.335 207.198C123.064 206.955 122.756 206.834 122.411 206.834C122.131 206.834 121.916 206.904 121.767 207.044C121.608 207.184 121.529 207.371 121.529 207.604ZM134.798 205.168C134.042 205.168 133.361 205.023 132.754 204.734C132.157 204.445 131.686 204.025 131.34 203.474C130.995 202.914 130.822 202.233 130.822 201.43C130.822 200.721 130.948 200.114 131.2 199.61C131.462 199.097 131.821 198.681 132.278 198.364H130.822V197.286H135.372C136.007 197.286 136.46 197.249 136.73 197.174C137.01 197.09 137.216 196.978 137.346 196.838C137.458 196.707 137.533 196.563 137.57 196.404C137.617 196.236 137.64 196.063 137.64 195.886C137.64 195.494 137.519 195.191 137.276 194.976C137.034 194.752 136.721 194.64 136.338 194.64C136.058 194.64 135.811 194.705 135.596 194.836C135.382 194.957 135.228 195.111 135.134 195.298H135.148C135.382 195.298 135.564 195.354 135.694 195.466C135.825 195.569 135.89 195.713 135.89 195.9C135.89 196.115 135.816 196.283 135.666 196.404C135.526 196.516 135.34 196.572 135.106 196.572C134.77 196.572 134.528 196.46 134.378 196.236C134.238 196.003 134.168 195.746 134.168 195.466C134.168 195.177 134.252 194.897 134.42 194.626C134.598 194.346 134.85 194.117 135.176 193.94C135.512 193.763 135.923 193.674 136.408 193.674C137.146 193.674 137.724 193.898 138.144 194.346C138.564 194.785 138.774 195.349 138.774 196.04C138.774 196.385 138.718 196.698 138.606 196.978C138.504 197.258 138.34 197.501 138.116 197.706C137.874 197.93 137.556 198.093 137.164 198.196C137.668 198.541 138.06 198.971 138.34 199.484C138.63 199.988 138.774 200.637 138.774 201.43C138.774 202.158 138.616 202.802 138.298 203.362C137.981 203.922 137.524 204.365 136.926 204.692C136.338 205.009 135.629 205.168 134.798 205.168ZM134.812 204.034C135.447 204.034 135.97 203.908 136.38 203.656C136.8 203.404 137.113 203.063 137.318 202.634C137.524 202.195 137.626 201.715 137.626 201.192C137.626 200.585 137.5 200.072 137.248 199.652C137.006 199.223 136.674 198.896 136.254 198.672C135.834 198.448 135.358 198.336 134.826 198.336C133.958 198.336 133.263 198.597 132.74 199.12C132.227 199.643 131.97 200.333 131.97 201.192C131.97 202.097 132.227 202.797 132.74 203.292C133.263 203.787 133.954 204.034 134.812 204.034ZM143.316 205.168C142.326 205.168 141.552 204.93 140.992 204.454C140.441 203.978 140.166 203.357 140.166 202.592C140.166 201.789 140.492 201.159 141.146 200.702L139.858 200.716V199.75H142.77C142.872 199.675 142.956 199.582 143.022 199.47C143.096 199.349 143.134 199.213 143.134 199.064C143.134 198.933 143.11 198.807 143.064 198.686C143.026 198.565 142.975 198.457 142.91 198.364H139.858V197.286H145.304V198.364H144.03C144.17 198.625 144.24 198.863 144.24 199.078C144.24 199.227 144.221 199.358 144.184 199.47C144.156 199.573 144.114 199.666 144.058 199.75H146.9V200.716L145.528 200.702C145.845 200.879 146.097 201.131 146.284 201.458C146.48 201.785 146.578 202.153 146.578 202.564C146.578 203.339 146.302 203.969 145.752 204.454C145.21 204.93 144.398 205.168 143.316 205.168ZM143.372 204.076C144.118 204.076 144.65 203.917 144.968 203.6C145.294 203.273 145.458 202.881 145.458 202.424C145.458 201.901 145.28 201.486 144.926 201.178C144.58 200.87 144.062 200.716 143.372 200.716C142.662 200.716 142.135 200.879 141.79 201.206C141.454 201.523 141.286 201.929 141.286 202.424C141.286 202.919 141.458 203.32 141.804 203.628C142.149 203.927 142.672 204.076 143.372 204.076ZM153.091 201.626C153.091 202.755 152.834 203.628 152.321 204.244C151.807 204.86 151.075 205.168 150.123 205.168C149.609 205.168 149.171 205.07 148.807 204.874C148.452 204.669 148.181 204.398 147.995 204.062C147.817 203.717 147.729 203.339 147.729 202.928C147.729 202.321 147.878 201.864 148.177 201.556C148.485 201.248 148.853 201.094 149.283 201.094C149.628 201.094 149.889 201.183 150.067 201.36C150.253 201.528 150.347 201.752 150.347 202.032C150.347 202.293 150.272 202.503 150.123 202.662C149.983 202.821 149.801 202.9 149.577 202.9C149.138 202.9 148.881 202.695 148.807 202.284C148.76 202.443 148.737 202.625 148.737 202.83C148.737 203.166 148.839 203.469 149.045 203.74C149.259 204.001 149.623 204.132 150.137 204.132C150.687 204.132 151.126 203.927 151.453 203.516C151.779 203.105 151.943 202.475 151.943 201.626C151.943 200.599 151.681 199.811 151.159 199.26C150.972 199.055 150.762 198.887 150.529 198.756C150.295 198.625 149.997 198.527 149.633 198.462C149.269 198.397 148.802 198.364 148.233 198.364H144.817V197.286H148.499C149.432 197.286 150.174 197.393 150.725 197.608C151.285 197.823 151.747 198.14 152.111 198.56C152.428 198.905 152.671 199.339 152.839 199.862C153.007 200.375 153.091 200.963 153.091 201.626ZM156.706 205.168C155.978 205.168 155.39 204.897 154.942 204.356C154.494 203.815 154.27 203.003 154.27 201.92C154.27 201.136 154.424 200.436 154.732 199.82C155.04 199.195 155.488 198.709 156.076 198.364H154.27V197.286H162.334V198.35C162.698 198.574 162.959 198.859 163.118 199.204C163.286 199.549 163.37 199.909 163.37 200.282C163.37 200.385 163.365 200.478 163.356 200.562C163.71 201.085 163.888 201.705 163.888 202.424C163.888 202.975 163.776 203.455 163.552 203.866C163.337 204.277 163.043 204.599 162.67 204.832C162.296 205.056 161.867 205.168 161.382 205.168C160.812 205.168 160.35 205.07 159.996 204.874C159.641 204.678 159.319 204.356 159.03 203.908C158.722 204.431 158.367 204.771 157.966 204.93C157.574 205.089 157.154 205.168 156.706 205.168ZM156.86 204.062C157.326 204.062 157.695 203.908 157.966 203.6C158.236 203.283 158.414 202.891 158.498 202.424H159.562C159.655 202.993 159.856 203.409 160.164 203.67C160.481 203.931 160.85 204.062 161.27 204.062C161.68 204.062 162.044 203.936 162.362 203.684C162.679 203.432 162.838 203.007 162.838 202.41C162.838 202.158 162.81 201.911 162.754 201.668C162.586 201.855 162.376 202.004 162.124 202.116C161.881 202.228 161.596 202.284 161.27 202.284C160.812 202.284 160.411 202.163 160.066 201.92C159.73 201.677 159.562 201.299 159.562 200.786C159.562 200.301 159.72 199.946 160.038 199.722C160.364 199.489 160.738 199.372 161.158 199.372C161.382 199.372 161.578 199.395 161.746 199.442C161.923 199.479 162.082 199.531 162.222 199.596C162.035 199.213 161.69 198.91 161.186 198.686C160.691 198.453 160.108 198.336 159.436 198.336H158.946C158.18 198.336 157.532 198.495 157 198.812C156.477 199.12 156.08 199.545 155.81 200.086C155.548 200.618 155.418 201.229 155.418 201.92C155.418 202.695 155.544 203.245 155.796 203.572C156.048 203.899 156.402 204.062 156.86 204.062ZM160.612 200.786C160.612 201.197 160.854 201.402 161.34 201.402C161.517 201.402 161.704 201.355 161.9 201.262C162.096 201.159 162.236 200.982 162.32 200.73C162.198 200.581 162.049 200.459 161.872 200.366C161.704 200.273 161.508 200.226 161.284 200.226C161.088 200.226 160.924 200.277 160.794 200.38C160.672 200.473 160.612 200.609 160.612 200.786ZM166.366 200.87C165.712 200.87 165.19 200.655 164.798 200.226C164.406 199.797 164.21 199.19 164.21 198.406V198.364H161.928V197.286H164.322C164.49 196.633 164.812 196.133 165.288 195.788C165.773 195.433 166.361 195.256 167.052 195.256C167.416 195.256 167.738 195.298 168.018 195.382C168.307 195.466 168.554 195.569 168.76 195.69L168.158 196.572C167.766 196.357 167.355 196.25 166.926 196.25C166.59 196.25 166.286 196.329 166.016 196.488C165.745 196.637 165.544 196.903 165.414 197.286H165.778C166.216 197.286 166.594 197.328 166.912 197.412C167.238 197.487 167.509 197.627 167.724 197.832C168.088 198.149 168.27 198.593 168.27 199.162C168.27 199.731 168.088 200.161 167.724 200.45C167.369 200.73 166.916 200.87 166.366 200.87ZM165.26 198.462C165.26 198.901 165.353 199.255 165.54 199.526C165.736 199.787 166.02 199.918 166.394 199.918C166.627 199.918 166.818 199.867 166.968 199.764C167.126 199.652 167.206 199.461 167.206 199.19C167.206 198.938 167.122 198.742 166.954 198.602C166.842 198.509 166.711 198.448 166.562 198.42C166.412 198.383 166.202 198.364 165.932 198.364H165.26V198.462ZM176.339 198.364H172.517C171.967 198.364 171.561 198.378 171.299 198.406C171.038 198.434 170.809 198.513 170.613 198.644C170.343 198.812 170.207 199.087 170.207 199.47C170.207 199.703 170.249 199.885 170.333 200.016C170.427 200.147 170.548 200.259 170.697 200.352C170.856 200.445 171.057 200.511 171.299 200.548C171.542 200.576 171.883 200.59 172.321 200.59H173.931V201.668H172.587C172.242 201.668 171.967 201.673 171.761 201.682C171.565 201.691 171.407 201.71 171.285 201.738C171.173 201.757 171.066 201.785 170.963 201.822C170.767 201.906 170.609 202.027 170.487 202.186C170.375 202.335 170.319 202.527 170.319 202.76C170.319 203.059 170.394 203.292 170.543 203.46C170.693 203.619 170.889 203.731 171.131 203.796C171.383 203.861 171.654 203.894 171.943 203.894H172.083V205H171.873C171.369 205 170.912 204.93 170.501 204.79C170.1 204.65 169.778 204.426 169.535 204.118C169.293 203.801 169.171 203.385 169.171 202.872C169.171 202.088 169.517 201.523 170.207 201.178C169.871 200.991 169.596 200.749 169.381 200.45C169.167 200.142 169.059 199.759 169.059 199.302C169.059 199.041 169.115 198.793 169.227 198.56C169.339 198.317 169.484 198.117 169.661 197.958C169.867 197.781 170.091 197.645 170.333 197.552C170.576 197.459 170.87 197.393 171.215 197.356C171.561 197.309 171.985 197.286 172.489 197.286H176.339V198.364ZM183.602 205.168C183.079 205.168 182.608 205.065 182.188 204.86C181.777 204.655 181.455 204.365 181.222 203.992C180.988 203.619 180.872 203.175 180.872 202.662C180.872 202.251 180.956 201.883 181.124 201.556C181.292 201.22 181.534 200.954 181.852 200.758C182.169 200.562 182.552 200.464 183 200.464C183.494 200.464 183.891 200.581 184.19 200.814C184.488 201.047 184.638 201.365 184.638 201.766C184.638 201.915 184.624 202.065 184.596 202.214C184.568 202.363 184.521 202.489 184.456 202.592L183.504 202.508C183.522 202.452 183.541 202.382 183.56 202.298C183.578 202.205 183.588 202.125 183.588 202.06C183.588 201.649 183.378 201.444 182.958 201.444C182.668 201.444 182.426 201.547 182.23 201.752C182.043 201.948 181.95 202.237 181.95 202.62C181.95 203.04 182.094 203.385 182.384 203.656C182.673 203.927 183.116 204.062 183.714 204.062C184.358 204.062 184.829 203.899 185.128 203.572C185.426 203.245 185.599 202.811 185.646 202.27H186.71C186.756 202.895 186.938 203.353 187.256 203.642C187.582 203.922 187.97 204.062 188.418 204.062C188.94 204.062 189.304 203.894 189.51 203.558C189.715 203.213 189.818 202.802 189.818 202.326C189.818 201.626 189.668 201.001 189.37 200.45C189.071 199.89 188.688 199.433 188.222 199.078C187.764 198.714 187.293 198.476 186.808 198.364H180.872V197.286H188.012C188.516 197.286 188.87 197.263 189.076 197.216C189.281 197.169 189.43 197.109 189.524 197.034C189.654 196.941 189.738 196.838 189.776 196.726C189.813 196.605 189.832 196.479 189.832 196.348C189.832 195.751 189.528 195.149 188.922 194.542L189.832 193.94C190.27 194.425 190.569 194.864 190.728 195.256C190.886 195.639 190.966 196.031 190.966 196.432C190.966 196.609 190.928 196.829 190.854 197.09C190.788 197.342 190.634 197.571 190.392 197.776C190.205 197.944 189.99 198.075 189.748 198.168C189.514 198.252 189.22 198.308 188.866 198.336C189.538 198.793 190.056 199.353 190.42 200.016C190.784 200.679 190.966 201.416 190.966 202.228C190.966 202.471 190.947 202.699 190.91 202.914C191.246 203.287 191.591 203.572 191.946 203.768C192.31 203.964 192.716 204.062 193.164 204.062C193.742 204.062 194.186 203.88 194.494 203.516C194.802 203.152 194.956 202.667 194.956 202.06C194.956 201.164 194.704 200.394 194.2 199.75C193.705 199.097 193.042 198.635 192.212 198.364H191.652V197.286H194.522V198.364H194.144C194.76 198.784 195.24 199.288 195.586 199.876C195.931 200.464 196.104 201.169 196.104 201.99C196.104 202.363 196.052 202.741 195.95 203.124C195.856 203.497 195.698 203.838 195.474 204.146C195.25 204.454 194.946 204.701 194.564 204.888C194.181 205.075 193.71 205.168 193.15 205.168C192.618 205.168 192.137 205.065 191.708 204.86C191.278 204.645 190.886 204.37 190.532 204.034C190.308 204.417 190.014 204.701 189.65 204.888C189.295 205.075 188.917 205.168 188.516 205.168C188.086 205.168 187.732 205.117 187.452 205.014C187.172 204.921 186.934 204.781 186.738 204.594C186.542 204.407 186.355 204.179 186.178 203.908C185.842 204.421 185.468 204.762 185.058 204.93C184.647 205.089 184.162 205.168 183.602 205.168ZM202.323 201.626C202.323 202.755 202.066 203.628 201.553 204.244C201.04 204.86 200.307 205.168 199.355 205.168C198.842 205.168 198.403 205.07 198.039 204.874C197.684 204.669 197.414 204.398 197.227 204.062C197.05 203.717 196.961 203.339 196.961 202.928C196.961 202.321 197.11 201.864 197.409 201.556C197.717 201.248 198.086 201.094 198.515 201.094C198.86 201.094 199.122 201.183 199.299 201.36C199.486 201.528 199.579 201.752 199.579 202.032C199.579 202.293 199.504 202.503 199.355 202.662C199.215 202.821 199.033 202.9 198.809 202.9C198.37 202.9 198.114 202.695 198.039 202.284C197.992 202.443 197.969 202.625 197.969 202.83C197.969 203.166 198.072 203.469 198.277 203.74C198.492 204.001 198.856 204.132 199.369 204.132C199.92 204.132 200.358 203.927 200.685 203.516C201.012 203.105 201.175 202.475 201.175 201.626C201.175 200.599 200.914 199.811 200.391 199.26C200.204 199.055 199.994 198.887 199.761 198.756C199.528 198.625 199.229 198.527 198.865 198.462C198.501 198.397 198.034 198.364 197.465 198.364H194.049V197.286H197.731C198.664 197.286 199.406 197.393 199.957 197.608C200.517 197.823 200.979 198.14 201.343 198.56C201.66 198.905 201.903 199.339 202.071 199.862C202.239 200.375 202.323 200.963 202.323 201.626ZM205.938 205.168C205.21 205.168 204.622 204.897 204.174 204.356C203.726 203.815 203.502 203.003 203.502 201.92C203.502 201.136 203.656 200.436 203.964 199.82C204.272 199.195 204.72 198.709 205.308 198.364H203.502V197.286H210.166C210.661 197.286 211.011 197.263 211.216 197.216C211.431 197.169 211.585 197.109 211.678 197.034C211.809 196.941 211.893 196.838 211.93 196.726C211.967 196.605 211.986 196.479 211.986 196.348C211.986 195.751 211.683 195.149 211.076 194.542L211.986 193.94C212.425 194.425 212.723 194.864 212.882 195.256C213.041 195.639 213.12 196.031 213.12 196.432C213.12 196.609 213.083 196.829 213.008 197.09C212.933 197.342 212.779 197.571 212.546 197.776C212.425 197.888 212.271 197.991 212.084 198.084C211.907 198.168 211.692 198.233 211.44 198.28C211.841 198.495 212.135 198.784 212.322 199.148C212.509 199.503 212.602 199.881 212.602 200.282C212.602 200.385 212.597 200.478 212.588 200.562C212.943 201.085 213.12 201.705 213.12 202.424C213.12 202.975 213.008 203.455 212.784 203.866C212.569 204.277 212.275 204.599 211.902 204.832C211.529 205.056 211.099 205.168 210.614 205.168C210.045 205.168 209.583 205.075 209.228 204.888C208.873 204.692 208.551 204.37 208.262 203.922C207.945 204.435 207.59 204.771 207.198 204.93C206.806 205.089 206.386 205.168 205.938 205.168ZM206.092 204.062C206.559 204.062 206.927 203.908 207.198 203.6C207.469 203.283 207.646 202.891 207.73 202.424H208.794C208.887 202.993 209.088 203.409 209.396 203.67C209.713 203.931 210.082 204.062 210.502 204.062C210.913 204.062 211.277 203.936 211.594 203.684C211.911 203.432 212.07 203.007 212.07 202.41C212.07 202.158 212.042 201.911 211.986 201.668C211.818 201.855 211.608 202.004 211.356 202.116C211.113 202.228 210.829 202.284 210.502 202.284C210.045 202.284 209.643 202.163 209.298 201.92C208.962 201.677 208.794 201.299 208.794 200.786C208.794 200.301 208.953 199.946 209.27 199.722C209.597 199.489 209.97 199.372 210.39 199.372C210.614 199.372 210.81 199.395 210.978 199.442C211.155 199.479 211.314 199.531 211.454 199.596C211.267 199.213 210.922 198.91 210.418 198.686C209.923 198.453 209.34 198.336 208.668 198.336H208.178C207.413 198.336 206.764 198.495 206.232 198.812C205.709 199.12 205.313 199.545 205.042 200.086C204.781 200.618 204.65 201.229 204.65 201.92C204.65 202.695 204.776 203.245 205.028 203.572C205.28 203.899 205.635 204.062 206.092 204.062ZM209.844 200.786C209.844 201.197 210.087 201.402 210.572 201.402C210.749 201.402 210.936 201.355 211.132 201.262C211.328 201.159 211.468 200.982 211.552 200.73C211.431 200.581 211.281 200.459 211.104 200.366C210.936 200.273 210.74 200.226 210.516 200.226C210.32 200.226 210.157 200.277 210.026 200.38C209.905 200.473 209.844 200.609 209.844 200.786ZM218.91 205.168C217.902 205.168 217.043 204.977 216.334 204.594C215.634 204.211 215.097 203.684 214.724 203.012C214.36 202.331 214.178 201.556 214.178 200.688C214.178 199.951 214.295 199.316 214.528 198.784C214.771 198.252 215.107 197.841 215.536 197.552C215.975 197.263 216.479 197.118 217.048 197.118C217.683 197.118 218.173 197.286 218.518 197.622C218.873 197.958 219.05 198.415 219.05 198.994C219.05 199.591 218.845 200.095 218.434 200.506C218.023 200.907 217.421 201.108 216.628 201.108C216.339 201.108 216.082 201.075 215.858 201.01C215.634 200.935 215.438 200.847 215.27 200.744C215.279 201.341 215.424 201.892 215.704 202.396C215.984 202.891 216.395 203.287 216.936 203.586C217.487 203.885 218.159 204.034 218.952 204.034C220.119 204.034 221.019 203.773 221.654 203.25C222.298 202.727 222.62 201.999 222.62 201.066C222.62 200.403 222.433 199.834 222.06 199.358C221.687 198.873 221.183 198.462 220.548 198.126L221.192 197.09C222.004 197.529 222.634 198.075 223.082 198.728C223.539 199.381 223.768 200.161 223.768 201.066C223.768 201.813 223.6 202.499 223.264 203.124C222.937 203.74 222.415 204.235 221.696 204.608C220.987 204.981 220.058 205.168 218.91 205.168ZM217.048 198.098C216.675 198.098 216.329 198.224 216.012 198.476C215.704 198.719 215.489 199.134 215.368 199.722C215.508 199.815 215.676 199.909 215.872 200.002C216.068 200.086 216.292 200.128 216.544 200.128C217.039 200.128 217.398 200.025 217.622 199.82C217.846 199.605 217.958 199.339 217.958 199.022C217.958 198.723 217.874 198.495 217.706 198.336C217.538 198.177 217.319 198.098 217.048 198.098ZM225.907 205.168C225.198 205.168 224.577 204.991 224.045 204.636C223.513 204.272 223.037 203.819 222.617 203.278L223.331 202.522C223.723 203.017 224.12 203.399 224.521 203.67C224.932 203.931 225.408 204.062 225.949 204.062C226.509 204.062 226.943 203.88 227.251 203.516C227.559 203.152 227.713 202.667 227.713 202.06C227.713 201.08 227.457 200.277 226.943 199.652C226.439 199.017 225.781 198.523 224.969 198.168L225.571 197.09C226.206 197.398 226.771 197.785 227.265 198.252C227.76 198.719 228.147 199.265 228.427 199.89C228.717 200.515 228.861 201.215 228.861 201.99C228.861 202.597 228.754 203.143 228.539 203.628C228.325 204.104 227.998 204.482 227.559 204.762C227.121 205.033 226.57 205.168 225.907 205.168ZM237.76 205.168C236.845 205.168 236.168 204.972 235.73 204.58C235.291 204.179 235.072 203.665 235.072 203.04C235.072 202.433 235.296 201.953 235.744 201.598C236.201 201.234 236.845 201.052 237.676 201.052C238.394 201.052 239.029 201.187 239.58 201.458C240.13 201.729 240.611 202.111 241.022 202.606C241.208 202.298 241.344 201.962 241.428 201.598C241.512 201.234 241.554 200.856 241.554 200.464C241.554 199.68 241.414 199.111 241.134 198.756C240.854 198.401 240.471 198.224 239.986 198.224C239.575 198.224 239.239 198.373 238.978 198.672C238.716 198.961 238.553 199.353 238.488 199.848H237.382C237.316 199.316 237.144 198.915 236.864 198.644C236.593 198.364 236.262 198.224 235.87 198.224C235.496 198.224 235.221 198.317 235.044 198.504C234.866 198.681 234.778 198.919 234.778 199.218C234.778 199.395 234.801 199.577 234.848 199.764C234.904 199.941 234.96 200.086 235.016 200.198L233.952 200.534C233.868 200.357 233.793 200.156 233.728 199.932C233.662 199.699 233.63 199.433 233.63 199.134C233.63 198.723 233.728 198.369 233.924 198.07C234.12 197.762 234.381 197.529 234.708 197.37C235.034 197.202 235.394 197.118 235.786 197.118C236.271 197.118 236.682 197.216 237.018 197.412C237.354 197.608 237.662 197.93 237.942 198.378C238.24 197.855 238.581 197.515 238.964 197.356C239.346 197.197 239.724 197.118 240.098 197.118C240.723 197.118 241.227 197.281 241.61 197.608C241.992 197.935 242.268 198.355 242.436 198.868C242.613 199.381 242.702 199.913 242.702 200.464C242.702 200.949 242.622 201.467 242.464 202.018C242.314 202.559 242.048 203.059 241.666 203.516C241.843 203.833 241.992 204.16 242.114 204.496C242.235 204.832 242.333 205.182 242.408 205.546L241.246 205.77C241.134 205.21 240.98 204.711 240.784 204.272C240.42 204.533 239.986 204.748 239.482 204.916C238.987 205.084 238.413 205.168 237.76 205.168ZM236.206 203.026C236.206 203.362 236.332 203.628 236.584 203.824C236.845 204.02 237.26 204.118 237.83 204.118C238.371 204.118 238.842 204.057 239.244 203.936C239.654 203.805 240.004 203.628 240.294 203.404C239.995 202.993 239.626 202.671 239.188 202.438C238.758 202.195 238.254 202.074 237.676 202.074C237.2 202.074 236.836 202.158 236.584 202.326C236.332 202.494 236.206 202.727 236.206 203.026ZM248.525 205.168C247.498 205.168 246.625 204.977 245.907 204.594C245.197 204.211 244.656 203.684 244.283 203.012C243.919 202.331 243.737 201.556 243.737 200.688C243.737 199.951 243.853 199.316 244.087 198.784C244.329 198.252 244.665 197.841 245.095 197.552C245.533 197.263 246.037 197.118 246.607 197.118C247.241 197.118 247.731 197.286 248.077 197.622C248.431 197.958 248.609 198.415 248.609 198.994C248.609 199.591 248.399 200.095 247.979 200.506C247.568 200.907 246.971 201.108 246.187 201.108C245.897 201.108 245.641 201.075 245.417 201.01C245.193 200.935 244.997 200.847 244.829 200.744C244.838 201.341 244.983 201.892 245.263 202.396C245.543 202.891 245.963 203.287 246.523 203.586C247.083 203.885 247.773 204.034 248.595 204.034C249.864 204.034 250.853 203.675 251.563 202.956C252.272 202.237 252.627 201.187 252.627 199.806C252.627 199.237 252.557 198.658 252.417 198.07C252.286 197.482 252.076 196.959 251.787 196.502C251.591 196.931 251.315 197.244 250.961 197.44C250.606 197.636 250.209 197.734 249.771 197.734C249.164 197.734 248.683 197.589 248.329 197.3C247.974 197.001 247.797 196.572 247.797 196.012C247.797 195.536 247.979 195.135 248.343 194.808C248.716 194.481 249.22 194.318 249.855 194.318C250.489 194.318 251.049 194.463 251.535 194.752C252.02 195.041 252.431 195.443 252.767 195.956C253.103 196.46 253.355 197.043 253.523 197.706C253.7 198.359 253.789 199.059 253.789 199.806C253.789 200.833 253.602 201.752 253.229 202.564C252.865 203.367 252.295 204.001 251.521 204.468C250.746 204.935 249.747 205.168 248.525 205.168ZM248.889 196.026C248.889 196.25 248.959 196.427 249.099 196.558C249.248 196.689 249.453 196.754 249.715 196.754C250.023 196.754 250.298 196.675 250.541 196.516C250.783 196.357 250.942 196.077 251.017 195.676C250.839 195.555 250.648 195.461 250.443 195.396C250.247 195.331 250.032 195.298 249.799 195.298C249.5 195.298 249.271 195.368 249.113 195.508C248.963 195.648 248.889 195.821 248.889 196.026ZM246.607 198.098C246.233 198.098 245.888 198.224 245.571 198.476C245.263 198.719 245.048 199.134 244.927 199.722C245.057 199.815 245.221 199.909 245.417 200.002C245.613 200.086 245.841 200.128 246.103 200.128C246.597 200.128 246.957 200.025 247.181 199.82C247.405 199.605 247.517 199.339 247.517 199.022C247.517 198.723 247.433 198.495 247.265 198.336C247.097 198.177 246.877 198.098 246.607 198.098ZM250.974 205.938C251.356 205.938 251.66 206.008 251.884 206.148C252.108 206.297 252.322 206.526 252.528 206.834C252.724 206.563 252.943 206.344 253.186 206.176C253.419 206.017 253.727 205.938 254.11 205.938C254.67 205.938 255.104 206.115 255.412 206.47C255.72 206.825 255.874 207.24 255.874 207.716C255.874 208.08 255.804 208.407 255.664 208.696C255.533 208.985 255.365 209.237 255.16 209.452C254.954 209.667 254.749 209.858 254.544 210.026L253.886 209.298C254.175 209.074 254.413 208.841 254.6 208.598C254.786 208.365 254.88 208.089 254.88 207.772C254.88 207.557 254.814 207.357 254.684 207.17C254.562 206.993 254.357 206.904 254.068 206.904C253.76 206.904 253.517 207.011 253.34 207.226C253.153 207.45 253.05 207.744 253.032 208.108H252.052C252.014 207.735 251.907 207.441 251.73 207.226C251.543 207.011 251.305 206.904 251.016 206.904C250.726 206.904 250.521 206.988 250.4 207.156C250.269 207.333 250.204 207.543 250.204 207.786C250.204 208.094 250.297 208.36 250.484 208.584C250.67 208.817 250.908 209.055 251.198 209.298L250.54 210.026C250.213 209.755 249.91 209.433 249.63 209.06C249.35 208.687 249.21 208.229 249.21 207.688C249.21 207.38 249.28 207.091 249.42 206.82C249.56 206.559 249.76 206.344 250.022 206.176C250.283 206.017 250.6 205.938 250.974 205.938ZM263.081 205.168C262.092 205.168 261.317 204.93 260.757 204.454C260.206 203.978 259.931 203.357 259.931 202.592C259.931 201.789 260.258 201.159 260.911 200.702L259.623 200.716V199.75H262.507C263.011 199.601 263.431 199.353 263.767 199.008C264.112 198.653 264.294 198.215 264.313 197.692C264.136 197.86 263.916 198.005 263.655 198.126C263.403 198.238 263.09 198.294 262.717 198.294C262.39 198.294 262.082 198.243 261.793 198.14C261.513 198.028 261.284 197.855 261.107 197.622C260.93 197.389 260.841 197.095 260.841 196.74C260.841 196.264 261.018 195.863 261.373 195.536C261.737 195.2 262.232 195.032 262.857 195.032C263.38 195.032 263.823 195.149 264.187 195.382C264.56 195.615 264.845 195.928 265.041 196.32C265.237 196.712 265.335 197.141 265.335 197.608C265.335 198.075 265.246 198.485 265.069 198.84C264.901 199.195 264.686 199.498 264.425 199.75H266.665V200.716L265.293 200.702C265.61 200.879 265.862 201.131 266.049 201.458C266.245 201.785 266.343 202.153 266.343 202.564C266.343 203.339 266.068 203.969 265.517 204.454C264.976 204.93 264.164 205.168 263.081 205.168ZM261.905 196.67C261.905 196.857 261.952 197.001 262.045 197.104C262.138 197.207 262.246 197.277 262.367 197.314C262.498 197.351 262.614 197.37 262.717 197.37C263.062 197.37 263.342 197.319 263.557 197.216C263.781 197.104 263.977 196.955 264.145 196.768C264.024 196.525 263.846 196.334 263.613 196.194C263.38 196.045 263.123 195.97 262.843 195.97C262.535 195.97 262.302 196.035 262.143 196.166C261.984 196.287 261.905 196.455 261.905 196.67ZM263.137 204.076C263.884 204.076 264.416 203.917 264.733 203.6C265.06 203.273 265.223 202.881 265.223 202.424C265.223 201.901 265.046 201.486 264.691 201.178C264.346 200.87 263.828 200.716 263.137 200.716C262.428 200.716 261.9 200.879 261.555 201.206C261.219 201.523 261.051 201.929 261.051 202.424C261.051 202.919 261.224 203.32 261.569 203.628C261.914 203.927 262.437 204.076 263.137 204.076ZM263.784 205.938C264.167 205.938 264.47 206.008 264.694 206.148C264.918 206.297 265.133 206.526 265.338 206.834C265.534 206.563 265.754 206.344 265.996 206.176C266.23 206.017 266.538 205.938 266.92 205.938C267.48 205.938 267.914 206.115 268.222 206.47C268.53 206.825 268.684 207.24 268.684 207.716C268.684 208.08 268.614 208.407 268.474 208.696C268.344 208.985 268.176 209.237 267.97 209.452C267.765 209.667 267.56 209.858 267.354 210.026L266.696 209.298C266.986 209.074 267.224 208.841 267.41 208.598C267.597 208.365 267.69 208.089 267.69 207.772C267.69 207.557 267.625 207.357 267.494 207.17C267.373 206.993 267.168 206.904 266.878 206.904C266.57 206.904 266.328 207.011 266.15 207.226C265.964 207.45 265.861 207.744 265.842 208.108H264.862C264.825 207.735 264.718 207.441 264.54 207.226C264.354 207.011 264.116 206.904 263.826 206.904C263.537 206.904 263.332 206.988 263.21 207.156C263.08 207.333 263.014 207.543 263.014 207.786C263.014 208.094 263.108 208.36 263.294 208.584C263.481 208.817 263.719 209.055 264.008 209.298L263.35 210.026C263.024 209.755 262.72 209.433 262.44 209.06C262.16 208.687 262.02 208.229 262.02 207.688C262.02 207.38 262.09 207.091 262.23 206.82C262.37 206.559 262.571 206.344 262.832 206.176C263.094 206.017 263.411 205.938 263.784 205.938ZM272.009 205.168C271.02 205.168 270.245 204.93 269.685 204.454C269.134 203.978 268.859 203.357 268.859 202.592C268.859 201.789 269.186 201.159 269.839 200.702L268.551 200.716V199.75H271.463C271.566 199.675 271.65 199.582 271.715 199.47C271.79 199.349 271.827 199.213 271.827 199.064C271.827 198.933 271.804 198.807 271.757 198.686C271.72 198.565 271.668 198.457 271.603 198.364H268.551V197.286H273.997V198.364H272.723C272.863 198.625 272.933 198.863 272.933 199.078C272.933 199.227 272.914 199.358 272.877 199.47C272.849 199.573 272.807 199.666 272.751 199.75H275.593V200.716L274.221 200.702C274.538 200.879 274.79 201.131 274.977 201.458C275.173 201.785 275.271 202.153 275.271 202.564C275.271 203.339 274.996 203.969 274.445 204.454C273.904 204.93 273.092 205.168 272.009 205.168ZM272.065 204.076C272.812 204.076 273.344 203.917 273.661 203.6C273.988 203.273 274.151 202.881 274.151 202.424C274.151 201.901 273.974 201.486 273.619 201.178C273.274 200.87 272.756 200.716 272.065 200.716C271.356 200.716 270.828 200.879 270.483 201.206C270.147 201.523 269.979 201.929 269.979 202.424C269.979 202.919 270.152 203.32 270.497 203.628C270.842 203.927 271.365 204.076 272.065 204.076ZM278.225 200.87C277.572 200.87 277.049 200.655 276.657 200.226C276.265 199.797 276.069 199.19 276.069 198.406V198.364H273.787V197.286H276.181C276.349 196.633 276.671 196.133 277.147 195.788C277.632 195.433 278.22 195.256 278.911 195.256C279.275 195.256 279.597 195.298 279.877 195.382C280.166 195.466 280.414 195.569 280.619 195.69L280.017 196.572C279.625 196.357 279.214 196.25 278.785 196.25C278.449 196.25 278.146 196.329 277.875 196.488C277.604 196.637 277.404 196.903 277.273 197.286H277.637C278.076 197.286 278.454 197.328 278.771 197.412C279.098 197.487 279.368 197.627 279.583 197.832C279.947 198.149 280.129 198.593 280.129 199.162C280.129 199.731 279.947 200.161 279.583 200.45C279.228 200.73 278.776 200.87 278.225 200.87ZM277.119 198.462C277.119 198.901 277.212 199.255 277.399 199.526C277.595 199.787 277.88 199.918 278.253 199.918C278.486 199.918 278.678 199.867 278.827 199.764C278.986 199.652 279.065 199.461 279.065 199.19C279.065 198.938 278.981 198.742 278.813 198.602C278.701 198.509 278.57 198.448 278.421 198.42C278.272 198.383 278.062 198.364 277.791 198.364H277.119V198.462ZM287.508 205.168C286.985 205.168 286.514 205.065 286.094 204.86C285.683 204.655 285.361 204.365 285.128 203.992C284.894 203.619 284.778 203.175 284.778 202.662C284.778 202.251 284.862 201.883 285.03 201.556C285.198 201.22 285.44 200.954 285.758 200.758C286.075 200.562 286.458 200.464 286.906 200.464C287.4 200.464 287.797 200.581 288.096 200.814C288.394 201.047 288.544 201.365 288.544 201.766C288.544 201.915 288.53 202.065 288.502 202.214C288.474 202.363 288.427 202.489 288.362 202.592L287.41 202.508C287.428 202.452 287.447 202.382 287.466 202.298C287.484 202.205 287.494 202.125 287.494 202.06C287.494 201.649 287.284 201.444 286.864 201.444C286.574 201.444 286.332 201.547 286.136 201.752C285.949 201.948 285.856 202.237 285.856 202.62C285.856 203.04 286 203.385 286.29 203.656C286.579 203.927 287.022 204.062 287.62 204.062C288.264 204.062 288.735 203.899 289.034 203.572C289.332 203.245 289.505 202.811 289.552 202.27H290.616C290.662 202.895 290.844 203.353 291.162 203.642C291.488 203.922 291.876 204.062 292.324 204.062C292.846 204.062 293.21 203.894 293.416 203.558C293.621 203.213 293.724 202.802 293.724 202.326C293.724 201.626 293.574 201.001 293.276 200.45C292.977 199.89 292.594 199.433 292.128 199.078C291.67 198.714 291.199 198.476 290.714 198.364H284.778V197.286H291.918C292.422 197.286 292.776 197.263 292.982 197.216C293.187 197.169 293.336 197.109 293.43 197.034C293.56 196.941 293.644 196.838 293.682 196.726C293.719 196.605 293.738 196.479 293.738 196.348C293.738 195.751 293.434 195.149 292.828 194.542L293.738 193.94C294.176 194.425 294.475 194.864 294.634 195.256C294.792 195.639 294.872 196.031 294.872 196.432C294.872 196.609 294.834 196.829 294.76 197.09C294.694 197.342 294.54 197.571 294.298 197.776C294.111 197.944 293.896 198.075 293.654 198.168C293.42 198.252 293.126 198.308 292.772 198.336C293.444 198.793 293.962 199.353 294.326 200.016C294.69 200.679 294.872 201.416 294.872 202.228C294.872 202.471 294.853 202.699 294.816 202.914C295.152 203.287 295.497 203.572 295.852 203.768C296.216 203.964 296.622 204.062 297.07 204.062C297.648 204.062 298.092 203.88 298.4 203.516C298.708 203.152 298.862 202.667 298.862 202.06C298.862 201.164 298.61 200.394 298.106 199.75C297.611 199.097 296.948 198.635 296.118 198.364H295.558V197.286H298.428V198.364H298.05C298.666 198.784 299.146 199.288 299.492 199.876C299.837 200.464 300.01 201.169 300.01 201.99C300.01 202.363 299.958 202.741 299.856 203.124C299.762 203.497 299.604 203.838 299.38 204.146C299.156 204.454 298.852 204.701 298.47 204.888C298.087 205.075 297.616 205.168 297.056 205.168C296.524 205.168 296.043 205.065 295.614 204.86C295.184 204.645 294.792 204.37 294.438 204.034C294.214 204.417 293.92 204.701 293.556 204.888C293.201 205.075 292.823 205.168 292.422 205.168C291.992 205.168 291.638 205.117 291.358 205.014C291.078 204.921 290.84 204.781 290.644 204.594C290.448 204.407 290.261 204.179 290.084 203.908C289.748 204.421 289.374 204.762 288.964 204.93C288.553 205.089 288.068 205.168 287.508 205.168ZM306.229 201.626C306.229 202.755 305.973 203.628 305.459 204.244C304.946 204.86 304.213 205.168 303.261 205.168C302.748 205.168 302.309 205.07 301.945 204.874C301.591 204.669 301.32 204.398 301.133 204.062C300.956 203.717 300.867 203.339 300.867 202.928C300.867 202.321 301.017 201.864 301.315 201.556C301.623 201.248 301.992 201.094 302.421 201.094C302.767 201.094 303.028 201.183 303.205 201.36C303.392 201.528 303.485 201.752 303.485 202.032C303.485 202.293 303.411 202.503 303.261 202.662C303.121 202.821 302.939 202.9 302.715 202.9C302.277 202.9 302.02 202.695 301.945 202.284C301.899 202.443 301.875 202.625 301.875 202.83C301.875 203.166 301.978 203.469 302.183 203.74C302.398 204.001 302.762 204.132 303.275 204.132C303.826 204.132 304.265 203.927 304.591 203.516C304.918 203.105 305.081 202.475 305.081 201.626C305.081 200.599 304.82 199.811 304.297 199.26C304.111 199.055 303.901 198.887 303.667 198.756C303.434 198.625 303.135 198.527 302.771 198.462C302.407 198.397 301.941 198.364 301.371 198.364H297.955V197.286H301.637C302.571 197.286 303.313 197.393 303.863 197.608C304.423 197.823 304.885 198.14 305.249 198.56C305.567 198.905 305.809 199.339 305.977 199.862C306.145 200.375 306.229 200.963 306.229 201.626ZM309.844 205.168C309.116 205.168 308.528 204.893 308.08 204.342C307.632 203.791 307.408 202.937 307.408 201.78C307.408 201.173 307.511 200.609 307.716 200.086C307.931 199.554 308.23 199.092 308.612 198.7C308.379 198.429 308.188 198.126 308.038 197.79C307.898 197.454 307.828 197.123 307.828 196.796C307.828 196.255 307.964 195.825 308.234 195.508C308.514 195.191 308.883 194.962 309.34 194.822C309.798 194.673 310.297 194.598 310.838 194.598C311.641 194.598 312.355 194.701 312.98 194.906C313.606 195.111 314.156 195.387 314.632 195.732C315.351 196.245 315.883 196.852 316.228 197.552C316.574 198.252 316.746 198.989 316.746 199.764C316.746 200.119 316.695 200.436 316.592 200.716C316.882 201.22 317.026 201.789 317.026 202.424C317.026 202.975 316.914 203.455 316.69 203.866C316.476 204.277 316.182 204.599 315.808 204.832C315.435 205.056 315.006 205.168 314.52 205.168C313.951 205.168 313.489 205.075 313.134 204.888C312.78 204.692 312.458 204.37 312.168 203.922C311.851 204.435 311.496 204.771 311.104 204.93C310.712 205.089 310.292 205.168 309.844 205.168ZM312.168 197.272C312.878 197.272 313.55 197.393 314.184 197.636C314.828 197.869 315.374 198.289 315.822 198.896L315.864 198.882C315.435 197.855 314.73 197.053 313.75 196.474C313.349 196.231 312.92 196.045 312.462 195.914C312.005 195.774 311.482 195.704 310.894 195.704C310.185 195.704 309.686 195.811 309.396 196.026C309.107 196.231 308.962 196.507 308.962 196.852C308.962 197.291 309.126 197.678 309.452 198.014C309.826 197.781 310.241 197.599 310.698 197.468C311.156 197.337 311.646 197.272 312.168 197.272ZM309.998 204.062C310.465 204.062 310.834 203.908 311.104 203.6C311.375 203.283 311.552 202.891 311.636 202.424H312.7C312.794 202.993 312.994 203.409 313.302 203.67C313.62 203.931 313.988 204.062 314.408 204.062C314.819 204.062 315.183 203.936 315.5 203.684C315.818 203.432 315.976 203.007 315.976 202.41C315.976 202.158 315.948 201.911 315.892 201.668C315.724 201.855 315.514 202.004 315.262 202.116C315.02 202.228 314.735 202.284 314.408 202.284C313.951 202.284 313.55 202.163 313.204 201.92C312.868 201.677 312.7 201.299 312.7 200.786C312.7 200.301 312.859 199.946 313.176 199.722C313.503 199.489 313.876 199.372 314.296 199.372C314.52 199.372 314.716 199.395 314.884 199.442C315.062 199.479 315.22 199.531 315.36 199.596C315.164 199.223 314.819 198.924 314.324 198.7C313.83 198.476 313.246 198.364 312.574 198.364H312.084C311.319 198.364 310.67 198.523 310.138 198.84C309.616 199.148 309.219 199.573 308.948 200.114C308.687 200.646 308.556 201.253 308.556 201.934C308.556 202.699 308.682 203.245 308.934 203.572C309.186 203.899 309.541 204.062 309.998 204.062ZM313.75 200.786C313.75 201.197 313.993 201.402 314.478 201.402C314.656 201.402 314.842 201.355 315.038 201.262C315.234 201.159 315.374 200.982 315.458 200.73C315.337 200.581 315.188 200.459 315.01 200.366C314.842 200.273 314.646 200.226 314.422 200.226C314.226 200.226 314.063 200.277 313.932 200.38C313.811 200.473 313.75 200.609 313.75 200.786Z" fill="black"/>
<path d="M14 212.5C11.9751 214.031 10 215 10 215C10 215 13.5133 216.541 16.5 216.5C19.2955 216.462 22.5 215 22.5 215L18 207C18 207 15.9947 210.992 14 212.5Z" fill="#F2EFFF"/>
<defs>
<clipPath id="clip0_226_1857">
<rect width="20" height="10" fill="white" transform="matrix(-1 0 0 -1 172 104)"/>
</clipPath>
</defs>
</svg>
