<svg width="800" height="400" viewBox="0 0 800 400" fill="none" xmlns="http://www.w3.org/2000/svg">
<rect width="800" height="400" fill="#F6F6F6"/>
<g clip-path="url(#clip0_498_5897)">
<g filter="url(#filter0_d_498_5897)">
<g clip-path="url(#clip1_498_5897)">
<rect x="81.9805" y="103" width="139.421" height="193.64" rx="15.4912" fill="white"/>
<path d="M103.754 140.871H98.6939V147.491H96.8815V129.467H103.754C107.228 129.467 109.418 131.733 109.418 135.131C109.418 138.404 107.202 140.871 103.754 140.871ZM103.502 131.103H98.6939V139.234H103.401C106.019 139.234 107.53 137.573 107.53 135.106C107.53 132.614 105.994 131.103 103.502 131.103ZM118.461 135.156V136.717H117.505C115.264 136.717 113.83 138.227 113.83 140.543V147.491H112.093V135.307H113.729L113.855 137.195C114.333 135.886 115.617 135.03 117.329 135.03C117.706 135.03 118.033 135.056 118.461 135.156ZM119.573 141.399C119.573 137.674 122.191 134.98 125.766 134.98C129.341 134.98 131.959 137.674 131.959 141.399C131.959 145.1 129.341 147.793 125.766 147.793C122.191 147.793 119.573 145.1 119.573 141.399ZM121.335 141.374C121.335 144.244 123.148 146.233 125.766 146.233C128.359 146.233 130.196 144.244 130.196 141.374C130.196 138.555 128.359 136.541 125.766 136.541C123.148 136.541 121.335 138.555 121.335 141.374ZM134.862 152.803V135.307H136.373L136.549 137.774C137.405 135.886 139.117 134.98 141.156 134.98C144.68 134.98 146.795 137.674 146.795 141.349C146.795 145.024 144.756 147.793 141.156 147.793C139.092 147.793 137.455 146.912 136.599 145.15V152.803H134.862ZM136.625 141.399C136.625 144.194 138.185 146.233 140.854 146.233C143.497 146.233 145.032 144.194 145.032 141.399C145.032 138.58 143.497 136.566 140.854 136.566C138.185 136.566 136.625 138.58 136.625 141.399ZM154.799 147.793C151.225 147.793 148.833 145.226 148.833 141.399C148.833 137.598 151.2 134.98 154.673 134.98C157.971 134.98 160.212 137.321 160.212 140.77V141.626H150.52C150.646 144.596 152.206 146.308 154.824 146.308C156.813 146.308 158.097 145.452 158.55 143.841H160.212C159.557 146.409 157.669 147.793 154.799 147.793ZM154.673 136.465C152.383 136.465 150.872 137.976 150.57 140.367H158.475C158.475 138.026 156.964 136.465 154.673 136.465ZM169.483 135.156V136.717H168.527C166.286 136.717 164.851 138.227 164.851 140.543V147.491H163.114V135.307H164.751L164.877 137.195C165.355 135.886 166.639 135.03 168.351 135.03C168.728 135.03 169.055 135.056 169.483 135.156ZM175.204 147.491H173.492V136.767H171.051V135.307H173.492V131.456H175.204V135.307H177.646V136.767H175.204V147.491ZM180.89 131.959C180.185 131.959 179.606 131.38 179.606 130.676C179.606 129.971 180.185 129.367 180.89 129.367C181.594 129.367 182.199 129.971 182.199 130.676C182.199 131.38 181.594 131.959 180.89 131.959ZM180.034 147.491V135.307H181.771V147.491H180.034ZM190.629 147.793C187.054 147.793 184.663 145.226 184.663 141.399C184.663 137.598 187.029 134.98 190.503 134.98C193.801 134.98 196.041 137.321 196.041 140.77V141.626H186.349C186.475 144.596 188.036 146.308 190.654 146.308C192.643 146.308 193.926 145.452 194.38 143.841H196.041C195.387 146.409 193.499 147.793 190.629 147.793ZM190.503 136.465C188.212 136.465 186.702 137.976 186.4 140.367H194.304C194.304 138.026 192.794 136.465 190.503 136.465ZM197.912 144.068H199.573C199.573 145.477 200.631 146.358 202.342 146.358C204.23 146.358 205.338 145.553 205.338 144.244C205.338 143.237 204.835 142.658 203.4 142.306L201.31 141.777C199.196 141.248 198.164 140.141 198.164 138.479C198.164 136.339 199.951 134.98 202.569 134.98C205.137 134.98 206.798 136.39 206.874 138.655H205.187C205.137 137.246 204.155 136.415 202.519 136.415C200.807 136.415 199.85 137.145 199.85 138.454C199.85 139.385 200.505 140.04 201.839 140.367L203.928 140.896C206.043 141.424 206.999 142.406 206.999 144.168C206.999 146.358 205.137 147.793 202.368 147.793C199.624 147.793 197.912 146.333 197.912 144.068Z" fill="#6F6F6F"/>
<path d="M143.83 181.88C143.83 179.521 145.158 177.623 147.219 176.837C145.484 176.051 144.535 174.56 144.535 172.635C144.535 169.49 147.327 167.322 151.421 167.322C155.487 167.322 158.225 169.463 158.225 172.689C158.225 174.614 157.249 176.105 155.487 176.837C157.575 177.569 158.93 179.494 158.93 181.88C158.93 185.458 155.975 187.817 151.366 187.817C146.785 187.817 143.83 185.485 143.83 181.88ZM147.68 172.933C147.68 174.587 149.116 175.644 151.366 175.644C153.589 175.644 154.999 174.614 154.999 172.96C154.999 171.307 153.589 170.277 151.366 170.277C149.116 170.277 147.68 171.307 147.68 172.933ZM147.219 181.636C147.219 183.56 148.818 184.753 151.394 184.753C153.915 184.753 155.514 183.56 155.514 181.636C155.514 179.711 153.915 178.518 151.366 178.518C148.818 178.518 147.219 179.711 147.219 181.636Z" fill="#222222"/>
<path d="M150.168 306.815V236.826L174.932 223.378V293.376L150.168 306.815Z" fill="#9681CD"/>
<path d="M150.168 306.822V237.041L125.404 223.593V293.383L150.168 306.822Z" fill="#463A7C"/>
<path d="M150.127 210L174.92 223.495L150.127 236.84L125.352 223.495L150.127 210Z" fill="#F4F1FF"/>
<path d="M155.211 239.727L158.208 238.117V241.433L155.211 243.043V239.727Z" fill="#F4F1FF"/>
<path d="M154.671 239.404L155.208 239.741L155.208 243.026L154.656 242.668L154.671 239.404Z" fill="#463A7C"/>
<path d="M158.205 238.119L157.66 237.767L154.66 239.393L155.206 239.727L158.205 238.119Z" fill="#463A7C"/>
<path d="M155.211 261.039L158.208 259.429V262.745L155.211 264.354V261.039Z" fill="#F4F1FF"/>
<path d="M154.671 260.716L155.208 261.053L155.208 264.338L154.656 263.98L154.671 260.716Z" fill="#463A7C"/>
<path d="M158.205 259.431L157.66 259.079L154.66 260.705L155.206 261.039L158.205 259.431Z" fill="#463A7C"/>
<path d="M155.211 246.802L158.208 245.192V248.508L155.211 250.117V246.802Z" fill="#F4F1FF"/>
<path d="M154.671 246.487L155.208 246.824L155.208 250.109L154.656 249.751L154.671 246.487Z" fill="#463A7C"/>
<path d="M158.205 245.202L157.66 244.85L154.66 246.476L155.206 246.81L158.205 245.202Z" fill="#463A7C"/>
<path d="M155.211 253.889L158.208 252.28V255.595L155.211 257.205V253.889Z" fill="#F4F1FF"/>
<path d="M154.671 253.575L155.208 253.911L155.208 257.197L154.656 256.839L154.671 253.575Z" fill="#463A7C"/>
<path d="M158.205 252.289L157.66 251.938L154.66 253.564L155.206 253.898L158.205 252.289Z" fill="#463A7C"/>
<path d="M161.895 236.079L164.892 234.47V237.785L161.895 239.395V236.079Z" fill="#F4F1FF"/>
<path d="M161.355 235.769L161.892 236.106L161.892 239.391L161.34 239.033L161.355 235.769Z" fill="#463A7C"/>
<path d="M164.889 234.479L164.343 234.128L161.344 235.754L161.889 236.088L164.889 234.479Z" fill="#463A7C"/>
<path d="M161.895 257.377L164.892 255.767V259.083L161.895 260.692V257.377Z" fill="#F4F1FF"/>
<path d="M161.355 257.062L161.892 257.399L161.892 260.684L161.34 260.326L161.355 257.062Z" fill="#463A7C"/>
<path d="M164.889 255.777L164.343 255.425L161.344 257.051L161.889 257.385L164.889 255.777Z" fill="#463A7C"/>
<path d="M161.895 243.186L164.892 241.576V244.892L161.895 246.502V243.186Z" fill="#F4F1FF"/>
<path d="M161.355 242.872L161.892 243.208L161.892 246.493L161.34 246.136L161.355 242.872Z" fill="#463A7C"/>
<path d="M164.889 241.586L164.343 241.235L161.344 242.861L161.889 243.194L164.889 241.586Z" fill="#463A7C"/>
<path d="M161.895 250.26L164.892 248.651V251.966L161.895 253.576V250.26Z" fill="#F4F1FF"/>
<path d="M161.355 249.946L161.892 250.282L161.892 253.568L161.34 253.21L161.355 249.946Z" fill="#463A7C"/>
<path d="M164.889 248.66L164.343 248.309L161.344 249.935L161.889 250.269L164.889 248.66Z" fill="#463A7C"/>
<path d="M168.566 232.463L171.564 230.853V234.169L168.566 235.779V232.463Z" fill="#F4F1FF"/>
<path d="M168.027 232.149L168.564 232.485L168.564 235.77L168.012 235.413L168.027 232.149Z" fill="#463A7C"/>
<path d="M171.561 230.863L171.015 230.512L168.016 232.138L168.561 232.471L171.561 230.863Z" fill="#463A7C"/>
<path d="M168.566 253.788L171.564 252.178V255.494L168.566 257.104V253.788Z" fill="#F4F1FF"/>
<path d="M168.027 253.461L168.564 253.797L168.564 257.083L168.012 256.725L168.027 253.461Z" fill="#463A7C"/>
<path d="M171.561 252.175L171.015 251.824L168.016 253.45L168.561 253.784L171.561 252.175Z" fill="#463A7C"/>
<path d="M168.566 239.547L171.564 237.937V241.253L168.566 242.862V239.547Z" fill="#F4F1FF"/>
<path d="M168.027 239.232L168.564 239.569L168.564 242.854L168.012 242.496L168.027 239.232Z" fill="#463A7C"/>
<path d="M171.561 237.947L171.015 237.595L168.016 239.221L168.561 239.555L171.561 237.947Z" fill="#463A7C"/>
<path d="M168.566 246.63L171.564 245.02V248.336L168.566 249.945V246.63Z" fill="#F4F1FF"/>
<path d="M168.027 246.315L168.564 246.652L168.564 249.937L168.012 249.579L168.027 246.315Z" fill="#463A7C"/>
<path d="M171.561 245.03L171.015 244.678L168.016 246.304L168.561 246.638L171.561 245.03Z" fill="#463A7C"/>
<path d="M155.211 268.666L158.208 267.056V270.372L155.211 271.981V268.666Z" fill="#F4F1FF"/>
<path d="M154.671 268.339L155.208 268.675L155.208 271.961L154.656 271.603L154.671 268.339Z" fill="#463A7C"/>
<path d="M158.205 267.053L157.66 266.702L154.66 268.328L155.206 268.662L158.205 267.053Z" fill="#463A7C"/>
<path d="M155.211 275.731L158.208 274.122V277.437L155.211 279.047V275.731Z" fill="#F4F1FF"/>
<path d="M154.671 275.417L155.208 275.754L155.208 279.039L154.656 278.681L154.671 275.417Z" fill="#463A7C"/>
<path d="M158.205 274.131L157.66 273.78L154.66 275.406L155.206 275.74L158.205 274.131Z" fill="#463A7C"/>
<path d="M155.211 282.823L158.208 281.214V284.529L155.211 286.139V282.823Z" fill="#F4F1FF"/>
<path d="M154.671 282.496L155.208 282.833L155.208 286.118L154.656 285.76L154.671 282.496Z" fill="#463A7C"/>
<path d="M158.205 281.21L157.66 280.859L154.66 282.485L155.206 282.819L158.205 281.21Z" fill="#463A7C"/>
<path d="M161.91 265.015L164.908 263.405V266.721L161.91 268.33V265.015Z" fill="#F4F1FF"/>
<path d="M161.37 264.7L161.907 265.037L161.907 268.322L161.355 267.964L161.37 264.7Z" fill="#463A7C"/>
<path d="M164.905 263.414L164.359 263.063L161.359 264.689L161.905 265.023L164.905 263.414Z" fill="#463A7C"/>
<path d="M161.895 272.093L164.892 270.483V273.799L161.895 275.408V272.093Z" fill="#F4F1FF"/>
<path d="M161.355 271.778L161.892 272.115L161.892 275.4L161.34 275.042L161.355 271.778Z" fill="#463A7C"/>
<path d="M164.889 270.493L164.343 270.141L161.344 271.767L161.889 272.101L164.889 270.493Z" fill="#463A7C"/>
<path d="M161.91 279.172L164.908 277.562V280.878L161.91 282.487V279.172Z" fill="#F4F1FF"/>
<path d="M161.37 278.857L161.907 279.194L161.907 282.479L161.355 282.121L161.37 278.857Z" fill="#463A7C"/>
<path d="M164.905 277.572L164.359 277.22L161.359 278.846L161.905 279.18L164.905 277.572Z" fill="#463A7C"/>
<path d="M168.566 261.397L171.564 259.788V263.103L168.566 264.713V261.397Z" fill="#F4F1FF"/>
<path d="M168.027 261.07L168.564 261.407L168.564 264.692L168.012 264.334L168.027 261.07Z" fill="#463A7C"/>
<path d="M171.561 259.785L171.015 259.433L168.016 261.059L168.561 261.393L171.561 259.785Z" fill="#463A7C"/>
<path d="M168.566 268.463L171.564 266.853V270.169L168.566 271.778V268.463Z" fill="#F4F1FF"/>
<path d="M168.027 268.148L168.564 268.485L168.564 271.77L168.012 271.412L168.027 268.148Z" fill="#463A7C"/>
<path d="M171.561 266.863L171.015 266.511L168.016 268.137L168.561 268.471L171.561 266.863Z" fill="#463A7C"/>
<path d="M168.566 275.563L171.564 273.953V277.269L168.566 278.879V275.563Z" fill="#F4F1FF"/>
<path d="M168.027 275.236L168.564 275.573L168.564 278.858L168.012 278.5L168.027 275.236Z" fill="#463A7C"/>
<path d="M171.561 273.95L171.015 273.599L168.016 275.225L168.561 275.559L171.561 273.95Z" fill="#463A7C"/>
<path d="M145.664 240.049L142.667 238.439V241.755L145.664 243.365V240.049Z" fill="#E4DEFF"/>
<path d="M146.204 239.734L145.667 240.071L145.667 243.356L146.219 242.999L146.204 239.734Z" fill="#463A7C"/>
<path d="M142.67 238.449L143.215 238.098L146.215 239.723L145.669 240.057L142.67 238.449Z" fill="#463A7C"/>
<path d="M145.664 261.383L142.667 259.774V263.089L145.664 264.699V261.383Z" fill="#E4DEFF"/>
<path d="M146.204 261.06L145.667 261.397L145.667 264.682L146.219 264.324L146.204 261.06Z" fill="#463A7C"/>
<path d="M142.67 259.775L143.215 259.424L146.215 261.049L145.669 261.383L142.67 259.775Z" fill="#463A7C"/>
<path d="M145.664 247.142L142.667 245.533V248.848L145.664 250.458V247.142Z" fill="#E4DEFF"/>
<path d="M146.204 246.828L145.667 247.165L145.667 250.45L146.219 250.092L146.204 246.828Z" fill="#463A7C"/>
<path d="M142.67 245.542L143.215 245.191L146.215 246.817L145.669 247.151L142.67 245.542Z" fill="#463A7C"/>
<path d="M145.664 254.215L142.667 252.606V255.921L145.664 257.531V254.215Z" fill="#E4DEFF"/>
<path d="M146.204 253.901L145.667 254.237L145.667 257.523L146.219 257.165L146.204 253.901Z" fill="#463A7C"/>
<path d="M142.67 252.615L143.215 252.264L146.215 253.89L145.669 254.224L142.67 252.615Z" fill="#463A7C"/>
<path d="M138.988 236.42L135.991 234.81V238.126L138.988 239.735V236.42Z" fill="#E4DEFF"/>
<path d="M139.528 236.105L138.991 236.442L138.991 239.727L139.543 239.369L139.528 236.105Z" fill="#463A7C"/>
<path d="M135.994 234.82L136.539 234.468L139.539 236.094L138.993 236.428L135.994 234.82Z" fill="#463A7C"/>
<path d="M138.988 257.731L135.991 256.122V259.437L138.988 261.047V257.731Z" fill="#E4DEFF"/>
<path d="M139.528 257.417L138.991 257.753L138.991 261.039L139.543 260.681L139.528 257.417Z" fill="#463A7C"/>
<path d="M135.994 256.131L136.539 255.78L139.539 257.406L138.993 257.74L135.994 256.131Z" fill="#463A7C"/>
<path d="M138.988 243.503L135.991 241.893V245.209L138.988 246.818V243.503Z" fill="#E4DEFF"/>
<path d="M139.528 243.188L138.991 243.525L138.991 246.81L139.543 246.452L139.528 243.188Z" fill="#463A7C"/>
<path d="M135.994 241.903L136.539 241.551L139.539 243.177L138.993 243.511L135.994 241.903Z" fill="#463A7C"/>
<path d="M138.988 250.599L135.991 248.99V252.305L138.988 253.915V250.599Z" fill="#E4DEFF"/>
<path d="M139.528 250.276L138.991 250.613L138.991 253.898L139.543 253.54L139.528 250.276Z" fill="#463A7C"/>
<path d="M135.994 248.99L136.539 248.639L139.539 250.265L138.993 250.599L135.994 248.99Z" fill="#463A7C"/>
<path d="M132.312 232.79L129.315 231.18V234.496L132.312 236.106V232.79Z" fill="#E4DEFF"/>
<path d="M132.852 232.475L132.315 232.812L132.315 236.097L132.867 235.739L132.852 232.475Z" fill="#463A7C"/>
<path d="M129.318 231.19L129.864 230.839L132.863 232.464L132.318 232.798L129.318 231.19Z" fill="#463A7C"/>
<path d="M132.312 254.106L129.315 252.496V255.812L132.312 257.421V254.106Z" fill="#E4DEFF"/>
<path d="M132.852 253.791L132.315 254.128L132.315 257.413L132.867 257.055L132.852 253.791Z" fill="#463A7C"/>
<path d="M129.318 252.506L129.864 252.155L132.863 253.78L132.318 254.114L129.318 252.506Z" fill="#463A7C"/>
<path d="M132.312 239.876L129.315 238.266V241.582L132.312 243.192V239.876Z" fill="#E4DEFF"/>
<path d="M132.852 239.553L132.315 239.89L132.315 243.175L132.867 242.817L132.852 239.553Z" fill="#463A7C"/>
<path d="M129.318 238.268L129.864 237.916L132.863 239.542L132.318 239.876L129.318 238.268Z" fill="#463A7C"/>
<path d="M132.312 246.966L129.315 245.356V248.672L132.312 250.281V246.966Z" fill="#E4DEFF"/>
<path d="M132.852 246.656L132.315 246.992L132.315 250.277L132.867 249.92L132.852 246.656Z" fill="#463A7C"/>
<path d="M129.318 245.366L129.864 245.015L132.863 246.64L132.318 246.974L129.318 245.366Z" fill="#463A7C"/>
<path d="M145.664 268.292L142.667 266.682V269.998L145.664 271.607V268.292Z" fill="#E4DEFF"/>
<path d="M146.204 267.977L145.667 268.314L145.667 271.599L146.219 271.241L146.204 267.977Z" fill="#463A7C"/>
<path d="M142.67 266.692L143.215 266.34L146.215 267.966L145.669 268.3L142.67 266.692Z" fill="#463A7C"/>
<path d="M145.664 289.608L142.667 287.998V291.314L145.664 292.924V289.608Z" fill="#E4DEFF"/>
<path d="M146.204 289.294L145.667 289.63L145.667 292.915L146.219 292.558L146.204 289.294Z" fill="#463A7C"/>
<path d="M142.67 288.008L143.215 287.657L146.215 289.283L145.669 289.616L142.67 288.008Z" fill="#463A7C"/>
<path d="M145.664 275.375L142.667 273.766V277.081L145.664 278.691V275.375Z" fill="#E4DEFF"/>
<path d="M146.204 275.061L145.667 275.397L145.667 278.683L146.219 278.325L146.204 275.061Z" fill="#463A7C"/>
<path d="M142.67 273.775L143.215 273.424L146.215 275.05L145.669 275.384L142.67 273.775Z" fill="#463A7C"/>
<path d="M145.664 282.453L142.667 280.843V284.159L145.664 285.769V282.453Z" fill="#E4DEFF"/>
<path d="M146.204 282.139L145.667 282.475L145.667 285.76L146.219 285.403L146.204 282.139Z" fill="#463A7C"/>
<path d="M142.67 280.853L143.215 280.502L146.215 282.128L145.669 282.461L142.67 280.853Z" fill="#463A7C"/>
<path d="M138.988 264.662L135.991 263.052V266.368L138.988 267.977V264.662Z" fill="#E4DEFF"/>
<path d="M139.528 264.347L138.991 264.684L138.991 267.969L139.543 267.611L139.528 264.347Z" fill="#463A7C"/>
<path d="M135.994 263.062L136.539 262.711L139.539 264.336L138.993 264.67L135.994 263.062Z" fill="#463A7C"/>
<path d="M138.988 285.983L135.991 284.373V287.689L138.988 289.298V285.983Z" fill="#E4DEFF"/>
<path d="M139.528 285.668L138.991 286.005L138.991 289.29L139.543 288.932L139.528 285.668Z" fill="#463A7C"/>
<path d="M135.994 284.383L136.539 284.031L139.539 285.657L138.993 285.991L135.994 284.383Z" fill="#463A7C"/>
<path d="M138.988 271.745L135.991 270.135V273.451L138.988 275.061V271.745Z" fill="#E4DEFF"/>
<path d="M139.528 271.431L138.991 271.767L138.991 275.052L139.543 274.695L139.528 271.431Z" fill="#463A7C"/>
<path d="M135.994 270.145L136.539 269.794L139.539 271.42L138.993 271.754L135.994 270.145Z" fill="#463A7C"/>
<path d="M138.988 278.828L135.991 277.219V280.534L138.988 282.144V278.828Z" fill="#E4DEFF"/>
<path d="M139.528 278.518L138.991 278.855L138.991 282.14L139.543 281.782L139.528 278.518Z" fill="#463A7C"/>
<path d="M135.994 277.228L136.539 276.877L139.539 278.503L138.993 278.837L135.994 277.228Z" fill="#463A7C"/>
<path d="M132.312 261.027L129.315 259.418V262.733L132.312 264.343V261.027Z" fill="#E4DEFF"/>
<path d="M132.852 260.713L132.315 261.05L132.315 264.335L132.867 263.977L132.852 260.713Z" fill="#463A7C"/>
<path d="M129.318 259.427L129.864 259.076L132.863 260.702L132.318 261.036L129.318 259.427Z" fill="#463A7C"/>
<path d="M132.312 282.348L129.315 280.738V284.054L132.312 285.664V282.348Z" fill="#E4DEFF"/>
<path d="M132.852 282.033L132.315 282.37L132.315 285.655L132.867 285.297L132.852 282.033Z" fill="#463A7C"/>
<path d="M129.318 280.748L129.864 280.397L132.863 282.022L132.318 282.356L129.318 280.748Z" fill="#463A7C"/>
<path d="M132.312 268.111L129.315 266.501V269.817L132.312 271.426V268.111Z" fill="#E4DEFF"/>
<path d="M132.852 267.801L132.315 268.137L132.315 271.422L132.867 271.065L132.852 267.801Z" fill="#463A7C"/>
<path d="M129.318 266.511L129.864 266.159L132.863 267.785L132.318 268.119L129.318 266.511Z" fill="#463A7C"/>
<path d="M132.312 275.194L129.315 273.584V276.9L132.312 278.51V275.194Z" fill="#E4DEFF"/>
<path d="M132.852 274.88L132.315 275.216L132.315 278.501L132.867 278.144L132.852 274.88Z" fill="#463A7C"/>
<path d="M129.318 273.594L129.864 273.243L132.863 274.869L132.318 275.202L129.318 273.594Z" fill="#463A7C"/>
<path d="M161.043 290.171L166.843 287.056V299.15L161.043 302.264V290.171Z" fill="#F4F1FF"/>
<path d="M159.99 289.558L161.029 290.209V302.263L159.961 301.57L159.99 289.558Z" fill="#463A7C"/>
<path d="M166.84 287.069L165.784 286.39L159.98 289.536L161.036 290.182L166.84 287.069Z" fill="#463A7C"/>
<path d="M187.492 314.559V255.768L208.294 244.473V303.271L187.492 314.559Z" fill="#9681CD"/>
<path d="M187.492 314.566V255.949L166.691 244.653V303.277L187.492 314.566Z" fill="#463A7C"/>
<path d="M187.456 233.237L208.282 244.573L187.456 255.782L166.645 244.573L187.456 233.237Z" fill="#F4F1FF"/>
<path d="M191.727 258.202L194.244 256.85V259.635L191.727 260.987V258.202Z" fill="#F4F1FF"/>
<path d="M191.278 257.935L191.729 258.218L191.729 260.977L191.266 260.677L191.278 257.935Z" fill="#463A7C"/>
<path d="M194.248 256.854L193.789 256.559L191.27 257.924L191.728 258.205L194.248 256.854Z" fill="#463A7C"/>
<path d="M191.727 276.112L194.244 274.76V277.545L191.727 278.897V276.112Z" fill="#F4F1FF"/>
<path d="M191.278 275.841L191.729 276.124L191.729 278.883L191.266 278.583L191.278 275.841Z" fill="#463A7C"/>
<path d="M194.248 274.759L193.789 274.464L191.27 275.83L191.728 276.111L194.248 274.759Z" fill="#463A7C"/>
<path d="M191.727 264.148L194.244 262.796V265.582L191.727 266.934V264.148Z" fill="#F4F1FF"/>
<path d="M191.278 263.885L191.729 264.168L191.729 266.927L191.266 266.627L191.278 263.885Z" fill="#463A7C"/>
<path d="M194.248 262.804L193.789 262.509L191.27 263.874L191.728 264.155L194.248 262.804Z" fill="#463A7C"/>
<path d="M191.727 270.103L194.244 268.751V271.536L191.727 272.889V270.103Z" fill="#F4F1FF"/>
<path d="M191.278 269.84L191.729 270.123L191.729 272.882L191.266 272.582L191.278 269.84Z" fill="#463A7C"/>
<path d="M194.248 268.759L193.789 268.464L191.27 269.829L191.728 270.11L194.248 268.759Z" fill="#463A7C"/>
<path d="M197.344 255.146L199.862 253.794V256.579L197.344 257.932V255.146Z" fill="#F4F1FF"/>
<path d="M196.895 254.887L197.346 255.169L197.346 257.929L196.883 257.628L196.895 254.887Z" fill="#463A7C"/>
<path d="M199.865 253.802L199.406 253.506L196.887 254.872L197.345 255.153L199.865 253.802Z" fill="#463A7C"/>
<path d="M197.344 273.031L199.862 271.679V274.464L197.344 275.817V273.031Z" fill="#F4F1FF"/>
<path d="M196.895 272.768L197.346 273.051L197.346 275.81L196.883 275.51L196.895 272.768Z" fill="#463A7C"/>
<path d="M199.865 271.687L199.406 271.391L196.887 272.757L197.345 273.038L199.865 271.687Z" fill="#463A7C"/>
<path d="M197.344 261.112L199.862 259.76V262.545L197.344 263.897V261.112Z" fill="#F4F1FF"/>
<path d="M196.895 260.849L197.346 261.131L197.346 263.891L196.883 263.59L196.895 260.849Z" fill="#463A7C"/>
<path d="M199.865 259.767L199.406 259.472L196.887 260.838L197.345 261.118L199.865 259.767Z" fill="#463A7C"/>
<path d="M197.344 267.055L199.862 265.703V268.488L197.344 269.84V267.055Z" fill="#F4F1FF"/>
<path d="M196.895 266.792L197.346 267.075L197.346 269.834L196.883 269.534L196.895 266.792Z" fill="#463A7C"/>
<path d="M199.865 265.71L199.406 265.415L196.887 266.781L197.345 267.062L199.865 265.71Z" fill="#463A7C"/>
<path d="M202.941 252.103L205.459 250.751V253.536L202.941 254.888V252.103Z" fill="#F4F1FF"/>
<path d="M202.493 251.84L202.944 252.122L202.944 254.882L202.48 254.581L202.493 251.84Z" fill="#463A7C"/>
<path d="M205.462 250.758L205.004 250.463L202.484 251.829L202.943 252.109L205.462 250.758Z" fill="#463A7C"/>
<path d="M202.945 270.016L205.463 268.664V271.449L202.945 272.801V270.016Z" fill="#F4F1FF"/>
<path d="M202.493 269.745L202.944 270.028L202.944 272.788L202.48 272.487L202.493 269.745Z" fill="#463A7C"/>
<path d="M205.462 268.664L205.004 268.369L202.484 269.735L202.943 270.015L205.462 268.664Z" fill="#463A7C"/>
<path d="M202.945 258.053L205.463 256.701V259.486L202.945 260.838V258.053Z" fill="#F4F1FF"/>
<path d="M202.493 257.79L202.944 258.073L202.944 260.832L202.48 260.532L202.493 257.79Z" fill="#463A7C"/>
<path d="M205.462 256.708L205.004 256.413L202.484 257.779L202.943 258.059L205.462 256.708Z" fill="#463A7C"/>
<path d="M202.941 264.005L205.459 262.652V265.438L202.941 266.79V264.005Z" fill="#F4F1FF"/>
<path d="M202.493 263.741L202.944 264.024L202.944 266.784L202.48 266.483L202.493 263.741Z" fill="#463A7C"/>
<path d="M205.462 262.66L205.004 262.365L202.484 263.73L202.943 264.011L205.462 262.66Z" fill="#463A7C"/>
<path d="M191.727 282.511L194.244 281.159V283.944L191.727 285.296V282.511Z" fill="#F4F1FF"/>
<path d="M191.278 282.24L191.729 282.523L191.729 285.283L191.266 284.982L191.278 282.24Z" fill="#463A7C"/>
<path d="M194.248 281.159L193.789 280.864L191.27 282.229L191.728 282.51L194.248 281.159Z" fill="#463A7C"/>
<path d="M191.727 288.451L194.244 287.099V289.884L191.727 291.236V288.451Z" fill="#F4F1FF"/>
<path d="M191.278 288.188L191.729 288.471L191.729 291.23L191.266 290.93L191.278 288.188Z" fill="#463A7C"/>
<path d="M194.248 287.106L193.789 286.811L191.27 288.177L191.728 288.458L194.248 287.106Z" fill="#463A7C"/>
<path d="M191.727 294.402L194.244 293.05V295.835L191.727 297.187V294.402Z" fill="#F4F1FF"/>
<path d="M191.278 294.131L191.729 294.414L191.729 297.174L191.266 296.873L191.278 294.131Z" fill="#463A7C"/>
<path d="M194.248 293.05L193.789 292.755L191.27 294.121L191.728 294.401L194.248 293.05Z" fill="#463A7C"/>
<path d="M197.344 279.45L199.862 278.098V280.883L197.344 282.235V279.45Z" fill="#F4F1FF"/>
<path d="M196.895 279.186L197.346 279.469L197.346 282.228L196.883 281.928L196.895 279.186Z" fill="#463A7C"/>
<path d="M199.865 278.105L199.406 277.81L196.887 279.175L197.345 279.456L199.865 278.105Z" fill="#463A7C"/>
<path d="M197.344 285.397L199.862 284.045V286.83L197.344 288.182V285.397Z" fill="#F4F1FF"/>
<path d="M196.895 285.134L197.346 285.416L197.346 288.176L196.883 287.875L196.895 285.134Z" fill="#463A7C"/>
<path d="M199.865 284.052L199.406 283.757L196.887 285.123L197.345 285.403L199.865 284.052Z" fill="#463A7C"/>
<path d="M197.344 291.34L199.862 289.988V292.773L197.344 294.125V291.34Z" fill="#F4F1FF"/>
<path d="M196.895 291.077L197.346 291.36L197.346 294.119L196.883 293.819L196.895 291.077Z" fill="#463A7C"/>
<path d="M199.865 289.995L199.406 289.7L196.887 291.066L197.345 291.346L199.865 289.995Z" fill="#463A7C"/>
<path d="M202.941 276.406L205.459 275.054V277.839L202.941 279.191V276.406Z" fill="#F4F1FF"/>
<path d="M202.493 276.135L202.944 276.418L202.944 279.177L202.48 278.877L202.493 276.135Z" fill="#463A7C"/>
<path d="M205.462 275.054L205.004 274.759L202.484 276.124L202.943 276.405L205.462 275.054Z" fill="#463A7C"/>
<path d="M202.941 282.349L205.459 280.997V283.782L202.941 285.134V282.349Z" fill="#F4F1FF"/>
<path d="M202.493 282.086L202.944 282.368L202.944 285.128L202.48 284.827L202.493 282.086Z" fill="#463A7C"/>
<path d="M205.462 281.004L205.004 280.709L202.484 282.075L202.943 282.355L205.462 281.004Z" fill="#463A7C"/>
<path d="M202.941 288.304L205.459 286.952V289.737L202.941 291.089V288.304Z" fill="#F4F1FF"/>
<path d="M202.493 288.033L202.944 288.316L202.944 291.075L202.48 290.775L202.493 288.033Z" fill="#463A7C"/>
<path d="M205.462 286.952L205.004 286.657L202.484 288.022L202.943 288.303L205.462 286.952Z" fill="#463A7C"/>
<path d="M183.707 258.479L181.189 257.127V259.912L183.707 261.264V258.479Z" fill="#E4DEFF"/>
<path d="M184.156 258.216L183.704 258.499L183.704 261.258L184.168 260.958L184.156 258.216Z" fill="#463A7C"/>
<path d="M181.186 257.135L181.644 256.839L184.164 258.205L183.706 258.486L181.186 257.135Z" fill="#463A7C"/>
<path d="M183.707 276.393L181.189 275.041V277.827L183.707 279.179V276.393Z" fill="#E4DEFF"/>
<path d="M184.156 276.126L183.704 276.409L183.704 279.169L184.168 278.868L184.156 276.126Z" fill="#463A7C"/>
<path d="M181.186 275.045L181.644 274.75L184.164 276.116L183.706 276.396L181.186 275.045Z" fill="#463A7C"/>
<path d="M183.707 264.438L181.189 263.086V265.871L183.707 267.223V264.438Z" fill="#E4DEFF"/>
<path d="M184.156 264.175L183.704 264.457L183.704 267.217L184.168 266.916L184.156 264.175Z" fill="#463A7C"/>
<path d="M181.186 263.093L181.644 262.798L184.164 264.164L183.706 264.444L181.186 263.093Z" fill="#463A7C"/>
<path d="M183.707 270.377L181.189 269.025V271.811L183.707 273.163V270.377Z" fill="#E4DEFF"/>
<path d="M184.156 270.114L183.704 270.397L183.704 273.156L184.168 272.856L184.156 270.114Z" fill="#463A7C"/>
<path d="M181.186 269.033L181.644 268.738L184.164 270.103L183.706 270.384L181.186 269.033Z" fill="#463A7C"/>
<path d="M178.105 255.432L175.588 254.08V256.865L178.105 258.217V255.432Z" fill="#E4DEFF"/>
<path d="M178.554 255.169L178.103 255.451L178.103 258.211L178.566 257.91L178.554 255.169Z" fill="#463A7C"/>
<path d="M175.584 254.087L176.043 253.792L178.562 255.158L178.104 255.438L175.584 254.087Z" fill="#463A7C"/>
<path d="M178.105 273.335L175.588 271.983V274.768L178.105 276.12V273.335Z" fill="#E4DEFF"/>
<path d="M178.554 273.072L178.103 273.354L178.103 276.114L178.566 275.814L178.554 273.072Z" fill="#463A7C"/>
<path d="M175.584 271.99L176.043 271.695L178.562 273.061L178.104 273.341L175.584 271.99Z" fill="#463A7C"/>
<path d="M178.105 261.379L175.588 260.027V262.812L178.105 264.165V261.379Z" fill="#E4DEFF"/>
<path d="M178.554 261.116L178.103 261.399L178.103 264.158L178.566 263.858L178.554 261.116Z" fill="#463A7C"/>
<path d="M175.584 260.035L176.043 259.74L178.562 261.105L178.104 261.386L175.584 260.035Z" fill="#463A7C"/>
<path d="M178.105 267.334L175.588 265.982V268.767L178.105 270.119V267.334Z" fill="#E4DEFF"/>
<path d="M178.554 267.067L178.103 267.35L178.103 270.109L178.566 269.809L178.554 267.067Z" fill="#463A7C"/>
<path d="M175.584 265.986L176.043 265.691L178.562 267.056L178.104 267.337L175.584 265.986Z" fill="#463A7C"/>
<path d="M172.492 252.378L169.974 251.026V253.811L172.492 255.163V252.378Z" fill="#E4DEFF"/>
<path d="M172.941 252.115L172.49 252.397L172.49 255.157L172.953 254.857L172.941 252.115Z" fill="#463A7C"/>
<path d="M169.971 251.033L170.43 250.738L172.949 252.104L172.491 252.384L169.971 251.033Z" fill="#463A7C"/>
<path d="M172.492 270.281L169.974 268.929V271.714L172.492 273.066V270.281Z" fill="#E4DEFF"/>
<path d="M172.941 270.017L172.49 270.3L172.49 273.06L172.953 272.759L172.941 270.017Z" fill="#463A7C"/>
<path d="M169.971 268.936L170.43 268.641L172.949 270.007L172.491 270.287L169.971 268.936Z" fill="#463A7C"/>
<path d="M172.492 258.329L169.974 256.976V259.762L172.492 261.114V258.329Z" fill="#E4DEFF"/>
<path d="M172.941 258.062L172.49 258.344L172.49 261.104L172.953 260.803L172.941 258.062Z" fill="#463A7C"/>
<path d="M169.971 256.98L170.43 256.685L172.949 258.051L172.491 258.331L169.971 256.98Z" fill="#463A7C"/>
<path d="M172.492 264.287L169.974 262.934V265.72L172.492 267.072V264.287Z" fill="#E4DEFF"/>
<path d="M172.941 264.027L172.49 264.31L172.49 267.069L172.953 266.769L172.941 264.027Z" fill="#463A7C"/>
<path d="M169.971 262.942L170.43 262.647L172.949 264.012L172.491 264.293L169.971 262.942Z" fill="#463A7C"/>
<path d="M183.707 282.201L181.189 280.849V283.634L183.707 284.987V282.201Z" fill="#E4DEFF"/>
<path d="M184.156 281.938L183.704 282.221L183.704 284.98L184.168 284.68L184.156 281.938Z" fill="#463A7C"/>
<path d="M181.186 280.857L181.644 280.562L184.164 281.927L183.706 282.208L181.186 280.857Z" fill="#463A7C"/>
<path d="M183.707 288.156L181.189 286.804V289.589L183.707 290.941V288.156Z" fill="#E4DEFF"/>
<path d="M184.156 287.892L183.704 288.175L183.704 290.935L184.168 290.634L184.156 287.892Z" fill="#463A7C"/>
<path d="M181.186 286.811L181.644 286.516L184.164 287.881L183.706 288.162L181.186 286.811Z" fill="#463A7C"/>
<path d="M183.707 294.106L181.189 292.754V295.54L183.707 296.892V294.106Z" fill="#E4DEFF"/>
<path d="M184.156 293.843L183.704 294.126L183.704 296.885L184.168 296.585L184.156 293.843Z" fill="#463A7C"/>
<path d="M181.186 292.762L181.644 292.467L184.164 293.832L183.706 294.113L181.186 292.762Z" fill="#463A7C"/>
<path d="M178.105 279.16L175.588 277.808V280.593L178.105 281.946V279.16Z" fill="#E4DEFF"/>
<path d="M178.554 278.897L178.103 279.18L178.103 281.939L178.566 281.639L178.554 278.897Z" fill="#463A7C"/>
<path d="M175.584 277.816L176.043 277.521L178.562 278.886L178.104 279.167L175.584 277.816Z" fill="#463A7C"/>
<path d="M178.105 297.068L175.588 295.716V298.501L178.105 299.853V297.068Z" fill="#E4DEFF"/>
<path d="M175.584 295.723L176.043 295.428L178.562 296.794L178.104 297.074L175.584 295.723Z" fill="#463A7C"/>
<path d="M178.105 285.108L175.588 283.756V286.541L178.105 287.893V285.108Z" fill="#E4DEFF"/>
<path d="M178.554 284.845L178.103 285.127L178.103 287.887L178.566 287.586L178.554 284.845Z" fill="#463A7C"/>
<path d="M175.584 283.763L176.043 283.468L178.562 284.834L178.104 285.114L175.584 283.763Z" fill="#463A7C"/>
<path d="M178.105 291.055L175.588 289.703V292.488L178.105 293.84V291.055Z" fill="#E4DEFF"/>
<path d="M178.554 290.796L178.103 291.078L178.103 293.838L178.566 293.537L178.554 290.796Z" fill="#463A7C"/>
<path d="M175.584 289.71L176.043 289.415L178.562 290.781L178.104 291.062L175.584 289.71Z" fill="#463A7C"/>
<path d="M172.492 276.106L169.974 274.754V277.54L172.492 278.892V276.106Z" fill="#E4DEFF"/>
<path d="M172.941 275.843L172.49 276.126L172.49 278.885L172.953 278.585L172.941 275.843Z" fill="#463A7C"/>
<path d="M169.971 274.762L170.43 274.467L172.949 275.832L172.491 276.113L169.971 274.762Z" fill="#463A7C"/>
<path d="M172.492 294.012L169.974 292.66V295.445L172.492 296.797V294.012Z" fill="#E4DEFF"/>
<path d="M172.941 293.749L172.49 294.032L172.49 296.791L172.953 296.491L172.941 293.749Z" fill="#463A7C"/>
<path d="M169.971 292.668L170.43 292.372L172.949 293.738L172.491 294.019L169.971 292.668Z" fill="#463A7C"/>
<path d="M172.492 282.057L169.974 280.705V283.49L172.492 284.842V282.057Z" fill="#E4DEFF"/>
<path d="M172.941 281.797L172.49 282.08L172.49 284.84L172.953 284.539L172.941 281.797Z" fill="#463A7C"/>
<path d="M169.971 280.712L170.43 280.417L172.949 281.783L172.491 282.063L169.971 280.712Z" fill="#463A7C"/>
<path d="M172.492 288.004L169.974 286.652V289.437L172.492 290.79V288.004Z" fill="#E4DEFF"/>
<path d="M172.941 287.741L172.49 288.024L172.49 290.783L172.953 290.483L172.941 287.741Z" fill="#463A7C"/>
<path d="M169.971 286.66L170.43 286.365L172.949 287.73L172.491 288.011L169.971 286.66Z" fill="#463A7C"/>
<path d="M115.848 322.305V263.514L136.649 252.218V311.016L115.848 322.305Z" fill="#9681CD"/>
<path d="M115.848 322.311V263.695L95.046 252.399V311.022L115.848 322.311Z" fill="#463A7C"/>
<path d="M115.811 240.983L136.638 252.319L115.811 263.528L95 252.319L115.811 240.983Z" fill="#F4F1FF"/>
<path d="M120.086 265.948L122.604 264.595V267.381L120.086 268.733V265.948Z" fill="#F4F1FF"/>
<path d="M119.637 265.68L120.089 265.963L120.089 268.723L119.625 268.422L119.637 265.68Z" fill="#463A7C"/>
<path d="M122.607 264.599L122.149 264.304L119.629 265.67L120.087 265.95L122.607 264.599Z" fill="#463A7C"/>
<path d="M120.086 283.857L122.604 282.505V285.29L120.086 286.642V283.857Z" fill="#F4F1FF"/>
<path d="M119.637 283.586L120.089 283.869L120.089 286.629L119.625 286.328L119.637 283.586Z" fill="#463A7C"/>
<path d="M122.607 282.505L122.149 282.21L119.629 283.576L120.087 283.856L122.607 282.505Z" fill="#463A7C"/>
<path d="M120.086 271.894L122.604 270.542V273.327L120.086 274.679V271.894Z" fill="#F4F1FF"/>
<path d="M119.637 271.631L120.089 271.913L120.089 274.673L119.625 274.372L119.637 271.631Z" fill="#463A7C"/>
<path d="M122.607 270.549L122.149 270.254L119.629 271.62L120.087 271.9L122.607 270.549Z" fill="#463A7C"/>
<path d="M120.086 277.849L122.604 276.497V279.282L120.086 280.634V277.849Z" fill="#F4F1FF"/>
<path d="M119.637 277.586L120.089 277.868L120.089 280.628L119.625 280.327L119.637 277.586Z" fill="#463A7C"/>
<path d="M122.607 276.504L122.149 276.209L119.629 277.575L120.087 277.855L122.607 276.504Z" fill="#463A7C"/>
<path d="M125.699 262.892L128.217 261.54V264.325L125.699 265.677V262.892Z" fill="#F4F1FF"/>
<path d="M125.251 262.632L125.702 262.915L125.702 265.675L125.238 265.374L125.251 262.632Z" fill="#463A7C"/>
<path d="M128.22 261.547L127.762 261.252L125.242 262.618L125.701 262.898L128.22 261.547Z" fill="#463A7C"/>
<path d="M125.699 280.777L128.217 279.425V282.21L125.699 283.562V280.777Z" fill="#F4F1FF"/>
<path d="M125.251 280.514L125.702 280.796L125.702 283.556L125.238 283.255L125.251 280.514Z" fill="#463A7C"/>
<path d="M128.22 279.432L127.762 279.137L125.242 280.503L125.701 280.783L128.22 279.432Z" fill="#463A7C"/>
<path d="M125.699 268.857L128.217 267.505V270.29L125.699 271.643V268.857Z" fill="#F4F1FF"/>
<path d="M125.251 268.594L125.702 268.877L125.702 271.636L125.238 271.336L125.251 268.594Z" fill="#463A7C"/>
<path d="M128.22 267.513L127.762 267.218L125.242 268.583L125.701 268.864L128.22 267.513Z" fill="#463A7C"/>
<path d="M125.699 274.801L128.217 273.449V276.234L125.699 277.586V274.801Z" fill="#F4F1FF"/>
<path d="M125.251 274.537L125.702 274.82L125.702 277.58L125.238 277.279L125.251 274.537Z" fill="#463A7C"/>
<path d="M128.22 273.456L127.762 273.161L125.242 274.527L125.701 274.807L128.22 273.456Z" fill="#463A7C"/>
<path d="M131.297 259.849L133.815 258.496V261.282L131.297 262.634V259.849Z" fill="#F4F1FF"/>
<path d="M130.848 259.585L131.3 259.868L131.3 262.627L130.836 262.327L130.848 259.585Z" fill="#463A7C"/>
<path d="M133.818 258.504L133.359 258.209L130.84 259.574L131.298 259.855L133.818 258.504Z" fill="#463A7C"/>
<path d="M131.301 277.762L133.819 276.41V279.195L131.301 280.547V277.762Z" fill="#F4F1FF"/>
<path d="M130.848 277.491L131.3 277.774L131.3 280.533L130.836 280.233L130.848 277.491Z" fill="#463A7C"/>
<path d="M133.818 276.41L133.359 276.115L130.84 277.48L131.298 277.761L133.818 276.41Z" fill="#463A7C"/>
<path d="M131.301 265.799L133.819 264.447V267.232L131.301 268.584V265.799Z" fill="#F4F1FF"/>
<path d="M130.848 265.535L131.3 265.818L131.3 268.578L130.836 268.277L130.848 265.535Z" fill="#463A7C"/>
<path d="M133.818 264.454L133.359 264.159L130.84 265.525L131.298 265.805L133.818 264.454Z" fill="#463A7C"/>
<path d="M131.297 271.75L133.815 270.398V273.183L131.297 274.535V271.75Z" fill="#F4F1FF"/>
<path d="M130.848 271.486L131.3 271.769L131.3 274.529L130.836 274.228L130.848 271.486Z" fill="#463A7C"/>
<path d="M133.818 270.405L133.359 270.11L130.84 271.476L131.298 271.756L133.818 270.405Z" fill="#463A7C"/>
<path d="M120.086 290.257L122.604 288.905V291.69L120.086 293.042V290.257Z" fill="#F4F1FF"/>
<path d="M119.637 289.986L120.089 290.269L120.089 293.028L119.625 292.728L119.637 289.986Z" fill="#463A7C"/>
<path d="M122.607 288.905L122.149 288.609L119.629 289.975L120.087 290.256L122.607 288.905Z" fill="#463A7C"/>
<path d="M120.086 296.197L122.604 294.845V297.63L120.086 298.982V296.197Z" fill="#F4F1FF"/>
<path d="M119.637 295.934L120.089 296.216L120.089 298.976L119.625 298.675L119.637 295.934Z" fill="#463A7C"/>
<path d="M122.607 294.852L122.149 294.557L119.629 295.923L120.087 296.203L122.607 294.852Z" fill="#463A7C"/>
<path d="M125.699 287.195L128.217 285.843V288.629L125.699 289.981V287.195Z" fill="#F4F1FF"/>
<path d="M125.251 286.932L125.702 287.214L125.702 289.974L125.238 289.674L125.251 286.932Z" fill="#463A7C"/>
<path d="M128.22 285.85L127.762 285.555L125.242 286.921L125.701 287.201L128.22 285.85Z" fill="#463A7C"/>
<path d="M125.699 293.143L128.217 291.791V294.576L125.699 295.928V293.143Z" fill="#F4F1FF"/>
<path d="M125.251 292.879L125.702 293.162L125.702 295.922L125.238 295.621L125.251 292.879Z" fill="#463A7C"/>
<path d="M128.22 291.798L127.762 291.503L125.242 292.868L125.701 293.149L128.22 291.798Z" fill="#463A7C"/>
<path d="M131.297 284.152L133.815 282.799V285.585L131.297 286.937V284.152Z" fill="#F4F1FF"/>
<path d="M130.848 283.881L131.3 284.164L131.3 286.923L130.836 286.623L130.848 283.881Z" fill="#463A7C"/>
<path d="M133.818 282.799L133.359 282.504L130.84 283.87L131.298 284.15L133.818 282.799Z" fill="#463A7C"/>
<path d="M131.297 290.095L133.815 288.743V291.528L131.297 292.88V290.095Z" fill="#F4F1FF"/>
<path d="M130.848 289.831L131.3 290.114L131.3 292.874L130.836 292.573L130.848 289.831Z" fill="#463A7C"/>
<path d="M133.818 288.75L133.359 288.455L130.84 289.82L131.298 290.101L133.818 288.75Z" fill="#463A7C"/>
<path d="M131.297 296.049L133.815 294.697V297.482L131.297 298.834V296.049Z" fill="#F4F1FF"/>
<path d="M130.848 295.779L131.3 296.061L131.3 298.821L130.836 298.52L130.848 295.779Z" fill="#463A7C"/>
<path d="M133.818 294.697L133.359 294.402L130.84 295.768L131.298 296.048L133.818 294.697Z" fill="#463A7C"/>
<path d="M112.074 266.225L109.556 264.873V267.658L112.074 269.01V266.225Z" fill="#E4DEFF"/>
<path d="M112.523 265.962L112.072 266.244L112.072 269.004L112.535 268.703L112.523 265.962Z" fill="#463A7C"/>
<path d="M109.553 264.88L110.012 264.585L112.531 265.951L112.073 266.231L109.553 264.88Z" fill="#463A7C"/>
<path d="M112.074 284.139L109.556 282.787V285.572L112.074 286.924V284.139Z" fill="#E4DEFF"/>
<path d="M112.523 283.872L112.072 284.155L112.072 286.914L112.535 286.614L112.523 283.872Z" fill="#463A7C"/>
<path d="M109.553 282.79L110.012 282.495L112.531 283.861L112.073 284.142L109.553 282.79Z" fill="#463A7C"/>
<path d="M112.074 272.183L109.556 270.831V273.616L112.074 274.969V272.183Z" fill="#E4DEFF"/>
<path d="M112.523 271.92L112.072 272.203L112.072 274.962L112.535 274.662L112.523 271.92Z" fill="#463A7C"/>
<path d="M109.553 270.839L110.012 270.543L112.531 271.909L112.073 272.19L109.553 270.839Z" fill="#463A7C"/>
<path d="M112.074 278.123L109.556 276.771V279.556L112.074 280.908V278.123Z" fill="#E4DEFF"/>
<path d="M112.523 277.86L112.072 278.143L112.072 280.902L112.535 280.602L112.523 277.86Z" fill="#463A7C"/>
<path d="M109.553 276.778L110.012 276.483L112.531 277.849L112.073 278.129L109.553 276.778Z" fill="#463A7C"/>
<path d="M106.465 263.177L103.947 261.825V264.61L106.465 265.962V263.177Z" fill="#E4DEFF"/>
<path d="M106.913 262.914L106.462 263.197L106.462 265.956L106.926 265.656L106.913 262.914Z" fill="#463A7C"/>
<path d="M103.944 261.833L104.402 261.538L106.922 262.903L106.464 263.184L103.944 261.833Z" fill="#463A7C"/>
<path d="M106.465 281.081L103.947 279.729V282.514L106.465 283.866V281.081Z" fill="#E4DEFF"/>
<path d="M106.913 280.817L106.462 281.1L106.462 283.86L106.926 283.559L106.913 280.817Z" fill="#463A7C"/>
<path d="M103.944 279.736L104.402 279.441L106.922 280.806L106.464 281.087L103.944 279.736Z" fill="#463A7C"/>
<path d="M106.465 269.125L103.947 267.773V270.558L106.465 271.91V269.125Z" fill="#E4DEFF"/>
<path d="M106.913 268.862L106.462 269.144L106.462 271.904L106.926 271.603L106.913 268.862Z" fill="#463A7C"/>
<path d="M103.944 267.78L104.402 267.485L106.922 268.851L106.464 269.131L103.944 267.78Z" fill="#463A7C"/>
<path d="M106.465 275.08L103.947 273.728V276.513L106.465 277.865V275.08Z" fill="#E4DEFF"/>
<path d="M106.913 274.813L106.462 275.095L106.462 277.855L106.926 277.555L106.913 274.813Z" fill="#463A7C"/>
<path d="M103.944 273.731L104.402 273.436L106.922 274.802L106.464 275.082L103.944 273.731Z" fill="#463A7C"/>
<path d="M100.855 260.124L98.3376 258.772V261.557L100.855 262.909V260.124Z" fill="#E4DEFF"/>
<path d="M101.304 259.86L100.853 260.143L100.853 262.903L101.316 262.602L101.304 259.86Z" fill="#463A7C"/>
<path d="M98.3345 258.779L98.7928 258.484L101.312 259.849L100.854 260.13L98.3345 258.779Z" fill="#463A7C"/>
<path d="M100.855 278.026L98.3376 276.674V279.459L100.855 280.812V278.026Z" fill="#E4DEFF"/>
<path d="M101.304 277.763L100.853 278.046L100.853 280.805L101.316 280.505L101.304 277.763Z" fill="#463A7C"/>
<path d="M98.3345 276.682L98.7928 276.386L101.312 277.752L100.854 278.033L98.3345 276.682Z" fill="#463A7C"/>
<path d="M100.855 266.074L98.3376 264.722V267.507L100.855 268.859V266.074Z" fill="#E4DEFF"/>
<path d="M101.304 265.807L100.853 266.09L100.853 268.849L101.316 268.549L101.304 265.807Z" fill="#463A7C"/>
<path d="M98.3345 264.726L98.7928 264.431L101.312 265.796L100.854 266.077L98.3345 264.726Z" fill="#463A7C"/>
<path d="M100.855 272.032L98.3376 270.68V273.465L100.855 274.817V272.032Z" fill="#E4DEFF"/>
<path d="M101.304 271.772L100.853 272.055L100.853 274.815L101.316 274.514L101.304 271.772Z" fill="#463A7C"/>
<path d="M98.3345 270.687L98.7928 270.392L101.312 271.758L100.854 272.038L98.3345 270.687Z" fill="#463A7C"/>
<path d="M112.074 289.947L109.556 288.595V291.38L112.074 292.732V289.947Z" fill="#E4DEFF"/>
<path d="M112.523 289.683L112.072 289.966L112.072 292.726L112.535 292.425L112.523 289.683Z" fill="#463A7C"/>
<path d="M109.553 288.602L110.012 288.307L112.531 289.673L112.073 289.953L109.553 288.602Z" fill="#463A7C"/>
<path d="M112.074 295.901L109.556 294.549V297.334L112.074 298.686V295.901Z" fill="#E4DEFF"/>
<path d="M112.523 295.638L112.072 295.921L112.072 298.68L112.535 298.38L112.523 295.638Z" fill="#463A7C"/>
<path d="M109.553 294.556L110.012 294.261L112.531 295.627L112.073 295.907L109.553 294.556Z" fill="#463A7C"/>
<path d="M106.465 286.906L103.947 285.554V288.339L106.465 289.691V286.906Z" fill="#E4DEFF"/>
<path d="M106.913 286.642L106.462 286.925L106.462 289.685L106.926 289.384L106.913 286.642Z" fill="#463A7C"/>
<path d="M103.944 285.561L104.402 285.266L106.922 286.632L106.464 286.912L103.944 285.561Z" fill="#463A7C"/>
<path d="M106.465 292.853L103.947 291.501V294.286L106.465 295.638V292.853Z" fill="#E4DEFF"/>
<path d="M106.913 292.59L106.462 292.873L106.462 295.632L106.926 295.332L106.913 292.59Z" fill="#463A7C"/>
<path d="M103.944 291.508L104.402 291.213L106.922 292.579L106.464 292.86L103.944 291.508Z" fill="#463A7C"/>
<path d="M100.855 283.852L98.3376 282.5V285.285L100.855 286.637V283.852Z" fill="#E4DEFF"/>
<path d="M101.304 283.588L100.853 283.871L100.853 286.631L101.316 286.33L101.304 283.588Z" fill="#463A7C"/>
<path d="M98.3345 282.507L98.7928 282.212L101.312 283.577L100.854 283.858L98.3345 282.507Z" fill="#463A7C"/>
<path d="M100.855 289.803L98.3376 288.45V291.236L100.855 292.588V289.803Z" fill="#E4DEFF"/>
<path d="M101.304 289.543L100.853 289.826L100.853 292.585L101.316 292.285L101.304 289.543Z" fill="#463A7C"/>
<path d="M98.3345 288.458L98.7928 288.163L101.312 289.528L100.854 289.809L98.3345 288.458Z" fill="#463A7C"/>
<path d="M100.855 295.75L98.3376 294.398V297.183L100.855 298.535V295.75Z" fill="#E4DEFF"/>
<path d="M101.304 295.487L100.853 295.769L100.853 298.529L101.316 298.228L101.304 295.487Z" fill="#463A7C"/>
<path d="M98.3345 294.405L98.7928 294.11L101.312 295.476L100.854 295.756L98.3345 294.405Z" fill="#463A7C"/>
</g>
<rect x="81.9805" y="103" width="139.421" height="193.64" rx="15.4912" stroke="#F4F4F4" stroke-width="1.9364"/>
</g>
<g filter="url(#filter1_d_498_5897)">
<g clip-path="url(#clip2_498_5897)">
<rect x="247.223" y="103" width="139.421" height="193.64" rx="15.4912" fill="white"/>
<path d="M291.124 147.491V129.467H297.719C301.193 129.467 303.333 131.229 303.333 134.124C303.333 136.239 302.401 137.674 300.538 138.404C302.628 139.083 303.685 140.543 303.685 142.759C303.685 145.654 301.52 147.491 298.097 147.491H291.124ZM297.694 131.078H292.936V137.674H297.92C300.186 137.674 301.47 136.415 301.47 134.275C301.47 132.261 300.11 131.078 297.694 131.078ZM298.097 139.26H292.936V145.855H298.097C300.463 145.855 301.847 144.621 301.847 142.532C301.847 140.493 300.438 139.26 298.097 139.26ZM311.814 147.793C308.239 147.793 305.848 145.226 305.848 141.399C305.848 137.598 308.214 134.98 311.688 134.98C314.985 134.98 317.226 137.321 317.226 140.77V141.626H307.534C307.66 144.596 309.221 146.308 311.839 146.308C313.828 146.308 315.111 145.452 315.564 143.841H317.226C316.571 146.409 314.683 147.793 311.814 147.793ZM311.688 136.465C309.397 136.465 307.887 137.976 307.585 140.367H315.489C315.489 138.026 313.979 136.465 311.688 136.465ZM324.912 147.793C321.362 147.793 319.273 145.075 319.273 141.424C319.273 137.749 321.362 134.98 324.987 134.98C327.001 134.98 328.612 135.861 329.468 137.623V129.14H331.205V147.491H329.695L329.518 144.999C328.663 146.887 326.951 147.793 324.912 147.793ZM325.214 146.207C327.882 146.207 329.443 144.194 329.443 141.374C329.443 138.58 327.882 136.541 325.214 136.541C322.571 136.541 321.035 138.58 321.035 141.374C321.035 144.194 322.571 146.207 325.214 146.207ZM333.923 144.068H335.585C335.585 145.477 336.642 146.358 338.354 146.358C340.242 146.358 341.349 145.553 341.349 144.244C341.349 143.237 340.846 142.658 339.411 142.306L337.322 141.777C335.207 141.248 334.175 140.141 334.175 138.479C334.175 136.339 335.962 134.98 338.58 134.98C341.148 134.98 342.81 136.39 342.885 138.655H341.198C341.148 137.246 340.166 136.415 338.53 136.415C336.818 136.415 335.862 137.145 335.862 138.454C335.862 139.385 336.516 140.04 337.85 140.367L339.94 140.896C342.054 141.424 343.011 142.406 343.011 144.168C343.011 146.358 341.148 147.793 338.379 147.793C335.635 147.793 333.923 146.333 333.923 144.068Z" fill="#6F6F6F"/>
<path d="M302.955 177.678H300.542V175.427L305.639 170.737H297.398V167.674H309.976V170.439L305.151 174.885C308.187 175.482 310.546 177.705 310.546 181.202C310.546 185.268 307.374 187.844 303.362 187.844C299.485 187.844 296.476 185.458 296.476 181.175H299.892C299.892 183.452 301.301 184.753 303.416 184.753C305.585 184.753 307.021 183.343 307.021 181.148C307.021 179.141 305.72 177.678 302.955 177.678ZM316.498 170.792H312.161V167.674H319.833V187.491H316.498V170.792ZM322.604 167.674H336.836V170.873L329.652 187.491H326.047L333.366 170.873H322.604V167.674Z" fill="#222222"/>
<path d="M269.051 241.03V266.409L287.578 245.489L306.105 224.568L302.547 222L269.051 241.03Z" fill="#B29186"/>
<path d="M272.594 243.491L272.643 268.712L306.09 249.656V224.46L272.594 243.491Z" fill="#906B5F"/>
<path d="M269.094 241.033L272.652 243.592V268.675L269.094 266.425V241.033Z" fill="#58392F"/>
<path d="M366.406 284.155L306.244 249.929L272.86 262.253L272.86 268.921L333.022 303.147L366.406 284.155Z" fill="#58392F"/>
<path d="M315.892 256.644C307.634 261.342 299.075 258.602 295.827 256.644L306.077 251.061L315.892 256.644Z" fill="#F7F4FF"/>
<path d="M366.395 284.149V277.443L358.71 280.55L366.395 284.149Z" fill="#886BD4"/>
<rect width="69.2162" height="38.4081" transform="matrix(-0.869189 -0.494479 -0.869189 0.494479 366.406 277.438)" fill="#F7F4FF"/>
<path d="M366.531 284.131V277.592L333.027 296.391V303.122L366.531 284.131Z" fill="#906B5F"/>
<path d="M363.324 276.124L306.302 243.924L274.66 255.519L274.66 261.792L331.682 293.992L363.324 276.124Z" fill="#E4DCFE"/>
<path d="M315.446 250.242C307.619 254.662 299.507 252.083 296.429 250.242L306.144 244.989L315.446 250.242Z" fill="#F7F4FF"/>
<path d="M363.324 276.124L332.804 258.89L303.744 271.942L301.162 276.758L331.682 293.992L363.324 276.124Z" fill="#A490D9"/>
<path d="M337.218 262.538C329.391 266.958 324.225 266.043 322.62 265.034L332.239 259.726L337.218 262.538Z" fill="#F7F4FF"/>
<path d="M360.688 275.333V269.154L353.606 272.016L360.688 275.333Z" fill="#886BD4"/>
<rect width="65.4859" height="36.3382" transform="matrix(-0.870758 -0.491711 -0.870758 0.491711 363.324 269.807)" fill="#F7F4FF"/>
<path d="M363.426 276.115V269.964L331.67 287.65V293.982L363.426 276.115Z" fill="#9681CD"/>
<path d="M282.094 250.276C286.414 242.121 296.232 239.696 300.601 239.503L309.552 244.57C305.18 251.238 295.454 254.7 291.138 255.598L282.094 250.276Z" fill="#E4DCFE"/>
<path d="M309.47 244.618C305.428 245.613 296.102 249.206 291.133 255.61C295.572 254.647 305.454 251.101 309.47 244.618Z" fill="#C6BAEB"/>
<path d="M338.227 254.358L339.476 255.093C339.476 256.522 337.899 257.389 336.692 256.622L336.64 256.589L304.972 273.298C304.336 273.634 303.938 274.293 303.938 275.012C303.938 276.46 302.408 277.396 301.119 276.737L300.584 276.464C299.813 276.07 299.328 275.277 299.328 274.412V273.578C299.328 272.232 300.066 270.995 301.25 270.354L331.047 254.229C333.298 253.011 336.022 253.06 338.227 254.358Z" fill="#6C53AD"/>
<path d="M305.699 272.964L338.58 255.528L363.257 269.924L331.631 287.66L305.699 272.964Z" fill="#826BBE"/>
</g>
<rect x="247.223" y="103" width="139.421" height="193.64" rx="15.4912" stroke="#F4F4F4" stroke-width="1.9364"/>
</g>
<g filter="url(#filter2_d_498_5897)">
<g clip-path="url(#clip3_498_5897)">
<rect x="412.461" y="103" width="139.421" height="193.64" rx="15.4912" fill="white"/>
<path d="M439.478 131.129V129.467H452.392V131.129H446.828V147.491H445.016V131.129H439.478ZM457.877 147.793C454.302 147.793 451.911 145.226 451.911 141.399C451.911 137.598 454.277 134.98 457.751 134.98C461.049 134.98 463.289 137.321 463.289 140.77V141.626H453.597C453.723 144.596 455.284 146.308 457.902 146.308C459.891 146.308 461.174 145.452 461.628 143.841H463.289C462.634 146.409 460.746 147.793 457.877 147.793ZM457.751 136.465C455.46 136.465 453.95 137.976 453.648 140.367H461.552C461.552 138.026 460.042 136.465 457.751 136.465ZM467.929 147.491H466.192V135.307H467.702L467.954 137.422C468.76 135.861 470.371 134.98 472.133 134.98C475.481 134.98 476.865 136.969 476.865 140.04V147.491H475.128V140.418C475.128 137.573 473.845 136.566 471.831 136.566C469.339 136.566 467.929 138.379 467.929 141.122V147.491ZM483.952 147.793C481.359 147.793 479.824 146.333 479.824 144.194C479.824 141.953 481.536 140.543 484.38 140.317L488.408 139.99V139.587C488.408 137.195 486.973 136.44 485.186 136.44C483.071 136.44 481.812 137.397 481.812 139.033H480.227C480.227 136.566 482.24 134.98 485.236 134.98C488.055 134.98 490.12 136.39 490.12 139.612V147.491H488.66L488.433 145.351C487.678 146.887 486.016 147.793 483.952 147.793ZM484.355 146.384C486.923 146.384 488.408 144.596 488.408 141.953V141.299L484.808 141.576C482.517 141.777 481.586 142.784 481.586 144.143C481.586 145.628 482.694 146.384 484.355 146.384ZM495.468 147.491H493.731V135.307H495.241L495.493 137.422C496.299 135.861 497.91 134.98 499.672 134.98C503.02 134.98 504.404 136.969 504.404 140.04V147.491H502.667V140.418C502.667 137.573 501.384 136.566 499.37 136.566C496.878 136.566 495.468 138.379 495.468 141.122V147.491ZM510.786 147.491H509.075V136.767H506.633V135.307H509.075V131.456H510.786V135.307H513.228V136.767H510.786V147.491ZM514.584 144.068H516.245C516.245 145.477 517.303 146.358 519.014 146.358C520.902 146.358 522.01 145.553 522.01 144.244C522.01 143.237 521.506 142.658 520.072 142.306L517.982 141.777C515.868 141.248 514.836 140.141 514.836 138.479C514.836 136.339 516.623 134.98 519.241 134.98C521.809 134.98 523.47 136.39 523.545 138.655H521.859C521.809 137.246 520.827 136.415 519.191 136.415C517.479 136.415 516.522 137.145 516.522 138.454C516.522 139.385 517.177 140.04 518.511 140.367L520.6 140.896C522.715 141.424 523.671 142.406 523.671 144.168C523.671 146.358 521.809 147.793 519.039 147.793C516.296 147.793 514.584 146.333 514.584 144.068Z" fill="#6F6F6F"/>
<path d="M475.667 187.464L461.923 187.491V184.889L468.402 179.413C471.086 177.135 471.98 175.834 471.98 173.936C471.98 171.686 470.761 170.412 468.673 170.412C466.504 170.412 465.149 171.93 465.122 174.479H461.679C461.706 170.141 464.471 167.322 468.673 167.322C472.902 167.322 475.532 169.734 475.532 173.747C475.532 176.512 474.014 178.599 471.005 181.175L467.426 184.238H475.667V187.464ZM480.76 173.503L485.044 167.674H489.002L484.258 173.991C484.745 173.855 485.261 173.774 485.749 173.774C489.842 173.774 492.607 176.647 492.607 180.66C492.607 184.889 489.463 187.844 485.233 187.844C480.95 187.844 477.751 184.699 477.751 180.632C477.751 178.247 478.537 176.512 480.76 173.503ZM481.303 180.66C481.303 183.072 482.902 184.753 485.233 184.753C487.484 184.753 489.11 183.072 489.11 180.66C489.11 178.274 487.511 176.62 485.233 176.62C482.875 176.62 481.303 178.274 481.303 180.66ZM497.71 170.792H493.373V167.674H501.045V187.491H497.71V170.792Z" fill="#222222"/>
<path d="M457.238 275.509C463.586 272.236 474.981 271.073 474.981 271.073L491.837 276.396L504.257 278.171C504.257 278.171 512.137 279.454 515.79 282.606C520.856 286.978 522 298.575 522 298.575H442.156C442.156 298.575 442.954 288.439 446.592 283.494C449.672 279.307 452.619 277.891 457.238 275.509Z" fill="#9681CD" stroke="#C6BAEB" stroke-width="1.77431"/>
<path d="M505.121 229.415L508.412 226.124C508.412 226.124 510.704 228.529 510.805 230.462C510.881 231.92 509.641 233.35 509.758 234.051L510.057 235.846C510.174 236.547 510.173 237.584 510.057 238.688C509.847 240.691 508.561 243.624 508.561 243.624L506.168 243.026L505.121 237.342V229.415Z" fill="#1E1F24" stroke="#1E1F24" stroke-width="0.299147"/>
<path d="M482.438 250.033L479.378 259.175L476.259 265.841H473.64C472.445 265.841 471.72 266.198 470.58 265.841C469.454 265.489 469.039 264.833 468.094 264.127C467.329 263.555 467.024 263.054 466.181 262.603C465.286 262.125 464.556 262.379 463.695 261.842C462.568 261.138 460.447 258.924 459.551 257.945C459.088 256.848 458.497 248.438 458.497 248.438C458.497 248.438 453.182 241.473 454.278 238.931C455.373 236.388 455.332 233.009 455.332 230.48C455.332 227.951 458.692 225.539 459.551 224.142C460.443 222.693 462.334 217.664 463.771 216.747C465.075 215.751 467.42 214.879 469.045 214.635C472.847 214.063 473.68 210.217 477.483 209.654C480.005 209.281 483.803 210.89 486.263 210.225C487.811 209.806 488.306 208.517 489.897 208.32C492.656 207.98 493.754 209.066 496.47 209.654C498.295 210.049 499.085 211.201 500.799 211.939C502.695 212.755 503.019 213.802 504.908 214.635C506.684 215.418 507.531 214.974 509.214 215.939C510.813 216.856 511.305 218.144 511.7 219.939C512.155 222.005 511.671 223.368 510.744 225.272C510.092 226.61 509.412 227.182 508.449 228.319C505.89 231.342 500.799 234.986 500.799 234.986H488.75L481.742 238.459L482.438 250.033Z" fill="#1E1F24"/>
<path d="M476.247 267.928C477.327 265.011 477.984 260.178 477.984 260.178L496.846 264.935C496.846 264.935 495.138 268.555 494.466 271.004C493.793 273.459 493.423 277.425 493.423 277.425C493.423 277.425 490.224 279.335 487.921 279.669C485.136 280.072 483.328 279.785 480.809 278.58C477.472 276.983 474.622 271.555 474.622 271.555C474.622 271.555 475.709 269.381 476.247 267.928Z" fill="#DEA77E" stroke="#DAA97E" stroke-width="0.299147"/>
<path fill-rule="evenodd" clip-rule="evenodd" d="M486.046 262.124C485.517 264.825 484.722 268.521 483.865 271.261C483.156 273.525 482.041 276.3 481.05 278.622C480.945 278.574 480.838 278.524 480.73 278.473C477.393 276.876 474.543 271.448 474.543 271.448C474.543 271.448 475.63 269.274 476.168 267.82C477.248 264.904 477.905 260.071 477.905 260.071L486.046 262.124Z" fill="#D69E75"/>
<path d="M486.046 262.124L486.193 262.153L486.22 262.014L486.083 261.979L486.046 262.124ZM483.865 271.261L484.007 271.305L483.865 271.261ZM481.05 278.622L480.987 278.758L481.127 278.822L481.187 278.681L481.05 278.622ZM480.73 278.473L480.666 278.608L480.666 278.608L480.73 278.473ZM474.543 271.448L474.409 271.381L474.375 271.45L474.411 271.518L474.543 271.448ZM476.168 267.82L476.028 267.768L476.168 267.82ZM477.905 260.071L477.941 259.926L477.779 259.885L477.756 260.05L477.905 260.071ZM485.9 262.095C485.37 264.795 484.577 268.485 483.722 271.216L484.007 271.305C484.867 268.557 485.663 264.854 486.193 262.153L485.9 262.095ZM483.722 271.216C483.016 273.473 481.903 276.242 480.912 278.564L481.187 278.681C482.179 276.358 483.297 273.578 484.007 271.305L483.722 271.216ZM481.112 278.486C481.008 278.438 480.902 278.389 480.795 278.338L480.666 278.608C480.774 278.659 480.881 278.71 480.987 278.758L481.112 278.486ZM480.795 278.338C479.162 277.557 477.634 275.827 476.506 274.274C475.945 273.5 475.486 272.775 475.169 272.244C475.01 271.979 474.886 271.762 474.803 271.612C474.761 271.537 474.729 271.478 474.707 271.438C474.697 271.419 474.689 271.404 474.683 271.393C474.681 271.388 474.679 271.385 474.677 271.382C474.677 271.381 474.676 271.38 474.676 271.379C474.676 271.379 474.676 271.379 474.675 271.379C474.675 271.379 474.675 271.379 474.675 271.379C474.675 271.379 474.675 271.379 474.543 271.448C474.411 271.518 474.411 271.518 474.411 271.518C474.411 271.518 474.411 271.518 474.411 271.518C474.411 271.518 474.411 271.519 474.411 271.519C474.412 271.52 474.412 271.521 474.413 271.522C474.414 271.525 474.416 271.529 474.419 271.534C474.425 271.545 474.433 271.56 474.444 271.581C474.466 271.621 474.499 271.681 474.541 271.757C474.626 271.91 474.752 272.13 474.912 272.398C475.233 272.935 475.696 273.667 476.264 274.449C477.396 276.009 478.961 277.792 480.666 278.608L480.795 278.338ZM474.543 271.448C474.677 271.515 474.677 271.515 474.677 271.515C474.677 271.515 474.677 271.515 474.677 271.515C474.677 271.515 474.677 271.515 474.677 271.515C474.677 271.514 474.677 271.514 474.678 271.513C474.678 271.512 474.679 271.511 474.68 271.509C474.682 271.504 474.685 271.498 474.689 271.49C474.697 271.474 474.709 271.449 474.725 271.418C474.756 271.356 474.8 271.265 474.856 271.151C474.966 270.924 475.119 270.606 475.289 270.243C475.628 269.517 476.037 268.605 476.308 267.872L476.028 267.768C475.761 268.489 475.357 269.391 475.018 270.116C474.849 270.478 474.697 270.794 474.587 271.02C474.532 271.133 474.487 271.224 474.457 271.286C474.441 271.317 474.429 271.341 474.421 271.357C474.417 271.365 474.414 271.371 474.412 271.375C474.411 271.377 474.41 271.379 474.41 271.38C474.41 271.38 474.409 271.381 474.409 271.381C474.409 271.381 474.409 271.381 474.409 271.381C474.409 271.381 474.409 271.381 474.409 271.381C474.409 271.381 474.409 271.381 474.543 271.448ZM476.308 267.872C476.853 266.402 477.289 264.454 477.588 262.88C477.738 262.091 477.854 261.394 477.933 260.895C477.972 260.645 478.002 260.444 478.022 260.305C478.032 260.236 478.04 260.183 478.045 260.146C478.048 260.128 478.05 260.114 478.051 260.105C478.052 260.1 478.052 260.097 478.052 260.094C478.052 260.093 478.053 260.092 478.053 260.092C478.053 260.091 478.053 260.091 478.053 260.091C478.053 260.091 478.053 260.091 478.053 260.091C478.053 260.091 478.053 260.091 477.905 260.071C477.756 260.05 477.756 260.05 477.756 260.05C477.756 260.05 477.756 260.051 477.756 260.051C477.756 260.051 477.756 260.051 477.756 260.051C477.756 260.052 477.756 260.053 477.756 260.054C477.756 260.056 477.755 260.059 477.755 260.064C477.753 260.073 477.751 260.087 477.749 260.105C477.744 260.141 477.736 260.194 477.726 260.262C477.706 260.4 477.676 260.599 477.637 260.848C477.559 261.346 477.444 262.039 477.294 262.824C476.995 264.395 476.563 266.322 476.028 267.768L476.308 267.872ZM477.868 260.216L486.01 262.269L486.083 261.979L477.941 259.926L477.868 260.216Z" fill="#D69E75"/>
<path d="M481.506 248.453C481.828 250.786 480.185 253.202 480.185 253.202C480.185 253.202 478.529 252.226 477.709 251.364C476.773 250.379 477.008 249.263 475.894 248.453C474.736 247.613 473.705 247.272 472.262 247.534C471.156 247.735 470.404 248.037 469.787 248.913C469.01 250.014 469.609 250.977 469.787 252.283C469.995 253.824 469.913 254.888 470.942 256.113C471.679 256.99 472.592 257.032 473.418 257.798C474.243 258.564 474.078 259.33 474.738 259.943C475.399 260.556 476.102 260.573 477.049 260.709C477.814 260.818 479.03 260.709 479.03 260.709C479.03 260.709 479.025 263.054 479.855 264.232C480.506 265.156 481.183 265.451 482.166 266.071C484.008 267.232 486.953 267.756 487.448 268.062C487.943 268.368 492.262 270.038 495.536 270.666C497.635 271.069 498.843 271.184 500.983 271.279C502.4 271.342 503.234 271.579 504.614 271.279C506.018 270.974 507.916 269.747 507.916 269.747C507.916 269.747 509.074 268.352 509.401 267.296C509.793 266.031 509.401 265.242 509.401 263.926V260.709C509.401 260.709 509.8 257.447 509.896 255.347C509.993 253.255 510.546 251.99 509.896 249.985C509.432 248.549 507.916 246.615 507.916 246.615C507.916 246.615 508.613 244.117 508.741 242.479C508.825 241.405 508.741 240.334 508.741 239.721C508.741 239.108 507.048 236.804 506.265 234.819C505.373 232.557 504.614 228.844 504.614 228.844C504.614 228.844 503.624 231.142 502.139 232.061C500.653 232.98 497.022 234.206 495.536 234.512C494.051 234.819 489.099 233.746 485.632 234.512C482.166 235.278 482.67 235.21 481.506 236.504C479.882 238.31 480.681 242.479 480.681 242.479L481.506 248.453Z" fill="#E7B58E"/>
<path fill-rule="evenodd" clip-rule="evenodd" d="M487.866 268.198C487.303 266.368 486.6 264.492 485.769 263.024C485.35 262.283 484.859 261.752 484.388 261.244C483.721 260.525 483.096 259.85 482.778 258.686C482.282 256.875 482.983 255.563 483.739 254.151C484.277 253.144 484.843 252.086 485.022 250.759C485.427 247.749 485.022 242.981 485.022 242.981V238.195C485.022 237.344 485.951 235.935 486.964 234.652C486.305 234.687 485.664 234.764 485.07 234.905C482.358 235.551 482.328 235.589 481.691 236.401C481.591 236.53 481.475 236.677 481.331 236.85C479.859 238.613 480.583 242.683 480.583 242.683L481.331 248.517C481.623 250.795 480.134 253.153 480.134 253.153C480.134 253.153 478.633 252.2 477.891 251.358C477.505 250.922 477.339 250.458 477.177 250.009C476.983 249.468 476.796 248.948 476.245 248.517C475.196 247.696 474.262 247.363 472.955 247.619C471.952 247.815 471.271 248.11 470.711 248.965C470.193 249.757 470.351 250.476 470.534 251.309C470.6 251.607 470.669 251.92 470.711 252.256C470.745 252.527 470.771 252.783 470.795 253.027C470.906 254.14 470.993 255.015 471.758 255.995C472.123 256.463 472.535 256.687 472.956 256.917C473.306 257.107 473.662 257.301 474.002 257.641C474.396 258.035 474.541 258.43 474.678 258.803C474.8 259.136 474.916 259.452 475.198 259.735C475.722 260.258 476.275 260.337 476.98 260.437C477.081 260.451 477.185 260.466 477.292 260.482C477.985 260.589 479.087 260.482 479.087 260.482C479.087 260.482 479.083 262.772 479.835 263.923C480.319 264.664 480.82 264.99 481.478 265.419C481.621 265.512 481.77 265.61 481.929 265.717C483.035 266.468 484.579 266.947 485.626 267.271C486.159 267.436 486.564 267.561 486.715 267.662C486.845 267.748 487.264 267.946 487.866 268.198Z" fill="#E2AD84"/>
</g>
<rect x="412.461" y="103" width="139.421" height="193.64" rx="15.4912" stroke="#F4F4F4" stroke-width="1.9364"/>
</g>
<g filter="url(#filter3_d_498_5897)">
<g clip-path="url(#clip4_498_5897)">
<rect x="577.699" y="103" width="139.421" height="193.64" rx="15.4912" fill="white"/>
<path d="M623.018 134.149C623.018 131.129 625.434 129.14 629.059 129.14C632.307 129.14 634.446 130.952 634.723 133.973H632.886C632.684 131.934 631.3 130.776 629.034 130.776C626.492 130.776 624.83 132.085 624.83 134.124C624.83 135.71 625.762 136.717 627.65 137.195L630.746 137.951C633.565 138.63 635.025 140.241 635.025 142.683C635.025 145.805 632.609 147.793 628.883 147.793C625.384 147.793 623.018 145.956 622.791 143.01H624.654C624.755 144.898 626.416 146.132 628.883 146.132C631.526 146.132 633.213 144.848 633.213 142.784C633.213 141.173 632.307 140.115 630.368 139.662L627.322 138.907C624.503 138.227 623.018 136.616 623.018 134.149ZM640.827 147.491H639.115V136.767H636.674V135.307H639.115V131.456H640.827V135.307H643.269V136.767H640.827V147.491ZM648.959 147.793C646.366 147.793 644.831 146.333 644.831 144.194C644.831 141.953 646.543 140.543 649.387 140.317L653.415 139.99V139.587C653.415 137.195 651.98 136.44 650.193 136.44C648.078 136.44 646.819 137.397 646.819 139.033H645.234C645.234 136.566 647.247 134.98 650.243 134.98C653.062 134.98 655.127 136.39 655.127 139.612V147.491H653.667L653.44 145.351C652.685 146.887 651.023 147.793 648.959 147.793ZM649.362 146.384C651.93 146.384 653.415 144.596 653.415 141.953V141.299L649.815 141.576C647.524 141.777 646.593 142.784 646.593 144.143C646.593 145.628 647.7 146.384 649.362 146.384ZM657.28 135.307H659.143V132.941C659.143 130.197 660.653 129.14 662.516 129.14C662.944 129.14 663.448 129.165 663.85 129.241V130.726H662.818C661.283 130.726 660.88 131.506 660.88 132.941V135.307H663.75V136.767H660.88V147.491H659.143V136.767H657.28V135.307ZM664.978 135.307H666.841V132.941C666.841 130.197 668.351 129.14 670.214 129.14C670.642 129.14 671.145 129.165 671.548 129.241V130.726H670.516C668.98 130.726 668.578 131.506 668.578 132.941V135.307H671.447V136.767H668.578V147.491H666.841V136.767H664.978V135.307Z" fill="#6F6F6F"/>
<path d="M637.432 177.678H635.019V175.427L640.115 170.737H631.874V167.674H644.453V170.439L639.627 174.885C642.664 175.482 645.022 177.705 645.022 181.202C645.022 185.268 641.85 187.844 637.838 187.844C633.962 187.844 630.952 185.458 630.952 181.175H634.368C634.368 183.452 635.778 184.753 637.892 184.753C640.061 184.753 641.498 183.343 641.498 181.148C641.498 179.141 640.197 177.678 637.432 177.678ZM662.596 183.723H660.183V187.491H656.903V183.723H646.845V180.687L655.818 167.674H660.183V180.687H662.596V183.723ZM650.532 180.687H656.903V171.415L650.532 180.687Z" fill="#222222"/>
<path d="M622.48 277.446C628.828 274.172 640.223 273.01 640.223 273.01L657.079 278.333L669.499 280.107C669.499 280.107 677.379 281.39 681.032 284.543C686.098 288.915 687.242 300.512 687.242 300.512H607.398C607.398 300.512 608.196 290.375 611.834 285.43C614.914 281.244 617.861 279.827 622.48 277.446Z" fill="#8BC9E3"/>
<path d="M670.355 231.351L673.646 228.061C673.646 228.061 675.938 230.466 676.039 232.398C676.115 233.856 674.875 235.287 674.992 235.988L675.291 237.783C675.408 238.484 675.407 239.521 675.291 240.625C675.082 242.628 673.796 245.561 673.796 245.561L671.402 244.962L670.355 239.279V231.351Z" fill="#1E1F24" stroke="#1E1F24" stroke-width="0.299147"/>
<path d="M648.515 251.2L645.745 259.478L642.92 265.514H640.55C639.468 265.514 638.811 265.837 637.779 265.514C636.759 265.195 636.383 264.601 635.528 263.962C634.835 263.444 634.559 262.99 633.796 262.582C632.986 262.149 632.325 262.379 631.545 261.893C630.525 261.256 628.604 259.251 627.793 258.364C627.374 257.371 626.838 249.757 626.838 249.757C626.838 249.757 624.15 244.723 625.141 242.421C626.133 240.119 628.046 234.06 628.046 231.771C628.046 229.481 630.173 234.004 630.95 232.739C631.757 231.427 630.313 221.894 631.614 221.063C632.794 220.161 634.918 219.372 636.389 219.151C639.831 218.633 640.586 215.151 644.029 214.641C646.312 214.303 649.751 215.76 651.979 215.158C653.38 214.779 653.828 213.611 655.269 213.433C657.767 213.125 658.761 214.109 661.22 214.641C662.872 214.999 663.587 216.042 665.139 216.71C666.856 217.449 667.15 218.397 668.86 219.151C670.468 219.86 662.055 219.278 663.578 220.152C665.026 220.982 669.03 222.4 669.388 224.025C669.799 225.896 671.195 227.142 670.356 228.866C669.766 230.078 672.938 230.511 672.066 231.541C669.749 234.278 665.139 237.577 665.139 237.577H654.23L647.885 240.722L648.515 251.2Z" fill="#1E1F24"/>
<path d="M641.473 269.864C642.553 266.948 643.21 262.115 643.21 262.115L662.073 266.872C662.073 266.872 660.365 270.492 659.693 272.941C659.02 275.396 658.65 279.362 658.65 279.362C658.65 279.362 655.45 281.272 653.148 281.605C650.362 282.009 648.554 281.722 646.036 280.517C642.698 278.92 639.848 273.492 639.848 273.492C639.848 273.492 640.935 271.318 641.473 269.864Z" fill="#DEA77E" stroke="#DAA97E" stroke-width="0.299147"/>
<path fill-rule="evenodd" clip-rule="evenodd" d="M651.281 264.061C650.751 266.761 649.956 270.458 649.099 273.198C648.39 275.462 647.275 278.237 646.284 280.559C646.179 280.511 646.072 280.461 645.965 280.409C642.627 278.813 639.777 273.385 639.777 273.385C639.777 273.385 640.864 271.21 641.402 269.757C642.482 266.841 643.139 262.007 643.139 262.007L651.281 264.061Z" fill="#D69E75"/>
<path d="M651.281 264.061L651.428 264.09L651.455 263.95L651.317 263.916L651.281 264.061ZM649.099 273.198L648.956 273.153L649.099 273.198ZM646.284 280.559L646.222 280.695L646.361 280.759L646.422 280.618L646.284 280.559ZM645.965 280.409L645.9 280.544H645.9L645.965 280.409ZM639.777 273.385L639.644 273.318L639.609 273.387L639.645 273.454L639.777 273.385ZM641.402 269.757L641.262 269.705L641.402 269.757ZM643.139 262.007L643.176 261.862L643.013 261.821L642.991 261.987L643.139 262.007ZM651.134 264.032C650.604 266.732 649.811 270.421 648.956 273.153L649.242 273.242C650.102 270.494 650.898 266.791 651.428 264.09L651.134 264.032ZM648.956 273.153C648.25 275.41 647.137 278.179 646.147 280.5L646.422 280.618C647.413 278.294 648.531 275.514 649.242 273.242L648.956 273.153ZM646.346 280.423C646.242 280.375 646.136 280.326 646.029 280.275L645.9 280.544C646.009 280.596 646.116 280.646 646.222 280.695L646.346 280.423ZM646.029 280.275C644.397 279.493 642.868 277.764 641.741 276.211C641.179 275.437 640.721 274.712 640.403 274.181C640.244 273.916 640.121 273.699 640.037 273.548C639.995 273.473 639.963 273.415 639.942 273.375C639.931 273.355 639.923 273.34 639.918 273.33C639.915 273.325 639.913 273.321 639.912 273.319C639.911 273.318 639.911 273.317 639.91 273.316C639.91 273.316 639.91 273.316 639.91 273.316C639.91 273.315 639.91 273.315 639.91 273.315C639.91 273.315 639.91 273.315 639.777 273.385C639.645 273.454 639.645 273.455 639.645 273.455C639.645 273.455 639.645 273.455 639.645 273.455C639.645 273.455 639.645 273.455 639.646 273.456C639.646 273.456 639.646 273.457 639.647 273.459C639.649 273.462 639.651 273.466 639.654 273.471C639.659 273.481 639.668 273.497 639.679 273.517C639.701 273.558 639.733 273.618 639.776 273.694C639.861 273.847 639.986 274.066 640.146 274.335C640.467 274.871 640.93 275.604 641.498 276.386C642.63 277.946 644.195 279.729 645.9 280.544L646.029 280.275ZM639.777 273.385C639.911 273.452 639.911 273.452 639.911 273.452C639.911 273.452 639.911 273.452 639.911 273.452C639.911 273.452 639.911 273.451 639.911 273.451C639.911 273.451 639.912 273.451 639.912 273.45C639.913 273.449 639.913 273.447 639.914 273.445C639.916 273.441 639.92 273.435 639.924 273.427C639.932 273.41 639.944 273.386 639.959 273.355C639.99 273.292 640.035 273.201 640.09 273.088C640.201 272.861 640.354 272.543 640.523 272.179C640.863 271.453 641.271 270.542 641.542 269.809L641.262 269.705C640.995 270.426 640.591 271.328 640.252 272.053C640.083 272.414 639.931 272.731 639.821 272.957C639.766 273.07 639.722 273.16 639.691 273.222C639.676 273.253 639.664 273.277 639.656 273.294C639.652 273.302 639.649 273.308 639.647 273.312C639.646 273.314 639.645 273.316 639.644 273.317C639.644 273.317 639.644 273.317 639.644 273.318C639.644 273.318 639.644 273.318 639.644 273.318C639.644 273.318 639.644 273.318 639.644 273.318C639.644 273.318 639.644 273.318 639.777 273.385ZM641.542 269.809C642.087 268.338 642.523 266.391 642.823 264.816C642.973 264.028 643.089 263.331 643.167 262.831C643.207 262.581 643.237 262.381 643.257 262.242C643.267 262.173 643.274 262.119 643.279 262.083C643.282 262.065 643.284 262.051 643.285 262.042C643.286 262.037 643.286 262.034 643.287 262.031C643.287 262.03 643.287 262.029 643.287 262.028C643.287 262.028 643.287 262.028 643.287 262.028C643.287 262.028 643.287 262.028 643.287 262.028C643.287 262.027 643.287 262.027 643.139 262.007C642.991 261.987 642.991 261.987 642.991 261.987C642.991 261.987 642.991 261.987 642.991 261.987C642.991 261.987 642.991 261.988 642.991 261.988C642.991 261.989 642.99 261.989 642.99 261.991C642.99 261.993 642.99 261.996 642.989 262.001C642.988 262.01 642.986 262.024 642.983 262.042C642.978 262.077 642.971 262.13 642.961 262.199C642.941 262.336 642.911 262.536 642.872 262.785C642.793 263.282 642.678 263.976 642.529 264.761C642.23 266.332 641.797 268.259 641.262 269.705L641.542 269.809ZM643.102 262.152L651.244 264.206L651.317 263.916L643.176 261.862L643.102 262.152Z" fill="#D69E75"/>
<path d="M646.736 250.39C647.059 252.723 645.416 255.139 645.416 255.139C645.416 255.139 643.759 254.163 642.94 253.301C642.004 252.316 642.239 251.2 641.124 250.39C639.967 249.55 638.935 249.209 637.493 249.471C636.386 249.672 635.635 249.974 635.017 250.85C634.24 251.951 634.84 252.914 635.017 254.22C635.226 255.761 635.143 256.825 636.172 258.05C636.91 258.927 637.823 258.969 638.648 259.735C639.474 260.501 639.309 261.267 639.969 261.88C640.629 262.493 641.333 262.51 642.28 262.646C643.044 262.755 644.26 262.646 644.26 262.646C644.26 262.646 644.256 264.991 645.086 266.169C645.736 267.093 647.104 268.613 648.087 269.233C649.929 270.394 652.433 271.378 652.928 271.684C653.424 271.991 658.645 273.235 661.642 273.403C663.775 273.523 664.343 273.308 666.483 273.403C667.9 273.467 668.464 273.516 669.845 273.216C671.248 272.911 673.146 271.684 673.146 271.684C673.146 271.684 674.305 270.289 674.632 269.233C675.023 267.968 676.165 266.974 676.165 265.658V263.721C676.165 263.721 677.037 260.98 677.133 258.88C677.229 256.788 675.776 253.928 675.127 251.922C674.662 250.486 673.972 248.547 673.972 248.547C673.972 248.547 673.843 246.054 673.972 244.416C674.055 243.342 673.972 242.271 673.972 241.658C673.972 241.045 672.278 238.741 671.496 236.756C670.604 234.494 669.845 230.781 669.845 230.781C669.845 230.781 668.855 233.079 667.369 233.998C665.883 234.918 662.252 236.143 660.767 236.449C659.281 236.756 654.329 235.683 650.863 236.449C647.397 237.215 647.9 237.147 646.736 238.441C645.112 240.247 645.911 244.416 645.911 244.416L646.736 250.39Z" fill="#E7B58E"/>
<path fill-rule="evenodd" clip-rule="evenodd" d="M652.723 269.372C652.466 267.862 651.964 266.111 651.008 264.451C650.588 263.724 650.097 263.203 649.626 262.704C648.959 261.997 648.335 261.334 648.016 260.191C647.521 258.412 648.222 257.125 648.977 255.738C649.515 254.749 650.081 253.71 650.26 252.406C650.665 249.45 650.26 244.768 650.26 244.768V240.068C650.26 239.233 651.19 237.849 652.203 236.589C651.543 236.623 650.902 236.699 650.308 236.838C647.596 237.472 647.566 237.509 646.929 238.307C646.829 238.433 646.713 238.578 646.569 238.747C645.097 240.479 645.821 244.476 645.821 244.476L646.569 250.204C646.861 252.441 645.372 254.758 645.372 254.758C645.372 254.758 643.871 253.821 643.129 252.995C642.743 252.566 642.577 252.111 642.416 251.67C642.222 251.139 642.035 250.628 641.484 250.204C640.434 249.398 639.5 249.072 638.193 249.323C637.19 249.516 636.509 249.806 635.949 250.645C635.431 251.423 635.589 252.129 635.773 252.947C635.838 253.24 635.907 253.547 635.949 253.876C635.983 254.143 636.009 254.394 636.033 254.634C636.144 255.727 636.232 256.586 636.996 257.549C637.361 258.008 637.774 258.228 638.195 258.454C638.544 258.641 638.9 258.831 639.24 259.164C639.635 259.552 639.779 259.94 639.916 260.306C640.038 260.633 640.154 260.943 640.437 261.221C640.96 261.735 641.514 261.812 642.219 261.91C642.319 261.924 642.423 261.939 642.531 261.955C643.223 262.06 644.325 261.955 644.325 261.955C644.325 261.955 644.321 264.203 645.073 265.334C645.558 266.061 646.059 266.382 646.716 266.803C646.859 266.894 647.009 266.99 647.167 267.096C648.273 267.834 649.817 268.303 650.864 268.621C651.398 268.784 651.802 268.906 651.954 269.006C652.054 269.071 652.326 269.202 652.723 269.372Z" fill="#E2AD84"/>
<path d="M675.573 257.142L673.607 259.108C673.571 259.144 673.551 259.194 673.551 259.245V270.999C673.551 271.172 673.759 271.258 673.881 271.136L674.56 270.458C674.571 270.447 674.579 270.437 674.587 270.424C674.767 270.128 677.155 266.157 677.651 263.265C678.149 260.366 677.051 256.734 676.62 255.468C676.563 255.302 676.337 255.298 676.272 255.461L675.616 257.078C675.606 257.102 675.592 257.124 675.573 257.142Z" fill="#443A32"/>
<path d="M628.991 224.662C627.65 228.331 628.108 234.33 628.18 235.159C628.185 235.222 628.217 235.274 628.269 235.309C629.003 235.794 634.568 239.418 638.829 240.552C644.309 242.01 647.82 241.633 653.485 240.905C662.125 239.794 673.725 233.099 674.788 232.477C674.843 232.445 674.872 232.396 674.88 232.333C674.973 231.638 675.499 227.385 674.867 224.662C673.972 220.811 672.754 218.568 669.747 215.659C665.25 211.307 660.761 209.936 654.087 209.568C647.66 209.213 643.477 210.26 638.227 213.54C633.241 216.655 630.864 219.542 628.991 224.662Z" fill="#174E80"/>
<path d="M647.762 238.486C650.123 236.665 653.332 234.356 656.016 233.019C660.072 231 662.501 230.024 666.908 229.22C669.044 228.831 672.026 228.713 673.752 228.677C674.646 228.659 675.508 228.982 676.188 229.565L685.477 237.532C685.245 239.198 683.809 240.431 682.128 240.494C680.58 240.552 678.709 240.68 677.253 240.958C672.437 241.876 669.868 243.283 665.526 245.703C663.026 247.096 659.87 249.449 657.962 250.93C657.014 251.665 655.646 251.526 654.885 250.599L647.613 244.056C645.92 242.533 645.959 239.877 647.762 238.486Z" fill="#2E679B"/>
<path d="M660.188 261.893L644.579 255.975C644.579 255.975 643.234 260.783 643.603 263.866C643.792 265.442 643.736 266.471 644.579 267.811C645.951 269.991 647.384 269.614 650.432 270.77L658.237 273.728C661.285 274.884 669.718 277.33 664.839 274.371C659.961 271.412 660.188 267.811 660.188 267.811V261.893Z" fill="#443A32"/>
<path d="M659.998 260.865C661.41 258.936 665.807 258.929 665.807 258.929C665.807 258.929 668.152 257.649 669.68 257.961C671.016 258.233 671.748 258.821 672.585 259.897C673.768 261.419 673.347 262.821 673.553 264.738C673.794 266.994 674.372 268.432 673.553 270.547C673.061 271.819 672.693 272.615 671.616 273.452C670.095 274.636 668.694 274.232 666.775 274.42C664.894 274.605 664.153 274.383 662.903 273.452C661.809 272.638 661.61 271.749 660.966 270.547C659.838 268.439 658.975 267.129 659.03 264.738C659.066 263.18 659.077 262.123 659.998 260.865Z" stroke="#443A32" stroke-width="2.4205"/>
<path d="M666.773 268.562C663.743 268.897 659.027 267.594 659.027 267.594L660.964 274.371H667.741L672.582 272.435L674.519 265.658C674.519 265.658 669.984 268.207 666.773 268.562Z" fill="#443A32"/>
</g>
<rect x="577.699" y="103" width="139.421" height="193.64" rx="15.4912" stroke="#F4F4F4" stroke-width="1.9364"/>
</g>
</g>
<defs>
<filter id="filter0_d_498_5897" x="73.2661" y="96.2227" width="156.851" height="211.067" filterUnits="userSpaceOnUse" color-interpolation-filters="sRGB">
<feFlood flood-opacity="0" result="BackgroundImageFix"/>
<feColorMatrix in="SourceAlpha" type="matrix" values="0 0 0 0 0 0 0 0 0 0 0 0 0 0 0 0 0 0 127 0" result="hardAlpha"/>
<feOffset dy="1.9364"/>
<feGaussianBlur stdDeviation="3.8728"/>
<feComposite in2="hardAlpha" operator="out"/>
<feColorMatrix type="matrix" values="0 0 0 0 0.838184 0 0 0 0 0.838184 0 0 0 0 0.838184 0 0 0 0.25 0"/>
<feBlend mode="normal" in2="BackgroundImageFix" result="effect1_dropShadow_498_5897"/>
<feBlend mode="normal" in="SourceGraphic" in2="effect1_dropShadow_498_5897" result="shape"/>
</filter>
<filter id="filter1_d_498_5897" x="238.508" y="96.2227" width="156.851" height="211.067" filterUnits="userSpaceOnUse" color-interpolation-filters="sRGB">
<feFlood flood-opacity="0" result="BackgroundImageFix"/>
<feColorMatrix in="SourceAlpha" type="matrix" values="0 0 0 0 0 0 0 0 0 0 0 0 0 0 0 0 0 0 127 0" result="hardAlpha"/>
<feOffset dy="1.9364"/>
<feGaussianBlur stdDeviation="3.8728"/>
<feComposite in2="hardAlpha" operator="out"/>
<feColorMatrix type="matrix" values="0 0 0 0 0.838184 0 0 0 0 0.838184 0 0 0 0 0.838184 0 0 0 0.25 0"/>
<feBlend mode="normal" in2="BackgroundImageFix" result="effect1_dropShadow_498_5897"/>
<feBlend mode="normal" in="SourceGraphic" in2="effect1_dropShadow_498_5897" result="shape"/>
</filter>
<filter id="filter2_d_498_5897" x="403.747" y="96.2227" width="156.851" height="211.067" filterUnits="userSpaceOnUse" color-interpolation-filters="sRGB">
<feFlood flood-opacity="0" result="BackgroundImageFix"/>
<feColorMatrix in="SourceAlpha" type="matrix" values="0 0 0 0 0 0 0 0 0 0 0 0 0 0 0 0 0 0 127 0" result="hardAlpha"/>
<feOffset dy="1.9364"/>
<feGaussianBlur stdDeviation="3.8728"/>
<feComposite in2="hardAlpha" operator="out"/>
<feColorMatrix type="matrix" values="0 0 0 0 0.838184 0 0 0 0 0.838184 0 0 0 0 0.838184 0 0 0 0.25 0"/>
<feBlend mode="normal" in2="BackgroundImageFix" result="effect1_dropShadow_498_5897"/>
<feBlend mode="normal" in="SourceGraphic" in2="effect1_dropShadow_498_5897" result="shape"/>
</filter>
<filter id="filter3_d_498_5897" x="568.985" y="96.2227" width="156.851" height="211.067" filterUnits="userSpaceOnUse" color-interpolation-filters="sRGB">
<feFlood flood-opacity="0" result="BackgroundImageFix"/>
<feColorMatrix in="SourceAlpha" type="matrix" values="0 0 0 0 0 0 0 0 0 0 0 0 0 0 0 0 0 0 127 0" result="hardAlpha"/>
<feOffset dy="1.9364"/>
<feGaussianBlur stdDeviation="3.8728"/>
<feComposite in2="hardAlpha" operator="out"/>
<feColorMatrix type="matrix" values="0 0 0 0 0.838184 0 0 0 0 0.838184 0 0 0 0 0.838184 0 0 0 0.25 0"/>
<feBlend mode="normal" in2="BackgroundImageFix" result="effect1_dropShadow_498_5897"/>
<feBlend mode="normal" in="SourceGraphic" in2="effect1_dropShadow_498_5897" result="shape"/>
</filter>
<clipPath id="clip0_498_5897">
<rect width="697.104" height="193.64" fill="white" transform="translate(51 103)"/>
</clipPath>
<clipPath id="clip1_498_5897">
<rect x="81.9805" y="103" width="139.421" height="193.64" rx="15.4912" fill="white"/>
</clipPath>
<clipPath id="clip2_498_5897">
<rect x="247.223" y="103" width="139.421" height="193.64" rx="15.4912" fill="white"/>
</clipPath>
<clipPath id="clip3_498_5897">
<rect x="412.461" y="103" width="139.421" height="193.64" rx="15.4912" fill="white"/>
</clipPath>
<clipPath id="clip4_498_5897">
<rect x="577.699" y="103" width="139.421" height="193.64" rx="15.4912" fill="white"/>
</clipPath>
</defs>
</svg>
