<svg width="360" height="252" viewBox="0 0 360 252" fill="none" xmlns="http://www.w3.org/2000/svg">
<g clip-path="url(#clip0_798_62866)">
<rect width="360" height="252" fill="white"/>
<path d="M16.306 21.966V19.842H26.314V21.966H22.462V33H20.158V21.966H16.306ZM29.9675 33.234C27.3215 33.234 25.4675 31.308 25.4675 28.554C25.4675 25.764 27.2855 23.838 29.8955 23.838C32.5595 23.838 34.2515 25.62 34.2515 28.392V29.058L27.5555 29.076C27.7175 30.642 28.5455 31.434 30.0035 31.434C31.2095 31.434 32.0015 30.966 32.2535 30.12H34.2875C33.9095 32.064 32.2895 33.234 29.9675 33.234ZM29.9135 25.638C28.6175 25.638 27.8255 26.34 27.6095 27.672H32.0735C32.0735 26.448 31.2275 25.638 29.9135 25.638ZM37.955 33H35.759V24.108H37.793L37.973 25.26C38.531 24.36 39.611 23.838 40.817 23.838C43.049 23.838 44.201 25.224 44.201 27.528V33H42.005V28.05C42.005 26.556 41.267 25.836 40.133 25.836C38.783 25.836 37.955 26.772 37.955 28.212V33ZM48.7546 33.234C46.8646 33.234 45.7126 32.136 45.7126 30.462C45.7126 28.824 46.9006 27.798 49.0066 27.636L51.6706 27.438V27.24C51.6706 26.034 50.9506 25.548 49.8346 25.548C48.5386 25.548 47.8186 26.088 47.8186 27.024H45.9466C45.9466 25.098 47.5306 23.838 49.9426 23.838C52.3366 23.838 53.8126 25.134 53.8126 27.6V33H51.8866L51.7246 31.686C51.3466 32.604 50.1406 33.234 48.7546 33.234ZM49.4746 31.578C50.8246 31.578 51.6886 30.768 51.6886 29.4V28.932L49.8346 29.076C48.4666 29.202 47.9446 29.652 47.9446 30.372C47.9446 31.182 48.4846 31.578 49.4746 31.578ZM57.9159 33H55.7199V24.108H57.7539L57.9339 25.26C58.4919 24.36 59.5719 23.838 60.7779 23.838C63.0099 23.838 64.1619 25.224 64.1619 27.528V33H61.9659V28.05C61.9659 26.556 61.2279 25.836 60.0939 25.836C58.7439 25.836 57.9159 26.772 57.9159 28.212V33ZM69.0935 33H66.8975V25.944H65.1875V24.108H66.8975V21.336H69.0935V24.108H70.8215V25.944H69.0935V33ZM78.7343 33H76.5383V24.108H78.5543L78.7343 25.152C79.1843 24.414 80.0843 23.838 81.3623 23.838C82.7123 23.838 83.6483 24.504 84.1163 25.53C84.5663 24.504 85.6103 23.838 86.9603 23.838C89.1203 23.838 90.3083 25.134 90.3083 27.186V33H88.1303V27.762C88.1303 26.484 87.4463 25.818 86.4023 25.818C85.3403 25.818 84.5303 26.502 84.5303 27.96V33H82.3343V27.744C82.3343 26.502 81.6683 25.836 80.6243 25.836C79.5803 25.836 78.7343 26.52 78.7343 27.96V33ZM94.8601 33.234C92.9701 33.234 91.8181 32.136 91.8181 30.462C91.8181 28.824 93.0061 27.798 95.1121 27.636L97.7761 27.438V27.24C97.7761 26.034 97.0561 25.548 95.9401 25.548C94.6441 25.548 93.9241 26.088 93.9241 27.024H92.0521C92.0521 25.098 93.6361 23.838 96.0481 23.838C98.4421 23.838 99.9181 25.134 99.9181 27.6V33H97.9921L97.8301 31.686C97.4521 32.604 96.2461 33.234 94.8601 33.234ZM95.5801 31.578C96.9301 31.578 97.7941 30.768 97.7941 29.4V28.932L95.9401 29.076C94.5721 29.202 94.0501 29.652 94.0501 30.372C94.0501 31.182 94.5901 31.578 95.5801 31.578ZM104.021 33H101.825V24.108H103.859L104.039 25.26C104.597 24.36 105.677 23.838 106.883 23.838C109.115 23.838 110.267 25.224 110.267 27.528V33H108.071V28.05C108.071 26.556 107.333 25.836 106.199 25.836C104.849 25.836 104.021 26.772 104.021 28.212V33ZM114.821 33.234C112.931 33.234 111.779 32.136 111.779 30.462C111.779 28.824 112.967 27.798 115.073 27.636L117.737 27.438V27.24C117.737 26.034 117.017 25.548 115.901 25.548C114.605 25.548 113.885 26.088 113.885 27.024H112.013C112.013 25.098 113.597 23.838 116.009 23.838C118.403 23.838 119.879 25.134 119.879 27.6V33H117.953L117.791 31.686C117.413 32.604 116.207 33.234 114.821 33.234ZM115.541 31.578C116.891 31.578 117.755 30.768 117.755 29.4V28.932L115.901 29.076C114.533 29.202 114.011 29.652 114.011 30.372C114.011 31.182 114.551 31.578 115.541 31.578ZM121.282 28.356C121.282 25.764 122.974 23.82 125.512 23.82C126.844 23.82 127.888 24.378 128.41 25.332L128.536 24.108H130.57V32.55C130.57 35.52 128.788 37.374 125.908 37.374C123.352 37.374 121.606 35.916 121.336 33.54H123.532C123.676 34.692 124.558 35.376 125.908 35.376C127.42 35.376 128.392 34.422 128.392 32.946V31.47C127.834 32.298 126.736 32.82 125.458 32.82C122.938 32.82 121.282 30.93 121.282 28.356ZM123.496 28.302C123.496 29.796 124.45 30.912 125.89 30.912C127.402 30.912 128.338 29.85 128.338 28.302C128.338 26.79 127.42 25.746 125.89 25.746C124.432 25.746 123.496 26.844 123.496 28.302ZM136.571 33.234C133.925 33.234 132.071 31.308 132.071 28.554C132.071 25.764 133.889 23.838 136.499 23.838C139.163 23.838 140.855 25.62 140.855 28.392V29.058L134.159 29.076C134.321 30.642 135.149 31.434 136.607 31.434C137.813 31.434 138.605 30.966 138.857 30.12H140.891C140.513 32.064 138.893 33.234 136.571 33.234ZM136.517 25.638C135.221 25.638 134.429 26.34 134.213 27.672H138.677C138.677 26.448 137.831 25.638 136.517 25.638ZM144.559 33H142.363V24.108H144.379L144.559 25.152C145.009 24.414 145.909 23.838 147.187 23.838C148.537 23.838 149.473 24.504 149.941 25.53C150.391 24.504 151.435 23.838 152.785 23.838C154.945 23.838 156.133 25.134 156.133 27.186V33H153.955V27.762C153.955 26.484 153.271 25.818 152.227 25.818C151.165 25.818 150.355 26.502 150.355 27.96V33H148.159V27.744C148.159 26.502 147.493 25.836 146.449 25.836C145.405 25.836 144.559 26.52 144.559 27.96V33ZM162.016 33.234C159.37 33.234 157.516 31.308 157.516 28.554C157.516 25.764 159.334 23.838 161.944 23.838C164.608 23.838 166.3 25.62 166.3 28.392V29.058L159.604 29.076C159.766 30.642 160.594 31.434 162.052 31.434C163.258 31.434 164.05 30.966 164.302 30.12H166.336C165.958 32.064 164.338 33.234 162.016 33.234ZM161.962 25.638C160.666 25.638 159.874 26.34 159.658 27.672H164.122C164.122 26.448 163.276 25.638 161.962 25.638ZM170.004 33H167.808V24.108H169.842L170.022 25.26C170.58 24.36 171.66 23.838 172.866 23.838C175.098 23.838 176.25 25.224 176.25 27.528V33H174.054V28.05C174.054 26.556 173.316 25.836 172.182 25.836C170.832 25.836 170.004 26.772 170.004 28.212V33ZM181.181 33H178.985V25.944H177.275V24.108H178.985V21.336H181.181V24.108H182.909V25.944H181.181V33Z" fill="#222222"/>
<rect x="16.5" y="52.5" width="139" height="119" rx="7.5" fill="white"/>
<rect x="16.5" y="52.5" width="139" height="119" rx="7.5" stroke="#F4F4F4"/>
<rect x="28" y="64" width="32" height="32" rx="4" fill="#E5F5EE"/>
<path d="M46.501 84.9999C46.501 84.5333 46.126 84.1666 45.6677 84.1666L41.0094 84.1666L50.0844 75.0916C50.4094 74.7666 50.4094 74.2416 50.0844 73.9166C49.7594 73.5916 49.2344 73.5916 48.9094 73.9166L39.8344 82.9916L39.8344 78.3333C39.8344 77.8749 39.4594 77.4999 39.001 77.4999C38.5427 77.4999 38.1677 77.8749 38.1677 78.3333L38.1677 84.9999C38.1677 85.4583 38.5427 85.8333 39.001 85.8333L45.6677 85.8333C46.126 85.8333 46.501 85.4583 46.501 84.9999Z" fill="#0DAA84"/>
<g clip-path="url(#clip1_798_62866)">
<path d="M129.289 74.71C128.899 75.1 128.899 75.73 129.289 76.12L133.169 80L129.289 83.88C128.899 84.27 128.899 84.9 129.289 85.29C129.679 85.68 130.309 85.68 130.699 85.29L135.289 80.7C135.679 80.31 135.679 79.68 135.289 79.29L130.699 74.7C130.319 74.32 129.679 74.32 129.289 74.71Z" fill="#B0B0B0"/>
</g>
<path d="M30.212 127H29.218V116.976H30.212L33.866 125.81L37.52 116.976H38.528V127H37.534V122.24C37.534 120.49 37.562 119.72 37.618 119.034L34.356 127H33.39L30.128 119.076C30.184 119.454 30.212 120.56 30.212 122.086V127ZM40.2761 123.612C40.2761 121.54 41.7321 120.042 43.7201 120.042C45.7081 120.042 47.1641 121.54 47.1641 123.612C47.1641 125.67 45.7081 127.168 43.7201 127.168C41.7321 127.168 40.2761 125.67 40.2761 123.612ZM41.2561 123.598C41.2561 125.194 42.2641 126.3 43.7201 126.3C45.1621 126.3 46.1841 125.194 46.1841 123.598C46.1841 122.03 45.1621 120.91 43.7201 120.91C42.2641 120.91 41.2561 122.03 41.2561 123.598ZM50.2984 127L47.5264 120.224H48.5624L50.3124 124.592C50.4944 125.082 50.6764 125.544 50.8024 125.992C50.9284 125.53 51.1104 125.082 51.3064 124.592L53.0844 120.224H54.0784L51.2644 127H50.2984ZM57.7582 127.168C55.7702 127.168 54.4402 125.74 54.4402 123.612C54.4402 121.498 55.7562 120.042 57.6882 120.042C59.5222 120.042 60.7682 121.344 60.7682 123.262V123.738H55.3782C55.4482 125.39 56.3162 126.342 57.7722 126.342C58.8782 126.342 59.5922 125.866 59.8442 124.97H60.7682C60.4042 126.398 59.3542 127.168 57.7582 127.168ZM57.6882 120.868C56.4142 120.868 55.5742 121.708 55.4062 123.038H59.8022C59.8022 121.736 58.9622 120.868 57.6882 120.868ZM62.2007 123.752V122.884H66.2607V123.752H62.2007ZM68.6403 118.362C68.2483 118.362 67.9263 118.04 67.9263 117.648C67.9263 117.256 68.2483 116.92 68.6403 116.92C69.0323 116.92 69.3683 117.256 69.3683 117.648C69.3683 118.04 69.0323 118.362 68.6403 118.362ZM68.1643 127V120.224H69.1303V127H68.1643ZM72.1107 127H71.1447V120.224H71.9847L72.1247 121.4C72.5727 120.532 73.4687 120.042 74.4487 120.042C76.3107 120.042 77.0807 121.148 77.0807 122.856V127H76.1147V123.066C76.1147 121.484 75.4007 120.924 74.2807 120.924C72.8947 120.924 72.1107 121.932 72.1107 123.458V127ZM78.35 125.096H79.274C79.274 125.88 79.862 126.37 80.814 126.37C81.864 126.37 82.48 125.922 82.48 125.194C82.48 124.634 82.2 124.312 81.402 124.116L80.24 123.822C79.064 123.528 78.49 122.912 78.49 121.988C78.49 120.798 79.484 120.042 80.94 120.042C82.368 120.042 83.292 120.826 83.334 122.086H82.396C82.368 121.302 81.822 120.84 80.912 120.84C79.96 120.84 79.428 121.246 79.428 121.974C79.428 122.492 79.792 122.856 80.534 123.038L81.696 123.332C82.872 123.626 83.404 124.172 83.404 125.152C83.404 126.37 82.368 127.168 80.828 127.168C79.302 127.168 78.35 126.356 78.35 125.096Z" fill="#6F6F6F"/>
<path d="M39.06 153.98L28.92 154V152.08L33.7 148.04C35.68 146.36 36.34 145.4 36.34 144C36.34 142.34 35.44 141.4 33.9 141.4C32.3 141.4 31.3 142.52 31.28 144.4H28.74C28.76 141.2 30.8 139.12 33.9 139.12C37.02 139.12 38.96 140.9 38.96 143.86C38.96 145.9 37.84 147.44 35.62 149.34L32.98 151.6H39.06V153.98ZM40.3673 149.86C40.3673 148.12 41.3473 146.72 42.8673 146.14C41.5873 145.56 40.8873 144.46 40.8873 143.04C40.8873 140.72 42.9473 139.12 45.9673 139.12C48.9673 139.12 50.9873 140.7 50.9873 143.08C50.9873 144.5 50.2673 145.6 48.9673 146.14C50.5073 146.68 51.5073 148.1 51.5073 149.86C51.5073 152.5 49.3273 154.24 45.9273 154.24C42.5473 154.24 40.3673 152.52 40.3673 149.86ZM43.2073 143.26C43.2073 144.48 44.2673 145.26 45.9273 145.26C47.5673 145.26 48.6073 144.5 48.6073 143.28C48.6073 142.06 47.5673 141.3 45.9273 141.3C44.2673 141.3 43.2073 142.06 43.2073 143.26ZM42.8673 149.68C42.8673 151.1 44.0473 151.98 45.9473 151.98C47.8073 151.98 48.9873 151.1 48.9873 149.68C48.9873 148.26 47.8073 147.38 45.9273 147.38C44.0473 147.38 42.8673 148.26 42.8673 149.68Z" fill="#222222"/>
<rect x="172.5" y="52.5" width="139" height="119" rx="7.5" fill="white"/>
<rect x="172.5" y="52.5" width="139" height="119" rx="7.5" stroke="#F4F4F4"/>
<rect x="184" y="64" width="32" height="32" rx="4" fill="#FFEBEF"/>
<path d="M197.499 75.0001C197.499 75.4667 197.874 75.8334 198.332 75.8334L202.991 75.8334L193.916 84.9084C193.591 85.2334 193.591 85.7584 193.916 86.0834C194.241 86.4084 194.766 86.4084 195.091 86.0834L204.166 77.0084L204.166 81.6667C204.166 82.1251 204.541 82.5001 204.999 82.5001C205.457 82.5001 205.832 82.1251 205.832 81.6667L205.832 75.0001C205.832 74.5418 205.457 74.1668 204.999 74.1668L198.332 74.1667C197.874 74.1667 197.499 74.5417 197.499 75.0001Z" fill="#E53030"/>
<g clip-path="url(#clip2_798_62866)">
<path d="M285.289 74.71C284.899 75.1 284.899 75.73 285.289 76.12L289.169 80L285.289 83.88C284.899 84.27 284.899 84.9 285.289 85.29C285.679 85.68 286.309 85.68 286.699 85.29L291.289 80.7C291.679 80.31 291.679 79.68 291.289 79.29L286.699 74.7C286.319 74.32 285.679 74.32 285.289 74.71Z" fill="#B0B0B0"/>
</g>
<path d="M186.212 127H185.218V116.976H186.212L189.866 125.81L193.52 116.976H194.528V127H193.534V122.24C193.534 120.49 193.562 119.72 193.618 119.034L190.356 127H189.39L186.128 119.076C186.184 119.454 186.212 120.56 186.212 122.086V127ZM196.276 123.612C196.276 121.54 197.732 120.042 199.72 120.042C201.708 120.042 203.164 121.54 203.164 123.612C203.164 125.67 201.708 127.168 199.72 127.168C197.732 127.168 196.276 125.67 196.276 123.612ZM197.256 123.598C197.256 125.194 198.264 126.3 199.72 126.3C201.162 126.3 202.184 125.194 202.184 123.598C202.184 122.03 201.162 120.91 199.72 120.91C198.264 120.91 197.256 122.03 197.256 123.598ZM206.298 127L203.526 120.224H204.562L206.312 124.592C206.494 125.082 206.676 125.544 206.802 125.992C206.928 125.53 207.11 125.082 207.306 124.592L209.084 120.224H210.078L207.264 127H206.298ZM213.758 127.168C211.77 127.168 210.44 125.74 210.44 123.612C210.44 121.498 211.756 120.042 213.688 120.042C215.522 120.042 216.768 121.344 216.768 123.262V123.738H211.378C211.448 125.39 212.316 126.342 213.772 126.342C214.878 126.342 215.592 125.866 215.844 124.97H216.768C216.404 126.398 215.354 127.168 213.758 127.168ZM213.688 120.868C212.414 120.868 211.574 121.708 211.406 123.038H215.802C215.802 121.736 214.962 120.868 213.688 120.868ZM218.201 123.752V122.884H222.261V123.752H218.201ZM223.688 123.612C223.688 121.54 225.144 120.042 227.132 120.042C229.12 120.042 230.576 121.54 230.576 123.612C230.576 125.67 229.12 127.168 227.132 127.168C225.144 127.168 223.688 125.67 223.688 123.612ZM224.668 123.598C224.668 125.194 225.676 126.3 227.132 126.3C228.574 126.3 229.596 125.194 229.596 123.598C229.596 122.03 228.574 120.91 227.132 120.91C225.676 120.91 224.668 122.03 224.668 123.598ZM236.717 120.224H237.683V127H236.843L236.717 125.852C236.339 126.636 235.401 127.168 234.337 127.168C232.741 127.168 231.873 126.076 231.873 124.424V120.21H232.853V124.116C232.853 125.726 233.567 126.3 234.645 126.3C235.947 126.3 236.717 125.432 236.717 123.822V120.224ZM241.25 127H240.298V121.036H238.94V120.224H240.298V118.082H241.25V120.224H242.608V121.036H241.25V127ZM243.291 125.096H244.215C244.215 125.88 244.803 126.37 245.755 126.37C246.805 126.37 247.421 125.922 247.421 125.194C247.421 124.634 247.141 124.312 246.343 124.116L245.181 123.822C244.005 123.528 243.431 122.912 243.431 121.988C243.431 120.798 244.425 120.042 245.881 120.042C247.309 120.042 248.233 120.826 248.275 122.086H247.337C247.309 121.302 246.763 120.84 245.853 120.84C244.901 120.84 244.369 121.246 244.369 121.974C244.369 122.492 244.733 122.856 245.475 123.038L246.637 123.332C247.813 123.626 248.345 124.172 248.345 125.152C248.345 126.37 247.309 127.168 245.769 127.168C244.243 127.168 243.291 126.356 243.291 125.096Z" fill="#6F6F6F"/>
<path d="M193.46 149.7L190.3 154H187.38L190.88 149.34C190.52 149.44 190.14 149.5 189.78 149.5C186.76 149.5 184.72 147.38 184.72 144.42C184.72 141.3 187.04 139.12 190.16 139.12C193.32 139.12 195.68 141.44 195.68 144.44C195.68 146.2 195.1 147.48 193.46 149.7ZM193.06 144.42C193.06 142.64 191.88 141.4 190.16 141.4C188.48 141.4 187.3 142.64 187.3 144.42C187.3 146.18 188.48 147.4 190.16 147.4C191.9 147.4 193.06 146.18 193.06 144.42Z" fill="#222222"/>
<rect x="328.5" y="52.5" width="143" height="119" rx="7.5" fill="white"/>
<rect x="328.5" y="52.5" width="143" height="119" rx="7.5" stroke="#F4F4F4"/>
<rect x="340" y="64" width="32" height="32" rx="4" fill="#FFEBEF"/>
<path d="M359.333 80.8334L356.833 80.8334C356.375 80.8334 356 81.2084 356 81.6667L356 84.1667C356 84.6251 356.375 85.0001 356.833 85.0001L359.333 85.0001C359.792 85.0001 360.167 84.6251 360.167 84.1668L360.167 81.6668C360.167 81.2084 359.792 80.8334 359.333 80.8334ZM359.333 72.5001L359.333 73.3334L352.667 73.3334L352.667 72.5001C352.667 72.0417 352.292 71.6667 351.833 71.6667C351.375 71.6667 351 72.0417 351 72.5001L351 73.3334L350.167 73.3334C349.242 73.3334 348.508 74.0834 348.508 75.0001L348.5 86.6667C348.5 87.5834 349.242 88.3334 350.167 88.3334L361.833 88.3334C362.75 88.3334 363.5 87.5834 363.5 86.6668L363.5 75.0001C363.5 74.0834 362.75 73.3334 361.833 73.3334L361 73.3334L361 72.5001C361 72.0418 360.625 71.6668 360.167 71.6668C359.708 71.6668 359.333 72.0417 359.333 72.5001ZM361 86.6668L351 86.6667C350.542 86.6667 350.167 86.2917 350.167 85.8334L350.167 77.5001L361.833 77.5001L361.833 85.8334C361.833 86.2918 361.458 86.6668 361 86.6668Z" fill="#E53030"/>
<path d="M341.218 127H340.196L343.878 116.976H345.124L348.848 127H347.798L346.818 124.34H342.198L341.218 127ZM344.368 118.39L342.506 123.458H346.496L344.62 118.39C344.578 118.25 344.508 118.082 344.494 117.984C344.48 118.068 344.424 118.25 344.368 118.39ZM349.515 123.416C349.515 121.568 350.705 120.042 352.693 120.042C353.869 120.042 354.765 120.588 355.199 121.582L355.297 120.224H356.137V126.79C356.137 128.806 354.849 130.122 352.861 130.122C351.125 130.122 349.907 129.142 349.641 127.504H350.607C350.817 128.596 351.657 129.24 352.875 129.24C354.261 129.24 355.185 128.302 355.185 126.888V125.278C354.723 126.23 353.785 126.79 352.623 126.79C350.691 126.79 349.515 125.264 349.515 123.416ZM350.481 123.402C350.481 124.788 351.335 125.922 352.763 125.922C354.233 125.922 355.101 124.858 355.101 123.402C355.101 121.96 354.261 120.896 352.777 120.896C351.321 120.896 350.481 122.03 350.481 123.402ZM361.695 120.14V121.008H361.163C359.917 121.008 359.119 121.848 359.119 123.136V127H358.153V120.224H359.063L359.133 121.274C359.399 120.546 360.113 120.07 361.065 120.07C361.275 120.07 361.457 120.084 361.695 120.14ZM365.561 127.168C363.573 127.168 362.243 125.74 362.243 123.612C362.243 121.498 363.559 120.042 365.491 120.042C367.325 120.042 368.571 121.344 368.571 123.262V123.738H363.181C363.251 125.39 364.119 126.342 365.575 126.342C366.681 126.342 367.395 125.866 367.647 124.97H368.571C368.207 126.398 367.157 127.168 365.561 127.168ZM365.491 120.868C364.217 120.868 363.377 121.708 363.209 123.038H367.605C367.605 121.736 366.765 120.868 365.491 120.868ZM372.957 127.168C370.969 127.168 369.639 125.74 369.639 123.612C369.639 121.498 370.955 120.042 372.887 120.042C374.721 120.042 375.967 121.344 375.967 123.262V123.738H370.577C370.647 125.39 371.515 126.342 372.971 126.342C374.077 126.342 374.791 125.866 375.043 124.97H375.967C375.603 126.398 374.553 127.168 372.957 127.168ZM372.887 120.868C371.613 120.868 370.773 121.708 370.605 123.038H375.001C375.001 121.736 374.161 120.868 372.887 120.868ZM378.478 127H377.512V120.224H378.352L378.464 121.19C378.8 120.476 379.556 120.042 380.508 120.042C381.572 120.042 382.37 120.602 382.692 121.484C383 120.602 383.826 120.042 384.918 120.042C386.388 120.042 387.354 120.994 387.354 122.562V127H386.416V122.758C386.416 121.596 385.772 120.91 384.736 120.91C383.602 120.91 382.93 121.764 382.93 122.814V127H381.978V122.744C381.978 121.596 381.32 120.924 380.298 120.924C379.164 120.924 378.478 121.764 378.478 122.8V127ZM392.139 127.168C390.151 127.168 388.821 125.74 388.821 123.612C388.821 121.498 390.137 120.042 392.069 120.042C393.903 120.042 395.149 121.344 395.149 123.262V123.738H389.759C389.829 125.39 390.697 126.342 392.153 126.342C393.259 126.342 393.973 125.866 394.225 124.97H395.149C394.785 126.398 393.735 127.168 392.139 127.168ZM392.069 120.868C390.795 120.868 389.955 121.708 389.787 123.038H394.183C394.183 121.736 393.343 120.868 392.069 120.868ZM397.66 127H396.694V120.224H397.534L397.674 121.4C398.122 120.532 399.018 120.042 399.998 120.042C401.86 120.042 402.63 121.148 402.63 122.856V127H401.664V123.066C401.664 121.484 400.95 120.924 399.83 120.924C398.444 120.924 397.66 121.932 397.66 123.458V127ZM406.109 127H405.157V121.036H403.799V120.224H405.157V118.082H406.109V120.224H407.467V121.036H406.109V127ZM416.15 120.14V121.008H415.618C414.372 121.008 413.574 121.848 413.574 123.136V127H412.608V120.224H413.518L413.588 121.274C413.854 120.546 414.568 120.07 415.52 120.07C415.73 120.07 415.912 120.084 416.15 120.14ZM420.016 127.168C418.028 127.168 416.698 125.74 416.698 123.612C416.698 121.498 418.014 120.042 419.946 120.042C421.78 120.042 423.026 121.344 423.026 123.262V123.738H417.636C417.706 125.39 418.574 126.342 420.03 126.342C421.136 126.342 421.85 125.866 422.102 124.97H423.026C422.662 126.398 421.612 127.168 420.016 127.168ZM419.946 120.868C418.672 120.868 417.832 121.708 417.664 123.038H422.06C422.06 121.736 421.22 120.868 419.946 120.868ZM425.537 127H424.571V120.224H425.41L425.551 121.4C425.999 120.532 426.895 120.042 427.875 120.042C429.737 120.042 430.507 121.148 430.507 122.856V127H429.541V123.066C429.541 121.484 428.827 120.924 427.707 120.924C426.321 120.924 425.537 121.932 425.537 123.458V127ZM435.274 127.168C433.286 127.168 431.956 125.74 431.956 123.612C431.956 121.498 433.272 120.042 435.204 120.042C437.038 120.042 438.284 121.344 438.284 123.262V123.738H432.894C432.964 125.39 433.832 126.342 435.288 126.342C436.394 126.342 437.108 125.866 437.36 124.97H438.284C437.92 126.398 436.87 127.168 435.274 127.168ZM435.204 120.868C433.93 120.868 433.09 121.708 432.922 123.038H437.318C437.318 121.736 436.478 120.868 435.204 120.868ZM441.079 127L438.839 120.224H439.833L441.163 124.312C441.317 124.76 441.443 125.222 441.583 125.768C441.695 125.222 441.919 124.536 441.989 124.312L443.333 120.224H444.327L445.657 124.312C445.783 124.676 445.951 125.264 446.077 125.768C446.217 125.208 446.245 125.04 446.483 124.312L447.827 120.224H448.835L446.539 127H445.601L444.201 122.744C444.033 122.24 443.921 121.82 443.837 121.414C443.739 121.778 443.627 122.184 443.445 122.744L442.045 127H441.079ZM451.686 127.168C450.244 127.168 449.39 126.356 449.39 125.166C449.39 123.92 450.342 123.136 451.924 123.01L454.164 122.828V122.604C454.164 121.274 453.366 120.854 452.372 120.854C451.196 120.854 450.496 121.386 450.496 122.296H449.614C449.614 120.924 450.734 120.042 452.4 120.042C453.968 120.042 455.116 120.826 455.116 122.618V127H454.304L454.178 125.81C453.758 126.664 452.834 127.168 451.686 127.168ZM451.91 126.384C453.338 126.384 454.164 125.39 454.164 123.92V123.556L452.162 123.71C450.888 123.822 450.37 124.382 450.37 125.138C450.37 125.964 450.986 126.384 451.91 126.384ZM458.063 127H457.097V116.794H458.063V127Z" fill="#6F6F6F"/>
<path d="M343.88 141.68H340.68V139.38H346.34V154H343.88V141.68ZM358.779 153.98L348.639 154V152.08L353.419 148.04C355.399 146.36 356.059 145.4 356.059 144C356.059 142.34 355.159 141.4 353.619 141.4C352.019 141.4 351.019 142.52 350.999 144.4H348.459C348.479 141.2 350.519 139.12 353.619 139.12C356.739 139.12 358.679 140.9 358.679 143.86C358.679 145.9 357.559 147.44 355.339 149.34L352.699 151.6H358.779V153.98Z" fill="#222222"/>
<rect x="16.5" y="188.5" width="327" height="47" rx="3.5" fill="#F4F4F4"/>
<rect x="16.5" y="188.5" width="327" height="47" rx="3.5" stroke="#F4F4F4"/>
<path d="M28.098 206.766H35.448V208.418L31.738 217H29.876L33.656 208.418H28.098V206.766ZM41.472 217H40.506V210.224H41.346L41.458 211.19C41.794 210.476 42.55 210.042 43.502 210.042C44.566 210.042 45.364 210.602 45.686 211.484C45.994 210.602 46.82 210.042 47.912 210.042C49.382 210.042 50.348 210.994 50.348 212.562V217H49.41V212.758C49.41 211.596 48.766 210.91 47.73 210.91C46.596 210.91 45.924 211.764 45.924 212.814V217H44.972V212.744C44.972 211.596 44.314 210.924 43.292 210.924C42.158 210.924 41.472 211.764 41.472 212.8V217ZM51.8152 213.612C51.8152 211.54 53.2712 210.042 55.2592 210.042C57.2472 210.042 58.7032 211.54 58.7032 213.612C58.7032 215.67 57.2472 217.168 55.2592 217.168C53.2712 217.168 51.8152 215.67 51.8152 213.612ZM52.7952 213.598C52.7952 215.194 53.8032 216.3 55.2592 216.3C56.7012 216.3 57.7232 215.194 57.7232 213.598C57.7232 212.03 56.7012 210.91 55.2592 210.91C53.8032 210.91 52.7952 212.03 52.7952 213.598ZM61.8375 217L59.0655 210.224H60.1015L61.8515 214.592C62.0335 215.082 62.2155 215.544 62.3415 215.992C62.4675 215.53 62.6495 215.082 62.8455 214.592L64.6235 210.224H65.6175L62.8035 217H61.8375ZM69.2973 217.168C67.3093 217.168 65.9793 215.74 65.9793 213.612C65.9793 211.498 67.2953 210.042 69.2273 210.042C71.0613 210.042 72.3073 211.344 72.3073 213.262V213.738H66.9173C66.9873 215.39 67.8553 216.342 69.3113 216.342C70.4173 216.342 71.1313 215.866 71.3833 214.97H72.3073C71.9433 216.398 70.8933 217.168 69.2973 217.168ZM69.2273 210.868C67.9533 210.868 67.1133 211.708 66.9453 213.038H71.3413C71.3413 211.736 70.5013 210.868 69.2273 210.868ZM73.7398 213.752V212.884H77.7998V213.752H73.7398ZM79.2273 213.612C79.2273 211.54 80.6833 210.042 82.6713 210.042C84.6593 210.042 86.1153 211.54 86.1153 213.612C86.1153 215.67 84.6593 217.168 82.6713 217.168C80.6833 217.168 79.2273 215.67 79.2273 213.612ZM80.2073 213.598C80.2073 215.194 81.2153 216.3 82.6713 216.3C84.1133 216.3 85.1353 215.194 85.1353 213.598C85.1353 212.03 84.1133 210.91 82.6713 210.91C81.2153 210.91 80.2073 212.03 80.2073 213.598ZM92.2563 210.224H93.2223V217H92.3823L92.2563 215.852C91.8783 216.636 90.9403 217.168 89.8763 217.168C88.2803 217.168 87.4123 216.076 87.4123 214.424V210.21H88.3923V214.116C88.3923 215.726 89.1063 216.3 90.1843 216.3C91.4863 216.3 92.2563 215.432 92.2563 213.822V210.224ZM96.7886 217H95.8366V211.036H94.4786V210.224H95.8366V208.082H96.7886V210.224H98.1466V211.036H96.7886V217ZM106.829 210.14V211.008H106.297C105.051 211.008 104.253 211.848 104.253 213.136V217H103.287V210.224H104.197L104.267 211.274C104.533 210.546 105.247 210.07 106.199 210.07C106.409 210.07 106.591 210.084 106.829 210.14ZM110.696 217.168C108.708 217.168 107.378 215.74 107.378 213.612C107.378 211.498 108.694 210.042 110.626 210.042C112.46 210.042 113.706 211.344 113.706 213.262V213.738H108.316C108.386 215.39 109.254 216.342 110.71 216.342C111.816 216.342 112.53 215.866 112.782 214.97H113.706C113.342 216.398 112.292 217.168 110.696 217.168ZM110.626 210.868C109.352 210.868 108.512 211.708 108.344 213.038H112.74C112.74 211.736 111.9 210.868 110.626 210.868ZM114.774 213.584C114.774 211.54 115.95 210.042 117.91 210.042C119.044 210.042 119.982 210.546 120.472 211.596L120.57 210.224H121.41V219.954H120.444V215.698C119.968 216.678 119.058 217.168 117.91 217.168C115.908 217.168 114.774 215.628 114.774 213.584ZM115.754 213.612C115.754 215.166 116.608 216.3 118.078 216.3C119.562 216.3 120.43 215.166 120.43 213.612C120.43 212.044 119.562 210.924 118.078 210.924C116.608 210.924 115.754 212.044 115.754 213.612ZM128.186 210.224H129.152V217H128.312L128.186 215.852C127.808 216.636 126.87 217.168 125.806 217.168C124.21 217.168 123.342 216.076 123.342 214.424V210.21H124.322V214.116C124.322 215.726 125.036 216.3 126.114 216.3C127.416 216.3 128.186 215.432 128.186 213.822V210.224ZM133.87 217.168C131.882 217.168 130.552 215.74 130.552 213.612C130.552 211.498 131.868 210.042 133.8 210.042C135.634 210.042 136.88 211.344 136.88 213.262V213.738H131.49C131.56 215.39 132.428 216.342 133.884 216.342C134.99 216.342 135.704 215.866 135.956 214.97H136.88C136.516 216.398 135.466 217.168 133.87 217.168ZM133.8 210.868C132.526 210.868 131.686 211.708 131.518 213.038H135.914C135.914 211.736 135.074 210.868 133.8 210.868ZM137.85 215.096H138.774C138.774 215.88 139.362 216.37 140.314 216.37C141.364 216.37 141.98 215.922 141.98 215.194C141.98 214.634 141.7 214.312 140.902 214.116L139.74 213.822C138.564 213.528 137.99 212.912 137.99 211.988C137.99 210.798 138.984 210.042 140.44 210.042C141.868 210.042 142.792 210.826 142.834 212.086H141.896C141.868 211.302 141.322 210.84 140.412 210.84C139.46 210.84 138.928 211.246 138.928 211.974C138.928 212.492 139.292 212.856 140.034 213.038L141.196 213.332C142.372 213.626 142.904 214.172 142.904 215.152C142.904 216.37 141.868 217.168 140.328 217.168C138.802 217.168 137.85 216.356 137.85 215.096ZM146.048 217H145.096V211.036H143.738V210.224H145.096V208.082H146.048V210.224H147.406V211.036H146.048V217ZM148.09 215.096H149.014C149.014 215.88 149.602 216.37 150.554 216.37C151.604 216.37 152.22 215.922 152.22 215.194C152.22 214.634 151.94 214.312 151.142 214.116L149.98 213.822C148.804 213.528 148.23 212.912 148.23 211.988C148.23 210.798 149.224 210.042 150.68 210.042C152.108 210.042 153.032 210.826 153.074 212.086H152.136C152.108 211.302 151.562 210.84 150.652 210.84C149.7 210.84 149.168 211.246 149.168 211.974C149.168 212.492 149.532 212.856 150.274 213.038L151.436 213.332C152.612 213.626 153.144 214.172 153.144 215.152C153.144 216.37 152.108 217.168 150.568 217.168C149.042 217.168 148.09 216.356 148.09 215.096ZM162.159 210.14V211.008H161.627C160.381 211.008 159.583 211.848 159.583 213.136V217H158.617V210.224H159.527L159.597 211.274C159.863 210.546 160.577 210.07 161.529 210.07C161.739 210.07 161.921 210.084 162.159 210.14ZM165.116 217.168C163.674 217.168 162.82 216.356 162.82 215.166C162.82 213.92 163.772 213.136 165.354 213.01L167.594 212.828V212.604C167.594 211.274 166.796 210.854 165.802 210.854C164.626 210.854 163.926 211.386 163.926 212.296H163.044C163.044 210.924 164.164 210.042 165.83 210.042C167.398 210.042 168.546 210.826 168.546 212.618V217H167.734L167.608 215.81C167.188 216.664 166.264 217.168 165.116 217.168ZM165.34 216.384C166.768 216.384 167.594 215.39 167.594 213.92V213.556L165.592 213.71C164.318 213.822 163.8 214.382 163.8 215.138C163.8 215.964 164.416 216.384 165.34 216.384ZM170.961 208.362C170.569 208.362 170.247 208.04 170.247 207.648C170.247 207.256 170.569 206.92 170.961 206.92C171.353 206.92 171.689 207.256 171.689 207.648C171.689 208.04 171.353 208.362 170.961 208.362ZM170.485 217V210.224H171.451V217H170.485ZM172.891 215.096H173.815C173.815 215.88 174.403 216.37 175.355 216.37C176.405 216.37 177.021 215.922 177.021 215.194C177.021 214.634 176.741 214.312 175.943 214.116L174.781 213.822C173.605 213.528 173.031 212.912 173.031 211.988C173.031 210.798 174.025 210.042 175.481 210.042C176.909 210.042 177.833 210.826 177.875 212.086H176.937C176.909 211.302 176.363 210.84 175.453 210.84C174.501 210.84 173.969 211.246 173.969 211.974C173.969 212.492 174.333 212.856 175.075 213.038L176.237 213.332C177.413 213.626 177.945 214.172 177.945 215.152C177.945 216.37 176.909 217.168 175.369 217.168C173.843 217.168 172.891 216.356 172.891 215.096ZM182.377 217.168C180.389 217.168 179.059 215.74 179.059 213.612C179.059 211.498 180.375 210.042 182.307 210.042C184.141 210.042 185.387 211.344 185.387 213.262V213.738H179.997C180.067 215.39 180.935 216.342 182.391 216.342C183.497 216.342 184.211 215.866 184.463 214.97H185.387C185.023 216.398 183.973 217.168 182.377 217.168ZM182.307 210.868C181.033 210.868 180.193 211.708 180.025 213.038H184.421C184.421 211.736 183.581 210.868 182.307 210.868ZM189.592 217.168C187.618 217.168 186.456 215.656 186.456 213.626C186.456 211.582 187.618 210.042 189.634 210.042C190.754 210.042 191.65 210.532 192.126 211.512V206.794H193.092V217H192.252L192.154 215.614C191.678 216.664 190.726 217.168 189.592 217.168ZM189.76 216.286C191.244 216.286 192.112 215.166 192.112 213.598C192.112 212.044 191.244 210.91 189.76 210.91C188.29 210.91 187.436 212.044 187.436 213.598C187.436 215.166 188.29 216.286 189.76 216.286Z" fill="#585858"/>
<rect x="272" y="196" width="60" height="32" rx="16" fill="#E4DEFF"/>
<path d="M291.92 217L288.62 208.324H289.88L291.992 213.868C292.184 214.36 292.352 214.852 292.532 215.5C292.736 214.816 292.94 214.24 293.084 213.856L295.184 208.324H296.408L293.144 217H291.92ZM297.895 209.74C297.487 209.74 297.151 209.404 297.151 208.996C297.151 208.576 297.487 208.252 297.895 208.252C298.303 208.252 298.639 208.576 298.639 208.996C298.639 209.404 298.303 209.74 297.895 209.74ZM297.343 217V211.132H298.471V217H297.343ZM302.641 217.144C300.913 217.144 299.725 215.896 299.725 214.072C299.725 212.236 300.889 210.964 302.593 210.964C304.261 210.964 305.353 212.116 305.353 213.856V214.276L300.817 214.288C300.901 215.524 301.549 216.208 302.665 216.208C303.541 216.208 304.117 215.848 304.309 215.176H305.365C305.077 216.436 304.093 217.144 302.641 217.144ZM302.593 211.912C301.609 211.912 300.985 212.5 300.841 213.532H304.225C304.225 212.56 303.589 211.912 302.593 211.912ZM307.674 217L305.754 211.132H306.918L307.89 214.18C308.022 214.612 308.142 215.056 308.25 215.572C308.346 215.056 308.502 214.564 308.634 214.18L309.618 211.132H310.77L311.742 214.18C311.838 214.468 312.03 215.152 312.126 215.572C312.222 215.104 312.33 214.696 312.498 214.18L313.482 211.132H314.658L312.654 217H311.586L310.566 213.856C310.374 213.268 310.254 212.812 310.194 212.488C310.134 212.776 310.026 213.16 309.81 213.868L308.79 217H307.674Z" fill="#372583"/>
</g>
<defs>
<clipPath id="clip0_798_62866">
<rect width="360" height="252" rx="8" fill="white"/>
</clipPath>
<clipPath id="clip1_798_62866">
<rect width="24" height="24" fill="white" transform="translate(120 68)"/>
</clipPath>
<clipPath id="clip2_798_62866">
<rect width="24" height="24" fill="white" transform="translate(276 68)"/>
</clipPath>
</defs>
</svg>
