<svg width="798" height="55" viewBox="0 0 798 55" fill="none" xmlns="http://www.w3.org/2000/svg">
<path d="M42.6335 27.8182C42.6335 30.5625 41.9602 33.0682 40.6136 35.3352C39.267 37.6023 37.4602 39.4091 35.1932 40.7557C32.9432 42.0852 30.446 42.75 27.7017 42.75C25.3153 42.75 23.142 42.2386 21.1818 41.2159C19.2216 40.1761 17.6108 38.7614 16.3494 36.9716C15.0881 35.1818 14.3125 33.1705 14.0227 30.9375H20.6705C20.9943 32.5227 21.7955 33.8267 23.0739 34.8494C24.3523 35.8551 25.8949 36.358 27.7017 36.358C29.2699 36.358 30.7017 35.9744 31.9972 35.2074C33.2926 34.4403 34.3239 33.4091 35.0909 32.1136C35.858 30.8182 36.2415 29.3864 36.2415 27.8182C36.2415 26.233 35.858 24.8011 35.0909 23.5227C34.3239 22.2273 33.2926 21.196 31.9972 20.429C30.7017 19.6619 29.2699 19.2784 27.7017 19.2784C25.8949 19.2784 24.2756 19.7812 22.8438 20.7869C21.429 21.7926 20.5682 23.0966 20.2614 24.6989H13.6136C13.9034 22.4659 14.7131 20.4545 16.0426 18.6648C17.3892 16.875 19.0682 15.4687 21.0795 14.446C23.108 13.4062 25.3153 12.8864 27.7017 12.8864C30.446 12.8864 32.9432 13.5597 35.1932 14.9062C37.4602 16.2358 39.267 18.0341 40.6136 20.3011C41.9602 22.5682 42.6335 25.0739 42.6335 27.8182ZM27.9318 54.8182C24.2159 54.8182 20.7216 54.1193 17.4489 52.7216C14.1932 51.3239 11.321 49.3892 8.83239 46.9176C6.3608 44.429 4.41761 41.5568 3.00284 38.3011C1.60511 35.0455 0.914773 31.5511 0.931818 27.8182C0.948864 24.0852 1.65625 20.5909 3.05398 17.3352C4.46875 14.0795 6.41193 11.2159 8.88352 8.74432C11.3551 6.25568 14.2188 4.3125 17.4744 2.91477C20.7301 1.51704 24.2159 0.818181 27.9318 0.818181C31.6648 0.818181 35.1591 1.51704 38.4148 2.91477C41.6875 4.3125 44.5511 6.25568 47.0057 8.74432C49.4773 11.2159 51.4119 14.0795 52.8097 17.3352C54.2074 20.5909 54.9148 24.0852 54.9318 27.8182C54.9489 31.5511 54.2585 35.0455 52.8608 38.3011C51.4631 41.5568 49.5284 44.429 47.0568 46.9176C44.5852 49.3892 41.7131 51.3239 38.4403 52.7216C35.1676 54.1193 31.6648 54.8182 27.9318 54.8182ZM27.9318 48.017C30.7273 48.017 33.3523 47.4972 35.8068 46.4574C38.2614 45.4176 40.4091 43.9773 42.25 42.1364C44.108 40.2784 45.5568 38.1307 46.5966 35.6932C47.6364 33.2386 48.1477 30.6222 48.1307 27.8438C48.1307 25.0483 47.6023 22.4233 46.5455 19.9688C45.5057 17.5142 44.0568 15.3665 42.1989 13.5256C40.358 11.6676 38.2188 10.2187 35.7812 9.17897C33.3438 8.1392 30.7273 7.61931 27.9318 7.61931C25.1534 7.61931 22.5455 8.1392 20.108 9.17897C17.6705 10.2187 15.5227 11.6676 13.6648 13.5256C11.8239 15.3835 10.375 17.5398 9.31818 19.9943C8.26136 22.4318 7.73295 25.0483 7.73295 27.8438C7.71591 30.6051 8.22727 33.2131 9.26705 35.6676C10.3239 38.1051 11.7727 40.2528 13.6136 42.1108C15.4716 43.9517 17.6193 45.4006 20.0568 46.4574C22.5114 47.4972 25.1364 48.017 27.9318 48.017ZM110.49 45.072V54H76.5057V48.312L91.2657 33.192C96.8817 27.432 99.2577 24.408 99.2577 20.16C99.2577 16.2 96.5937 13.536 92.3457 13.536C87.6657 13.536 84.7857 16.488 84.7857 21.24H75.0657C75.0657 11.52 82.4097 4.608 92.8497 4.608C102.57 4.608 109.698 10.728 109.698 18.936C109.698 24.84 107.538 28.584 99.0417 37.152L91.6977 45.072H110.49ZM115.07 29.736C115.07 13.608 121.838 4.608 133.862 4.608C145.886 4.608 152.726 13.608 152.726 29.736C152.726 45.792 146.03 54.72 133.862 54.72C121.694 54.72 115.07 45.792 115.07 29.736ZM125.366 29.736C125.366 40.176 128.246 45.792 133.862 45.792C139.406 45.792 142.43 40.176 142.43 29.736C142.43 19.224 139.406 13.536 133.862 13.536C128.39 13.536 125.366 19.224 125.366 29.736ZM191.985 45.072V54H158.001V48.312L172.761 33.192C178.377 27.432 180.753 24.408 180.753 20.16C180.753 16.2 178.089 13.536 173.841 13.536C169.161 13.536 166.281 16.488 166.281 21.24H156.561C156.561 11.52 163.905 4.608 174.345 4.608C184.065 4.608 191.193 10.728 191.193 18.936C191.193 24.84 189.033 28.584 180.537 37.152L173.193 45.072H191.985ZM233.659 44.424H226.819V54H216.883V44.424H193.771V37.008L218.899 5.328H226.819V35.712H233.659V44.424ZM204.715 35.712H216.883V19.656L204.715 35.712ZM278.062 35.064C278.062 42.192 272.806 47.376 265.606 47.376C258.478 47.376 253.294 42.192 253.294 35.064C253.294 27.72 258.478 22.464 265.606 22.464C272.806 22.464 278.062 27.72 278.062 35.064ZM320.253 37.152H312.117V54H301.173V2.304H320.253C332.853 2.304 340.701 8.28 340.701 19.512C340.701 30.744 332.853 37.152 320.253 37.152ZM320.181 11.52H312.117V27.936H320.181C326.373 27.936 329.829 24.696 329.829 19.584C329.829 14.472 326.373 11.52 320.181 11.52ZM355.845 35.352V54H345.837V15.552H355.053V22.968C357.861 18.072 363.837 15.12 370.029 15.12V25.488C361.533 24.84 355.845 26.856 355.845 35.352ZM396.684 54V49.248C394.164 52.848 390.348 54.72 385.092 54.72C377.1 54.72 371.772 50.04 371.772 42.84C371.772 35.352 377.82 31.32 389.052 31.32C391.212 31.32 393.084 31.464 395.46 31.752V29.448C395.46 25.128 393.012 22.608 388.836 22.608C384.516 22.608 381.924 25.128 381.564 29.448H372.564C373.14 20.592 379.548 14.832 388.836 14.832C398.916 14.832 404.82 20.376 404.82 29.808V54H396.684ZM381.204 42.552C381.204 45.792 383.508 47.808 387.252 47.808C392.364 47.808 395.46 45 395.46 40.536V37.8C393.084 37.44 391.428 37.296 389.7 37.296C384.012 37.296 381.204 39.096 381.204 42.552ZM422.012 54H412.004V2.304H422.012V31.824L436.052 15.552H447.572L431.66 33.984L449.444 54H436.7L422.012 36.144V54ZM462.619 33.048V54H452.611V2.304H462.619V20.592C465.283 17.064 468.595 14.832 473.635 14.832C481.339 14.832 486.667 19.872 486.667 29.16V54H476.731V32.544C476.731 26.856 474.499 23.688 469.963 23.688C466.003 23.688 462.619 26.856 462.619 33.048ZM516.747 54V49.248C514.227 52.848 510.411 54.72 505.155 54.72C497.163 54.72 491.835 50.04 491.835 42.84C491.835 35.352 497.883 31.32 509.115 31.32C511.275 31.32 513.147 31.464 515.523 31.752V29.448C515.523 25.128 513.075 22.608 508.899 22.608C504.579 22.608 501.987 25.128 501.627 29.448H492.627C493.203 20.592 499.611 14.832 508.899 14.832C518.979 14.832 524.883 20.376 524.883 29.808V54H516.747ZM501.267 42.552C501.267 45.792 503.571 47.808 507.315 47.808C512.427 47.808 515.523 45 515.523 40.536V37.8C513.147 37.44 511.491 37.296 509.763 37.296C504.075 37.296 501.267 39.096 501.267 42.552ZM542.075 35.352V54H532.067V15.552H541.283V22.968C544.091 18.072 550.067 15.12 556.259 15.12V25.488C547.763 24.84 542.075 26.856 542.075 35.352ZM593.569 37.152H585.433V54H574.489V2.304H593.569C606.169 2.304 614.017 8.28 614.017 19.512C614.017 30.744 606.169 37.152 593.569 37.152ZM593.497 11.52H585.433V27.936H593.497C599.689 27.936 603.145 24.696 603.145 19.584C603.145 14.472 599.689 11.52 593.497 11.52ZM629.161 35.352V54H619.153V15.552H628.369V22.968C631.177 18.072 637.153 15.12 643.345 15.12V25.488C634.849 24.84 629.161 26.856 629.161 35.352ZM670 54V49.248C667.48 52.848 663.664 54.72 658.408 54.72C650.416 54.72 645.088 50.04 645.088 42.84C645.088 35.352 651.136 31.32 662.368 31.32C664.528 31.32 666.4 31.464 668.776 31.752V29.448C668.776 25.128 666.328 22.608 662.152 22.608C657.832 22.608 655.24 25.128 654.88 29.448H645.88C646.456 20.592 652.864 14.832 662.152 14.832C672.232 14.832 678.136 20.376 678.136 29.808V54H670ZM654.52 42.552C654.52 45.792 656.824 47.808 660.568 47.808C665.68 47.808 668.776 45 668.776 40.536V37.8C666.4 37.44 664.744 37.296 663.016 37.296C657.328 37.296 654.52 39.096 654.52 42.552ZM717.792 41.688C717.792 49.752 711.672 54.72 700.728 54.72C689.784 54.72 683.664 49.464 682.872 40.896H692.448C692.52 44.856 695.904 47.376 700.872 47.376C704.76 47.376 707.712 46.152 707.712 43.416C707.712 40.968 706.128 39.96 702.456 39.24L695.544 37.944C688.632 36.72 684.456 32.904 684.456 26.928C684.456 19.8 690.576 14.832 700.152 14.832C709.8 14.832 716.424 19.944 717.144 28.224H707.568C707.208 24.48 704.4 22.176 700.152 22.176C696.48 22.176 694.032 23.544 694.032 25.992C694.032 28.296 695.616 29.232 699.072 29.88L706.488 31.248C713.976 32.688 717.792 36.144 717.792 41.688ZM746.081 54V49.248C743.561 52.848 739.745 54.72 734.489 54.72C726.497 54.72 721.169 50.04 721.169 42.84C721.169 35.352 727.217 31.32 738.449 31.32C740.609 31.32 742.481 31.464 744.857 31.752V29.448C744.857 25.128 742.409 22.608 738.233 22.608C733.913 22.608 731.321 25.128 730.961 29.448H721.961C722.537 20.592 728.945 14.832 738.233 14.832C748.313 14.832 754.217 20.376 754.217 29.808V54H746.081ZM730.601 42.552C730.601 45.792 732.905 47.808 736.649 47.808C741.761 47.808 744.857 45 744.857 40.536V37.8C742.481 37.44 740.825 37.296 739.097 37.296C733.409 37.296 730.601 39.096 730.601 42.552ZM758.881 34.776C758.881 23.4 765.577 14.832 775.945 14.832C780.553 14.832 784.441 16.848 787.321 20.52V2.304H797.257V54H788.113V48.456C785.089 52.488 780.913 54.72 775.945 54.72C765.577 54.72 758.881 46.008 758.881 34.776ZM769.177 34.776C769.177 41.976 773.281 45.792 778.177 45.792C783.145 45.792 787.249 41.904 787.249 34.632C787.249 27.36 783.073 23.688 778.177 23.688C773.281 23.688 769.177 27.432 769.177 34.776Z" fill="white"/>
</svg>
