<?xml version="1.0" encoding="UTF-8"?>
<svg id="Layer_5" data-name="Layer 5" xmlns="http://www.w3.org/2000/svg" viewBox="0 0 365.8 397.72">
  <defs>
    <style>
      .cls-1 {
        fill: #2b2c2d;
      }

      .cls-1, .cls-2 {
        stroke-width: 4px;
      }

      .cls-1, .cls-2, .cls-3, .cls-4, .cls-5, .cls-6, .cls-7 {
        stroke: #231f20;
        stroke-miterlimit: 10;
      }

      .cls-1, .cls-2, .cls-4, .cls-7 {
        stroke-linecap: round;
      }

      .cls-2 {
        fill: #3b2314;
      }

      .cls-3, .cls-4, .cls-7 {
        stroke-width: 5px;
      }

      .cls-3, .cls-7 {
        fill: none;
      }

      .cls-4, .cls-6 {
        fill: #fcc598;
      }

      .cls-5 {
        fill: #131314;
      }

      .cls-5, .cls-6 {
        stroke-width: 3px;
      }

      .cls-8 {
        fill: #404041;
        stroke-width: 0px;
      }
    </style>
  </defs>
  <path class="cls-5" d="m90.18,86.73l-13.25,14.8c-7.44,8.31-12.19,18.67-13.62,29.73l-2.38,18.33c-1.67,12.84-1.27,25.86,1.18,38.57h0c1.09,5.65,1.68,11.38,1.76,17.13l.58,37.84,35.49,14.19,86.58-36.55,138.39,19.52,16.54-1.15,19.93-61.32c.99-3.05,1.55-6.22,1.68-9.42l1.19-31.37c.27-7.04-.72-14.07-2.9-20.77l-8.4-25.72-2.73-10.92c-.31-1.24-.52-2.5-.62-3.77l-1.69-20.45-4.17-12.45c-3.51-10.48-9.44-19.99-17.31-27.75l-13.53-13.35c-.67-.66-1.8-.38-2.08.52l-4.38,14.18c-.52,1.68-2.51,2.39-3.98,1.42l-21.69-14.37c-2.9-1.92-6.68-1.82-9.47.26l-8.74,6.5c-1.24.93-2.6,1.69-4.03,2.29l-6.32,2.62c-3.91,1.62-8.28,1.74-12.27.35l-7.99-2.8-2.97-2.07c-3.11-2.16-7.24-2.12-10.31.1l-11.03,8c-1.29.94-2.75,1.63-4.29,2.03l-52.58,13.79c-6.61,1.73-12.8,4.8-18.19,9.02h0s-20.04,11.86-20.04,11.86c-9.45,5.59-16.33,14.66-19.17,25.26h0c-.59,2.19-1.68,4.21-3.19,5.9Z"/>
  <polygon class="cls-8" points="59.95 167.33 89.44 192.74 112.05 200.36 99.94 257.32 64.45 243.13 63.3 196.06 61.17 182.55 59.95 167.33"/>
  <path class="cls-6" d="m98.59,228.38l1.31-22.99c1.01-17.79,6.38-35.07,15.64-50.29l3.75-6.16c6.13-10.08,14.57-18.54,24.64-24.69l3.16-1.93c2.14-1.31,4.6-2,7.1-2h14.15c2.42,0,4.75-.89,6.56-2.5l3.36-3c1.35-1.21,3.5-.25,3.5,1.57h0c0,2.94,2.19,5.41,5.1,5.77l54.08,6.62h27.83c2.71,0,5.35-.88,7.52-2.51l.6-.45c2.07-1.55,4.77-1.99,7.22-1.17l2.07.69c2.04.68,4.17,1.03,6.32,1.03h12.99c4.18,0,8.05,2.16,10.26,5.7l10.34,16.64,10.48,15.26c3.47,5.05,6.31,10.51,8.45,16.25h0c2.64,7.07,3.49,14.68,2.49,22.16l-2.84,21.14c-.71,5.28-1.78,10.5-3.2,15.63l-2.64,9.5c-.83,2.98-.9,6.11-.22,9.12l3,13.2c1.33,5.85,2.27,11.78,2.83,17.75h0c1.05,11.24,0,22.57-3.06,33.43h0c-2.11,7.48-5.82,14.41-10.85,20.33h0c-13.33,15.64-29.2,28.92-46.95,39.28h0c-6.25,3.64-12.98,6.37-20.01,8.09l-5.49,1.34c-8.99,2.2-18.14,3.72-27.36,4.55h0c-13.22,1.18-26.55.24-39.48-2.78h0c-17.89-4.18-35.06-10.99-50.95-20.2h0c-11.64-6.75-21.54-16.12-28.91-27.36h0c-8.56-13.05-14.7-27.53-18.14-42.75l-3.26-14.42-10.37,7.3c-3.75,2.64-8.5,3.41-12.89,2.09h0c-7.09-2.13-12.9-7.23-15.92-13.99h0c-5.17-11.57-6.8-24.41-4.68-36.9l1.25-7.37c1.01-5.95,3.67-11.49,7.69-15.99h0c5.2-5.83,13.8-7.17,20.53-3.21l8.95,5.27,6.5,6.03c1.21,1.12,2.93,1.49,4.49.97h0c1.75-.58,2.97-2.18,3.08-4.02Z"/>
  <path class="cls-7" d="m179.52,331.01l15.16,5.19c4.62,1.58,9.46,2.39,14.34,2.39h0c4.96,0,9.89-.76,14.63-2.25l5.49-1.73c3.05-.96,6.29-1.09,9.41-.38h0c8.12,1.85,16.63.97,24.2-2.5l14.1-6.47"/>
  <circle class="cls-3" cx="178.4" cy="330.55" r="2.87"/>
  <path class="cls-7" d="m181.22,175.71l6.53-.64"/>
  <path class="cls-7" d="m156.33,183.58c7.66-4.33,16.14-7.01,24.89-7.87"/>
  <path class="cls-7" d="m150.07,187.12l6.26-3.54"/>
  <path class="cls-7" d="m256.95,177.88h18.62c6.39,0,12.52,2.55,17.03,7.08l2.13,2.15"/>
  <polygon class="cls-2" points="70.09 217.41 121.98 205.83 117.53 220.14 79 221.3 70.09 217.41"/>
  <path class="cls-2" d="m125.9,205.12l74.15-3.24c3.72-.16,7.43.59,10.8,2.18l2.24,1.06h26.09l.29-.21c3.64-2.61,8.03-3.95,12.5-3.82l60.2,1.72c4.4.13,8.54,2.07,11.45,5.38l3.9,4.43-9.8,56.82c-.8,4.62-3.93,8.49-8.28,10.23h0c-3.77,1.51-7.77,2.34-11.82,2.46l-40.15,1.19c-3.62.11-7.18-.97-10.14-3.06h0c-2.07-1.46-3.44-3.72-3.8-6.22l-7.29-51.24-6.7-2.34c-2.59-.9-5.4-.93-8.01-.09l-5.18,1.68-8.78,45.82c-.91,4.77-3.57,9.02-7.45,11.93h0c-1.89,1.41-4.21,2.12-6.56,1.99l-54.09-2.95c-4.06-.22-8.01-1.43-11.5-3.52h0c-2.92-1.75-4.82-4.78-5.14-8.17l-4.43-47.03,7.5-15Z"/>
  <polygon class="cls-2" points="327.53 212.62 347.53 217.2 344.64 227.48 325.35 225.25 327.53 212.62"/>
  <path class="cls-6" d="m192.99,275.61l-56.69-3.09c-3.77-.21-6.79-3.22-7-6.99l-2.59-46.71c-.23-4.15,3-7.68,7.15-7.82l66.55-2.22c4.6-.15,8.22,3.88,7.59,8.43l-7.28,52.02c-.53,3.81-3.9,6.58-7.74,6.37Z"/>
  <path class="cls-6" d="m305.71,273.46l-49.88.97c-2.96.06-5.49-2.13-5.85-5.07l-6.51-52.66c-.43-3.45,2.26-6.49,5.74-6.49h62.71c3.47,0,6.16,3.04,5.74,6.48l-6.32,51.69c-.35,2.86-2.75,5.02-5.63,5.08Z"/>
  <ellipse class="cls-1" cx="181.19" cy="234.71" rx="5.64" ry="10.83"/>
  <ellipse class="cls-1" cx="269.83" cy="236.48" rx="5.64" ry="10.83"/>
  <path class="cls-4" d="m221.9,245.54l5.52-.73c5.38-.71,10.79,1.01,14.77,4.7h0c3.51,3.26,5.94,7.51,6.95,12.19l.61,2.81c1.06,4.87.09,9.95-2.67,14.1h0c-2.17,3.25-5.23,5.8-8.81,7.34l-9.79,2.52"/>
</svg>