<svg width="440" height="380" viewBox="0 0 440 380" fill="none" xmlns="http://www.w3.org/2000/svg">
<g clip-path="url(#clip0_428_7148)">
<rect width="440" height="380" rx="12" fill="#F8F8F8"/>
<path d="M90.1787 50.4097V52H82.6412V40.1057H90.0627V41.6961H84.4634V45.0755H89.5657V46.6658H84.4634V50.4097H90.1787ZM97.5005 52V50.6416C96.9538 51.619 95.9764 52.1657 94.6843 52.1657C92.8621 52.1657 91.6693 51.122 91.6693 49.5151C91.6693 47.7923 93.0443 46.8977 95.6617 46.8977C96.1752 46.8977 96.5894 46.9143 97.3017 46.9971V46.3511C97.3017 45.0921 96.6225 44.3797 95.4629 44.3797C94.237 44.3797 93.4916 45.1086 93.4419 46.3345H91.9178C92.0006 44.3632 93.4087 43.0545 95.4629 43.0545C97.633 43.0545 98.892 44.2803 98.892 46.3676V52H97.5005ZM93.2596 49.4654C93.2596 50.3766 93.9388 50.9729 95.0156 50.9729C96.4237 50.9729 97.3017 50.0949 97.3017 48.7531V48.0408C96.6556 47.9579 96.1918 47.9414 95.7611 47.9414C94.0879 47.9414 93.2596 48.4384 93.2596 49.4654ZM104.591 52.1822C102.189 52.1822 100.5 50.2937 100.5 47.6101C100.5 44.9595 102.222 43.0545 104.591 43.0545C106.761 43.0545 108.335 44.4957 108.65 46.7818H106.894C106.712 45.3737 105.834 44.5288 104.608 44.5288C103.167 44.5288 102.222 45.7547 102.222 47.6101C102.222 49.482 103.167 50.6913 104.608 50.6913C105.85 50.6913 106.712 49.863 106.911 48.4384H108.65C108.352 50.7576 106.795 52.1822 104.591 52.1822ZM112.007 47.0468V52H110.334V40.1057H112.007V44.6282C112.587 43.684 113.482 43.0545 114.691 43.0545C116.497 43.0545 117.689 44.2141 117.689 46.3179V52H116.016V46.8812C116.016 45.3737 115.354 44.5288 114.111 44.5288C112.968 44.5288 112.007 45.4896 112.007 47.0468ZM126.835 52.1822C124.433 52.1822 122.744 50.2937 122.744 47.6101C122.744 44.9595 124.467 43.0545 126.835 43.0545C129.006 43.0545 130.579 44.4957 130.894 46.7818H129.138C128.956 45.3737 128.078 44.5288 126.852 44.5288C125.411 44.5288 124.467 45.7547 124.467 47.6101C124.467 49.482 125.411 50.6913 126.852 50.6913C128.094 50.6913 128.956 49.863 129.155 48.4384H130.894C130.596 50.7576 129.039 52.1822 126.835 52.1822ZM134.268 52H132.578V40.1057H134.268V52ZM141.908 52V50.6416C141.361 51.619 140.384 52.1657 139.092 52.1657C137.269 52.1657 136.077 51.122 136.077 49.5151C136.077 47.7923 137.452 46.8977 140.069 46.8977C140.583 46.8977 140.997 46.9143 141.709 46.9971V46.3511C141.709 45.0921 141.03 44.3797 139.87 44.3797C138.644 44.3797 137.899 45.1086 137.849 46.3345H136.325C136.408 44.3632 137.816 43.0545 139.87 43.0545C142.04 43.0545 143.299 44.2803 143.299 46.3676V52H141.908ZM137.667 49.4654C137.667 50.3766 138.346 50.9729 139.423 50.9729C140.831 50.9729 141.709 50.0949 141.709 48.7531V48.0408C141.063 47.9579 140.599 47.9414 140.168 47.9414C138.495 47.9414 137.667 48.4384 137.667 49.4654ZM152.494 49.3826C152.494 51.1054 151.152 52.1657 148.816 52.1657C146.497 52.1657 145.122 51.0226 144.957 49.1341H146.563C146.63 50.2275 147.508 50.9067 148.85 50.9067C150.026 50.9067 150.804 50.4925 150.804 49.6642C150.804 48.9353 150.357 48.6206 149.264 48.4052L147.839 48.1402C146.216 47.8254 145.304 46.9971 145.304 45.6719C145.304 44.1312 146.646 43.0545 148.684 43.0545C150.788 43.0545 152.212 44.1809 152.362 45.9866H150.755C150.655 44.9264 149.877 44.3135 148.7 44.3135C147.64 44.3135 146.928 44.7607 146.928 45.5228C146.928 46.2351 147.375 46.5664 148.435 46.7652L149.926 47.0468C151.666 47.3616 152.494 48.1236 152.494 49.3826ZM161.278 49.3826C161.278 51.1054 159.937 52.1657 157.601 52.1657C155.282 52.1657 153.907 51.0226 153.741 49.1341H155.348C155.414 50.2275 156.292 50.9067 157.634 50.9067C158.81 50.9067 159.589 50.4925 159.589 49.6642C159.589 48.9353 159.141 48.6206 158.048 48.4052L156.623 48.1402C155 47.8254 154.089 46.9971 154.089 45.6719C154.089 44.1312 155.431 43.0545 157.468 43.0545C159.572 43.0545 160.997 44.1809 161.146 45.9866H159.539C159.44 44.9264 158.661 44.3135 157.485 44.3135C156.425 44.3135 155.712 44.7607 155.712 45.5228C155.712 46.2351 156.16 46.5664 157.22 46.7652L158.711 47.0468C160.45 47.3616 161.278 48.1236 161.278 49.3826ZM168.605 41.1825C168.605 41.812 168.108 42.2924 167.396 42.2924C166.683 42.2924 166.17 41.812 166.17 41.1825C166.17 40.5365 166.683 40.0726 167.396 40.0726C168.108 40.0726 168.605 40.5365 168.605 41.1825ZM168.24 52H166.567V43.2201H168.24V52ZM177.521 49.3826C177.521 51.1054 176.179 52.1657 173.843 52.1657C171.524 52.1657 170.149 51.0226 169.983 49.1341H171.59C171.656 50.2275 172.534 50.9067 173.876 50.9067C175.052 50.9067 175.831 50.4925 175.831 49.6642C175.831 48.9353 175.384 48.6206 174.29 48.4052L172.866 48.1402C171.242 47.8254 170.331 46.9971 170.331 45.6719C170.331 44.1312 171.673 43.0545 173.711 43.0545C175.814 43.0545 177.239 44.1809 177.388 45.9866H175.781C175.682 44.9264 174.903 44.3135 173.727 44.3135C172.667 44.3135 171.955 44.7607 171.955 45.5228C171.955 46.2351 172.402 46.5664 173.462 46.7652L174.953 47.0468C176.692 47.3616 177.521 48.1236 177.521 49.3826ZM184.499 52H182.809V40.1057H184.499V52ZM188.859 41.1825C188.859 41.812 188.362 42.2924 187.65 42.2924C186.937 42.2924 186.424 41.812 186.424 41.1825C186.424 40.5365 186.937 40.0726 187.65 40.0726C188.362 40.0726 188.859 40.5365 188.859 41.1825ZM188.495 52H186.822V43.2201H188.495V52ZM192.491 52H190.817V40.1057H192.491V47.1462L196.251 43.2201H198.222L194.164 47.4775L198.603 52H196.45L192.491 47.842V52ZM202.97 52.1657C200.436 52.1657 198.73 50.3269 198.73 47.5604C198.73 44.9595 200.502 43.0545 202.921 43.0545C205.538 43.0545 207.278 45.1749 206.979 48.0242H200.436C200.568 49.8133 201.463 50.857 202.937 50.857C204.18 50.857 205.041 50.1778 205.323 49.0347H206.979C206.549 50.9895 205.041 52.1657 202.97 52.1657ZM202.888 44.3135C201.546 44.3135 200.635 45.2743 200.452 46.9143H205.207C205.124 45.2908 204.246 44.3135 202.888 44.3135ZM217.538 52V50.6416C216.991 51.619 216.014 52.1657 214.722 52.1657C212.899 52.1657 211.707 51.122 211.707 49.5151C211.707 47.7923 213.082 46.8977 215.699 46.8977C216.213 46.8977 216.627 46.9143 217.339 46.9971V46.3511C217.339 45.0921 216.66 44.3797 215.5 44.3797C214.274 44.3797 213.529 45.1086 213.479 46.3345H211.955C212.038 44.3632 213.446 43.0545 215.5 43.0545C217.67 43.0545 218.929 44.2803 218.929 46.3676V52H217.538ZM213.297 49.4654C213.297 50.3766 213.976 50.9729 215.053 50.9729C216.461 50.9729 217.339 50.0949 217.339 48.7531V48.0408C216.693 47.9579 216.229 47.9414 215.798 47.9414C214.125 47.9414 213.297 48.4384 213.297 49.4654ZM231.586 49.3826C231.586 51.1054 230.244 52.1657 227.908 52.1657C225.589 52.1657 224.214 51.0226 224.049 49.1341H225.656C225.722 50.2275 226.6 50.9067 227.942 50.9067C229.118 50.9067 229.896 50.4925 229.896 49.6642C229.896 48.9353 229.449 48.6206 228.356 48.4052L226.931 48.1402C225.308 47.8254 224.397 46.9971 224.397 45.6719C224.397 44.1312 225.738 43.0545 227.776 43.0545C229.88 43.0545 231.304 44.1809 231.454 45.9866H229.847C229.747 44.9264 228.969 44.3135 227.793 44.3135C226.732 44.3135 226.02 44.7607 226.02 45.5228C226.02 46.2351 226.467 46.5664 227.527 46.7652L229.018 47.0468C230.758 47.3616 231.586 48.1236 231.586 49.3826ZM238.253 50.3766V51.8509C237.739 52.0828 237.292 52.1657 236.762 52.1657C235.138 52.1657 234.012 51.2877 234.012 49.3495V44.6448H232.074V43.2201H234.012V40.6193H235.685V43.2201H238.336V44.6448H235.685V48.9685C235.685 50.1778 236.265 50.6085 237.159 50.6085C237.557 50.6085 237.905 50.5422 238.253 50.3766ZM243.301 52.1657C240.767 52.1657 239.06 50.3269 239.06 47.5604C239.06 44.9595 240.833 43.0545 243.251 43.0545C245.869 43.0545 247.608 45.1749 247.31 48.0242H240.767C240.899 49.8133 241.794 50.857 243.268 50.857C244.51 50.857 245.372 50.1778 245.653 49.0347H247.31C246.879 50.9895 245.372 52.1657 243.301 52.1657ZM243.218 44.3135C241.876 44.3135 240.965 45.2743 240.783 46.9143H245.537C245.455 45.2908 244.577 44.3135 243.218 44.3135ZM257.471 47.6101C257.471 50.2606 255.947 52.1657 253.595 52.1657C252.402 52.1657 251.392 51.5693 250.762 50.5091V55.1972H249.089V43.2201H250.646V44.827C251.276 43.7005 252.352 43.0545 253.595 43.0545C255.931 43.0545 257.471 44.9595 257.471 47.6101ZM255.732 47.6101C255.732 45.6387 254.688 44.5288 253.247 44.5288C251.855 44.5288 250.762 45.6387 250.762 47.6101C250.762 49.5483 251.839 50.6747 253.247 50.6747C254.688 50.6747 255.732 49.5814 255.732 47.6101ZM267.55 47.6101C267.55 50.2606 266.026 52.1657 263.673 52.1657C262.481 52.1657 261.47 51.5693 260.841 50.5091V55.1972H259.168V43.2201H260.725V44.827C261.354 43.7005 262.431 43.0545 263.673 43.0545C266.009 43.0545 267.55 44.9595 267.55 47.6101ZM265.81 47.6101C265.81 45.6387 264.767 44.5288 263.326 44.5288C261.934 44.5288 260.841 45.6387 260.841 47.6101C260.841 49.5483 261.917 50.6747 263.326 50.6747C264.767 50.6747 265.81 49.5814 265.81 47.6101ZM271.284 41.1825C271.284 41.812 270.787 42.2924 270.074 42.2924C269.362 42.2924 268.849 41.812 268.849 41.1825C268.849 40.5365 269.362 40.0726 270.074 40.0726C270.787 40.0726 271.284 40.5365 271.284 41.1825ZM270.919 52H269.246V43.2201H270.919V52ZM274.915 47.0468V52H273.242V43.2201H274.799V44.6779C275.396 43.7005 276.389 43.0545 277.599 43.0545C279.404 43.0545 280.597 44.2141 280.597 46.3179V52H278.924V46.8812C278.924 45.3737 278.261 44.5288 277.019 44.5288C275.876 44.5288 274.915 45.4896 274.915 47.0468ZM286.331 55.3794C284.028 55.3794 282.537 54.1536 282.438 52.1657H284.062C284.161 53.3915 284.956 54.0542 286.314 54.0542C287.822 54.0542 288.617 53.2424 288.617 51.7349V50.1446C288.12 51.2048 287.126 51.8178 285.933 51.8178C283.747 51.8178 282.19 50.0121 282.19 47.4278C282.19 44.8104 283.681 43.0545 285.884 43.0545C287.143 43.0545 288.137 43.6674 288.733 44.7773V43.2201H290.29V51.7018C290.29 54.0045 288.816 55.3794 286.331 55.3794ZM283.879 47.4278C283.879 49.2501 284.774 50.36 286.232 50.36C287.656 50.36 288.617 49.2169 288.617 47.4775C288.617 45.6553 287.673 44.4957 286.232 44.4957C284.79 44.4957 283.879 45.6222 283.879 47.4278ZM303.026 49.3826C303.026 51.1054 301.684 52.1657 299.349 52.1657C297.029 52.1657 295.654 51.0226 295.489 49.1341H297.096C297.162 50.2275 298.04 50.9067 299.382 50.9067C300.558 50.9067 301.336 50.4925 301.336 49.6642C301.336 48.9353 300.889 48.6206 299.796 48.4052L298.371 48.1402C296.748 47.8254 295.837 46.9971 295.837 45.6719C295.837 44.1312 297.178 43.0545 299.216 43.0545C301.32 43.0545 302.745 44.1809 302.894 45.9866H301.287C301.187 44.9264 300.409 44.3135 299.233 44.3135C298.172 44.3135 297.46 44.7607 297.46 45.5228C297.46 46.2351 297.907 46.5664 298.968 46.7652L300.458 47.0468C302.198 47.3616 303.026 48.1236 303.026 49.3826ZM309.693 50.3766V51.8509C309.179 52.0828 308.732 52.1657 308.202 52.1657C306.578 52.1657 305.452 51.2877 305.452 49.3495V44.6448H303.514V43.2201H305.452V40.6193H307.125V43.2201H309.776V44.6448H307.125V48.9685C307.125 50.1778 307.705 50.6085 308.6 50.6085C308.997 50.6085 309.345 50.5422 309.693 50.3766ZM314.807 52.1657C312.323 52.1657 310.5 50.2109 310.5 47.6101C310.5 45.0092 312.323 43.0545 314.807 43.0545C317.292 43.0545 319.115 45.0092 319.115 47.6101C319.115 50.2109 317.292 52.1657 314.807 52.1657ZM314.807 50.6913C316.249 50.6913 317.392 49.5317 317.392 47.6101C317.392 45.6884 316.249 44.5454 314.807 44.5454C313.366 44.5454 312.24 45.6884 312.24 47.6101C312.24 49.5317 313.366 50.6913 314.807 50.6913ZM322.493 47.0468V52H320.82V43.2201H322.377V44.6779C322.974 43.7005 323.968 43.0545 325.177 43.0545C326.983 43.0545 328.175 44.2141 328.175 46.3179V52H326.502V46.8812C326.502 45.3737 325.84 44.5288 324.597 44.5288C323.454 44.5288 322.493 45.4896 322.493 47.0468ZM334.009 52.1657C331.474 52.1657 329.768 50.3269 329.768 47.5604C329.768 44.9595 331.54 43.0545 333.959 43.0545C336.576 43.0545 338.316 45.1749 338.018 48.0242H331.474C331.607 49.8133 332.501 50.857 333.975 50.857C335.218 50.857 336.079 50.1778 336.361 49.0347H338.018C337.587 50.9895 336.079 52.1657 334.009 52.1657ZM333.926 44.3135C332.584 44.3135 331.673 45.2743 331.491 46.9143H336.245C336.162 45.2908 335.284 44.3135 333.926 44.3135ZM348.212 50.3766V51.8509C347.698 52.0828 347.251 52.1657 346.721 52.1657C345.097 52.1657 343.971 51.2877 343.971 49.3495V44.6448H342.033V43.2201H343.971V40.6193H345.644V43.2201H348.294V44.6448H345.644V48.9685C345.644 50.1778 346.224 50.6085 347.118 50.6085C347.516 50.6085 347.864 50.5422 348.212 50.3766ZM353.326 52.1657C350.841 52.1657 349.019 50.2109 349.019 47.6101C349.019 45.0092 350.841 43.0545 353.326 43.0545C355.811 43.0545 357.633 45.0092 357.633 47.6101C357.633 50.2109 355.811 52.1657 353.326 52.1657ZM353.326 50.6913C354.767 50.6913 355.91 49.5317 355.91 47.6101C355.91 45.6884 354.767 44.5454 353.326 44.5454C351.885 44.5454 350.758 45.6884 350.758 47.6101C350.758 49.5317 351.885 50.6913 353.326 50.6913ZM151.473 77H149.783V65.1057H151.473V77ZM157.406 77.1657C154.872 77.1657 153.166 75.3269 153.166 72.5604C153.166 69.9595 154.938 68.0545 157.357 68.0545C159.974 68.0545 161.714 70.1749 161.415 73.0242H154.872C155.004 74.8133 155.899 75.857 157.373 75.857C158.616 75.857 159.477 75.1778 159.759 74.0347H161.415C160.985 75.9895 159.477 77.1657 157.406 77.1657ZM157.324 69.3135C155.982 69.3135 155.071 70.2743 154.888 71.9143H159.643C159.56 70.2908 158.682 69.3135 157.324 69.3135ZM168.512 77V75.6416C167.965 76.619 166.988 77.1657 165.696 77.1657C163.873 77.1657 162.681 76.122 162.681 74.5151C162.681 72.7923 164.056 71.8977 166.673 71.8977C167.187 71.8977 167.601 71.9143 168.313 71.9971V71.3511C168.313 70.0921 167.634 69.3797 166.474 69.3797C165.248 69.3797 164.503 70.1086 164.453 71.3345H162.929C163.012 69.3632 164.42 68.0545 166.474 68.0545C168.644 68.0545 169.903 69.2803 169.903 71.3676V77H168.512ZM164.271 74.4654C164.271 75.3766 164.95 75.9729 166.027 75.9729C167.435 75.9729 168.313 75.0949 168.313 73.7531V73.0408C167.667 72.9579 167.203 72.9414 166.772 72.9414C165.099 72.9414 164.271 73.4384 164.271 74.4654ZM173.814 72.5107V77H172.14V68.2201H173.698V70.0755C174.311 68.8662 175.636 68.1042 177.077 68.1042V69.8436C175.189 69.7442 173.814 70.5725 173.814 72.5107ZM180.074 72.0468V77H178.401V68.2201H179.958V69.6779C180.555 68.7005 181.549 68.0545 182.758 68.0545C184.564 68.0545 185.756 69.2141 185.756 71.3179V77H184.083V71.8812C184.083 70.3737 183.421 69.5288 182.178 69.5288C181.035 69.5288 180.074 70.4896 180.074 72.0468ZM190.016 66.1825C190.016 66.812 189.519 67.2924 188.807 67.2924C188.094 67.2924 187.581 66.812 187.581 66.1825C187.581 65.5365 188.094 65.0726 188.807 65.0726C189.519 65.0726 190.016 65.5365 190.016 66.1825ZM189.651 77H187.978V68.2201H189.651V77ZM193.647 72.0468V77H191.974V68.2201H193.531V69.6779C194.128 68.7005 195.122 68.0545 196.331 68.0545C198.137 68.0545 199.329 69.2141 199.329 71.3179V77H197.656V71.8812C197.656 70.3737 196.994 69.5288 195.751 69.5288C194.608 69.5288 193.647 70.4896 193.647 72.0468ZM205.063 80.3794C202.76 80.3794 201.27 79.1536 201.17 77.1657H202.794C202.893 78.3915 203.688 79.0542 205.047 79.0542C206.554 79.0542 207.349 78.2424 207.349 76.7349V75.1446C206.852 76.2048 205.858 76.8178 204.666 76.8178C202.479 76.8178 200.922 75.0121 200.922 72.4278C200.922 69.8104 202.413 68.0545 204.616 68.0545C205.875 68.0545 206.869 68.6674 207.465 69.7773V68.2201H209.022V76.7018C209.022 79.0045 207.548 80.3794 205.063 80.3794ZM202.611 72.4278C202.611 74.2501 203.506 75.36 204.964 75.36C206.388 75.36 207.349 74.2169 207.349 72.4775C207.349 70.6553 206.405 69.4957 204.964 69.4957C203.523 69.4957 202.611 70.6222 202.611 72.4278ZM220.118 77V75.6416C219.572 76.619 218.594 77.1657 217.302 77.1657C215.48 77.1657 214.287 76.122 214.287 74.5151C214.287 72.7923 215.662 71.8977 218.279 71.8977C218.793 71.8977 219.207 71.9143 219.919 71.9971V71.3511C219.919 70.0921 219.24 69.3797 218.081 69.3797C216.855 69.3797 216.109 70.1086 216.06 71.3345H214.536C214.618 69.3632 216.026 68.0545 218.081 68.0545C220.251 68.0545 221.51 69.2803 221.51 71.3676V77H220.118ZM215.877 74.4654C215.877 75.3766 216.557 75.9729 217.633 75.9729C219.041 75.9729 219.919 75.0949 219.919 73.7531V73.0408C219.273 72.9579 218.81 72.9414 218.379 72.9414C216.706 72.9414 215.877 73.4384 215.877 74.4654ZM228.882 72.0468V77H227.209V68.2201H228.766V69.6779C229.362 68.7005 230.356 68.0545 231.566 68.0545C233.371 68.0545 234.564 69.2141 234.564 71.3179V77H232.891V71.8812C232.891 70.3737 232.228 69.5288 230.986 69.5288C229.843 69.5288 228.882 70.4896 228.882 72.0468ZM240.397 77.1657C237.863 77.1657 236.156 75.3269 236.156 72.5604C236.156 69.9595 237.929 68.0545 240.348 68.0545C242.965 68.0545 244.704 70.1749 244.406 73.0242H237.863C237.995 74.8133 238.89 75.857 240.364 75.857C241.607 75.857 242.468 75.1778 242.75 74.0347H244.406C243.975 75.9895 242.468 77.1657 240.397 77.1657ZM240.314 69.3135C238.973 69.3135 238.061 70.2743 237.879 71.9143H242.634C242.551 70.2908 241.673 69.3135 240.314 69.3135ZM253.247 77L251.259 70.4731L249.254 77H247.565L245.03 68.2201H246.67L248.443 74.6145L250.431 68.2201H252.087L254.042 74.6311L255.814 68.2201H257.471L254.92 77H253.247ZM269.256 74.3826C269.256 76.1054 267.914 77.1657 265.578 77.1657C263.259 77.1657 261.884 76.0226 261.718 74.1341H263.325C263.391 75.2275 264.269 75.9067 265.611 75.9067C266.787 75.9067 267.566 75.4925 267.566 74.6642C267.566 73.9353 267.119 73.6206 266.025 73.4052L264.601 73.1402C262.977 72.8254 262.066 71.9971 262.066 70.6719C262.066 69.1312 263.408 68.0545 265.445 68.0545C267.549 68.0545 268.974 69.1809 269.123 70.9866H267.516C267.417 69.9264 266.638 69.3135 265.462 69.3135C264.402 69.3135 263.689 69.7607 263.689 70.5228C263.689 71.2351 264.137 71.5664 265.197 71.7652L266.688 72.0468C268.427 72.3616 269.256 73.1236 269.256 74.3826ZM272.755 77H271.082V65.1057H272.755V72.1462L276.516 68.2201H278.487L274.429 72.4775L278.868 77H276.715L272.755 72.842V77ZM282.082 66.1825C282.082 66.812 281.585 67.2924 280.873 67.2924C280.161 67.2924 279.647 66.812 279.647 66.1825C279.647 65.5365 280.161 65.0726 280.873 65.0726C281.585 65.0726 282.082 65.5365 282.082 66.1825ZM281.718 77H280.045V68.2201H281.718V77ZM285.73 77H284.041V65.1057H285.73V77ZM289.742 77H288.053V65.1057H289.742V77Z" fill="#393939"/>
<line x1="343.508" y1="152.756" x2="343.508" y2="270.513" stroke="black" stroke-opacity="0.12" stroke-width="3.99176"/>
<line x1="101.004" y1="151.758" x2="340.51" y2="151.758" stroke="black" stroke-opacity="0.12" stroke-width="3.99176"/>
<path d="M88.4052 124.035C94.7978 115.823 107.212 115.823 113.605 124.035L119.439 131.53C120.25 132.573 121.188 133.511 122.231 134.322L129.726 140.156C137.938 146.549 137.938 158.963 129.726 165.356L122.231 171.19C121.188 172.001 120.25 172.939 119.439 173.982L113.605 181.477C107.212 189.689 94.7978 189.689 88.4052 181.477L82.5711 173.982C81.7596 172.939 80.8217 172.001 79.7791 171.19L72.2843 165.356C64.0719 158.963 64.0719 146.549 72.2843 140.156L79.7791 134.322C80.8217 133.511 81.7596 132.573 82.5711 131.53L88.4052 124.035Z" fill="#95C48C"/>
<path d="M100.893 158.394V146.322L98.4496 148.334C98.1463 148.574 97.819 148.694 97.4677 148.694C97.1164 148.694 96.821 148.574 96.5815 148.334C96.342 148.095 96.2222 147.791 96.2222 147.424C96.2222 147.009 96.4458 146.618 96.8929 146.251L100.629 143.233C101.14 142.818 101.619 142.61 102.066 142.61C102.322 142.61 102.561 142.65 102.785 142.73C103.008 142.794 103.224 142.985 103.431 143.305C103.655 143.608 103.767 144.015 103.767 144.526V158.394C103.767 159 103.615 159.423 103.312 159.663C103.008 159.887 102.681 159.998 102.33 159.998C102.186 159.998 102.042 159.974 101.899 159.926C101.755 159.894 101.603 159.831 101.443 159.735C101.284 159.623 101.148 159.455 101.036 159.232C100.941 158.992 100.893 158.713 100.893 158.394Z" fill="white"/>
<path d="M208.159 124.035C214.552 115.823 226.966 115.823 233.359 124.035L239.193 131.53C240.004 132.573 240.942 133.511 241.985 134.322L249.48 140.156C257.692 146.549 257.692 158.963 249.48 165.356L241.985 171.19C240.942 172.001 240.004 172.939 239.193 173.982L233.359 181.477C226.966 189.689 214.552 189.689 208.159 181.477L202.325 173.982C201.513 172.939 200.576 172.001 199.533 171.19L192.038 165.356C183.826 158.963 183.826 146.549 192.038 140.156L199.533 134.322C200.576 133.511 201.513 132.573 202.325 131.53L208.159 124.035Z" fill="#95C48C"/>
<path d="M216 145.484C216.463 144.542 217.15 143.792 218.06 143.233C218.986 142.674 220.04 142.395 221.221 142.395C222.786 142.395 224.119 142.834 225.221 143.712C226.323 144.59 226.874 145.804 226.874 147.352C226.874 148.358 226.634 149.26 226.155 150.059C225.692 150.841 225.021 151.648 224.143 152.478L219.257 157.148H225.652C226.195 157.148 226.57 157.292 226.778 157.579C227.001 157.851 227.113 158.146 227.113 158.465C227.113 158.657 227.081 158.841 227.017 159.016C226.953 159.192 226.802 159.368 226.562 159.543C226.339 159.703 226.035 159.783 225.652 159.783H217.341C216.048 159.783 215.401 159.28 215.401 158.274C215.401 157.715 215.729 157.116 216.383 156.478L222.155 150.729C223.305 149.612 223.88 148.502 223.88 147.4C223.88 146.618 223.624 145.987 223.113 145.508C222.602 145.029 221.956 144.79 221.173 144.79C219.992 144.79 219.122 145.404 218.563 146.634C218.228 147.352 217.748 147.712 217.126 147.712C216.743 147.712 216.415 147.584 216.144 147.328C215.888 147.073 215.761 146.754 215.761 146.37C215.761 146.099 215.84 145.804 216 145.484Z" fill="white"/>
<path d="M327.909 124.035C334.302 115.823 346.716 115.823 353.109 124.035L358.943 131.53C359.754 132.573 360.692 133.511 361.735 134.322L369.23 140.156C377.442 146.549 377.442 158.963 369.23 165.356L361.735 171.19C360.692 172.001 359.754 172.939 358.943 173.982L353.109 181.477C346.716 189.689 334.302 189.689 327.909 181.477L322.075 173.982C321.263 172.939 320.326 172.001 319.283 171.19L311.788 165.356C303.576 158.963 303.576 146.549 311.788 140.156L319.283 134.322C320.326 133.511 321.263 132.573 322.075 131.53L327.909 124.035Z" fill="#95C48C"/>
<path d="M337.57 156.31C338.289 157.284 339.271 157.771 340.516 157.771C341.363 157.771 342.089 157.539 342.696 157.076C343.318 156.613 343.63 155.911 343.63 154.969C343.63 154.282 343.406 153.715 342.959 153.268C342.528 152.821 342.049 152.526 341.522 152.382C341.011 152.238 340.492 152.166 339.965 152.166C339.454 152.166 339.095 152.039 338.888 151.783C338.68 151.512 338.576 151.232 338.576 150.945C338.576 150.658 338.68 150.386 338.888 150.131C339.095 149.875 339.454 149.747 339.965 149.747C340.333 149.747 340.684 149.715 341.019 149.652C341.355 149.572 341.69 149.452 342.025 149.292C342.376 149.117 342.656 148.853 342.863 148.502C343.071 148.151 343.175 147.728 343.175 147.233C343.175 146.498 342.911 145.907 342.384 145.46C341.873 145.013 341.243 144.79 340.492 144.79C339.47 144.79 338.656 145.261 338.049 146.203C337.746 146.666 337.347 146.897 336.852 146.897C336.485 146.897 336.173 146.786 335.918 146.562C335.678 146.322 335.558 146.019 335.558 145.652C335.558 145.301 335.718 144.917 336.038 144.502C337.091 143.097 338.616 142.395 340.612 142.395C342.177 142.395 343.478 142.802 344.516 143.616C345.554 144.43 346.073 145.572 346.073 147.041C346.073 147.951 345.793 148.765 345.235 149.484C344.676 150.187 343.941 150.65 343.031 150.873V150.921C344.069 151.129 344.907 151.6 345.546 152.334C346.201 153.069 346.528 153.955 346.528 154.993C346.528 156.637 345.937 157.923 344.756 158.849C343.574 159.759 342.193 160.214 340.612 160.214C338.217 160.214 336.461 159.455 335.343 157.939C335.056 157.555 334.912 157.18 334.912 156.813C334.912 156.43 335.04 156.118 335.295 155.879C335.566 155.623 335.894 155.496 336.277 155.496C336.756 155.496 337.187 155.767 337.57 156.31Z" fill="white"/>
<line x1="101" y1="269.515" x2="101" y2="387.272" stroke="black" stroke-opacity="0.12" stroke-width="3.99176"/>
<line x1="99.0039" y1="378.29" x2="338.51" y2="378.29" stroke="black" stroke-opacity="0.12" stroke-width="3.99176"/>
<path d="M86.4052 350.567C92.7978 342.355 105.212 342.355 111.605 350.567L117.439 358.062C118.25 359.105 119.188 360.043 120.231 360.854L127.726 366.688C135.938 373.081 135.938 385.495 127.726 391.888L120.231 397.722C119.188 398.534 118.25 399.471 117.439 400.514L111.605 408.009C105.212 416.221 92.7978 416.221 86.4052 408.009L80.5711 400.514C79.7596 399.471 78.8217 398.534 77.7791 397.722L70.2843 391.888C62.0719 385.495 62.0719 373.081 70.2843 366.688L77.7791 360.854C78.8217 360.043 79.7596 359.105 80.5711 358.062L86.4052 350.567Z" fill="white"/>
<path d="M110.424 351.487L116.258 358.982C117.145 360.122 118.171 361.148 119.311 362.036L126.806 367.87C134.249 373.663 134.249 384.913 126.806 390.707L119.311 396.541C118.171 397.428 117.145 398.454 116.258 399.595L110.424 407.089C104.63 414.532 93.3797 414.532 87.5864 407.089L81.7524 399.595C80.8647 398.454 79.839 397.428 78.6986 396.541L71.2037 390.707C63.7613 384.913 63.7613 373.663 71.2037 367.87L78.6986 362.036C79.8389 361.148 80.8647 360.122 81.7524 358.982L87.5864 351.487C93.3797 344.044 104.63 344.044 110.424 351.487Z" stroke="black" stroke-opacity="0.36" stroke-width="2.99382"/>
<path d="M104.904 373.086L98.4615 386.475C98.1262 387.177 97.6392 387.529 97.0005 387.529C96.5854 387.529 96.2341 387.393 95.9467 387.121C95.6593 386.85 95.5156 386.491 95.5156 386.044C95.5156 385.74 95.5954 385.429 95.7551 385.11L101.934 372.943H94.6534C94.1105 372.943 93.7353 372.807 93.5277 372.535C93.3201 372.264 93.2163 371.969 93.2163 371.649C93.2163 371.33 93.3201 371.035 93.5277 370.763C93.7353 370.492 94.1105 370.356 94.6534 370.356H103.276C103.787 370.356 104.194 370.468 104.497 370.691C104.8 370.899 104.984 371.106 105.048 371.314C105.128 371.522 105.168 371.729 105.168 371.937C105.168 372.32 105.08 372.703 104.904 373.086Z" fill="black" fill-opacity="0.86"/>
<path d="M206.159 350.567C212.552 342.355 224.966 342.355 231.359 350.567L237.193 358.062C238.004 359.105 238.942 360.043 239.985 360.854L247.48 366.688C255.692 373.081 255.692 385.495 247.48 391.888L239.985 397.722C238.942 398.534 238.004 399.471 237.193 400.514L231.359 408.009C224.966 416.221 212.552 416.221 206.159 408.009L200.325 400.514C199.513 399.471 198.576 398.534 197.533 397.722L190.038 391.888C181.826 385.495 181.826 373.081 190.038 366.688L197.533 360.854C198.576 360.043 199.513 359.105 200.325 358.062L206.159 350.567Z" fill="white"/>
<path d="M230.177 351.487L236.011 358.982C236.899 360.122 237.925 361.148 239.065 362.036L246.56 367.87C254.003 373.663 254.003 384.913 246.56 390.707L239.065 396.541C237.925 397.428 236.899 398.454 236.011 399.595L230.177 407.089C224.384 414.532 213.134 414.532 207.34 407.089L201.506 399.595C200.619 398.454 199.593 397.428 198.453 396.541L190.958 390.707C183.515 384.913 183.515 373.663 190.958 367.87L198.453 362.036C199.593 361.148 200.619 360.122 201.506 358.982L207.34 351.487C213.134 344.044 224.384 344.044 230.177 351.487Z" stroke="black" stroke-opacity="0.36" stroke-width="2.99382"/>
<path d="M224.634 374.523C224.634 375.481 224.395 376.296 223.916 376.966C223.437 377.637 222.798 378.1 222 378.355V378.403C222.91 378.627 223.668 379.114 224.275 379.864C224.882 380.615 225.185 381.501 225.185 382.523C225.185 384.152 224.618 385.429 223.485 386.355C222.367 387.281 220.962 387.744 219.269 387.744C217.577 387.744 216.164 387.281 215.03 386.355C213.912 385.429 213.353 384.152 213.353 382.523C213.353 381.485 213.657 380.599 214.264 379.864C214.886 379.114 215.645 378.627 216.539 378.403V378.355C214.782 377.717 213.904 376.479 213.904 374.643C213.904 373.238 214.415 372.104 215.437 371.242C216.475 370.364 217.752 369.925 219.269 369.925C220.802 369.925 222.079 370.34 223.101 371.17C224.123 372.001 224.634 373.118 224.634 374.523ZM221.736 374.691C221.736 373.988 221.489 373.414 220.994 372.967C220.515 372.52 219.94 372.296 219.269 372.296C218.551 372.296 217.96 372.52 217.497 372.967C217.05 373.398 216.826 373.973 216.826 374.691C216.826 375.394 217.05 375.984 217.497 376.463C217.944 376.926 218.535 377.158 219.269 377.158C219.956 377.158 220.539 376.918 221.018 376.439C221.497 375.96 221.736 375.378 221.736 374.691ZM222.191 382.499C222.191 381.669 221.904 380.982 221.329 380.439C220.77 379.88 220.084 379.601 219.269 379.601C218.439 379.601 217.736 379.872 217.162 380.415C216.603 380.958 216.323 381.653 216.323 382.499C216.323 383.361 216.595 384.048 217.138 384.559C217.696 385.07 218.407 385.325 219.269 385.325C220.115 385.325 220.81 385.07 221.353 384.559C221.912 384.048 222.191 383.361 222.191 382.499Z" fill="black" fill-opacity="0.86"/>
<path d="M325.909 350.567C332.302 342.355 344.716 342.355 351.109 350.567L356.943 358.062C357.754 359.105 358.692 360.043 359.735 360.854L367.23 366.688C375.442 373.081 375.442 385.495 367.23 391.888L359.735 397.722C358.692 398.534 357.754 399.471 356.943 400.514L351.109 408.009C344.716 416.221 332.302 416.221 325.909 408.009L320.075 400.514C319.263 399.471 318.326 398.534 317.283 397.722L309.788 391.888C301.576 385.495 301.576 373.081 309.788 366.688L317.283 360.854C318.326 360.043 319.263 359.105 320.075 358.062L325.909 350.567Z" fill="white"/>
<path d="M349.927 351.487L355.761 358.982C356.649 360.122 357.675 361.148 358.815 362.036L366.31 367.87C373.753 373.663 373.753 384.913 366.31 390.707L358.815 396.541C357.675 397.428 356.649 398.454 355.761 399.595L349.927 407.089C344.134 414.532 332.884 414.532 327.09 407.089L321.256 399.595C320.369 398.454 319.343 397.428 318.203 396.541L310.708 390.707C303.265 384.913 303.265 373.663 310.708 367.87L318.203 362.036C319.343 361.148 320.369 360.122 321.256 358.982L327.09 351.487C332.884 344.044 344.134 344.044 349.927 351.487Z" stroke="black" stroke-opacity="0.36" stroke-width="2.99382"/>
<path d="M343.474 380.751L339.498 386.69C339.115 387.249 338.668 387.529 338.157 387.529C337.758 387.529 337.415 387.401 337.127 387.145C336.856 386.89 336.72 386.563 336.72 386.163C336.72 385.812 336.864 385.437 337.151 385.038L340.097 381.014L340.073 380.99C339.61 381.198 339.003 381.301 338.253 381.301C336.752 381.301 335.475 380.782 334.421 379.745C333.367 378.691 332.84 377.397 332.84 375.865C332.84 374.092 333.423 372.663 334.588 371.577C335.77 370.476 337.247 369.925 339.019 369.925C340.792 369.925 342.269 370.484 343.45 371.601C344.632 372.719 345.222 374.1 345.222 375.745C345.222 376.655 345.079 377.477 344.791 378.212C344.52 378.93 344.081 379.777 343.474 380.751ZM342.3 375.673C342.3 374.747 341.997 373.957 341.39 373.302C340.784 372.647 340.001 372.32 339.043 372.32C338.069 372.32 337.279 372.639 336.672 373.278C336.081 373.901 335.786 374.715 335.786 375.721C335.786 376.679 336.081 377.469 336.672 378.092C337.263 378.715 338.037 379.026 338.995 379.026C339.969 379.026 340.76 378.715 341.366 378.092C341.989 377.469 342.3 376.663 342.3 375.673Z" fill="black" fill-opacity="0.86"/>
<line x1="101.004" y1="268.517" x2="340.51" y2="268.517" stroke="black" stroke-opacity="0.12" stroke-width="3.99176"/>
<path d="M327.909 240.794C334.302 232.582 346.716 232.582 353.109 240.794L358.943 248.289C359.754 249.331 360.692 250.269 361.735 251.081L369.23 256.915C377.442 263.308 377.442 275.722 369.23 282.115L361.735 287.949C360.692 288.76 359.754 289.698 358.943 290.741L353.109 298.235C346.716 306.448 334.302 306.448 327.909 298.235L322.075 290.741C321.263 289.698 320.326 288.76 319.283 287.949L311.788 282.115C303.576 275.722 303.576 263.308 311.788 256.915L319.283 251.081C320.326 250.269 321.263 249.331 322.075 248.289L327.909 240.794Z" fill="#95C48C"/>
<path d="M342.049 270.554V263.488H342.001L337.067 270.554H342.049ZM344.875 270.554H346.049C346.592 270.554 346.959 270.69 347.151 270.961C347.358 271.216 347.462 271.488 347.462 271.775C347.462 271.951 347.43 272.119 347.366 272.278C347.318 272.438 347.183 272.606 346.959 272.781C346.735 272.941 346.432 273.021 346.049 273.021H344.875V275.2C344.875 275.775 344.724 276.182 344.42 276.422C344.117 276.645 343.797 276.757 343.462 276.757C343.127 276.757 342.808 276.645 342.504 276.422C342.201 276.182 342.049 275.775 342.049 275.2V273.021H335.87C335.183 273.021 334.696 272.845 334.409 272.494C334.137 272.143 334.002 271.783 334.002 271.416C334.002 270.953 334.177 270.474 334.529 269.979L341.139 260.59C341.714 259.776 342.36 259.369 343.079 259.369C343.51 259.369 343.917 259.521 344.3 259.824C344.684 260.127 344.875 260.686 344.875 261.501V270.554Z" fill="white"/>
<path d="M208.159 240.794C214.552 232.582 226.966 232.582 233.359 240.794L239.193 248.289C240.004 249.331 240.942 250.269 241.985 251.081L249.48 256.915C257.692 263.308 257.692 275.722 249.48 282.115L241.985 287.949C240.942 288.76 240.004 289.698 239.193 290.741L233.359 298.235C226.966 306.448 214.552 306.448 208.159 298.235L202.325 290.741C201.513 289.698 200.576 288.76 199.533 287.949L192.038 282.115C183.826 275.722 183.826 263.308 192.038 256.915L199.533 251.081C200.576 250.269 201.513 249.331 202.325 248.289L208.159 240.794Z" fill="white"/>
<path d="M232.177 241.714L238.011 249.208C238.899 250.349 239.925 251.374 241.065 252.262L248.56 258.096C256.003 263.889 256.003 275.14 248.56 280.933L241.065 286.767C239.925 287.655 238.899 288.681 238.011 289.821L232.177 297.316C226.384 304.758 215.134 304.758 209.34 297.316L203.506 289.821C202.619 288.681 201.593 287.655 200.453 286.767L192.958 280.933C185.515 275.14 185.515 263.889 192.958 258.096L200.453 252.262C201.593 251.374 202.619 250.349 203.506 249.208L209.34 241.714C215.134 234.271 226.384 234.271 232.177 241.714Z" stroke="black" stroke-opacity="0.36" stroke-width="2.99382"/>
<path d="M218.849 280.653L213.578 281.977C213.578 281.977 213.579 283.129 213.777 283.829C213.993 284.597 214.177 285.042 214.681 285.66C215.051 286.114 215.271 286.414 215.806 286.652C216.405 286.92 216.833 286.888 217.482 286.785C218.126 286.682 218.558 286.6 219.026 286.145C219.504 285.68 219.621 285.395 219.71 284.579C219.798 283.763 219.717 283.284 219.533 282.484C219.362 281.74 218.849 280.653 218.849 280.653Z" fill="#EF5C34"/>
<path d="M209.697 267.884C210.384 267.011 211.682 266.428 212.057 266.296C212.432 266.164 212.961 265.99 213.557 266.009C214.2 266.03 214.602 266.104 215.145 266.45C216.214 267.133 216.55 267.861 217.074 268.765C217.64 269.74 217.79 270.949 217.813 271.214C217.956 272.867 217.743 273.219 217.813 274.501C217.922 276.481 218.519 279.529 218.519 279.529L213.314 280.941C213.314 280.941 212.602 280.101 212.189 279.529C211.223 278.191 210.776 277.359 210.116 275.846C209.479 274.385 209.013 273.486 208.859 271.964C208.704 270.442 208.69 269.162 209.697 267.884Z" fill="#EF5C34"/>
<path d="M222.306 268.284L227.51 268.524C227.51 268.524 227.729 269.608 227.677 270.304C227.62 271.067 227.531 271.521 227.176 272.198C226.915 272.696 226.766 273.019 226.309 273.346C225.797 273.711 225.388 273.763 224.759 273.789C224.134 273.816 223.713 273.82 223.187 273.482C222.649 273.135 222.485 272.89 222.246 272.139C222.008 271.389 221.992 270.923 222.012 270.135C222.031 269.403 222.306 268.284 222.306 268.284Z" fill="#EF5C34"/>
<path d="M228.481 254.496C227.664 253.805 226.326 253.503 225.946 253.45C225.566 253.397 225.032 253.334 224.472 253.467C223.868 253.61 223.502 253.757 223.055 254.188C222.174 255.037 221.996 255.789 221.673 256.742C221.325 257.771 221.414 258.941 221.443 259.196C221.624 260.783 221.893 261.075 222.071 262.298C222.348 264.188 222.366 267.18 222.366 267.18L227.559 267.514C227.559 267.514 228.072 266.585 228.353 265.966C229.01 264.517 229.274 263.646 229.609 262.092C229.931 260.591 230.2 259.653 230.055 258.187C229.91 256.721 229.678 255.509 228.481 254.496Z" fill="#EF5C34"/>
<path d="M88.4052 240.794C94.7978 232.582 107.212 232.582 113.605 240.794L119.439 248.289C120.25 249.331 121.188 250.269 122.231 251.081L129.726 256.915C137.938 263.308 137.938 275.722 129.726 282.115L122.231 287.949C121.188 288.76 120.25 289.698 119.439 290.741L113.605 298.235C107.212 306.448 94.7978 306.448 88.4052 298.235L82.5711 290.741C81.7596 289.698 80.8217 288.76 79.7791 287.949L72.2843 282.115C64.0719 275.722 64.0719 263.308 72.2843 256.915L79.7791 251.081C80.8217 250.269 81.7596 249.331 82.5711 248.289L88.4052 240.794Z" fill="white"/>
<path d="M112.424 241.714L118.258 249.208C119.145 250.349 120.171 251.374 121.311 252.262L128.806 258.096C136.249 263.889 136.249 275.14 128.806 280.933L121.311 286.767C120.171 287.655 119.145 288.681 118.258 289.821L112.424 297.316C106.63 304.758 95.3797 304.758 89.5864 297.316L83.7524 289.821C82.8647 288.681 81.839 287.655 80.6986 286.767L73.2037 280.933C65.7613 275.14 65.7613 263.889 73.2037 258.096L80.6986 252.262C81.8389 251.374 82.8647 250.349 83.7524 249.208L89.5864 241.714C95.3797 234.271 106.63 234.271 112.424 241.714Z" stroke="black" stroke-opacity="0.36" stroke-width="2.99382"/>
<path d="M103.336 262.858L100.438 266.858L100.461 266.882C100.925 266.69 101.523 266.594 102.258 266.594C103.759 266.594 105.036 267.121 106.09 268.175C107.144 269.213 107.671 270.498 107.671 272.031C107.671 273.803 107.08 275.24 105.898 276.342C104.733 277.428 103.264 277.971 101.491 277.971C99.719 277.971 98.2421 277.412 97.0605 276.294C95.879 275.176 95.2882 273.795 95.2882 272.151C95.2882 271.225 95.4239 270.394 95.6953 269.66C95.9827 268.909 96.4298 268.071 97.0366 267.145L100.988 261.205C101.356 260.646 101.803 260.367 102.33 260.367C102.729 260.367 103.064 260.495 103.336 260.75C103.623 261.006 103.767 261.333 103.767 261.732C103.767 262.099 103.623 262.475 103.336 262.858ZM98.2101 272.223C98.2101 273.133 98.5055 273.915 99.0963 274.57C99.7031 275.208 100.493 275.528 101.467 275.528C102.441 275.528 103.224 275.224 103.815 274.618C104.421 273.995 104.725 273.181 104.725 272.175C104.725 271.217 104.429 270.426 103.839 269.804C103.248 269.181 102.473 268.869 101.515 268.869C100.541 268.869 99.743 269.181 99.1203 269.804C98.5135 270.426 98.2101 271.233 98.2101 272.223Z" fill="black" fill-opacity="0.86"/>
</g>
<defs>
<clipPath id="clip0_428_7148">
<rect width="440" height="380" rx="12" fill="white"/>
</clipPath>
</defs>
</svg>
