<svg width="380" height="380" viewBox="0 0 380 380" fill="none" xmlns="http://www.w3.org/2000/svg">
<g clip-path="url(#clip0_428_7148)">
<rect width="380" height="380" rx="12" fill="#F8F8F8"/>
<path d="M64.8405 58.464V60H57.5605V48.512H64.7285V50.048H59.3205V53.312H64.2485V54.848H59.3205V58.464H64.8405ZM71.9123 60V58.688C71.3843 59.632 70.4403 60.16 69.1923 60.16C67.4323 60.16 66.2803 59.152 66.2803 57.6C66.2803 55.936 67.6083 55.072 70.1363 55.072C70.6323 55.072 71.0323 55.088 71.7203 55.168V54.544C71.7203 53.328 71.0643 52.64 69.9443 52.64C68.7603 52.64 68.0403 53.344 67.9923 54.528H66.5203C66.6003 52.624 67.9603 51.36 69.9443 51.36C72.0403 51.36 73.2563 52.544 73.2563 54.56V60H71.9123ZM67.8163 57.552C67.8163 58.432 68.4723 59.008 69.5123 59.008C70.8723 59.008 71.7203 58.16 71.7203 56.864V56.176C71.0963 56.096 70.6483 56.08 70.2323 56.08C68.6163 56.08 67.8163 56.56 67.8163 57.552ZM78.7609 60.176C76.4409 60.176 74.8089 58.352 74.8089 55.76C74.8089 53.2 76.4729 51.36 78.7609 51.36C80.8569 51.36 82.3769 52.752 82.6809 54.96H80.9849C80.8089 53.6 79.9609 52.784 78.7769 52.784C77.3849 52.784 76.4729 53.968 76.4729 55.76C76.4729 57.568 77.3849 58.736 78.7769 58.736C79.9769 58.736 80.8089 57.936 81.0009 56.56H82.6809C82.3929 58.8 80.8889 60.176 78.7609 60.176ZM85.9235 55.216V60H84.3075V48.512H85.9235V52.88C86.4835 51.968 87.3475 51.36 88.5155 51.36C90.2595 51.36 91.4115 52.48 91.4115 54.512V60H89.7955V55.056C89.7955 53.6 89.1555 52.784 87.9555 52.784C86.8515 52.784 85.9235 53.712 85.9235 55.216ZM100.245 60.176C97.9253 60.176 96.2933 58.352 96.2933 55.76C96.2933 53.2 97.9573 51.36 100.245 51.36C102.341 51.36 103.861 52.752 104.165 54.96H102.469C102.293 53.6 101.445 52.784 100.261 52.784C98.8693 52.784 97.9573 53.968 97.9573 55.76C97.9573 57.568 98.8693 58.736 100.261 58.736C101.461 58.736 102.293 57.936 102.485 56.56H104.165C103.877 58.8 102.373 60.176 100.245 60.176ZM107.424 60H105.792V48.512H107.424V60ZM114.803 60V58.688C114.275 59.632 113.331 60.16 112.083 60.16C110.323 60.16 109.171 59.152 109.171 57.6C109.171 55.936 110.499 55.072 113.027 55.072C113.523 55.072 113.923 55.088 114.611 55.168V54.544C114.611 53.328 113.955 52.64 112.835 52.64C111.651 52.64 110.931 53.344 110.883 54.528H109.411C109.491 52.624 110.851 51.36 112.835 51.36C114.931 51.36 116.147 52.544 116.147 54.56V60H114.803ZM110.707 57.552C110.707 58.432 111.363 59.008 112.403 59.008C113.763 59.008 114.611 58.16 114.611 56.864V56.176C113.987 56.096 113.539 56.08 113.123 56.08C111.507 56.08 110.707 56.56 110.707 57.552ZM125.028 57.472C125.028 59.136 123.732 60.16 121.476 60.16C119.236 60.16 117.908 59.056 117.748 57.232H119.299C119.364 58.288 120.212 58.944 121.508 58.944C122.644 58.944 123.396 58.544 123.396 57.744C123.396 57.04 122.964 56.736 121.908 56.528L120.532 56.272C118.964 55.968 118.084 55.168 118.084 53.888C118.084 52.4 119.38 51.36 121.348 51.36C123.38 51.36 124.756 52.448 124.9 54.192H123.348C123.252 53.168 122.5 52.576 121.364 52.576C120.34 52.576 119.652 53.008 119.652 53.744C119.652 54.432 120.084 54.752 121.108 54.944L122.548 55.216C124.228 55.52 125.028 56.256 125.028 57.472ZM133.512 57.472C133.512 59.136 132.216 60.16 129.96 60.16C127.72 60.16 126.392 59.056 126.232 57.232H127.784C127.848 58.288 128.696 58.944 129.992 58.944C131.128 58.944 131.88 58.544 131.88 57.744C131.88 57.04 131.448 56.736 130.392 56.528L129.016 56.272C127.448 55.968 126.568 55.168 126.568 53.888C126.568 52.4 127.864 51.36 129.832 51.36C131.864 51.36 133.24 52.448 133.384 54.192H131.832C131.736 53.168 130.984 52.576 129.848 52.576C128.824 52.576 128.136 53.008 128.136 53.744C128.136 54.432 128.568 54.752 129.592 54.944L131.032 55.216C132.712 55.52 133.512 56.256 133.512 57.472ZM140.588 49.552C140.588 50.16 140.108 50.624 139.42 50.624C138.732 50.624 138.236 50.16 138.236 49.552C138.236 48.928 138.732 48.48 139.42 48.48C140.108 48.48 140.588 48.928 140.588 49.552ZM140.236 60H138.62V51.52H140.236V60ZM149.199 57.472C149.199 59.136 147.903 60.16 145.647 60.16C143.407 60.16 142.079 59.056 141.919 57.232H143.471C143.535 58.288 144.383 58.944 145.679 58.944C146.815 58.944 147.567 58.544 147.567 57.744C147.567 57.04 147.135 56.736 146.079 56.528L144.703 56.272C143.135 55.968 142.255 55.168 142.255 53.888C142.255 52.4 143.551 51.36 145.519 51.36C147.551 51.36 148.927 52.448 149.071 54.192H147.519C147.423 53.168 146.671 52.576 145.535 52.576C144.511 52.576 143.823 53.008 143.823 53.744C143.823 54.432 144.255 54.752 145.279 54.944L146.719 55.216C148.399 55.52 149.199 56.256 149.199 57.472ZM155.94 60H154.308V48.512H155.94V60ZM160.151 49.552C160.151 50.16 159.671 50.624 158.983 50.624C158.295 50.624 157.799 50.16 157.799 49.552C157.799 48.928 158.295 48.48 158.983 48.48C159.671 48.48 160.151 48.928 160.151 49.552ZM159.799 60H158.183V51.52H159.799V60ZM163.658 60H162.042V48.512H163.658V55.312L167.29 51.52H169.194L165.274 55.632L169.562 60H167.482L163.658 55.984V60ZM173.78 60.16C171.332 60.16 169.684 58.384 169.684 55.712C169.684 53.2 171.396 51.36 173.732 51.36C176.26 51.36 177.94 53.408 177.652 56.16H171.332C171.46 57.888 172.324 58.896 173.748 58.896C174.948 58.896 175.78 58.24 176.052 57.136H177.652C177.236 59.024 175.78 60.16 173.78 60.16ZM173.7 52.576C172.404 52.576 171.524 53.504 171.348 55.088H175.94C175.86 53.52 175.012 52.576 173.7 52.576ZM187.85 60V58.688C187.322 59.632 186.378 60.16 185.13 60.16C183.37 60.16 182.218 59.152 182.218 57.6C182.218 55.936 183.546 55.072 186.074 55.072C186.57 55.072 186.97 55.088 187.658 55.168V54.544C187.658 53.328 187.002 52.64 185.882 52.64C184.698 52.64 183.978 53.344 183.93 54.528H182.458C182.538 52.624 183.898 51.36 185.882 51.36C187.978 51.36 189.194 52.544 189.194 54.56V60H187.85ZM183.754 57.552C183.754 58.432 184.41 59.008 185.45 59.008C186.81 59.008 187.658 58.16 187.658 56.864V56.176C187.034 56.096 186.586 56.08 186.17 56.08C184.554 56.08 183.754 56.56 183.754 57.552ZM314.06 58.432V59.856C313.564 60.08 313.132 60.16 312.62 60.16C311.052 60.16 309.964 59.312 309.964 57.44V52.896H308.092V51.52H309.964V49.008H311.58V51.52H314.14V52.896H311.58V57.072C311.58 58.24 312.14 58.656 313.004 58.656C313.388 58.656 313.724 58.592 314.06 58.432ZM319 60.16C316.6 60.16 314.84 58.272 314.84 55.76C314.84 53.248 316.6 51.36 319 51.36C321.4 51.36 323.16 53.248 323.16 55.76C323.16 58.272 321.4 60.16 319 60.16ZM319 58.736C320.392 58.736 321.496 57.616 321.496 55.76C321.496 53.904 320.392 52.8 319 52.8C317.608 52.8 316.52 53.904 316.52 55.76C316.52 57.616 317.608 58.736 319 58.736ZM124.041 84H122.409V72.512H124.041V84ZM129.772 84.16C127.324 84.16 125.676 82.384 125.676 79.712C125.676 77.2 127.388 75.36 129.724 75.36C132.252 75.36 133.932 77.408 133.644 80.16H127.324C127.452 81.888 128.316 82.896 129.74 82.896C130.94 82.896 131.772 82.24 132.044 81.136H133.644C133.228 83.024 131.772 84.16 129.772 84.16ZM129.692 76.576C128.396 76.576 127.516 77.504 127.34 79.088H131.932C131.852 77.52 131.004 76.576 129.692 76.576ZM140.498 84V82.688C139.97 83.632 139.026 84.16 137.778 84.16C136.018 84.16 134.866 83.152 134.866 81.6C134.866 79.936 136.194 79.072 138.722 79.072C139.218 79.072 139.618 79.088 140.306 79.168V78.544C140.306 77.328 139.65 76.64 138.53 76.64C137.346 76.64 136.626 77.344 136.578 78.528H135.106C135.186 76.624 136.546 75.36 138.53 75.36C140.626 75.36 141.842 76.544 141.842 78.56V84H140.498ZM136.402 81.552C136.402 82.432 137.058 83.008 138.098 83.008C139.458 83.008 140.306 82.16 140.306 80.864V80.176C139.682 80.096 139.234 80.08 138.818 80.08C137.202 80.08 136.402 80.56 136.402 81.552ZM145.619 79.664V84H144.003V75.52H145.507V77.312C146.099 76.144 147.379 75.408 148.771 75.408V77.088C146.947 76.992 145.619 77.792 145.619 79.664ZM151.666 79.216V84H150.05V75.52H151.554V76.928C152.13 75.984 153.09 75.36 154.258 75.36C156.002 75.36 157.154 76.48 157.154 78.512V84H155.538V79.056C155.538 77.6 154.898 76.784 153.698 76.784C152.594 76.784 151.666 77.712 151.666 79.216ZM161.268 73.552C161.268 74.16 160.788 74.624 160.1 74.624C159.412 74.624 158.916 74.16 158.916 73.552C158.916 72.928 159.412 72.48 160.1 72.48C160.788 72.48 161.268 72.928 161.268 73.552ZM160.916 84H159.3V75.52H160.916V84ZM164.775 79.216V84H163.159V75.52H164.663V76.928C165.239 75.984 166.199 75.36 167.367 75.36C169.111 75.36 170.263 76.48 170.263 78.512V84H168.647V79.056C168.647 77.6 168.007 76.784 166.807 76.784C165.703 76.784 164.775 77.712 164.775 79.216ZM175.801 87.264C173.577 87.264 172.137 86.08 172.041 84.16H173.609C173.705 85.344 174.473 85.984 175.785 85.984C177.241 85.984 178.009 85.2 178.009 83.744V82.208C177.529 83.232 176.569 83.824 175.417 83.824C173.305 83.824 171.801 82.08 171.801 79.584C171.801 77.056 173.241 75.36 175.369 75.36C176.585 75.36 177.545 75.952 178.121 77.024V75.52H179.625V83.712C179.625 85.936 178.201 87.264 175.801 87.264ZM173.433 79.584C173.433 81.344 174.297 82.416 175.705 82.416C177.081 82.416 178.009 81.312 178.009 79.632C178.009 77.872 177.097 76.752 175.705 76.752C174.313 76.752 173.433 77.84 173.433 79.584ZM190.342 84V82.688C189.814 83.632 188.87 84.16 187.622 84.16C185.862 84.16 184.71 83.152 184.71 81.6C184.71 79.936 186.038 79.072 188.566 79.072C189.062 79.072 189.462 79.088 190.15 79.168V78.544C190.15 77.328 189.494 76.64 188.374 76.64C187.19 76.64 186.47 77.344 186.422 78.528H184.95C185.03 76.624 186.39 75.36 188.374 75.36C190.47 75.36 191.686 76.544 191.686 78.56V84H190.342ZM186.246 81.552C186.246 82.432 186.902 83.008 187.942 83.008C189.302 83.008 190.15 82.16 190.15 80.864V80.176C189.526 80.096 189.078 80.08 188.662 80.08C187.046 80.08 186.246 80.56 186.246 81.552ZM198.806 79.216V84H197.19V75.52H198.694V76.928C199.27 75.984 200.23 75.36 201.398 75.36C203.142 75.36 204.294 76.48 204.294 78.512V84H202.678V79.056C202.678 77.6 202.038 76.784 200.838 76.784C199.734 76.784 198.806 77.712 198.806 79.216ZM209.928 84.16C207.48 84.16 205.832 82.384 205.832 79.712C205.832 77.2 207.544 75.36 209.88 75.36C212.408 75.36 214.088 77.408 213.8 80.16H207.48C207.608 81.888 208.472 82.896 209.896 82.896C211.096 82.896 211.928 82.24 212.2 81.136H213.8C213.384 83.024 211.928 84.16 209.928 84.16ZM209.848 76.576C208.552 76.576 207.672 77.504 207.496 79.088H212.088C212.008 77.52 211.16 76.576 209.848 76.576ZM222.339 84L220.419 77.696L218.483 84H216.851L214.403 75.52H215.987L217.699 81.696L219.619 75.52H221.219L223.107 81.712L224.819 75.52H226.419L223.955 84H222.339ZM237.801 81.472C237.801 83.136 236.505 84.16 234.249 84.16C232.009 84.16 230.681 83.056 230.521 81.232H232.073C232.137 82.288 232.985 82.944 234.281 82.944C235.417 82.944 236.169 82.544 236.169 81.744C236.169 81.04 235.737 80.736 234.681 80.528L233.305 80.272C231.737 79.968 230.857 79.168 230.857 77.888C230.857 76.4 232.153 75.36 234.121 75.36C236.153 75.36 237.529 76.448 237.673 78.192H236.121C236.025 77.168 235.273 76.576 234.137 76.576C233.113 76.576 232.425 77.008 232.425 77.744C232.425 78.432 232.857 78.752 233.881 78.944L235.321 79.216C237.001 79.52 237.801 80.256 237.801 81.472ZM241.181 84H239.565V72.512H241.181V79.312L244.813 75.52H246.717L242.797 79.632L247.085 84H245.005L241.181 79.984V84ZM250.19 73.552C250.19 74.16 249.71 74.624 249.022 74.624C248.334 74.624 247.838 74.16 247.838 73.552C247.838 72.928 248.334 72.48 249.022 72.48C249.71 72.48 250.19 72.928 250.19 73.552ZM249.838 84H248.222V75.52H249.838V84ZM253.713 84H252.081V72.512H253.713V84ZM257.588 84H255.956V72.512H257.588V84Z" fill="#5C5C5C"/>
<path d="M201.418 57.472C201.418 59.136 200.122 60.16 197.866 60.16C195.626 60.16 194.298 59.056 194.138 57.232H195.69C195.754 58.288 196.602 58.944 197.898 58.944C199.034 58.944 199.786 58.544 199.786 57.744C199.786 57.04 199.354 56.736 198.298 56.528L196.922 56.272C195.354 55.968 194.474 55.168 194.474 53.888C194.474 52.4 195.77 51.36 197.738 51.36C199.77 51.36 201.146 52.448 201.29 54.192H199.738C199.642 53.168 198.89 52.576 197.754 52.576C196.73 52.576 196.042 53.008 196.042 53.744C196.042 54.432 196.474 54.752 197.498 54.944L198.938 55.216C200.618 55.52 201.418 56.256 201.418 57.472ZM207.857 58.432V59.856C207.361 60.08 206.929 60.16 206.417 60.16C204.849 60.16 203.761 59.312 203.761 57.44V52.896H201.889V51.52H203.761V49.008H205.377V51.52H207.937V52.896H205.377V57.072C205.377 58.24 205.937 58.656 206.801 58.656C207.185 58.656 207.521 58.592 207.857 58.432ZM212.733 60.16C210.285 60.16 208.637 58.384 208.637 55.712C208.637 53.2 210.349 51.36 212.685 51.36C215.213 51.36 216.893 53.408 216.605 56.16H210.285C210.413 57.888 211.277 58.896 212.701 58.896C213.901 58.896 214.733 58.24 215.005 57.136H216.605C216.189 59.024 214.733 60.16 212.733 60.16ZM212.653 52.576C211.357 52.576 210.477 53.504 210.301 55.088H214.893C214.813 53.52 213.965 52.576 212.653 52.576ZM226.419 55.76C226.419 58.32 224.947 60.16 222.675 60.16C221.523 60.16 220.547 59.584 219.939 58.56V63.088H218.323V51.52H219.827V53.072C220.435 51.984 221.475 51.36 222.675 51.36C224.931 51.36 226.419 53.2 226.419 55.76ZM224.739 55.76C224.739 53.856 223.731 52.784 222.339 52.784C220.995 52.784 219.939 53.856 219.939 55.76C219.939 57.632 220.979 58.72 222.339 58.72C223.731 58.72 224.739 57.664 224.739 55.76ZM236.154 55.76C236.154 58.32 234.682 60.16 232.41 60.16C231.258 60.16 230.282 59.584 229.674 58.56V63.088H228.058V51.52H229.562V53.072C230.17 51.984 231.21 51.36 232.41 51.36C234.666 51.36 236.154 53.2 236.154 55.76ZM234.474 55.76C234.474 53.856 233.466 52.784 232.074 52.784C230.73 52.784 229.674 53.856 229.674 55.76C229.674 57.632 230.714 58.72 232.074 58.72C233.466 58.72 234.474 57.664 234.474 55.76ZM239.76 49.552C239.76 50.16 239.28 50.624 238.592 50.624C237.904 50.624 237.408 50.16 237.408 49.552C237.408 48.928 237.904 48.48 238.592 48.48C239.28 48.48 239.76 48.928 239.76 49.552ZM239.408 60H237.792V51.52H239.408V60ZM243.267 55.216V60H241.651V51.52H243.155V52.928C243.731 51.984 244.691 51.36 245.859 51.36C247.603 51.36 248.755 52.48 248.755 54.512V60H247.139V55.056C247.139 53.6 246.499 52.784 245.299 52.784C244.195 52.784 243.267 53.712 243.267 55.216ZM254.293 63.264C252.069 63.264 250.629 62.08 250.533 60.16H252.101C252.197 61.344 252.965 61.984 254.277 61.984C255.733 61.984 256.501 61.2 256.501 59.744V58.208C256.021 59.232 255.061 59.824 253.909 59.824C251.797 59.824 250.293 58.08 250.293 55.584C250.293 53.056 251.733 51.36 253.861 51.36C255.077 51.36 256.037 51.952 256.613 53.024V51.52H258.117V59.712C258.117 61.936 256.693 63.264 254.293 63.264ZM251.925 55.584C251.925 57.344 252.789 58.416 254.197 58.416C255.573 58.416 256.501 57.312 256.501 55.632C256.501 53.872 255.589 52.752 254.197 52.752C252.805 52.752 251.925 53.84 251.925 55.584ZM270.418 57.472C270.418 59.136 269.122 60.16 266.866 60.16C264.626 60.16 263.298 59.056 263.138 57.232H264.69C264.754 58.288 265.602 58.944 266.898 58.944C268.034 58.944 268.786 58.544 268.786 57.744C268.786 57.04 268.354 56.736 267.298 56.528L265.922 56.272C264.354 55.968 263.474 55.168 263.474 53.888C263.474 52.4 264.77 51.36 266.738 51.36C268.77 51.36 270.146 52.448 270.29 54.192H268.738C268.642 53.168 267.89 52.576 266.754 52.576C265.73 52.576 265.042 53.008 265.042 53.744C265.042 54.432 265.474 54.752 266.498 54.944L267.938 55.216C269.618 55.52 270.418 56.256 270.418 57.472ZM276.857 58.432V59.856C276.361 60.08 275.929 60.16 275.417 60.16C273.849 60.16 272.761 59.312 272.761 57.44V52.896H270.889V51.52H272.761V49.008H274.377V51.52H276.937V52.896H274.377V57.072C274.377 58.24 274.937 58.656 275.801 58.656C276.185 58.656 276.521 58.592 276.857 58.432ZM281.797 60.16C279.397 60.16 277.637 58.272 277.637 55.76C277.637 53.248 279.397 51.36 281.797 51.36C284.197 51.36 285.957 53.248 285.957 55.76C285.957 58.272 284.197 60.16 281.797 60.16ZM281.797 58.736C283.189 58.736 284.293 57.616 284.293 55.76C284.293 53.904 283.189 52.8 281.797 52.8C280.405 52.8 279.317 53.904 279.317 55.76C279.317 57.616 280.405 58.736 281.797 58.736ZM289.22 55.216V60H287.604V51.52H289.108V52.928C289.684 51.984 290.644 51.36 291.812 51.36C293.556 51.36 294.708 52.48 294.708 54.512V60H293.092V55.056C293.092 53.6 292.452 52.784 291.252 52.784C290.148 52.784 289.22 53.712 289.22 55.216ZM300.342 60.16C297.894 60.16 296.246 58.384 296.246 55.712C296.246 53.2 297.958 51.36 300.294 51.36C302.822 51.36 304.502 53.408 304.214 56.16H297.894C298.022 57.888 298.886 58.896 300.31 58.896C301.51 58.896 302.342 58.24 302.614 57.136H304.214C303.798 59.024 302.342 60.16 300.342 60.16ZM300.262 52.576C298.966 52.576 298.086 53.504 297.91 55.088H302.502C302.422 53.52 301.574 52.576 300.262 52.576Z" fill="#67B882"/>
<line x1="303.046" y1="156.874" x2="303.046" y2="264.451" stroke="black" stroke-opacity="0.12" stroke-width="3.64669"/>
<line x1="81.5039" y1="155.962" x2="300.305" y2="155.962" stroke="black" stroke-opacity="0.12" stroke-width="3.64669"/>
<path d="M69.9951 130.636C75.8351 123.134 87.1763 123.134 93.0163 130.636L98.346 137.483C99.0874 138.435 99.9442 139.292 100.897 140.034L107.744 145.363C115.246 151.203 115.246 162.544 107.744 168.384L100.897 173.714C99.9442 174.456 99.0874 175.312 98.346 176.265L93.0163 183.112C87.1763 190.614 75.8351 190.614 69.9951 183.112L64.6654 176.265C63.924 175.312 63.0672 174.456 62.1148 173.714L55.2678 168.384C47.7654 162.544 47.7654 151.203 55.2678 145.363L62.1148 140.034C63.0672 139.292 63.924 138.435 64.6654 137.483L69.9951 130.636Z" fill="#95C48C"/>
<path d="M80.5523 162.753V151.725L78.3205 153.563C78.0433 153.782 77.7443 153.891 77.4234 153.891C77.1025 153.891 76.8326 153.782 76.6138 153.563C76.395 153.344 76.2856 153.067 76.2856 152.732C76.2856 152.353 76.4899 151.995 76.8983 151.66L80.3116 148.903C80.7784 148.524 81.216 148.334 81.6244 148.334C81.8578 148.334 82.0766 148.37 82.2808 148.443C82.485 148.502 82.6819 148.677 82.8716 148.968C83.0758 149.246 83.1779 149.618 83.1779 150.084V162.753C83.1779 163.307 83.0393 163.694 82.7622 163.913C82.485 164.117 82.186 164.219 81.8651 164.219C81.7338 164.219 81.6025 164.197 81.4712 164.153C81.34 164.124 81.2014 164.066 81.0555 163.978C80.9096 163.876 80.7857 163.723 80.6836 163.519C80.596 163.3 80.5523 163.045 80.5523 162.753Z" fill="white"/>
<path d="M179.397 130.636C185.237 123.134 196.579 123.134 202.419 130.636L207.748 137.483C208.49 138.435 209.347 139.292 210.299 140.034L217.146 145.363C224.648 151.203 224.648 162.544 217.146 168.384L210.299 173.714C209.347 174.456 208.49 175.312 207.748 176.265L202.419 183.112C196.579 190.614 185.237 190.614 179.397 183.112L174.068 176.265C173.326 175.312 172.47 174.456 171.517 173.714L164.67 168.384C157.168 162.544 157.168 151.203 164.67 145.363L171.517 140.034C172.47 139.292 173.326 138.435 174.068 137.483L179.397 130.636Z" fill="#95C48C"/>
<path d="M185.706 150.96C186.129 150.099 186.756 149.413 187.588 148.903C188.434 148.392 189.396 148.137 190.476 148.137C191.905 148.137 193.123 148.538 194.13 149.34C195.136 150.143 195.64 151.251 195.64 152.666C195.64 153.585 195.421 154.409 194.983 155.139C194.56 155.853 193.947 156.59 193.145 157.349L188.682 161.615H194.524C195.02 161.615 195.362 161.746 195.552 162.009C195.756 162.257 195.858 162.527 195.858 162.819C195.858 162.994 195.829 163.161 195.771 163.322C195.712 163.482 195.574 163.643 195.355 163.803C195.151 163.949 194.874 164.022 194.524 164.022H186.931C185.75 164.022 185.159 163.562 185.159 162.644C185.159 162.133 185.458 161.586 186.056 161.003L191.329 155.751C192.379 154.73 192.905 153.716 192.905 152.71C192.905 151.995 192.671 151.419 192.204 150.981C191.738 150.544 191.147 150.325 190.432 150.325C189.353 150.325 188.558 150.887 188.047 152.01C187.741 152.666 187.303 152.994 186.734 152.994C186.384 152.994 186.085 152.878 185.837 152.644C185.604 152.411 185.487 152.119 185.487 151.769C185.487 151.521 185.56 151.251 185.706 150.96Z" fill="white"/>
<path d="M288.796 130.636C294.636 123.134 305.977 123.134 311.817 130.636L317.147 137.483C317.888 138.435 318.745 139.292 319.697 140.034L326.544 145.363C334.047 151.203 334.047 162.544 326.544 168.384L319.697 173.714C318.745 174.456 317.888 175.312 317.147 176.265L311.817 183.112C305.977 190.614 294.636 190.614 288.796 183.112L283.466 176.265C282.725 175.312 281.868 174.456 280.916 173.714L274.069 168.384C266.566 162.544 266.566 151.203 274.069 145.363L280.916 140.034C281.868 139.292 282.725 138.435 283.466 137.483L288.796 130.636Z" fill="#95C48C"/>
<path d="M296.771 160.849C297.428 161.739 298.325 162.184 299.462 162.184C300.236 162.184 300.899 161.973 301.454 161.55C302.022 161.127 302.307 160.485 302.307 159.624C302.307 158.997 302.103 158.479 301.694 158.071C301.3 157.662 300.863 157.392 300.381 157.261C299.915 157.13 299.441 157.064 298.959 157.064C298.492 157.064 298.164 156.947 297.975 156.714C297.785 156.466 297.69 156.211 297.69 155.948C297.69 155.686 297.785 155.438 297.975 155.204C298.164 154.971 298.492 154.854 298.959 154.854C299.295 154.854 299.616 154.825 299.922 154.767C300.228 154.694 300.535 154.584 300.841 154.438C301.162 154.278 301.417 154.037 301.607 153.716C301.796 153.396 301.891 153.009 301.891 152.557C301.891 151.886 301.65 151.346 301.169 150.938C300.702 150.529 300.126 150.325 299.441 150.325C298.507 150.325 297.763 150.755 297.209 151.616C296.932 152.039 296.567 152.25 296.115 152.25C295.779 152.25 295.495 152.148 295.261 151.944C295.043 151.725 294.933 151.448 294.933 151.113C294.933 150.792 295.079 150.442 295.371 150.062C296.334 148.779 297.727 148.137 299.55 148.137C300.979 148.137 302.168 148.509 303.116 149.253C304.065 149.997 304.539 151.04 304.539 152.382C304.539 153.213 304.283 153.957 303.773 154.614C303.262 155.255 302.591 155.678 301.76 155.883V155.926C302.708 156.116 303.474 156.546 304.057 157.217C304.655 157.888 304.954 158.698 304.954 159.646C304.954 161.148 304.415 162.323 303.335 163.169C302.256 164 300.994 164.416 299.55 164.416C297.362 164.416 295.757 163.723 294.736 162.337C294.474 161.987 294.343 161.644 294.343 161.309C294.343 160.959 294.459 160.674 294.693 160.456C294.941 160.222 295.24 160.105 295.59 160.105C296.027 160.105 296.421 160.353 296.771 160.849Z" fill="white"/>
<line x1="81.503" y1="263.54" x2="81.503" y2="371.117" stroke="black" stroke-opacity="0.12" stroke-width="3.64669"/>
<line x1="79.6797" y1="362.912" x2="298.481" y2="362.912" stroke="black" stroke-opacity="0.12" stroke-width="3.64669"/>
<path d="M68.1709 337.586C74.0109 330.083 85.3521 330.083 91.1921 337.586L96.5218 344.433C97.2632 345.385 98.1199 346.242 99.0724 346.983L105.919 352.313C113.422 358.153 113.422 369.494 105.919 375.334L99.0724 380.664C98.12 381.405 97.2632 382.262 96.5218 383.215L91.1921 390.061C85.3521 397.564 74.0109 397.564 68.1709 390.061L62.8412 383.215C62.0998 382.262 61.243 381.405 60.2905 380.664L53.4436 375.334C45.9411 369.494 45.9411 358.153 53.4436 352.313L60.2905 346.983C61.243 346.242 62.0998 345.385 62.8412 344.433L68.1709 337.586Z" fill="white"/>
<path d="M90.1129 338.426L95.4426 345.273C96.2536 346.314 97.1907 347.251 98.2324 348.062L105.079 353.392C111.878 358.685 111.878 368.963 105.079 374.255L98.2324 379.585C97.1907 380.396 96.2536 381.333 95.4426 382.375L90.1129 389.221C84.8205 396.021 74.5425 396.021 69.25 389.221L63.9203 382.375C63.1094 381.333 62.1723 380.396 61.1305 379.585L54.2836 374.255C47.4845 368.963 47.4845 358.685 54.2836 353.392L61.1305 348.062C62.1723 347.251 63.1094 346.314 63.9203 345.273L69.25 338.426C74.5425 331.627 84.8205 331.627 90.1129 338.426Z" stroke="black" stroke-opacity="0.36" stroke-width="2.73502"/>
<path d="M84.22 358.887L78.3342 371.117C78.0279 371.759 77.583 372.08 76.9995 372.08C76.6203 372.08 76.2994 371.956 76.0368 371.708C75.7742 371.46 75.643 371.132 75.643 370.724C75.643 370.447 75.7159 370.162 75.8618 369.87L81.5068 358.755H74.8553C74.3593 358.755 74.0165 358.631 73.8269 358.383C73.6373 358.135 73.5425 357.865 73.5425 357.574C73.5425 357.282 73.6373 357.012 73.8269 356.764C74.0165 356.516 74.3593 356.392 74.8553 356.392H82.7321C83.1989 356.392 83.5709 356.494 83.848 356.698C84.1251 356.888 84.2929 357.078 84.3512 357.267C84.4242 357.457 84.4606 357.647 84.4606 357.836C84.4606 358.186 84.3804 358.536 84.22 358.887Z" fill="black" fill-opacity="0.86"/>
<path d="M177.573 337.586C183.413 330.083 194.754 330.083 200.594 337.586L205.924 344.433C206.666 345.385 207.522 346.242 208.475 346.983L215.322 352.313C222.824 358.153 222.824 369.494 215.322 375.334L208.475 380.664C207.522 381.405 206.666 382.262 205.924 383.215L200.594 390.061C194.754 397.564 183.413 397.564 177.573 390.061L172.244 383.215C171.502 382.262 170.645 381.405 169.693 380.664L162.846 375.334C155.343 369.494 155.343 358.153 162.846 352.313L169.693 346.983C170.645 346.242 171.502 345.385 172.244 344.433L177.573 337.586Z" fill="white"/>
<path d="M199.515 338.426L204.845 345.273C205.656 346.314 206.593 347.251 207.635 348.062L214.482 353.392C221.281 358.685 221.281 368.963 214.482 374.255L207.635 379.585C206.593 380.396 205.656 381.333 204.845 382.375L199.515 389.221C194.223 396.021 183.945 396.021 178.652 389.221L173.323 382.375C172.512 381.333 171.575 380.396 170.533 379.585L163.686 374.255C156.887 368.963 156.887 358.685 163.686 353.392L170.533 348.062C171.575 347.251 172.512 346.314 173.323 345.273L178.652 338.426C183.945 331.627 194.223 331.627 199.515 338.426Z" stroke="black" stroke-opacity="0.36" stroke-width="2.73502"/>
<path d="M193.597 360.199C193.597 361.075 193.378 361.818 192.94 362.431C192.503 363.044 191.919 363.467 191.19 363.7V363.744C192.021 363.948 192.714 364.393 193.268 365.079C193.823 365.764 194.1 366.574 194.1 367.507C194.1 368.995 193.582 370.162 192.546 371.008C191.525 371.854 190.242 372.277 188.695 372.277C187.149 372.277 185.858 371.854 184.823 371.008C183.802 370.162 183.291 368.995 183.291 367.507C183.291 366.559 183.568 365.75 184.122 365.079C184.691 364.393 185.384 363.948 186.201 363.744V363.7C184.596 363.117 183.794 361.986 183.794 360.309C183.794 359.025 184.261 357.989 185.195 357.202C186.143 356.399 187.31 355.998 188.695 355.998C190.096 355.998 191.263 356.378 192.196 357.136C193.13 357.895 193.597 358.916 193.597 360.199ZM190.949 360.352C190.949 359.711 190.723 359.186 190.271 358.777C189.833 358.369 189.308 358.164 188.695 358.164C188.039 358.164 187.499 358.369 187.076 358.777C186.668 359.171 186.464 359.696 186.464 360.352C186.464 360.994 186.668 361.534 187.076 361.972C187.485 362.395 188.024 362.606 188.695 362.606C189.323 362.606 189.855 362.387 190.293 361.95C190.73 361.512 190.949 360.98 190.949 360.352ZM191.365 367.485C191.365 366.727 191.102 366.1 190.577 365.604C190.067 365.093 189.439 364.838 188.695 364.838C187.937 364.838 187.295 365.086 186.77 365.582C186.259 366.078 186.004 366.712 186.004 367.485C186.004 368.273 186.252 368.9 186.748 369.367C187.259 369.834 187.908 370.067 188.695 370.067C189.468 370.067 190.103 369.834 190.599 369.367C191.109 368.9 191.365 368.273 191.365 367.485Z" fill="black" fill-opacity="0.86"/>
<path d="M286.972 337.586C292.812 330.083 304.153 330.083 309.993 337.586L315.323 344.433C316.064 345.385 316.921 346.242 317.873 346.983L324.72 352.313C332.223 358.153 332.223 369.494 324.72 375.334L317.873 380.664C316.921 381.405 316.064 382.262 315.323 383.215L309.993 390.061C304.153 397.564 292.812 397.564 286.972 390.061L281.642 383.215C280.901 382.262 280.044 381.405 279.091 380.664L272.244 375.334C264.742 369.494 264.742 358.153 272.244 352.313L279.091 346.983C280.044 346.242 280.901 345.385 281.642 344.433L286.972 337.586Z" fill="white"/>
<path d="M308.914 338.426L314.243 345.273C315.054 346.314 315.991 347.251 317.033 348.062L323.88 353.392C330.679 358.685 330.679 368.963 323.88 374.255L317.033 379.585C315.991 380.396 315.054 381.333 314.243 382.375L308.914 389.221C303.621 396.021 293.343 396.021 288.051 389.221L282.721 382.375C281.91 381.333 280.973 380.396 279.931 379.585L273.084 374.255C266.285 368.963 266.285 358.685 273.084 353.392L279.931 348.062C280.973 347.251 281.91 346.314 282.721 345.273L288.051 338.426C293.343 331.627 303.621 331.627 308.914 338.426Z" stroke="black" stroke-opacity="0.36" stroke-width="2.73502"/>
<path d="M302.167 365.888L298.535 371.314C298.185 371.825 297.777 372.08 297.31 372.08C296.945 372.08 296.632 371.964 296.369 371.73C296.121 371.497 295.997 371.198 295.997 370.833C295.997 370.512 296.129 370.169 296.391 369.805L299.082 366.129L299.06 366.107C298.637 366.297 298.083 366.391 297.398 366.391C296.026 366.391 294.859 365.917 293.897 364.969C292.934 364.006 292.453 362.825 292.453 361.425C292.453 359.805 292.985 358.5 294.05 357.508C295.129 356.502 296.479 355.998 298.098 355.998C299.717 355.998 301.066 356.509 302.146 357.53C303.225 358.551 303.765 359.813 303.765 361.315C303.765 362.147 303.633 362.898 303.371 363.569C303.123 364.225 302.722 364.998 302.167 365.888ZM301.095 361.25C301.095 360.404 300.818 359.681 300.264 359.083C299.71 358.485 298.995 358.186 298.12 358.186C297.23 358.186 296.508 358.478 295.953 359.062C295.414 359.63 295.144 360.374 295.144 361.293C295.144 362.169 295.414 362.891 295.953 363.459C296.493 364.028 297.201 364.313 298.076 364.313C298.966 364.313 299.688 364.028 300.242 363.459C300.811 362.891 301.095 362.154 301.095 361.25Z" fill="black" fill-opacity="0.86"/>
<line x1="81.5078" y1="262.627" x2="300.309" y2="262.627" stroke="black" stroke-opacity="0.12" stroke-width="3.64669"/>
<path d="M288.796 237.301C294.636 229.799 305.977 229.799 311.817 237.301L317.147 244.148C317.888 245.1 318.745 245.957 319.697 246.699L326.544 252.028C334.047 257.868 334.047 269.21 326.544 275.049L319.697 280.379C318.745 281.121 317.888 281.977 317.147 282.93L311.817 289.777C305.977 297.279 294.636 297.279 288.796 289.777L283.466 282.93C282.725 281.977 281.868 281.121 280.916 280.379L274.069 275.049C266.566 269.21 266.566 257.868 274.069 252.028L280.916 246.699C281.868 245.957 282.725 245.1 283.466 244.148L288.796 237.301Z" fill="#95C48C"/>
<path d="M300.863 265.217V258.762H300.819L296.312 265.217H300.863ZM303.445 265.217H304.517C305.013 265.217 305.348 265.341 305.523 265.589C305.713 265.822 305.808 266.07 305.808 266.333C305.808 266.493 305.779 266.646 305.72 266.792C305.676 266.938 305.552 267.091 305.348 267.252C305.144 267.398 304.867 267.471 304.517 267.471H303.445V269.462C303.445 269.987 303.306 270.359 303.029 270.578C302.752 270.782 302.46 270.884 302.154 270.884C301.847 270.884 301.556 270.782 301.279 270.578C301.001 270.359 300.863 269.987 300.863 269.462V267.471H295.218C294.59 267.471 294.146 267.31 293.883 266.989C293.635 266.668 293.511 266.34 293.511 266.005C293.511 265.582 293.672 265.144 293.992 264.692L300.031 256.115C300.556 255.371 301.147 254.999 301.804 254.999C302.197 254.999 302.569 255.138 302.92 255.415C303.27 255.692 303.445 256.202 303.445 256.946V265.217Z" fill="white"/>
<path d="M179.401 237.301C185.241 229.799 196.583 229.799 202.423 237.301L207.752 244.148C208.494 245.1 209.35 245.957 210.303 246.699L217.15 252.028C224.652 257.868 224.652 269.21 217.15 275.049L210.303 280.379C209.35 281.121 208.494 281.977 207.752 282.93L202.423 289.777C196.583 297.279 185.241 297.279 179.401 289.777L174.072 282.93C173.33 281.977 172.473 281.121 171.521 280.379L164.674 275.049C157.172 269.21 157.172 257.868 164.674 252.028L171.521 246.699C172.473 245.957 173.33 245.1 174.072 244.148L179.401 237.301Z" fill="white"/>
<path d="M201.343 238.141L206.673 244.988C207.484 246.03 208.421 246.967 209.463 247.778L216.31 253.107C223.109 258.4 223.109 268.678 216.31 273.97L209.463 279.3C208.421 280.111 207.484 281.048 206.673 282.09L201.343 288.937C196.051 295.736 185.773 295.736 180.48 288.937L175.151 282.09C174.34 281.048 173.403 280.111 172.361 279.3L165.514 273.97C158.715 268.678 158.715 258.4 165.514 253.107L172.361 247.778C173.403 246.967 174.34 246.03 175.151 244.988L180.48 238.141C185.773 231.342 196.051 231.342 201.343 238.141Z" stroke="black" stroke-opacity="0.36" stroke-width="2.73502"/>
<path d="M189.171 273.715L184.355 274.924C184.355 274.924 184.357 275.976 184.537 276.616C184.734 277.317 184.903 277.724 185.363 278.289C185.701 278.704 185.902 278.977 186.39 279.195C186.938 279.44 187.329 279.41 187.922 279.316C188.511 279.223 188.905 279.148 189.332 278.732C189.769 278.307 189.876 278.047 189.957 277.301C190.037 276.556 189.964 276.118 189.796 275.387C189.64 274.708 189.171 273.715 189.171 273.715Z" fill="#EF5C34"/>
<path d="M180.809 262.049C181.437 261.252 182.623 260.719 182.965 260.598C183.308 260.477 183.791 260.319 184.335 260.336C184.923 260.355 185.29 260.423 185.786 260.739C186.763 261.363 187.07 262.028 187.549 262.854C188.065 263.745 188.203 264.849 188.224 265.091C188.355 266.601 188.16 266.923 188.224 268.094C188.323 269.902 188.869 272.688 188.869 272.688L184.114 273.977C184.114 273.977 183.463 273.21 183.086 272.688C182.204 271.465 181.795 270.705 181.192 269.323C180.61 267.988 180.184 267.167 180.043 265.776C179.902 264.386 179.889 263.216 180.809 262.049Z" fill="#EF5C34"/>
<path d="M192.328 262.414L197.082 262.634C197.082 262.634 197.282 263.624 197.234 264.26C197.182 264.957 197.102 265.371 196.777 265.99C196.539 266.445 196.402 266.74 195.985 267.038C195.517 267.373 195.144 267.42 194.569 267.444C193.998 267.468 193.613 267.472 193.133 267.163C192.641 266.846 192.491 266.622 192.273 265.937C192.055 265.251 192.041 264.825 192.06 264.106C192.077 263.437 192.328 262.414 192.328 262.414Z" fill="#EF5C34"/>
<path d="M197.971 249.819C197.224 249.187 196.001 248.911 195.654 248.863C195.307 248.814 194.82 248.757 194.308 248.878C193.756 249.009 193.421 249.143 193.013 249.537C192.209 250.312 192.045 250.999 191.751 251.87C191.432 252.811 191.514 253.879 191.54 254.112C191.706 255.562 191.951 255.828 192.115 256.946C192.367 258.672 192.384 261.406 192.384 261.406L197.128 261.711C197.128 261.711 197.597 260.862 197.853 260.297C198.453 258.973 198.695 258.178 199 256.758C199.295 255.387 199.541 254.53 199.408 253.19C199.275 251.851 199.064 250.744 197.971 249.819Z" fill="#EF5C34"/>
<path d="M69.9951 237.301C75.8351 229.799 87.1763 229.799 93.0163 237.301L98.346 244.148C99.0874 245.1 99.9442 245.957 100.897 246.699L107.744 252.028C115.246 257.868 115.246 269.21 107.744 275.049L100.897 280.379C99.9442 281.121 99.0874 281.977 98.346 282.93L93.0163 289.777C87.1763 297.279 75.8351 297.279 69.9951 289.777L64.6654 282.93C63.924 281.977 63.0672 281.121 62.1148 280.379L55.2678 275.049C47.7654 269.21 47.7654 257.868 55.2678 252.028L62.1148 246.699C63.0672 245.957 63.924 245.1 64.6654 244.148L69.9951 237.301Z" fill="white"/>
<path d="M91.9372 238.141L97.2669 244.988C98.0778 246.03 99.0149 246.967 100.057 247.778L106.904 253.107C113.703 258.4 113.703 268.678 106.904 273.97L100.057 279.3C99.0149 280.111 98.0778 281.048 97.2669 282.09L91.9372 288.937C86.6447 295.736 76.3667 295.736 71.0742 288.937L65.7445 282.09C64.9336 281.048 63.9965 280.111 62.9547 279.3L56.1078 273.97C49.3087 268.678 49.3087 258.4 56.1078 253.107L62.9547 247.778C63.9965 246.967 64.9336 246.03 65.7445 244.988L71.0742 238.141C76.3667 231.342 86.6447 231.342 91.9372 238.141Z" stroke="black" stroke-opacity="0.36" stroke-width="2.73502"/>
<path d="M82.784 258.186L80.1365 261.84L80.1584 261.862C80.5814 261.687 81.1284 261.599 81.7994 261.599C83.1706 261.599 84.3375 262.081 85.3003 263.044C86.263 263.992 86.7443 265.166 86.7443 266.566C86.7443 268.185 86.2046 269.498 85.1252 270.505C84.0604 271.497 82.7184 271.992 81.0993 271.992C79.4801 271.992 78.1309 271.482 77.0515 270.461C75.972 269.44 75.4323 268.178 75.4323 266.676C75.4323 265.83 75.5563 265.071 75.8043 264.4C76.0668 263.714 76.4753 262.949 77.0296 262.103L80.6398 256.676C80.9753 256.166 81.3837 255.911 81.8651 255.911C82.2297 255.911 82.5361 256.027 82.784 256.261C83.0466 256.494 83.1779 256.793 83.1779 257.158C83.1779 257.493 83.0466 257.836 82.784 258.186ZM78.1017 266.741C78.1017 267.573 78.3716 268.287 78.9113 268.885C79.4656 269.469 80.1876 269.761 81.0774 269.761C81.9672 269.761 82.6819 269.484 83.2216 268.929C83.7759 268.36 84.0531 267.616 84.0531 266.697C84.0531 265.822 83.7832 265.1 83.2435 264.531C82.7038 263.962 81.9964 263.678 81.1212 263.678C80.2314 263.678 79.502 263.962 78.9331 264.531C78.3788 265.1 78.1017 265.837 78.1017 266.741Z" fill="black" fill-opacity="0.86"/>
</g>
<defs>
<clipPath id="clip0_428_7148">
<rect width="380" height="380" rx="12" fill="white"/>
</clipPath>
</defs>
</svg>
