<svg width="313" height="380" viewBox="0 0 313 380" fill="none" xmlns="http://www.w3.org/2000/svg">
<rect width="313" height="380" rx="12" fill="#F8F8F8"/>
<path d="M40.9577 43.464V45H33.6777V33.512H40.8457V35.048H35.4377V38.312H40.3657V39.848H35.4377V43.464H40.9577ZM48.0294 45V43.688C47.5014 44.632 46.5574 45.16 45.3094 45.16C43.5494 45.16 42.3974 44.152 42.3974 42.6C42.3974 40.936 43.7254 40.072 46.2534 40.072C46.7494 40.072 47.1494 40.088 47.8374 40.168V39.544C47.8374 38.328 47.1814 37.64 46.0614 37.64C44.8774 37.64 44.1574 38.344 44.1094 39.528H42.6374C42.7174 37.624 44.0774 36.36 46.0614 36.36C48.1574 36.36 49.3734 37.544 49.3734 39.56V45H48.0294ZM43.9334 42.552C43.9334 43.432 44.5894 44.008 45.6294 44.008C46.9894 44.008 47.8374 43.16 47.8374 41.864V41.176C47.2134 41.096 46.7654 41.08 46.3494 41.08C44.7334 41.08 43.9334 41.56 43.9334 42.552ZM54.8781 45.176C52.5581 45.176 50.9261 43.352 50.9261 40.76C50.9261 38.2 52.5901 36.36 54.8781 36.36C56.9741 36.36 58.4941 37.752 58.7981 39.96H57.1021C56.9261 38.6 56.0781 37.784 54.8941 37.784C53.5021 37.784 52.5901 38.968 52.5901 40.76C52.5901 42.568 53.5021 43.736 54.8941 43.736C56.0941 43.736 56.9261 42.936 57.1181 41.56H58.7981C58.5101 43.8 57.0061 45.176 54.8781 45.176ZM62.0407 40.216V45H60.4247V33.512H62.0407V37.88C62.6007 36.968 63.4647 36.36 64.6327 36.36C66.3767 36.36 67.5287 37.48 67.5287 39.512V45H65.9127V40.056C65.9127 38.6 65.2727 37.784 64.0727 37.784C62.9687 37.784 62.0407 38.712 62.0407 40.216ZM76.3624 45.176C74.0424 45.176 72.4104 43.352 72.4104 40.76C72.4104 38.2 74.0744 36.36 76.3624 36.36C78.4584 36.36 79.9784 37.752 80.2824 39.96H78.5864C78.4104 38.6 77.5624 37.784 76.3784 37.784C74.9864 37.784 74.0744 38.968 74.0744 40.76C74.0744 42.568 74.9864 43.736 76.3784 43.736C77.5784 43.736 78.4104 42.936 78.6024 41.56H80.2824C79.9944 43.8 78.4904 45.176 76.3624 45.176ZM83.5411 45H81.9091V33.512H83.5411V45ZM90.9201 45V43.688C90.3921 44.632 89.4481 45.16 88.2001 45.16C86.4401 45.16 85.2881 44.152 85.2881 42.6C85.2881 40.936 86.6161 40.072 89.1441 40.072C89.6401 40.072 90.0401 40.088 90.7281 40.168V39.544C90.7281 38.328 90.0721 37.64 88.9521 37.64C87.7681 37.64 87.0481 38.344 87.0001 39.528H85.5281C85.6081 37.624 86.9681 36.36 88.9521 36.36C91.0481 36.36 92.2641 37.544 92.2641 39.56V45H90.9201ZM86.8241 42.552C86.8241 43.432 87.4801 44.008 88.5201 44.008C89.8801 44.008 90.7281 43.16 90.7281 41.864V41.176C90.1041 41.096 89.6561 41.08 89.2401 41.08C87.6241 41.08 86.8241 41.56 86.8241 42.552ZM101.145 42.472C101.145 44.136 99.8487 45.16 97.5927 45.16C95.3527 45.16 94.0247 44.056 93.8647 42.232H95.4167C95.4807 43.288 96.3287 43.944 97.6247 43.944C98.7607 43.944 99.5127 43.544 99.5127 42.744C99.5127 42.04 99.0807 41.736 98.0247 41.528L96.6487 41.272C95.0807 40.968 94.2007 40.168 94.2007 38.888C94.2007 37.4 95.4967 36.36 97.4647 36.36C99.4967 36.36 100.873 37.448 101.017 39.192H99.4647C99.3687 38.168 98.6167 37.576 97.4807 37.576C96.4567 37.576 95.7687 38.008 95.7687 38.744C95.7687 39.432 96.2007 39.752 97.2247 39.944L98.6647 40.216C100.345 40.52 101.145 41.256 101.145 42.472ZM109.629 42.472C109.629 44.136 108.333 45.16 106.077 45.16C103.837 45.16 102.509 44.056 102.349 42.232H103.901C103.965 43.288 104.813 43.944 106.109 43.944C107.245 43.944 107.997 43.544 107.997 42.744C107.997 42.04 107.565 41.736 106.509 41.528L105.133 41.272C103.565 40.968 102.685 40.168 102.685 38.888C102.685 37.4 103.981 36.36 105.949 36.36C107.981 36.36 109.357 37.448 109.501 39.192H107.949C107.853 38.168 107.101 37.576 105.965 37.576C104.941 37.576 104.253 38.008 104.253 38.744C104.253 39.432 104.685 39.752 105.709 39.944L107.149 40.216C108.829 40.52 109.629 41.256 109.629 42.472ZM116.705 34.552C116.705 35.16 116.225 35.624 115.537 35.624C114.849 35.624 114.353 35.16 114.353 34.552C114.353 33.928 114.849 33.48 115.537 33.48C116.225 33.48 116.705 33.928 116.705 34.552ZM116.353 45H114.737V36.52H116.353V45ZM125.317 42.472C125.317 44.136 124.021 45.16 121.765 45.16C119.525 45.16 118.197 44.056 118.037 42.232H119.589C119.653 43.288 120.501 43.944 121.797 43.944C122.933 43.944 123.685 43.544 123.685 42.744C123.685 42.04 123.253 41.736 122.197 41.528L120.821 41.272C119.253 40.968 118.373 40.168 118.373 38.888C118.373 37.4 119.669 36.36 121.637 36.36C123.669 36.36 125.045 37.448 125.189 39.192H123.637C123.541 38.168 122.789 37.576 121.653 37.576C120.629 37.576 119.941 38.008 119.941 38.744C119.941 39.432 120.373 39.752 121.397 39.944L122.837 40.216C124.517 40.52 125.317 41.256 125.317 42.472ZM132.057 45H130.425V33.512H132.057V45ZM136.268 34.552C136.268 35.16 135.788 35.624 135.1 35.624C134.412 35.624 133.916 35.16 133.916 34.552C133.916 33.928 134.412 33.48 135.1 33.48C135.788 33.48 136.268 33.928 136.268 34.552ZM135.916 45H134.3V36.52H135.916V45ZM139.775 45H138.159V33.512H139.775V40.312L143.407 36.52H145.311L141.391 40.632L145.679 45H143.599L139.775 40.984V45ZM149.897 45.16C147.449 45.16 145.801 43.384 145.801 40.712C145.801 38.2 147.513 36.36 149.849 36.36C152.377 36.36 154.057 38.408 153.769 41.16H147.449C147.577 42.888 148.441 43.896 149.865 43.896C151.065 43.896 151.897 43.24 152.169 42.136H153.769C153.353 44.024 151.897 45.16 149.897 45.16ZM149.817 37.576C148.521 37.576 147.641 38.504 147.465 40.088H152.057C151.977 38.52 151.129 37.576 149.817 37.576ZM163.967 45V43.688C163.439 44.632 162.495 45.16 161.247 45.16C159.487 45.16 158.335 44.152 158.335 42.6C158.335 40.936 159.663 40.072 162.191 40.072C162.687 40.072 163.087 40.088 163.775 40.168V39.544C163.775 38.328 163.119 37.64 161.999 37.64C160.815 37.64 160.095 38.344 160.047 39.528H158.575C158.655 37.624 160.015 36.36 161.999 36.36C164.095 36.36 165.311 37.544 165.311 39.56V45H163.967ZM159.871 42.552C159.871 43.432 160.527 44.008 161.567 44.008C162.927 44.008 163.775 43.16 163.775 41.864V41.176C163.151 41.096 162.703 41.08 162.287 41.08C160.671 41.08 159.871 41.56 159.871 42.552ZM84.4353 67.432V68.856C83.9393 69.08 83.5073 69.16 82.9953 69.16C81.4273 69.16 80.3393 68.312 80.3393 66.44V61.896H78.4672V60.52H80.3393V58.008H81.9553V60.52H84.5153V61.896H81.9553V66.072C81.9553 67.24 82.5153 67.656 83.3793 67.656C83.7633 67.656 84.0993 67.592 84.4353 67.432ZM89.3751 69.16C86.9751 69.16 85.2151 67.272 85.2151 64.76C85.2151 62.248 86.9751 60.36 89.3751 60.36C91.7751 60.36 93.5351 62.248 93.5351 64.76C93.5351 67.272 91.7751 69.16 89.3751 69.16ZM89.3751 67.736C90.7671 67.736 91.8711 66.616 91.8711 64.76C91.8711 62.904 90.7671 61.8 89.3751 61.8C87.9831 61.8 86.8951 62.904 86.8951 64.76C86.8951 66.616 87.9831 67.736 89.3751 67.736ZM100.158 69H98.5263V57.512H100.158V69ZM105.889 69.16C103.441 69.16 101.793 67.384 101.793 64.712C101.793 62.2 103.505 60.36 105.841 60.36C108.369 60.36 110.049 62.408 109.761 65.16H103.441C103.569 66.888 104.433 67.896 105.857 67.896C107.057 67.896 107.889 67.24 108.161 66.136H109.761C109.345 68.024 107.889 69.16 105.889 69.16ZM105.809 61.576C104.513 61.576 103.633 62.504 103.457 64.088H108.049C107.969 62.52 107.121 61.576 105.809 61.576ZM116.615 69V67.688C116.087 68.632 115.143 69.16 113.895 69.16C112.135 69.16 110.983 68.152 110.983 66.6C110.983 64.936 112.311 64.072 114.839 64.072C115.335 64.072 115.735 64.088 116.423 64.168V63.544C116.423 62.328 115.767 61.64 114.647 61.64C113.463 61.64 112.743 62.344 112.695 63.528H111.223C111.303 61.624 112.663 60.36 114.647 60.36C116.743 60.36 117.959 61.544 117.959 63.56V69H116.615ZM112.519 66.552C112.519 67.432 113.175 68.008 114.215 68.008C115.575 68.008 116.423 67.16 116.423 65.864V65.176C115.799 65.096 115.351 65.08 114.935 65.08C113.319 65.08 112.519 65.56 112.519 66.552ZM121.736 64.664V69H120.12V60.52H121.624V62.312C122.216 61.144 123.496 60.408 124.888 60.408V62.088C123.064 61.992 121.736 62.792 121.736 64.664ZM127.783 64.216V69H126.167V60.52H127.671V61.928C128.247 60.984 129.207 60.36 130.375 60.36C132.119 60.36 133.271 61.48 133.271 63.512V69H131.655V64.056C131.655 62.6 131.015 61.784 129.815 61.784C128.711 61.784 127.783 62.712 127.783 64.216ZM137.385 58.552C137.385 59.16 136.905 59.624 136.217 59.624C135.529 59.624 135.033 59.16 135.033 58.552C135.033 57.928 135.529 57.48 136.217 57.48C136.905 57.48 137.385 57.928 137.385 58.552ZM137.033 69H135.417V60.52H137.033V69ZM140.892 64.216V69H139.276V60.52H140.78V61.928C141.356 60.984 142.316 60.36 143.484 60.36C145.228 60.36 146.38 61.48 146.38 63.512V69H144.764V64.056C144.764 62.6 144.124 61.784 142.924 61.784C141.82 61.784 140.892 62.712 140.892 64.216ZM151.918 72.264C149.694 72.264 148.254 71.08 148.158 69.16H149.726C149.822 70.344 150.59 70.984 151.902 70.984C153.358 70.984 154.126 70.2 154.126 68.744V67.208C153.646 68.232 152.686 68.824 151.534 68.824C149.422 68.824 147.918 67.08 147.918 64.584C147.918 62.056 149.358 60.36 151.486 60.36C152.702 60.36 153.662 60.952 154.238 62.024V60.52H155.742V68.712C155.742 70.936 154.318 72.264 151.918 72.264ZM149.55 64.584C149.55 66.344 150.414 67.416 151.822 67.416C153.198 67.416 154.126 66.312 154.126 64.632C154.126 62.872 153.214 61.752 151.822 61.752C150.43 61.752 149.55 62.84 149.55 64.584ZM166.459 69V67.688C165.931 68.632 164.987 69.16 163.739 69.16C161.979 69.16 160.827 68.152 160.827 66.6C160.827 64.936 162.155 64.072 164.683 64.072C165.179 64.072 165.579 64.088 166.267 64.168V63.544C166.267 62.328 165.611 61.64 164.491 61.64C163.307 61.64 162.587 62.344 162.539 63.528H161.067C161.147 61.624 162.507 60.36 164.491 60.36C166.587 60.36 167.803 61.544 167.803 63.56V69H166.459ZM162.363 66.552C162.363 67.432 163.019 68.008 164.059 68.008C165.419 68.008 166.267 67.16 166.267 65.864V65.176C165.643 65.096 165.195 65.08 164.779 65.08C163.163 65.08 162.363 65.56 162.363 66.552ZM174.924 64.216V69H173.308V60.52H174.812V61.928C175.388 60.984 176.348 60.36 177.516 60.36C179.26 60.36 180.411 61.48 180.411 63.512V69H178.796V64.056C178.796 62.6 178.156 61.784 176.956 61.784C175.852 61.784 174.924 62.712 174.924 64.216ZM186.046 69.16C183.598 69.16 181.95 67.384 181.95 64.712C181.95 62.2 183.662 60.36 185.998 60.36C188.526 60.36 190.206 62.408 189.918 65.16H183.598C183.726 66.888 184.59 67.896 186.014 67.896C187.214 67.896 188.046 67.24 188.318 66.136H189.918C189.502 68.024 188.046 69.16 186.046 69.16ZM185.966 61.576C184.67 61.576 183.789 62.504 183.614 64.088H188.206C188.126 62.52 187.278 61.576 185.966 61.576ZM198.456 69L196.536 62.696L194.6 69H192.968L190.52 60.52H192.104L193.816 66.696L195.736 60.52H197.336L199.224 66.712L200.936 60.52H202.536L200.072 69H198.456ZM213.918 66.472C213.918 68.136 212.622 69.16 210.366 69.16C208.126 69.16 206.798 68.056 206.638 66.232H208.19C208.254 67.288 209.102 67.944 210.398 67.944C211.534 67.944 212.286 67.544 212.286 66.744C212.286 66.04 211.854 65.736 210.798 65.528L209.422 65.272C207.854 64.968 206.974 64.168 206.974 62.888C206.974 61.4 208.27 60.36 210.238 60.36C212.27 60.36 213.646 61.448 213.79 63.192H212.238C212.142 62.168 211.39 61.576 210.254 61.576C209.23 61.576 208.542 62.008 208.542 62.744C208.542 63.432 208.974 63.752 209.998 63.944L211.438 64.216C213.118 64.52 213.918 65.256 213.918 66.472ZM217.299 69H215.683V57.512H217.299V64.312L220.931 60.52H222.835L218.915 64.632L223.203 69H221.123L217.299 64.984V69ZM226.307 58.552C226.307 59.16 225.827 59.624 225.139 59.624C224.451 59.624 223.955 59.16 223.955 58.552C223.955 57.928 224.451 57.48 225.139 57.48C225.827 57.48 226.307 57.928 226.307 58.552ZM225.955 69H224.339V60.52H225.955V69ZM229.83 69H228.198V57.512H229.83V69ZM233.705 69H232.073V57.512H233.705V69Z" fill="#5C5C5C"/>
<path d="M177.535 42.472C177.535 44.136 176.239 45.16 173.983 45.16C171.743 45.16 170.415 44.056 170.255 42.232H171.807C171.871 43.288 172.719 43.944 174.015 43.944C175.151 43.944 175.903 43.544 175.903 42.744C175.903 42.04 175.471 41.736 174.415 41.528L173.039 41.272C171.471 40.968 170.591 40.168 170.591 38.888C170.591 37.4 171.887 36.36 173.855 36.36C175.887 36.36 177.263 37.448 177.407 39.192H175.855C175.759 38.168 175.007 37.576 173.871 37.576C172.847 37.576 172.159 38.008 172.159 38.744C172.159 39.432 172.591 39.752 173.615 39.944L175.055 40.216C176.735 40.52 177.535 41.256 177.535 42.472ZM183.974 43.432V44.856C183.478 45.08 183.046 45.16 182.534 45.16C180.966 45.16 179.878 44.312 179.878 42.44V37.896H178.006V36.52H179.878V34.008H181.494V36.52H184.054V37.896H181.494V42.072C181.494 43.24 182.054 43.656 182.918 43.656C183.302 43.656 183.638 43.592 183.974 43.432ZM188.85 45.16C186.402 45.16 184.754 43.384 184.754 40.712C184.754 38.2 186.466 36.36 188.802 36.36C191.33 36.36 193.01 38.408 192.722 41.16H186.402C186.53 42.888 187.394 43.896 188.818 43.896C190.018 43.896 190.85 43.24 191.122 42.136H192.722C192.306 44.024 190.85 45.16 188.85 45.16ZM188.77 37.576C187.474 37.576 186.594 38.504 186.418 40.088H191.01C190.93 38.52 190.082 37.576 188.77 37.576ZM202.536 40.76C202.536 43.32 201.064 45.16 198.792 45.16C197.64 45.16 196.664 44.584 196.056 43.56V48.088H194.44V36.52H195.944V38.072C196.552 36.984 197.592 36.36 198.792 36.36C201.048 36.36 202.536 38.2 202.536 40.76ZM200.856 40.76C200.856 38.856 199.848 37.784 198.456 37.784C197.112 37.784 196.056 38.856 196.056 40.76C196.056 42.632 197.096 43.72 198.456 43.72C199.848 43.72 200.856 42.664 200.856 40.76ZM212.271 40.76C212.271 43.32 210.799 45.16 208.527 45.16C207.375 45.16 206.399 44.584 205.791 43.56V48.088H204.175V36.52H205.679V38.072C206.287 36.984 207.327 36.36 208.527 36.36C210.783 36.36 212.271 38.2 212.271 40.76ZM210.591 40.76C210.591 38.856 209.583 37.784 208.191 37.784C206.847 37.784 205.791 38.856 205.791 40.76C205.791 42.632 206.831 43.72 208.191 43.72C209.583 43.72 210.591 42.664 210.591 40.76ZM215.877 34.552C215.877 35.16 215.397 35.624 214.709 35.624C214.021 35.624 213.525 35.16 213.525 34.552C213.525 33.928 214.021 33.48 214.709 33.48C215.397 33.48 215.877 33.928 215.877 34.552ZM215.525 45H213.909V36.52H215.525V45ZM219.384 40.216V45H217.768V36.52H219.272V37.928C219.848 36.984 220.808 36.36 221.976 36.36C223.72 36.36 224.872 37.48 224.872 39.512V45H223.256V40.056C223.256 38.6 222.616 37.784 221.416 37.784C220.312 37.784 219.384 38.712 219.384 40.216ZM230.41 48.264C228.186 48.264 226.746 47.08 226.65 45.16H228.218C228.314 46.344 229.082 46.984 230.394 46.984C231.85 46.984 232.618 46.2 232.618 44.744V43.208C232.138 44.232 231.178 44.824 230.026 44.824C227.914 44.824 226.41 43.08 226.41 40.584C226.41 38.056 227.85 36.36 229.978 36.36C231.194 36.36 232.154 36.952 232.73 38.024V36.52H234.234V44.712C234.234 46.936 232.81 48.264 230.41 48.264ZM228.042 40.584C228.042 42.344 228.906 43.416 230.314 43.416C231.69 43.416 232.618 42.312 232.618 40.632C232.618 38.872 231.706 37.752 230.314 37.752C228.922 37.752 228.042 38.84 228.042 40.584ZM246.535 42.472C246.535 44.136 245.239 45.16 242.983 45.16C240.743 45.16 239.415 44.056 239.255 42.232H240.807C240.871 43.288 241.719 43.944 243.015 43.944C244.151 43.944 244.903 43.544 244.903 42.744C244.903 42.04 244.471 41.736 243.415 41.528L242.039 41.272C240.471 40.968 239.591 40.168 239.591 38.888C239.591 37.4 240.887 36.36 242.855 36.36C244.887 36.36 246.263 37.448 246.407 39.192H244.855C244.759 38.168 244.007 37.576 242.871 37.576C241.847 37.576 241.159 38.008 241.159 38.744C241.159 39.432 241.591 39.752 242.615 39.944L244.055 40.216C245.735 40.52 246.535 41.256 246.535 42.472ZM252.974 43.432V44.856C252.478 45.08 252.046 45.16 251.534 45.16C249.966 45.16 248.878 44.312 248.878 42.44V37.896H247.006V36.52H248.878V34.008H250.494V36.52H253.054V37.896H250.494V42.072C250.494 43.24 251.054 43.656 251.918 43.656C252.302 43.656 252.638 43.592 252.974 43.432ZM257.914 45.16C255.514 45.16 253.754 43.272 253.754 40.76C253.754 38.248 255.514 36.36 257.914 36.36C260.314 36.36 262.074 38.248 262.074 40.76C262.074 43.272 260.314 45.16 257.914 45.16ZM257.914 43.736C259.306 43.736 260.41 42.616 260.41 40.76C260.41 38.904 259.306 37.8 257.914 37.8C256.522 37.8 255.434 38.904 255.434 40.76C255.434 42.616 256.522 43.736 257.914 43.736ZM265.338 40.216V45H263.722V36.52H265.226V37.928C265.802 36.984 266.762 36.36 267.93 36.36C269.674 36.36 270.826 37.48 270.826 39.512V45H269.21V40.056C269.21 38.6 268.57 37.784 267.37 37.784C266.266 37.784 265.338 38.712 265.338 40.216ZM276.46 45.16C274.012 45.16 272.364 43.384 272.364 40.712C272.364 38.2 274.076 36.36 276.412 36.36C278.94 36.36 280.62 38.408 280.332 41.16H274.012C274.14 42.888 275.004 43.896 276.428 43.896C277.628 43.896 278.46 43.24 278.732 42.136H280.332C279.916 44.024 278.46 45.16 276.46 45.16ZM276.38 37.576C275.084 37.576 274.204 38.504 274.028 40.088H278.62C278.54 38.52 277.692 37.576 276.38 37.576Z" fill="#67B882"/>
<line x1="257.279" y1="132.509" x2="257.279" y2="228.245" stroke="black" stroke-opacity="0.12" stroke-width="3.24531"/>
<line x1="60.1289" y1="131.698" x2="254.847" y2="131.698" stroke="black" stroke-opacity="0.12" stroke-width="3.24531"/>
<path d="M49.8871 109.16C55.0843 102.483 65.1772 102.483 70.3744 109.16L75.1175 115.253C75.7773 116.101 76.5398 116.863 77.3874 117.523L83.4807 122.266C90.1574 127.463 90.1574 137.556 83.4807 142.753L77.3874 147.496C76.5398 148.156 75.7773 148.919 75.1175 149.766L70.3744 155.86C65.1772 162.536 55.0843 162.536 49.8871 155.86L45.1441 149.766C44.4843 148.919 43.7218 148.156 42.8741 147.496L36.7808 142.753C30.1042 137.556 30.1042 127.463 36.7808 122.266L42.8741 117.523C43.7218 116.863 44.4843 116.101 45.1441 115.253L49.8871 109.16Z" fill="#95C48C"/>
<path d="M59.9434 137.833V128.019L57.9573 129.655C57.7107 129.85 57.4445 129.947 57.159 129.947C56.8734 129.947 56.6332 129.85 56.4385 129.655C56.2438 129.46 56.1464 129.214 56.1464 128.915C56.1464 128.577 56.3282 128.259 56.6916 127.961L59.7292 125.507C60.1446 125.17 60.5341 125.001 60.8976 125.001C61.1053 125.001 61.3 125.034 61.4817 125.098C61.6634 125.15 61.8387 125.306 62.0074 125.566C62.1892 125.812 62.2801 126.143 62.2801 126.559V137.833C62.2801 138.326 62.1567 138.67 61.9101 138.865C61.6634 139.047 61.3973 139.138 61.1117 139.138C60.9949 139.138 60.8781 139.118 60.7613 139.079C60.6444 139.053 60.5211 139.001 60.3913 138.923C60.2615 138.833 60.1511 138.696 60.0603 138.515C59.9824 138.32 59.9434 138.093 59.9434 137.833Z" fill="white"/>
<path d="M147.247 109.16C152.444 102.483 162.537 102.483 167.734 109.16L172.477 115.253C173.137 116.101 173.899 116.863 174.747 117.523L180.84 122.266C187.517 127.463 187.517 137.556 180.84 142.753L174.747 147.496C173.899 148.156 173.137 148.919 172.477 149.766L167.734 155.86C162.537 162.536 152.444 162.536 147.247 155.86L142.503 149.766C141.844 148.919 141.081 148.156 140.234 147.496L134.14 142.753C127.464 137.556 127.464 127.463 134.14 122.266L140.234 117.523C141.081 116.863 141.844 116.101 142.503 115.253L147.247 109.16Z" fill="#95C48C"/>
<path d="M153.525 127.338C153.902 126.572 154.46 125.962 155.2 125.507C155.953 125.053 156.81 124.826 157.77 124.826C159.042 124.826 160.126 125.183 161.022 125.897C161.918 126.611 162.365 127.597 162.365 128.857C162.365 129.674 162.171 130.408 161.781 131.057C161.405 131.693 160.86 132.348 160.146 133.023L156.173 136.821H161.372C161.814 136.821 162.119 136.937 162.288 137.171C162.469 137.392 162.56 137.632 162.56 137.891C162.56 138.047 162.534 138.197 162.482 138.339C162.43 138.482 162.307 138.625 162.112 138.768C161.931 138.897 161.684 138.962 161.372 138.962H154.616C153.564 138.962 153.038 138.553 153.038 137.736C153.038 137.281 153.305 136.795 153.837 136.275L158.53 131.602C159.464 130.693 159.932 129.791 159.932 128.895C159.932 128.259 159.724 127.747 159.308 127.357C158.893 126.968 158.367 126.773 157.731 126.773C156.771 126.773 156.063 127.273 155.609 128.272C155.336 128.857 154.947 129.149 154.44 129.149C154.129 129.149 153.863 129.045 153.642 128.837C153.434 128.629 153.331 128.37 153.331 128.058C153.331 127.837 153.395 127.597 153.525 127.338Z" fill="white"/>
<path d="M244.606 109.16C249.803 102.483 259.896 102.483 265.093 109.16L269.836 115.253C270.496 116.101 271.259 116.863 272.106 117.523L278.199 122.266C284.876 127.463 284.876 137.556 278.199 142.753L272.106 147.496C271.259 148.156 270.496 148.919 269.836 149.766L265.093 155.86C259.896 162.536 249.803 162.536 244.606 155.86L239.863 149.766C239.203 148.919 238.441 148.156 237.593 147.496L231.5 142.753C224.823 137.556 224.823 127.463 231.5 122.266L237.593 117.523C238.441 116.863 239.203 116.101 239.863 115.253L244.606 109.16Z" fill="#95C48C"/>
<path d="M252.361 136.139C252.945 136.931 253.743 137.327 254.756 137.327C255.444 137.327 256.034 137.139 256.528 136.762C257.034 136.386 257.287 135.814 257.287 135.049C257.287 134.49 257.105 134.03 256.742 133.666C256.391 133.303 256.002 133.062 255.573 132.946C255.158 132.829 254.736 132.77 254.308 132.77C253.892 132.77 253.6 132.667 253.432 132.459C253.263 132.238 253.178 132.011 253.178 131.777C253.178 131.544 253.263 131.323 253.432 131.115C253.6 130.908 253.892 130.804 254.308 130.804C254.606 130.804 254.892 130.778 255.165 130.726C255.437 130.661 255.71 130.564 255.982 130.434C256.268 130.291 256.495 130.077 256.664 129.791C256.833 129.506 256.917 129.162 256.917 128.759C256.917 128.162 256.703 127.682 256.274 127.318C255.859 126.955 255.346 126.773 254.736 126.773C253.905 126.773 253.243 127.156 252.75 127.922C252.503 128.298 252.179 128.487 251.776 128.487C251.478 128.487 251.225 128.396 251.017 128.214C250.822 128.019 250.725 127.773 250.725 127.474C250.725 127.188 250.855 126.877 251.114 126.539C251.971 125.397 253.211 124.826 254.834 124.826C256.106 124.826 257.164 125.157 258.007 125.819C258.851 126.481 259.273 127.409 259.273 128.603C259.273 129.343 259.046 130.005 258.592 130.59C258.137 131.161 257.54 131.537 256.8 131.719V131.758C257.644 131.927 258.325 132.31 258.845 132.907C259.377 133.504 259.643 134.224 259.643 135.068C259.643 136.405 259.163 137.45 258.202 138.203C257.242 138.943 256.119 139.313 254.834 139.313C252.886 139.313 251.458 138.696 250.55 137.463C250.316 137.152 250.199 136.846 250.199 136.548C250.199 136.236 250.303 135.983 250.511 135.788C250.731 135.581 250.998 135.477 251.309 135.477C251.699 135.477 252.049 135.698 252.361 136.139Z" fill="white"/>
<line x1="60.1305" y1="227.436" x2="60.1305" y2="323.172" stroke="black" stroke-opacity="0.12" stroke-width="3.24531"/>
<line x1="58.5039" y1="315.87" x2="253.222" y2="315.87" stroke="black" stroke-opacity="0.12" stroke-width="3.24531"/>
<path d="M48.2621 293.332C53.4593 286.655 63.5522 286.655 68.7494 293.332L73.4925 299.425C74.1523 300.273 74.9148 301.035 75.7624 301.695L81.8557 306.438C88.5324 311.635 88.5324 321.728 81.8557 326.925L75.7624 331.668C74.9148 332.328 74.1523 333.091 73.4925 333.938L68.7494 340.032C63.5522 346.708 53.4593 346.708 48.2621 340.032L43.5191 333.938C42.8593 333.091 42.0968 332.328 41.2491 331.668L35.1558 326.925C28.4792 321.728 28.4792 311.635 35.1558 306.438L41.2491 301.695C42.0968 301.035 42.8593 300.273 43.5191 299.425L48.2621 293.332Z" fill="white"/>
<path d="M67.7891 294.079L72.5322 300.172C73.2538 301.1 74.0878 301.934 75.0149 302.655L81.1082 307.398C87.1589 312.108 87.1589 321.255 81.1082 325.965L75.0149 330.708C74.0878 331.43 73.2538 332.264 72.5322 333.191L67.7891 339.284C63.0791 345.335 53.9324 345.335 49.2225 339.284L44.4794 333.191C43.7577 332.264 42.9238 331.43 41.9967 330.708L35.9034 325.965C29.8526 321.255 29.8526 312.108 35.9034 307.398L41.9967 302.655C42.9238 301.934 43.7577 301.1 44.4794 300.172L49.2225 294.079C53.9324 288.028 63.0791 288.028 67.7891 294.079Z" stroke="black" stroke-opacity="0.36" stroke-width="2.43398"/>
<path d="M63.2059 312.38L57.9679 323.264C57.6953 323.835 57.2994 324.121 56.7802 324.121C56.4426 324.121 56.1571 324.011 55.9234 323.79C55.6897 323.569 55.5729 323.277 55.5729 322.914C55.5729 322.667 55.6378 322.414 55.7676 322.154L60.7914 312.263H54.8719C54.4306 312.263 54.1255 312.152 53.9567 311.932C53.788 311.711 53.7036 311.471 53.7036 311.211C53.7036 310.952 53.788 310.711 53.9567 310.491C54.1255 310.27 54.4306 310.16 54.8719 310.16H61.8818C62.2972 310.16 62.6282 310.251 62.8748 310.432C63.1215 310.601 63.2708 310.77 63.3227 310.939C63.3876 311.107 63.4201 311.276 63.4201 311.445C63.4201 311.756 63.3487 312.068 63.2059 312.38Z" fill="black" fill-opacity="0.86"/>
<path d="M145.622 293.332C150.819 286.655 160.912 286.655 166.109 293.332L170.852 299.425C171.512 300.273 172.274 301.035 173.122 301.695L179.215 306.438C185.892 311.635 185.892 321.728 179.215 326.925L173.122 331.668C172.274 332.328 171.512 333.091 170.852 333.938L166.109 340.032C160.912 346.708 150.819 346.708 145.622 340.032L140.878 333.938C140.219 333.091 139.456 332.328 138.609 331.668L132.515 326.925C125.839 321.728 125.839 311.635 132.515 306.438L138.609 301.695C139.456 301.035 140.219 300.273 140.878 299.425L145.622 293.332Z" fill="white"/>
<path d="M165.148 294.079L169.892 300.172C170.613 301.1 171.447 301.934 172.374 302.655L178.468 307.398C184.518 312.108 184.518 321.255 178.468 325.965L172.374 330.708C171.447 331.43 170.613 332.264 169.892 333.191L165.148 339.284C160.439 345.335 151.292 345.335 146.582 339.284L141.839 333.191C141.117 332.264 140.283 331.43 139.356 330.708L133.263 325.965C127.212 321.255 127.212 312.108 133.263 307.398L139.356 302.655C140.283 301.934 141.117 301.1 141.839 300.172L146.582 294.079C151.292 288.028 160.439 288.028 165.148 294.079Z" stroke="black" stroke-opacity="0.36" stroke-width="2.43398"/>
<path d="M160.546 313.548C160.546 314.327 160.351 314.989 159.962 315.534C159.572 316.079 159.053 316.456 158.404 316.663V316.702C159.144 316.884 159.76 317.28 160.254 317.89C160.747 318.5 160.994 319.221 160.994 320.051C160.994 321.376 160.533 322.414 159.611 323.167C158.702 323.92 157.56 324.296 156.184 324.296C154.808 324.296 153.659 323.92 152.738 323.167C151.829 322.414 151.375 321.376 151.375 320.051C151.375 319.208 151.621 318.487 152.114 317.89C152.621 317.28 153.237 316.884 153.964 316.702V316.663C152.536 316.144 151.822 315.138 151.822 313.645C151.822 312.503 152.238 311.581 153.069 310.88C153.912 310.166 154.951 309.809 156.184 309.809C157.43 309.809 158.469 310.147 159.3 310.822C160.13 311.497 160.546 312.405 160.546 313.548ZM158.19 313.684C158.19 313.113 157.988 312.646 157.586 312.282C157.197 311.919 156.729 311.737 156.184 311.737C155.6 311.737 155.12 311.919 154.743 312.282C154.38 312.633 154.198 313.1 154.198 313.684C154.198 314.255 154.38 314.736 154.743 315.125C155.107 315.502 155.587 315.69 156.184 315.69C156.742 315.69 157.216 315.495 157.606 315.106C157.995 314.716 158.19 314.242 158.19 313.684ZM158.56 320.032C158.56 319.357 158.326 318.799 157.859 318.357C157.404 317.903 156.846 317.676 156.184 317.676C155.509 317.676 154.938 317.897 154.471 318.338C154.016 318.779 153.789 319.344 153.789 320.032C153.789 320.733 154.01 321.291 154.451 321.707C154.905 322.122 155.483 322.33 156.184 322.33C156.872 322.33 157.437 322.122 157.878 321.707C158.332 321.291 158.56 320.733 158.56 320.032Z" fill="black" fill-opacity="0.86"/>
<path d="M242.981 293.332C248.178 286.655 258.271 286.655 263.468 293.332L268.211 299.425C268.871 300.273 269.634 301.035 270.481 301.695L276.574 306.438C283.251 311.635 283.251 321.728 276.574 326.925L270.481 331.668C269.634 332.328 268.871 333.091 268.211 333.938L263.468 340.032C258.271 346.708 248.178 346.708 242.981 340.032L238.238 333.938C237.578 333.091 236.816 332.328 235.968 331.668L229.875 326.925C223.198 321.728 223.198 311.635 229.875 306.438L235.968 301.695C236.816 301.035 237.578 300.273 238.238 299.425L242.981 293.332Z" fill="white"/>
<path d="M262.508 294.079L267.251 300.172C267.973 301.1 268.807 301.934 269.734 302.655L275.827 307.398C281.878 312.108 281.878 321.255 275.827 325.965L269.734 330.708C268.807 331.43 267.973 332.264 267.251 333.191L262.508 339.284C257.798 345.335 248.651 345.335 243.941 339.284L239.198 333.191C238.476 332.264 237.643 331.43 236.715 330.708L230.622 325.965C224.571 321.255 224.571 312.108 230.622 307.398L236.715 302.655C237.643 301.934 238.476 301.1 239.198 300.172L243.941 294.079C248.651 288.028 257.798 288.028 262.508 294.079Z" stroke="black" stroke-opacity="0.36" stroke-width="2.43398"/>
<path d="M257.161 318.611L253.929 323.44C253.617 323.894 253.254 324.121 252.839 324.121C252.514 324.121 252.235 324.017 252.001 323.809C251.781 323.602 251.67 323.336 251.67 323.011C251.67 322.726 251.787 322.421 252.021 322.096L254.416 318.825L254.396 318.805C254.02 318.974 253.527 319.058 252.916 319.058C251.696 319.058 250.658 318.636 249.801 317.793C248.944 316.936 248.516 315.884 248.516 314.638C248.516 313.197 248.99 312.036 249.937 311.153C250.898 310.257 252.099 309.809 253.54 309.809C254.98 309.809 256.181 310.264 257.142 311.172C258.102 312.081 258.583 313.204 258.583 314.541C258.583 315.281 258.466 315.949 258.232 316.547C258.012 317.131 257.655 317.819 257.161 318.611ZM256.207 314.482C256.207 313.73 255.961 313.087 255.467 312.555C254.974 312.023 254.338 311.756 253.559 311.756C252.767 311.756 252.125 312.016 251.631 312.535C251.151 313.042 250.911 313.704 250.911 314.521C250.911 315.3 251.151 315.943 251.631 316.449C252.112 316.955 252.741 317.209 253.52 317.209C254.312 317.209 254.954 316.955 255.448 316.449C255.954 315.943 256.207 315.287 256.207 314.482Z" fill="black" fill-opacity="0.86"/>
<line x1="60.1328" y1="226.623" x2="254.851" y2="226.623" stroke="black" stroke-opacity="0.12" stroke-width="3.24531"/>
<path d="M244.602 204.084C249.799 197.407 259.892 197.407 265.089 204.084L269.832 210.177C270.492 211.025 271.255 211.787 272.102 212.447L278.196 217.19C284.872 222.388 284.872 232.48 278.196 237.678L272.102 242.421C271.255 243.081 270.492 243.843 269.832 244.691L265.089 250.784C259.892 257.461 249.799 257.461 244.602 250.784L239.859 244.691C239.199 243.843 238.437 243.081 237.589 242.421L231.496 237.678C224.819 232.48 224.819 222.388 231.496 217.19L237.589 212.447C238.437 211.787 239.199 211.025 239.859 210.177L244.602 204.084Z" fill="#95C48C"/>
<path d="M256.002 229.019V223.275H255.963L251.952 229.019H256.002ZM258.3 229.019H259.254C259.695 229.019 259.994 229.129 260.149 229.35C260.318 229.557 260.402 229.778 260.402 230.012C260.402 230.155 260.377 230.291 260.325 230.421C260.286 230.551 260.175 230.687 259.994 230.83C259.812 230.959 259.565 231.024 259.254 231.024H258.3V232.796C258.3 233.264 258.176 233.595 257.93 233.789C257.683 233.971 257.423 234.062 257.151 234.062C256.878 234.062 256.618 233.971 256.372 233.789C256.125 233.595 256.002 233.264 256.002 232.796V231.024H250.978C250.42 231.024 250.024 230.882 249.79 230.596C249.57 230.31 249.459 230.018 249.459 229.72C249.459 229.343 249.602 228.954 249.888 228.551L255.262 220.918C255.729 220.256 256.255 219.925 256.839 219.925C257.19 219.925 257.521 220.049 257.832 220.295C258.144 220.542 258.3 220.996 258.3 221.658V229.019Z" fill="white"/>
<path d="M147.247 204.084C152.444 197.407 162.537 197.407 167.734 204.084L172.477 210.177C173.137 211.025 173.899 211.787 174.747 212.447L180.84 217.19C187.517 222.388 187.517 232.48 180.84 237.678L174.747 242.421C173.899 243.081 173.137 243.843 172.477 244.691L167.734 250.784C162.537 257.461 152.444 257.461 147.247 250.784L142.503 244.691C141.844 243.843 141.081 243.081 140.234 242.421L134.14 237.678C127.464 232.48 127.464 222.388 134.14 217.19L140.234 212.447C141.081 211.787 141.844 211.025 142.503 210.177L147.247 204.084Z" fill="white"/>
<path d="M166.773 204.832L171.517 210.925C172.238 211.852 173.072 212.686 173.999 213.408L180.093 218.151C186.143 222.861 186.143 232.007 180.093 236.717L173.999 241.46C173.072 242.182 172.238 243.016 171.517 243.943L166.773 250.036C162.064 256.087 152.917 256.087 148.207 250.036L143.464 243.943C142.742 243.016 141.908 242.182 140.981 241.46L134.888 236.717C128.837 232.007 128.837 222.861 134.888 218.151L140.981 213.408C141.908 212.686 142.742 211.852 143.464 210.925L148.207 204.832C152.917 198.781 162.064 198.781 166.773 204.832Z" stroke="black" stroke-opacity="0.36" stroke-width="2.43398"/>
<path d="M155.942 236.489L151.656 237.565C151.656 237.565 151.657 238.502 151.818 239.071C151.993 239.695 152.143 240.057 152.553 240.56C152.854 240.929 153.032 241.172 153.467 241.367C153.955 241.584 154.303 241.558 154.83 241.474C155.354 241.391 155.705 241.324 156.085 240.954C156.474 240.576 156.569 240.344 156.641 239.681C156.713 239.018 156.647 238.628 156.498 237.978C156.359 237.373 155.942 236.489 155.942 236.489Z" fill="#EF5C34"/>
<path d="M148.498 226.108C149.057 225.399 150.112 224.924 150.417 224.817C150.722 224.709 151.152 224.568 151.636 224.584C152.159 224.6 152.486 224.661 152.927 224.942C153.797 225.497 154.07 226.089 154.496 226.824C154.956 227.617 155.078 228.6 155.097 228.815C155.213 230.159 155.04 230.445 155.097 231.487C155.185 233.097 155.671 235.575 155.671 235.575L151.439 236.723C151.439 236.723 150.86 236.04 150.524 235.575C149.739 234.487 149.375 233.811 148.839 232.581C148.321 231.393 147.942 230.662 147.817 229.425C147.691 228.188 147.68 227.147 148.498 226.108Z" fill="#EF5C34"/>
<path d="M158.751 226.433L162.982 226.628C162.982 226.628 163.16 227.51 163.118 228.076C163.072 228.696 163 229.065 162.711 229.615C162.499 230.02 162.377 230.283 162.006 230.548C161.589 230.846 161.257 230.887 160.746 230.909C160.238 230.93 159.896 230.934 159.468 230.659C159.03 230.377 158.897 230.178 158.703 229.568C158.509 228.957 158.497 228.579 158.513 227.938C158.528 227.343 158.751 226.433 158.751 226.433Z" fill="#EF5C34"/>
<path d="M163.771 215.224C163.107 214.661 162.019 214.416 161.71 214.373C161.401 214.33 160.967 214.279 160.512 214.387C160.021 214.503 159.723 214.622 159.36 214.973C158.644 215.663 158.499 216.274 158.236 217.049C157.953 217.886 158.025 218.837 158.049 219.044C158.196 220.335 158.415 220.572 158.56 221.566C158.785 223.103 158.8 225.535 158.8 225.535L163.022 225.807C163.022 225.807 163.439 225.051 163.667 224.548C164.201 223.371 164.416 222.663 164.688 221.399C164.95 220.179 165.169 219.416 165.051 218.224C164.933 217.032 164.744 216.047 163.771 215.224Z" fill="#EF5C34"/>
<path d="M49.8871 204.084C55.0843 197.407 65.1772 197.407 70.3744 204.084L75.1175 210.177C75.7773 211.025 76.5398 211.787 77.3874 212.447L83.4807 217.19C90.1574 222.388 90.1574 232.48 83.4807 237.678L77.3874 242.421C76.5398 243.081 75.7773 243.843 75.1175 244.691L70.3744 250.784C65.1772 257.461 55.0843 257.461 49.8871 250.784L45.1441 244.691C44.4843 243.843 43.7218 243.081 42.8741 242.421L36.7808 237.678C30.1042 232.48 30.1042 222.388 36.7808 217.19L42.8741 212.447C43.7218 211.787 44.4843 211.025 45.1441 210.177L49.8871 204.084Z" fill="white"/>
<path d="M69.4141 204.832L74.1572 210.925C74.8788 211.852 75.7128 212.686 76.6399 213.408L82.7332 218.151C88.7839 222.861 88.7839 232.007 82.7332 236.717L76.6399 241.46C75.7128 242.182 74.8788 243.016 74.1572 243.943L69.4141 250.036C64.7041 256.087 55.5574 256.087 50.8475 250.036L46.1044 243.943C45.3827 243.016 44.5488 242.182 43.6217 241.46L37.5284 236.717C31.4776 232.007 31.4776 222.861 37.5284 218.151L43.6217 213.408C44.5488 212.686 45.3827 211.852 46.1044 210.925L50.8475 204.832C55.5574 198.781 64.7041 198.781 69.4141 204.832Z" stroke="black" stroke-opacity="0.36" stroke-width="2.43398"/>
<path d="M61.9296 222.762L59.5735 226.014L59.5929 226.033C59.9694 225.878 60.4562 225.8 61.0533 225.8C62.2736 225.8 63.3121 226.228 64.1688 227.085C65.0256 227.929 65.454 228.974 65.454 230.22C65.454 231.661 64.9737 232.829 64.013 233.725C63.0654 234.607 61.8711 235.049 60.4302 235.049C58.9893 235.049 57.7886 234.594 56.8279 233.686C55.8673 232.777 55.387 231.654 55.387 230.317C55.387 229.564 55.4974 228.889 55.718 228.292C55.9517 227.682 56.3152 227 56.8085 226.247L60.0213 221.418C60.3199 220.964 60.6834 220.737 61.1117 220.737C61.4363 220.737 61.7089 220.841 61.9296 221.048C62.1632 221.256 62.2801 221.522 62.2801 221.847C62.2801 222.145 62.1632 222.45 61.9296 222.762ZM57.7626 230.375C57.7626 231.115 58.0027 231.752 58.483 232.284C58.9763 232.803 59.6189 233.063 60.4108 233.063C61.2026 233.063 61.8387 232.816 62.319 232.323C62.8123 231.816 63.0589 231.154 63.0589 230.337C63.0589 229.558 62.8188 228.915 62.3385 228.409C61.8582 227.903 61.2286 227.649 60.4497 227.649C59.6578 227.649 59.0088 227.903 58.5025 228.409C58.0092 228.915 57.7626 229.571 57.7626 230.375Z" fill="black" fill-opacity="0.86"/>
</svg>
