<svg width="94" height="59" viewBox="0 0 94 59" fill="none" xmlns="http://www.w3.org/2000/svg">
<g clip-path="url(#clip0_227_2249)">
<path d="M21.0479 53.9755C20.2969 54.4658 19.5813 54.9409 18.8514 55.3928C18.703 55.4847 18.502 55.5204 18.3231 55.5277C17.6789 55.5544 17.0313 55.4904 16.6736 54.8684C16.3356 54.2808 16.4559 53.6641 16.7476 53.0676C17.121 52.3041 17.6756 51.7931 18.5393 51.6831C18.6798 51.6652 18.8837 51.6257 18.9587 51.699C19.3812 52.1123 19.6166 51.7726 19.8573 51.4959C20.9304 50.262 21.9999 49.0248 23.0624 47.7816C23.3537 47.4408 23.4672 47.0955 23.2274 46.6257C22.7938 45.7763 22.9391 44.8927 23.3385 44.072C23.7568 43.2129 24.2439 42.3876 24.7032 41.5487C24.8441 41.2914 24.9769 41.0478 24.5937 40.8717C22.9581 40.1201 21.6554 39.0053 20.828 37.3732C20.798 37.314 20.7265 37.2759 20.6042 37.1636C20.2823 37.6657 19.951 38.1232 19.6805 38.6144C18.0425 41.5886 16.1638 44.4003 14.1413 47.1243C12.6953 49.0719 11.0916 50.8617 9.25949 52.4394C8.24509 53.313 7.08586 53.9946 5.75888 54.2144C3.42074 54.6018 1.71367 53.4248 1.08881 51.1269C0.42815 48.6974 0.66606 46.2751 1.18639 43.8518C2.07894 39.6951 3.88162 35.9166 5.90368 32.2231C7.96809 28.4523 10.4831 25.0009 13.398 21.8649C15.1368 19.9942 16.9928 18.2153 18.9337 16.5579C20.8584 14.9143 22.9016 13.3932 25.0041 11.9865C25.8361 11.4298 25.9952 10.8784 25.9663 10.001C25.9175 8.52367 25.6951 7.09374 25.0566 5.76354C24.824 5.27884 24.4173 4.8772 24.0816 4.44431C23.5844 3.80328 23.5765 3.06408 24.0703 2.48568C24.4689 2.01875 25.4177 1.89405 26.0062 2.21437C27.2127 2.87105 27.9139 3.95594 28.3117 5.2027C28.6789 6.35392 28.8892 7.55935 29.1158 8.75108C29.2398 9.40308 29.2817 9.44098 29.9161 9.17715C31.5941 8.47934 33.2544 7.72248 34.973 7.14305C37.8218 6.18255 40.7521 5.78463 43.7573 6.26007C47.8726 6.91113 50.9547 9.04223 52.938 12.7335C54.1774 15.0402 54.6033 17.5478 54.3603 20.1164C54.0111 23.807 52.4968 27.0557 50.2837 30.0069C47.7961 33.324 44.6896 35.8842 41.0857 37.8803C37.7031 39.7538 34.1035 40.9478 30.1661 41.5187C30.8287 41.6512 31.2416 41.9733 31.3966 42.5083C31.5724 43.1147 31.5034 43.7249 31.1088 44.248C30.8764 44.5559 30.6348 44.8697 30.3446 45.1186C29.0912 46.1934 28.5256 47.6821 27.9111 49.1394C27.6899 49.664 27.5148 50.2113 27.3581 50.7595C27.064 51.7888 27.6558 52.6483 28.694 52.9079C29.4536 53.0978 30.1796 53.1049 30.9076 52.8608C31.051 52.8128 31.2583 52.6087 31.2471 52.4957C31.1027 51.04 31.5259 49.7203 32.2039 48.4751C33.4512 46.1841 35.0261 44.1564 37.1284 42.5871C37.7442 42.1275 38.3814 41.6997 39.1979 41.6262C40.2058 41.5354 40.9337 41.9969 41.276 42.9467C41.3836 43.2456 41.608 43.5463 41.8599 43.7397C42.5314 44.2554 42.8475 44.8892 42.4964 45.6665C42.0598 46.6331 41.4839 47.539 40.935 48.451C40.4222 49.3029 40.0642 50.1986 40.0044 51.1976C39.9605 51.9289 40.1931 52.1225 40.8289 51.8209C41.8341 51.344 42.7258 50.6939 43.4206 49.8092C43.5614 49.6298 43.5906 49.3662 43.6967 49.1543C44.4959 47.558 45.2752 45.9508 46.1116 44.3743C47.1996 42.3237 48.3126 40.2858 49.4581 38.2671C50.0757 37.1785 50.7763 36.1369 51.4564 35.0851C51.5932 34.8735 51.7854 34.6829 51.9888 34.5329C52.4551 34.189 52.9563 34.1088 53.4757 34.4375C53.8795 34.6929 54.2076 35.3416 54.0152 35.8347C53.6769 36.7022 53.2566 37.5414 52.821 38.3659C52.0205 39.881 51.1819 41.3758 50.3652 42.8823C50.273 43.0523 50.2192 43.2434 50.1011 43.5424C50.539 43.3701 50.8532 43.2359 51.1746 43.1222C51.9274 42.856 52.7636 43.0743 53.1136 43.6181C53.44 44.1252 53.3115 45.0046 52.7683 45.5503C52.1326 46.1888 51.4669 46.7991 50.7904 47.3944C49.8856 48.1907 49.0289 49.0267 48.5118 50.1374C48.3819 50.4166 48.3854 50.7584 48.3276 51.0714C48.6321 50.9939 49.0129 51.0071 49.2283 50.8238C50.3176 49.897 51.3564 48.9107 52.427 47.9613C53.7205 46.8142 53.9609 45.1489 54.5622 43.6597C55.5705 41.163 56.6068 38.6764 58.096 36.4209C58.4217 35.9276 58.8991 35.5146 59.3679 35.1427C59.9353 34.6927 60.5883 34.7708 61.1704 35.1332C61.7258 35.4789 61.8582 36.0271 61.7974 36.6762C61.6677 38.0615 61.0266 39.2447 60.3928 40.4301C59.6636 41.7938 58.8995 43.1388 58.1548 44.4942C58.0881 44.6157 58.0523 44.7543 57.9677 44.9745C58.3377 44.8233 58.6078 44.6619 58.8984 44.6032C60.1201 44.3563 61.0551 45.0467 61.1529 46.3038C61.2012 46.9238 61.1639 47.558 61.0954 48.178C61.0024 49.02 60.7791 49.8516 60.7377 50.6938C60.7168 51.118 60.9526 51.5644 61.1195 51.9816C61.1629 52.09 61.3861 52.1817 61.522 52.1754C61.6021 52.1717 61.726 51.9666 61.7402 51.8418C61.9913 49.6381 63.1129 47.8339 64.4672 46.1948C65.373 45.0985 66.4509 44.129 67.539 43.2066C68.4758 42.4126 69.9589 42.4495 70.6293 43.457C70.6976 43.5596 70.9116 43.6184 71.0527 43.6097C72.5575 43.5162 73.3823 44.5368 72.884 45.9672C72.6492 46.6409 72.2376 47.2508 71.9727 47.9163C71.7301 48.5259 71.4833 49.1603 71.4074 49.8038C71.3043 50.678 71.7118 50.9801 72.5802 50.8192C73.718 50.6083 74.5538 49.8795 75.3791 49.1395C75.5567 48.9802 75.7161 48.7998 75.8784 48.6239C76.3214 48.1438 76.6326 47.6363 76.6548 46.9254C76.6988 45.5156 77.2557 44.3203 78.3976 43.443C78.9889 42.9887 79.6423 42.8623 80.3051 43.2163C80.9817 43.5777 81.3623 44.5047 81.2042 45.2603C81.1142 45.6908 80.9966 46.1155 80.8706 46.6273C81.0832 46.6212 81.2685 46.659 81.4213 46.6045C82.264 46.304 83.1195 46.0612 83.7895 45.3727C84.2132 44.9373 84.7577 44.5647 85.3172 44.3323C86.0968 44.0085 86.7658 44.2686 87.1731 44.8699C87.5826 45.4744 87.5682 46.4286 87.0817 46.9979C86.7854 47.3446 86.4339 47.6576 86.0628 47.9232C84.8592 48.7849 84.1883 50.0164 83.6313 51.3366C83.4491 51.7685 83.6148 52.0402 84.0381 52.1049C84.4324 52.1652 84.8447 52.1798 85.2414 52.1386C86.1853 52.0407 87.1265 51.9104 88.0649 51.7672C88.4703 51.7053 88.6954 51.8483 88.6082 52.2618C88.5426 52.5729 88.4068 52.92 88.1905 53.1402C86.7971 54.5587 85.2042 55.4615 83.1183 54.9713C82.5558 54.8392 81.9772 54.8634 81.4669 54.4561C80.6062 53.7691 80.1564 52.9435 80.2621 51.8349C80.306 51.3754 80.3863 50.9178 80.3996 50.4579C80.4038 50.3114 80.2535 50.0372 80.1598 50.0309C79.41 49.9805 78.741 49.9974 78.1574 50.7133C76.9146 52.238 75.3473 53.3816 73.4188 53.8838C72.7611 54.0551 72.037 54.0615 71.3526 54.0124C70.4446 53.9473 69.6461 53.5616 69.1283 52.7606C68.8689 52.3593 68.7059 52.4768 68.4154 52.7478C67.4725 53.6276 66.4929 54.4431 65.2073 54.8216C63.8296 55.2271 62.6663 54.8294 62.0167 53.5436C61.7982 53.1112 61.5779 52.9953 61.1212 53.1093C59.737 53.4551 58.7815 52.3352 58.5127 51.1088C58.4011 50.5996 58.3106 50.0858 58.1771 49.4037C57.6752 50.094 57.2832 50.64 56.8839 51.1804C56.3804 51.8617 55.9021 52.5566 55.0908 52.9374C54.2032 53.354 53.3259 53.1671 52.8547 52.3153C52.5793 51.8175 52.3854 51.889 51.9822 52.1706C51.1585 52.7458 50.3204 53.3262 49.418 53.7554C48.0315 54.4148 46.0073 53.8314 45.6212 51.9956C45.5222 51.5248 45.3217 51.496 44.9532 51.9368C44.1218 52.9313 43.0952 53.6739 41.9572 54.238C41.009 54.7082 39.9663 55.0497 38.9645 54.419C38.4727 54.1095 38.0965 53.6081 37.6896 53.1732C37.5576 53.0321 37.4944 52.8262 37.3661 52.5875C37.0452 52.7952 36.7443 52.9582 36.4795 53.1675C35.7076 53.7775 34.8281 54.1536 33.8663 54.2358C33.3808 54.2773 32.8281 54.1857 32.3935 53.9733C31.9735 53.7679 31.6645 53.7974 31.3298 54.0245C30.0974 54.8603 28.7766 54.8324 27.4149 54.4602C25.6351 53.9736 24.6761 52.6462 24.7544 50.7754C24.7627 50.5779 24.7686 50.3802 24.777 50.1464C23.5155 51.4443 22.2969 52.6981 21.0479 53.9755ZM51.116 19.8481C51.1069 19.6089 51.0836 19.3693 51.0909 19.1306C51.1664 16.6508 50.5079 14.4333 48.8177 12.5705C47.2457 10.8379 45.2854 9.81739 42.9928 9.54249C41.0102 9.30477 39.0544 9.59484 37.1163 10.1151C34.4156 10.84 31.8933 11.9672 29.4682 13.3332C29.2419 13.4608 29.0434 13.7978 29.0001 14.0648C28.8683 14.8795 28.863 15.7149 28.7267 16.5285C28.5232 17.744 28.3181 18.9668 27.9891 20.1516C27.5714 21.6565 27.032 23.1276 26.5397 24.6114C25.7083 27.1176 24.6107 29.5067 23.3763 31.8352C22.9954 32.5536 22.7793 33.2993 22.9556 34.1244C23.3711 36.0703 24.8568 37.4081 26.8273 37.6863C29.2125 38.0231 31.517 37.606 33.7843 36.9495C36.208 36.2477 38.5339 35.2867 40.6657 33.906C41.6987 33.2369 42.7523 32.5877 43.7191 31.8297C45.569 30.3795 47.1114 28.6184 48.4342 26.6787C49.8221 24.6433 50.6878 22.3811 51.116 19.8481ZM16.1266 37.9014C16.905 36.5223 17.7166 35.1608 18.4542 33.7599C19.603 31.5779 20.7377 29.3868 21.8082 27.1654C22.4944 25.7416 23.1382 24.2853 23.6497 22.7913C24.2926 20.9136 24.7896 18.9851 25.3274 17.0722C25.4204 16.7412 25.4032 16.3789 25.4484 15.9137C25.2098 16.0542 25.11 16.099 25.026 16.1645C23.5188 17.3385 21.9504 18.4435 20.5246 19.7103C18.9477 21.1114 17.4879 22.6474 16.0018 24.1494C13.8696 26.3043 12.0526 28.7236 10.424 31.2687C8.15425 34.8157 6.29499 38.5743 4.99138 42.6011C4.3834 44.4792 4.00577 46.3758 4.14408 48.3506C4.18603 48.9496 4.30667 49.5489 4.45181 50.1328C4.57153 50.6144 4.95707 50.8006 5.38457 50.5759C6.0321 50.2355 6.69954 49.8968 7.26378 49.4393C9.40044 47.707 11.0445 45.5218 12.6125 43.2897C13.8283 41.5589 14.936 39.7514 16.1266 37.9014ZM38.4758 46.4625C38.7822 45.8624 39.0886 45.2623 39.4467 44.561C37.8008 44.9944 34.0704 50.0359 34.2838 51.1916C34.3531 51.179 34.4282 51.1793 34.4906 51.1511C34.6071 51.0984 34.7224 51.0384 34.8274 50.9656C36.4527 49.8389 37.9046 48.5683 38.4758 46.4625ZM69.1089 45.4685C68.9425 45.5758 68.7515 45.6581 68.6134 45.7944C67.1994 47.1899 66.0327 48.766 65.2035 50.5822C65.0632 50.8894 64.9467 51.2074 64.7684 51.6453C65.028 51.5525 65.1571 51.5354 65.2513 51.4685C67.2768 50.0299 68.5451 48.0527 69.2837 45.7055C69.3019 45.6476 69.2128 45.5557 69.1089 45.4685Z" fill="#9D9D9D"/>
</g>
<defs>
<clipPath id="clip0_227_2249">
<rect width="92" height="56" fill="white" transform="translate(1.25293) rotate(1.28199)"/>
</clipPath>
</defs>
</svg>
