<svg width="360" height="540" viewBox="0 0 360 540" fill="none" xmlns="http://www.w3.org/2000/svg">
<g clip-path="url(#clip0_455_6665)">
<rect width="360" height="540" rx="16" fill="#F8F7F4"/>
<path d="M33.54 189H27.184V168.896H33.54C39.952 168.896 43.648 172.984 43.648 178.864C43.648 184.66 39.812 189 33.54 189ZM30.264 171.556V186.34H33.4C38.02 186.34 40.512 183.484 40.512 178.864C40.512 174.328 38.048 171.556 33.4 171.556H30.264ZM52.4715 189.28C48.1875 189.28 45.3035 186.172 45.3035 181.496C45.3035 177.1 48.2995 173.88 52.3875 173.88C56.8115 173.88 59.7515 177.464 59.2475 182.28H48.1875C48.4115 185.304 49.9235 187.068 52.4155 187.068C54.5155 187.068 55.9715 185.92 56.4475 183.988H59.2475C58.5195 187.292 55.9715 189.28 52.4715 189.28ZM52.3315 176.008C50.0635 176.008 48.5235 177.632 48.2155 180.404H56.2515C56.1115 177.66 54.6275 176.008 52.3315 176.008ZM73.7342 184.576C73.7342 187.488 71.4662 189.28 67.5182 189.28C63.5982 189.28 61.2742 187.348 60.9942 184.156H63.7102C63.8222 186.004 65.3062 187.152 67.5742 187.152C69.5622 187.152 70.8782 186.452 70.8782 185.052C70.8782 183.82 70.1222 183.288 68.2742 182.924L65.8662 182.476C63.1222 181.944 61.5822 180.544 61.5822 178.304C61.5822 175.7 63.8502 173.88 67.2942 173.88C70.8502 173.88 73.2582 175.784 73.5102 178.836H70.7942C70.6262 177.044 69.3102 176.008 67.3222 176.008C65.5302 176.008 64.3262 176.764 64.3262 178.052C64.3262 179.256 65.0822 179.816 66.8742 180.152L69.3942 180.628C72.3342 181.16 73.7342 182.448 73.7342 184.576ZM79.9859 170.716C79.9859 171.78 79.1459 172.592 77.9419 172.592C76.7379 172.592 75.8699 171.78 75.8699 170.716C75.8699 169.624 76.7379 168.84 77.9419 168.84C79.1459 168.84 79.9859 169.624 79.9859 170.716ZM79.3699 189H76.5419V174.16H79.3699V189ZM88.9518 194.712C85.0598 194.712 82.5398 192.64 82.3718 189.28H85.1158C85.2838 191.352 86.6278 192.472 88.9238 192.472C91.4718 192.472 92.8158 191.1 92.8158 188.552V185.864C91.9758 187.656 90.2958 188.692 88.2798 188.692C84.5838 188.692 81.9518 185.64 81.9518 181.272C81.9518 176.848 84.4718 173.88 88.1958 173.88C90.3238 173.88 92.0038 174.916 93.0118 176.792V174.16H95.6438V188.496C95.6438 192.388 93.1518 194.712 88.9518 194.712ZM84.8078 181.272C84.8078 184.352 86.3198 186.228 88.7838 186.228C91.1918 186.228 92.8158 184.296 92.8158 181.356C92.8158 178.276 91.2198 176.316 88.7838 176.316C86.3478 176.316 84.8078 178.22 84.8078 181.272ZM102.107 180.628V189H99.2787V174.16H101.911V176.624C102.919 174.972 104.599 173.88 106.643 173.88C109.695 173.88 111.711 175.84 111.711 179.396V189H108.883V180.348C108.883 177.8 107.763 176.372 105.663 176.372C103.731 176.372 102.107 177.996 102.107 180.628ZM121.29 189.28C117.006 189.28 114.122 186.172 114.122 181.496C114.122 177.1 117.118 173.88 121.206 173.88C125.63 173.88 128.57 177.464 128.066 182.28H117.006C117.23 185.304 118.742 187.068 121.234 187.068C123.334 187.068 124.79 185.92 125.266 183.988H128.066C127.338 187.292 124.79 189.28 121.29 189.28ZM121.15 176.008C118.882 176.008 117.342 177.632 117.034 180.404H125.07C124.93 177.66 123.446 176.008 121.15 176.008ZM129.456 181.58C129.456 177.072 132.032 173.88 136.036 173.88C138.024 173.88 139.76 174.888 140.796 176.708V168.896H143.624V189H140.992V186.34C139.928 188.216 138.136 189.28 136.036 189.28C132.032 189.28 129.456 186.032 129.456 181.58ZM132.396 181.58C132.396 184.884 134.132 186.76 136.596 186.76C139.004 186.76 140.796 184.8 140.796 181.524C140.796 178.192 138.948 176.372 136.596 176.372C134.132 176.372 132.396 178.22 132.396 181.58ZM161.218 186.256V188.748C160.35 189.14 159.594 189.28 158.698 189.28C155.954 189.28 154.05 187.796 154.05 184.52V176.568H150.774V174.16H154.05V169.764H156.878V174.16H161.358V176.568H156.878V183.876C156.878 185.92 157.858 186.648 159.37 186.648C160.042 186.648 160.63 186.536 161.218 186.256ZM166.605 180.628V189H163.777V168.896H166.605V176.54C167.585 174.944 169.097 173.88 171.141 173.88C174.193 173.88 176.209 175.84 176.209 179.396V189H173.381V180.348C173.381 177.8 172.261 176.372 170.161 176.372C168.229 176.372 166.605 177.996 166.605 180.628ZM185.789 189.28C181.505 189.28 178.621 186.172 178.621 181.496C178.621 177.1 181.617 173.88 185.705 173.88C190.129 173.88 193.069 177.464 192.565 182.28H181.505C181.729 185.304 183.241 187.068 185.733 187.068C187.833 187.068 189.289 185.92 189.765 183.988H192.565C191.837 187.292 189.289 189.28 185.789 189.28ZM185.649 176.008C183.381 176.008 181.841 177.632 181.533 180.404H189.569C189.429 177.66 187.945 176.008 185.649 176.008ZM123.686 256.576C123.686 259.488 121.418 261.28 117.47 261.28C113.55 261.28 111.226 259.348 110.946 256.156H113.662C113.774 258.004 115.258 259.152 117.526 259.152C119.514 259.152 120.83 258.452 120.83 257.052C120.83 255.82 120.074 255.288 118.226 254.924L115.818 254.476C113.074 253.944 111.534 252.544 111.534 250.304C111.534 247.7 113.802 245.88 117.246 245.88C120.802 245.88 123.21 247.784 123.462 250.836H120.746C120.578 249.044 119.262 248.008 117.274 248.008C115.482 248.008 114.278 248.764 114.278 250.052C114.278 251.256 115.034 251.816 116.826 252.152L119.346 252.628C122.286 253.16 123.686 254.448 123.686 256.576ZM138.429 261L135.069 249.968L131.681 261H128.825L124.541 246.16H127.313L130.309 256.968L133.669 246.16H136.469L139.773 256.996L142.769 246.16H145.569L141.257 261H138.429ZM151.04 242.716C151.04 243.78 150.2 244.592 148.996 244.592C147.792 244.592 146.924 243.78 146.924 242.716C146.924 241.624 147.792 240.84 148.996 240.84C150.2 240.84 151.04 241.624 151.04 242.716ZM150.424 261H147.596V246.16H150.424V261ZM162.442 258.256V260.748C161.574 261.14 160.818 261.28 159.922 261.28C157.178 261.28 155.274 259.796 155.274 256.52V248.568H151.998V246.16H155.274V241.764H158.102V246.16H162.582V248.568H158.102V255.876C158.102 257.92 159.082 258.648 160.594 258.648C161.266 258.648 161.854 258.536 162.442 258.256ZM170.443 261.308C166.383 261.308 163.527 258.116 163.527 253.58C163.527 249.1 166.439 245.88 170.443 245.88C174.111 245.88 176.771 248.316 177.303 252.18H174.335C174.027 249.8 172.543 248.372 170.471 248.372C168.035 248.372 166.439 250.444 166.439 253.58C166.439 256.744 168.035 258.788 170.471 258.788C172.571 258.788 174.027 257.388 174.363 254.98H177.303C176.799 258.9 174.167 261.308 170.443 261.308ZM182.698 252.628V261H179.87V240.896H182.698V248.54C183.678 246.944 185.19 245.88 187.234 245.88C190.286 245.88 192.302 247.84 192.302 251.396V261H189.474V252.348C189.474 249.8 188.354 248.372 186.254 248.372C184.322 248.372 182.698 249.996 182.698 252.628ZM201.881 261.28C197.597 261.28 194.713 258.172 194.713 253.496C194.713 249.1 197.709 245.88 201.797 245.88C206.221 245.88 209.161 249.464 208.657 254.28H197.597C197.821 257.304 199.333 259.068 201.825 259.068C203.925 259.068 205.381 257.92 205.857 255.988H208.657C207.929 259.292 205.381 261.28 201.881 261.28ZM201.741 248.008C199.473 248.008 197.933 249.632 197.625 252.404H205.661C205.521 249.66 204.037 248.008 201.741 248.008ZM214.212 253.412V261H211.384V246.16H214.016V249.296C215.052 247.252 217.292 245.964 219.728 245.964V248.904C216.536 248.736 214.212 250.136 214.212 253.412ZM223.854 258.984C223.854 260.244 222.986 261.14 221.698 261.14C220.438 261.14 219.542 260.244 219.542 258.984C219.542 257.668 220.438 256.772 221.698 256.772C222.986 256.772 223.854 257.668 223.854 258.984Z" fill="#424242"/>
<path d="M35.836 218.7V210.048H39.7V225H36.144V223.04C35.332 224.356 33.68 225.28 31.776 225.28C28.78 225.28 26.596 223.46 26.596 219.568V210.048H30.488V218.812C30.488 220.912 31.524 221.836 33.092 221.836C34.492 221.836 35.836 220.716 35.836 218.7ZM57.8409 217.524C57.8409 221.948 55.2369 225.28 51.2049 225.28C49.4409 225.28 47.9289 224.524 46.8089 223.068V230.404H42.9169V210.048H46.5009V212.232C47.6489 210.636 49.3009 209.768 51.2049 209.768C55.2369 209.768 57.8409 213.128 57.8409 217.524ZM53.8369 217.524C53.8369 214.724 52.2409 213.212 50.3369 213.212C48.4329 213.212 46.8369 214.696 46.8369 217.524C46.8369 220.352 48.4329 221.808 50.3369 221.808C52.2409 221.808 53.8369 220.38 53.8369 217.524ZM72.6829 220.212C72.6829 223.348 70.3029 225.28 66.0469 225.28C61.7909 225.28 59.4109 223.236 59.1029 219.904H62.8269C62.8549 221.444 64.1709 222.424 66.1029 222.424C67.6149 222.424 68.7629 221.948 68.7629 220.884C68.7629 219.932 68.1469 219.54 66.7189 219.26L64.0309 218.756C61.3429 218.28 59.7189 216.796 59.7189 214.472C59.7189 211.7 62.0989 209.768 65.8229 209.768C69.5749 209.768 72.1509 211.756 72.4309 214.976H68.7069C68.5669 213.52 67.4749 212.624 65.8229 212.624C64.3949 212.624 63.4429 213.156 63.4429 214.108C63.4429 215.004 64.0589 215.368 65.4029 215.62L68.2869 216.152C71.1989 216.712 72.6829 218.056 72.6829 220.212ZM84.0553 221.22V224.608C83.1033 225.084 82.2073 225.28 81.0593 225.28C77.9793 225.28 76.0473 223.516 76.0473 220.156V213.38H73.0233V210.048H76.0473V205.624H79.9113V210.048H84.1953V213.38H79.9113V219.26C79.9113 220.996 80.6953 221.696 82.0953 221.696C82.8233 221.696 83.4953 221.528 84.0553 221.22ZM92.5717 225.28C88.2317 225.28 84.9837 221.864 84.9837 217.524C84.9837 213.156 88.2317 209.768 92.5717 209.768C96.9117 209.768 100.16 213.156 100.16 217.524C100.16 221.864 96.9117 225.28 92.5717 225.28ZM92.5717 221.836C94.5037 221.836 96.1557 220.296 96.1557 217.524C96.1557 214.752 94.5037 213.24 92.5717 213.24C90.6397 213.24 88.9877 214.752 88.9877 217.524C88.9877 220.296 90.6397 221.836 92.5717 221.836ZM104.565 225H100.225L105.265 217.384L100.561 210.048H105.041L108.093 215.2L111.173 210.048H115.261L110.613 217.524L115.625 225H111.201L107.841 219.624L104.565 225ZM137.891 217.524C137.891 221.948 135.287 225.28 131.255 225.28C129.491 225.28 127.979 224.524 126.859 223.068V230.404H122.967V210.048H126.551V212.232C127.699 210.636 129.351 209.768 131.255 209.768C135.287 209.768 137.891 213.128 137.891 217.524ZM133.887 217.524C133.887 214.724 132.291 213.212 130.387 213.212C128.483 213.212 126.887 214.696 126.887 217.524C126.887 220.352 128.483 221.808 130.387 221.808C132.291 221.808 133.887 220.38 133.887 217.524ZM143.997 217.748V225H140.105V210.048H143.689V212.932C144.781 211.028 147.105 209.88 149.513 209.88V213.912C146.209 213.66 143.997 214.444 143.997 217.748ZM157.754 225.28C153.414 225.28 150.166 221.864 150.166 217.524C150.166 213.156 153.414 209.768 157.754 209.768C162.094 209.768 165.342 213.156 165.342 217.524C165.342 221.864 162.094 225.28 157.754 225.28ZM157.754 221.836C159.686 221.836 161.338 220.296 161.338 217.524C161.338 214.752 159.686 213.24 157.754 213.24C155.822 213.24 154.17 214.752 154.17 217.524C154.17 220.296 155.822 221.836 157.754 221.836ZM173.621 214.024L187.621 208.312V211.7L177.541 215.564L187.621 219.456V222.816L173.621 217.104V214.024ZM205.825 217.104L191.825 222.816V219.456L201.905 215.564L191.825 211.7V208.312L205.825 214.024V217.104ZM224.197 218.7V210.048H228.061V225H224.505V223.04C223.693 224.356 222.041 225.28 220.137 225.28C217.141 225.28 214.957 223.46 214.957 219.568V210.048H218.849V218.812C218.849 220.912 219.885 221.836 221.453 221.836C222.853 221.836 224.197 220.716 224.197 218.7ZM246.202 217.524C246.202 221.948 243.598 225.28 239.566 225.28C237.802 225.28 236.29 224.524 235.17 223.068V230.404H231.278V210.048H234.862V212.232C236.01 210.636 237.662 209.768 239.566 209.768C243.598 209.768 246.202 213.128 246.202 217.524ZM242.198 217.524C242.198 214.724 240.602 213.212 238.698 213.212C236.794 213.212 235.198 214.696 235.198 217.524C235.198 220.352 236.794 221.808 238.698 221.808C240.602 221.808 242.198 220.38 242.198 217.524ZM261.044 220.212C261.044 223.348 258.664 225.28 254.408 225.28C250.152 225.28 247.772 223.236 247.464 219.904H251.188C251.216 221.444 252.532 222.424 254.464 222.424C255.976 222.424 257.124 221.948 257.124 220.884C257.124 219.932 256.508 219.54 255.08 219.26L252.392 218.756C249.704 218.28 248.08 216.796 248.08 214.472C248.08 211.7 250.46 209.768 254.184 209.768C257.936 209.768 260.512 211.756 260.792 214.976H257.068C256.928 213.52 255.836 212.624 254.184 212.624C252.756 212.624 251.804 213.156 251.804 214.108C251.804 215.004 252.42 215.368 253.764 215.62L256.648 216.152C259.56 216.712 261.044 218.056 261.044 220.212ZM272.417 221.22V224.608C271.465 225.084 270.569 225.28 269.421 225.28C266.341 225.28 264.409 223.516 264.409 220.156V213.38H261.385V210.048H264.409V205.624H268.273V210.048H272.557V213.38H268.273V219.26C268.273 220.996 269.057 221.696 270.457 221.696C271.185 221.696 271.857 221.528 272.417 221.22ZM280.933 225.28C276.593 225.28 273.345 221.864 273.345 217.524C273.345 213.156 276.593 209.768 280.933 209.768C285.273 209.768 288.521 213.156 288.521 217.524C288.521 221.864 285.273 225.28 280.933 225.28ZM280.933 221.836C282.865 221.836 284.517 220.296 284.517 217.524C284.517 214.752 282.865 213.24 280.933 213.24C279.001 213.24 277.349 214.752 277.349 217.524C277.349 220.296 279.001 221.836 280.933 221.836ZM292.926 225H288.586L293.626 217.384L288.922 210.048H293.402L296.454 215.2L299.534 210.048H303.622L298.974 217.524L303.986 225H299.562L296.202 219.624L292.926 225ZM31.244 242.576C31.244 243.892 30.18 244.872 28.64 244.872C27.128 244.872 26.064 243.892 26.064 242.576C26.064 241.204 27.128 240.224 28.64 240.224C30.18 240.224 31.244 241.204 31.244 242.576ZM30.628 261H26.736V246.048H30.628V261ZM37.7035 252.852V261H33.8115V246.048H37.3955V248.176C38.4875 246.692 40.0275 245.768 41.9875 245.768C44.9835 245.768 47.0555 247.728 47.0555 251.34V261H43.1915V252.656C43.1915 250.444 42.3235 249.212 40.5595 249.212C39.0195 249.212 37.7035 250.444 37.7035 252.852ZM63.0503 246.048L57.5623 261H53.3063L47.7903 246.048H51.9903L55.5463 256.576L59.1303 246.048H63.0503ZM70.4545 261.252C65.9745 261.252 62.9785 258.144 62.9785 253.468C62.9785 249.016 66.0865 245.768 70.3985 245.768C75.1305 245.768 78.2665 249.604 77.5665 254.476H66.9545C67.2065 256.912 68.3825 258.256 70.3705 258.256C72.0785 258.256 73.2265 257.416 73.6745 255.932H77.5385C76.6985 259.32 74.0945 261.252 70.4545 261.252ZM70.3145 248.624C68.4945 248.624 67.3465 249.8 67.0105 252.012H73.4505C73.3385 249.94 72.1625 248.624 70.3145 248.624ZM92.5213 256.212C92.5213 259.348 90.1413 261.28 85.8853 261.28C81.6293 261.28 79.2493 259.236 78.9413 255.904H82.6653C82.6933 257.444 84.0093 258.424 85.9413 258.424C87.4533 258.424 88.6013 257.948 88.6013 256.884C88.6013 255.932 87.9853 255.54 86.5573 255.26L83.8693 254.756C81.1813 254.28 79.5573 252.796 79.5573 250.472C79.5573 247.7 81.9373 245.768 85.6613 245.768C89.4133 245.768 91.9893 247.756 92.2693 250.976H88.5453C88.4053 249.52 87.3133 248.624 85.6613 248.624C84.2333 248.624 83.2813 249.156 83.2813 250.108C83.2813 251.004 83.8973 251.368 85.2413 251.62L88.1253 252.152C91.0373 252.712 92.5213 254.056 92.5213 256.212ZM103.894 257.22V260.608C102.942 261.084 102.046 261.28 100.898 261.28C97.8177 261.28 95.8857 259.516 95.8857 256.156V249.38H92.8617V246.048H95.8857V241.624H99.7497V246.048H104.034V249.38H99.7497V255.26C99.7497 256.996 100.534 257.696 101.934 257.696C102.662 257.696 103.334 257.528 103.894 257.22Z" fill="#5EBDBD"/>
<g clip-path="url(#clip1_455_6665)">
<g opacity="0.8">
<path d="M231.498 391.113C240.703 409.772 258.504 422.701 279.091 425.69C330.941 433.224 351.639 496.94 314.122 533.513C299.223 548.033 292.423 568.961 295.941 589.466C304.798 641.105 250.598 680.488 204.223 656.104C185.806 646.42 163.809 646.42 145.393 656.104C99.0177 680.488 44.8175 641.105 53.6747 589.466C57.1928 568.961 50.3929 548.039 35.494 533.513C-2.02346 496.94 18.6808 433.224 70.5253 425.69C91.1114 422.701 108.913 409.766 118.118 391.113C141.309 344.129 208.301 344.129 231.491 391.113H231.498Z" stroke="url(#paint0_linear_455_6665)" stroke-width="4.35094" stroke-miterlimit="10"/>
<path d="M180.211 377.923C196.21 391.225 217.728 395.799 237.755 390.155C288.188 375.947 333.016 425.74 313.617 474.408C305.915 493.733 308.215 515.618 319.764 532.916C348.859 576.487 315.363 634.51 263.077 631.098C242.317 629.743 222.216 638.693 209.331 655.028C176.879 696.163 111.348 682.234 98.4379 631.458C93.31 611.295 78.5914 594.948 59.0744 587.738C9.92741 569.588 2.92241 502.957 47.2212 474.986C64.8114 463.879 75.813 444.828 76.6397 424.037C78.7157 371.683 139.915 344.433 180.211 377.923V377.923Z" stroke="url(#paint1_linear_455_6665)" stroke-width="4.35094" stroke-miterlimit="10"/>
<path d="M122.657 389.508C142.684 395.152 164.202 390.578 180.202 377.276C220.491 343.786 281.696 371.036 283.772 423.39C284.593 444.181 295.595 463.232 313.191 474.339C357.49 502.31 350.491 568.941 301.338 587.091C281.821 594.301 267.102 610.648 261.974 630.811C249.064 681.587 183.527 695.516 151.081 654.381C138.196 638.046 118.095 629.096 97.3348 630.451C45.0552 633.863 11.553 575.84 40.6483 532.269C52.2032 514.965 54.5029 493.086 46.7956 473.761C27.3966 425.093 72.2237 375.306 122.657 389.508V389.508Z" stroke="url(#paint2_linear_455_6665)" stroke-width="4.35094" stroke-miterlimit="10"/>
</g>
<g opacity="0.8">
<path d="M195.003 448.161C198.272 457.347 208.764 461.692 217.572 457.509C231.557 450.865 246.145 465.453 239.495 479.432C235.311 488.239 239.656 498.731 248.843 502.001C263.431 507.191 263.431 527.82 248.843 533.004C239.656 536.273 235.311 546.765 239.495 555.573C246.139 569.558 231.551 584.146 217.572 577.495C208.764 573.312 198.272 577.657 195.003 586.844C189.813 601.432 169.183 601.432 164 586.844C160.73 577.657 150.238 573.312 141.431 577.495C127.445 584.14 112.857 569.552 119.508 555.573C123.691 546.765 119.346 536.273 110.16 533.004C95.5717 527.814 95.5717 507.184 110.16 502.001C119.346 498.731 123.691 488.239 119.508 479.432C112.864 465.446 127.452 450.858 141.431 457.509C150.238 461.692 160.73 457.347 164 448.161C169.19 433.573 189.819 433.573 195.003 448.161Z" stroke="url(#paint3_linear_455_6665)" stroke-width="4.35094" stroke-miterlimit="10"/>
<path d="M167.283 447.502C173.815 454.737 185.178 454.737 191.71 447.502C202.084 436.009 221.147 443.903 220.358 459.367C219.861 469.107 227.891 477.138 237.631 476.64C253.096 475.851 260.99 494.908 249.497 505.288C242.262 511.821 242.262 523.183 249.497 529.716C260.99 540.089 253.096 559.153 237.631 558.363C227.891 557.866 219.861 565.897 220.358 575.637C221.147 591.101 202.09 598.995 191.71 587.502C185.178 580.267 173.815 580.267 167.283 587.502C156.909 598.995 137.846 591.101 138.635 575.637C139.132 565.897 131.102 557.866 121.362 558.363C105.897 559.153 98.0035 540.096 109.496 529.716C116.731 523.183 116.731 511.821 109.496 505.288C98.0035 494.914 105.897 475.851 121.362 476.64C131.102 477.138 139.132 469.107 138.635 459.367C137.846 443.903 156.903 436.009 167.283 447.502V447.502Z" stroke="url(#paint4_linear_455_6665)" stroke-width="4.35094" stroke-miterlimit="10"/>
</g>
<path opacity="0.8" d="M179.507 723.831C293.459 723.831 385.835 631.455 385.835 517.503C385.835 403.551 293.459 311.175 179.507 311.175C65.5557 311.175 -26.8203 403.551 -26.8203 517.503C-26.8203 631.455 65.5557 723.831 179.507 723.831Z" stroke="url(#paint5_linear_455_6665)" stroke-width="4.35094" stroke-miterlimit="10"/>
</g>
<rect x="24.5" y="92.5" width="47" height="47" rx="7.5" fill="#E4F1F1"/>
<rect x="24.5" y="92.5" width="47" height="47" rx="7.5" stroke="#CCEAEA"/>
<path d="M53.25 108.125H42.75C40.6614 108.125 38.6584 108.955 37.1815 110.432C35.7047 111.908 34.875 113.911 34.875 116C34.875 118.089 35.7047 120.092 37.1815 121.568C38.6584 123.045 40.6614 123.875 42.75 123.875H53.25C55.3386 123.875 57.3416 123.045 58.8185 121.568C60.2953 120.092 61.125 118.089 61.125 116C61.125 113.911 60.2953 111.908 58.8185 110.432C57.3416 108.955 55.3386 108.125 53.25 108.125ZM53.25 120.375C52.3847 120.375 51.5388 120.118 50.8194 119.638C50.0999 119.157 49.5392 118.474 49.208 117.674C48.8769 116.875 48.7903 115.995 48.9591 115.146C49.1279 114.298 49.5446 113.518 50.1564 112.906C50.7683 112.295 51.5478 111.878 52.3965 111.709C53.2451 111.54 54.1248 111.627 54.9242 111.958C55.7237 112.289 56.4069 112.85 56.8877 113.569C57.3684 114.289 57.625 115.135 57.625 116C57.625 117.16 57.1641 118.273 56.3436 119.094C55.5231 119.914 54.4103 120.375 53.25 120.375Z" fill="#5EBDBD"/>
</g>
<defs>
<linearGradient id="paint0_linear_455_6665" x1="174.809" y1="355.875" x2="174.809" y2="663.506" gradientUnits="userSpaceOnUse">
<stop stop-color="#F8F7F4"/>
<stop offset="0.235" stop-color="#F6F3EC"/>
<stop offset="0.57" stop-color="#EDEAE0"/>
<stop offset="0.8" stop-color="#EDEAE0"/>
</linearGradient>
<linearGradient id="paint1_linear_455_6665" x1="174.144" y1="363.219" x2="174.144" y2="679.125" gradientUnits="userSpaceOnUse">
<stop stop-color="#F8F7F4"/>
<stop offset="0.235" stop-color="#F6F3EC"/>
<stop offset="0.57" stop-color="#EDEAE0"/>
<stop offset="0.8" stop-color="#EDEAE0"/>
</linearGradient>
<linearGradient id="paint2_linear_455_6665" x1="186.27" y1="362.572" x2="186.27" y2="678.478" gradientUnits="userSpaceOnUse">
<stop stop-color="#F8F7F4"/>
<stop offset="0.235" stop-color="#F6F3EC"/>
<stop offset="0.57" stop-color="#EDEAE0"/>
<stop offset="0.8" stop-color="#EDEAE0"/>
</linearGradient>
<linearGradient id="paint3_linear_455_6665" x1="179.501" y1="437.22" x2="179.501" y2="597.785" gradientUnits="userSpaceOnUse">
<stop stop-color="#F8F7F4"/>
<stop offset="0.2" stop-color="#F6F3EC"/>
<stop offset="0.57" stop-color="#EDEAE0"/>
<stop offset="0.8" stop-color="#EDEAE0"/>
</linearGradient>
<linearGradient id="paint4_linear_455_6665" x1="179.497" y1="442.033" x2="179.497" y2="592.971" gradientUnits="userSpaceOnUse">
<stop stop-color="#F8F7F4"/>
<stop offset="0.2" stop-color="#F6F3EC"/>
<stop offset="0.57" stop-color="#EDEAE0"/>
<stop offset="0.8" stop-color="#EDEAE0"/>
</linearGradient>
<linearGradient id="paint5_linear_455_6665" x1="179.507" y1="311.175" x2="179.507" y2="723.831" gradientUnits="userSpaceOnUse">
<stop stop-color="#F8F7F4"/>
<stop offset="0.2" stop-color="#F6F3EC"/>
<stop offset="0.57" stop-color="#EDEAE0"/>
<stop offset="0.8" stop-color="#EDEAE0"/>
</linearGradient>
<clipPath id="clip0_455_6665">
<rect width="360" height="540" rx="16" fill="white"/>
</clipPath>
<clipPath id="clip1_455_6665">
<rect width="417" height="417" fill="white" transform="translate(-29 309)"/>
</clipPath>
</defs>
</svg>
