<svg width="360" height="540" viewBox="0 0 360 540" fill="none" xmlns="http://www.w3.org/2000/svg">
<g clip-path="url(#clip0_455_6655)">
<rect width="360" height="540" rx="12" fill="#F8F7F4"/>
<g clip-path="url(#clip1_455_6655)">
<g opacity="0.8">
<path d="M231.498 391.113C240.703 409.772 258.504 422.701 279.091 425.69C330.941 433.224 351.639 496.94 314.122 533.513C299.223 548.033 292.423 568.961 295.941 589.466C304.798 641.105 250.598 680.488 204.223 656.104C185.806 646.42 163.809 646.42 145.393 656.104C99.0177 680.488 44.8175 641.105 53.6747 589.466C57.1928 568.961 50.3929 548.039 35.494 533.513C-2.02346 496.94 18.6808 433.224 70.5253 425.69C91.1114 422.701 108.913 409.766 118.118 391.113C141.309 344.129 208.301 344.129 231.491 391.113H231.498Z" stroke="url(#paint0_linear_455_6655)" stroke-width="4.35094" stroke-miterlimit="10"/>
<path d="M180.211 377.923C196.21 391.225 217.728 395.799 237.755 390.155C288.188 375.947 333.016 425.74 313.617 474.408C305.915 493.733 308.215 515.618 319.764 532.916C348.859 576.487 315.363 634.51 263.077 631.098C242.317 629.743 222.216 638.693 209.331 655.028C176.879 696.163 111.348 682.234 98.4379 631.458C93.31 611.295 78.5914 594.948 59.0744 587.738C9.92741 569.588 2.92241 502.957 47.2212 474.986C64.8114 463.879 75.813 444.828 76.6397 424.037C78.7157 371.683 139.915 344.433 180.211 377.923V377.923Z" stroke="url(#paint1_linear_455_6655)" stroke-width="4.35094" stroke-miterlimit="10"/>
<path d="M122.657 389.508C142.684 395.152 164.202 390.578 180.202 377.276C220.491 343.786 281.696 371.036 283.772 423.39C284.593 444.181 295.595 463.232 313.191 474.339C357.49 502.31 350.491 568.941 301.338 587.091C281.821 594.301 267.102 610.648 261.974 630.811C249.064 681.587 183.527 695.516 151.081 654.381C138.196 638.046 118.095 629.096 97.3348 630.451C45.0552 633.863 11.553 575.84 40.6483 532.269C52.2032 514.965 54.5029 493.086 46.7956 473.761C27.3966 425.093 72.2237 375.306 122.657 389.508V389.508Z" stroke="url(#paint2_linear_455_6655)" stroke-width="4.35094" stroke-miterlimit="10"/>
</g>
<g opacity="0.8">
<path d="M195.003 448.161C198.272 457.347 208.764 461.692 217.572 457.509C231.557 450.865 246.145 465.453 239.495 479.432C235.311 488.239 239.656 498.731 248.843 502.001C263.431 507.191 263.431 527.82 248.843 533.004C239.656 536.273 235.311 546.765 239.495 555.573C246.139 569.558 231.551 584.146 217.572 577.495C208.764 573.312 198.272 577.657 195.003 586.844C189.813 601.432 169.183 601.432 164 586.844C160.73 577.657 150.238 573.312 141.431 577.495C127.445 584.14 112.857 569.552 119.508 555.573C123.691 546.765 119.346 536.273 110.16 533.004C95.5717 527.814 95.5717 507.184 110.16 502.001C119.346 498.731 123.691 488.239 119.508 479.432C112.864 465.446 127.452 450.858 141.431 457.509C150.238 461.692 160.73 457.347 164 448.161C169.19 433.573 189.819 433.573 195.003 448.161Z" stroke="url(#paint3_linear_455_6655)" stroke-width="4.35094" stroke-miterlimit="10"/>
<path d="M167.283 447.502C173.815 454.737 185.178 454.737 191.71 447.502C202.084 436.009 221.147 443.903 220.358 459.367C219.861 469.107 227.891 477.138 237.631 476.64C253.096 475.851 260.99 494.908 249.497 505.288C242.262 511.821 242.262 523.183 249.497 529.716C260.99 540.089 253.096 559.153 237.631 558.363C227.891 557.866 219.861 565.897 220.358 575.637C221.147 591.101 202.09 598.995 191.71 587.502C185.178 580.267 173.815 580.267 167.283 587.502C156.909 598.995 137.846 591.101 138.635 575.637C139.132 565.897 131.102 557.866 121.362 558.363C105.897 559.153 98.0035 540.096 109.496 529.716C116.731 523.183 116.731 511.821 109.496 505.288C98.0035 494.914 105.897 475.851 121.362 476.64C131.102 477.138 139.132 469.107 138.635 459.367C137.846 443.903 156.903 436.009 167.283 447.502V447.502Z" stroke="url(#paint4_linear_455_6655)" stroke-width="4.35094" stroke-miterlimit="10"/>
</g>
<path opacity="0.8" d="M179.507 723.831C293.459 723.831 385.835 631.455 385.835 517.503C385.835 403.551 293.459 311.175 179.507 311.175C65.5557 311.175 -26.8203 403.551 -26.8203 517.503C-26.8203 631.455 65.5557 723.831 179.507 723.831Z" stroke="url(#paint5_linear_455_6655)" stroke-width="4.35094" stroke-miterlimit="10"/>
</g>
<path d="M25.6406 200V179.629H38.4238V182.268H28.7168V188.406H37.7402V191.031H28.7168V197.361H38.5195V200H25.6406ZM43.4551 184.715L46.8047 190.676L50.209 184.715H53.4766L48.7188 192.371L53.5039 200H50.2637L46.8047 194.285L43.4004 200H40.1328L44.877 192.371L40.1875 184.715H43.4551ZM55.3906 205.715V184.715H58.2617V187.203H58.5078C58.6901 186.884 58.9408 186.515 59.2598 186.096C59.5879 185.676 60.0436 185.312 60.627 185.002C61.2103 184.683 61.9714 184.523 62.9102 184.523C64.1406 184.523 65.2344 184.833 66.1914 185.453C67.1576 186.073 67.9186 186.971 68.4746 188.146C69.0306 189.322 69.3086 190.74 69.3086 192.398C69.3086 194.039 69.0352 195.452 68.4883 196.637C67.9414 197.812 67.1849 198.719 66.2188 199.357C65.2617 199.986 64.1634 200.301 62.9238 200.301C62.0033 200.301 61.2467 200.146 60.6543 199.836C60.071 199.517 59.6107 199.148 59.2734 198.729C58.9453 198.309 58.6901 197.94 58.5078 197.621H58.3438V205.715H55.3906ZM62.2812 197.771C63.1654 197.771 63.9036 197.535 64.4961 197.061C65.0885 196.587 65.5352 195.944 65.8359 195.133C66.1458 194.312 66.3008 193.392 66.3008 192.371C66.3008 191.359 66.1504 190.452 65.8496 189.65C65.5488 188.848 65.1022 188.215 64.5098 187.75C63.9173 187.285 63.1745 187.053 62.2812 187.053C61.4154 187.053 60.6862 187.276 60.0938 187.723C59.5013 188.16 59.0501 188.78 58.7402 189.582C58.4395 190.375 58.2891 191.305 58.2891 192.371C58.2891 193.438 58.444 194.376 58.7539 195.188C59.0638 195.999 59.515 196.632 60.1074 197.088C60.709 197.544 61.4336 197.771 62.2812 197.771ZM74.4219 179.629V200H71.4688V179.629H74.4219ZM83.6777 200.314C82.2467 200.314 80.9935 199.986 79.918 199.33C78.8516 198.674 78.0221 197.753 77.4297 196.568C76.8464 195.383 76.5547 194.007 76.5547 192.439C76.5547 190.854 76.8464 189.468 77.4297 188.283C78.0221 187.089 78.8516 186.164 79.918 185.508C80.9935 184.852 82.2467 184.523 83.6777 184.523C85.1178 184.523 86.3711 184.852 87.4375 185.508C88.5039 186.164 89.3333 187.089 89.9258 188.283C90.5182 189.468 90.8145 190.854 90.8145 192.439C90.8145 194.007 90.5182 195.383 89.9258 196.568C89.3333 197.753 88.5039 198.674 87.4375 199.33C86.3711 199.986 85.1178 200.314 83.6777 200.314ZM83.6777 197.812C84.6165 197.812 85.3913 197.566 86.002 197.074C86.6126 196.582 87.0638 195.93 87.3555 195.119C87.6562 194.299 87.8066 193.406 87.8066 192.439C87.8066 191.455 87.6562 190.553 87.3555 189.732C87.0638 188.912 86.6126 188.256 86.002 187.764C85.3913 187.271 84.6165 187.025 83.6777 187.025C82.748 187.025 81.9779 187.271 81.3672 187.764C80.7656 188.256 80.3145 188.912 80.0137 189.732C79.7129 190.553 79.5625 191.455 79.5625 192.439C79.5625 193.406 79.7129 194.299 80.0137 195.119C80.3145 195.93 80.7656 196.582 81.3672 197.074C81.9779 197.566 82.748 197.812 83.6777 197.812ZM92.9609 200V184.715H95.8184V187.162H95.9824C96.265 186.342 96.7572 185.695 97.459 185.221C98.1699 184.738 98.972 184.496 99.8652 184.496C100.048 184.496 100.262 184.505 100.508 184.523C100.763 184.533 100.968 184.546 101.123 184.564V187.408C101.005 187.372 100.79 187.335 100.48 187.299C100.18 187.262 99.8743 187.244 99.5645 187.244C98.8626 187.244 98.2337 187.395 97.6777 187.695C97.1309 187.987 96.6979 188.393 96.3789 188.912C96.069 189.423 95.9141 190.015 95.9141 190.689V200H92.9609ZM108.588 200.314C107.093 200.314 105.799 199.991 104.705 199.344C103.611 198.697 102.768 197.785 102.176 196.609C101.592 195.424 101.301 194.044 101.301 192.467C101.301 190.899 101.588 189.518 102.162 188.324C102.745 187.13 103.561 186.201 104.609 185.535C105.667 184.861 106.906 184.523 108.328 184.523C109.194 184.523 110.033 184.665 110.844 184.947C111.655 185.23 112.384 185.676 113.031 186.287C113.678 186.898 114.189 187.691 114.562 188.666C114.945 189.641 115.137 190.817 115.137 192.193V193.26H102.982V191.031H113.605L112.225 191.77C112.225 190.831 112.079 190.001 111.787 189.281C111.495 188.561 111.058 188.001 110.475 187.6C109.9 187.189 109.185 186.984 108.328 186.984C107.471 186.984 106.738 187.189 106.127 187.6C105.525 188.01 105.065 188.552 104.746 189.227C104.427 189.901 104.268 190.639 104.268 191.441V192.959C104.268 194.007 104.45 194.896 104.814 195.625C105.179 196.354 105.685 196.91 106.332 197.293C106.988 197.676 107.749 197.867 108.615 197.867C109.18 197.867 109.691 197.785 110.146 197.621C110.611 197.457 111.012 197.211 111.35 196.883C111.687 196.555 111.942 196.149 112.115 195.666L114.932 196.199C114.704 197.02 114.303 197.74 113.729 198.359C113.154 198.979 112.43 199.462 111.555 199.809C110.689 200.146 109.7 200.314 108.588 200.314ZM122.902 200.301C121.663 200.301 120.56 199.986 119.594 199.357C118.628 198.719 117.871 197.812 117.324 196.637C116.777 195.452 116.504 194.039 116.504 192.398C116.504 190.74 116.782 189.322 117.338 188.146C117.894 186.971 118.655 186.073 119.621 185.453C120.587 184.833 121.681 184.523 122.902 184.523C123.859 184.523 124.625 184.683 125.199 185.002C125.783 185.312 126.234 185.676 126.553 186.096C126.881 186.515 127.132 186.884 127.305 187.203H127.482V179.629H130.436V200H127.551V197.621H127.305C127.132 197.94 126.876 198.309 126.539 198.729C126.202 199.148 125.742 199.517 125.158 199.836C124.584 200.146 123.832 200.301 122.902 200.301ZM123.545 197.771C124.402 197.771 125.126 197.544 125.719 197.088C126.311 196.632 126.758 195.999 127.059 195.188C127.368 194.376 127.523 193.438 127.523 192.371C127.523 191.305 127.373 190.375 127.072 189.582C126.771 188.78 126.325 188.16 125.732 187.723C125.14 187.276 124.411 187.053 123.545 187.053C122.652 187.053 121.909 187.285 121.316 187.75C120.724 188.215 120.277 188.848 119.977 189.65C119.676 190.452 119.525 191.359 119.525 192.371C119.525 193.392 119.676 194.312 119.977 195.133C120.277 195.944 120.724 196.587 121.316 197.061C121.918 197.535 122.661 197.771 123.545 197.771ZM143.957 200.328C142.991 200.328 142.116 200.15 141.332 199.795C140.548 199.43 139.928 198.902 139.473 198.209C139.017 197.516 138.789 196.673 138.789 195.68C138.789 194.814 138.953 194.107 139.281 193.561C139.618 193.005 140.07 192.562 140.635 192.234C141.2 191.906 141.829 191.66 142.521 191.496C143.214 191.332 143.925 191.204 144.654 191.113C145.575 191.013 146.318 190.926 146.883 190.854C147.448 190.781 147.858 190.667 148.113 190.512C148.378 190.348 148.51 190.088 148.51 189.732V189.664C148.51 188.798 148.264 188.128 147.771 187.654C147.288 187.18 146.568 186.943 145.611 186.943C144.618 186.943 143.829 187.162 143.246 187.6C142.672 188.028 142.275 188.516 142.057 189.062L139.254 188.42C139.591 187.49 140.079 186.743 140.717 186.178C141.364 185.604 142.102 185.184 142.932 184.92C143.77 184.656 144.645 184.523 145.557 184.523C146.167 184.523 146.814 184.596 147.498 184.742C148.182 184.879 148.824 185.139 149.426 185.521C150.036 185.895 150.533 186.433 150.916 187.135C151.299 187.837 151.49 188.743 151.49 189.855V200H148.578V197.908H148.469C148.286 198.282 147.999 198.656 147.607 199.029C147.225 199.403 146.732 199.713 146.131 199.959C145.529 200.205 144.805 200.328 143.957 200.328ZM144.6 197.949C145.429 197.949 146.135 197.79 146.719 197.471C147.302 197.143 147.749 196.714 148.059 196.186C148.368 195.657 148.523 195.096 148.523 194.504V192.521C148.414 192.622 148.209 192.717 147.908 192.809C147.607 192.9 147.266 192.977 146.883 193.041C146.5 193.105 146.126 193.164 145.762 193.219C145.397 193.264 145.092 193.301 144.846 193.328C144.271 193.41 143.747 193.538 143.273 193.711C142.799 193.875 142.417 194.121 142.125 194.449C141.842 194.768 141.701 195.192 141.701 195.721C141.701 196.459 141.975 197.015 142.521 197.389C143.068 197.762 143.761 197.949 144.6 197.949ZM157.301 179.629V200H154.348V179.629H157.301ZM167.254 184.715V187.107H158.914V184.715H167.254ZM161.143 181.078H164.109V195.516C164.109 196.217 164.255 196.732 164.547 197.061C164.839 197.38 165.308 197.539 165.955 197.539C166.11 197.539 166.274 197.53 166.447 197.512C166.63 197.493 166.812 197.466 166.994 197.43L167.555 199.891C167.254 199.991 166.926 200.068 166.57 200.123C166.215 200.178 165.859 200.205 165.504 200.205C164.182 200.205 163.125 199.836 162.332 199.098C161.539 198.35 161.143 197.357 161.143 196.117V181.078ZM175.799 200.314C174.304 200.314 173.01 199.991 171.916 199.344C170.822 198.697 169.979 197.785 169.387 196.609C168.803 195.424 168.512 194.044 168.512 192.467C168.512 190.899 168.799 189.518 169.373 188.324C169.956 187.13 170.772 186.201 171.82 185.535C172.878 184.861 174.117 184.523 175.539 184.523C176.405 184.523 177.243 184.665 178.055 184.947C178.866 185.23 179.595 185.676 180.242 186.287C180.889 186.898 181.4 187.691 181.773 188.666C182.156 189.641 182.348 190.817 182.348 192.193V193.26H170.193V191.031H180.816L179.436 191.77C179.436 190.831 179.29 190.001 178.998 189.281C178.706 188.561 178.269 188.001 177.686 187.6C177.111 187.189 176.396 186.984 175.539 186.984C174.682 186.984 173.949 187.189 173.338 187.6C172.736 188.01 172.276 188.552 171.957 189.227C171.638 189.901 171.479 190.639 171.479 191.441V192.959C171.479 194.007 171.661 194.896 172.025 195.625C172.39 196.354 172.896 196.91 173.543 197.293C174.199 197.676 174.96 197.867 175.826 197.867C176.391 197.867 176.902 197.785 177.357 197.621C177.822 197.457 178.223 197.211 178.561 196.883C178.898 196.555 179.153 196.149 179.326 195.666L182.143 196.199C181.915 197.02 181.514 197.74 180.939 198.359C180.365 198.979 179.641 199.462 178.766 199.809C177.9 200.146 176.911 200.314 175.799 200.314ZM184.426 200V184.715H187.283V187.162H187.447C187.73 186.342 188.222 185.695 188.924 185.221C189.635 184.738 190.437 184.496 191.33 184.496C191.512 184.496 191.727 184.505 191.973 184.523C192.228 184.533 192.433 184.546 192.588 184.564V187.408C192.469 187.372 192.255 187.335 191.945 187.299C191.645 187.262 191.339 187.244 191.029 187.244C190.327 187.244 189.699 187.395 189.143 187.695C188.596 187.987 188.163 188.393 187.844 188.912C187.534 189.423 187.379 190.015 187.379 190.689V200H184.426ZM196.977 190.936V200H194.023V184.715H196.895V187.23H197.1C197.446 186.401 197.988 185.745 198.727 185.262C199.465 184.77 200.413 184.523 201.57 184.523C202.609 184.523 203.516 184.742 204.291 185.18C205.075 185.608 205.681 186.251 206.109 187.107C206.547 187.964 206.766 189.026 206.766 190.293V200H203.812V190.648C203.812 189.546 203.521 188.68 202.938 188.051C202.354 187.413 201.561 187.094 200.559 187.094C199.875 187.094 199.26 187.249 198.713 187.559C198.175 187.859 197.751 188.292 197.441 188.857C197.132 189.423 196.977 190.115 196.977 190.936ZM214.039 200.328C213.073 200.328 212.198 200.15 211.414 199.795C210.63 199.43 210.01 198.902 209.555 198.209C209.099 197.516 208.871 196.673 208.871 195.68C208.871 194.814 209.035 194.107 209.363 193.561C209.701 193.005 210.152 192.562 210.717 192.234C211.282 191.906 211.911 191.66 212.604 191.496C213.296 191.332 214.007 191.204 214.736 191.113C215.657 191.013 216.4 190.926 216.965 190.854C217.53 190.781 217.94 190.667 218.195 190.512C218.46 190.348 218.592 190.088 218.592 189.732V189.664C218.592 188.798 218.346 188.128 217.854 187.654C217.37 187.18 216.65 186.943 215.693 186.943C214.7 186.943 213.911 187.162 213.328 187.6C212.754 188.028 212.357 188.516 212.139 189.062L209.336 188.42C209.673 187.49 210.161 186.743 210.799 186.178C211.446 185.604 212.184 185.184 213.014 184.92C213.852 184.656 214.727 184.523 215.639 184.523C216.249 184.523 216.896 184.596 217.58 184.742C218.264 184.879 218.906 185.139 219.508 185.521C220.118 185.895 220.615 186.433 220.998 187.135C221.381 187.837 221.572 188.743 221.572 189.855V200H218.66V197.908H218.551C218.368 198.282 218.081 198.656 217.689 199.029C217.307 199.403 216.814 199.713 216.213 199.959C215.611 200.205 214.887 200.328 214.039 200.328ZM214.682 197.949C215.511 197.949 216.217 197.79 216.801 197.471C217.384 197.143 217.831 196.714 218.141 196.186C218.451 195.657 218.605 195.096 218.605 194.504V192.521C218.496 192.622 218.291 192.717 217.99 192.809C217.689 192.9 217.348 192.977 216.965 193.041C216.582 193.105 216.208 193.164 215.844 193.219C215.479 193.264 215.174 193.301 214.928 193.328C214.354 193.41 213.829 193.538 213.355 193.711C212.882 193.875 212.499 194.121 212.207 194.449C211.924 194.768 211.783 195.192 211.783 195.721C211.783 196.459 212.057 197.015 212.604 197.389C213.15 197.762 213.843 197.949 214.682 197.949ZM231.539 184.715V187.107H223.199V184.715H231.539ZM225.428 181.078H228.395V195.516C228.395 196.217 228.54 196.732 228.832 197.061C229.124 197.38 229.593 197.539 230.24 197.539C230.395 197.539 230.559 197.53 230.732 197.512C230.915 197.493 231.097 197.466 231.279 197.43L231.84 199.891C231.539 199.991 231.211 200.068 230.855 200.123C230.5 200.178 230.145 200.205 229.789 200.205C228.467 200.205 227.41 199.836 226.617 199.098C225.824 198.35 225.428 197.357 225.428 196.117V181.078ZM233.672 200V184.715H236.625V200H233.672ZM235.162 182.363C234.643 182.363 234.201 182.19 233.836 181.844C233.471 181.497 233.289 181.083 233.289 180.6C233.289 180.107 233.471 179.688 233.836 179.342C234.201 178.995 234.643 178.822 235.162 178.822C235.673 178.822 236.11 178.995 236.475 179.342C236.848 179.688 237.035 180.107 237.035 180.6C237.035 181.083 236.848 181.497 236.475 181.844C236.11 182.19 235.673 182.363 235.162 182.363ZM252.512 184.715L246.988 200H243.789L238.252 184.715H241.438L245.32 196.5H245.484L249.34 184.715H252.512ZM260.209 200.314C258.714 200.314 257.42 199.991 256.326 199.344C255.232 198.697 254.389 197.785 253.797 196.609C253.214 195.424 252.922 194.044 252.922 192.467C252.922 190.899 253.209 189.518 253.783 188.324C254.367 187.13 255.182 186.201 256.23 185.535C257.288 184.861 258.527 184.523 259.949 184.523C260.815 184.523 261.654 184.665 262.465 184.947C263.276 185.23 264.005 185.676 264.652 186.287C265.299 186.898 265.81 187.691 266.184 188.666C266.566 189.641 266.758 190.817 266.758 192.193V193.26H254.604V191.031H265.227L263.846 191.77C263.846 190.831 263.7 190.001 263.408 189.281C263.117 188.561 262.679 188.001 262.096 187.6C261.521 187.189 260.806 186.984 259.949 186.984C259.092 186.984 258.359 187.189 257.748 187.6C257.146 188.01 256.686 188.552 256.367 189.227C256.048 189.901 255.889 190.639 255.889 191.441V192.959C255.889 194.007 256.071 194.896 256.436 195.625C256.8 196.354 257.306 196.91 257.953 197.293C258.609 197.676 259.37 197.867 260.236 197.867C260.801 197.867 261.312 197.785 261.768 197.621C262.232 197.457 262.633 197.211 262.971 196.883C263.308 196.555 263.563 196.149 263.736 195.666L266.553 196.199C266.325 197.02 265.924 197.74 265.35 198.359C264.775 198.979 264.051 199.462 263.176 199.809C262.31 200.146 261.321 200.314 260.209 200.314ZM32.5312 256.715V259.107H24.1914V256.715H32.5312ZM26.4199 253.078H29.3867V267.516C29.3867 268.217 29.5326 268.732 29.8242 269.061C30.1159 269.38 30.5853 269.539 31.2324 269.539C31.3874 269.539 31.5514 269.53 31.7246 269.512C31.9069 269.493 32.0892 269.466 32.2715 269.43L32.832 271.891C32.5312 271.991 32.2031 272.068 31.8477 272.123C31.4922 272.178 31.1367 272.205 30.7812 272.205C29.4596 272.205 28.4023 271.836 27.6094 271.098C26.8164 270.35 26.4199 269.357 26.4199 268.117V253.078ZM40.9121 272.314C39.4811 272.314 38.2279 271.986 37.1523 271.33C36.0859 270.674 35.2565 269.753 34.6641 268.568C34.0807 267.383 33.7891 266.007 33.7891 264.439C33.7891 262.854 34.0807 261.468 34.6641 260.283C35.2565 259.089 36.0859 258.164 37.1523 257.508C38.2279 256.852 39.4811 256.523 40.9121 256.523C42.3522 256.523 43.6055 256.852 44.6719 257.508C45.7383 258.164 46.5677 259.089 47.1602 260.283C47.7526 261.468 48.0488 262.854 48.0488 264.439C48.0488 266.007 47.7526 267.383 47.1602 268.568C46.5677 269.753 45.7383 270.674 44.6719 271.33C43.6055 271.986 42.3522 272.314 40.9121 272.314ZM40.9121 269.812C41.8509 269.812 42.6257 269.566 43.2363 269.074C43.847 268.582 44.2982 267.93 44.5898 267.119C44.8906 266.299 45.041 265.406 45.041 264.439C45.041 263.455 44.8906 262.553 44.5898 261.732C44.2982 260.912 43.847 260.256 43.2363 259.764C42.6257 259.271 41.8509 259.025 40.9121 259.025C39.9824 259.025 39.2122 259.271 38.6016 259.764C38 260.256 37.5488 260.912 37.248 261.732C36.9473 262.553 36.7969 263.455 36.7969 264.439C36.7969 265.406 36.9473 266.299 37.248 267.119C37.5488 267.93 38 268.582 38.6016 269.074C39.2122 269.566 39.9824 269.812 40.9121 269.812ZM56.4297 272V256.715H59.3828V272H56.4297ZM57.9199 254.363C57.4004 254.363 56.9583 254.19 56.5938 253.844C56.2292 253.497 56.0469 253.083 56.0469 252.6C56.0469 252.107 56.2292 251.688 56.5938 251.342C56.9583 250.995 57.4004 250.822 57.9199 250.822C58.4303 250.822 58.8678 250.995 59.2324 251.342C59.6061 251.688 59.793 252.107 59.793 252.6C59.793 253.083 59.6061 253.497 59.2324 253.844C58.8678 254.19 58.4303 254.363 57.9199 254.363ZM62.2266 272V256.715H65.0566V259.23H65.2617C65.5807 258.383 66.1003 257.722 66.8203 257.248C67.5495 256.765 68.4154 256.523 69.418 256.523C70.4388 256.523 71.291 256.765 71.9746 257.248C72.6673 257.722 73.1823 258.383 73.5195 259.23H73.6836C74.0482 258.401 74.627 257.745 75.4199 257.262C76.2129 256.77 77.1562 256.523 78.25 256.523C79.6354 256.523 80.7702 256.961 81.6543 257.836C82.5384 258.702 82.9805 260.01 82.9805 261.76V272H80V262.033C80 260.994 79.7174 260.247 79.1523 259.791C78.5872 259.326 77.9128 259.094 77.1289 259.094C76.1628 259.094 75.4108 259.395 74.873 259.996C74.3444 260.589 74.0801 261.34 74.0801 262.252V272H71.0996V261.842C71.0996 261.012 70.8444 260.347 70.334 259.846C69.8236 259.344 69.1536 259.094 68.3242 259.094C67.7591 259.094 67.235 259.244 66.752 259.545C66.278 259.837 65.8952 260.247 65.6035 260.775C65.321 261.295 65.1797 261.896 65.1797 262.58V272H62.2266ZM85.8242 277.715V256.715H88.6953V259.203H88.9414C89.1237 258.884 89.3743 258.515 89.6934 258.096C90.0215 257.676 90.4772 257.312 91.0605 257.002C91.6439 256.683 92.4049 256.523 93.3438 256.523C94.5742 256.523 95.668 256.833 96.625 257.453C97.5911 258.073 98.3522 258.971 98.9082 260.146C99.4642 261.322 99.7422 262.74 99.7422 264.398C99.7422 266.039 99.4688 267.452 98.9219 268.637C98.375 269.812 97.6185 270.719 96.6523 271.357C95.6953 271.986 94.597 272.301 93.3574 272.301C92.4368 272.301 91.6803 272.146 91.0879 271.836C90.5046 271.517 90.0443 271.148 89.707 270.729C89.3789 270.309 89.1237 269.94 88.9414 269.621H88.7773V277.715H85.8242ZM92.7148 269.771C93.599 269.771 94.3372 269.535 94.9297 269.061C95.5221 268.587 95.9688 267.944 96.2695 267.133C96.5794 266.312 96.7344 265.392 96.7344 264.371C96.7344 263.359 96.584 262.452 96.2832 261.65C95.9824 260.848 95.5358 260.215 94.9434 259.75C94.3509 259.285 93.6081 259.053 92.7148 259.053C91.849 259.053 91.1198 259.276 90.5273 259.723C89.9349 260.16 89.4837 260.78 89.1738 261.582C88.873 262.375 88.7227 263.305 88.7227 264.371C88.7227 265.438 88.8776 266.376 89.1875 267.188C89.4974 267.999 89.9486 268.632 90.541 269.088C91.1426 269.544 91.8672 269.771 92.7148 269.771ZM101.902 272V256.715H104.76V259.162H104.924C105.206 258.342 105.699 257.695 106.4 257.221C107.111 256.738 107.913 256.496 108.807 256.496C108.989 256.496 109.203 256.505 109.449 256.523C109.704 256.533 109.91 256.546 110.064 256.564V259.408C109.946 259.372 109.732 259.335 109.422 259.299C109.121 259.262 108.816 259.244 108.506 259.244C107.804 259.244 107.175 259.395 106.619 259.695C106.072 259.987 105.639 260.393 105.32 260.912C105.01 261.423 104.855 262.015 104.855 262.689V272H101.902ZM117.365 272.314C115.934 272.314 114.681 271.986 113.605 271.33C112.539 270.674 111.71 269.753 111.117 268.568C110.534 267.383 110.242 266.007 110.242 264.439C110.242 262.854 110.534 261.468 111.117 260.283C111.71 259.089 112.539 258.164 113.605 257.508C114.681 256.852 115.934 256.523 117.365 256.523C118.805 256.523 120.059 256.852 121.125 257.508C122.191 258.164 123.021 259.089 123.613 260.283C124.206 261.468 124.502 262.854 124.502 264.439C124.502 266.007 124.206 267.383 123.613 268.568C123.021 269.753 122.191 270.674 121.125 271.33C120.059 271.986 118.805 272.314 117.365 272.314ZM117.365 269.812C118.304 269.812 119.079 269.566 119.689 269.074C120.3 268.582 120.751 267.93 121.043 267.119C121.344 266.299 121.494 265.406 121.494 264.439C121.494 263.455 121.344 262.553 121.043 261.732C120.751 260.912 120.3 260.256 119.689 259.764C119.079 259.271 118.304 259.025 117.365 259.025C116.436 259.025 115.665 259.271 115.055 259.764C114.453 260.256 114.002 260.912 113.701 261.732C113.4 262.553 113.25 263.455 113.25 264.439C113.25 265.406 113.4 266.299 113.701 267.119C114.002 267.93 114.453 268.582 115.055 269.074C115.665 269.566 116.436 269.812 117.365 269.812ZM139.172 256.715L133.648 272H130.449L124.912 256.715H128.098L131.98 268.5H132.145L136 256.715H139.172ZM146.869 272.314C145.374 272.314 144.08 271.991 142.986 271.344C141.893 270.697 141.049 269.785 140.457 268.609C139.874 267.424 139.582 266.044 139.582 264.467C139.582 262.899 139.869 261.518 140.443 260.324C141.027 259.13 141.842 258.201 142.891 257.535C143.948 256.861 145.188 256.523 146.609 256.523C147.475 256.523 148.314 256.665 149.125 256.947C149.936 257.23 150.665 257.676 151.312 258.287C151.96 258.898 152.47 259.691 152.844 260.666C153.227 261.641 153.418 262.817 153.418 264.193V265.26H141.264V263.031H151.887L150.506 263.77C150.506 262.831 150.36 262.001 150.068 261.281C149.777 260.561 149.339 260.001 148.756 259.6C148.182 259.189 147.466 258.984 146.609 258.984C145.753 258.984 145.019 259.189 144.408 259.6C143.807 260.01 143.346 260.552 143.027 261.227C142.708 261.901 142.549 262.639 142.549 263.441V264.959C142.549 266.007 142.731 266.896 143.096 267.625C143.46 268.354 143.966 268.91 144.613 269.293C145.27 269.676 146.031 269.867 146.896 269.867C147.462 269.867 147.972 269.785 148.428 269.621C148.893 269.457 149.294 269.211 149.631 268.883C149.968 268.555 150.223 268.149 150.396 267.666L153.213 268.199C152.985 269.02 152.584 269.74 152.01 270.359C151.436 270.979 150.711 271.462 149.836 271.809C148.97 272.146 147.981 272.314 146.869 272.314ZM31.1094 308.301C29.8698 308.301 28.7669 307.986 27.8008 307.357C26.8346 306.719 26.0781 305.812 25.5312 304.637C24.9844 303.452 24.7109 302.039 24.7109 300.398C24.7109 298.74 24.9889 297.322 25.5449 296.146C26.1009 294.971 26.862 294.073 27.8281 293.453C28.7943 292.833 29.888 292.523 31.1094 292.523C32.0664 292.523 32.832 292.683 33.4062 293.002C33.9896 293.312 34.4408 293.676 34.7598 294.096C35.0879 294.515 35.3385 294.884 35.5117 295.203H35.6895V287.629H38.6426V308H35.7578V305.621H35.5117C35.3385 305.94 35.0833 306.309 34.7461 306.729C34.4089 307.148 33.9486 307.517 33.3652 307.836C32.791 308.146 32.0391 308.301 31.1094 308.301ZM31.752 305.771C32.6087 305.771 33.3333 305.544 33.9258 305.088C34.5182 304.632 34.9648 303.999 35.2656 303.188C35.5755 302.376 35.7305 301.438 35.7305 300.371C35.7305 299.305 35.5801 298.375 35.2793 297.582C34.9785 296.78 34.5319 296.16 33.9395 295.723C33.347 295.276 32.6178 295.053 31.752 295.053C30.8587 295.053 30.1159 295.285 29.5234 295.75C28.931 296.215 28.4844 296.848 28.1836 297.65C27.8828 298.452 27.7324 299.359 27.7324 300.371C27.7324 301.392 27.8828 302.312 28.1836 303.133C28.4844 303.944 28.931 304.587 29.5234 305.061C30.125 305.535 30.8678 305.771 31.752 305.771ZM41.5 308V292.715H44.4531V308H41.5ZM42.9902 290.363C42.4707 290.363 42.0286 290.19 41.6641 289.844C41.2995 289.497 41.1172 289.083 41.1172 288.6C41.1172 288.107 41.2995 287.688 41.6641 287.342C42.0286 286.995 42.4707 286.822 42.9902 286.822C43.5007 286.822 43.9382 286.995 44.3027 287.342C44.6764 287.688 44.8633 288.107 44.8633 288.6C44.8633 289.083 44.6764 289.497 44.3027 289.844C43.9382 290.19 43.5007 290.363 42.9902 290.363ZM58.7266 296.461L56.0332 296.926C55.86 296.415 55.5365 295.946 55.0625 295.518C54.5977 295.089 53.9004 294.875 52.9707 294.875C52.1322 294.875 51.4303 295.066 50.8652 295.449C50.3092 295.823 50.0312 296.301 50.0312 296.885C50.0312 297.395 50.2181 297.81 50.5918 298.129C50.9746 298.448 51.5807 298.703 52.4102 298.895L54.8574 299.441C56.252 299.76 57.2956 300.262 57.9883 300.945C58.681 301.629 59.0273 302.504 59.0273 303.57C59.0273 304.491 58.763 305.311 58.2344 306.031C57.7057 306.742 56.972 307.303 56.0332 307.713C55.0944 308.114 54.0098 308.314 52.7793 308.314C51.0658 308.314 49.6712 307.945 48.5957 307.207C47.5202 306.469 46.8594 305.43 46.6133 304.09L49.4707 303.652C49.653 304.4 50.0221 304.965 50.5781 305.348C51.1432 305.73 51.8724 305.922 52.7656 305.922C53.7318 305.922 54.5065 305.717 55.0898 305.307C55.6823 304.896 55.9785 304.4 55.9785 303.816C55.9785 302.85 55.2585 302.199 53.8184 301.861L51.2344 301.287C49.8034 300.959 48.7461 300.444 48.0625 299.742C47.388 299.031 47.0508 298.138 47.0508 297.062C47.0508 296.16 47.3014 295.367 47.8027 294.684C48.3132 294 49.0104 293.471 49.8945 293.098C50.7878 292.715 51.804 292.523 52.9434 292.523C54.6022 292.523 55.901 292.883 56.8398 293.604C57.7878 294.324 58.4167 295.276 58.7266 296.461ZM67.5176 308.314C66.0501 308.314 64.7832 307.977 63.7168 307.303C62.6504 306.628 61.8301 305.699 61.2559 304.514C60.6816 303.329 60.3945 301.971 60.3945 300.439C60.3945 298.881 60.6862 297.509 61.2695 296.324C61.862 295.13 62.6868 294.201 63.7441 293.535C64.8105 292.861 66.0592 292.523 67.4902 292.523C68.6569 292.523 69.6914 292.738 70.5938 293.166C71.5052 293.585 72.2389 294.182 72.7949 294.957C73.36 295.732 73.6927 296.634 73.793 297.664H70.8945C70.7943 297.181 70.5983 296.739 70.3066 296.338C70.0241 295.937 69.6504 295.618 69.1855 295.381C68.7207 295.144 68.1693 295.025 67.5312 295.025C66.7018 295.025 65.9772 295.244 65.3574 295.682C64.7467 296.11 64.2682 296.725 63.9219 297.527C63.5755 298.329 63.4023 299.277 63.4023 300.371C63.4023 301.474 63.571 302.436 63.9082 303.256C64.2454 304.076 64.724 304.71 65.3438 305.156C65.9727 305.594 66.7018 305.812 67.5312 305.812C68.388 305.812 69.1172 305.576 69.7188 305.102C70.3294 304.628 70.7214 303.98 70.8945 303.16H73.793C73.6927 304.154 73.3737 305.038 72.8359 305.812C72.2982 306.587 71.5781 307.198 70.6758 307.645C69.7734 308.091 68.7207 308.314 67.5176 308.314ZM82.3105 308.314C80.8796 308.314 79.6263 307.986 78.5508 307.33C77.4844 306.674 76.6549 305.753 76.0625 304.568C75.4792 303.383 75.1875 302.007 75.1875 300.439C75.1875 298.854 75.4792 297.468 76.0625 296.283C76.6549 295.089 77.4844 294.164 78.5508 293.508C79.6263 292.852 80.8796 292.523 82.3105 292.523C83.7507 292.523 85.0039 292.852 86.0703 293.508C87.1367 294.164 87.9661 295.089 88.5586 296.283C89.151 297.468 89.4473 298.854 89.4473 300.439C89.4473 302.007 89.151 303.383 88.5586 304.568C87.9661 305.753 87.1367 306.674 86.0703 307.33C85.0039 307.986 83.7507 308.314 82.3105 308.314ZM82.3105 305.812C83.2493 305.812 84.0241 305.566 84.6348 305.074C85.2454 304.582 85.6966 303.93 85.9883 303.119C86.2891 302.299 86.4395 301.406 86.4395 300.439C86.4395 299.455 86.2891 298.553 85.9883 297.732C85.6966 296.912 85.2454 296.256 84.6348 295.764C84.0241 295.271 83.2493 295.025 82.3105 295.025C81.3809 295.025 80.6107 295.271 80 295.764C79.3984 296.256 78.9473 296.912 78.6465 297.732C78.3457 298.553 78.1953 299.455 78.1953 300.439C78.1953 301.406 78.3457 302.299 78.6465 303.119C78.9473 303.93 79.3984 304.582 80 305.074C80.6107 305.566 81.3809 305.812 82.3105 305.812ZM104.117 292.715L98.5938 308H95.3945L89.8574 292.715H93.043L96.9258 304.5H97.0898L100.945 292.715H104.117ZM111.814 308.314C110.32 308.314 109.025 307.991 107.932 307.344C106.838 306.697 105.995 305.785 105.402 304.609C104.819 303.424 104.527 302.044 104.527 300.467C104.527 298.899 104.814 297.518 105.389 296.324C105.972 295.13 106.788 294.201 107.836 293.535C108.893 292.861 110.133 292.523 111.555 292.523C112.421 292.523 113.259 292.665 114.07 292.947C114.882 293.23 115.611 293.676 116.258 294.287C116.905 294.898 117.415 295.691 117.789 296.666C118.172 297.641 118.363 298.817 118.363 300.193V301.26H106.209V299.031H116.832L115.451 299.77C115.451 298.831 115.305 298.001 115.014 297.281C114.722 296.561 114.285 296.001 113.701 295.6C113.127 295.189 112.411 294.984 111.555 294.984C110.698 294.984 109.964 295.189 109.354 295.6C108.752 296.01 108.292 296.552 107.973 297.227C107.654 297.901 107.494 298.639 107.494 299.441V300.959C107.494 302.007 107.676 302.896 108.041 303.625C108.406 304.354 108.911 304.91 109.559 305.293C110.215 305.676 110.976 305.867 111.842 305.867C112.407 305.867 112.917 305.785 113.373 305.621C113.838 305.457 114.239 305.211 114.576 304.883C114.913 304.555 115.169 304.149 115.342 303.666L118.158 304.199C117.93 305.02 117.529 305.74 116.955 306.359C116.381 306.979 115.656 307.462 114.781 307.809C113.915 308.146 112.926 308.314 111.814 308.314ZM120.441 308V292.715H123.299V295.162H123.463C123.745 294.342 124.238 293.695 124.939 293.221C125.65 292.738 126.452 292.496 127.346 292.496C127.528 292.496 127.742 292.505 127.988 292.523C128.243 292.533 128.449 292.546 128.604 292.564V295.408C128.485 295.372 128.271 295.335 127.961 295.299C127.66 295.262 127.355 295.244 127.045 295.244C126.343 295.244 125.714 295.395 125.158 295.695C124.611 295.987 124.178 296.393 123.859 296.912C123.549 297.423 123.395 298.015 123.395 298.689V308H120.441ZM134.332 308.328C133.366 308.328 132.491 308.15 131.707 307.795C130.923 307.43 130.303 306.902 129.848 306.209C129.392 305.516 129.164 304.673 129.164 303.68C129.164 302.814 129.328 302.107 129.656 301.561C129.993 301.005 130.445 300.562 131.01 300.234C131.575 299.906 132.204 299.66 132.896 299.496C133.589 299.332 134.3 299.204 135.029 299.113C135.95 299.013 136.693 298.926 137.258 298.854C137.823 298.781 138.233 298.667 138.488 298.512C138.753 298.348 138.885 298.088 138.885 297.732V297.664C138.885 296.798 138.639 296.128 138.146 295.654C137.663 295.18 136.943 294.943 135.986 294.943C134.993 294.943 134.204 295.162 133.621 295.6C133.047 296.028 132.65 296.516 132.432 297.062L129.629 296.42C129.966 295.49 130.454 294.743 131.092 294.178C131.739 293.604 132.477 293.184 133.307 292.92C134.145 292.656 135.02 292.523 135.932 292.523C136.542 292.523 137.189 292.596 137.873 292.742C138.557 292.879 139.199 293.139 139.801 293.521C140.411 293.895 140.908 294.433 141.291 295.135C141.674 295.837 141.865 296.743 141.865 297.855V308H138.953V305.908H138.844C138.661 306.282 138.374 306.656 137.982 307.029C137.6 307.403 137.107 307.713 136.506 307.959C135.904 308.205 135.18 308.328 134.332 308.328ZM134.975 305.949C135.804 305.949 136.51 305.79 137.094 305.471C137.677 305.143 138.124 304.714 138.434 304.186C138.743 303.657 138.898 303.096 138.898 302.504V300.521C138.789 300.622 138.584 300.717 138.283 300.809C137.982 300.9 137.641 300.977 137.258 301.041C136.875 301.105 136.501 301.164 136.137 301.219C135.772 301.264 135.467 301.301 135.221 301.328C134.646 301.41 134.122 301.538 133.648 301.711C133.174 301.875 132.792 302.121 132.5 302.449C132.217 302.768 132.076 303.192 132.076 303.721C132.076 304.459 132.35 305.015 132.896 305.389C133.443 305.762 134.136 305.949 134.975 305.949ZM152.256 308.301C151.335 308.301 150.579 308.146 149.986 307.836C149.403 307.517 148.943 307.148 148.605 306.729C148.277 306.309 148.022 305.94 147.84 305.621H147.594V308H144.723V287.629H147.676V295.203H147.84C148.022 294.884 148.273 294.515 148.592 294.096C148.92 293.676 149.376 293.312 149.959 293.002C150.542 292.683 151.303 292.523 152.242 292.523C153.473 292.523 154.566 292.833 155.523 293.453C156.49 294.073 157.251 294.971 157.807 296.146C158.363 297.322 158.641 298.74 158.641 300.398C158.641 302.039 158.367 303.452 157.82 304.637C157.273 305.812 156.517 306.719 155.551 307.357C154.594 307.986 153.495 308.301 152.256 308.301ZM151.613 305.771C152.497 305.771 153.236 305.535 153.828 305.061C154.421 304.587 154.867 303.944 155.168 303.133C155.478 302.312 155.633 301.392 155.633 300.371C155.633 299.359 155.482 298.452 155.182 297.65C154.881 296.848 154.434 296.215 153.842 295.75C153.249 295.285 152.507 295.053 151.613 295.053C150.747 295.053 150.018 295.276 149.426 295.723C148.833 296.16 148.382 296.78 148.072 297.582C147.771 298.375 147.621 299.305 147.621 300.371C147.621 301.438 147.776 302.376 148.086 303.188C148.396 303.999 148.847 304.632 149.439 305.088C150.041 305.544 150.766 305.771 151.613 305.771ZM160.801 308V292.715H163.754V308H160.801ZM162.291 290.363C161.771 290.363 161.329 290.19 160.965 289.844C160.6 289.497 160.418 289.083 160.418 288.6C160.418 288.107 160.6 287.688 160.965 287.342C161.329 286.995 161.771 286.822 162.291 286.822C162.801 286.822 163.239 286.995 163.604 287.342C163.977 287.688 164.164 288.107 164.164 288.6C164.164 289.083 163.977 289.497 163.604 289.844C163.239 290.19 162.801 290.363 162.291 290.363ZM169.551 287.629V308H166.598V287.629H169.551ZM172.395 308V292.715H175.348V308H172.395ZM173.885 290.363C173.365 290.363 172.923 290.19 172.559 289.844C172.194 289.497 172.012 289.083 172.012 288.6C172.012 288.107 172.194 287.688 172.559 287.342C172.923 286.995 173.365 286.822 173.885 286.822C174.395 286.822 174.833 286.995 175.197 287.342C175.571 287.688 175.758 288.107 175.758 288.6C175.758 289.083 175.571 289.497 175.197 289.844C174.833 290.19 174.395 290.363 173.885 290.363ZM185.301 292.715V295.107H176.961V292.715H185.301ZM179.189 289.078H182.156V303.516C182.156 304.217 182.302 304.732 182.594 305.061C182.885 305.38 183.355 305.539 184.002 305.539C184.157 305.539 184.321 305.53 184.494 305.512C184.676 305.493 184.859 305.466 185.041 305.43L185.602 307.891C185.301 307.991 184.973 308.068 184.617 308.123C184.262 308.178 183.906 308.205 183.551 308.205C182.229 308.205 181.172 307.836 180.379 307.098C179.586 306.35 179.189 305.357 179.189 304.117V289.078ZM189.293 313.715C188.846 313.724 188.441 313.692 188.076 313.619C187.721 313.555 187.447 313.478 187.256 313.387L187.98 310.967L188.186 311.021C188.942 311.213 189.58 311.199 190.1 310.98C190.628 310.771 191.07 310.183 191.426 309.217L191.795 308.205L186.217 292.715H189.402L193.258 304.582H193.422L197.291 292.715H200.477L194.188 310.023C193.896 310.826 193.527 311.5 193.08 312.047C192.633 312.603 192.096 313.018 191.467 313.291C190.847 313.574 190.122 313.715 189.293 313.715ZM212.781 308.328C211.815 308.328 210.94 308.15 210.156 307.795C209.372 307.43 208.753 306.902 208.297 306.209C207.841 305.516 207.613 304.673 207.613 303.68C207.613 302.814 207.777 302.107 208.105 301.561C208.443 301.005 208.894 300.562 209.459 300.234C210.024 299.906 210.653 299.66 211.346 299.496C212.038 299.332 212.749 299.204 213.479 299.113C214.399 299.013 215.142 298.926 215.707 298.854C216.272 298.781 216.682 298.667 216.938 298.512C217.202 298.348 217.334 298.088 217.334 297.732V297.664C217.334 296.798 217.088 296.128 216.596 295.654C216.113 295.18 215.393 294.943 214.436 294.943C213.442 294.943 212.654 295.162 212.07 295.6C211.496 296.028 211.1 296.516 210.881 297.062L208.078 296.42C208.415 295.49 208.903 294.743 209.541 294.178C210.188 293.604 210.926 293.184 211.756 292.92C212.594 292.656 213.469 292.523 214.381 292.523C214.992 292.523 215.639 292.596 216.322 292.742C217.006 292.879 217.648 293.139 218.25 293.521C218.861 293.895 219.357 294.433 219.74 295.135C220.123 295.837 220.314 296.743 220.314 297.855V308H217.402V305.908H217.293C217.111 306.282 216.824 306.656 216.432 307.029C216.049 307.403 215.557 307.713 214.955 307.959C214.354 308.205 213.629 308.328 212.781 308.328ZM213.424 305.949C214.253 305.949 214.96 305.79 215.543 305.471C216.126 305.143 216.573 304.714 216.883 304.186C217.193 303.657 217.348 303.096 217.348 302.504V300.521C217.238 300.622 217.033 300.717 216.732 300.809C216.432 300.9 216.09 300.977 215.707 301.041C215.324 301.105 214.951 301.164 214.586 301.219C214.221 301.264 213.916 301.301 213.67 301.328C213.096 301.41 212.572 301.538 212.098 301.711C211.624 301.875 211.241 302.121 210.949 302.449C210.667 302.768 210.525 303.192 210.525 303.721C210.525 304.459 210.799 305.015 211.346 305.389C211.893 305.762 212.585 305.949 213.424 305.949ZM226.125 298.936V308H223.172V292.715H226.043V295.23H226.248C226.594 294.401 227.137 293.745 227.875 293.262C228.613 292.77 229.561 292.523 230.719 292.523C231.758 292.523 232.665 292.742 233.439 293.18C234.223 293.608 234.829 294.251 235.258 295.107C235.695 295.964 235.914 297.026 235.914 298.293V308H232.961V298.648C232.961 297.546 232.669 296.68 232.086 296.051C231.503 295.413 230.71 295.094 229.707 295.094C229.023 295.094 228.408 295.249 227.861 295.559C227.324 295.859 226.9 296.292 226.59 296.857C226.28 297.423 226.125 298.115 226.125 298.936ZM244.445 308.301C243.206 308.301 242.103 307.986 241.137 307.357C240.171 306.719 239.414 305.812 238.867 304.637C238.32 303.452 238.047 302.039 238.047 300.398C238.047 298.74 238.325 297.322 238.881 296.146C239.437 294.971 240.198 294.073 241.164 293.453C242.13 292.833 243.224 292.523 244.445 292.523C245.402 292.523 246.168 292.683 246.742 293.002C247.326 293.312 247.777 293.676 248.096 294.096C248.424 294.515 248.674 294.884 248.848 295.203H249.025V287.629H251.979V308H249.094V305.621H248.848C248.674 305.94 248.419 306.309 248.082 306.729C247.745 307.148 247.285 307.517 246.701 307.836C246.127 308.146 245.375 308.301 244.445 308.301ZM245.088 305.771C245.945 305.771 246.669 305.544 247.262 305.088C247.854 304.632 248.301 303.999 248.602 303.188C248.911 302.376 249.066 301.438 249.066 300.371C249.066 299.305 248.916 298.375 248.615 297.582C248.314 296.78 247.868 296.16 247.275 295.723C246.683 295.276 245.954 295.053 245.088 295.053C244.195 295.053 243.452 295.285 242.859 295.75C242.267 296.215 241.82 296.848 241.52 297.65C241.219 298.452 241.068 299.359 241.068 300.371C241.068 301.392 241.219 302.312 241.52 303.133C241.82 303.944 242.267 304.587 242.859 305.061C243.461 305.535 244.204 305.771 245.088 305.771ZM32.6953 328.715V331.107H24.0684V328.715H32.6953ZM26.4199 344V326.938C26.4199 325.99 26.6296 325.201 27.0488 324.572C27.4772 323.934 28.0332 323.46 28.7168 323.15C29.4095 322.831 30.1523 322.672 30.9453 322.672C31.556 322.672 32.0755 322.722 32.5039 322.822C32.9323 322.923 33.2467 323.009 33.4473 323.082L32.7363 325.488C32.5996 325.443 32.4219 325.393 32.2031 325.338C31.9935 325.283 31.7292 325.256 31.4102 325.256C30.6901 325.256 30.1706 325.438 29.8516 325.803C29.5326 326.158 29.373 326.678 29.373 327.361V344H26.4199ZM44.2617 337.684V328.715H47.2148V344H44.3164V341.348H44.1523C43.7878 342.159 43.2227 342.838 42.457 343.385C41.6914 343.932 40.7344 344.201 39.5859 344.191C38.6016 344.191 37.7311 343.977 36.9746 343.549C36.2272 343.12 35.6393 342.478 35.2109 341.621C34.7917 340.764 34.582 339.702 34.582 338.436V328.715H37.5352V338.094C37.5352 339.124 37.8268 339.949 38.4102 340.568C38.9935 341.188 39.7454 341.493 40.666 341.484C41.222 341.484 41.7734 341.348 42.3203 341.074C42.8763 340.801 43.3366 340.382 43.7012 339.816C44.0749 339.251 44.2617 338.54 44.2617 337.684ZM53.0117 334.936V344H50.0586V328.715H52.9297V331.23H53.1348C53.4811 330.401 54.0234 329.745 54.7617 329.262C55.5 328.77 56.4479 328.523 57.6055 328.523C58.6445 328.523 59.5514 328.742 60.3262 329.18C61.11 329.608 61.7161 330.251 62.1445 331.107C62.582 331.964 62.8008 333.026 62.8008 334.293V344H59.8477V334.648C59.8477 333.546 59.556 332.68 58.9727 332.051C58.3893 331.413 57.5964 331.094 56.5938 331.094C55.9102 331.094 55.2949 331.249 54.748 331.559C54.2103 331.859 53.7865 332.292 53.4766 332.857C53.1667 333.423 53.0117 334.115 53.0117 334.936ZM72.0566 344.314C70.5892 344.314 69.3223 343.977 68.2559 343.303C67.1895 342.628 66.3691 341.699 65.7949 340.514C65.2207 339.329 64.9336 337.971 64.9336 336.439C64.9336 334.881 65.2253 333.509 65.8086 332.324C66.401 331.13 67.2259 330.201 68.2832 329.535C69.3496 328.861 70.5983 328.523 72.0293 328.523C73.196 328.523 74.2305 328.738 75.1328 329.166C76.0443 329.585 76.778 330.182 77.334 330.957C77.8991 331.732 78.2318 332.634 78.332 333.664H75.4336C75.3333 333.181 75.1374 332.739 74.8457 332.338C74.5632 331.937 74.1895 331.618 73.7246 331.381C73.2598 331.144 72.7083 331.025 72.0703 331.025C71.2409 331.025 70.5163 331.244 69.8965 331.682C69.2858 332.11 68.8073 332.725 68.4609 333.527C68.1146 334.329 67.9414 335.277 67.9414 336.371C67.9414 337.474 68.11 338.436 68.4473 339.256C68.7845 340.076 69.263 340.71 69.8828 341.156C70.5117 341.594 71.2409 341.812 72.0703 341.812C72.9271 341.812 73.6562 341.576 74.2578 341.102C74.8685 340.628 75.2604 339.98 75.4336 339.16H78.332C78.2318 340.154 77.9128 341.038 77.375 341.812C76.8372 342.587 76.1172 343.198 75.2148 343.645C74.3125 344.091 73.2598 344.314 72.0566 344.314ZM87.5469 328.715V331.107H79.207V328.715H87.5469ZM81.4355 325.078H84.4023V339.516C84.4023 340.217 84.5482 340.732 84.8398 341.061C85.1315 341.38 85.6009 341.539 86.248 341.539C86.403 341.539 86.5671 341.53 86.7402 341.512C86.9225 341.493 87.1048 341.466 87.2871 341.43L87.8477 343.891C87.5469 343.991 87.2188 344.068 86.8633 344.123C86.5078 344.178 86.1523 344.205 85.7969 344.205C84.4753 344.205 83.418 343.836 82.625 343.098C81.832 342.35 81.4355 341.357 81.4355 340.117V325.078ZM89.6797 344V328.715H92.6328V344H89.6797ZM91.1699 326.363C90.6504 326.363 90.2083 326.19 89.8438 325.844C89.4792 325.497 89.2969 325.083 89.2969 324.6C89.2969 324.107 89.4792 323.688 89.8438 323.342C90.2083 322.995 90.6504 322.822 91.1699 322.822C91.6803 322.822 92.1178 322.995 92.4824 323.342C92.8561 323.688 93.043 324.107 93.043 324.6C93.043 325.083 92.8561 325.497 92.4824 325.844C92.1178 326.19 91.6803 326.363 91.1699 326.363ZM101.889 344.314C100.458 344.314 99.2044 343.986 98.1289 343.33C97.0625 342.674 96.2331 341.753 95.6406 340.568C95.0573 339.383 94.7656 338.007 94.7656 336.439C94.7656 334.854 95.0573 333.468 95.6406 332.283C96.2331 331.089 97.0625 330.164 98.1289 329.508C99.2044 328.852 100.458 328.523 101.889 328.523C103.329 328.523 104.582 328.852 105.648 329.508C106.715 330.164 107.544 331.089 108.137 332.283C108.729 333.468 109.025 334.854 109.025 336.439C109.025 338.007 108.729 339.383 108.137 340.568C107.544 341.753 106.715 342.674 105.648 343.33C104.582 343.986 103.329 344.314 101.889 344.314ZM101.889 341.812C102.827 341.812 103.602 341.566 104.213 341.074C104.824 340.582 105.275 339.93 105.566 339.119C105.867 338.299 106.018 337.406 106.018 336.439C106.018 335.455 105.867 334.553 105.566 333.732C105.275 332.912 104.824 332.256 104.213 331.764C103.602 331.271 102.827 331.025 101.889 331.025C100.959 331.025 100.189 331.271 99.5781 331.764C98.9766 332.256 98.5254 332.912 98.2246 333.732C97.9238 334.553 97.7734 335.455 97.7734 336.439C97.7734 337.406 97.9238 338.299 98.2246 339.119C98.5254 339.93 98.9766 340.582 99.5781 341.074C100.189 341.566 100.959 341.812 101.889 341.812ZM114.125 334.936V344H111.172V328.715H114.043V331.23H114.248C114.594 330.401 115.137 329.745 115.875 329.262C116.613 328.77 117.561 328.523 118.719 328.523C119.758 328.523 120.665 328.742 121.439 329.18C122.223 329.608 122.829 330.251 123.258 331.107C123.695 331.964 123.914 333.026 123.914 334.293V344H120.961V334.648C120.961 333.546 120.669 332.68 120.086 332.051C119.503 331.413 118.71 331.094 117.707 331.094C117.023 331.094 116.408 331.249 115.861 331.559C115.324 331.859 114.9 332.292 114.59 332.857C114.28 333.423 114.125 334.115 114.125 334.936ZM131.188 344.328C130.221 344.328 129.346 344.15 128.562 343.795C127.779 343.43 127.159 342.902 126.703 342.209C126.247 341.516 126.02 340.673 126.02 339.68C126.02 338.814 126.184 338.107 126.512 337.561C126.849 337.005 127.3 336.562 127.865 336.234C128.43 335.906 129.059 335.66 129.752 335.496C130.445 335.332 131.156 335.204 131.885 335.113C132.805 335.013 133.548 334.926 134.113 334.854C134.678 334.781 135.089 334.667 135.344 334.512C135.608 334.348 135.74 334.088 135.74 333.732V333.664C135.74 332.798 135.494 332.128 135.002 331.654C134.519 331.18 133.799 330.943 132.842 330.943C131.848 330.943 131.06 331.162 130.477 331.6C129.902 332.028 129.506 332.516 129.287 333.062L126.484 332.42C126.822 331.49 127.309 330.743 127.947 330.178C128.594 329.604 129.333 329.184 130.162 328.92C131.001 328.656 131.876 328.523 132.787 328.523C133.398 328.523 134.045 328.596 134.729 328.742C135.412 328.879 136.055 329.139 136.656 329.521C137.267 329.895 137.764 330.433 138.146 331.135C138.529 331.837 138.721 332.743 138.721 333.855V344H135.809V341.908H135.699C135.517 342.282 135.23 342.656 134.838 343.029C134.455 343.403 133.963 343.713 133.361 343.959C132.76 344.205 132.035 344.328 131.188 344.328ZM131.83 341.949C132.66 341.949 133.366 341.79 133.949 341.471C134.533 341.143 134.979 340.714 135.289 340.186C135.599 339.657 135.754 339.096 135.754 338.504V336.521C135.645 336.622 135.439 336.717 135.139 336.809C134.838 336.9 134.496 336.977 134.113 337.041C133.73 337.105 133.357 337.164 132.992 337.219C132.628 337.264 132.322 337.301 132.076 337.328C131.502 337.41 130.978 337.538 130.504 337.711C130.03 337.875 129.647 338.121 129.355 338.449C129.073 338.768 128.932 339.192 128.932 339.721C128.932 340.459 129.205 341.015 129.752 341.389C130.299 341.762 130.992 341.949 131.83 341.949ZM144.531 323.629V344H141.578V323.629H144.531ZM147.375 344V328.715H150.328V344H147.375ZM148.865 326.363C148.346 326.363 147.904 326.19 147.539 325.844C147.174 325.497 146.992 325.083 146.992 324.6C146.992 324.107 147.174 323.688 147.539 323.342C147.904 322.995 148.346 322.822 148.865 322.822C149.376 322.822 149.813 322.995 150.178 323.342C150.551 323.688 150.738 324.107 150.738 324.6C150.738 325.083 150.551 325.497 150.178 325.844C149.813 326.19 149.376 326.363 148.865 326.363ZM160.281 328.715V331.107H151.941V328.715H160.281ZM154.17 325.078H157.137V339.516C157.137 340.217 157.283 340.732 157.574 341.061C157.866 341.38 158.335 341.539 158.982 341.539C159.137 341.539 159.301 341.53 159.475 341.512C159.657 341.493 159.839 341.466 160.021 341.43L160.582 343.891C160.281 343.991 159.953 344.068 159.598 344.123C159.242 344.178 158.887 344.205 158.531 344.205C157.21 344.205 156.152 343.836 155.359 343.098C154.566 342.35 154.17 341.357 154.17 340.117V325.078ZM164.273 349.715C163.827 349.724 163.421 349.692 163.057 349.619C162.701 349.555 162.428 349.478 162.236 349.387L162.961 346.967L163.166 347.021C163.923 347.213 164.561 347.199 165.08 346.98C165.609 346.771 166.051 346.183 166.406 345.217L166.775 344.205L161.197 328.715H164.383L168.238 340.582H168.402L172.271 328.715H175.457L169.168 346.023C168.876 346.826 168.507 347.5 168.061 348.047C167.614 348.603 167.076 349.018 166.447 349.291C165.827 349.574 165.103 349.715 164.273 349.715Z" fill="#424242"/>
<path d="M274.975 200V184.715H278.57V200H274.975ZM276.779 182.568C276.205 182.568 275.713 182.377 275.303 181.994C274.893 181.611 274.688 181.151 274.688 180.613C274.688 180.066 274.893 179.602 275.303 179.219C275.713 178.836 276.205 178.645 276.779 178.645C277.344 178.645 277.832 178.836 278.242 179.219C278.652 179.602 278.857 180.062 278.857 180.6C278.857 181.146 278.652 181.611 278.242 181.994C277.832 182.377 277.344 182.568 276.779 182.568ZM284.832 191.059V200H281.236V184.715H284.764V187.326H284.941C285.288 186.469 285.83 185.79 286.568 185.289C287.316 184.779 288.264 184.523 289.412 184.523C290.469 184.523 291.39 184.747 292.174 185.193C292.958 185.64 293.564 186.296 293.992 187.162C294.43 188.019 294.648 189.058 294.648 190.279V200H291.053V190.84C291.053 189.819 290.788 189.021 290.26 188.447C289.731 187.864 289.002 187.572 288.072 187.572C287.443 187.572 286.883 187.709 286.391 187.982C285.908 188.256 285.525 188.652 285.242 189.172C284.969 189.682 284.832 190.311 284.832 191.059ZM306.557 190.047V193H297.396V190.047H306.557ZM29.7285 236.314C28.7533 236.314 27.8783 236.141 27.1035 235.795C26.3288 235.439 25.7181 234.92 25.2715 234.236C24.8249 233.553 24.6016 232.71 24.6016 231.707C24.6016 230.85 24.7611 230.139 25.0801 229.574C25.3991 229.009 25.832 228.558 26.3789 228.221C26.9349 227.883 27.5592 227.628 28.252 227.455C28.9447 227.273 29.6602 227.145 30.3984 227.072C31.3008 226.972 32.0299 226.885 32.5859 226.812C33.1419 226.74 33.543 226.621 33.7891 226.457C34.0443 226.293 34.1719 226.038 34.1719 225.691V225.623C34.1719 224.885 33.9531 224.311 33.5156 223.9C33.0781 223.49 32.4401 223.285 31.6016 223.285C30.7174 223.285 30.0156 223.477 29.4961 223.859C28.9857 224.242 28.6393 224.693 28.457 225.213L25.1074 224.734C25.3717 223.805 25.8092 223.03 26.4199 222.41C27.0306 221.781 27.7734 221.312 28.6484 221.002C29.5326 220.683 30.5078 220.523 31.5742 220.523C32.3034 220.523 33.0326 220.61 33.7617 220.783C34.4909 220.947 35.1608 221.23 35.7715 221.631C36.3822 222.032 36.8698 222.57 37.2344 223.244C37.599 223.919 37.7812 224.762 37.7812 225.773V236H34.3223V233.895H34.2129C33.9941 234.314 33.6842 234.71 33.2832 235.084C32.8913 235.449 32.3991 235.745 31.8066 235.973C31.2233 236.201 30.5306 236.314 29.7285 236.314ZM30.6445 233.662C31.3737 233.662 32.0026 233.521 32.5312 233.238C33.0599 232.947 33.4701 232.564 33.7617 232.09C34.0534 231.607 34.1992 231.083 34.1992 230.518V228.727C34.0807 228.818 33.8893 228.904 33.625 228.986C33.3607 229.059 33.0599 229.128 32.7227 229.191C32.3854 229.255 32.0527 229.31 31.7246 229.355C31.4056 229.401 31.1276 229.438 30.8906 229.465C30.3529 229.538 29.8698 229.661 29.4414 229.834C29.0221 229.998 28.6895 230.226 28.4434 230.518C28.1973 230.809 28.0742 231.188 28.0742 231.652C28.0742 232.318 28.3158 232.819 28.7988 233.156C29.2819 233.493 29.8971 233.662 30.6445 233.662ZM40.4473 241.715V220.715H43.9746V223.244H44.1934C44.3757 222.88 44.6354 222.488 44.9727 222.068C45.3099 221.64 45.7656 221.275 46.3398 220.975C46.9232 220.674 47.666 220.523 48.5684 220.523C49.7441 220.523 50.806 220.824 51.7539 221.426C52.7018 222.027 53.4538 222.911 54.0098 224.078C54.5749 225.245 54.8574 226.68 54.8574 228.385C54.8574 230.062 54.584 231.488 54.0371 232.664C53.4902 233.84 52.7383 234.738 51.7812 235.357C50.8333 235.968 49.7578 236.273 48.5547 236.273C47.6888 236.273 46.9642 236.128 46.3809 235.836C45.8066 235.535 45.3418 235.18 44.9863 234.77C44.64 234.35 44.3757 233.954 44.1934 233.58H44.043V241.715H40.4473ZM47.5703 233.32C48.3633 233.32 49.0241 233.106 49.5527 232.678C50.0905 232.249 50.4961 231.661 50.7695 230.914C51.043 230.167 51.1797 229.319 51.1797 228.371C51.1797 227.423 51.043 226.58 50.7695 225.842C50.4961 225.104 50.0951 224.525 49.5664 224.105C49.0378 223.686 48.3724 223.477 47.5703 223.477C46.7956 223.477 46.1393 223.677 45.6016 224.078C45.0729 224.479 44.6673 225.049 44.3848 225.787C44.1113 226.516 43.9746 227.378 43.9746 228.371C43.9746 229.355 44.1113 230.221 44.3848 230.969C44.6673 231.707 45.0775 232.286 45.6152 232.705C46.153 233.115 46.8047 233.32 47.5703 233.32ZM56.8535 241.715V220.715H60.3809V223.244H60.5996C60.7819 222.88 61.0417 222.488 61.3789 222.068C61.7161 221.64 62.1719 221.275 62.7461 220.975C63.3294 220.674 64.0723 220.523 64.9746 220.523C66.1504 220.523 67.2122 220.824 68.1602 221.426C69.1081 222.027 69.86 222.911 70.416 224.078C70.9811 225.245 71.2637 226.68 71.2637 228.385C71.2637 230.062 70.9902 231.488 70.4434 232.664C69.8965 233.84 69.1445 234.738 68.1875 235.357C67.2396 235.968 66.1641 236.273 64.9609 236.273C64.0951 236.273 63.3704 236.128 62.7871 235.836C62.2129 235.535 61.748 235.18 61.3926 234.77C61.0462 234.35 60.7819 233.954 60.5996 233.58H60.4492V241.715H56.8535ZM63.9766 233.32C64.7695 233.32 65.4303 233.106 65.959 232.678C66.4967 232.249 66.9023 231.661 67.1758 230.914C67.4492 230.167 67.5859 229.319 67.5859 228.371C67.5859 227.423 67.4492 226.58 67.1758 225.842C66.9023 225.104 66.5013 224.525 65.9727 224.105C65.444 223.686 64.7786 223.477 63.9766 223.477C63.2018 223.477 62.5456 223.677 62.0078 224.078C61.4792 224.479 61.0736 225.049 60.791 225.787C60.5176 226.516 60.3809 227.378 60.3809 228.371C60.3809 229.355 60.5176 230.221 60.791 230.969C61.0736 231.707 61.4837 232.286 62.0215 232.705C62.5592 233.115 63.2109 233.32 63.9766 233.32ZM91.2246 224.775L87.957 225.117C87.8203 224.616 87.5241 224.174 87.0684 223.791C86.6126 223.399 85.9701 223.203 85.1406 223.203C84.3932 223.203 83.7643 223.367 83.2539 223.695C82.7526 224.023 82.502 224.443 82.502 224.953C82.502 225.4 82.666 225.769 82.9941 226.061C83.3314 226.343 83.8874 226.571 84.6621 226.744L87.2734 227.291C88.7044 227.592 89.7754 228.084 90.4863 228.768C91.1973 229.451 91.5527 230.335 91.5527 231.42C91.5527 232.377 91.2747 233.225 90.7188 233.963C90.1628 234.701 89.3926 235.275 88.4082 235.686C87.4329 236.096 86.3073 236.301 85.0312 236.301C83.1628 236.301 81.6589 235.909 80.5195 235.125C79.3893 234.332 78.7103 233.234 78.4824 231.83L81.9961 231.502C82.151 232.186 82.4883 232.705 83.0078 233.061C83.5365 233.407 84.2109 233.58 85.0312 233.58C85.888 233.58 86.5762 233.407 87.0957 233.061C87.6152 232.705 87.875 232.272 87.875 231.762C87.875 230.905 87.1914 230.322 85.8242 230.012L83.2129 229.465C81.7454 229.146 80.6608 228.631 79.959 227.92C79.2572 227.2 78.9062 226.284 78.9062 225.172C78.9062 224.224 79.166 223.404 79.6855 222.711C80.2051 222.018 80.9297 221.48 81.8594 221.098C82.7891 220.715 83.8646 220.523 85.0859 220.523C86.8815 220.523 88.2897 220.911 89.3105 221.686C90.3405 222.451 90.9785 223.481 91.2246 224.775ZM100.262 236.301C98.7305 236.301 97.4089 235.982 96.2969 235.344C95.1849 234.697 94.3281 233.785 93.7266 232.609C93.1341 231.434 92.8379 230.048 92.8379 228.453C92.8379 226.876 93.1341 225.495 93.7266 224.311C94.319 223.117 95.153 222.187 96.2285 221.521C97.304 220.856 98.571 220.523 100.029 220.523C100.968 220.523 101.857 220.674 102.695 220.975C103.543 221.275 104.29 221.74 104.938 222.369C105.594 222.998 106.109 223.8 106.482 224.775C106.856 225.742 107.043 226.895 107.043 228.234V229.355H94.5195V226.936H105.252L103.57 227.646C103.57 226.781 103.438 226.029 103.174 225.391C102.91 224.743 102.518 224.238 101.998 223.873C101.479 223.508 100.831 223.326 100.057 223.326C99.2819 223.326 98.6211 223.508 98.0742 223.873C97.5273 224.238 97.1126 224.73 96.8301 225.35C96.5475 225.96 96.4062 226.644 96.4062 227.4V229.082C96.4062 230.012 96.5658 230.809 96.8848 231.475C97.2129 232.131 97.6686 232.632 98.252 232.979C98.8444 233.325 99.5326 233.498 100.316 233.498C100.827 233.498 101.292 233.425 101.711 233.279C102.139 233.133 102.504 232.915 102.805 232.623C103.115 232.322 103.352 231.953 103.516 231.516L106.879 231.912C106.66 232.796 106.255 233.571 105.662 234.236C105.079 234.893 104.327 235.403 103.406 235.768C102.495 236.123 101.447 236.301 100.262 236.301ZM113.4 236.314C112.425 236.314 111.55 236.141 110.775 235.795C110.001 235.439 109.39 234.92 108.943 234.236C108.497 233.553 108.273 232.71 108.273 231.707C108.273 230.85 108.433 230.139 108.752 229.574C109.071 229.009 109.504 228.558 110.051 228.221C110.607 227.883 111.231 227.628 111.924 227.455C112.617 227.273 113.332 227.145 114.07 227.072C114.973 226.972 115.702 226.885 116.258 226.812C116.814 226.74 117.215 226.621 117.461 226.457C117.716 226.293 117.844 226.038 117.844 225.691V225.623C117.844 224.885 117.625 224.311 117.188 223.9C116.75 223.49 116.112 223.285 115.273 223.285C114.389 223.285 113.688 223.477 113.168 223.859C112.658 224.242 112.311 224.693 112.129 225.213L108.779 224.734C109.044 223.805 109.481 223.03 110.092 222.41C110.702 221.781 111.445 221.312 112.32 221.002C113.204 220.683 114.18 220.523 115.246 220.523C115.975 220.523 116.704 220.61 117.434 220.783C118.163 220.947 118.833 221.23 119.443 221.631C120.054 222.032 120.542 222.57 120.906 223.244C121.271 223.919 121.453 224.762 121.453 225.773V236H117.994V233.895H117.885C117.666 234.314 117.356 234.71 116.955 235.084C116.563 235.449 116.071 235.745 115.479 235.973C114.895 236.201 114.202 236.314 113.4 236.314ZM114.316 233.662C115.046 233.662 115.674 233.521 116.203 233.238C116.732 232.947 117.142 232.564 117.434 232.09C117.725 231.607 117.871 231.083 117.871 230.518V228.727C117.753 228.818 117.561 228.904 117.297 228.986C117.033 229.059 116.732 229.128 116.395 229.191C116.057 229.255 115.725 229.31 115.396 229.355C115.077 229.401 114.799 229.438 114.562 229.465C114.025 229.538 113.542 229.661 113.113 229.834C112.694 229.998 112.361 230.226 112.115 230.518C111.869 230.809 111.746 231.188 111.746 231.652C111.746 232.318 111.988 232.819 112.471 233.156C112.954 233.493 113.569 233.662 114.316 233.662ZM124.119 236V220.715H127.605V223.285H127.77C128.043 222.392 128.521 221.708 129.205 221.234C129.889 220.751 130.668 220.51 131.543 220.51C131.734 220.51 131.953 220.519 132.199 220.537C132.454 220.555 132.664 220.578 132.828 220.605V223.914C132.673 223.859 132.432 223.814 132.104 223.777C131.775 223.741 131.461 223.723 131.16 223.723C130.495 223.723 129.902 223.864 129.383 224.146C128.863 224.429 128.453 224.816 128.152 225.309C127.861 225.801 127.715 226.375 127.715 227.031V236H124.119ZM140.211 236.301C138.689 236.301 137.381 235.968 136.287 235.303C135.193 234.628 134.355 233.699 133.771 232.514C133.188 231.329 132.896 229.966 132.896 228.426C132.896 226.867 133.193 225.495 133.785 224.311C134.378 223.126 135.221 222.201 136.314 221.535C137.408 220.861 138.698 220.523 140.184 220.523C141.432 220.523 142.535 220.751 143.492 221.207C144.449 221.663 145.21 222.305 145.775 223.135C146.35 223.955 146.678 224.917 146.76 226.02H143.314C143.223 225.527 143.046 225.085 142.781 224.693C142.517 224.301 142.171 223.992 141.742 223.764C141.323 223.536 140.822 223.422 140.238 223.422C139.5 223.422 138.853 223.622 138.297 224.023C137.75 224.415 137.322 224.98 137.012 225.719C136.702 226.457 136.547 227.341 136.547 228.371C136.547 229.41 136.697 230.308 136.998 231.064C137.299 231.812 137.727 232.391 138.283 232.801C138.839 233.202 139.491 233.402 140.238 233.402C141.031 233.402 141.701 233.17 142.248 232.705C142.804 232.24 143.16 231.598 143.314 230.777H146.76C146.678 231.862 146.359 232.819 145.803 233.648C145.247 234.478 144.495 235.13 143.547 235.604C142.599 236.068 141.487 236.301 140.211 236.301ZM152.297 227.059V236H148.701V215.629H152.215V223.326H152.406C152.762 222.46 153.313 221.777 154.061 221.275C154.808 220.774 155.77 220.523 156.945 220.523C158.003 220.523 158.923 220.747 159.707 221.193C160.5 221.64 161.115 222.292 161.553 223.148C161.99 224.005 162.209 225.049 162.209 226.279V236H158.6V226.84C158.6 225.801 158.335 224.999 157.807 224.434C157.278 223.859 156.54 223.572 155.592 223.572C154.954 223.572 154.384 223.709 153.883 223.982C153.391 224.256 153.003 224.652 152.721 225.172C152.438 225.682 152.297 226.311 152.297 227.059ZM177.535 236.301C176.004 236.301 174.682 235.982 173.57 235.344C172.458 234.697 171.602 233.785 171 232.609C170.408 231.434 170.111 230.048 170.111 228.453C170.111 226.876 170.408 225.495 171 224.311C171.592 223.117 172.426 222.187 173.502 221.521C174.577 220.856 175.844 220.523 177.303 220.523C178.242 220.523 179.13 220.674 179.969 220.975C180.816 221.275 181.564 221.74 182.211 222.369C182.867 222.998 183.382 223.8 183.756 224.775C184.13 225.742 184.316 226.895 184.316 228.234V229.355H171.793V226.936H182.525L180.844 227.646C180.844 226.781 180.712 226.029 180.447 225.391C180.183 224.743 179.791 224.238 179.271 223.873C178.752 223.508 178.105 223.326 177.33 223.326C176.555 223.326 175.895 223.508 175.348 223.873C174.801 224.238 174.386 224.73 174.104 225.35C173.821 225.96 173.68 226.644 173.68 227.4V229.082C173.68 230.012 173.839 230.809 174.158 231.475C174.486 232.131 174.942 232.632 175.525 232.979C176.118 233.325 176.806 233.498 177.59 233.498C178.1 233.498 178.565 233.425 178.984 233.279C179.413 233.133 179.777 232.915 180.078 232.623C180.388 232.322 180.625 231.953 180.789 231.516L184.152 231.912C183.934 232.796 183.528 233.571 182.936 234.236C182.352 234.893 181.6 235.403 180.68 235.768C179.768 236.123 178.72 236.301 177.535 236.301ZM188.637 220.715L191.713 226.375L194.844 220.715H198.658L194.064 228.371L198.74 236H194.953L191.713 230.504L188.527 236H184.713L189.348 228.371L184.822 220.715H188.637ZM200.408 241.715V220.715H203.936V223.244H204.154C204.337 222.88 204.596 222.488 204.934 222.068C205.271 221.64 205.727 221.275 206.301 220.975C206.884 220.674 207.627 220.523 208.529 220.523C209.705 220.523 210.767 220.824 211.715 221.426C212.663 222.027 213.415 222.911 213.971 224.078C214.536 225.245 214.818 226.68 214.818 228.385C214.818 230.062 214.545 231.488 213.998 232.664C213.451 233.84 212.699 234.738 211.742 235.357C210.794 235.968 209.719 236.273 208.516 236.273C207.65 236.273 206.925 236.128 206.342 235.836C205.768 235.535 205.303 235.18 204.947 234.77C204.601 234.35 204.337 233.954 204.154 233.58H204.004V241.715H200.408ZM207.531 233.32C208.324 233.32 208.985 233.106 209.514 232.678C210.051 232.249 210.457 231.661 210.73 230.914C211.004 230.167 211.141 229.319 211.141 228.371C211.141 227.423 211.004 226.58 210.73 225.842C210.457 225.104 210.056 224.525 209.527 224.105C208.999 223.686 208.333 223.477 207.531 223.477C206.757 223.477 206.1 223.677 205.562 224.078C205.034 224.479 204.628 225.049 204.346 225.787C204.072 226.516 203.936 227.378 203.936 228.371C203.936 229.355 204.072 230.221 204.346 230.969C204.628 231.707 205.038 232.286 205.576 232.705C206.114 233.115 206.766 233.32 207.531 233.32ZM223.582 236.301C222.051 236.301 220.729 235.982 219.617 235.344C218.505 234.697 217.648 233.785 217.047 232.609C216.454 231.434 216.158 230.048 216.158 228.453C216.158 226.876 216.454 225.495 217.047 224.311C217.639 223.117 218.473 222.187 219.549 221.521C220.624 220.856 221.891 220.523 223.35 220.523C224.288 220.523 225.177 220.674 226.016 220.975C226.863 221.275 227.611 221.74 228.258 222.369C228.914 222.998 229.429 223.8 229.803 224.775C230.176 225.742 230.363 226.895 230.363 228.234V229.355H217.84V226.936H228.572L226.891 227.646C226.891 226.781 226.758 226.029 226.494 225.391C226.23 224.743 225.838 224.238 225.318 223.873C224.799 223.508 224.152 223.326 223.377 223.326C222.602 223.326 221.941 223.508 221.395 223.873C220.848 224.238 220.433 224.73 220.15 225.35C219.868 225.96 219.727 226.644 219.727 227.4V229.082C219.727 230.012 219.886 230.809 220.205 231.475C220.533 232.131 220.989 232.632 221.572 232.979C222.165 233.325 222.853 233.498 223.637 233.498C224.147 233.498 224.612 233.425 225.031 233.279C225.46 233.133 225.824 232.915 226.125 232.623C226.435 232.322 226.672 231.953 226.836 231.516L230.199 231.912C229.98 232.796 229.575 233.571 228.982 234.236C228.399 234.893 227.647 235.403 226.727 235.768C225.815 236.123 224.767 236.301 223.582 236.301ZM232.318 236V220.715H235.805V223.285H235.969C236.242 222.392 236.721 221.708 237.404 221.234C238.088 220.751 238.867 220.51 239.742 220.51C239.934 220.51 240.152 220.519 240.398 220.537C240.654 220.555 240.863 220.578 241.027 220.605V223.914C240.872 223.859 240.631 223.814 240.303 223.777C239.975 223.741 239.66 223.723 239.359 223.723C238.694 223.723 238.102 223.864 237.582 224.146C237.062 224.429 236.652 224.816 236.352 225.309C236.06 225.801 235.914 226.375 235.914 227.031V236H232.318ZM242.381 236V220.715H245.977V236H242.381ZM244.186 218.568C243.611 218.568 243.119 218.377 242.709 217.994C242.299 217.611 242.094 217.151 242.094 216.613C242.094 216.066 242.299 215.602 242.709 215.219C243.119 214.836 243.611 214.645 244.186 214.645C244.751 214.645 245.238 214.836 245.648 215.219C246.059 215.602 246.264 216.062 246.264 216.6C246.264 217.146 246.059 217.611 245.648 217.994C245.238 218.377 244.751 218.568 244.186 218.568ZM255.41 236.301C253.879 236.301 252.557 235.982 251.445 235.344C250.333 234.697 249.477 233.785 248.875 232.609C248.283 231.434 247.986 230.048 247.986 228.453C247.986 226.876 248.283 225.495 248.875 224.311C249.467 223.117 250.301 222.187 251.377 221.521C252.452 220.856 253.719 220.523 255.178 220.523C256.117 220.523 257.005 220.674 257.844 220.975C258.691 221.275 259.439 221.74 260.086 222.369C260.742 222.998 261.257 223.8 261.631 224.775C262.005 225.742 262.191 226.895 262.191 228.234V229.355H249.668V226.936H260.4L258.719 227.646C258.719 226.781 258.587 226.029 258.322 225.391C258.058 224.743 257.666 224.238 257.146 223.873C256.627 223.508 255.98 223.326 255.205 223.326C254.43 223.326 253.77 223.508 253.223 223.873C252.676 224.238 252.261 224.73 251.979 225.35C251.696 225.96 251.555 226.644 251.555 227.4V229.082C251.555 230.012 251.714 230.809 252.033 231.475C252.361 232.131 252.817 232.632 253.4 232.979C253.993 233.325 254.681 233.498 255.465 233.498C255.975 233.498 256.44 233.425 256.859 233.279C257.288 233.133 257.652 232.915 257.953 232.623C258.263 232.322 258.5 231.953 258.664 231.516L262.027 231.912C261.809 232.796 261.403 233.571 260.811 234.236C260.227 234.893 259.475 235.403 258.555 235.768C257.643 236.123 256.595 236.301 255.41 236.301ZM267.742 227.059V236H264.146V220.715H267.674V223.326H267.852C268.198 222.469 268.74 221.79 269.479 221.289C270.226 220.779 271.174 220.523 272.322 220.523C273.38 220.523 274.3 220.747 275.084 221.193C275.868 221.64 276.474 222.296 276.902 223.162C277.34 224.019 277.559 225.058 277.559 226.279V236H273.963V226.84C273.963 225.819 273.699 225.021 273.17 224.447C272.641 223.864 271.912 223.572 270.982 223.572C270.354 223.572 269.793 223.709 269.301 223.982C268.818 224.256 268.435 224.652 268.152 225.172C267.879 225.682 267.742 226.311 267.742 227.059ZM286.883 236.301C285.361 236.301 284.053 235.968 282.959 235.303C281.865 234.628 281.027 233.699 280.443 232.514C279.86 231.329 279.568 229.966 279.568 228.426C279.568 226.867 279.865 225.495 280.457 224.311C281.049 223.126 281.893 222.201 282.986 221.535C284.08 220.861 285.37 220.523 286.855 220.523C288.104 220.523 289.207 220.751 290.164 221.207C291.121 221.663 291.882 222.305 292.447 223.135C293.021 223.955 293.35 224.917 293.432 226.02H289.986C289.895 225.527 289.717 225.085 289.453 224.693C289.189 224.301 288.842 223.992 288.414 223.764C287.995 223.536 287.493 223.422 286.91 223.422C286.172 223.422 285.525 223.622 284.969 224.023C284.422 224.415 283.993 224.98 283.684 225.719C283.374 226.457 283.219 227.341 283.219 228.371C283.219 229.41 283.369 230.308 283.67 231.064C283.971 231.812 284.399 232.391 284.955 232.801C285.511 233.202 286.163 233.402 286.91 233.402C287.703 233.402 288.373 233.17 288.92 232.705C289.476 232.24 289.831 231.598 289.986 230.777H293.432C293.35 231.862 293.031 232.819 292.475 233.648C291.919 234.478 291.167 235.13 290.219 235.604C289.271 236.068 288.159 236.301 286.883 236.301ZM302.141 236.301C300.609 236.301 299.288 235.982 298.176 235.344C297.064 234.697 296.207 233.785 295.605 232.609C295.013 231.434 294.717 230.048 294.717 228.453C294.717 226.876 295.013 225.495 295.605 224.311C296.198 223.117 297.032 222.187 298.107 221.521C299.183 220.856 300.45 220.523 301.908 220.523C302.847 220.523 303.736 220.674 304.574 220.975C305.422 221.275 306.169 221.74 306.816 222.369C307.473 222.998 307.988 223.8 308.361 224.775C308.735 225.742 308.922 226.895 308.922 228.234V229.355H296.398V226.936H307.131L305.449 227.646C305.449 226.781 305.317 226.029 305.053 225.391C304.788 224.743 304.396 224.238 303.877 223.873C303.357 223.508 302.71 223.326 301.936 223.326C301.161 223.326 300.5 223.508 299.953 223.873C299.406 224.238 298.992 224.73 298.709 225.35C298.426 225.96 298.285 226.644 298.285 227.4V229.082C298.285 230.012 298.445 230.809 298.764 231.475C299.092 232.131 299.548 232.632 300.131 232.979C300.723 233.325 301.411 233.498 302.195 233.498C302.706 233.498 303.171 233.425 303.59 233.279C304.018 233.133 304.383 232.915 304.684 232.623C304.993 232.322 305.23 231.953 305.395 231.516L308.758 231.912C308.539 232.796 308.133 233.571 307.541 234.236C306.958 234.893 306.206 235.403 305.285 235.768C304.374 236.123 303.326 236.301 302.141 236.301ZM322.936 224.775L319.668 225.117C319.531 224.616 319.235 224.174 318.779 223.791C318.324 223.399 317.681 223.203 316.852 223.203C316.104 223.203 315.475 223.367 314.965 223.695C314.464 224.023 314.213 224.443 314.213 224.953C314.213 225.4 314.377 225.769 314.705 226.061C315.042 226.343 315.598 226.571 316.373 226.744L318.984 227.291C320.415 227.592 321.486 228.084 322.197 228.768C322.908 229.451 323.264 230.335 323.264 231.42C323.264 232.377 322.986 233.225 322.43 233.963C321.874 234.701 321.104 235.275 320.119 235.686C319.144 236.096 318.018 236.301 316.742 236.301C314.874 236.301 313.37 235.909 312.23 235.125C311.1 234.332 310.421 233.234 310.193 231.83L313.707 231.502C313.862 232.186 314.199 232.705 314.719 233.061C315.247 233.407 315.922 233.58 316.742 233.58C317.599 233.58 318.287 233.407 318.807 233.061C319.326 232.705 319.586 232.272 319.586 231.762C319.586 230.905 318.902 230.322 317.535 230.012L314.924 229.465C313.456 229.146 312.372 228.631 311.67 227.92C310.968 227.2 310.617 226.284 310.617 225.172C310.617 224.224 310.877 223.404 311.396 222.711C311.916 222.018 312.641 221.48 313.57 221.098C314.5 220.715 315.576 220.523 316.797 220.523C318.592 220.523 320.001 220.911 321.021 221.686C322.051 222.451 322.689 223.481 322.936 224.775Z" fill="#4D84C3"/>
<rect x="24.5" y="92.5" width="47" height="47" rx="7.5" fill="#E5EEF9"/>
<rect x="24.5" y="92.5" width="47" height="47" rx="7.5" stroke="#D0E3F8"/>
<path d="M59.4311 125.571L54.2369 120.375C55.7943 118.345 56.5214 115.799 56.2707 113.253C56.0201 110.707 54.8104 108.352 52.8871 106.666C50.9637 104.979 48.4708 104.087 45.914 104.17C43.3572 104.254 40.928 105.307 39.1191 107.116C37.3102 108.925 36.257 111.354 36.1734 113.911C36.0897 116.468 36.9817 118.961 38.6685 120.884C40.3552 122.807 42.7104 124.017 45.2563 124.268C47.8022 124.518 50.3481 123.791 52.3775 122.234L57.5761 127.434C57.6982 127.556 57.8432 127.653 58.0027 127.719C58.1622 127.785 58.3332 127.819 58.5058 127.819C58.6785 127.819 58.8494 127.785 59.009 127.719C59.1685 127.653 59.3134 127.556 59.4355 127.434C59.5576 127.312 59.6544 127.167 59.7205 127.007C59.7866 126.848 59.8206 126.677 59.8206 126.504C59.8206 126.331 59.7866 126.16 59.7205 126.001C59.6544 125.841 59.5576 125.696 59.4355 125.574L59.4311 125.571ZM38.815 114.25C38.815 112.779 39.2512 111.341 40.0685 110.118C40.8857 108.894 42.0473 107.941 43.4063 107.378C44.7654 106.815 46.2608 106.668 47.7035 106.955C49.1463 107.242 50.4715 107.95 51.5116 108.99C52.5518 110.031 53.2601 111.356 53.5471 112.799C53.8341 114.241 53.6868 115.737 53.1239 117.096C52.561 118.455 51.6077 119.616 50.3846 120.434C49.1615 121.251 47.7235 121.687 46.2525 121.687C44.2806 121.685 42.39 120.901 40.9957 119.506C39.6013 118.112 38.8171 116.222 38.815 114.25Z" fill="#4D84C3"/>
<path d="M59.9142 107.792C59.9135 107.479 59.8163 107.174 59.6359 106.919C59.4557 106.664 59.2014 106.47 58.9074 106.365L55.7901 105.217L54.6416 102.094L54.6415 102.093C54.5335 101.8 54.338 101.546 54.0813 101.367C53.8247 101.188 53.5194 101.092 53.2065 101.092C52.8936 101.092 52.5883 101.188 52.3316 101.367L52.6177 101.777L52.3316 101.367C52.075 101.546 51.8795 101.8 51.7715 102.093C51.7715 102.093 51.7715 102.093 51.7715 102.093L50.623 105.214L47.501 106.363L47.5009 106.363C47.2072 106.471 46.9539 106.667 46.7749 106.923C46.5959 107.18 46.5 107.485 46.5 107.798C46.5 108.111 46.5959 108.416 46.7749 108.673C46.9539 108.93 47.2072 109.125 47.5009 109.233L47.5009 109.233L50.6214 110.382L51.7728 113.499C51.7728 113.499 51.7728 113.499 51.7728 113.499C51.8809 113.793 52.0764 114.046 52.3329 114.225C52.5895 114.404 52.8949 114.5 53.2078 114.5C53.5207 114.5 53.826 114.404 54.0826 114.225C54.3392 114.046 54.5348 113.792 54.6428 113.499L55.7913 110.378L58.9105 109.231C58.911 109.23 58.9115 109.23 58.912 109.23C59.2069 109.123 59.4616 108.928 59.641 108.67C59.8205 108.413 59.9159 108.106 59.9142 107.792ZM59.9142 107.792C59.9142 107.793 59.9142 107.793 59.9142 107.793L59.4142 107.794L59.9142 107.791C59.9142 107.792 59.9142 107.792 59.9142 107.792ZM56.6264 98.798L56.98 99.1515L56.6264 98.798C56.4356 98.9888 56.3285 99.2475 56.3285 99.5173V100.052H55.7942C55.5244 100.052 55.2656 100.159 55.0749 100.35C54.8842 100.541 54.777 100.799 54.777 101.069C54.777 101.339 54.8842 101.598 55.0749 101.789C55.2656 101.979 55.5244 102.087 55.7942 102.087H56.3285V102.621C56.3285 102.891 56.4356 103.15 56.6264 103.34L56.9692 102.998L56.6264 103.34C56.8171 103.531 57.0758 103.638 57.3456 103.638C57.6155 103.638 57.8742 103.531 58.0649 103.34C58.2557 103.15 58.3628 102.891 58.3628 102.621V102.087H58.8971C59.1669 102.087 59.4256 101.979 59.6164 101.789C59.8071 101.598 59.9142 101.339 59.9142 101.069C59.9142 100.799 59.8071 100.541 59.6164 100.35C59.4256 100.159 59.1669 100.052 58.8971 100.052H58.3628V99.5173C58.3628 99.2475 58.2557 98.9888 58.0649 98.798C57.8742 98.6072 57.6155 98.5 57.3456 98.5C57.0758 98.5 56.8171 98.6072 56.6264 98.798ZM61.1678 102.419L60.8142 102.773L61.1678 102.419C60.9771 102.228 60.7184 102.121 60.4485 102.121C60.1787 102.121 59.92 102.228 59.7293 102.419C59.5385 102.61 59.4314 102.869 59.4314 103.138V103.156H59.4142C59.1444 103.156 58.8857 103.263 58.695 103.454C58.5042 103.645 58.3971 103.903 58.3971 104.173C58.3971 104.443 58.5042 104.702 58.695 104.892C58.8857 105.083 59.1444 105.19 59.4142 105.19H59.4314V105.208C59.4314 105.477 59.5385 105.736 59.7293 105.927C59.92 106.118 60.1787 106.225 60.4485 106.225C60.7184 106.225 60.9771 106.118 61.1678 105.927L60.8142 105.573L61.1678 105.927C61.3586 105.736 61.4657 105.477 61.4657 105.208V105.19H61.4828C61.7527 105.19 62.0114 105.083 62.2021 104.892C62.3929 104.702 62.5 104.443 62.5 104.173C62.5 103.903 62.3929 103.645 62.2021 103.454C62.0114 103.263 61.7527 103.156 61.4828 103.156H61.4657V103.138C61.4657 102.869 61.3586 102.61 61.1678 102.419Z" fill="#4D84C3" stroke="#E5EEF9"/>
</g>
<defs>
<linearGradient id="paint0_linear_455_6655" x1="174.809" y1="355.875" x2="174.809" y2="663.506" gradientUnits="userSpaceOnUse">
<stop stop-color="#F8F7F4"/>
<stop offset="0.235" stop-color="#F6F3EC"/>
<stop offset="0.57" stop-color="#EDEAE0"/>
<stop offset="0.8" stop-color="#EDEAE0"/>
</linearGradient>
<linearGradient id="paint1_linear_455_6655" x1="174.144" y1="363.219" x2="174.144" y2="679.125" gradientUnits="userSpaceOnUse">
<stop stop-color="#F8F7F4"/>
<stop offset="0.235" stop-color="#F6F3EC"/>
<stop offset="0.57" stop-color="#EDEAE0"/>
<stop offset="0.8" stop-color="#EDEAE0"/>
</linearGradient>
<linearGradient id="paint2_linear_455_6655" x1="186.27" y1="362.572" x2="186.27" y2="678.478" gradientUnits="userSpaceOnUse">
<stop stop-color="#F8F7F4"/>
<stop offset="0.235" stop-color="#F6F3EC"/>
<stop offset="0.57" stop-color="#EDEAE0"/>
<stop offset="0.8" stop-color="#EDEAE0"/>
</linearGradient>
<linearGradient id="paint3_linear_455_6655" x1="179.501" y1="437.22" x2="179.501" y2="597.785" gradientUnits="userSpaceOnUse">
<stop stop-color="#F8F7F4"/>
<stop offset="0.2" stop-color="#F6F3EC"/>
<stop offset="0.57" stop-color="#EDEAE0"/>
<stop offset="0.8" stop-color="#EDEAE0"/>
</linearGradient>
<linearGradient id="paint4_linear_455_6655" x1="179.497" y1="442.033" x2="179.497" y2="592.971" gradientUnits="userSpaceOnUse">
<stop stop-color="#F8F7F4"/>
<stop offset="0.2" stop-color="#F6F3EC"/>
<stop offset="0.57" stop-color="#EDEAE0"/>
<stop offset="0.8" stop-color="#EDEAE0"/>
</linearGradient>
<linearGradient id="paint5_linear_455_6655" x1="179.507" y1="311.175" x2="179.507" y2="723.831" gradientUnits="userSpaceOnUse">
<stop stop-color="#F8F7F4"/>
<stop offset="0.2" stop-color="#F6F3EC"/>
<stop offset="0.57" stop-color="#EDEAE0"/>
<stop offset="0.8" stop-color="#EDEAE0"/>
</linearGradient>
<clipPath id="clip0_455_6655">
<rect width="360" height="540" rx="12" fill="white"/>
</clipPath>
<clipPath id="clip1_455_6655">
<rect width="417" height="417" fill="white" transform="translate(-29 309)"/>
</clipPath>
</defs>
</svg>
