<svg width="360" height="540" viewBox="0 0 360 540" fill="none" xmlns="http://www.w3.org/2000/svg">
<g clip-path="url(#clip0_455_6650)">
<rect width="360" height="540" rx="16" fill="#F8F7F4"/>
<g clip-path="url(#clip1_455_6650)">
<g opacity="0.8">
<path d="M231.498 386.113C240.703 404.772 258.504 417.701 279.091 420.69C330.941 428.224 351.639 491.94 314.122 528.513C299.223 543.033 292.423 563.961 295.941 584.466C304.798 636.105 250.598 675.488 204.223 651.104C185.806 641.42 163.809 641.42 145.393 651.104C99.0177 675.488 44.8175 636.105 53.6747 584.466C57.1928 563.961 50.3929 543.039 35.494 528.513C-2.02346 491.94 18.6808 428.224 70.5253 420.69C91.1114 417.701 108.913 404.766 118.118 386.113C141.309 339.129 208.301 339.129 231.491 386.113H231.498Z" stroke="url(#paint0_linear_455_6650)" stroke-width="4.35094" stroke-miterlimit="10"/>
<path d="M180.211 372.923C196.21 386.225 217.728 390.799 237.755 385.155C288.188 370.947 333.016 420.74 313.617 469.408C305.915 488.733 308.215 510.618 319.764 527.916C348.859 571.487 315.363 629.51 263.077 626.098C242.317 624.743 222.216 633.693 209.331 650.028C176.879 691.163 111.348 677.234 98.4379 626.458C93.31 606.295 78.5914 589.948 59.0744 582.738C9.92741 564.588 2.92241 497.957 47.2212 469.986C64.8114 458.879 75.813 439.828 76.6397 419.037C78.7157 366.683 139.915 339.433 180.211 372.923V372.923Z" stroke="url(#paint1_linear_455_6650)" stroke-width="4.35094" stroke-miterlimit="10"/>
<path d="M122.657 384.508C142.684 390.152 164.202 385.578 180.202 372.276C220.491 338.786 281.696 366.036 283.772 418.39C284.593 439.181 295.595 458.232 313.191 469.339C357.49 497.31 350.491 563.941 301.338 582.091C281.821 589.301 267.102 605.648 261.974 625.811C249.064 676.587 183.527 690.516 151.081 649.381C138.196 633.046 118.095 624.096 97.3348 625.451C45.0552 628.863 11.553 570.84 40.6483 527.269C52.2032 509.965 54.5029 488.086 46.7956 468.761C27.3966 420.093 72.2237 370.306 122.657 384.508V384.508Z" stroke="url(#paint2_linear_455_6650)" stroke-width="4.35094" stroke-miterlimit="10"/>
</g>
<g opacity="0.8">
<path d="M195.003 443.161C198.272 452.347 208.764 456.692 217.572 452.509C231.557 445.865 246.145 460.453 239.495 474.432C235.311 483.239 239.656 493.731 248.843 497.001C263.431 502.191 263.431 522.82 248.843 528.004C239.656 531.273 235.311 541.765 239.495 550.573C246.139 564.558 231.551 579.146 217.572 572.495C208.764 568.312 198.272 572.657 195.003 581.844C189.813 596.432 169.183 596.432 164 581.844C160.73 572.657 150.238 568.312 141.431 572.495C127.445 579.14 112.857 564.552 119.508 550.573C123.691 541.765 119.346 531.273 110.16 528.004C95.5717 522.814 95.5717 502.184 110.16 497.001C119.346 493.731 123.691 483.239 119.508 474.432C112.864 460.446 127.452 445.858 141.431 452.509C150.238 456.692 160.73 452.347 164 443.161C169.19 428.573 189.819 428.573 195.003 443.161Z" stroke="url(#paint3_linear_455_6650)" stroke-width="4.35094" stroke-miterlimit="10"/>
<path d="M167.283 442.502C173.815 449.737 185.178 449.737 191.71 442.502C202.084 431.009 221.147 438.903 220.358 454.367C219.861 464.107 227.891 472.138 237.631 471.64C253.096 470.851 260.99 489.908 249.497 500.288C242.262 506.821 242.262 518.183 249.497 524.716C260.99 535.089 253.096 554.153 237.631 553.363C227.891 552.866 219.861 560.897 220.358 570.637C221.147 586.101 202.09 593.995 191.71 582.502C185.178 575.267 173.815 575.267 167.283 582.502C156.909 593.995 137.846 586.101 138.635 570.637C139.132 560.897 131.102 552.866 121.362 553.363C105.897 554.153 98.0035 535.096 109.496 524.716C116.731 518.183 116.731 506.821 109.496 500.288C98.0035 489.914 105.897 470.851 121.362 471.64C131.102 472.138 139.132 464.107 138.635 454.367C137.846 438.903 156.903 431.009 167.283 442.502V442.502Z" stroke="url(#paint4_linear_455_6650)" stroke-width="4.35094" stroke-miterlimit="10"/>
</g>
<path opacity="0.8" d="M179.507 718.831C293.459 718.831 385.835 626.455 385.835 512.503C385.835 398.551 293.459 306.175 179.507 306.175C65.5557 306.175 -26.8203 398.551 -26.8203 512.503C-26.8203 626.455 65.5557 718.831 179.507 718.831Z" stroke="url(#paint5_linear_455_6650)" stroke-width="4.35094" stroke-miterlimit="10"/>
</g>
<path d="M32.54 189H26.184V168.896H32.54C38.952 168.896 42.648 172.984 42.648 178.864C42.648 184.66 38.812 189 32.54 189ZM29.264 171.556V186.34H32.4C37.02 186.34 39.512 183.484 39.512 178.864C39.512 174.328 37.048 171.556 32.4 171.556H29.264ZM51.7515 189.28C47.4675 189.28 44.5835 186.172 44.5835 181.496C44.5835 177.1 47.5795 173.88 51.6675 173.88C56.0915 173.88 59.0315 177.464 58.5275 182.28H47.4675C47.6915 185.304 49.2035 187.068 51.6955 187.068C53.7955 187.068 55.2515 185.92 55.7275 183.988H58.5275C57.7995 187.292 55.2515 189.28 51.7515 189.28ZM51.6115 176.008C49.3435 176.008 47.8035 177.632 47.4955 180.404H55.5315C55.3915 177.66 53.9075 176.008 51.6115 176.008ZM73.2942 184.576C73.2942 187.488 71.0262 189.28 67.0782 189.28C63.1582 189.28 60.8342 187.348 60.5542 184.156H63.2702C63.3822 186.004 64.8662 187.152 67.1342 187.152C69.1222 187.152 70.4382 186.452 70.4382 185.052C70.4382 183.82 69.6822 183.288 67.8342 182.924L65.4262 182.476C62.6822 181.944 61.1422 180.544 61.1422 178.304C61.1422 175.7 63.4102 173.88 66.8542 173.88C70.4102 173.88 72.8182 175.784 73.0702 178.836H70.3542C70.1862 177.044 68.8702 176.008 66.8822 176.008C65.0902 176.008 63.8862 176.764 63.8862 178.052C63.8862 179.256 64.6422 179.816 66.4342 180.152L68.9542 180.628C71.8942 181.16 73.2942 182.448 73.2942 184.576ZM79.8259 170.716C79.8259 171.78 78.9859 172.592 77.7819 172.592C76.5779 172.592 75.7099 171.78 75.7099 170.716C75.7099 169.624 76.5779 168.84 77.7819 168.84C78.9859 168.84 79.8259 169.624 79.8259 170.716ZM79.2099 189H76.3819V174.16H79.2099V189ZM89.0718 194.712C85.1798 194.712 82.6598 192.64 82.4918 189.28H85.2358C85.4038 191.352 86.7478 192.472 89.0438 192.472C91.5918 192.472 92.9358 191.1 92.9358 188.552V185.864C92.0958 187.656 90.4158 188.692 88.3998 188.692C84.7038 188.692 82.0718 185.64 82.0718 181.272C82.0718 176.848 84.5918 173.88 88.3158 173.88C90.4438 173.88 92.1238 174.916 93.1318 176.792V174.16H95.7638V188.496C95.7638 192.388 93.2718 194.712 89.0718 194.712ZM84.9278 181.272C84.9278 184.352 86.4398 186.228 88.9038 186.228C91.3118 186.228 92.9358 184.296 92.9358 181.356C92.9358 178.276 91.3398 176.316 88.9038 176.316C86.4678 176.316 84.9278 178.22 84.9278 181.272ZM102.507 180.628V189H99.6788V174.16H102.311V176.624C103.319 174.972 104.999 173.88 107.043 173.88C110.095 173.88 112.111 175.84 112.111 179.396V189H109.283V180.348C109.283 177.8 108.163 176.372 106.063 176.372C104.131 176.372 102.507 177.996 102.507 180.628ZM121.97 189.28C117.686 189.28 114.802 186.172 114.802 181.496C114.802 177.1 117.798 173.88 121.886 173.88C126.31 173.88 129.25 177.464 128.746 182.28H117.686C117.91 185.304 119.422 187.068 121.914 187.068C124.014 187.068 125.47 185.92 125.946 183.988H128.746C128.018 187.292 125.47 189.28 121.97 189.28ZM121.83 176.008C119.562 176.008 118.022 177.632 117.714 180.404H125.75C125.61 177.66 124.126 176.008 121.83 176.008ZM130.416 181.58C130.416 177.072 132.992 173.88 136.996 173.88C138.984 173.88 140.72 174.888 141.756 176.708V168.896H144.584V189H141.952V186.34C140.888 188.216 139.096 189.28 136.996 189.28C132.992 189.28 130.416 186.032 130.416 181.58ZM133.356 181.58C133.356 184.884 135.092 186.76 137.556 186.76C139.964 186.76 141.756 184.8 141.756 181.524C141.756 178.192 139.908 176.372 137.556 176.372C135.092 176.372 133.356 178.22 133.356 181.58ZM133.03 225V222.704C132.106 224.356 130.454 225.28 128.27 225.28C125.19 225.28 123.174 223.516 123.174 220.8C123.174 217.888 125.498 216.376 129.922 216.376C130.79 216.376 131.49 216.404 132.694 216.544V215.452C132.694 213.324 131.546 212.12 129.586 212.12C127.514 212.12 126.254 213.352 126.17 215.424H123.594C123.734 212.092 126.114 209.88 129.586 209.88C133.254 209.88 135.382 211.952 135.382 215.48V225H133.03ZM125.862 220.716C125.862 222.256 127.01 223.264 128.83 223.264C131.21 223.264 132.694 221.78 132.694 219.512V218.308C131.602 218.168 130.818 218.14 130.09 218.14C127.262 218.14 125.862 218.98 125.862 220.716ZM141.991 216.628V225H139.163V210.16H141.795V212.624C142.803 210.972 144.483 209.88 146.527 209.88C149.579 209.88 151.595 211.84 151.595 215.396V225H148.767V216.348C148.767 213.8 147.647 212.372 145.547 212.372C143.615 212.372 141.991 213.996 141.991 216.628ZM154.287 217.58C154.287 213.072 156.863 209.88 160.867 209.88C162.855 209.88 164.591 210.888 165.627 212.708V204.896H168.455V225H165.823V222.34C164.759 224.216 162.967 225.28 160.867 225.28C156.863 225.28 154.287 222.032 154.287 217.58ZM157.227 217.58C157.227 220.884 158.963 222.76 161.427 222.76C163.835 222.76 165.627 220.8 165.627 217.524C165.627 214.192 163.779 212.372 161.427 212.372C158.963 212.372 157.227 214.22 157.227 217.58ZM294.737 261H291.909V248.568H288.633V246.16H291.909V245.068C291.909 242.212 293.449 240.644 296.249 240.644C297.089 240.644 297.761 240.784 298.321 241.008V243.304C297.873 243.108 297.369 243.052 296.865 243.052C295.521 243.052 294.737 243.668 294.737 245.096V246.16H298.881V248.568H294.737V261ZM306.844 261.28C302.644 261.28 299.564 257.976 299.564 253.58C299.564 249.184 302.644 245.88 306.844 245.88C311.044 245.88 314.124 249.184 314.124 253.58C314.124 257.976 311.044 261.28 306.844 261.28ZM306.844 258.788C309.28 258.788 311.212 256.828 311.212 253.58C311.212 250.332 309.28 248.4 306.844 248.4C304.408 248.4 302.504 250.332 302.504 253.58C302.504 256.828 304.408 258.788 306.844 258.788ZM319.835 253.412V261H317.007V246.16H319.639V249.296C320.675 247.252 322.915 245.964 325.351 245.964V248.904C322.159 248.736 319.835 250.136 319.835 253.412ZM35.368 297L29.012 281.628V297H26.184V276.896H29.964L36.712 293.22L43.432 276.896H47.24V297H44.384V281.6L38 297H35.368ZM57.5783 297.28C53.3783 297.28 50.2983 293.976 50.2983 289.58C50.2983 285.184 53.3783 281.88 57.5783 281.88C61.7783 281.88 64.8583 285.184 64.8583 289.58C64.8583 293.976 61.7783 297.28 57.5783 297.28ZM57.5783 294.788C60.0143 294.788 61.9463 292.828 61.9463 289.58C61.9463 286.332 60.0143 284.4 57.5783 284.4C55.1423 284.4 53.2383 286.332 53.2383 289.58C53.2383 292.828 55.1423 294.788 57.5783 294.788ZM81.9093 289.58C81.9093 294.032 79.3333 297.28 75.3293 297.28C73.2293 297.28 71.4373 296.216 70.3733 294.34V297H67.7413V276.896H70.5693V284.708C71.6053 282.888 73.3133 281.88 75.3293 281.88C79.3053 281.88 81.9093 285.072 81.9093 289.58ZM78.9693 289.58C78.9693 286.22 77.2053 284.372 74.7693 284.372C72.4173 284.372 70.5693 286.192 70.5693 289.524C70.5693 292.8 72.3613 294.76 74.7693 294.76C77.2053 294.76 78.9693 292.884 78.9693 289.58ZM88.2204 278.716C88.2204 279.78 87.3804 280.592 86.1764 280.592C84.9724 280.592 84.1044 279.78 84.1044 278.716C84.1044 277.624 84.9724 276.84 86.1764 276.84C87.3804 276.84 88.2204 277.624 88.2204 278.716ZM87.6044 297H84.7764V282.16H87.6044V297ZM94.3863 297H91.5303V276.896H94.3863V297ZM104.416 297.28C100.132 297.28 97.2476 294.172 97.2476 289.496C97.2476 285.1 100.244 281.88 104.332 281.88C108.756 281.88 111.696 285.464 111.192 290.28H100.132C100.356 293.304 101.868 295.068 104.36 295.068C106.46 295.068 107.916 293.92 108.392 291.988H111.192C110.464 295.292 107.916 297.28 104.416 297.28ZM104.276 284.008C102.008 284.008 100.468 285.632 100.16 288.404H108.196C108.056 285.66 106.572 284.008 104.276 284.008ZM126.35 286.22L130.83 291.26C131.166 290.28 131.362 289.076 131.418 287.788H134.022C133.966 289.664 133.406 291.624 132.51 293.136L135.954 297H132.426L130.83 295.208C129.318 296.58 127.554 297.28 125.706 297.28C121.674 297.28 119.098 294.928 119.098 291.26C119.098 288.992 120.554 287.172 122.766 286.108C121.898 284.932 121.478 283.896 121.478 282.552C121.478 279.808 123.802 277.792 126.91 277.792C130.046 277.792 132.23 279.752 132.286 282.636H129.626C129.486 280.984 128.282 280.06 126.91 280.06C125.454 280.06 124.362 281.124 124.362 282.58C124.362 283.84 125.034 284.708 126.35 286.22ZM121.814 291.092C121.814 293.08 123.13 294.956 125.93 294.956C127.218 294.956 128.45 294.452 129.374 293.584L124.222 287.788C122.794 288.376 121.814 289.552 121.814 291.092ZM159.598 297L155.342 281.236L151.058 297H147.894L142.658 276.896H145.682L149.546 292.38L153.774 276.896H156.966L161.138 292.408L165.002 276.896H168.026L162.79 297H159.598ZM175.4 297.28C171.116 297.28 168.232 294.172 168.232 289.496C168.232 285.1 171.228 281.88 175.316 281.88C179.74 281.88 182.68 285.464 182.176 290.28H171.116C171.34 293.304 172.852 295.068 175.344 295.068C177.444 295.068 178.9 293.92 179.376 291.988H182.176C181.448 295.292 178.9 297.28 175.4 297.28ZM175.26 284.008C172.992 284.008 171.452 285.632 171.144 288.404H179.18C179.04 285.66 177.556 284.008 175.26 284.008ZM199.351 289.58C199.351 294.032 196.775 297.28 192.771 297.28C190.671 297.28 188.879 296.216 187.815 294.34V297H185.183V276.896H188.011V284.708C189.047 282.888 190.755 281.88 192.771 281.88C196.747 281.88 199.351 285.072 199.351 289.58ZM196.411 289.58C196.411 286.22 194.647 284.372 192.211 284.372C189.859 284.372 188.011 286.192 188.011 289.524C188.011 292.8 189.803 294.76 192.211 294.76C194.647 294.76 196.411 292.884 196.411 289.58Z" fill="#424242"/>
<path d="M163.606 189L158.342 175.644V189H154.478V168.896H159.574L165.398 183.792L171.25 168.896H176.346V189H172.482V175.532L167.162 189H163.606ZM189.023 189V187.152C188.043 188.552 186.559 189.28 184.515 189.28C181.407 189.28 179.335 187.46 179.335 184.66C179.335 181.748 181.687 180.18 186.055 180.18C186.895 180.18 187.623 180.236 188.547 180.348V179.452C188.547 177.772 187.595 176.792 185.971 176.792C184.291 176.792 183.283 177.772 183.143 179.452H179.643C179.867 176.008 182.359 173.768 185.971 173.768C189.891 173.768 192.187 175.924 192.187 179.592V189H189.023ZM183.003 184.548C183.003 185.808 183.899 186.592 185.355 186.592C187.343 186.592 188.547 185.5 188.547 183.764V182.7C187.623 182.56 186.979 182.504 186.307 182.504C184.095 182.504 183.003 183.204 183.003 184.548ZM199.433 181.748V189H195.541V174.048H199.125V176.932C200.217 175.028 202.541 173.88 204.949 173.88V177.912C201.645 177.66 199.433 178.444 199.433 181.748ZM213.326 194.684C209.294 194.684 206.606 192.5 206.438 189.056H210.19C210.358 190.764 211.45 191.66 213.298 191.66C215.454 191.66 216.574 190.512 216.574 188.356V186.172C215.762 187.6 214.222 188.44 212.402 188.44C208.734 188.44 205.99 185.332 205.99 181.104C205.99 176.764 208.566 173.768 212.262 173.768C214.278 173.768 215.79 174.552 216.882 176.092V174.048H220.438V188.3C220.438 192.276 217.75 194.684 213.326 194.684ZM209.882 181.104C209.882 183.54 211.142 185.08 213.158 185.08C215.202 185.08 216.546 183.484 216.546 181.132C216.546 178.696 215.202 177.128 213.158 177.128C211.17 177.128 209.882 178.668 209.882 181.104ZM228.459 170.576C228.459 171.892 227.395 172.872 225.855 172.872C224.343 172.872 223.279 171.892 223.279 170.576C223.279 169.204 224.343 168.224 225.855 168.224C227.395 168.224 228.459 169.204 228.459 170.576ZM227.843 189H223.951V174.048H227.843V189ZM235.198 180.852V189H231.306V174.048H234.89V176.176C235.982 174.692 237.522 173.768 239.482 173.768C242.478 173.768 244.55 175.728 244.55 179.34V189H240.686V180.656C240.686 178.444 239.818 177.212 238.054 177.212C236.514 177.212 235.198 178.444 235.198 180.852ZM33.492 218.448H30.328V225H26.072V204.896H33.492C38.392 204.896 41.444 207.22 41.444 211.588C41.444 215.956 38.392 218.448 33.492 218.448ZM33.464 208.48H30.328V214.864H33.464C35.872 214.864 37.216 213.604 37.216 211.616C37.216 209.628 35.872 208.48 33.464 208.48ZM47.9216 225H44.0016V204.896H47.9216V225ZM57.9078 225.252C53.4278 225.252 50.4318 222.144 50.4318 217.468C50.4318 213.016 53.5398 209.768 57.8518 209.768C62.5838 209.768 65.7198 213.604 65.0198 218.476H54.4078C54.6598 220.912 55.8358 222.256 57.8238 222.256C59.5318 222.256 60.6798 221.416 61.1278 219.932H64.9918C64.1518 223.32 61.5478 225.252 57.9078 225.252ZM57.7678 212.624C55.9478 212.624 54.7998 213.8 54.4638 216.012H60.9038C60.7918 213.94 59.6158 212.624 57.7678 212.624ZM66.3732 217.524C66.3732 213.1 68.9772 209.768 73.0092 209.768C74.8012 209.768 76.3132 210.552 77.4332 211.98V204.896H81.2972V225H77.7412V222.844C76.5652 224.412 74.9412 225.28 73.0092 225.28C68.9772 225.28 66.3732 221.892 66.3732 217.524ZM70.3772 217.524C70.3772 220.324 71.9732 221.808 73.8772 221.808C75.8092 221.808 77.4052 220.296 77.4052 217.468C77.4052 214.64 75.7812 213.212 73.8772 213.212C71.9732 213.212 70.3772 214.668 70.3772 217.524ZM91.1272 230.684C87.0952 230.684 84.4072 228.5 84.2392 225.056H87.9912C88.1592 226.764 89.2512 227.66 91.0992 227.66C93.2552 227.66 94.3752 226.512 94.3752 224.356V222.172C93.5632 223.6 92.0232 224.44 90.2032 224.44C86.5352 224.44 83.7912 221.332 83.7912 217.104C83.7912 212.764 86.3672 209.768 90.0632 209.768C92.0792 209.768 93.5912 210.552 94.6832 212.092V210.048H98.2392V224.3C98.2392 228.276 95.5512 230.684 91.1272 230.684ZM87.6832 217.104C87.6832 219.54 88.9432 221.08 90.9592 221.08C93.0032 221.08 94.3472 219.484 94.3472 217.132C94.3472 214.696 93.0032 213.128 90.9592 213.128C88.9712 213.128 87.6832 214.668 87.6832 217.104ZM108.248 225.252C103.768 225.252 100.772 222.144 100.772 217.468C100.772 213.016 103.88 209.768 108.192 209.768C112.924 209.768 116.06 213.604 115.36 218.476H104.748C105 220.912 106.176 222.256 108.164 222.256C109.872 222.256 111.02 221.416 111.468 219.932H115.332C114.492 223.32 111.888 225.252 108.248 225.252ZM108.108 212.624C106.288 212.624 105.14 213.8 104.804 216.012H111.244C111.132 213.94 109.956 212.624 108.108 212.624ZM187.477 225L182.213 211.644V225H178.349V204.896H183.445L189.269 219.792L195.121 204.896H200.217V225H196.353V211.532L191.033 225H187.477ZM213.314 225H209.058V208.732H202.73V204.896H219.67V208.732H213.314V225ZM226.465 225H222.209V204.896H235.201V208.592H226.465V213.66H233.829V217.328H226.465V225ZM242.351 212.652C242.351 214.192 241.287 215.284 239.747 215.284C238.207 215.284 237.115 214.192 237.115 212.652C237.115 211.084 238.207 209.992 239.747 209.992C241.287 209.992 242.351 211.084 242.351 212.652ZM242.351 222.508C242.351 224.048 241.287 225.14 239.747 225.14C238.207 225.14 237.115 224.048 237.115 222.508C237.115 220.94 238.207 219.848 239.747 219.848C241.287 219.848 242.351 220.94 242.351 222.508ZM34.976 261.42C29.32 261.42 24.896 256.828 24.896 250.92C24.896 245.04 29.32 240.476 34.976 240.476C40.268 240.476 44.412 244.004 45.112 249.156H40.604C40.128 246.272 37.888 244.284 35.032 244.284C31.588 244.284 29.264 247 29.264 250.92C29.264 254.868 31.588 257.612 35.032 257.612C37.888 257.612 40.1 255.596 40.604 252.712H45.112C44.412 257.92 40.268 261.42 34.976 261.42ZM54.3557 261.28C50.0157 261.28 46.7677 257.864 46.7677 253.524C46.7677 249.156 50.0157 245.768 54.3557 245.768C58.6957 245.768 61.9437 249.156 61.9437 253.524C61.9437 257.864 58.6957 261.28 54.3557 261.28ZM54.3557 257.836C56.2877 257.836 57.9397 256.296 57.9397 253.524C57.9397 250.752 56.2877 249.24 54.3557 249.24C52.4237 249.24 50.7717 250.752 50.7717 253.524C50.7717 256.296 52.4237 257.836 54.3557 257.836ZM68.3194 252.852V261H64.4274V246.048H68.0114V248.176C69.1034 246.692 70.6434 245.768 72.6034 245.768C75.5994 245.768 77.6714 247.728 77.6714 251.34V261H73.8074V252.656C73.8074 250.444 72.9394 249.212 71.1754 249.212C69.6354 249.212 68.3194 250.444 68.3194 252.852ZM93.9462 246.048L88.4582 261H84.2022L78.6862 246.048H82.8862L86.4422 256.576L90.0262 246.048H93.9462ZM101.63 261.252C97.1504 261.252 94.1544 258.144 94.1544 253.468C94.1544 249.016 97.2624 245.768 101.574 245.768C106.306 245.768 109.442 249.604 108.742 254.476H98.1304C98.3824 256.912 99.5584 258.256 101.546 258.256C103.254 258.256 104.402 257.416 104.85 255.932H108.714C107.874 259.32 105.27 261.252 101.63 261.252ZM101.49 248.624C99.6704 248.624 98.5224 249.8 98.1864 252.012H104.626C104.514 249.94 103.338 248.624 101.49 248.624ZM115.241 253.748V261H111.349V246.048H114.933V248.932C116.025 247.028 118.349 245.88 120.757 245.88V249.912C117.453 249.66 115.241 250.444 115.241 253.748ZM133.032 257.22V260.608C132.08 261.084 131.184 261.28 130.036 261.28C126.956 261.28 125.024 259.516 125.024 256.156V249.38H122V246.048H125.024V241.624H128.888V246.048H133.172V249.38H128.888V255.26C128.888 256.996 129.672 257.696 131.072 257.696C131.8 257.696 132.472 257.528 133.032 257.22ZM150.696 257.22V260.608C149.744 261.084 148.848 261.28 147.7 261.28C144.62 261.28 142.688 259.516 142.688 256.156V249.38H139.664V246.048H142.688V241.624H146.552V246.048H150.836V249.38H146.552V255.26C146.552 256.996 147.336 257.696 148.736 257.696C149.464 257.696 150.136 257.528 150.696 257.22ZM159.492 261.28C155.152 261.28 151.904 257.864 151.904 253.524C151.904 249.156 155.152 245.768 159.492 245.768C163.832 245.768 167.08 249.156 167.08 253.524C167.08 257.864 163.832 261.28 159.492 261.28ZM159.492 257.836C161.424 257.836 163.076 256.296 163.076 253.524C163.076 250.752 161.424 249.24 159.492 249.24C157.56 249.24 155.908 250.752 155.908 253.524C155.908 256.296 157.56 257.836 159.492 257.836ZM182.892 261H175.752V240.896H182.892C189.276 240.896 193.14 244.984 193.14 250.836C193.14 256.688 189.136 261 182.892 261ZM180.008 244.564V257.332H182.668C186.672 257.332 188.772 255.008 188.772 250.836C188.772 246.832 186.672 244.564 182.668 244.564H180.008ZM202.255 261.252C197.775 261.252 194.779 258.144 194.779 253.468C194.779 249.016 197.887 245.768 202.199 245.768C206.931 245.768 210.067 249.604 209.367 254.476H198.755C199.007 256.912 200.183 258.256 202.171 258.256C203.879 258.256 205.027 257.416 205.475 255.932H209.339C208.499 259.32 205.895 261.252 202.255 261.252ZM202.115 248.624C200.295 248.624 199.147 249.8 198.811 252.012H205.251C205.139 249.94 203.963 248.624 202.115 248.624ZM215.894 261H211.974V240.896H215.894V261ZM223.892 242.576C223.892 243.892 222.828 244.872 221.288 244.872C219.776 244.872 218.712 243.892 218.712 242.576C218.712 241.204 219.776 240.224 221.288 240.224C222.828 240.224 223.892 241.204 223.892 242.576ZM223.276 261H219.384V246.048H223.276V261ZM240.208 246.048L234.72 261H230.464L224.948 246.048H229.148L232.704 256.576L236.288 246.048H240.208ZM247.892 261.252C243.412 261.252 240.416 258.144 240.416 253.468C240.416 249.016 243.524 245.768 247.836 245.768C252.568 245.768 255.704 249.604 255.004 254.476H244.392C244.644 256.912 245.82 258.256 247.808 258.256C249.516 258.256 250.664 257.416 251.112 255.932H254.976C254.136 259.32 251.532 261.252 247.892 261.252ZM247.752 248.624C245.932 248.624 244.784 249.8 244.448 252.012H250.888C250.776 249.94 249.6 248.624 247.752 248.624ZM261.503 253.748V261H257.611V246.048H261.195V248.932C262.287 247.028 264.611 245.88 267.019 245.88V249.912C263.715 249.66 261.503 250.444 261.503 253.748ZM282.782 246.048L275.502 266.404H271.274L273.402 260.832L267.522 246.048H271.722L275.474 256.296L278.89 246.048H282.782Z" fill="#E45440"/>
<rect x="24.5" y="92.5" width="47" height="47" rx="7.5" fill="#F6E9E7"/>
<rect x="24.5" y="92.5" width="47" height="47" rx="7.5" stroke="#F8D7D3"/>
<path d="M57.3698 121.869L53.8698 125.369C53.7056 125.533 53.4829 125.625 53.2507 125.625C53.0185 125.625 52.7958 125.533 52.6316 125.369C52.4674 125.205 52.3752 124.982 52.3752 124.75C52.3752 124.518 52.4674 124.295 52.6316 124.131L54.6387 122.125H39.2507C39.0186 122.125 38.7961 122.033 38.632 121.869C38.4679 121.705 38.3757 121.482 38.3757 121.25C38.3757 121.018 38.4679 120.795 38.632 120.631C38.7961 120.467 39.0186 120.375 39.2507 120.375H54.6387L52.6316 118.369C52.4674 118.205 52.3752 117.982 52.3752 117.75C52.3752 117.518 52.4674 117.295 52.6316 117.131C52.7958 116.967 53.0185 116.875 53.2507 116.875C53.4829 116.875 53.7056 116.967 53.8698 117.131L57.3698 120.631C57.4511 120.712 57.5156 120.809 57.5597 120.915C57.6037 121.021 57.6264 121.135 57.6264 121.25C57.6264 121.365 57.6037 121.479 57.5597 121.585C57.5156 121.691 57.4511 121.788 57.3698 121.869ZM42.1316 114.869C42.2958 115.033 42.5185 115.125 42.7507 115.125C42.9829 115.125 43.2056 115.033 43.3698 114.869C43.5339 114.705 43.6262 114.482 43.6262 114.25C43.6262 114.018 43.5339 113.795 43.3698 113.631L41.3627 111.625H56.7507C56.9828 111.625 57.2053 111.533 57.3694 111.369C57.5335 111.205 57.6257 110.982 57.6257 110.75C57.6257 110.518 57.5335 110.295 57.3694 110.131C57.2053 109.967 56.9828 109.875 56.7507 109.875H41.3627L43.3698 107.869C43.5339 107.705 43.6262 107.482 43.6262 107.25C43.6262 107.018 43.5339 106.795 43.3698 106.631C43.2056 106.467 42.9829 106.375 42.7507 106.375C42.5185 106.375 42.2958 106.467 42.1316 106.631L38.6316 110.131C38.5503 110.212 38.4857 110.309 38.4417 110.415C38.3977 110.521 38.375 110.635 38.375 110.75C38.375 110.865 38.3977 110.979 38.4417 111.085C38.4857 111.191 38.5503 111.288 38.6316 111.369L42.1316 114.869Z" fill="#E45440"/>
</g>
<defs>
<linearGradient id="paint0_linear_455_6650" x1="174.809" y1="350.875" x2="174.809" y2="658.506" gradientUnits="userSpaceOnUse">
<stop stop-color="#F8F7F4"/>
<stop offset="0.2" stop-color="#F6F3EC"/>
<stop offset="0.57" stop-color="#EDEAE0"/>
<stop offset="0.8" stop-color="#EDEAE0"/>
</linearGradient>
<linearGradient id="paint1_linear_455_6650" x1="174.144" y1="358.219" x2="174.144" y2="674.125" gradientUnits="userSpaceOnUse">
<stop stop-color="#F8F7F4"/>
<stop offset="0.2" stop-color="#F6F3EC"/>
<stop offset="0.57" stop-color="#EDEAE0"/>
<stop offset="0.8" stop-color="#EDEAE0"/>
</linearGradient>
<linearGradient id="paint2_linear_455_6650" x1="186.27" y1="357.572" x2="186.27" y2="673.478" gradientUnits="userSpaceOnUse">
<stop stop-color="#F8F7F4"/>
<stop offset="0.2" stop-color="#F6F3EC"/>
<stop offset="0.57" stop-color="#EDEAE0"/>
<stop offset="0.8" stop-color="#EDEAE0"/>
</linearGradient>
<linearGradient id="paint3_linear_455_6650" x1="179.501" y1="432.22" x2="179.501" y2="592.785" gradientUnits="userSpaceOnUse">
<stop stop-color="#F8F7F4"/>
<stop offset="0.2" stop-color="#F6F3EC"/>
<stop offset="0.57" stop-color="#EDEAE0"/>
<stop offset="0.8" stop-color="#EDEAE0"/>
</linearGradient>
<linearGradient id="paint4_linear_455_6650" x1="179.497" y1="437.033" x2="179.497" y2="587.971" gradientUnits="userSpaceOnUse">
<stop stop-color="#F8F7F4"/>
<stop offset="0.2" stop-color="#F6F3EC"/>
<stop offset="0.57" stop-color="#EDEAE0"/>
<stop offset="0.8" stop-color="#EDEAE0"/>
</linearGradient>
<linearGradient id="paint5_linear_455_6650" x1="179.507" y1="306.175" x2="179.507" y2="718.831" gradientUnits="userSpaceOnUse">
<stop stop-color="#F8F7F4"/>
<stop offset="0.2" stop-color="#F6F3EC"/>
<stop offset="0.57" stop-color="#EDEAE0"/>
<stop offset="0.8" stop-color="#EDEAE0"/>
</linearGradient>
<clipPath id="clip0_455_6650">
<rect width="360" height="540" rx="16" fill="white"/>
</clipPath>
<clipPath id="clip1_455_6650">
<rect width="417" height="417" fill="white" transform="translate(-29 304)"/>
</clipPath>
</defs>
</svg>
