<svg width="360" height="540" viewBox="0 0 360 540" fill="none" xmlns="http://www.w3.org/2000/svg">
<g clip-path="url(#clip0_455_6650)">
<rect width="360" height="540" rx="12" fill="#F8F7F4"/>
<g clip-path="url(#clip1_455_6650)">
<g opacity="0.8">
<path d="M231.498 386.113C240.703 404.772 258.504 417.701 279.091 420.69C330.941 428.224 351.639 491.94 314.122 528.513C299.223 543.033 292.423 563.961 295.941 584.466C304.798 636.105 250.598 675.488 204.223 651.104C185.806 641.42 163.809 641.42 145.393 651.104C99.0177 675.488 44.8175 636.105 53.6747 584.466C57.1928 563.961 50.3929 543.039 35.494 528.513C-2.02346 491.94 18.6808 428.224 70.5253 420.69C91.1114 417.701 108.913 404.766 118.118 386.113C141.309 339.129 208.301 339.129 231.491 386.113H231.498Z" stroke="url(#paint0_linear_455_6650)" stroke-width="4.35094" stroke-miterlimit="10"/>
<path d="M180.211 372.923C196.21 386.225 217.728 390.799 237.755 385.155C288.188 370.947 333.016 420.74 313.617 469.408C305.915 488.733 308.215 510.618 319.764 527.916C348.859 571.487 315.363 629.51 263.077 626.098C242.317 624.743 222.216 633.693 209.331 650.028C176.879 691.163 111.348 677.234 98.4379 626.458C93.31 606.295 78.5914 589.948 59.0744 582.738C9.92741 564.588 2.92241 497.957 47.2212 469.986C64.8114 458.879 75.813 439.828 76.6397 419.037C78.7157 366.683 139.915 339.433 180.211 372.923V372.923Z" stroke="url(#paint1_linear_455_6650)" stroke-width="4.35094" stroke-miterlimit="10"/>
<path d="M122.657 384.508C142.684 390.152 164.202 385.578 180.202 372.276C220.491 338.786 281.696 366.036 283.772 418.39C284.593 439.181 295.595 458.232 313.191 469.339C357.49 497.31 350.491 563.941 301.338 582.091C281.821 589.301 267.102 605.648 261.974 625.811C249.064 676.587 183.527 690.516 151.081 649.381C138.196 633.046 118.095 624.096 97.3348 625.451C45.0552 628.863 11.553 570.84 40.6483 527.269C52.2032 509.965 54.5029 488.086 46.7956 468.761C27.3966 420.093 72.2237 370.306 122.657 384.508V384.508Z" stroke="url(#paint2_linear_455_6650)" stroke-width="4.35094" stroke-miterlimit="10"/>
</g>
<g opacity="0.8">
<path d="M195.003 443.161C198.272 452.347 208.764 456.692 217.572 452.509C231.557 445.865 246.145 460.453 239.495 474.432C235.311 483.239 239.656 493.731 248.843 497.001C263.431 502.191 263.431 522.82 248.843 528.004C239.656 531.273 235.311 541.765 239.495 550.573C246.139 564.558 231.551 579.146 217.572 572.495C208.764 568.312 198.272 572.657 195.003 581.844C189.813 596.432 169.183 596.432 164 581.844C160.73 572.657 150.238 568.312 141.431 572.495C127.445 579.14 112.857 564.552 119.508 550.573C123.691 541.765 119.346 531.273 110.16 528.004C95.5717 522.814 95.5717 502.184 110.16 497.001C119.346 493.731 123.691 483.239 119.508 474.432C112.864 460.446 127.452 445.858 141.431 452.509C150.238 456.692 160.73 452.347 164 443.161C169.19 428.573 189.819 428.573 195.003 443.161Z" stroke="url(#paint3_linear_455_6650)" stroke-width="4.35094" stroke-miterlimit="10"/>
<path d="M167.283 442.502C173.815 449.737 185.178 449.737 191.71 442.502C202.084 431.009 221.147 438.903 220.358 454.367C219.861 464.107 227.891 472.138 237.631 471.64C253.096 470.851 260.99 489.908 249.497 500.288C242.262 506.821 242.262 518.183 249.497 524.716C260.99 535.089 253.096 554.153 237.631 553.363C227.891 552.866 219.861 560.897 220.358 570.637C221.147 586.101 202.09 593.995 191.71 582.502C185.178 575.267 173.815 575.267 167.283 582.502C156.909 593.995 137.846 586.101 138.635 570.637C139.132 560.897 131.102 552.866 121.362 553.363C105.897 554.153 98.0035 535.096 109.496 524.716C116.731 518.183 116.731 506.821 109.496 500.288C98.0035 489.914 105.897 470.851 121.362 471.64C131.102 472.138 139.132 464.107 138.635 454.367C137.846 438.903 156.903 431.009 167.283 442.502V442.502Z" stroke="url(#paint4_linear_455_6650)" stroke-width="4.35094" stroke-miterlimit="10"/>
</g>
<path opacity="0.8" d="M179.507 718.831C293.459 718.831 385.835 626.455 385.835 512.503C385.835 398.551 293.459 306.175 179.507 306.175C65.5557 306.175 -26.8203 398.551 -26.8203 512.503C-26.8203 626.455 65.5557 718.831 179.507 718.831Z" stroke="url(#paint5_linear_455_6650)" stroke-width="4.35094" stroke-miterlimit="10"/>
</g>
<path d="M32.2441 200H27.2129V197.307H32.0664C33.6159 197.307 34.9056 197.02 35.9355 196.445C36.9655 195.862 37.7357 195.01 38.2461 193.889C38.7565 192.758 39.0117 191.391 39.0117 189.787C39.0117 188.192 38.7565 186.839 38.2461 185.727C37.7448 184.615 36.9928 183.771 35.9902 183.197C34.9876 182.614 33.7435 182.322 32.2578 182.322H27.1035V179.629H32.4492C34.4453 179.629 36.1589 180.035 37.5898 180.846C39.0208 181.657 40.1191 182.824 40.8848 184.346C41.6504 185.859 42.0332 187.673 42.0332 189.787C42.0332 191.911 41.6458 193.734 40.8711 195.256C40.1055 196.778 38.9935 197.949 37.5352 198.77C36.0768 199.59 34.3132 200 32.2441 200ZM28.7168 179.629V200H25.6406V179.629H28.7168ZM51.0293 200.314C49.5345 200.314 48.2402 199.991 47.1465 199.344C46.0527 198.697 45.2096 197.785 44.6172 196.609C44.0339 195.424 43.7422 194.044 43.7422 192.467C43.7422 190.899 44.0293 189.518 44.6035 188.324C45.1868 187.13 46.0026 186.201 47.0508 185.535C48.1081 184.861 49.3477 184.523 50.7695 184.523C51.6354 184.523 52.474 184.665 53.2852 184.947C54.0964 185.23 54.8255 185.676 55.4727 186.287C56.1198 186.898 56.6302 187.691 57.0039 188.666C57.3867 189.641 57.5781 190.817 57.5781 192.193V193.26H45.4238V191.031H56.0469L54.666 191.77C54.666 190.831 54.5202 190.001 54.2285 189.281C53.9368 188.561 53.4993 188.001 52.916 187.6C52.3418 187.189 51.6263 186.984 50.7695 186.984C49.9128 186.984 49.179 187.189 48.5684 187.6C47.9668 188.01 47.5065 188.552 47.1875 189.227C46.8685 189.901 46.709 190.639 46.709 191.441V192.959C46.709 194.007 46.8913 194.896 47.2559 195.625C47.6204 196.354 48.1263 196.91 48.7734 197.293C49.4297 197.676 50.1908 197.867 51.0566 197.867C51.6217 197.867 52.1322 197.785 52.5879 197.621C53.0527 197.457 53.4538 197.211 53.791 196.883C54.1283 196.555 54.3835 196.149 54.5566 195.666L57.373 196.199C57.1452 197.02 56.7441 197.74 56.1699 198.359C55.5957 198.979 54.8711 199.462 53.9961 199.809C53.1302 200.146 52.1413 200.314 51.0293 200.314ZM71.0859 188.461L68.3926 188.926C68.2194 188.415 67.8958 187.946 67.4219 187.518C66.957 187.089 66.2598 186.875 65.3301 186.875C64.4915 186.875 63.7897 187.066 63.2246 187.449C62.6686 187.823 62.3906 188.301 62.3906 188.885C62.3906 189.395 62.5775 189.81 62.9512 190.129C63.334 190.448 63.9401 190.703 64.7695 190.895L67.2168 191.441C68.6113 191.76 69.6549 192.262 70.3477 192.945C71.0404 193.629 71.3867 194.504 71.3867 195.57C71.3867 196.491 71.1224 197.311 70.5938 198.031C70.0651 198.742 69.3314 199.303 68.3926 199.713C67.4538 200.114 66.3691 200.314 65.1387 200.314C63.4251 200.314 62.0306 199.945 60.9551 199.207C59.8796 198.469 59.2188 197.43 58.9727 196.09L61.8301 195.652C62.0124 196.4 62.3815 196.965 62.9375 197.348C63.5026 197.73 64.2318 197.922 65.125 197.922C66.0911 197.922 66.8659 197.717 67.4492 197.307C68.0417 196.896 68.3379 196.4 68.3379 195.816C68.3379 194.85 67.6178 194.199 66.1777 193.861L63.5938 193.287C62.1628 192.959 61.1055 192.444 60.4219 191.742C59.7474 191.031 59.4102 190.138 59.4102 189.062C59.4102 188.16 59.6608 187.367 60.1621 186.684C60.6725 186 61.3698 185.471 62.2539 185.098C63.1471 184.715 64.1634 184.523 65.3027 184.523C66.9616 184.523 68.2604 184.883 69.1992 185.604C70.1471 186.324 70.776 187.276 71.0859 188.461ZM73.4648 200V184.715H76.418V200H73.4648ZM74.9551 182.363C74.4355 182.363 73.9935 182.19 73.6289 181.844C73.2643 181.497 73.082 181.083 73.082 180.6C73.082 180.107 73.2643 179.688 73.6289 179.342C73.9935 178.995 74.4355 178.822 74.9551 178.822C75.4655 178.822 75.903 178.995 76.2676 179.342C76.6413 179.688 76.8281 180.107 76.8281 180.6C76.8281 181.083 76.6413 181.497 76.2676 181.844C75.903 182.19 75.4655 182.363 74.9551 182.363ZM85.6328 206.043C83.8099 206.043 82.3743 205.701 81.3262 205.018C80.278 204.334 79.5534 203.523 79.1523 202.584L81.6953 201.531C81.8776 201.823 82.1191 202.133 82.4199 202.461C82.7298 202.789 83.1445 203.067 83.6641 203.295C84.1836 203.523 84.8535 203.637 85.6738 203.637C86.7949 203.637 87.7246 203.363 88.4629 202.816C89.2012 202.279 89.5703 201.413 89.5703 200.219V197.225H89.3652C89.2012 197.544 88.9505 197.904 88.6133 198.305C88.276 198.697 87.8158 199.038 87.2324 199.33C86.6491 199.622 85.888 199.768 84.9492 199.768C83.7461 199.768 82.6615 199.485 81.6953 198.92C80.7383 198.346 79.9727 197.507 79.3984 196.404C78.8333 195.292 78.5508 193.925 78.5508 192.303C78.5508 190.68 78.8288 189.29 79.3848 188.133C79.9499 186.966 80.7155 186.073 81.6816 185.453C82.6478 184.833 83.7461 184.523 84.9766 184.523C85.9245 184.523 86.6901 184.683 87.2734 185.002C87.8659 185.312 88.3262 185.676 88.6543 186.096C88.9824 186.515 89.2376 186.884 89.4199 187.203H89.6387V184.715H92.5234V200.342C92.5234 201.654 92.2181 202.73 91.6074 203.568C91.0059 204.407 90.1855 205.027 89.1465 205.428C88.1074 205.838 86.9362 206.043 85.6328 206.043ZM85.6055 197.293C86.8906 197.293 87.875 196.851 88.5586 195.967C89.2513 195.074 89.5977 193.839 89.5977 192.262C89.5977 191.232 89.4473 190.329 89.1465 189.555C88.8457 188.771 88.3991 188.16 87.8066 187.723C87.2142 187.276 86.4805 187.053 85.6055 187.053C84.7122 187.053 83.9648 187.285 83.3633 187.75C82.7708 188.206 82.3242 188.83 82.0234 189.623C81.7227 190.407 81.5723 191.286 81.5723 192.262C81.5723 193.255 81.7227 194.135 82.0234 194.9C82.3242 195.657 82.7754 196.245 83.377 196.664C83.9876 197.083 84.7305 197.293 85.6055 197.293ZM98.3203 190.936V200H95.3672V184.715H98.2383V187.23H98.4434C98.7897 186.401 99.332 185.745 100.07 185.262C100.809 184.77 101.757 184.523 102.914 184.523C103.953 184.523 104.86 184.742 105.635 185.18C106.419 185.608 107.025 186.251 107.453 187.107C107.891 187.964 108.109 189.026 108.109 190.293V200H105.156V190.648C105.156 189.546 104.865 188.68 104.281 188.051C103.698 187.413 102.905 187.094 101.902 187.094C101.219 187.094 100.604 187.249 100.057 187.559C99.5189 187.859 99.0951 188.292 98.7852 188.857C98.4753 189.423 98.3203 190.115 98.3203 190.936ZM117.529 200.314C116.035 200.314 114.74 199.991 113.646 199.344C112.553 198.697 111.71 197.785 111.117 196.609C110.534 195.424 110.242 194.044 110.242 192.467C110.242 190.899 110.529 189.518 111.104 188.324C111.687 187.13 112.503 186.201 113.551 185.535C114.608 184.861 115.848 184.523 117.27 184.523C118.135 184.523 118.974 184.665 119.785 184.947C120.596 185.23 121.326 185.676 121.973 186.287C122.62 186.898 123.13 187.691 123.504 188.666C123.887 189.641 124.078 190.817 124.078 192.193V193.26H111.924V191.031H122.547L121.166 191.77C121.166 190.831 121.02 190.001 120.729 189.281C120.437 188.561 119.999 188.001 119.416 187.6C118.842 187.189 118.126 186.984 117.27 186.984C116.413 186.984 115.679 187.189 115.068 187.6C114.467 188.01 114.007 188.552 113.688 189.227C113.368 189.901 113.209 190.639 113.209 191.441V192.959C113.209 194.007 113.391 194.896 113.756 195.625C114.12 196.354 114.626 196.91 115.273 197.293C115.93 197.676 116.691 197.867 117.557 197.867C118.122 197.867 118.632 197.785 119.088 197.621C119.553 197.457 119.954 197.211 120.291 196.883C120.628 196.555 120.883 196.149 121.057 195.666L123.873 196.199C123.645 197.02 123.244 197.74 122.67 198.359C122.096 198.979 121.371 199.462 120.496 199.809C119.63 200.146 118.641 200.314 117.529 200.314ZM131.844 200.301C130.604 200.301 129.501 199.986 128.535 199.357C127.569 198.719 126.812 197.812 126.266 196.637C125.719 195.452 125.445 194.039 125.445 192.398C125.445 190.74 125.723 189.322 126.279 188.146C126.835 186.971 127.596 186.073 128.562 185.453C129.529 184.833 130.622 184.523 131.844 184.523C132.801 184.523 133.566 184.683 134.141 185.002C134.724 185.312 135.175 185.676 135.494 186.096C135.822 186.515 136.073 186.884 136.246 187.203H136.424V179.629H139.377V200H136.492V197.621H136.246C136.073 197.94 135.818 198.309 135.48 198.729C135.143 199.148 134.683 199.517 134.1 199.836C133.525 200.146 132.773 200.301 131.844 200.301ZM132.486 197.771C133.343 197.771 134.068 197.544 134.66 197.088C135.253 196.632 135.699 195.999 136 195.188C136.31 194.376 136.465 193.438 136.465 192.371C136.465 191.305 136.314 190.375 136.014 189.582C135.713 188.78 135.266 188.16 134.674 187.723C134.081 187.276 133.352 187.053 132.486 187.053C131.593 187.053 130.85 187.285 130.258 187.75C129.665 188.215 129.219 188.848 128.918 189.65C128.617 190.452 128.467 191.359 128.467 192.371C128.467 193.392 128.617 194.312 128.918 195.133C129.219 195.944 129.665 196.587 130.258 197.061C130.859 197.535 131.602 197.771 132.486 197.771ZM29.8516 236.328C28.8854 236.328 28.0104 236.15 27.2266 235.795C26.4427 235.43 25.8229 234.902 25.3672 234.209C24.9115 233.516 24.6836 232.673 24.6836 231.68C24.6836 230.814 24.8477 230.107 25.1758 229.561C25.513 229.005 25.9642 228.562 26.5293 228.234C27.0944 227.906 27.7233 227.66 28.416 227.496C29.1087 227.332 29.8197 227.204 30.5488 227.113C31.4694 227.013 32.2122 226.926 32.7773 226.854C33.3424 226.781 33.7526 226.667 34.0078 226.512C34.2721 226.348 34.4043 226.088 34.4043 225.732V225.664C34.4043 224.798 34.1582 224.128 33.666 223.654C33.1829 223.18 32.4629 222.943 31.5059 222.943C30.5124 222.943 29.724 223.162 29.1406 223.6C28.5664 224.028 28.1699 224.516 27.9512 225.062L25.1484 224.42C25.4857 223.49 25.9733 222.743 26.6113 222.178C27.2585 221.604 27.9967 221.184 28.8262 220.92C29.6647 220.656 30.5397 220.523 31.4512 220.523C32.0618 220.523 32.709 220.596 33.3926 220.742C34.0762 220.879 34.7188 221.139 35.3203 221.521C35.931 221.895 36.4277 222.433 36.8105 223.135C37.1934 223.837 37.3848 224.743 37.3848 225.855V236H34.4727V233.908H34.3633C34.181 234.282 33.8939 234.656 33.502 235.029C33.1191 235.403 32.627 235.713 32.0254 235.959C31.4238 236.205 30.6992 236.328 29.8516 236.328ZM30.4941 233.949C31.3236 233.949 32.0299 233.79 32.6133 233.471C33.1966 233.143 33.6432 232.714 33.9531 232.186C34.263 231.657 34.418 231.096 34.418 230.504V228.521C34.3086 228.622 34.1035 228.717 33.8027 228.809C33.502 228.9 33.1602 228.977 32.7773 229.041C32.3945 229.105 32.0208 229.164 31.6562 229.219C31.2917 229.264 30.9863 229.301 30.7402 229.328C30.166 229.41 29.6419 229.538 29.168 229.711C28.694 229.875 28.3112 230.121 28.0195 230.449C27.737 230.768 27.5957 231.192 27.5957 231.721C27.5957 232.459 27.8691 233.015 28.416 233.389C28.9629 233.762 29.6556 233.949 30.4941 233.949ZM43.1953 226.936V236H40.2422V220.715H43.1133V223.23H43.3184C43.6647 222.401 44.207 221.745 44.9453 221.262C45.6836 220.77 46.6315 220.523 47.7891 220.523C48.8281 220.523 49.735 220.742 50.5098 221.18C51.2936 221.608 51.8997 222.251 52.3281 223.107C52.7656 223.964 52.9844 225.026 52.9844 226.293V236H50.0312V226.648C50.0312 225.546 49.7396 224.68 49.1562 224.051C48.5729 223.413 47.7799 223.094 46.7773 223.094C46.0938 223.094 45.4785 223.249 44.9316 223.559C44.3939 223.859 43.9701 224.292 43.6602 224.857C43.3503 225.423 43.1953 226.115 43.1953 226.936ZM61.5156 236.301C60.276 236.301 59.1732 235.986 58.207 235.357C57.2409 234.719 56.4844 233.812 55.9375 232.637C55.3906 231.452 55.1172 230.039 55.1172 228.398C55.1172 226.74 55.3952 225.322 55.9512 224.146C56.5072 222.971 57.2682 222.073 58.2344 221.453C59.2005 220.833 60.2943 220.523 61.5156 220.523C62.4727 220.523 63.2383 220.683 63.8125 221.002C64.3958 221.312 64.847 221.676 65.166 222.096C65.4941 222.515 65.7448 222.884 65.918 223.203H66.0957V215.629H69.0488V236H66.1641V233.621H65.918C65.7448 233.94 65.4896 234.309 65.1523 234.729C64.8151 235.148 64.3548 235.517 63.7715 235.836C63.1973 236.146 62.4453 236.301 61.5156 236.301ZM62.1582 233.771C63.015 233.771 63.7396 233.544 64.332 233.088C64.9245 232.632 65.3711 231.999 65.6719 231.188C65.9818 230.376 66.1367 229.438 66.1367 228.371C66.1367 227.305 65.9863 226.375 65.6855 225.582C65.3848 224.78 64.9382 224.16 64.3457 223.723C63.7533 223.276 63.0241 223.053 62.1582 223.053C61.265 223.053 60.5221 223.285 59.9297 223.75C59.3372 224.215 58.8906 224.848 58.5898 225.65C58.2891 226.452 58.1387 227.359 58.1387 228.371C58.1387 229.392 58.2891 230.312 58.5898 231.133C58.8906 231.944 59.3372 232.587 59.9297 233.061C60.5312 233.535 61.2741 233.771 62.1582 233.771ZM141.879 256.715V259.107H133.252V256.715H141.879ZM135.604 272V254.938C135.604 253.99 135.813 253.201 136.232 252.572C136.661 251.934 137.217 251.46 137.9 251.15C138.593 250.831 139.336 250.672 140.129 250.672C140.74 250.672 141.259 250.722 141.688 250.822C142.116 250.923 142.43 251.009 142.631 251.082L141.92 253.488C141.783 253.443 141.605 253.393 141.387 253.338C141.177 253.283 140.913 253.256 140.594 253.256C139.874 253.256 139.354 253.438 139.035 253.803C138.716 254.158 138.557 254.678 138.557 255.361V272H135.604ZM149.576 272.314C148.145 272.314 146.892 271.986 145.816 271.33C144.75 270.674 143.921 269.753 143.328 268.568C142.745 267.383 142.453 266.007 142.453 264.439C142.453 262.854 142.745 261.468 143.328 260.283C143.921 259.089 144.75 258.164 145.816 257.508C146.892 256.852 148.145 256.523 149.576 256.523C151.016 256.523 152.27 256.852 153.336 257.508C154.402 258.164 155.232 259.089 155.824 260.283C156.417 261.468 156.713 262.854 156.713 264.439C156.713 266.007 156.417 267.383 155.824 268.568C155.232 269.753 154.402 270.674 153.336 271.33C152.27 271.986 151.016 272.314 149.576 272.314ZM149.576 269.812C150.515 269.812 151.29 269.566 151.9 269.074C152.511 268.582 152.962 267.93 153.254 267.119C153.555 266.299 153.705 265.406 153.705 264.439C153.705 263.455 153.555 262.553 153.254 261.732C152.962 260.912 152.511 260.256 151.9 259.764C151.29 259.271 150.515 259.025 149.576 259.025C148.646 259.025 147.876 259.271 147.266 259.764C146.664 260.256 146.213 260.912 145.912 261.732C145.611 262.553 145.461 263.455 145.461 264.439C145.461 265.406 145.611 266.299 145.912 267.119C146.213 267.93 146.664 268.582 147.266 269.074C147.876 269.566 148.646 269.812 149.576 269.812ZM158.859 272V256.715H161.717V259.162H161.881C162.163 258.342 162.656 257.695 163.357 257.221C164.068 256.738 164.87 256.496 165.764 256.496C165.946 256.496 166.16 256.505 166.406 256.523C166.661 256.533 166.867 256.546 167.021 256.564V259.408C166.903 259.372 166.689 259.335 166.379 259.299C166.078 259.262 165.773 259.244 165.463 259.244C164.761 259.244 164.132 259.395 163.576 259.695C163.029 259.987 162.596 260.393 162.277 260.912C161.967 261.423 161.812 262.015 161.812 262.689V272H158.859ZM174.91 251.629H178.656L185.137 267.461H185.369L191.863 251.629H195.664V272H192.656V257.262H192.465L186.436 271.973H184.002L178.041 257.248H177.85V272H174.91V251.629ZM205.139 272.314C203.708 272.314 202.454 271.986 201.379 271.33C200.312 270.674 199.483 269.753 198.891 268.568C198.307 267.383 198.016 266.007 198.016 264.439C198.016 262.854 198.307 261.468 198.891 260.283C199.483 259.089 200.312 258.164 201.379 257.508C202.454 256.852 203.708 256.523 205.139 256.523C206.579 256.523 207.832 256.852 208.898 257.508C209.965 258.164 210.794 259.089 211.387 260.283C211.979 261.468 212.275 262.854 212.275 264.439C212.275 266.007 211.979 267.383 211.387 268.568C210.794 269.753 209.965 270.674 208.898 271.33C207.832 271.986 206.579 272.314 205.139 272.314ZM205.139 269.812C206.077 269.812 206.852 269.566 207.463 269.074C208.074 268.582 208.525 267.93 208.816 267.119C209.117 266.299 209.268 265.406 209.268 264.439C209.268 263.455 209.117 262.553 208.816 261.732C208.525 260.912 208.074 260.256 207.463 259.764C206.852 259.271 206.077 259.025 205.139 259.025C204.209 259.025 203.439 259.271 202.828 259.764C202.227 260.256 201.775 260.912 201.475 261.732C201.174 262.553 201.023 263.455 201.023 264.439C201.023 265.406 201.174 266.299 201.475 267.119C201.775 267.93 202.227 268.582 202.828 269.074C203.439 269.566 204.209 269.812 205.139 269.812ZM221.955 272.301C221.035 272.301 220.278 272.146 219.686 271.836C219.102 271.517 218.642 271.148 218.305 270.729C217.977 270.309 217.721 269.94 217.539 269.621H217.293V272H214.422V251.629H217.375V259.203H217.539C217.721 258.884 217.972 258.515 218.291 258.096C218.619 257.676 219.075 257.312 219.658 257.002C220.242 256.683 221.003 256.523 221.941 256.523C223.172 256.523 224.266 256.833 225.223 257.453C226.189 258.073 226.95 258.971 227.506 260.146C228.062 261.322 228.34 262.74 228.34 264.398C228.34 266.039 228.066 267.452 227.52 268.637C226.973 269.812 226.216 270.719 225.25 271.357C224.293 271.986 223.195 272.301 221.955 272.301ZM221.312 269.771C222.197 269.771 222.935 269.535 223.527 269.061C224.12 268.587 224.566 267.944 224.867 267.133C225.177 266.312 225.332 265.392 225.332 264.371C225.332 263.359 225.182 262.452 224.881 261.65C224.58 260.848 224.133 260.215 223.541 259.75C222.949 259.285 222.206 259.053 221.312 259.053C220.447 259.053 219.717 259.276 219.125 259.723C218.533 260.16 218.081 260.78 217.771 261.582C217.471 262.375 217.32 263.305 217.32 264.371C217.32 265.438 217.475 266.376 217.785 267.188C218.095 267.999 218.546 268.632 219.139 269.088C219.74 269.544 220.465 269.771 221.312 269.771ZM230.5 272V256.715H233.453V272H230.5ZM231.99 254.363C231.471 254.363 231.029 254.19 230.664 253.844C230.299 253.497 230.117 253.083 230.117 252.6C230.117 252.107 230.299 251.688 230.664 251.342C231.029 250.995 231.471 250.822 231.99 250.822C232.501 250.822 232.938 250.995 233.303 251.342C233.676 251.688 233.863 252.107 233.863 252.6C233.863 253.083 233.676 253.497 233.303 253.844C232.938 254.19 232.501 254.363 231.99 254.363ZM239.25 251.629V272H236.297V251.629H239.25ZM248.67 272.314C247.175 272.314 245.881 271.991 244.787 271.344C243.693 270.697 242.85 269.785 242.258 268.609C241.674 267.424 241.383 266.044 241.383 264.467C241.383 262.899 241.67 261.518 242.244 260.324C242.827 259.13 243.643 258.201 244.691 257.535C245.749 256.861 246.988 256.523 248.41 256.523C249.276 256.523 250.115 256.665 250.926 256.947C251.737 257.23 252.466 257.676 253.113 258.287C253.76 258.898 254.271 259.691 254.645 260.666C255.027 261.641 255.219 262.817 255.219 264.193V265.26H243.064V263.031H253.688L252.307 263.77C252.307 262.831 252.161 262.001 251.869 261.281C251.577 260.561 251.14 260.001 250.557 259.6C249.982 259.189 249.267 258.984 248.41 258.984C247.553 258.984 246.82 259.189 246.209 259.6C245.607 260.01 245.147 260.552 244.828 261.227C244.509 261.901 244.35 262.639 244.35 263.441V264.959C244.35 266.007 244.532 266.896 244.896 267.625C245.261 268.354 245.767 268.91 246.414 269.293C247.07 269.676 247.831 269.867 248.697 269.867C249.262 269.867 249.773 269.785 250.229 269.621C250.693 269.457 251.094 269.211 251.432 268.883C251.769 268.555 252.024 268.149 252.197 267.666L255.014 268.199C254.786 269.02 254.385 269.74 253.811 270.359C253.236 270.979 252.512 271.462 251.637 271.809C250.771 272.146 249.782 272.314 248.67 272.314ZM269.424 272.287C268.066 272.287 266.89 272.041 265.896 271.549C264.912 271.048 264.151 270.368 263.613 269.512C263.085 268.655 262.82 267.68 262.82 266.586C262.82 265.757 262.998 265.027 263.354 264.398C263.718 263.76 264.21 263.168 264.83 262.621C265.45 262.074 266.152 261.509 266.936 260.926L270.23 258.602C270.768 258.219 271.192 257.831 271.502 257.439C271.821 257.048 271.98 256.546 271.98 255.936C271.98 255.462 271.775 255.006 271.365 254.568C270.955 254.122 270.404 253.898 269.711 253.898C269.237 253.898 268.818 254.017 268.453 254.254C268.098 254.482 267.815 254.778 267.605 255.143C267.405 255.498 267.305 255.876 267.305 256.277C267.305 256.733 267.432 257.202 267.688 257.686C267.952 258.16 268.285 258.647 268.686 259.148C269.096 259.641 269.524 260.16 269.971 260.707L279.418 272H276.055L268.234 262.812C267.578 262.029 266.967 261.295 266.402 260.611C265.837 259.919 265.382 259.221 265.035 258.52C264.689 257.818 264.516 257.057 264.516 256.236C264.516 255.298 264.73 254.468 265.158 253.748C265.587 253.019 266.184 252.449 266.949 252.039C267.724 251.62 268.622 251.41 269.643 251.41C270.7 251.41 271.602 251.615 272.35 252.025C273.106 252.436 273.689 252.978 274.1 253.652C274.51 254.327 274.715 255.065 274.715 255.867C274.715 256.824 274.473 257.672 273.99 258.41C273.507 259.139 272.846 259.814 272.008 260.434L267.906 263.455C267.113 264.038 266.562 264.617 266.252 265.191C265.951 265.757 265.801 266.194 265.801 266.504C265.801 267.096 265.951 267.643 266.252 268.145C266.553 268.637 266.977 269.033 267.523 269.334C268.07 269.635 268.713 269.785 269.451 269.785C270.199 269.785 270.932 269.621 271.652 269.293C272.372 268.956 273.024 268.482 273.607 267.871C274.191 267.251 274.656 266.508 275.002 265.643C275.357 264.777 275.535 263.811 275.535 262.744H278.215C278.215 264.057 278.064 265.169 277.764 266.08C277.472 266.982 277.112 267.716 276.684 268.281C276.264 268.846 275.872 269.288 275.508 269.607C275.389 269.717 275.275 269.826 275.166 269.936C275.057 270.036 274.943 270.141 274.824 270.25C274.132 270.943 273.293 271.458 272.309 271.795C271.333 272.123 270.372 272.287 269.424 272.287ZM29.6875 308L24.0547 287.629H27.2812L31.2461 303.406H31.4375L35.5664 287.629H38.7656L42.8809 303.42H43.0859L47.0371 287.629H50.291L44.6172 308H41.5273L37.248 292.756H37.084L32.8047 308H29.6875ZM56.9082 308.314C55.4134 308.314 54.1191 307.991 53.0254 307.344C51.9316 306.697 51.0885 305.785 50.4961 304.609C49.9128 303.424 49.6211 302.044 49.6211 300.467C49.6211 298.899 49.9082 297.518 50.4824 296.324C51.0658 295.13 51.8815 294.201 52.9297 293.535C53.987 292.861 55.2266 292.523 56.6484 292.523C57.5143 292.523 58.3529 292.665 59.1641 292.947C59.9753 293.23 60.7044 293.676 61.3516 294.287C61.9987 294.898 62.5091 295.691 62.8828 296.666C63.2656 297.641 63.457 298.817 63.457 300.193V301.26H51.3027V299.031H61.9258L60.5449 299.77C60.5449 298.831 60.3991 298.001 60.1074 297.281C59.8158 296.561 59.3783 296.001 58.7949 295.6C58.2207 295.189 57.5052 294.984 56.6484 294.984C55.7917 294.984 55.0579 295.189 54.4473 295.6C53.8457 296.01 53.3854 296.552 53.0664 297.227C52.7474 297.901 52.5879 298.639 52.5879 299.441V300.959C52.5879 302.007 52.7702 302.896 53.1348 303.625C53.4993 304.354 54.0052 304.91 54.6523 305.293C55.3086 305.676 56.0697 305.867 56.9355 305.867C57.5007 305.867 58.0111 305.785 58.4668 305.621C58.9316 305.457 59.3327 305.211 59.6699 304.883C60.0072 304.555 60.2624 304.149 60.4355 303.666L63.252 304.199C63.0241 305.02 62.623 305.74 62.0488 306.359C61.4746 306.979 60.75 307.462 59.875 307.809C59.0091 308.146 58.0202 308.314 56.9082 308.314ZM73.0684 308.301C72.1478 308.301 71.3913 308.146 70.7988 307.836C70.2155 307.517 69.7552 307.148 69.418 306.729C69.0898 306.309 68.8346 305.94 68.6523 305.621H68.4062V308H65.5352V287.629H68.4883V295.203H68.6523C68.8346 294.884 69.0853 294.515 69.4043 294.096C69.7324 293.676 70.1882 293.312 70.7715 293.002C71.3548 292.683 72.1159 292.523 73.0547 292.523C74.2852 292.523 75.3789 292.833 76.3359 293.453C77.3021 294.073 78.0632 294.971 78.6191 296.146C79.1751 297.322 79.4531 298.74 79.4531 300.398C79.4531 302.039 79.1797 303.452 78.6328 304.637C78.0859 305.812 77.3294 306.719 76.3633 307.357C75.4062 307.986 74.3079 308.301 73.0684 308.301ZM72.4258 305.771C73.3099 305.771 74.0482 305.535 74.6406 305.061C75.2331 304.587 75.6797 303.944 75.9805 303.133C76.2904 302.312 76.4453 301.392 76.4453 300.371C76.4453 299.359 76.2949 298.452 75.9941 297.65C75.6934 296.848 75.2467 296.215 74.6543 295.75C74.0618 295.285 73.319 295.053 72.4258 295.053C71.5599 295.053 70.8307 295.276 70.2383 295.723C69.6458 296.16 69.1947 296.78 68.8848 297.582C68.584 298.375 68.4336 299.305 68.4336 300.371C68.4336 301.438 68.5885 302.376 68.8984 303.188C69.2083 303.999 69.6595 304.632 70.252 305.088C70.8535 305.544 71.5781 305.771 72.4258 305.771Z" fill="#424242"/>
<path d="M148.523 179.629H153.049L159.092 194.381H159.324L165.381 179.629H169.961V200H166.338V186H166.174L160.514 199.932H157.861L152.27 185.973H152.078V200H148.523V179.629ZM177.166 200.314C176.191 200.314 175.316 200.141 174.541 199.795C173.766 199.439 173.156 198.92 172.709 198.236C172.262 197.553 172.039 196.71 172.039 195.707C172.039 194.85 172.199 194.139 172.518 193.574C172.837 193.009 173.27 192.558 173.816 192.221C174.372 191.883 174.997 191.628 175.689 191.455C176.382 191.273 177.098 191.145 177.836 191.072C178.738 190.972 179.467 190.885 180.023 190.812C180.579 190.74 180.98 190.621 181.227 190.457C181.482 190.293 181.609 190.038 181.609 189.691V189.623C181.609 188.885 181.391 188.311 180.953 187.9C180.516 187.49 179.878 187.285 179.039 187.285C178.155 187.285 177.453 187.477 176.934 187.859C176.423 188.242 176.077 188.693 175.895 189.213L172.545 188.734C172.809 187.805 173.247 187.03 173.857 186.41C174.468 185.781 175.211 185.312 176.086 185.002C176.97 184.683 177.945 184.523 179.012 184.523C179.741 184.523 180.47 184.61 181.199 184.783C181.928 184.947 182.598 185.23 183.209 185.631C183.82 186.032 184.307 186.57 184.672 187.244C185.036 187.919 185.219 188.762 185.219 189.773V200H181.76V197.895H181.65C181.432 198.314 181.122 198.71 180.721 199.084C180.329 199.449 179.837 199.745 179.244 199.973C178.661 200.201 177.968 200.314 177.166 200.314ZM178.082 197.662C178.811 197.662 179.44 197.521 179.969 197.238C180.497 196.947 180.908 196.564 181.199 196.09C181.491 195.607 181.637 195.083 181.637 194.518V192.727C181.518 192.818 181.327 192.904 181.062 192.986C180.798 193.059 180.497 193.128 180.16 193.191C179.823 193.255 179.49 193.31 179.162 193.355C178.843 193.401 178.565 193.438 178.328 193.465C177.79 193.538 177.307 193.661 176.879 193.834C176.46 193.998 176.127 194.226 175.881 194.518C175.635 194.809 175.512 195.188 175.512 195.652C175.512 196.318 175.753 196.819 176.236 197.156C176.719 197.493 177.335 197.662 178.082 197.662ZM187.885 200V184.715H191.371V187.285H191.535C191.809 186.392 192.287 185.708 192.971 185.234C193.654 184.751 194.434 184.51 195.309 184.51C195.5 184.51 195.719 184.519 195.965 184.537C196.22 184.555 196.43 184.578 196.594 184.605V187.914C196.439 187.859 196.197 187.814 195.869 187.777C195.541 187.741 195.227 187.723 194.926 187.723C194.26 187.723 193.668 187.864 193.148 188.146C192.629 188.429 192.219 188.816 191.918 189.309C191.626 189.801 191.48 190.375 191.48 191.031V200H187.885ZM203.936 206.043C201.994 206.043 200.467 205.665 199.355 204.908C198.243 204.161 197.528 203.254 197.209 202.188L200.436 201.395C200.581 201.695 200.796 201.992 201.078 202.283C201.361 202.584 201.739 202.83 202.213 203.021C202.687 203.222 203.284 203.322 204.004 203.322C205.025 203.322 205.868 203.072 206.533 202.57C207.208 202.078 207.545 201.271 207.545 200.15V197.266H207.34C207.167 197.63 206.902 198.008 206.547 198.4C206.191 198.783 205.722 199.111 205.139 199.385C204.564 199.649 203.835 199.781 202.951 199.781C201.785 199.781 200.723 199.503 199.766 198.947C198.818 198.391 198.061 197.562 197.496 196.459C196.94 195.356 196.662 193.975 196.662 192.316C196.662 190.639 196.94 189.222 197.496 188.064C198.061 186.907 198.822 186.027 199.779 185.426C200.736 184.824 201.803 184.523 202.979 184.523C203.872 184.523 204.61 184.674 205.193 184.975C205.777 185.275 206.242 185.64 206.588 186.068C206.934 186.488 207.203 186.88 207.395 187.244H207.586V184.715H211.1V200.246C211.1 201.549 210.79 202.63 210.17 203.486C209.55 204.343 208.698 204.981 207.613 205.4C206.538 205.829 205.312 206.043 203.936 206.043ZM203.963 196.951C205.111 196.951 205.995 196.541 206.615 195.721C207.244 194.891 207.559 193.747 207.559 192.289C207.559 191.323 207.422 190.48 207.148 189.76C206.875 189.04 206.469 188.479 205.932 188.078C205.394 187.677 204.738 187.477 203.963 187.477C203.161 187.477 202.491 187.686 201.953 188.105C201.415 188.525 201.01 189.099 200.736 189.828C200.472 190.548 200.34 191.368 200.34 192.289C200.34 193.219 200.477 194.035 200.75 194.736C201.023 195.438 201.429 195.985 201.967 196.377C202.514 196.76 203.179 196.951 203.963 196.951ZM213.752 200V184.715H217.348V200H213.752ZM215.557 182.568C214.982 182.568 214.49 182.377 214.08 181.994C213.67 181.611 213.465 181.151 213.465 180.613C213.465 180.066 213.67 179.602 214.08 179.219C214.49 178.836 214.982 178.645 215.557 178.645C216.122 178.645 216.609 178.836 217.02 179.219C217.43 179.602 217.635 180.062 217.635 180.6C217.635 181.146 217.43 181.611 217.02 181.994C216.609 182.377 216.122 182.568 215.557 182.568ZM223.609 191.059V200H220.014V184.715H223.541V187.326H223.719C224.065 186.469 224.607 185.79 225.346 185.289C226.093 184.779 227.041 184.523 228.189 184.523C229.247 184.523 230.167 184.747 230.951 185.193C231.735 185.64 232.341 186.296 232.77 187.162C233.207 188.019 233.426 189.058 233.426 190.279V200H229.83V190.84C229.83 189.819 229.566 189.021 229.037 188.447C228.508 187.864 227.779 187.572 226.85 187.572C226.221 187.572 225.66 187.709 225.168 187.982C224.685 188.256 224.302 188.652 224.02 189.172C223.746 189.682 223.609 190.311 223.609 191.059ZM242.148 200V179.629H249.791C251.359 179.629 252.671 179.921 253.729 180.504C254.795 181.087 255.602 181.889 256.148 182.91C256.695 183.931 256.969 185.089 256.969 186.383C256.969 187.686 256.691 188.848 256.135 189.869C255.588 190.881 254.777 191.678 253.701 192.262C252.626 192.836 251.304 193.123 249.736 193.123H244.678V190.088H249.23C250.151 190.088 250.903 189.933 251.486 189.623C252.079 189.304 252.512 188.867 252.785 188.311C253.068 187.745 253.209 187.103 253.209 186.383C253.209 185.654 253.068 185.016 252.785 184.469C252.512 183.913 252.079 183.484 251.486 183.184C250.903 182.874 250.146 182.719 249.217 182.719H245.84V200H242.148ZM262.574 179.629V200H258.979V179.629H262.574ZM272.008 200.301C270.477 200.301 269.155 199.982 268.043 199.344C266.931 198.697 266.074 197.785 265.473 196.609C264.88 195.434 264.584 194.048 264.584 192.453C264.584 190.876 264.88 189.495 265.473 188.311C266.065 187.117 266.899 186.187 267.975 185.521C269.05 184.856 270.317 184.523 271.775 184.523C272.714 184.523 273.603 184.674 274.441 184.975C275.289 185.275 276.036 185.74 276.684 186.369C277.34 186.998 277.855 187.8 278.229 188.775C278.602 189.742 278.789 190.895 278.789 192.234V193.355H266.266V190.936H276.998L275.316 191.646C275.316 190.781 275.184 190.029 274.92 189.391C274.656 188.743 274.264 188.238 273.744 187.873C273.225 187.508 272.577 187.326 271.803 187.326C271.028 187.326 270.367 187.508 269.82 187.873C269.273 188.238 268.859 188.73 268.576 189.35C268.294 189.96 268.152 190.644 268.152 191.4V193.082C268.152 194.012 268.312 194.809 268.631 195.475C268.959 196.131 269.415 196.632 269.998 196.979C270.59 197.325 271.279 197.498 272.062 197.498C272.573 197.498 273.038 197.425 273.457 197.279C273.885 197.133 274.25 196.915 274.551 196.623C274.861 196.322 275.098 195.953 275.262 195.516L278.625 195.912C278.406 196.796 278.001 197.571 277.408 198.236C276.825 198.893 276.073 199.403 275.152 199.768C274.241 200.123 273.193 200.301 272.008 200.301ZM286.377 200.273C285.183 200.273 284.107 199.968 283.15 199.357C282.202 198.738 281.455 197.84 280.908 196.664C280.361 195.488 280.088 194.062 280.088 192.385C280.088 190.68 280.366 189.245 280.922 188.078C281.487 186.911 282.243 186.027 283.191 185.426C284.139 184.824 285.201 184.523 286.377 184.523C287.279 184.523 288.018 184.674 288.592 184.975C289.166 185.275 289.622 185.64 289.959 186.068C290.305 186.488 290.57 186.88 290.752 187.244H290.902V179.629H294.484V200H290.971V197.58H290.752C290.561 197.954 290.292 198.35 289.945 198.77C289.599 199.18 289.139 199.535 288.564 199.836C287.99 200.128 287.261 200.273 286.377 200.273ZM287.375 197.32C288.141 197.32 288.788 197.115 289.316 196.705C289.854 196.286 290.264 195.707 290.547 194.969C290.829 194.221 290.971 193.355 290.971 192.371C290.971 191.378 290.829 190.516 290.547 189.787C290.273 189.049 289.868 188.479 289.33 188.078C288.801 187.677 288.15 187.477 287.375 187.477C286.582 187.477 285.917 187.686 285.379 188.105C284.841 188.525 284.436 189.104 284.162 189.842C283.898 190.58 283.766 191.423 283.766 192.371C283.766 193.319 283.902 194.167 284.176 194.914C284.449 195.661 284.85 196.249 285.379 196.678C285.917 197.106 286.582 197.32 287.375 197.32ZM303.768 206.043C301.826 206.043 300.299 205.665 299.188 204.908C298.076 204.161 297.36 203.254 297.041 202.188L300.268 201.395C300.413 201.695 300.628 201.992 300.91 202.283C301.193 202.584 301.571 202.83 302.045 203.021C302.519 203.222 303.116 203.322 303.836 203.322C304.857 203.322 305.7 203.072 306.365 202.57C307.04 202.078 307.377 201.271 307.377 200.15V197.266H307.172C306.999 197.63 306.734 198.008 306.379 198.4C306.023 198.783 305.554 199.111 304.971 199.385C304.396 199.649 303.667 199.781 302.783 199.781C301.617 199.781 300.555 199.503 299.598 198.947C298.65 198.391 297.893 197.562 297.328 196.459C296.772 195.356 296.494 193.975 296.494 192.316C296.494 190.639 296.772 189.222 297.328 188.064C297.893 186.907 298.654 186.027 299.611 185.426C300.568 184.824 301.635 184.523 302.811 184.523C303.704 184.523 304.442 184.674 305.025 184.975C305.609 185.275 306.074 185.64 306.42 186.068C306.766 186.488 307.035 186.88 307.227 187.244H307.418V184.715H310.932V200.246C310.932 201.549 310.622 202.63 310.002 203.486C309.382 204.343 308.53 204.981 307.445 205.4C306.37 205.829 305.144 206.043 303.768 206.043ZM303.795 196.951C304.943 196.951 305.827 196.541 306.447 195.721C307.076 194.891 307.391 193.747 307.391 192.289C307.391 191.323 307.254 190.48 306.98 189.76C306.707 189.04 306.301 188.479 305.764 188.078C305.226 187.677 304.57 187.477 303.795 187.477C302.993 187.477 302.323 187.686 301.785 188.105C301.247 188.525 300.842 189.099 300.568 189.828C300.304 190.548 300.172 191.368 300.172 192.289C300.172 193.219 300.309 194.035 300.582 194.736C300.855 195.438 301.261 195.985 301.799 196.377C302.346 196.76 303.011 196.951 303.795 196.951ZM320.352 200.301C318.82 200.301 317.499 199.982 316.387 199.344C315.275 198.697 314.418 197.785 313.816 196.609C313.224 195.434 312.928 194.048 312.928 192.453C312.928 190.876 313.224 189.495 313.816 188.311C314.409 187.117 315.243 186.187 316.318 185.521C317.394 184.856 318.661 184.523 320.119 184.523C321.058 184.523 321.947 184.674 322.785 184.975C323.633 185.275 324.38 185.74 325.027 186.369C325.684 186.998 326.199 187.8 326.572 188.775C326.946 189.742 327.133 190.895 327.133 192.234V193.355H314.609V190.936H325.342L323.66 191.646C323.66 190.781 323.528 190.029 323.264 189.391C322.999 188.743 322.607 188.238 322.088 187.873C321.568 187.508 320.921 187.326 320.146 187.326C319.372 187.326 318.711 187.508 318.164 187.873C317.617 188.238 317.202 188.73 316.92 189.35C316.637 189.96 316.496 190.644 316.496 191.4V193.082C316.496 194.012 316.656 194.809 316.975 195.475C317.303 196.131 317.758 196.632 318.342 196.979C318.934 197.325 319.622 197.498 320.406 197.498C320.917 197.498 321.382 197.425 321.801 197.279C322.229 197.133 322.594 196.915 322.895 196.623C323.204 196.322 323.441 195.953 323.605 195.516L326.969 195.912C326.75 196.796 326.344 197.571 325.752 198.236C325.169 198.893 324.417 199.403 323.496 199.768C322.585 200.123 321.536 200.301 320.352 200.301ZM78.1953 215.629H82.7207L88.7637 230.381H88.9961L95.0527 215.629H99.6328V236H96.0098V222H95.8457L90.1855 235.932H87.5332L81.9414 221.973H81.75V236H78.1953V215.629ZM101.697 218.719V215.629H117.939V218.719H111.65V236H108V218.719H101.697ZM120.004 236V215.629H133.074V218.719H123.695V224.83H132.158V227.879H123.695V236H120.004ZM137.846 233.471C137.226 233.471 136.702 233.261 136.273 232.842C135.854 232.413 135.645 231.894 135.645 231.283C135.645 230.673 135.854 230.158 136.273 229.738C136.702 229.31 137.226 229.096 137.846 229.096C138.465 229.096 138.985 229.31 139.404 229.738C139.833 230.158 140.047 230.673 140.047 231.283C140.047 231.894 139.833 232.413 139.404 232.842C138.985 233.261 138.465 233.471 137.846 233.471ZM137.846 223.094C137.226 223.094 136.702 222.884 136.273 222.465C135.854 222.036 135.645 221.517 135.645 220.906C135.645 220.296 135.854 219.781 136.273 219.361C136.702 218.933 137.226 218.719 137.846 218.719C138.465 218.719 138.985 218.933 139.404 219.361C139.833 219.781 140.047 220.296 140.047 220.906C140.047 221.517 139.833 222.036 139.404 222.465C138.985 222.884 138.465 223.094 137.846 223.094ZM157.998 236.273C156.212 236.273 154.612 235.859 153.199 235.029C151.796 234.2 150.688 233.006 149.877 231.447C149.075 229.889 148.674 228.016 148.674 225.828C148.674 223.632 149.079 221.754 149.891 220.195C150.711 218.628 151.823 217.429 153.227 216.6C154.639 215.77 156.23 215.355 157.998 215.355C159.119 215.355 160.167 215.515 161.143 215.834C162.127 216.153 163.002 216.622 163.768 217.242C164.533 217.853 165.158 218.605 165.641 219.498C166.133 220.382 166.456 221.389 166.611 222.52H162.893C162.792 221.9 162.596 221.353 162.305 220.879C162.022 220.405 161.667 220.004 161.238 219.676C160.819 219.339 160.34 219.088 159.803 218.924C159.265 218.751 158.686 218.664 158.066 218.664C156.954 218.664 155.97 218.942 155.113 219.498C154.257 220.045 153.587 220.856 153.104 221.932C152.62 222.998 152.379 224.297 152.379 225.828C152.379 227.378 152.62 228.686 153.104 229.752C153.596 230.809 154.266 231.611 155.113 232.158C155.97 232.696 156.95 232.965 158.053 232.965C158.663 232.965 159.233 232.887 159.762 232.732C160.29 232.568 160.769 232.327 161.197 232.008C161.635 231.68 161.995 231.288 162.277 230.832C162.569 230.367 162.774 229.834 162.893 229.232H166.611C166.475 230.208 166.174 231.124 165.709 231.98C165.253 232.828 164.652 233.576 163.904 234.223C163.166 234.861 162.3 235.362 161.307 235.727C160.313 236.091 159.21 236.273 157.998 236.273ZM175.484 236.301C173.99 236.301 172.695 235.973 171.602 235.316C170.508 234.66 169.66 233.74 169.059 232.555C168.466 231.37 168.17 229.993 168.17 228.426C168.17 226.849 168.466 225.468 169.059 224.283C169.66 223.089 170.508 222.164 171.602 221.508C172.695 220.852 173.99 220.523 175.484 220.523C176.979 220.523 178.273 220.852 179.367 221.508C180.461 222.164 181.309 223.089 181.91 224.283C182.512 225.468 182.812 226.849 182.812 228.426C182.812 229.993 182.512 231.37 181.91 232.555C181.309 233.74 180.461 234.66 179.367 235.316C178.273 235.973 176.979 236.301 175.484 236.301ZM175.484 233.402C176.314 233.402 176.997 233.184 177.535 232.746C178.073 232.299 178.474 231.698 178.738 230.941C179.012 230.185 179.148 229.346 179.148 228.426C179.148 227.487 179.012 226.639 178.738 225.883C178.474 225.126 178.073 224.529 177.535 224.092C176.997 223.645 176.314 223.422 175.484 223.422C174.673 223.422 173.994 223.645 173.447 224.092C172.9 224.529 172.49 225.126 172.217 225.883C171.952 226.639 171.82 227.487 171.82 228.426C171.82 229.346 171.952 230.185 172.217 230.941C172.49 231.698 172.9 232.299 173.447 232.746C173.994 233.184 174.673 233.402 175.484 233.402ZM188.391 227.059V236H184.795V220.715H188.322V223.326H188.5C188.846 222.469 189.389 221.79 190.127 221.289C190.874 220.779 191.822 220.523 192.971 220.523C194.028 220.523 194.949 220.747 195.732 221.193C196.516 221.64 197.122 222.296 197.551 223.162C197.988 224.019 198.207 225.058 198.207 226.279V236H194.611V226.84C194.611 225.819 194.347 225.021 193.818 224.447C193.29 223.864 192.561 223.572 191.631 223.572C191.002 223.572 190.441 223.709 189.949 223.982C189.466 224.256 189.083 224.652 188.801 225.172C188.527 225.682 188.391 226.311 188.391 227.059ZM213.971 220.715L208.529 236H204.537L199.109 220.715H202.951L206.492 232.076H206.656L210.17 220.715H213.971ZM221.668 236.301C220.137 236.301 218.815 235.982 217.703 235.344C216.591 234.697 215.734 233.785 215.133 232.609C214.54 231.434 214.244 230.048 214.244 228.453C214.244 226.876 214.54 225.495 215.133 224.311C215.725 223.117 216.559 222.187 217.635 221.521C218.71 220.856 219.977 220.523 221.436 220.523C222.374 220.523 223.263 220.674 224.102 220.975C224.949 221.275 225.697 221.74 226.344 222.369C227 222.998 227.515 223.8 227.889 224.775C228.262 225.742 228.449 226.895 228.449 228.234V229.355H215.926V226.936H226.658L224.977 227.646C224.977 226.781 224.844 226.029 224.58 225.391C224.316 224.743 223.924 224.238 223.404 223.873C222.885 223.508 222.238 223.326 221.463 223.326C220.688 223.326 220.027 223.508 219.48 223.873C218.934 224.238 218.519 224.73 218.236 225.35C217.954 225.96 217.812 226.644 217.812 227.4V229.082C217.812 230.012 217.972 230.809 218.291 231.475C218.619 232.131 219.075 232.632 219.658 232.979C220.251 233.325 220.939 233.498 221.723 233.498C222.233 233.498 222.698 233.425 223.117 233.279C223.546 233.133 223.91 232.915 224.211 232.623C224.521 232.322 224.758 231.953 224.922 231.516L228.285 231.912C228.066 232.796 227.661 233.571 227.068 234.236C226.485 234.893 225.733 235.403 224.812 235.768C223.901 236.123 222.853 236.301 221.668 236.301ZM230.404 236V220.715H233.891V223.285H234.055C234.328 222.392 234.807 221.708 235.49 221.234C236.174 220.751 236.953 220.51 237.828 220.51C238.02 220.51 238.238 220.519 238.484 220.537C238.74 220.555 238.949 220.578 239.113 220.605V223.914C238.958 223.859 238.717 223.814 238.389 223.777C238.061 223.741 237.746 223.723 237.445 223.723C236.78 223.723 236.188 223.864 235.668 224.146C235.148 224.429 234.738 224.816 234.438 225.309C234.146 225.801 234 226.375 234 227.031V236H230.404ZM248.902 220.715V223.504H240.139V220.715H248.902ZM242.285 217.078H245.881V231.406C245.881 232.008 246.013 232.454 246.277 232.746C246.542 233.029 246.961 233.17 247.535 233.17C247.69 233.17 247.863 233.156 248.055 233.129C248.246 233.102 248.419 233.07 248.574 233.033L249.189 235.85C248.807 235.968 248.419 236.055 248.027 236.109C247.635 236.173 247.243 236.205 246.852 236.205C245.43 236.205 244.313 235.831 243.502 235.084C242.691 234.327 242.285 233.298 242.285 231.994V217.078ZM264.406 220.715V223.504H255.643V220.715H264.406ZM257.789 217.078H261.385V231.406C261.385 232.008 261.517 232.454 261.781 232.746C262.046 233.029 262.465 233.17 263.039 233.17C263.194 233.17 263.367 233.156 263.559 233.129C263.75 233.102 263.923 233.07 264.078 233.033L264.693 235.85C264.311 235.968 263.923 236.055 263.531 236.109C263.139 236.173 262.747 236.205 262.355 236.205C260.934 236.205 259.817 235.831 259.006 235.084C258.195 234.327 257.789 233.298 257.789 231.994V217.078ZM272.883 236.301C271.388 236.301 270.094 235.973 269 235.316C267.906 234.66 267.059 233.74 266.457 232.555C265.865 231.37 265.568 229.993 265.568 228.426C265.568 226.849 265.865 225.468 266.457 224.283C267.059 223.089 267.906 222.164 269 221.508C270.094 220.852 271.388 220.523 272.883 220.523C274.378 220.523 275.672 220.852 276.766 221.508C277.859 222.164 278.707 223.089 279.309 224.283C279.91 225.468 280.211 226.849 280.211 228.426C280.211 229.993 279.91 231.37 279.309 232.555C278.707 233.74 277.859 234.66 276.766 235.316C275.672 235.973 274.378 236.301 272.883 236.301ZM272.883 233.402C273.712 233.402 274.396 233.184 274.934 232.746C275.471 232.299 275.872 231.698 276.137 230.941C276.41 230.185 276.547 229.346 276.547 228.426C276.547 227.487 276.41 226.639 276.137 225.883C275.872 225.126 275.471 224.529 274.934 224.092C274.396 223.645 273.712 223.422 272.883 223.422C272.072 223.422 271.393 223.645 270.846 224.092C270.299 224.529 269.889 225.126 269.615 225.883C269.351 226.639 269.219 227.487 269.219 228.426C269.219 229.346 269.351 230.185 269.615 230.941C269.889 231.698 270.299 232.299 270.846 232.746C271.393 233.184 272.072 233.402 272.883 233.402ZM32.3945 272H27.2266V268.801H32.2031C33.6159 268.801 34.7962 268.546 35.7441 268.035C36.7012 267.516 37.4167 266.736 37.8906 265.697C38.3737 264.658 38.6152 263.359 38.6152 261.801C38.6152 260.242 38.3783 258.948 37.9043 257.918C37.4303 256.888 36.724 256.118 35.7852 255.607C34.8464 255.088 33.6842 254.828 32.2988 254.828H27.1172V251.629H32.5176C34.541 251.629 36.2773 252.035 37.7266 252.846C39.1849 253.657 40.306 254.824 41.0898 256.346C41.8737 257.868 42.2656 259.686 42.2656 261.801C42.2656 263.915 41.8737 265.738 41.0898 267.27C40.306 268.792 39.1758 269.963 37.6992 270.783C36.2318 271.594 34.4635 272 32.3945 272ZM29.168 251.629V272H25.4766V251.629H29.168ZM51.3164 272.301C49.7852 272.301 48.4635 271.982 47.3516 271.344C46.2396 270.697 45.3828 269.785 44.7812 268.609C44.1888 267.434 43.8926 266.048 43.8926 264.453C43.8926 262.876 44.1888 261.495 44.7812 260.311C45.3737 259.117 46.2077 258.187 47.2832 257.521C48.3587 256.856 49.6257 256.523 51.084 256.523C52.0228 256.523 52.9115 256.674 53.75 256.975C54.5977 257.275 55.3451 257.74 55.9922 258.369C56.6484 258.998 57.1634 259.8 57.5371 260.775C57.9108 261.742 58.0977 262.895 58.0977 264.234V265.355H45.5742V262.936H56.3066L54.625 263.646C54.625 262.781 54.4928 262.029 54.2285 261.391C53.9642 260.743 53.5723 260.238 53.0527 259.873C52.5332 259.508 51.8861 259.326 51.1113 259.326C50.3366 259.326 49.6758 259.508 49.1289 259.873C48.582 260.238 48.1673 260.73 47.8848 261.35C47.6022 261.96 47.4609 262.644 47.4609 263.4V265.082C47.4609 266.012 47.6204 266.809 47.9395 267.475C48.2676 268.131 48.7233 268.632 49.3066 268.979C49.8991 269.325 50.5872 269.498 51.3711 269.498C51.8815 269.498 52.3464 269.425 52.7656 269.279C53.194 269.133 53.5586 268.915 53.8594 268.623C54.1693 268.322 54.4062 267.953 54.5703 267.516L57.9336 267.912C57.7148 268.796 57.3092 269.571 56.7168 270.236C56.1335 270.893 55.3815 271.403 54.4609 271.768C53.5495 272.123 52.5013 272.301 51.3164 272.301ZM63.6484 251.629V272H60.0527V251.629H63.6484ZM66.3145 272V256.715H69.9102V272H66.3145ZM68.1191 254.568C67.5449 254.568 67.0527 254.377 66.6426 253.994C66.2324 253.611 66.0273 253.151 66.0273 252.613C66.0273 252.066 66.2324 251.602 66.6426 251.219C67.0527 250.836 67.5449 250.645 68.1191 250.645C68.6842 250.645 69.1719 250.836 69.582 251.219C69.9922 251.602 70.1973 252.062 70.1973 252.6C70.1973 253.146 69.9922 253.611 69.582 253.994C69.1719 254.377 68.6842 254.568 68.1191 254.568ZM86.2207 256.715L80.7793 272H76.7871L71.3594 256.715H75.2012L78.7422 268.076H78.9062L82.4199 256.715H86.2207ZM93.918 272.301C92.3867 272.301 91.0651 271.982 89.9531 271.344C88.8411 270.697 87.9844 269.785 87.3828 268.609C86.7904 267.434 86.4941 266.048 86.4941 264.453C86.4941 262.876 86.7904 261.495 87.3828 260.311C87.9753 259.117 88.8092 258.187 89.8848 257.521C90.9603 256.856 92.2272 256.523 93.6855 256.523C94.6243 256.523 95.513 256.674 96.3516 256.975C97.1992 257.275 97.9466 257.74 98.5938 258.369C99.25 258.998 99.765 259.8 100.139 260.775C100.512 261.742 100.699 262.895 100.699 264.234V265.355H88.1758V262.936H98.9082L97.2266 263.646C97.2266 262.781 97.0944 262.029 96.8301 261.391C96.5658 260.743 96.1738 260.238 95.6543 259.873C95.1348 259.508 94.4876 259.326 93.7129 259.326C92.9382 259.326 92.2773 259.508 91.7305 259.873C91.1836 260.238 90.7689 260.73 90.4863 261.35C90.2038 261.96 90.0625 262.644 90.0625 263.4V265.082C90.0625 266.012 90.222 266.809 90.541 267.475C90.8691 268.131 91.3249 268.632 91.9082 268.979C92.5007 269.325 93.1888 269.498 93.9727 269.498C94.4831 269.498 94.9479 269.425 95.3672 269.279C95.7956 269.133 96.1602 268.915 96.4609 268.623C96.7708 268.322 97.0078 267.953 97.1719 267.516L100.535 267.912C100.316 268.796 99.9108 269.571 99.3184 270.236C98.735 270.893 97.9831 271.403 97.0625 271.768C96.151 272.123 95.1029 272.301 93.918 272.301ZM102.654 272V256.715H106.141V259.285H106.305C106.578 258.392 107.057 257.708 107.74 257.234C108.424 256.751 109.203 256.51 110.078 256.51C110.27 256.51 110.488 256.519 110.734 256.537C110.99 256.555 111.199 256.578 111.363 256.605V259.914C111.208 259.859 110.967 259.814 110.639 259.777C110.311 259.741 109.996 259.723 109.695 259.723C109.03 259.723 108.438 259.864 107.918 260.146C107.398 260.429 106.988 260.816 106.688 261.309C106.396 261.801 106.25 262.375 106.25 263.031V272H102.654ZM115.424 277.715C114.932 277.724 114.476 277.688 114.057 277.605C113.646 277.533 113.314 277.446 113.059 277.346L113.906 274.543L114.084 274.598C114.813 274.789 115.433 274.803 115.943 274.639C116.463 274.475 116.878 273.978 117.188 273.148L117.488 272.328L111.965 256.715H115.779L119.293 268.268H119.457L122.984 256.715H126.826L120.701 273.846C120.419 274.657 120.045 275.35 119.58 275.924C119.115 276.507 118.541 276.949 117.857 277.25C117.174 277.56 116.363 277.715 115.424 277.715Z" fill="#E45440"/>
<rect x="24.5" y="92.5" width="47" height="47" rx="7.5" fill="#F6E9E7"/>
<rect x="24.5" y="92.5" width="47" height="47" rx="7.5" stroke="#F8D7D3"/>
<path d="M57.3698 121.869L53.8698 125.369C53.7056 125.533 53.4829 125.625 53.2507 125.625C53.0185 125.625 52.7958 125.533 52.6316 125.369C52.4674 125.205 52.3752 124.982 52.3752 124.75C52.3752 124.518 52.4674 124.295 52.6316 124.131L54.6387 122.125H39.2507C39.0186 122.125 38.7961 122.033 38.632 121.869C38.4679 121.705 38.3757 121.482 38.3757 121.25C38.3757 121.018 38.4679 120.795 38.632 120.631C38.7961 120.467 39.0186 120.375 39.2507 120.375H54.6387L52.6316 118.369C52.4674 118.205 52.3752 117.982 52.3752 117.75C52.3752 117.518 52.4674 117.295 52.6316 117.131C52.7958 116.967 53.0185 116.875 53.2507 116.875C53.4829 116.875 53.7056 116.967 53.8698 117.131L57.3698 120.631C57.4511 120.712 57.5156 120.809 57.5597 120.915C57.6037 121.021 57.6264 121.135 57.6264 121.25C57.6264 121.365 57.6037 121.479 57.5597 121.585C57.5156 121.691 57.4511 121.788 57.3698 121.869ZM42.1316 114.869C42.2958 115.033 42.5185 115.125 42.7507 115.125C42.9829 115.125 43.2056 115.033 43.3698 114.869C43.5339 114.705 43.6262 114.482 43.6262 114.25C43.6262 114.018 43.5339 113.795 43.3698 113.631L41.3627 111.625H56.7507C56.9828 111.625 57.2053 111.533 57.3694 111.369C57.5335 111.205 57.6257 110.982 57.6257 110.75C57.6257 110.518 57.5335 110.295 57.3694 110.131C57.2053 109.967 56.9828 109.875 56.7507 109.875H41.3627L43.3698 107.869C43.5339 107.705 43.6262 107.482 43.6262 107.25C43.6262 107.018 43.5339 106.795 43.3698 106.631C43.2056 106.467 42.9829 106.375 42.7507 106.375C42.5185 106.375 42.2958 106.467 42.1316 106.631L38.6316 110.131C38.5503 110.212 38.4857 110.309 38.4417 110.415C38.3977 110.521 38.375 110.635 38.375 110.75C38.375 110.865 38.3977 110.979 38.4417 111.085C38.4857 111.191 38.5503 111.288 38.6316 111.369L42.1316 114.869Z" fill="#E45440"/>
</g>
<defs>
<linearGradient id="paint0_linear_455_6650" x1="174.809" y1="350.875" x2="174.809" y2="658.506" gradientUnits="userSpaceOnUse">
<stop stop-color="#F8F7F4"/>
<stop offset="0.2" stop-color="#F6F3EC"/>
<stop offset="0.57" stop-color="#EDEAE0"/>
<stop offset="0.8" stop-color="#EDEAE0"/>
</linearGradient>
<linearGradient id="paint1_linear_455_6650" x1="174.144" y1="358.219" x2="174.144" y2="674.125" gradientUnits="userSpaceOnUse">
<stop stop-color="#F8F7F4"/>
<stop offset="0.2" stop-color="#F6F3EC"/>
<stop offset="0.57" stop-color="#EDEAE0"/>
<stop offset="0.8" stop-color="#EDEAE0"/>
</linearGradient>
<linearGradient id="paint2_linear_455_6650" x1="186.27" y1="357.572" x2="186.27" y2="673.478" gradientUnits="userSpaceOnUse">
<stop stop-color="#F8F7F4"/>
<stop offset="0.2" stop-color="#F6F3EC"/>
<stop offset="0.57" stop-color="#EDEAE0"/>
<stop offset="0.8" stop-color="#EDEAE0"/>
</linearGradient>
<linearGradient id="paint3_linear_455_6650" x1="179.501" y1="432.22" x2="179.501" y2="592.785" gradientUnits="userSpaceOnUse">
<stop stop-color="#F8F7F4"/>
<stop offset="0.2" stop-color="#F6F3EC"/>
<stop offset="0.57" stop-color="#EDEAE0"/>
<stop offset="0.8" stop-color="#EDEAE0"/>
</linearGradient>
<linearGradient id="paint4_linear_455_6650" x1="179.497" y1="437.033" x2="179.497" y2="587.971" gradientUnits="userSpaceOnUse">
<stop stop-color="#F8F7F4"/>
<stop offset="0.2" stop-color="#F6F3EC"/>
<stop offset="0.57" stop-color="#EDEAE0"/>
<stop offset="0.8" stop-color="#EDEAE0"/>
</linearGradient>
<linearGradient id="paint5_linear_455_6650" x1="179.507" y1="306.175" x2="179.507" y2="718.831" gradientUnits="userSpaceOnUse">
<stop stop-color="#F8F7F4"/>
<stop offset="0.2" stop-color="#F6F3EC"/>
<stop offset="0.57" stop-color="#EDEAE0"/>
<stop offset="0.8" stop-color="#EDEAE0"/>
</linearGradient>
<clipPath id="clip0_455_6650">
<rect width="360" height="540" rx="12" fill="white"/>
</clipPath>
<clipPath id="clip1_455_6650">
<rect width="417" height="417" fill="white" transform="translate(-29 304)"/>
</clipPath>
</defs>
</svg>
