<svg width="360" height="540" viewBox="0 0 360 540" fill="none" xmlns="http://www.w3.org/2000/svg">
<g clip-path="url(#clip0_455_6665)">
<rect width="360" height="540" rx="12" fill="#F8F7F4"/>
<path d="M33.2441 200H28.2129V197.307H33.0664C34.6159 197.307 35.9056 197.02 36.9355 196.445C37.9655 195.862 38.7357 195.01 39.2461 193.889C39.7565 192.758 40.0117 191.391 40.0117 189.787C40.0117 188.192 39.7565 186.839 39.2461 185.727C38.7448 184.615 37.9928 183.771 36.9902 183.197C35.9876 182.614 34.7435 182.322 33.2578 182.322H28.1035V179.629H33.4492C35.4453 179.629 37.1589 180.035 38.5898 180.846C40.0208 181.657 41.1191 182.824 41.8848 184.346C42.6504 185.859 43.0332 187.673 43.0332 189.787C43.0332 191.911 42.6458 193.734 41.8711 195.256C41.1055 196.778 39.9935 197.949 38.5352 198.77C37.0768 199.59 35.3132 200 33.2441 200ZM29.7168 179.629V200H26.6406V179.629H29.7168ZM51.7493 200.314C50.2545 200.314 48.9602 199.991 47.8665 199.344C46.7727 198.697 45.9296 197.785 45.3372 196.609C44.7539 195.424 44.4622 194.044 44.4622 192.467C44.4622 190.899 44.7493 189.518 45.3235 188.324C45.9068 187.13 46.7226 186.201 47.7708 185.535C48.8281 184.861 50.0677 184.523 51.4895 184.523C52.3554 184.523 53.194 184.665 54.0052 184.947C54.8164 185.23 55.5455 185.676 56.1927 186.287C56.8398 186.898 57.3502 187.691 57.7239 188.666C58.1067 189.641 58.2981 190.817 58.2981 192.193V193.26H46.1438V191.031H56.7669L55.386 191.77C55.386 190.831 55.2402 190.001 54.9485 189.281C54.6568 188.561 54.2193 188.001 53.636 187.6C53.0618 187.189 52.3463 186.984 51.4895 186.984C50.6328 186.984 49.899 187.189 49.2884 187.6C48.6868 188.01 48.2265 188.552 47.9075 189.227C47.5885 189.901 47.429 190.639 47.429 191.441V192.959C47.429 194.007 47.6113 194.896 47.9759 195.625C48.3404 196.354 48.8463 196.91 49.4934 197.293C50.1497 197.676 50.9108 197.867 51.7766 197.867C52.3417 197.867 52.8522 197.785 53.3079 197.621C53.7727 197.457 54.1738 197.211 54.511 196.883C54.8483 196.555 55.1035 196.149 55.2766 195.666L58.093 196.199C57.8652 197.02 57.4641 197.74 56.8899 198.359C56.3157 198.979 55.5911 199.462 54.7161 199.809C53.8502 200.146 52.8613 200.314 51.7493 200.314ZM71.5259 188.461L68.8326 188.926C68.6594 188.415 68.3358 187.946 67.8619 187.518C67.397 187.089 66.6998 186.875 65.7701 186.875C64.9315 186.875 64.2297 187.066 63.6646 187.449C63.1086 187.823 62.8306 188.301 62.8306 188.885C62.8306 189.395 63.0175 189.81 63.3912 190.129C63.774 190.448 64.3801 190.703 65.2095 190.895L67.6568 191.441C69.0513 191.76 70.0949 192.262 70.7877 192.945C71.4804 193.629 71.8267 194.504 71.8267 195.57C71.8267 196.491 71.5624 197.311 71.0337 198.031C70.5051 198.742 69.7714 199.303 68.8326 199.713C67.8938 200.114 66.8091 200.314 65.5787 200.314C63.8651 200.314 62.4706 199.945 61.3951 199.207C60.3196 198.469 59.6587 197.43 59.4127 196.09L62.2701 195.652C62.4524 196.4 62.8215 196.965 63.3775 197.348C63.9426 197.73 64.6718 197.922 65.565 197.922C66.5311 197.922 67.3059 197.717 67.8892 197.307C68.4817 196.896 68.7779 196.4 68.7779 195.816C68.7779 194.85 68.0578 194.199 66.6177 193.861L64.0337 193.287C62.6028 192.959 61.5455 192.444 60.8619 191.742C60.1874 191.031 59.8502 190.138 59.8502 189.062C59.8502 188.16 60.1008 187.367 60.6021 186.684C61.1125 186 61.8098 185.471 62.6939 185.098C63.5871 184.715 64.6034 184.523 65.7427 184.523C67.4016 184.523 68.7004 184.883 69.6392 185.604C70.5871 186.324 71.216 187.276 71.5259 188.461ZM73.6248 200V184.715H76.578V200H73.6248ZM75.1151 182.363C74.5955 182.363 74.1535 182.19 73.7889 181.844C73.4243 181.497 73.242 181.083 73.242 180.6C73.242 180.107 73.4243 179.688 73.7889 179.342C74.1535 178.995 74.5955 178.822 75.1151 178.822C75.6255 178.822 76.063 178.995 76.4276 179.342C76.8013 179.688 76.9881 180.107 76.9881 180.6C76.9881 181.083 76.8013 181.497 76.4276 181.844C76.063 182.19 75.6255 182.363 75.1151 182.363ZM85.5128 206.043C83.6899 206.043 82.2544 205.701 81.2062 205.018C80.158 204.334 79.4334 203.523 79.0323 202.584L81.5753 201.531C81.7576 201.823 81.9991 202.133 82.2999 202.461C82.6098 202.789 83.0245 203.067 83.5441 203.295C84.0636 203.523 84.7335 203.637 85.5538 203.637C86.6749 203.637 87.6046 203.363 88.3429 202.816C89.0812 202.279 89.4503 201.413 89.4503 200.219V197.225H89.2452C89.0812 197.544 88.8305 197.904 88.4933 198.305C88.156 198.697 87.6958 199.038 87.1124 199.33C86.5291 199.622 85.768 199.768 84.8292 199.768C83.6261 199.768 82.5415 199.485 81.5753 198.92C80.6183 198.346 79.8527 197.507 79.2784 196.404C78.7133 195.292 78.4308 193.925 78.4308 192.303C78.4308 190.68 78.7088 189.29 79.2648 188.133C79.8299 186.966 80.5955 186.073 81.5616 185.453C82.5278 184.833 83.6261 184.523 84.8566 184.523C85.8045 184.523 86.5701 184.683 87.1534 185.002C87.7459 185.312 88.2062 185.676 88.5343 186.096C88.8624 186.515 89.1176 186.884 89.2999 187.203H89.5187V184.715H92.4034V200.342C92.4034 201.654 92.0981 202.73 91.4874 203.568C90.8859 204.407 90.0655 205.027 89.0265 205.428C87.9874 205.838 86.8162 206.043 85.5128 206.043ZM85.4855 197.293C86.7706 197.293 87.755 196.851 88.4386 195.967C89.1313 195.074 89.4777 193.839 89.4777 192.262C89.4777 191.232 89.3273 190.329 89.0265 189.555C88.7257 188.771 88.2791 188.16 87.6866 187.723C87.0942 187.276 86.3605 187.053 85.4855 187.053C84.5922 187.053 83.8448 187.285 83.2433 187.75C82.6508 188.206 82.2042 188.83 81.9034 189.623C81.6027 190.407 81.4523 191.286 81.4523 192.262C81.4523 193.255 81.6027 194.135 81.9034 194.9C82.2042 195.657 82.6554 196.245 83.257 196.664C83.8676 197.083 84.6105 197.293 85.4855 197.293ZM97.9203 190.936V200H94.9672V184.715H97.8383V187.23H98.0434C98.3897 186.401 98.932 185.745 99.6703 185.262C100.409 184.77 101.357 184.523 102.514 184.523C103.553 184.523 104.46 184.742 105.235 185.18C106.019 185.608 106.625 186.251 107.053 187.107C107.491 187.964 107.709 189.026 107.709 190.293V200H104.756V190.648C104.756 189.546 104.465 188.68 103.881 188.051C103.298 187.413 102.505 187.094 101.502 187.094C100.819 187.094 100.204 187.249 99.6566 187.559C99.1189 187.859 98.6951 188.292 98.3852 188.857C98.0753 189.423 97.9203 190.115 97.9203 190.936ZM116.849 200.314C115.355 200.314 114.06 199.991 112.966 199.344C111.873 198.697 111.03 197.785 110.437 196.609C109.854 195.424 109.562 194.044 109.562 192.467C109.562 190.899 109.849 189.518 110.424 188.324C111.007 187.13 111.823 186.201 112.871 185.535C113.928 184.861 115.168 184.523 116.59 184.523C117.455 184.523 118.294 184.665 119.105 184.947C119.916 185.23 120.646 185.676 121.293 186.287C121.94 186.898 122.45 187.691 122.824 188.666C123.207 189.641 123.398 190.817 123.398 192.193V193.26H111.244V191.031H121.867L120.486 191.77C120.486 190.831 120.34 190.001 120.049 189.281C119.757 188.561 119.319 188.001 118.736 187.6C118.162 187.189 117.446 186.984 116.59 186.984C115.733 186.984 114.999 187.189 114.388 187.6C113.787 188.01 113.327 188.552 113.007 189.227C112.688 189.901 112.529 190.639 112.529 191.441V192.959C112.529 194.007 112.711 194.896 113.076 195.625C113.44 196.354 113.946 196.91 114.593 197.293C115.25 197.676 116.011 197.867 116.877 197.867C117.442 197.867 117.952 197.785 118.408 197.621C118.873 197.457 119.274 197.211 119.611 196.883C119.948 196.555 120.203 196.149 120.377 195.666L123.193 196.199C122.965 197.02 122.564 197.74 121.99 198.359C121.416 198.979 120.691 199.462 119.816 199.809C118.95 200.146 117.961 200.314 116.849 200.314ZM130.884 200.301C129.644 200.301 128.541 199.986 127.575 199.357C126.609 198.719 125.853 197.812 125.306 196.637C124.759 195.452 124.485 194.039 124.485 192.398C124.485 190.74 124.763 189.322 125.319 188.146C125.875 186.971 126.636 186.073 127.603 185.453C128.569 184.833 129.662 184.523 130.884 184.523C131.841 184.523 132.606 184.683 133.181 185.002C133.764 185.312 134.215 185.676 134.534 186.096C134.862 186.515 135.113 186.884 135.286 187.203H135.464V179.629H138.417V200H135.532V197.621H135.286C135.113 197.94 134.858 198.309 134.52 198.729C134.183 199.148 133.723 199.517 133.14 199.836C132.565 200.146 131.813 200.301 130.884 200.301ZM131.526 197.771C132.383 197.771 133.108 197.544 133.7 197.088C134.293 196.632 134.739 195.999 135.04 195.188C135.35 194.376 135.505 193.438 135.505 192.371C135.505 191.305 135.354 190.375 135.054 189.582C134.753 188.78 134.306 188.16 133.714 187.723C133.121 187.276 132.392 187.053 131.526 187.053C130.633 187.053 129.89 187.285 129.298 187.75C128.705 188.215 128.259 188.848 127.958 189.65C127.657 190.452 127.507 191.359 127.507 192.371C127.507 193.392 127.657 194.312 127.958 195.133C128.259 195.944 128.705 196.587 129.298 197.061C129.899 197.535 130.642 197.771 131.526 197.771ZM154.058 184.715V187.107H145.718V184.715H154.058ZM147.947 181.078H150.914V195.516C150.914 196.217 151.059 196.732 151.351 197.061C151.643 197.38 152.112 197.539 152.759 197.539C152.914 197.539 153.078 197.53 153.251 197.512C153.434 197.493 153.616 197.466 153.798 197.43L154.359 199.891C154.058 199.991 153.73 200.068 153.375 200.123C153.019 200.178 152.664 200.205 152.308 200.205C150.987 200.205 149.929 199.836 149.136 199.098C148.343 198.35 147.947 197.357 147.947 196.117V181.078ZM159.192 190.936V200H156.239V179.629H159.151V187.23H159.356C159.712 186.401 160.254 185.745 160.983 185.262C161.721 184.77 162.683 184.523 163.868 184.523C164.916 184.523 165.832 184.738 166.616 185.166C167.4 185.594 168.011 186.237 168.448 187.094C168.895 187.951 169.118 189.017 169.118 190.293V200H166.137V190.648C166.137 189.518 165.846 188.643 165.262 188.023C164.688 187.404 163.886 187.094 162.856 187.094C162.145 187.094 161.516 187.249 160.97 187.559C160.423 187.859 159.99 188.292 159.671 188.857C159.352 189.423 159.192 190.115 159.192 190.936ZM178.258 200.314C176.763 200.314 175.469 199.991 174.375 199.344C173.281 198.697 172.438 197.785 171.846 196.609C171.262 195.424 170.971 194.044 170.971 192.467C170.971 190.899 171.258 189.518 171.832 188.324C172.415 187.13 173.231 186.201 174.279 185.535C175.337 184.861 176.576 184.523 177.998 184.523C178.864 184.523 179.703 184.665 180.514 184.947C181.325 185.23 182.054 185.676 182.701 186.287C183.348 186.898 183.859 187.691 184.232 188.666C184.615 189.641 184.807 190.817 184.807 192.193V193.26H172.652V191.031H183.275L181.895 191.77C181.895 190.831 181.749 190.001 181.457 189.281C181.165 188.561 180.728 188.001 180.145 187.6C179.57 187.189 178.855 186.984 177.998 186.984C177.141 186.984 176.408 187.189 175.797 187.6C175.195 188.01 174.735 188.552 174.416 189.227C174.097 189.901 173.938 190.639 173.938 191.441V192.959C173.938 194.007 174.12 194.896 174.484 195.625C174.849 196.354 175.355 196.91 176.002 197.293C176.658 197.676 177.419 197.867 178.285 197.867C178.85 197.867 179.361 197.785 179.816 197.621C180.281 197.457 180.682 197.211 181.02 196.883C181.357 196.555 181.612 196.149 181.785 195.666L184.602 196.199C184.374 197.02 183.973 197.74 183.399 198.359C182.824 198.979 182.1 199.462 181.225 199.809C180.359 200.146 179.37 200.314 178.258 200.314ZM117.923 260.461L115.229 260.926C115.056 260.415 114.733 259.946 114.259 259.518C113.794 259.089 113.097 258.875 112.167 258.875C111.328 258.875 110.627 259.066 110.061 259.449C109.505 259.823 109.228 260.301 109.228 260.885C109.228 261.395 109.414 261.81 109.788 262.129C110.171 262.448 110.777 262.703 111.606 262.895L114.054 263.441C115.448 263.76 116.492 264.262 117.185 264.945C117.877 265.629 118.224 266.504 118.224 267.57C118.224 268.491 117.959 269.311 117.431 270.031C116.902 270.742 116.168 271.303 115.229 271.713C114.291 272.114 113.206 272.314 111.976 272.314C110.262 272.314 108.867 271.945 107.792 271.207C106.716 270.469 106.056 269.43 105.81 268.09L108.667 267.652C108.849 268.4 109.218 268.965 109.774 269.348C110.339 269.73 111.069 269.922 111.962 269.922C112.928 269.922 113.703 269.717 114.286 269.307C114.879 268.896 115.175 268.4 115.175 267.816C115.175 266.85 114.455 266.199 113.015 265.861L110.431 265.287C109 264.959 107.942 264.444 107.259 263.742C106.584 263.031 106.247 262.138 106.247 261.062C106.247 260.16 106.498 259.367 106.999 258.684C107.509 258 108.207 257.471 109.091 257.098C109.984 256.715 111 256.523 112.14 256.523C113.798 256.523 115.097 256.883 116.036 257.604C116.984 258.324 117.613 259.276 117.923 260.461ZM123.317 272L118.832 256.715H121.895L124.889 267.939H125.053L128.047 256.715H131.123L134.09 267.898H134.24L137.221 256.715H140.283L135.799 272H132.778L129.66 260.98H129.455L126.338 272H123.317ZM141.671 272V256.715H144.625V272H141.671ZM143.162 254.363C142.642 254.363 142.2 254.19 141.835 253.844C141.471 253.497 141.289 253.083 141.289 252.6C141.289 252.107 141.471 251.688 141.835 251.342C142.2 250.995 142.642 250.822 143.162 250.822C143.672 250.822 144.11 250.995 144.474 251.342C144.848 251.688 145.035 252.107 145.035 252.6C145.035 253.083 144.848 253.497 144.474 253.844C144.11 254.19 143.672 254.363 143.162 254.363ZM154.298 256.715V259.107H145.958V256.715H154.298ZM148.186 253.078H151.153V267.516C151.153 268.217 151.299 268.732 151.591 269.061C151.882 269.38 152.352 269.539 152.999 269.539C153.154 269.539 153.318 269.53 153.491 269.512C153.673 269.493 153.856 269.466 154.038 269.43L154.598 271.891C154.298 271.991 153.97 272.068 153.614 272.123C153.259 272.178 152.903 272.205 152.548 272.205C151.226 272.205 150.169 271.836 149.376 271.098C148.583 270.35 148.186 269.357 148.186 268.117V253.078ZM162.399 272.314C160.931 272.314 159.664 271.977 158.598 271.303C157.531 270.628 156.711 269.699 156.137 268.514C155.563 267.329 155.275 265.971 155.275 264.439C155.275 262.881 155.567 261.509 156.15 260.324C156.743 259.13 157.568 258.201 158.625 257.535C159.691 256.861 160.94 256.523 162.371 256.523C163.538 256.523 164.572 256.738 165.475 257.166C166.386 257.585 167.12 258.182 167.676 258.957C168.241 259.732 168.574 260.634 168.674 261.664H165.775C165.675 261.181 165.479 260.739 165.188 260.338C164.905 259.937 164.531 259.618 164.066 259.381C163.602 259.144 163.05 259.025 162.412 259.025C161.583 259.025 160.858 259.244 160.238 259.682C159.628 260.11 159.149 260.725 158.803 261.527C158.456 262.329 158.283 263.277 158.283 264.371C158.283 265.474 158.452 266.436 158.789 267.256C159.126 268.076 159.605 268.71 160.225 269.156C160.854 269.594 161.583 269.812 162.412 269.812C163.269 269.812 163.998 269.576 164.6 269.102C165.21 268.628 165.602 267.98 165.775 267.16H168.674C168.574 268.154 168.255 269.038 167.717 269.812C167.179 270.587 166.459 271.198 165.557 271.645C164.654 272.091 163.602 272.314 162.399 272.314ZM173.452 262.936V272H170.499V251.629H173.411V259.23H173.617C173.972 258.401 174.514 257.745 175.244 257.262C175.982 256.77 176.943 256.523 178.128 256.523C179.176 256.523 180.092 256.738 180.876 257.166C181.66 257.594 182.271 258.237 182.708 259.094C183.155 259.951 183.378 261.017 183.378 262.293V272H180.398V262.648C180.398 261.518 180.106 260.643 179.523 260.023C178.949 259.404 178.147 259.094 177.117 259.094C176.406 259.094 175.777 259.249 175.23 259.559C174.683 259.859 174.25 260.292 173.931 260.857C173.612 261.423 173.452 262.115 173.452 262.936ZM192.518 272.314C191.023 272.314 189.729 271.991 188.635 271.344C187.542 270.697 186.699 269.785 186.106 268.609C185.523 267.424 185.231 266.044 185.231 264.467C185.231 262.899 185.518 261.518 186.092 260.324C186.676 259.13 187.492 258.201 188.54 257.535C189.597 256.861 190.837 256.523 192.258 256.523C193.124 256.523 193.963 256.665 194.774 256.947C195.585 257.23 196.314 257.676 196.962 258.287C197.609 258.898 198.119 259.691 198.493 260.666C198.876 261.641 199.067 262.817 199.067 264.193V265.26H186.913V263.031H197.536L196.155 263.77C196.155 262.831 196.009 262.001 195.717 261.281C195.426 260.561 194.988 260.001 194.405 259.6C193.831 259.189 193.115 258.984 192.258 258.984C191.402 258.984 190.668 259.189 190.057 259.6C189.456 260.01 188.995 260.552 188.676 261.227C188.357 261.901 188.198 262.639 188.198 263.441V264.959C188.198 266.007 188.38 266.896 188.745 267.625C189.109 268.354 189.615 268.91 190.262 269.293C190.919 269.676 191.68 269.867 192.546 269.867C193.111 269.867 193.621 269.785 194.077 269.621C194.542 269.457 194.943 269.211 195.28 268.883C195.617 268.555 195.872 268.149 196.046 267.666L198.862 268.199C198.634 269.02 198.233 269.74 197.659 270.359C197.085 270.979 196.36 271.462 195.485 271.809C194.619 272.146 193.63 272.314 192.518 272.314ZM200.865 272V256.715H203.723V259.162H203.887C204.169 258.342 204.661 257.695 205.363 257.221C206.074 256.738 206.876 256.496 207.769 256.496C207.952 256.496 208.166 256.505 208.412 256.523C208.667 256.533 208.872 256.546 209.027 256.564V259.408C208.909 259.372 208.695 259.335 208.385 259.299C208.084 259.262 207.779 259.244 207.469 259.244C206.767 259.244 206.138 259.395 205.582 259.695C205.035 259.987 204.602 260.393 204.283 260.912C203.973 261.423 203.818 262.015 203.818 262.689V272H200.865ZM210.648 272.191C210.092 272.191 209.618 272 209.226 271.617C208.843 271.234 208.652 270.765 208.652 270.209C208.652 269.653 208.843 269.184 209.226 268.801C209.618 268.418 210.092 268.227 210.648 268.227C211.204 268.227 211.673 268.418 212.056 268.801C212.448 269.184 212.644 269.653 212.644 270.209C212.644 270.765 212.448 271.234 212.056 271.617C211.673 272 211.204 272.191 210.648 272.191Z" fill="#424242"/>
<path d="M36.0605 229.588V220.715H39.6562V236H36.1699V233.279H36.0059C35.6595 234.136 35.0944 234.838 34.3105 235.385C33.5267 235.932 32.5605 236.201 31.4121 236.191C30.4095 236.191 29.5254 235.973 28.7598 235.535C28.0033 235.089 27.4062 234.437 26.9688 233.58C26.5404 232.714 26.3262 231.671 26.3262 230.449V220.715H29.9219V229.902C29.9219 230.859 30.1862 231.625 30.7148 232.199C31.2526 232.773 31.9544 233.056 32.8203 233.047C33.349 233.047 33.8594 232.919 34.3516 232.664C34.8529 232.409 35.263 232.026 35.582 231.516C35.901 231.005 36.0605 230.363 36.0605 229.588ZM42.0423 241.715V220.715H45.5696V223.244H45.7884C45.9707 222.88 46.2304 222.488 46.5677 222.068C46.9049 221.64 47.3606 221.275 47.9348 220.975C48.5182 220.674 49.261 220.523 50.1634 220.523C51.3391 220.523 52.401 220.824 53.3489 221.426C54.2968 222.027 55.0488 222.911 55.6048 224.078C56.1699 225.245 56.4524 226.68 56.4524 228.385C56.4524 230.062 56.179 231.488 55.6321 232.664C55.0852 233.84 54.3333 234.738 53.3763 235.357C52.4283 235.968 51.3528 236.273 50.1497 236.273C49.2838 236.273 48.5592 236.128 47.9759 235.836C47.4016 235.535 46.9368 235.18 46.5813 234.77C46.235 234.35 45.9707 233.954 45.7884 233.58H45.638V241.715H42.0423ZM49.1653 233.32C49.9583 233.32 50.6191 233.106 51.1477 232.678C51.6855 232.249 52.0911 231.661 52.3645 230.914C52.638 230.167 52.7747 229.319 52.7747 228.371C52.7747 227.423 52.638 226.58 52.3645 225.842C52.0911 225.104 51.6901 224.525 51.1614 224.105C50.6328 223.686 49.9674 223.477 49.1653 223.477C48.3906 223.477 47.7343 223.677 47.1966 224.078C46.6679 224.479 46.2623 225.049 45.9798 225.787C45.7063 226.516 45.5696 227.378 45.5696 228.371C45.5696 229.355 45.7063 230.221 45.9798 230.969C46.2623 231.707 46.6725 232.286 47.2102 232.705C47.748 233.115 48.3997 233.32 49.1653 233.32ZM70.2271 224.775L66.9595 225.117C66.8228 224.616 66.5266 224.174 66.0709 223.791C65.6151 223.399 64.9726 223.203 64.1431 223.203C63.3957 223.203 62.7668 223.367 62.2564 223.695C61.7551 224.023 61.5045 224.443 61.5045 224.953C61.5045 225.4 61.6685 225.769 61.9966 226.061C62.3339 226.343 62.8899 226.571 63.6646 226.744L66.2759 227.291C67.7069 227.592 68.7779 228.084 69.4888 228.768C70.1998 229.451 70.5552 230.335 70.5552 231.42C70.5552 232.377 70.2772 233.225 69.7213 233.963C69.1653 234.701 68.3951 235.275 67.4107 235.686C66.4354 236.096 65.3098 236.301 64.0338 236.301C62.1653 236.301 60.6614 235.909 59.522 235.125C58.3918 234.332 57.7128 233.234 57.4849 231.83L60.9986 231.502C61.1535 232.186 61.4908 232.705 62.0103 233.061C62.539 233.407 63.2134 233.58 64.0338 233.58C64.8905 233.58 65.5787 233.407 66.0982 233.061C66.6177 232.705 66.8775 232.272 66.8775 231.762C66.8775 230.905 66.1939 230.322 64.8267 230.012L62.2154 229.465C60.7479 229.146 59.6633 228.631 58.9615 227.92C58.2597 227.2 57.9088 226.284 57.9088 225.172C57.9088 224.224 58.1685 223.404 58.688 222.711C59.2076 222.018 59.9322 221.48 60.8619 221.098C61.7916 220.715 62.8671 220.523 64.0884 220.523C65.884 220.523 67.2922 220.911 68.313 221.686C69.343 222.451 69.981 223.481 70.2271 224.775ZM79.8319 220.715V223.504H71.0682V220.715H79.8319ZM73.2147 217.078H76.8104V231.406C76.8104 232.008 76.9426 232.454 77.2069 232.746C77.4712 233.029 77.8905 233.17 78.4647 233.17C78.6196 233.17 78.7928 233.156 78.9842 233.129C79.1756 233.102 79.3488 233.07 79.5037 233.033L80.119 235.85C79.7362 235.968 79.3488 236.055 78.9569 236.109C78.5649 236.173 78.173 236.205 77.7811 236.205C76.3592 236.205 75.2427 235.831 74.4315 235.084C73.6203 234.327 73.2147 233.298 73.2147 231.994V217.078ZM88.0284 236.301C86.5336 236.301 85.2394 235.973 84.1456 235.316C83.0519 234.66 82.2042 233.74 81.6027 232.555C81.0102 231.37 80.714 229.993 80.714 228.426C80.714 226.849 81.0102 225.468 81.6027 224.283C82.2042 223.089 83.0519 222.164 84.1456 221.508C85.2394 220.852 86.5336 220.523 88.0284 220.523C89.5232 220.523 90.8175 220.852 91.9113 221.508C93.005 222.164 93.8527 223.089 94.4542 224.283C95.0558 225.468 95.3566 226.849 95.3566 228.426C95.3566 229.993 95.0558 231.37 94.4542 232.555C93.8527 233.74 93.005 234.66 91.9113 235.316C90.8175 235.973 89.5232 236.301 88.0284 236.301ZM88.0284 233.402C88.8579 233.402 89.5415 233.184 90.0792 232.746C90.617 232.299 91.018 231.698 91.2823 230.941C91.5558 230.185 91.6925 229.346 91.6925 228.426C91.6925 227.487 91.5558 226.639 91.2823 225.883C91.018 225.126 90.617 224.529 90.0792 224.092C89.5415 223.645 88.8579 223.422 88.0284 223.422C87.2172 223.422 86.5382 223.645 85.9913 224.092C85.4445 224.529 85.0343 225.126 84.7609 225.883C84.4965 226.639 84.3644 227.487 84.3644 228.426C84.3644 229.346 84.4965 230.185 84.7609 230.941C85.0343 231.698 85.4445 232.299 85.9913 232.746C86.5382 233.184 87.2172 233.402 88.0284 233.402ZM99.4242 220.715L102.5 226.375L105.631 220.715H109.446L104.852 228.371L109.528 236H105.741L102.5 230.504L99.3148 236H95.5004L100.135 228.371L95.6098 220.715H99.4242ZM116.542 241.715V220.715H120.069V223.244H120.288C120.47 222.88 120.73 222.488 121.067 222.068C121.405 221.64 121.86 221.275 122.435 220.975C123.018 220.674 123.761 220.523 124.663 220.523C125.839 220.523 126.901 220.824 127.849 221.426C128.797 222.027 129.548 222.911 130.104 224.078C130.67 225.245 130.952 226.68 130.952 228.385C130.952 230.062 130.679 231.488 130.132 232.664C129.585 233.84 128.833 234.738 127.876 235.357C126.928 235.968 125.853 236.273 124.649 236.273C123.783 236.273 123.059 236.128 122.476 235.836C121.901 235.535 121.436 235.18 121.081 234.77C120.735 234.35 120.47 233.954 120.288 233.58H120.138V241.715H116.542ZM123.665 233.32C124.458 233.32 125.119 233.106 125.647 232.678C126.185 232.249 126.591 231.661 126.864 230.914C127.138 230.167 127.274 229.319 127.274 228.371C127.274 227.423 127.138 226.58 126.864 225.842C126.591 225.104 126.19 224.525 125.661 224.105C125.132 223.686 124.467 223.477 123.665 223.477C122.89 223.477 122.234 223.677 121.696 224.078C121.168 224.479 120.762 225.049 120.479 225.787C120.206 226.516 120.069 227.378 120.069 228.371C120.069 229.355 120.206 230.221 120.479 230.969C120.762 231.707 121.172 232.286 121.71 232.705C122.248 233.115 122.899 233.32 123.665 233.32ZM132.668 236V220.715H136.155V223.285H136.319C136.592 222.392 137.071 221.708 137.754 221.234C138.438 220.751 139.217 220.51 140.092 220.51C140.283 220.51 140.502 220.519 140.748 220.537C141.003 220.555 141.213 220.578 141.377 220.605V223.914C141.222 223.859 140.981 223.814 140.653 223.777C140.324 223.741 140.01 223.723 139.709 223.723C139.044 223.723 138.451 223.864 137.932 224.146C137.412 224.429 137.002 224.816 136.701 225.309C136.41 225.801 136.264 226.375 136.264 227.031V236H132.668ZM148.48 236.301C146.985 236.301 145.691 235.973 144.597 235.316C143.503 234.66 142.656 233.74 142.054 232.555C141.462 231.37 141.166 229.993 141.166 228.426C141.166 226.849 141.462 225.468 142.054 224.283C142.656 223.089 143.503 222.164 144.597 221.508C145.691 220.852 146.985 220.523 148.48 220.523C149.975 220.523 151.269 220.852 152.363 221.508C153.457 222.164 154.304 223.089 154.906 224.283C155.507 225.468 155.808 226.849 155.808 228.426C155.808 229.993 155.507 231.37 154.906 232.555C154.304 233.74 153.457 234.66 152.363 235.316C151.269 235.973 149.975 236.301 148.48 236.301ZM148.48 233.402C149.309 233.402 149.993 233.184 150.531 232.746C151.069 232.299 151.47 231.698 151.734 230.941C152.007 230.185 152.144 229.346 152.144 228.426C152.144 227.487 152.007 226.639 151.734 225.883C151.47 225.126 151.069 224.529 150.531 224.092C149.993 223.645 149.309 223.422 148.48 223.422C147.669 223.422 146.99 223.645 146.443 224.092C145.896 224.529 145.486 225.126 145.212 225.883C144.948 226.639 144.816 227.487 144.816 228.426C144.816 229.346 144.948 230.185 145.212 230.941C145.486 231.698 145.896 232.299 146.443 232.746C146.99 233.184 147.669 233.402 148.48 233.402ZM163.889 229.355V226.484L177.506 220.195V223.75L167.84 227.879L167.949 227.688V228.152L167.84 227.961L177.506 232.104V235.631L163.889 229.355ZM195.027 229.355L181.41 235.631V232.104L191.089 227.961L190.98 228.152V227.688L191.089 227.879L181.41 223.75V220.195L195.027 226.484V229.355ZM213.539 229.588V220.715H217.135V236H213.648V233.279H213.484C213.138 234.136 212.573 234.838 211.789 235.385C211.005 235.932 210.039 236.201 208.891 236.191C207.888 236.191 207.004 235.973 206.238 235.535C205.482 235.089 204.885 234.437 204.447 233.58C204.019 232.714 203.805 231.671 203.805 230.449V220.715H207.4V229.902C207.4 230.859 207.665 231.625 208.193 232.199C208.731 232.773 209.433 233.056 210.299 233.047C210.827 233.047 211.338 232.919 211.83 232.664C212.331 232.409 212.741 232.026 213.06 231.516C213.379 231.005 213.539 230.363 213.539 229.588ZM219.521 241.715V220.715H223.048V223.244H223.267C223.449 222.88 223.709 222.488 224.046 222.068C224.383 221.64 224.839 221.275 225.413 220.975C225.997 220.674 226.739 220.523 227.642 220.523C228.818 220.523 229.879 220.824 230.827 221.426C231.775 222.027 232.527 222.911 233.083 224.078C233.648 225.245 233.931 226.68 233.931 228.385C233.931 230.062 233.657 231.488 233.111 232.664C232.564 233.84 231.812 234.738 230.855 235.357C229.907 235.968 228.831 236.273 227.628 236.273C226.762 236.273 226.038 236.128 225.454 235.836C224.88 235.535 224.415 235.18 224.06 234.77C223.713 234.35 223.449 233.954 223.267 233.58H223.116V241.715H219.521ZM226.644 233.32C227.437 233.32 228.098 233.106 228.626 232.678C229.164 232.249 229.57 231.661 229.843 230.914C230.116 230.167 230.253 229.319 230.253 228.371C230.253 227.423 230.116 226.58 229.843 225.842C229.57 225.104 229.168 224.525 228.64 224.105C228.111 223.686 227.446 223.477 226.644 223.477C225.869 223.477 225.213 223.677 224.675 224.078C224.146 224.479 223.741 225.049 223.458 225.787C223.185 226.516 223.048 227.378 223.048 228.371C223.048 229.355 223.185 230.221 223.458 230.969C223.741 231.707 224.151 232.286 224.689 232.705C225.226 233.115 225.878 233.32 226.644 233.32ZM247.706 224.775L244.438 225.117C244.301 224.616 244.005 224.174 243.549 223.791C243.094 223.399 242.451 223.203 241.622 223.203C240.874 223.203 240.245 223.367 239.735 223.695C239.234 224.023 238.983 224.443 238.983 224.953C238.983 225.4 239.147 225.769 239.475 226.061C239.812 226.343 240.368 226.571 241.143 226.744L243.754 227.291C245.185 227.592 246.256 228.084 246.967 228.768C247.678 229.451 248.034 230.335 248.034 231.42C248.034 232.377 247.756 233.225 247.2 233.963C246.644 234.701 245.874 235.275 244.889 235.686C243.914 236.096 242.788 236.301 241.512 236.301C239.644 236.301 238.14 235.909 237 235.125C235.87 234.332 235.191 233.234 234.963 231.83L238.477 231.502C238.632 232.186 238.969 232.705 239.489 233.061C240.017 233.407 240.692 233.58 241.512 233.58C242.369 233.58 243.057 233.407 243.577 233.061C244.096 232.705 244.356 232.272 244.356 231.762C244.356 230.905 243.672 230.322 242.305 230.012L239.694 229.465C238.226 229.146 237.142 228.631 236.44 227.92C235.738 227.2 235.387 226.284 235.387 225.172C235.387 224.224 235.647 223.404 236.166 222.711C236.686 222.018 237.411 221.48 238.34 221.098C239.27 220.715 240.346 220.523 241.567 220.523C243.362 220.523 244.771 220.911 245.791 221.686C246.821 222.451 247.459 223.481 247.706 224.775ZM257.31 220.715V223.504H248.547V220.715H257.31ZM250.693 217.078H254.289V231.406C254.289 232.008 254.421 232.454 254.685 232.746C254.95 233.029 255.369 233.17 255.943 233.17C256.098 233.17 256.271 233.156 256.463 233.129C256.654 233.102 256.827 233.07 256.982 233.033L257.597 235.85C257.215 235.968 256.827 236.055 256.435 236.109C256.043 236.173 255.651 236.205 255.26 236.205C253.838 236.205 252.721 235.831 251.91 235.084C251.099 234.327 250.693 233.298 250.693 231.994V217.078ZM265.507 236.301C264.012 236.301 262.718 235.973 261.624 235.316C260.53 234.66 259.683 233.74 259.081 232.555C258.489 231.37 258.192 229.993 258.192 228.426C258.192 226.849 258.489 225.468 259.081 224.283C259.683 223.089 260.53 222.164 261.624 221.508C262.718 220.852 264.012 220.523 265.507 220.523C267.002 220.523 268.296 220.852 269.39 221.508C270.483 222.164 271.331 223.089 271.933 224.283C272.534 225.468 272.835 226.849 272.835 228.426C272.835 229.993 272.534 231.37 271.933 232.555C271.331 233.74 270.483 234.66 269.39 235.316C268.296 235.973 267.002 236.301 265.507 236.301ZM265.507 233.402C266.336 233.402 267.02 233.184 267.558 232.746C268.095 232.299 268.496 231.698 268.761 230.941C269.034 230.185 269.171 229.346 269.171 228.426C269.171 227.487 269.034 226.639 268.761 225.883C268.496 225.126 268.095 224.529 267.558 224.092C267.02 223.645 266.336 223.422 265.507 223.422C264.696 223.422 264.017 223.645 263.47 224.092C262.923 224.529 262.513 225.126 262.239 225.883C261.975 226.639 261.843 227.487 261.843 228.426C261.843 229.346 261.975 230.185 262.239 230.941C262.513 231.698 262.923 232.299 263.47 232.746C264.017 233.184 264.696 233.402 265.507 233.402ZM276.903 220.715L279.979 226.375L283.11 220.715H286.924L282.33 228.371L287.006 236H283.219L279.979 230.504L276.793 236H272.979L277.614 228.371L273.088 220.715H276.903ZM26.3262 272V256.715H29.9219V272H26.3262ZM28.1309 254.568C27.5566 254.568 27.0645 254.377 26.6543 253.994C26.2441 253.611 26.0391 253.151 26.0391 252.613C26.0391 252.066 26.2441 251.602 26.6543 251.219C27.0645 250.836 27.5566 250.645 28.1309 250.645C28.696 250.645 29.1836 250.836 29.5938 251.219C30.0039 251.602 30.209 252.062 30.209 252.6C30.209 253.146 30.0039 253.611 29.5938 253.994C29.1836 254.377 28.696 254.568 28.1309 254.568ZM35.9036 263.059V272H32.3079V256.715H35.8352V259.326H36.013C36.3593 258.469 36.9016 257.79 37.6399 257.289C38.3873 256.779 39.3352 256.523 40.4837 256.523C41.541 256.523 42.4615 256.747 43.2454 257.193C44.0292 257.64 44.6354 258.296 45.0637 259.162C45.5012 260.019 45.72 261.058 45.72 262.279V272H42.1243V262.84C42.1243 261.819 41.86 261.021 41.3313 260.447C40.8027 259.864 40.0735 259.572 39.1438 259.572C38.5149 259.572 37.9544 259.709 37.4622 259.982C36.9791 260.256 36.5963 260.652 36.3137 261.172C36.0403 261.682 35.9036 262.311 35.9036 263.059ZM61.2037 256.715L55.7623 272H51.7701L46.3423 256.715H50.1841L53.7252 268.076H53.8892L57.4029 256.715H61.2037ZM68.6209 272.301C67.0897 272.301 65.7681 271.982 64.6561 271.344C63.5441 270.697 62.6873 269.785 62.0858 268.609C61.4933 267.434 61.1971 266.048 61.1971 264.453C61.1971 262.876 61.4933 261.495 62.0858 260.311C62.6782 259.117 63.5122 258.187 64.5877 257.521C65.6633 256.856 66.9302 256.523 68.3885 256.523C69.3273 256.523 70.216 256.674 71.0545 256.975C71.9022 257.275 72.6496 257.74 73.2967 258.369C73.953 258.998 74.4679 259.8 74.8416 260.775C75.2153 261.742 75.4022 262.895 75.4022 264.234V265.355H62.8787V262.936H73.6112L71.9295 263.646C71.9295 262.781 71.7974 262.029 71.533 261.391C71.2687 260.743 70.8768 260.238 70.3573 259.873C69.8377 259.508 69.1906 259.326 68.4159 259.326C67.6411 259.326 66.9803 259.508 66.4334 259.873C65.8866 260.238 65.4718 260.73 65.1893 261.35C64.9067 261.96 64.7655 262.644 64.7655 263.4V265.082C64.7655 266.012 64.925 266.809 65.244 267.475C65.5721 268.131 66.0278 268.632 66.6112 268.979C67.2036 269.325 67.8918 269.498 68.6756 269.498C69.186 269.498 69.6509 269.425 70.0702 269.279C70.4985 269.133 70.8631 268.915 71.1639 268.623C71.4738 268.322 71.7108 267.953 71.8748 267.516L75.2381 267.912C75.0194 268.796 74.6138 269.571 74.0213 270.236C73.438 270.893 72.686 271.403 71.7655 271.768C70.854 272.123 69.8058 272.301 68.6209 272.301ZM89.1359 260.775L85.8683 261.117C85.7316 260.616 85.4353 260.174 84.9796 259.791C84.5239 259.399 83.8813 259.203 83.0519 259.203C82.3045 259.203 81.6756 259.367 81.1652 259.695C80.6639 260.023 80.4132 260.443 80.4132 260.953C80.4132 261.4 80.5773 261.769 80.9054 262.061C81.2426 262.343 81.7986 262.571 82.5734 262.744L85.1847 263.291C86.6157 263.592 87.6866 264.084 88.3976 264.768C89.1085 265.451 89.464 266.335 89.464 267.42C89.464 268.377 89.186 269.225 88.63 269.963C88.074 270.701 87.3038 271.275 86.3195 271.686C85.3442 272.096 84.2185 272.301 82.9425 272.301C81.074 272.301 79.5701 271.909 78.4308 271.125C77.3006 270.332 76.6215 269.234 76.3937 267.83L79.9073 267.502C80.0623 268.186 80.3995 268.705 80.9191 269.061C81.4477 269.407 82.1222 269.58 82.9425 269.58C83.7993 269.58 84.4874 269.407 85.007 269.061C85.5265 268.705 85.7863 268.272 85.7863 267.762C85.7863 266.905 85.1027 266.322 83.7355 266.012L81.1241 265.465C79.6567 265.146 78.5721 264.631 77.8702 263.92C77.1684 263.2 76.8175 262.284 76.8175 261.172C76.8175 260.224 77.0773 259.404 77.5968 258.711C78.1163 258.018 78.8409 257.48 79.7706 257.098C80.7003 256.715 81.7758 256.523 82.9972 256.523C84.7928 256.523 86.201 256.911 87.2218 257.686C88.2517 258.451 88.8898 259.481 89.1359 260.775ZM98.7406 256.715V259.504H89.977V256.715H98.7406ZM92.1234 253.078H95.7191V267.406C95.7191 268.008 95.8513 268.454 96.1156 268.746C96.3799 269.029 96.7992 269.17 97.3734 269.17C97.5284 269.17 97.7016 269.156 97.893 269.129C98.0844 269.102 98.2576 269.07 98.4125 269.033L99.0277 271.85C98.6449 271.968 98.2576 272.055 97.8656 272.109C97.4737 272.173 97.0818 272.205 96.6898 272.205C95.268 272.205 94.1514 271.831 93.3402 271.084C92.529 270.327 92.1234 269.298 92.1234 267.994V253.078Z" fill="#5EBDBD"/>
<g clip-path="url(#clip1_455_6665)">
<g opacity="0.8">
<path d="M231.498 391.113C240.703 409.772 258.504 422.701 279.091 425.69C330.941 433.224 351.639 496.94 314.122 533.513C299.223 548.033 292.423 568.961 295.941 589.466C304.798 641.105 250.598 680.488 204.223 656.104C185.806 646.42 163.809 646.42 145.393 656.104C99.0177 680.488 44.8175 641.105 53.6747 589.466C57.1928 568.961 50.3929 548.039 35.494 533.513C-2.02346 496.94 18.6808 433.224 70.5253 425.69C91.1114 422.701 108.913 409.766 118.118 391.113C141.309 344.129 208.301 344.129 231.491 391.113H231.498Z" stroke="url(#paint0_linear_455_6665)" stroke-width="4.35094" stroke-miterlimit="10"/>
<path d="M180.211 377.923C196.21 391.225 217.728 395.799 237.755 390.155C288.188 375.947 333.016 425.74 313.617 474.408C305.915 493.733 308.215 515.618 319.764 532.916C348.859 576.487 315.363 634.51 263.077 631.098C242.317 629.743 222.216 638.693 209.331 655.028C176.879 696.163 111.348 682.234 98.4379 631.458C93.31 611.295 78.5914 594.948 59.0744 587.738C9.92741 569.588 2.92241 502.957 47.2212 474.986C64.8114 463.879 75.813 444.828 76.6397 424.037C78.7157 371.683 139.915 344.433 180.211 377.923V377.923Z" stroke="url(#paint1_linear_455_6665)" stroke-width="4.35094" stroke-miterlimit="10"/>
<path d="M122.657 389.508C142.684 395.152 164.202 390.578 180.202 377.276C220.491 343.786 281.696 371.036 283.772 423.39C284.593 444.181 295.595 463.232 313.191 474.339C357.49 502.31 350.491 568.941 301.338 587.091C281.821 594.301 267.102 610.648 261.974 630.811C249.064 681.587 183.527 695.516 151.081 654.381C138.196 638.046 118.095 629.096 97.3348 630.451C45.0552 633.863 11.553 575.84 40.6483 532.269C52.2032 514.965 54.5029 493.086 46.7956 473.761C27.3966 425.093 72.2237 375.306 122.657 389.508V389.508Z" stroke="url(#paint2_linear_455_6665)" stroke-width="4.35094" stroke-miterlimit="10"/>
</g>
<g opacity="0.8">
<path d="M195.003 448.161C198.272 457.347 208.764 461.692 217.572 457.509C231.557 450.865 246.145 465.453 239.495 479.432C235.311 488.239 239.656 498.731 248.843 502.001C263.431 507.191 263.431 527.82 248.843 533.004C239.656 536.273 235.311 546.765 239.495 555.573C246.139 569.558 231.551 584.146 217.572 577.495C208.764 573.312 198.272 577.657 195.003 586.844C189.813 601.432 169.183 601.432 164 586.844C160.73 577.657 150.238 573.312 141.431 577.495C127.445 584.14 112.857 569.552 119.508 555.573C123.691 546.765 119.346 536.273 110.16 533.004C95.5717 527.814 95.5717 507.184 110.16 502.001C119.346 498.731 123.691 488.239 119.508 479.432C112.864 465.446 127.452 450.858 141.431 457.509C150.238 461.692 160.73 457.347 164 448.161C169.19 433.573 189.819 433.573 195.003 448.161Z" stroke="url(#paint3_linear_455_6665)" stroke-width="4.35094" stroke-miterlimit="10"/>
<path d="M167.283 447.502C173.815 454.737 185.178 454.737 191.71 447.502C202.084 436.009 221.147 443.903 220.358 459.367C219.861 469.107 227.891 477.138 237.631 476.64C253.096 475.851 260.99 494.908 249.497 505.288C242.262 511.821 242.262 523.183 249.497 529.716C260.99 540.089 253.096 559.153 237.631 558.363C227.891 557.866 219.861 565.897 220.358 575.637C221.147 591.101 202.09 598.995 191.71 587.502C185.178 580.267 173.815 580.267 167.283 587.502C156.909 598.995 137.846 591.101 138.635 575.637C139.132 565.897 131.102 557.866 121.362 558.363C105.897 559.153 98.0035 540.096 109.496 529.716C116.731 523.183 116.731 511.821 109.496 505.288C98.0035 494.914 105.897 475.851 121.362 476.64C131.102 477.138 139.132 469.107 138.635 459.367C137.846 443.903 156.903 436.009 167.283 447.502V447.502Z" stroke="url(#paint4_linear_455_6665)" stroke-width="4.35094" stroke-miterlimit="10"/>
</g>
<path opacity="0.8" d="M179.507 723.831C293.459 723.831 385.835 631.455 385.835 517.503C385.835 403.551 293.459 311.175 179.507 311.175C65.5557 311.175 -26.8203 403.551 -26.8203 517.503C-26.8203 631.455 65.5557 723.831 179.507 723.831Z" stroke="url(#paint5_linear_455_6665)" stroke-width="4.35094" stroke-miterlimit="10"/>
</g>
<rect x="24.5" y="92.5" width="47" height="47" rx="7.5" fill="#E4F1F1"/>
<rect x="24.5" y="92.5" width="47" height="47" rx="7.5" stroke="#CCEAEA"/>
<path d="M53.25 108.125H42.75C40.6614 108.125 38.6584 108.955 37.1815 110.432C35.7047 111.908 34.875 113.911 34.875 116C34.875 118.089 35.7047 120.092 37.1815 121.568C38.6584 123.045 40.6614 123.875 42.75 123.875H53.25C55.3386 123.875 57.3416 123.045 58.8185 121.568C60.2953 120.092 61.125 118.089 61.125 116C61.125 113.911 60.2953 111.908 58.8185 110.432C57.3416 108.955 55.3386 108.125 53.25 108.125ZM53.25 120.375C52.3847 120.375 51.5388 120.118 50.8194 119.638C50.0999 119.157 49.5392 118.474 49.208 117.674C48.8769 116.875 48.7903 115.995 48.9591 115.146C49.1279 114.298 49.5446 113.518 50.1564 112.906C50.7683 112.295 51.5478 111.878 52.3965 111.709C53.2451 111.54 54.1248 111.627 54.9242 111.958C55.7237 112.289 56.4069 112.85 56.8877 113.569C57.3684 114.289 57.625 115.135 57.625 116C57.625 117.16 57.1641 118.273 56.3436 119.094C55.5231 119.914 54.4103 120.375 53.25 120.375Z" fill="#5EBDBD"/>
</g>
<defs>
<linearGradient id="paint0_linear_455_6665" x1="174.809" y1="355.875" x2="174.809" y2="663.506" gradientUnits="userSpaceOnUse">
<stop stop-color="#F8F7F4"/>
<stop offset="0.235" stop-color="#F6F3EC"/>
<stop offset="0.57" stop-color="#EDEAE0"/>
<stop offset="0.8" stop-color="#EDEAE0"/>
</linearGradient>
<linearGradient id="paint1_linear_455_6665" x1="174.144" y1="363.219" x2="174.144" y2="679.125" gradientUnits="userSpaceOnUse">
<stop stop-color="#F8F7F4"/>
<stop offset="0.235" stop-color="#F6F3EC"/>
<stop offset="0.57" stop-color="#EDEAE0"/>
<stop offset="0.8" stop-color="#EDEAE0"/>
</linearGradient>
<linearGradient id="paint2_linear_455_6665" x1="186.27" y1="362.572" x2="186.27" y2="678.478" gradientUnits="userSpaceOnUse">
<stop stop-color="#F8F7F4"/>
<stop offset="0.235" stop-color="#F6F3EC"/>
<stop offset="0.57" stop-color="#EDEAE0"/>
<stop offset="0.8" stop-color="#EDEAE0"/>
</linearGradient>
<linearGradient id="paint3_linear_455_6665" x1="179.501" y1="437.22" x2="179.501" y2="597.785" gradientUnits="userSpaceOnUse">
<stop stop-color="#F8F7F4"/>
<stop offset="0.2" stop-color="#F6F3EC"/>
<stop offset="0.57" stop-color="#EDEAE0"/>
<stop offset="0.8" stop-color="#EDEAE0"/>
</linearGradient>
<linearGradient id="paint4_linear_455_6665" x1="179.497" y1="442.033" x2="179.497" y2="592.971" gradientUnits="userSpaceOnUse">
<stop stop-color="#F8F7F4"/>
<stop offset="0.2" stop-color="#F6F3EC"/>
<stop offset="0.57" stop-color="#EDEAE0"/>
<stop offset="0.8" stop-color="#EDEAE0"/>
</linearGradient>
<linearGradient id="paint5_linear_455_6665" x1="179.507" y1="311.175" x2="179.507" y2="723.831" gradientUnits="userSpaceOnUse">
<stop stop-color="#F8F7F4"/>
<stop offset="0.2" stop-color="#F6F3EC"/>
<stop offset="0.57" stop-color="#EDEAE0"/>
<stop offset="0.8" stop-color="#EDEAE0"/>
</linearGradient>
<clipPath id="clip0_455_6665">
<rect width="360" height="540" rx="12" fill="white"/>
</clipPath>
<clipPath id="clip1_455_6665">
<rect width="417" height="417" fill="white" transform="translate(-29 309)"/>
</clipPath>
</defs>
</svg>
