<svg width="360" height="540" viewBox="0 0 360 540" fill="none" xmlns="http://www.w3.org/2000/svg">
<g clip-path="url(#clip0_455_6659)">
<rect width="360" height="540" rx="16" fill="#F8F7F4"/>
<path d="M41.5 189L37.244 173.236L32.96 189H29.796L24.56 168.896H27.584L31.448 184.38L35.676 168.896H38.868L43.04 184.408L46.904 168.896H49.928L44.692 189H41.5ZM57.1343 189.28C52.9343 189.28 49.8543 185.976 49.8543 181.58C49.8543 177.184 52.9343 173.88 57.1343 173.88C61.3343 173.88 64.4143 177.184 64.4143 181.58C64.4143 185.976 61.3343 189.28 57.1343 189.28ZM57.1343 186.788C59.5703 186.788 61.5023 184.828 61.5023 181.58C61.5023 178.332 59.5703 176.4 57.1343 176.4C54.6983 176.4 52.7943 178.332 52.7943 181.58C52.7943 184.828 54.6983 186.788 57.1343 186.788ZM69.8452 181.412V189H67.0172V174.16H69.6492V177.296C70.6852 175.252 72.9252 173.964 75.3612 173.964V176.904C72.1692 176.736 69.8452 178.136 69.8452 181.412ZM80.1472 189H77.3192V168.896H80.1472V180.796L86.5032 174.16H89.8352L82.9752 181.356L90.4792 189H86.8392L80.1472 181.972V189ZM97.5807 189.28C93.2967 189.28 90.4127 186.172 90.4127 181.496C90.4127 177.1 93.4087 173.88 97.4967 173.88C101.921 173.88 104.861 177.464 104.357 182.28H93.2967C93.5207 185.304 95.0327 187.068 97.5247 187.068C99.6247 187.068 101.081 185.92 101.557 183.988H104.357C103.629 187.292 101.081 189.28 97.5807 189.28ZM97.4407 176.008C95.1727 176.008 93.6327 177.632 93.3247 180.404H101.361C101.221 177.66 99.7367 176.008 97.4407 176.008ZM105.746 181.58C105.746 177.072 108.322 173.88 112.326 173.88C114.314 173.88 116.05 174.888 117.086 176.708V168.896H119.914V189H117.282V186.34C116.218 188.216 114.426 189.28 112.326 189.28C108.322 189.28 105.746 186.032 105.746 181.58ZM108.686 181.58C108.686 184.884 110.422 186.76 112.886 186.76C115.294 186.76 117.086 184.8 117.086 181.524C117.086 178.192 115.238 176.372 112.886 176.372C110.422 176.372 108.686 178.22 108.686 181.58ZM135.353 189.28C131.153 189.28 128.073 185.976 128.073 181.58C128.073 177.184 131.153 173.88 135.353 173.88C139.553 173.88 142.633 177.184 142.633 181.58C142.633 185.976 139.553 189.28 135.353 189.28ZM135.353 186.788C137.789 186.788 139.721 184.828 139.721 181.58C139.721 178.332 137.789 176.4 135.353 176.4C132.917 176.4 131.013 178.332 131.013 181.58C131.013 184.828 132.917 186.788 135.353 186.788ZM148.064 180.628V189H145.236V174.16H147.868V176.624C148.876 174.972 150.556 173.88 152.6 173.88C155.652 173.88 157.668 175.84 157.668 179.396V189H154.84V180.348C154.84 177.8 153.72 176.372 151.62 176.372C149.688 176.372 148.064 177.996 148.064 180.628ZM170.887 189H168.059V176.568H164.783V174.16H168.059V173.068C168.059 170.212 169.599 168.644 172.399 168.644C173.239 168.644 173.911 168.784 174.471 169.008V171.304C174.023 171.108 173.519 171.052 173.015 171.052C171.671 171.052 170.887 171.668 170.887 173.096V174.16H175.031V176.568H170.887V189ZM180.603 170.716C180.603 171.78 179.763 172.592 178.559 172.592C177.355 172.592 176.515 171.78 176.515 170.716C176.515 169.624 177.355 168.84 178.559 168.84C179.763 168.84 180.603 169.624 180.603 170.716ZM179.987 189H177.159V174.16H179.987V189ZM185.174 189H181.982L187.246 181.412L182.318 174.16H185.594L189.262 179.76L192.93 174.16H195.982L191.11 181.496L196.318 189H193.07L189.094 183.092L185.174 189ZM203.786 189.28C199.502 189.28 196.618 186.172 196.618 181.496C196.618 177.1 199.614 173.88 203.702 173.88C208.126 173.88 211.066 177.464 210.562 182.28H199.502C199.726 185.304 201.238 187.068 203.73 187.068C205.83 187.068 207.286 185.92 207.762 183.988H210.562C209.834 187.292 207.286 189.28 203.786 189.28ZM203.646 176.008C201.378 176.008 199.838 177.632 199.53 180.404H207.566C207.426 177.66 205.942 176.008 203.646 176.008ZM225.049 184.576C225.049 187.488 222.781 189.28 218.833 189.28C214.913 189.28 212.589 187.348 212.309 184.156H215.025C215.137 186.004 216.621 187.152 218.889 187.152C220.877 187.152 222.193 186.452 222.193 185.052C222.193 183.82 221.437 183.288 219.589 182.924L217.181 182.476C214.437 181.944 212.897 180.544 212.897 178.304C212.897 175.7 215.165 173.88 218.609 173.88C222.165 173.88 224.573 175.784 224.825 178.836H222.109C221.941 177.044 220.625 176.008 218.637 176.008C216.845 176.008 215.641 176.764 215.641 178.052C215.641 179.256 216.397 179.816 218.189 180.152L220.709 180.628C223.649 181.16 225.049 182.448 225.049 184.576ZM241.8 186.256V188.748C240.932 189.14 240.176 189.28 239.28 189.28C236.536 189.28 234.632 187.796 234.632 184.52V176.568H231.356V174.16H234.632V169.764H237.46V174.16H241.94V176.568H237.46V183.876C237.46 185.92 238.44 186.648 239.952 186.648C240.624 186.648 241.212 186.536 241.8 186.256ZM250.165 189.28C245.965 189.28 242.885 185.976 242.885 181.58C242.885 177.184 245.965 173.88 250.165 173.88C254.365 173.88 257.445 177.184 257.445 181.58C257.445 185.976 254.365 189.28 250.165 189.28ZM250.165 186.788C252.601 186.788 254.533 184.828 254.533 181.58C254.533 178.332 252.601 176.4 250.165 176.4C247.729 176.4 245.825 178.332 245.825 181.58C245.825 184.828 247.729 186.788 250.165 186.788ZM28.788 217.412V225H25.96V210.16H28.592V213.296C29.628 211.252 31.868 209.964 34.304 209.964V212.904C31.112 212.736 28.788 214.136 28.788 217.412ZM42.3113 225.28C38.0273 225.28 35.1433 222.172 35.1433 217.496C35.1433 213.1 38.1393 209.88 42.2273 209.88C46.6513 209.88 49.5913 213.464 49.0873 218.28H38.0273C38.2513 221.304 39.7633 223.068 42.2553 223.068C44.3553 223.068 45.8113 221.92 46.2873 219.988H49.0873C48.3593 223.292 45.8113 225.28 42.3113 225.28ZM42.1713 212.008C39.9033 212.008 38.3633 213.632 38.0553 216.404H46.0913C45.9513 213.66 44.4673 212.008 42.1713 212.008ZM50.4766 217.58C50.4766 213.072 53.0526 209.88 57.0566 209.88C59.0446 209.88 60.7806 210.888 61.8166 212.708V204.896H64.6446V225H62.0126V222.34C60.9486 224.216 59.1566 225.28 57.0566 225.28C53.0526 225.28 50.4766 222.032 50.4766 217.58ZM53.4166 217.58C53.4166 220.884 55.1526 222.76 57.6166 222.76C60.0246 222.76 61.8166 220.8 61.8166 217.524C61.8166 214.192 59.9686 212.372 57.6166 212.372C55.1526 212.372 53.4166 214.22 53.4166 217.58ZM77.5638 218.896V210.16H80.3918V225H77.7598V222.648C76.9758 224.188 75.2398 225.28 73.2238 225.28C70.2278 225.28 68.1558 223.516 68.1558 219.708V210.16H70.9838V219.148C70.9838 221.724 72.2718 222.788 74.1198 222.788C76.0238 222.788 77.5638 221.22 77.5638 218.896ZM89.8912 225.308C85.8312 225.308 82.9752 222.116 82.9752 217.58C82.9752 213.1 85.8872 209.88 89.8912 209.88C93.5592 209.88 96.2192 212.316 96.7512 216.18H93.7832C93.4752 213.8 91.9912 212.372 89.9192 212.372C87.4832 212.372 85.8872 214.444 85.8872 217.58C85.8872 220.744 87.4832 222.788 89.9192 222.788C92.0192 222.788 93.4752 221.388 93.8112 218.98H96.7512C96.2472 222.9 93.6152 225.308 89.8912 225.308ZM105.285 225.28C101.001 225.28 98.1171 222.172 98.1171 217.496C98.1171 213.1 101.113 209.88 105.201 209.88C109.625 209.88 112.565 213.464 112.061 218.28H101.001C101.225 221.304 102.737 223.068 105.229 223.068C107.329 223.068 108.785 221.92 109.261 219.988H112.061C111.333 223.292 108.785 225.28 105.285 225.28ZM105.145 212.008C102.877 212.008 101.337 213.632 101.029 216.404H109.065C108.925 213.66 107.441 212.008 105.145 212.008ZM126.211 225.308C122.151 225.308 119.295 222.116 119.295 217.58C119.295 213.1 122.207 209.88 126.211 209.88C129.879 209.88 132.539 212.316 133.071 216.18H130.103C129.795 213.8 128.311 212.372 126.239 212.372C123.803 212.372 122.207 214.444 122.207 217.58C122.207 220.744 123.803 222.788 126.239 222.788C128.339 222.788 129.795 221.388 130.131 218.98H133.071C132.567 222.9 129.935 225.308 126.211 225.308ZM144.906 218.896V210.16H147.734V225H145.102V222.648C144.318 224.188 142.582 225.28 140.566 225.28C137.57 225.28 135.498 223.516 135.498 219.708V210.16H138.326V219.148C138.326 221.724 139.614 222.788 141.462 222.788C143.366 222.788 144.906 221.22 144.906 218.896ZM163.141 220.576C163.141 223.488 160.873 225.28 156.925 225.28C153.005 225.28 150.681 223.348 150.401 220.156H153.117C153.229 222.004 154.713 223.152 156.981 223.152C158.969 223.152 160.285 222.452 160.285 221.052C160.285 219.82 159.529 219.288 157.681 218.924L155.273 218.476C152.529 217.944 150.989 216.544 150.989 214.304C150.989 211.7 153.257 209.88 156.701 209.88C160.257 209.88 162.665 211.784 162.917 214.836H160.201C160.033 213.044 158.717 212.008 156.729 212.008C154.937 212.008 153.733 212.764 153.733 214.052C153.733 215.256 154.489 215.816 156.281 216.152L158.801 216.628C161.741 217.16 163.141 218.448 163.141 220.576ZM174.13 222.256V224.748C173.262 225.14 172.506 225.28 171.61 225.28C168.866 225.28 166.962 223.796 166.962 220.52V212.568H163.686V210.16H166.962V205.764H169.79V210.16H174.27V212.568H169.79V219.876C169.79 221.92 170.77 222.648 172.282 222.648C172.954 222.648 173.542 222.536 174.13 222.256ZM182.494 225.28C178.294 225.28 175.214 221.976 175.214 217.58C175.214 213.184 178.294 209.88 182.494 209.88C186.694 209.88 189.774 213.184 189.774 217.58C189.774 221.976 186.694 225.28 182.494 225.28ZM182.494 222.788C184.93 222.788 186.862 220.828 186.862 217.58C186.862 214.332 184.93 212.4 182.494 212.4C180.058 212.4 178.154 214.332 178.154 217.58C178.154 220.828 180.058 222.788 182.494 222.788ZM195.205 225H192.377V210.16H195.009V212.624C196.017 210.916 197.613 209.88 199.657 209.88C201.841 209.88 203.493 211 204.165 212.96C205.201 211.056 206.909 209.88 209.177 209.88C212.229 209.88 214.189 211.868 214.189 215.396V225H211.361V216.292C211.361 213.828 210.269 212.372 208.197 212.372C206.265 212.372 204.697 213.996 204.697 216.488V225H201.869V216.292C201.869 213.828 200.777 212.372 198.705 212.372C196.745 212.372 195.205 213.996 195.205 216.488V225ZM223.795 225.28C219.511 225.28 216.627 222.172 216.627 217.496C216.627 213.1 219.623 209.88 223.711 209.88C228.135 209.88 231.075 213.464 230.571 218.28H219.511C219.735 221.304 221.247 223.068 223.739 223.068C225.839 223.068 227.295 221.92 227.771 219.988H230.571C229.843 223.292 227.295 225.28 223.795 225.28ZM223.655 212.008C221.387 212.008 219.847 213.632 219.539 216.404H227.575C227.435 213.66 225.951 212.008 223.655 212.008ZM236.126 217.412V225H233.298V210.16H235.93V213.296C236.966 211.252 239.206 209.964 241.642 209.964V212.904C238.45 212.736 236.126 214.136 236.126 217.412ZM250.774 218.56H242.066V216.012H250.774V218.56ZM255.992 217.412V225H253.164V210.16H255.796V213.296C256.832 211.252 259.072 209.964 261.508 209.964V212.904C258.316 212.736 255.992 214.136 255.992 217.412ZM272.454 225V222.704C271.53 224.356 269.878 225.28 267.694 225.28C264.614 225.28 262.598 223.516 262.598 220.8C262.598 217.888 264.922 216.376 269.346 216.376C270.214 216.376 270.914 216.404 272.118 216.544V215.452C272.118 213.324 270.97 212.12 269.01 212.12C266.938 212.12 265.678 213.352 265.594 215.424H263.018C263.158 212.092 265.538 209.88 269.01 209.88C272.678 209.88 274.806 211.952 274.806 215.48V225H272.454ZM265.286 220.716C265.286 222.256 266.434 223.264 268.254 223.264C270.634 223.264 272.118 221.78 272.118 219.512V218.308C271.026 218.168 270.242 218.14 269.514 218.14C266.686 218.14 265.286 218.98 265.286 220.716ZM281.751 206.716C281.751 207.78 280.911 208.592 279.707 208.592C278.503 208.592 277.635 207.78 277.635 206.716C277.635 205.624 278.503 204.84 279.707 204.84C280.911 204.84 281.751 205.624 281.751 206.716ZM281.135 225H278.307V210.16H281.135V225ZM296.541 220.576C296.541 223.488 294.273 225.28 290.325 225.28C286.405 225.28 284.081 223.348 283.801 220.156H286.517C286.629 222.004 288.113 223.152 290.381 223.152C292.369 223.152 293.685 222.452 293.685 221.052C293.685 219.82 292.929 219.288 291.081 218.924L288.673 218.476C285.929 217.944 284.389 216.544 284.389 214.304C284.389 211.7 286.657 209.88 290.101 209.88C293.657 209.88 296.065 211.784 296.317 214.836H293.601C293.433 213.044 292.117 212.008 290.129 212.008C288.337 212.008 287.133 212.764 287.133 214.052C287.133 215.256 287.889 215.816 289.681 216.152L292.201 216.628C295.141 217.16 296.541 218.448 296.541 220.576ZM305.452 225.28C301.168 225.28 298.284 222.172 298.284 217.496C298.284 213.1 301.28 209.88 305.368 209.88C309.792 209.88 312.732 213.464 312.228 218.28H301.168C301.392 221.304 302.904 223.068 305.396 223.068C307.496 223.068 308.952 221.92 309.428 219.988H312.228C311.5 223.292 308.952 225.28 305.452 225.28ZM305.312 212.008C303.044 212.008 301.504 213.632 301.196 216.404H309.232C309.092 213.66 307.608 212.008 305.312 212.008ZM313.618 217.58C313.618 213.072 316.194 209.88 320.198 209.88C322.186 209.88 323.922 210.888 324.958 212.708V204.896H327.786V225H325.154V222.34C324.09 224.216 322.298 225.28 320.198 225.28C316.194 225.28 313.618 222.032 313.618 217.58ZM316.558 217.58C316.558 220.884 318.294 222.76 320.758 222.76C323.166 222.76 324.958 220.8 324.958 217.524C324.958 214.192 323.11 212.372 320.758 212.372C318.294 212.372 316.558 214.22 316.558 217.58ZM34.332 258.256V260.748C33.464 261.14 32.708 261.28 31.812 261.28C29.068 261.28 27.164 259.796 27.164 256.52V248.568H23.888V246.16H27.164V241.764H29.992V246.16H34.472V248.568H29.992V255.876C29.992 257.92 30.972 258.648 32.484 258.648C33.156 258.648 33.744 258.536 34.332 258.256ZM40.3349 242.716C40.3349 243.78 39.4949 244.592 38.2909 244.592C37.0869 244.592 36.2189 243.78 36.2189 242.716C36.2189 241.624 37.0869 240.84 38.2909 240.84C39.4949 240.84 40.3349 241.624 40.3349 242.716ZM39.7189 261H36.8909V246.16H39.7189V261ZM49.2168 261.308C45.1568 261.308 42.3008 258.116 42.3008 253.58C42.3008 249.1 45.2128 245.88 49.2168 245.88C52.8848 245.88 55.5448 248.316 56.0768 252.18H53.1088C52.8008 249.8 51.3168 248.372 49.2448 248.372C46.8088 248.372 45.2128 250.444 45.2128 253.58C45.2128 256.744 46.8088 258.788 49.2448 258.788C51.3448 258.788 52.8008 257.388 53.1368 254.98H56.0768C55.5728 258.9 52.9408 261.308 49.2168 261.308ZM61.4714 261H58.6434V240.896H61.4714V252.796L67.8274 246.16H71.1594L64.2994 253.356L71.8034 261H68.1634L61.4714 253.972V261ZM78.9049 261.28C74.6209 261.28 71.7369 258.172 71.7369 253.496C71.7369 249.1 74.7329 245.88 78.8209 245.88C83.2449 245.88 86.1849 249.464 85.6809 254.28H74.6209C74.8449 257.304 76.3569 259.068 78.8489 259.068C80.9489 259.068 82.4049 257.92 82.8809 255.988H85.6809C84.9529 259.292 82.4049 261.28 78.9049 261.28ZM78.7649 248.008C76.4969 248.008 74.9569 249.632 74.6489 252.404H82.6849C82.5449 249.66 81.0609 248.008 78.7649 248.008ZM96.725 258.256V260.748C95.857 261.14 95.101 261.28 94.205 261.28C91.461 261.28 89.557 259.796 89.557 256.52V248.568H86.281V246.16H89.557V241.764H92.385V246.16H96.865V248.568H92.385V255.876C92.385 257.92 93.365 258.648 94.877 258.648C95.549 258.648 96.137 258.536 96.725 258.256ZM110.989 256.576C110.989 259.488 108.721 261.28 104.773 261.28C100.853 261.28 98.5292 259.348 98.2492 256.156H100.965C101.077 258.004 102.561 259.152 104.829 259.152C106.817 259.152 108.133 258.452 108.133 257.052C108.133 255.82 107.377 255.288 105.529 254.924L103.121 254.476C100.377 253.944 98.8372 252.544 98.8372 250.304C98.8372 247.7 101.105 245.88 104.549 245.88C108.105 245.88 110.513 247.784 110.765 250.836H108.049C107.881 249.044 106.565 248.008 104.577 248.008C102.785 248.008 101.581 248.764 101.581 250.052C101.581 251.256 102.337 251.816 104.129 252.152L106.649 252.628C109.589 253.16 110.989 254.448 110.989 256.576ZM133.536 253.58C133.536 258.032 130.96 261.28 126.956 261.28C124.856 261.28 123.064 260.216 122 258.34V261H119.368V240.896H122.196V248.708C123.232 246.888 124.94 245.88 126.956 245.88C130.932 245.88 133.536 249.072 133.536 253.58ZM130.596 253.58C130.596 250.22 128.832 248.372 126.396 248.372C124.044 248.372 122.196 250.192 122.196 253.524C122.196 256.8 123.988 258.76 126.396 258.76C128.832 258.76 130.596 256.884 130.596 253.58ZM147.979 246.16L140.559 266.404H137.479L139.607 260.804L133.755 246.16H136.807L141.119 257.472L145.123 246.16H147.979Z" fill="#424242"/>
<path d="M169.25 257.276H166.59V261H162.726V257.276H153.738V254.392L163.51 242.072H166.59V253.888H169.25V257.276ZM157.994 253.888H162.726V247.644L157.994 253.888ZM170.979 251.564C170.979 245.292 173.611 241.792 178.287 241.792C182.963 241.792 185.623 245.292 185.623 251.564C185.623 257.808 183.019 261.28 178.287 261.28C173.555 261.28 170.979 257.808 170.979 251.564ZM174.983 251.564C174.983 255.624 176.103 257.808 178.287 257.808C180.443 257.808 181.619 255.624 181.619 251.564C181.619 247.476 180.443 245.264 178.287 245.264C176.159 245.264 174.983 247.476 174.983 251.564ZM193.414 253.664C189.886 253.664 187.282 251.004 187.282 247.784C187.282 244.536 189.886 241.904 193.414 241.904C196.914 241.904 199.546 244.536 199.546 247.784C199.546 251.004 196.914 253.664 193.414 253.664ZM198.062 261H194.954L205.706 242.072H208.814L198.062 261ZM193.414 250.92C195.01 250.92 196.354 249.856 196.354 247.784C196.354 245.712 195.01 244.648 193.414 244.648C191.846 244.648 190.446 245.712 190.446 247.784C190.446 249.856 191.846 250.92 193.414 250.92ZM210.83 261.252C207.302 261.252 204.698 258.592 204.698 255.372C204.698 252.124 207.302 249.492 210.83 249.492C214.358 249.492 216.962 252.124 216.962 255.372C216.962 258.592 214.358 261.252 210.83 261.252ZM210.83 258.48C212.426 258.48 213.798 257.444 213.798 255.372C213.798 253.272 212.426 252.236 210.83 252.236C209.262 252.236 207.862 253.272 207.862 255.372C207.862 257.444 209.262 258.48 210.83 258.48Z" fill="#D09E55"/>
<g clip-path="url(#clip1_455_6659)">
<g opacity="0.8">
<path d="M231.498 391.113C240.703 409.772 258.504 422.701 279.091 425.69C330.941 433.224 351.639 496.94 314.122 533.513C299.223 548.033 292.423 568.961 295.941 589.466C304.798 641.105 250.598 680.488 204.223 656.104C185.806 646.42 163.809 646.42 145.393 656.104C99.0177 680.488 44.8175 641.105 53.6747 589.466C57.1928 568.961 50.3929 548.039 35.494 533.513C-2.02346 496.94 18.6808 433.224 70.5253 425.69C91.1114 422.701 108.913 409.766 118.118 391.113C141.309 344.129 208.301 344.129 231.491 391.113H231.498Z" stroke="url(#paint0_linear_455_6659)" stroke-width="4.35094" stroke-miterlimit="10"/>
<path d="M180.211 377.923C196.21 391.225 217.728 395.799 237.755 390.155C288.188 375.947 333.016 425.74 313.617 474.408C305.915 493.733 308.215 515.618 319.764 532.916C348.859 576.487 315.363 634.51 263.077 631.098C242.317 629.743 222.216 638.693 209.331 655.028C176.879 696.163 111.348 682.234 98.4379 631.458C93.31 611.295 78.5914 594.948 59.0744 587.738C9.92741 569.588 2.92241 502.957 47.2212 474.986C64.8114 463.879 75.813 444.828 76.6397 424.037C78.7157 371.683 139.915 344.433 180.211 377.923V377.923Z" stroke="url(#paint1_linear_455_6659)" stroke-width="4.35094" stroke-miterlimit="10"/>
<path d="M122.657 389.508C142.684 395.152 164.202 390.578 180.202 377.276C220.491 343.786 281.696 371.036 283.772 423.39C284.593 444.181 295.595 463.232 313.191 474.339C357.49 502.31 350.491 568.941 301.338 587.091C281.821 594.301 267.102 610.648 261.974 630.811C249.064 681.587 183.527 695.516 151.081 654.381C138.196 638.046 118.095 629.096 97.3348 630.451C45.0552 633.863 11.553 575.84 40.6483 532.269C52.2032 514.965 54.5029 493.086 46.7956 473.761C27.3966 425.093 72.2237 375.306 122.657 389.508V389.508Z" stroke="url(#paint2_linear_455_6659)" stroke-width="4.35094" stroke-miterlimit="10"/>
</g>
<g opacity="0.8">
<path d="M195.003 448.161C198.272 457.347 208.764 461.692 217.572 457.509C231.557 450.865 246.145 465.453 239.495 479.432C235.311 488.239 239.656 498.731 248.843 502.001C263.431 507.191 263.431 527.82 248.843 533.004C239.656 536.273 235.311 546.765 239.495 555.573C246.139 569.558 231.551 584.146 217.572 577.495C208.764 573.312 198.272 577.657 195.003 586.844C189.813 601.432 169.183 601.432 164 586.844C160.73 577.657 150.238 573.312 141.431 577.495C127.445 584.14 112.857 569.552 119.508 555.573C123.691 546.765 119.346 536.273 110.16 533.004C95.5717 527.814 95.5717 507.184 110.16 502.001C119.346 498.731 123.691 488.239 119.508 479.432C112.864 465.446 127.452 450.858 141.431 457.509C150.238 461.692 160.73 457.347 164 448.161C169.19 433.573 189.819 433.573 195.003 448.161Z" stroke="url(#paint3_linear_455_6659)" stroke-width="4.35094" stroke-miterlimit="10"/>
<path d="M167.283 447.502C173.815 454.737 185.178 454.737 191.71 447.502C202.084 436.009 221.147 443.903 220.358 459.367C219.861 469.107 227.891 477.138 237.631 476.64C253.096 475.851 260.99 494.908 249.497 505.288C242.262 511.821 242.262 523.183 249.497 529.716C260.99 540.089 253.096 559.153 237.631 558.363C227.891 557.866 219.861 565.897 220.358 575.637C221.147 591.101 202.09 598.995 191.71 587.502C185.178 580.267 173.815 580.267 167.283 587.502C156.909 598.995 137.846 591.101 138.635 575.637C139.132 565.897 131.102 557.866 121.362 558.363C105.897 559.153 98.0035 540.096 109.496 529.716C116.731 523.183 116.731 511.821 109.496 505.288C98.0035 494.914 105.897 475.851 121.362 476.64C131.102 477.138 139.132 469.107 138.635 459.367C137.846 443.903 156.903 436.009 167.283 447.502V447.502Z" stroke="url(#paint4_linear_455_6659)" stroke-width="4.35094" stroke-miterlimit="10"/>
</g>
<path opacity="0.8" d="M179.507 723.831C293.459 723.831 385.835 631.455 385.835 517.503C385.835 403.551 293.459 311.175 179.507 311.175C65.5557 311.175 -26.8203 403.551 -26.8203 517.503C-26.8203 631.455 65.5557 723.831 179.507 723.831Z" stroke="url(#paint5_linear_455_6659)" stroke-width="4.35094" stroke-miterlimit="10"/>
</g>
<rect x="24.5" y="92.5" width="47" height="47" rx="7.5" fill="#F7EBDA"/>
<rect x="24.5" y="92.5" width="47" height="47" rx="7.5" stroke="#F5E1C4"/>
<path d="M58.8489 113.428C59.2442 113.347 59.5996 113.133 59.8549 112.82C60.1102 112.508 60.2498 112.117 60.25 111.714V109C60.25 108.536 60.0656 108.091 59.7374 107.763C59.4093 107.434 58.9641 107.25 58.5 107.25H37.5C37.0359 107.25 36.5908 107.434 36.2626 107.763C35.9344 108.091 35.75 108.536 35.75 109V111.714C35.7502 112.117 35.8898 112.508 36.1451 112.82C36.4004 113.133 36.7558 113.347 37.1511 113.428C37.7422 113.55 38.2729 113.873 38.654 114.341C39.035 114.809 39.2431 115.394 39.2431 115.998C39.2431 116.601 39.035 117.187 38.654 117.655C38.2729 118.123 37.7422 118.446 37.1511 118.568C36.7551 118.649 36.3991 118.864 36.1437 119.177C35.8883 119.49 35.7492 119.882 35.75 120.286V123C35.75 123.464 35.9344 123.909 36.2626 124.237C36.5908 124.566 37.0359 124.75 37.5 124.75H58.5C58.9641 124.75 59.4093 124.566 59.7374 124.237C60.0656 123.909 60.25 123.464 60.25 123V120.286C60.2498 119.883 60.1102 119.492 59.8549 119.18C59.5996 118.867 59.2442 118.653 58.8489 118.573C58.2578 118.45 57.7271 118.127 57.346 117.659C56.965 117.191 56.7569 116.606 56.7569 116.002C56.7569 115.399 56.965 114.813 57.346 114.345C57.7271 113.877 58.2578 113.554 58.8489 113.432V113.428ZM37.5 120.287C38.4884 120.086 39.3769 119.549 40.015 118.768C40.6531 117.987 41.0017 117.009 41.0017 116.001C41.0017 114.992 40.6531 114.014 40.015 113.233C39.3769 112.452 38.4884 111.915 37.5 111.714V109H43.625V123H37.5V120.287ZM58.5 120.287V123H45.375V109H58.5V111.713C57.5116 111.914 56.6231 112.451 55.985 113.232C55.3469 114.013 54.9983 114.991 54.9983 115.999C54.9983 117.008 55.3469 117.986 55.985 118.767C56.6231 119.548 57.5116 120.085 58.5 120.286V120.287Z" fill="#D09E55"/>
</g>
<defs>
<linearGradient id="paint0_linear_455_6659" x1="174.809" y1="355.875" x2="174.809" y2="663.506" gradientUnits="userSpaceOnUse">
<stop stop-color="#F8F7F4"/>
<stop offset="0.235" stop-color="#F6F3EC"/>
<stop offset="0.57" stop-color="#EDEAE0"/>
<stop offset="0.8" stop-color="#EDEAE0"/>
</linearGradient>
<linearGradient id="paint1_linear_455_6659" x1="174.144" y1="363.219" x2="174.144" y2="679.125" gradientUnits="userSpaceOnUse">
<stop stop-color="#F8F7F4"/>
<stop offset="0.235" stop-color="#F6F3EC"/>
<stop offset="0.57" stop-color="#EDEAE0"/>
<stop offset="0.8" stop-color="#EDEAE0"/>
</linearGradient>
<linearGradient id="paint2_linear_455_6659" x1="186.27" y1="362.572" x2="186.27" y2="678.478" gradientUnits="userSpaceOnUse">
<stop stop-color="#F8F7F4"/>
<stop offset="0.235" stop-color="#F6F3EC"/>
<stop offset="0.57" stop-color="#EDEAE0"/>
<stop offset="0.8" stop-color="#EDEAE0"/>
</linearGradient>
<linearGradient id="paint3_linear_455_6659" x1="179.501" y1="437.22" x2="179.501" y2="597.785" gradientUnits="userSpaceOnUse">
<stop stop-color="#F8F7F4"/>
<stop offset="0.2" stop-color="#F6F3EC"/>
<stop offset="0.57" stop-color="#EDEAE0"/>
<stop offset="0.8" stop-color="#EDEAE0"/>
</linearGradient>
<linearGradient id="paint4_linear_455_6659" x1="179.497" y1="442.033" x2="179.497" y2="592.971" gradientUnits="userSpaceOnUse">
<stop stop-color="#F8F7F4"/>
<stop offset="0.2" stop-color="#F6F3EC"/>
<stop offset="0.57" stop-color="#EDEAE0"/>
<stop offset="0.8" stop-color="#EDEAE0"/>
</linearGradient>
<linearGradient id="paint5_linear_455_6659" x1="179.507" y1="311.175" x2="179.507" y2="723.831" gradientUnits="userSpaceOnUse">
<stop stop-color="#F8F7F4"/>
<stop offset="0.2" stop-color="#F6F3EC"/>
<stop offset="0.57" stop-color="#EDEAE0"/>
<stop offset="0.8" stop-color="#EDEAE0"/>
</linearGradient>
<clipPath id="clip0_455_6659">
<rect width="360" height="540" rx="16" fill="white"/>
</clipPath>
<clipPath id="clip1_455_6659">
<rect width="417" height="417" fill="white" transform="translate(-29 309)"/>
</clipPath>
</defs>
</svg>
