<svg width="360" height="540" viewBox="0 0 360 540" fill="none" xmlns="http://www.w3.org/2000/svg">
<g clip-path="url(#clip0_455_6659)">
<rect width="360" height="540" rx="12" fill="#F8F7F4"/>
<path d="M29.6875 200L24.0547 179.629H27.2812L31.2461 195.406H31.4375L35.5664 179.629H38.7656L42.8809 195.42H43.0859L47.0371 179.629H50.291L44.6172 200H41.5273L37.248 184.756H37.084L32.8047 200H29.6875ZM56.4641 200.314C55.0332 200.314 53.7799 199.986 52.7044 199.33C51.638 198.674 50.8085 197.753 50.2161 196.568C49.6328 195.383 49.3411 194.007 49.3411 192.439C49.3411 190.854 49.6328 189.468 50.2161 188.283C50.8085 187.089 51.638 186.164 52.7044 185.508C53.7799 184.852 55.0332 184.523 56.4641 184.523C57.9042 184.523 59.1575 184.852 60.2239 185.508C61.2903 186.164 62.1197 187.089 62.7122 188.283C63.3046 189.468 63.6009 190.854 63.6009 192.439C63.6009 194.007 63.3046 195.383 62.7122 196.568C62.1197 197.753 61.2903 198.674 60.2239 199.33C59.1575 199.986 57.9042 200.314 56.4641 200.314ZM56.4641 197.812C57.4029 197.812 58.1777 197.566 58.7884 197.074C59.399 196.582 59.8502 195.93 60.1419 195.119C60.4427 194.299 60.593 193.406 60.593 192.439C60.593 191.455 60.4427 190.553 60.1419 189.732C59.8502 188.912 59.399 188.256 58.7884 187.764C58.1777 187.271 57.4029 187.025 56.4641 187.025C55.5345 187.025 54.7643 187.271 54.1536 187.764C53.552 188.256 53.1009 188.912 52.8001 189.732C52.4993 190.553 52.3489 191.455 52.3489 192.439C52.3489 193.406 52.4993 194.299 52.8001 195.119C53.1009 195.93 53.552 196.582 54.1536 197.074C54.7643 197.566 55.5345 197.812 56.4641 197.812ZM65.4673 200V184.715H68.3248V187.162H68.4888C68.7714 186.342 69.2636 185.695 69.9654 185.221C70.6763 184.738 71.4784 184.496 72.3716 184.496C72.5539 184.496 72.7681 184.505 73.0142 184.523C73.2694 184.533 73.4745 184.546 73.6295 184.564V187.408C73.511 187.372 73.2968 187.335 72.9869 187.299C72.6861 187.262 72.3808 187.244 72.0709 187.244C71.369 187.244 70.7401 187.395 70.1841 187.695C69.6373 187.987 69.2043 188.393 68.8853 188.912C68.5754 189.423 68.4205 190.015 68.4205 190.689V200H65.4673ZM77.5194 194.818L77.4784 191.195H78.0116L84.0955 184.715H87.6502L80.7186 192.098H80.2264L77.5194 194.818ZM74.785 200V179.629H77.7381V200H74.785ZM84.41 200L78.9412 192.754L80.992 190.662L88.0741 200H84.41ZM94.8624 200.314C93.3676 200.314 92.0734 199.991 90.9796 199.344C89.8859 198.697 89.0428 197.785 88.4503 196.609C87.867 195.424 87.5753 194.044 87.5753 192.467C87.5753 190.899 87.8624 189.518 88.4366 188.324C89.02 187.13 89.8357 186.201 90.8839 185.535C91.9412 184.861 93.1808 184.523 94.6027 184.523C95.4685 184.523 96.3071 184.665 97.1183 184.947C97.9295 185.23 98.6586 185.676 99.3058 186.287C99.9529 186.898 100.463 187.691 100.837 188.666C101.22 189.641 101.411 190.817 101.411 192.193V193.26H89.257V191.031H99.88L98.4991 191.77C98.4991 190.831 98.3533 190.001 98.0616 189.281C97.77 188.561 97.3325 188.001 96.7491 187.6C96.1749 187.189 95.4594 186.984 94.6027 186.984C93.7459 186.984 93.0122 187.189 92.4015 187.6C91.7999 188.01 91.3396 188.552 91.0206 189.227C90.7016 189.901 90.5421 190.639 90.5421 191.441V192.959C90.5421 194.007 90.7244 194.896 91.089 195.625C91.4536 196.354 91.9594 196.91 92.6066 197.293C93.2628 197.676 94.0239 197.867 94.8898 197.867C95.4549 197.867 95.9653 197.785 96.421 197.621C96.8859 197.457 97.2869 197.211 97.6241 196.883C97.9614 196.555 98.2166 196.149 98.3898 195.666L101.206 196.199C100.978 197.02 100.577 197.74 100.003 198.359C99.4288 198.979 98.7042 199.462 97.8292 199.809C96.9633 200.146 95.9744 200.314 94.8624 200.314ZM108.897 200.301C107.657 200.301 106.554 199.986 105.588 199.357C104.622 198.719 103.866 197.812 103.319 196.637C102.772 195.452 102.498 194.039 102.498 192.398C102.498 190.74 102.776 189.322 103.332 188.146C103.888 186.971 104.649 186.073 105.616 185.453C106.582 184.833 107.676 184.523 108.897 184.523C109.854 184.523 110.62 184.683 111.194 185.002C111.777 185.312 112.228 185.676 112.547 186.096C112.875 186.515 113.126 186.884 113.299 187.203H113.477V179.629H116.43V200H113.545V197.621H113.299C113.126 197.94 112.871 198.309 112.534 198.729C112.196 199.148 111.736 199.517 111.153 199.836C110.579 200.146 109.827 200.301 108.897 200.301ZM109.539 197.771C110.396 197.771 111.121 197.544 111.713 197.088C112.306 196.632 112.752 195.999 113.053 195.188C113.363 194.376 113.518 193.438 113.518 192.371C113.518 191.305 113.368 190.375 113.067 189.582C112.766 188.78 112.319 188.16 111.727 187.723C111.135 187.276 110.405 187.053 109.539 187.053C108.646 187.053 107.903 187.285 107.311 187.75C106.718 188.215 106.272 188.848 105.971 189.65C105.67 190.452 105.52 191.359 105.52 192.371C105.52 193.392 105.67 194.312 105.971 195.133C106.272 195.944 106.718 196.587 107.311 197.061C107.912 197.535 108.655 197.771 109.539 197.771ZM131.374 200.314C129.943 200.314 128.69 199.986 127.614 199.33C126.548 198.674 125.718 197.753 125.126 196.568C124.543 195.383 124.251 194.007 124.251 192.439C124.251 190.854 124.543 189.468 125.126 188.283C125.718 187.089 126.548 186.164 127.614 185.508C128.69 184.852 129.943 184.523 131.374 184.523C132.814 184.523 134.067 184.852 135.134 185.508C136.2 186.164 137.03 187.089 137.622 188.283C138.214 189.468 138.511 190.854 138.511 192.439C138.511 194.007 138.214 195.383 137.622 196.568C137.03 197.753 136.2 198.674 135.134 199.33C134.067 199.986 132.814 200.314 131.374 200.314ZM131.374 197.812C132.313 197.812 133.088 197.566 133.698 197.074C134.309 196.582 134.76 195.93 135.052 195.119C135.353 194.299 135.503 193.406 135.503 192.439C135.503 191.455 135.353 190.553 135.052 189.732C134.76 188.912 134.309 188.256 133.698 187.764C133.088 187.271 132.313 187.025 131.374 187.025C130.444 187.025 129.674 187.271 129.063 187.764C128.462 188.256 128.011 188.912 127.71 189.732C127.409 190.553 127.259 191.455 127.259 192.439C127.259 193.406 127.409 194.299 127.71 195.119C128.011 195.93 128.462 196.582 129.063 197.074C129.674 197.566 130.444 197.812 131.374 197.812ZM143.33 190.936V200H140.377V184.715H143.248V187.23H143.453C143.8 186.401 144.342 185.745 145.08 185.262C145.819 184.77 146.767 184.523 147.924 184.523C148.963 184.523 149.87 184.742 150.645 185.18C151.429 185.608 152.035 186.251 152.463 187.107C152.901 187.964 153.119 189.026 153.119 190.293V200H150.166V190.648C150.166 189.546 149.875 188.68 149.291 188.051C148.708 187.413 147.915 187.094 146.912 187.094C146.229 187.094 145.614 187.249 145.067 187.559C144.529 187.859 144.105 188.292 143.795 188.857C143.485 189.423 143.33 190.115 143.33 190.936ZM168.911 184.715V187.107H160.284V184.715H168.911ZM162.636 200V182.938C162.636 181.99 162.845 181.201 163.264 180.572C163.693 179.934 164.249 179.46 164.932 179.15C165.625 178.831 166.368 178.672 167.161 178.672C167.772 178.672 168.291 178.722 168.72 178.822C169.148 178.923 169.462 179.009 169.663 179.082L168.952 181.488C168.815 181.443 168.637 181.393 168.419 181.338C168.209 181.283 167.945 181.256 167.626 181.256C166.906 181.256 166.386 181.438 166.067 181.803C165.748 182.158 165.589 182.678 165.589 183.361V200H162.636ZM170.518 200V184.715H173.471V200H170.518ZM172.008 182.363C171.488 182.363 171.046 182.19 170.682 181.844C170.317 181.497 170.135 181.083 170.135 180.6C170.135 180.107 170.317 179.688 170.682 179.342C171.046 178.995 171.488 178.822 172.008 178.822C172.518 178.822 172.956 178.995 173.32 179.342C173.694 179.688 173.881 180.107 173.881 180.6C173.881 181.083 173.694 181.497 173.32 181.844C172.956 182.19 172.518 182.363 172.008 182.363ZM178.372 184.715L181.722 190.676L185.126 184.715H188.394L183.636 192.371L188.421 200H185.181L181.722 194.285L178.318 200H175.05L179.794 192.371L175.105 184.715H178.372ZM196.003 200.314C194.508 200.314 193.214 199.991 192.12 199.344C191.026 198.697 190.183 197.785 189.59 196.609C189.007 195.424 188.715 194.044 188.715 192.467C188.715 190.899 189.003 189.518 189.577 188.324C190.16 187.13 190.976 186.201 192.024 185.535C193.081 184.861 194.321 184.523 195.743 184.523C196.609 184.523 197.447 184.665 198.258 184.947C199.07 185.23 199.799 185.676 200.446 186.287C201.093 186.898 201.603 187.691 201.977 188.666C202.36 189.641 202.551 190.817 202.551 192.193V193.26H190.397V191.031H201.02L199.639 191.77C199.639 190.831 199.493 190.001 199.202 189.281C198.91 188.561 198.473 188.001 197.889 187.6C197.315 187.189 196.6 186.984 195.743 186.984C194.886 186.984 194.152 187.189 193.542 187.6C192.94 188.01 192.48 188.552 192.161 189.227C191.842 189.901 191.682 190.639 191.682 191.441V192.959C191.682 194.007 191.865 194.896 192.229 195.625C192.594 196.354 193.1 196.91 193.747 197.293C194.403 197.676 195.164 197.867 196.03 197.867C196.595 197.867 197.105 197.785 197.561 197.621C198.026 197.457 198.427 197.211 198.764 196.883C199.102 196.555 199.357 196.149 199.53 195.666L202.346 196.199C202.118 197.02 201.717 197.74 201.143 198.359C200.569 198.979 199.844 199.462 198.969 199.809C198.103 200.146 197.115 200.314 196.003 200.314ZM215.779 188.461L213.086 188.926C212.913 188.415 212.589 187.946 212.115 187.518C211.65 187.089 210.953 186.875 210.023 186.875C209.185 186.875 208.483 187.066 207.918 187.449C207.362 187.823 207.084 188.301 207.084 188.885C207.084 189.395 207.271 189.81 207.644 190.129C208.027 190.448 208.633 190.703 209.463 190.895L211.91 191.441C213.305 191.76 214.348 192.262 215.041 192.945C215.734 193.629 216.08 194.504 216.08 195.57C216.08 196.491 215.816 197.311 215.287 198.031C214.758 198.742 214.025 199.303 213.086 199.713C212.147 200.114 211.062 200.314 209.832 200.314C208.118 200.314 206.724 199.945 205.648 199.207C204.573 198.469 203.912 197.43 203.666 196.09L206.523 195.652C206.706 196.4 207.075 196.965 207.631 197.348C208.196 197.73 208.925 197.922 209.818 197.922C210.784 197.922 211.559 197.717 212.143 197.307C212.735 196.896 213.031 196.4 213.031 195.816C213.031 194.85 212.311 194.199 210.871 193.861L208.287 193.287C206.856 192.959 205.799 192.444 205.115 191.742C204.441 191.031 204.103 190.138 204.103 189.062C204.103 188.16 204.354 187.367 204.855 186.684C205.366 186 206.063 185.471 206.947 185.098C207.84 184.715 208.857 184.523 209.996 184.523C211.655 184.523 212.954 184.883 213.893 185.604C214.84 186.324 215.469 187.276 215.779 188.461ZM230.942 184.715V187.107H222.602V184.715H230.942ZM224.831 181.078H227.797V195.516C227.797 196.217 227.943 196.732 228.235 197.061C228.527 197.38 228.996 197.539 229.643 197.539C229.798 197.539 229.962 197.53 230.135 197.512C230.318 197.493 230.5 197.466 230.682 197.43L231.243 199.891C230.942 199.991 230.614 200.068 230.258 200.123C229.903 200.178 229.547 200.205 229.192 200.205C227.87 200.205 226.813 199.836 226.02 199.098C225.227 198.35 224.831 197.357 224.831 196.117V181.078ZM239.043 200.314C237.612 200.314 236.358 199.986 235.283 199.33C234.217 198.674 233.387 197.753 232.795 196.568C232.211 195.383 231.92 194.007 231.92 192.439C231.92 190.854 232.211 189.468 232.795 188.283C233.387 187.089 234.217 186.164 235.283 185.508C236.358 184.852 237.612 184.523 239.043 184.523C240.483 184.523 241.736 184.852 242.803 185.508C243.869 186.164 244.698 187.089 245.291 188.283C245.883 189.468 246.179 190.854 246.179 192.439C246.179 194.007 245.883 195.383 245.291 196.568C244.698 197.753 243.869 198.674 242.803 199.33C241.736 199.986 240.483 200.314 239.043 200.314ZM239.043 197.812C239.982 197.812 240.756 197.566 241.367 197.074C241.978 196.582 242.429 195.93 242.72 195.119C243.021 194.299 243.172 193.406 243.172 192.439C243.172 191.455 243.021 190.553 242.72 189.732C242.429 188.912 241.978 188.256 241.367 187.764C240.756 187.271 239.982 187.025 239.043 187.025C238.113 187.025 237.343 187.271 236.732 187.764C236.131 188.256 235.679 188.912 235.379 189.732C235.078 190.553 234.928 191.455 234.928 192.439C234.928 193.406 235.078 194.299 235.379 195.119C235.679 195.93 236.131 196.582 236.732 197.074C237.343 197.566 238.113 197.812 239.043 197.812ZM25.4219 236V220.715H28.2793V223.162H28.4434C28.7259 222.342 29.2181 221.695 29.9199 221.221C30.6309 220.738 31.4329 220.496 32.3262 220.496C32.5085 220.496 32.7227 220.505 32.9688 220.523C33.224 220.533 33.429 220.546 33.584 220.564V223.408C33.4655 223.372 33.2513 223.335 32.9414 223.299C32.6406 223.262 32.3353 223.244 32.0254 223.244C31.3236 223.244 30.6947 223.395 30.1387 223.695C29.5918 223.987 29.1589 224.393 28.8398 224.912C28.5299 225.423 28.375 226.015 28.375 226.689V236H25.4219ZM40.7688 236.314C39.274 236.314 37.9798 235.991 36.886 235.344C35.7923 234.697 34.9492 233.785 34.3567 232.609C33.7734 231.424 33.4817 230.044 33.4817 228.467C33.4817 226.899 33.7688 225.518 34.343 224.324C34.9264 223.13 35.7421 222.201 36.7903 221.535C37.8476 220.861 39.0872 220.523 40.5091 220.523C41.3749 220.523 42.2135 220.665 43.0247 220.947C43.8359 221.23 44.5651 221.676 45.2122 222.287C45.8593 222.898 46.3697 223.691 46.7434 224.666C47.1263 225.641 47.3177 226.817 47.3177 228.193V229.26H35.1634V227.031H45.7864L44.4055 227.77C44.4055 226.831 44.2597 226.001 43.968 225.281C43.6764 224.561 43.2389 224.001 42.6555 223.6C42.0813 223.189 41.3658 222.984 40.5091 222.984C39.6523 222.984 38.9186 223.189 38.3079 223.6C37.7063 224.01 37.246 224.552 36.927 225.227C36.608 225.901 36.4485 226.639 36.4485 227.441V228.959C36.4485 230.007 36.6308 230.896 36.9954 231.625C37.36 232.354 37.8658 232.91 38.513 233.293C39.1692 233.676 39.9303 233.867 40.7962 233.867C41.3613 233.867 41.8717 233.785 42.3274 233.621C42.7923 233.457 43.1933 233.211 43.5305 232.883C43.8678 232.555 44.123 232.149 44.2962 231.666L47.1126 232.199C46.8847 233.02 46.4837 233.74 45.9095 234.359C45.3352 234.979 44.6106 235.462 43.7356 235.809C42.8697 236.146 41.8808 236.314 40.7688 236.314ZM54.8033 236.301C53.5637 236.301 52.4608 235.986 51.4947 235.357C50.5285 234.719 49.772 233.812 49.2252 232.637C48.6783 231.452 48.4048 230.039 48.4048 228.398C48.4048 226.74 48.6828 225.322 49.2388 224.146C49.7948 222.971 50.5559 222.073 51.522 221.453C52.4882 220.833 53.5819 220.523 54.8033 220.523C55.7603 220.523 56.5259 220.683 57.1002 221.002C57.6835 221.312 58.1347 221.676 58.4537 222.096C58.7818 222.515 59.0324 222.884 59.2056 223.203H59.3834V215.629H62.3365V236H59.4517V233.621H59.2056C59.0324 233.94 58.7772 234.309 58.44 234.729C58.1028 235.148 57.6425 235.517 57.0591 235.836C56.4849 236.146 55.733 236.301 54.8033 236.301ZM55.4459 233.771C56.3026 233.771 57.0272 233.544 57.6197 233.088C58.2121 232.632 58.6588 231.999 58.9595 231.188C59.2694 230.376 59.4244 229.438 59.4244 228.371C59.4244 227.305 59.274 226.375 58.9732 225.582C58.6724 224.78 58.2258 224.16 57.6334 223.723C57.0409 223.276 56.3117 223.053 55.4459 223.053C54.5526 223.053 53.8098 223.285 53.2173 223.75C52.6249 224.215 52.1783 224.848 51.8775 225.65C51.5767 226.452 51.4263 227.359 51.4263 228.371C51.4263 229.392 51.5767 230.312 51.8775 231.133C52.1783 231.944 52.6249 232.587 53.2173 233.061C53.8189 233.535 54.5617 233.771 55.4459 233.771ZM74.5936 229.684V220.715H77.5467V236H74.6483V233.348H74.4842C74.1196 234.159 73.5545 234.838 72.7889 235.385C72.0233 235.932 71.0662 236.201 69.9178 236.191C68.9334 236.191 68.063 235.977 67.3065 235.549C66.5591 235.12 65.9712 234.478 65.5428 233.621C65.1235 232.764 64.9139 231.702 64.9139 230.436V220.715H67.867V230.094C67.867 231.124 68.1587 231.949 68.742 232.568C69.3254 233.188 70.0773 233.493 70.9979 233.484C71.5539 233.484 72.1053 233.348 72.6522 233.074C73.2082 232.801 73.6685 232.382 74.033 231.816C74.4067 231.251 74.5936 230.54 74.5936 229.684ZM86.5226 236.314C85.0551 236.314 83.7882 235.977 82.7218 235.303C81.6554 234.628 80.8351 233.699 80.2609 232.514C79.6866 231.329 79.3995 229.971 79.3995 228.439C79.3995 226.881 79.6912 225.509 80.2745 224.324C80.867 223.13 81.6919 222.201 82.7491 221.535C83.8155 220.861 85.0642 220.523 86.4952 220.523C87.6619 220.523 88.6964 220.738 89.5988 221.166C90.5102 221.585 91.2439 222.182 91.7999 222.957C92.365 223.732 92.6977 224.634 92.798 225.664H89.8995C89.7993 225.181 89.6033 224.739 89.3116 224.338C89.0291 223.937 88.6554 223.618 88.1905 223.381C87.7257 223.144 87.1743 223.025 86.5363 223.025C85.7068 223.025 84.9822 223.244 84.3624 223.682C83.7517 224.11 83.2732 224.725 82.9269 225.527C82.5805 226.329 82.4073 227.277 82.4073 228.371C82.4073 229.474 82.576 230.436 82.9132 231.256C83.2504 232.076 83.729 232.71 84.3488 233.156C84.9777 233.594 85.7068 233.812 86.5363 233.812C87.393 233.812 88.1222 233.576 88.7238 233.102C89.3344 232.628 89.7264 231.98 89.8995 231.16H92.798C92.6977 232.154 92.3787 233.038 91.8409 233.812C91.3032 234.587 90.5831 235.198 89.6808 235.645C88.7784 236.091 87.7257 236.314 86.5226 236.314ZM101.2 236.314C99.7048 236.314 98.4105 235.991 97.3168 235.344C96.223 234.697 95.3799 233.785 94.7875 232.609C94.2042 231.424 93.9125 230.044 93.9125 228.467C93.9125 226.899 94.1996 225.518 94.7738 224.324C95.3572 223.13 96.1729 222.201 97.2211 221.535C98.2784 220.861 99.518 220.523 100.94 220.523C101.806 220.523 102.644 220.665 103.455 220.947C104.267 221.23 104.996 221.676 105.643 222.287C106.29 222.898 106.801 223.691 107.174 224.666C107.557 225.641 107.748 226.817 107.748 228.193V229.26H95.5941V227.031H106.217L104.836 227.77C104.836 226.831 104.69 226.001 104.399 225.281C104.107 224.561 103.67 224.001 103.086 223.6C102.512 223.189 101.797 222.984 100.94 222.984C100.083 222.984 99.3493 223.189 98.7387 223.6C98.1371 224.01 97.6768 224.552 97.3578 225.227C97.0388 225.901 96.8793 226.639 96.8793 227.441V228.959C96.8793 230.007 97.0616 230.896 97.4262 231.625C97.7908 232.354 98.2966 232.91 98.9437 233.293C99.6 233.676 100.361 233.867 101.227 233.867C101.792 233.867 102.302 233.785 102.758 233.621C103.223 233.457 103.624 233.211 103.961 232.883C104.299 232.555 104.554 232.149 104.727 231.666L107.543 232.199C107.315 233.02 106.914 233.74 106.34 234.359C105.766 234.979 105.041 235.462 104.166 235.809C103.301 236.146 102.312 236.314 101.2 236.314ZM121.913 236.314C120.446 236.314 119.179 235.977 118.112 235.303C117.046 234.628 116.226 233.699 115.651 232.514C115.077 231.329 114.79 229.971 114.79 228.439C114.79 226.881 115.082 225.509 115.665 224.324C116.257 223.13 117.082 222.201 118.14 221.535C119.206 220.861 120.455 220.523 121.886 220.523C123.052 220.523 124.087 220.738 124.989 221.166C125.901 221.585 126.634 222.182 127.19 222.957C127.755 223.732 128.088 224.634 128.188 225.664H125.29C125.19 225.181 124.994 224.739 124.702 224.338C124.42 223.937 124.046 223.618 123.581 223.381C123.116 223.144 122.565 223.025 121.927 223.025C121.097 223.025 120.373 223.244 119.753 223.682C119.142 224.11 118.664 224.725 118.317 225.527C117.971 226.329 117.798 227.277 117.798 228.371C117.798 229.474 117.966 230.436 118.304 231.256C118.641 232.076 119.119 232.71 119.739 233.156C120.368 233.594 121.097 233.812 121.927 233.812C122.783 233.812 123.513 233.576 124.114 233.102C124.725 232.628 125.117 231.98 125.29 231.16H128.188C128.088 232.154 127.769 233.038 127.231 233.812C126.694 234.587 125.974 235.198 125.071 235.645C124.169 236.091 123.116 236.314 121.913 236.314ZM139.694 229.684V220.715H142.647V236H139.748V233.348H139.584C139.22 234.159 138.655 234.838 137.889 235.385C137.123 235.932 136.166 236.201 135.018 236.191C134.033 236.191 133.163 235.977 132.406 235.549C131.659 235.12 131.071 234.478 130.643 233.621C130.224 232.764 130.014 231.702 130.014 230.436V220.715H132.967V230.094C132.967 231.124 133.259 231.949 133.842 232.568C134.425 233.188 135.177 233.493 136.098 233.484C136.654 233.484 137.205 233.348 137.752 233.074C138.308 232.801 138.768 232.382 139.133 231.816C139.507 231.251 139.694 230.54 139.694 229.684ZM156.64 224.461L153.947 224.926C153.774 224.415 153.45 223.946 152.976 223.518C152.511 223.089 151.814 222.875 150.884 222.875C150.046 222.875 149.344 223.066 148.779 223.449C148.223 223.823 147.945 224.301 147.945 224.885C147.945 225.395 148.132 225.81 148.505 226.129C148.888 226.448 149.494 226.703 150.324 226.895L152.771 227.441C154.166 227.76 155.209 228.262 155.902 228.945C156.595 229.629 156.941 230.504 156.941 231.57C156.941 232.491 156.677 233.311 156.148 234.031C155.619 234.742 154.886 235.303 153.947 235.713C153.008 236.114 151.923 236.314 150.693 236.314C148.979 236.314 147.585 235.945 146.509 235.207C145.434 234.469 144.773 233.43 144.527 232.09L147.384 231.652C147.567 232.4 147.936 232.965 148.492 233.348C149.057 233.73 149.786 233.922 150.679 233.922C151.645 233.922 152.42 233.717 153.003 233.307C153.596 232.896 153.892 232.4 153.892 231.816C153.892 230.85 153.172 230.199 151.732 229.861L149.148 229.287C147.717 228.959 146.66 228.444 145.976 227.742C145.302 227.031 144.964 226.138 144.964 225.062C144.964 224.16 145.215 223.367 145.716 222.684C146.227 222 146.924 221.471 147.808 221.098C148.701 220.715 149.718 220.523 150.857 220.523C152.516 220.523 153.815 220.883 154.753 221.604C155.701 222.324 156.33 223.276 156.64 224.461ZM165.848 220.715V223.107H157.509V220.715H165.848ZM159.737 217.078H162.704V231.516C162.704 232.217 162.85 232.732 163.141 233.061C163.433 233.38 163.902 233.539 164.55 233.539C164.705 233.539 164.869 233.53 165.042 233.512C165.224 233.493 165.406 233.466 165.589 233.43L166.149 235.891C165.848 235.991 165.52 236.068 165.165 236.123C164.809 236.178 164.454 236.205 164.098 236.205C162.777 236.205 161.72 235.836 160.927 235.098C160.134 234.35 159.737 233.357 159.737 232.117V217.078ZM173.949 236.314C172.518 236.314 171.265 235.986 170.19 235.33C169.123 234.674 168.294 233.753 167.701 232.568C167.118 231.383 166.826 230.007 166.826 228.439C166.826 226.854 167.118 225.468 167.701 224.283C168.294 223.089 169.123 222.164 170.19 221.508C171.265 220.852 172.518 220.523 173.949 220.523C175.389 220.523 176.643 220.852 177.709 221.508C178.775 222.164 179.605 223.089 180.197 224.283C180.79 225.468 181.086 226.854 181.086 228.439C181.086 230.007 180.79 231.383 180.197 232.568C179.605 233.753 178.775 234.674 177.709 235.33C176.643 235.986 175.389 236.314 173.949 236.314ZM173.949 233.812C174.888 233.812 175.663 233.566 176.274 233.074C176.884 232.582 177.335 231.93 177.627 231.119C177.928 230.299 178.078 229.406 178.078 228.439C178.078 227.455 177.928 226.553 177.627 225.732C177.335 224.912 176.884 224.256 176.274 223.764C175.663 223.271 174.888 223.025 173.949 223.025C173.02 223.025 172.249 223.271 171.639 223.764C171.037 224.256 170.586 224.912 170.285 225.732C169.984 226.553 169.834 227.455 169.834 228.439C169.834 229.406 169.984 230.299 170.285 231.119C170.586 231.93 171.037 232.582 171.639 233.074C172.249 233.566 173.02 233.812 173.949 233.812ZM182.952 236V220.715H185.783V223.23H185.988C186.307 222.383 186.826 221.722 187.546 221.248C188.275 220.765 189.141 220.523 190.144 220.523C191.165 220.523 192.017 220.765 192.701 221.248C193.393 221.722 193.908 222.383 194.245 223.23H194.41C194.774 222.401 195.353 221.745 196.146 221.262C196.939 220.77 197.882 220.523 198.976 220.523C200.361 220.523 201.496 220.961 202.38 221.836C203.264 222.702 203.706 224.01 203.706 225.76V236H200.726V226.033C200.726 224.994 200.443 224.247 199.878 223.791C199.313 223.326 198.639 223.094 197.855 223.094C196.889 223.094 196.137 223.395 195.599 223.996C195.07 224.589 194.806 225.34 194.806 226.252V236H191.826V225.842C191.826 225.012 191.57 224.347 191.06 223.846C190.55 223.344 189.88 223.094 189.05 223.094C188.485 223.094 187.961 223.244 187.478 223.545C187.004 223.837 186.621 224.247 186.329 224.775C186.047 225.295 185.906 225.896 185.906 226.58V236H182.952ZM212.846 236.314C211.352 236.314 210.057 235.991 208.964 235.344C207.87 234.697 207.027 233.785 206.434 232.609C205.851 231.424 205.559 230.044 205.559 228.467C205.559 226.899 205.846 225.518 206.421 224.324C207.004 223.13 207.82 222.201 208.868 221.535C209.925 220.861 211.165 220.523 212.587 220.523C213.452 220.523 214.291 220.665 215.102 220.947C215.913 221.23 216.643 221.676 217.29 222.287C217.937 222.898 218.447 223.691 218.821 224.666C219.204 225.641 219.395 226.817 219.395 228.193V229.26H207.241V227.031H217.864L216.483 227.77C216.483 226.831 216.337 226.001 216.046 225.281C215.754 224.561 215.316 224.001 214.733 223.6C214.159 223.189 213.443 222.984 212.587 222.984C211.73 222.984 210.996 223.189 210.385 223.6C209.784 224.01 209.324 224.552 209.005 225.227C208.686 225.901 208.526 226.639 208.526 227.441V228.959C208.526 230.007 208.708 230.896 209.073 231.625C209.437 232.354 209.943 232.91 210.59 233.293C211.247 233.676 212.008 233.867 212.874 233.867C213.439 233.867 213.949 233.785 214.405 233.621C214.87 233.457 215.271 233.211 215.608 232.883C215.945 232.555 216.2 232.149 216.374 231.666L219.19 232.199C218.962 233.02 218.561 233.74 217.987 234.359C217.413 234.979 216.688 235.462 215.813 235.809C214.947 236.146 213.958 236.314 212.846 236.314ZM221.193 236V220.715H224.051V223.162H224.215C224.497 222.342 224.99 221.695 225.691 221.221C226.402 220.738 227.204 220.496 228.098 220.496C228.28 220.496 228.494 220.505 228.74 220.523C228.995 220.533 229.2 220.546 229.355 220.564V223.408C229.237 223.372 229.023 223.335 228.713 223.299C228.412 223.262 228.107 223.244 227.797 223.244C227.095 223.244 226.466 223.395 225.91 223.695C225.363 223.987 224.93 224.393 224.611 224.912C224.301 225.423 224.146 226.015 224.146 226.689V236H221.193ZM238.591 226.115V228.686H229.54V226.115H238.591ZM241.086 236V220.715H243.944V223.162H244.108C244.39 222.342 244.883 221.695 245.584 221.221C246.295 220.738 247.097 220.496 247.991 220.496C248.173 220.496 248.387 220.505 248.633 220.523C248.888 220.533 249.094 220.546 249.249 220.564V223.408C249.13 223.372 248.916 223.335 248.606 223.299C248.305 223.262 248 223.244 247.69 223.244C246.988 223.244 246.359 223.395 245.803 223.695C245.256 223.987 244.823 224.393 244.504 224.912C244.194 225.423 244.04 226.015 244.04 226.689V236H241.086ZM254.697 236.328C253.731 236.328 252.856 236.15 252.072 235.795C251.288 235.43 250.668 234.902 250.213 234.209C249.757 233.516 249.529 232.673 249.529 231.68C249.529 230.814 249.693 230.107 250.021 229.561C250.358 229.005 250.81 228.562 251.375 228.234C251.94 227.906 252.569 227.66 253.261 227.496C253.954 227.332 254.665 227.204 255.394 227.113C256.315 227.013 257.058 226.926 257.623 226.854C258.188 226.781 258.598 226.667 258.853 226.512C259.118 226.348 259.25 226.088 259.25 225.732V225.664C259.25 224.798 259.004 224.128 258.511 223.654C258.028 223.18 257.308 222.943 256.351 222.943C255.358 222.943 254.569 223.162 253.986 223.6C253.412 224.028 253.015 224.516 252.797 225.062L249.994 224.42C250.331 223.49 250.819 222.743 251.457 222.178C252.104 221.604 252.842 221.184 253.672 220.92C254.51 220.656 255.385 220.523 256.297 220.523C256.907 220.523 257.554 220.596 258.238 220.742C258.922 220.879 259.564 221.139 260.166 221.521C260.776 221.895 261.273 222.433 261.656 223.135C262.039 223.837 262.23 224.743 262.23 225.855V236H259.318V233.908H259.209C259.026 234.282 258.739 234.656 258.347 235.029C257.965 235.403 257.472 235.713 256.871 235.959C256.269 236.205 255.545 236.328 254.697 236.328ZM255.34 233.949C256.169 233.949 256.875 233.79 257.459 233.471C258.042 233.143 258.489 232.714 258.799 232.186C259.108 231.657 259.263 231.096 259.263 230.504V228.521C259.154 228.622 258.949 228.717 258.648 228.809C258.347 228.9 258.006 228.977 257.623 229.041C257.24 229.105 256.866 229.164 256.502 229.219C256.137 229.264 255.832 229.301 255.586 229.328C255.011 229.41 254.487 229.538 254.013 229.711C253.539 229.875 253.157 230.121 252.865 230.449C252.582 230.768 252.441 231.192 252.441 231.721C252.441 232.459 252.715 233.015 253.261 233.389C253.808 233.762 254.501 233.949 255.34 233.949ZM264.808 236V220.715H267.761V236H264.808ZM266.298 218.363C265.778 218.363 265.336 218.19 264.972 217.844C264.607 217.497 264.425 217.083 264.425 216.6C264.425 216.107 264.607 215.688 264.972 215.342C265.336 214.995 265.778 214.822 266.298 214.822C266.808 214.822 267.246 214.995 267.61 215.342C267.984 215.688 268.171 216.107 268.171 216.6C268.171 217.083 267.984 217.497 267.61 217.844C267.246 218.19 266.808 218.363 266.298 218.363ZM281.754 224.461L279.061 224.926C278.888 224.415 278.564 223.946 278.09 223.518C277.625 223.089 276.928 222.875 275.998 222.875C275.16 222.875 274.458 223.066 273.893 223.449C273.337 223.823 273.059 224.301 273.059 224.885C273.059 225.395 273.246 225.81 273.619 226.129C274.002 226.448 274.608 226.703 275.438 226.895L277.885 227.441C279.28 227.76 280.323 228.262 281.016 228.945C281.709 229.629 282.055 230.504 282.055 231.57C282.055 232.491 281.791 233.311 281.262 234.031C280.733 234.742 280 235.303 279.061 235.713C278.122 236.114 277.037 236.314 275.807 236.314C274.093 236.314 272.699 235.945 271.623 235.207C270.548 234.469 269.887 233.43 269.641 232.09L272.498 231.652C272.681 232.4 273.05 232.965 273.606 233.348C274.171 233.73 274.9 233.922 275.793 233.922C276.759 233.922 277.534 233.717 278.117 233.307C278.71 232.896 279.006 232.4 279.006 231.816C279.006 230.85 278.286 230.199 276.846 229.861L274.262 229.287C272.831 228.959 271.774 228.444 271.09 227.742C270.416 227.031 270.078 226.138 270.078 225.062C270.078 224.16 270.329 223.367 270.83 222.684C271.341 222 272.038 221.471 272.922 221.098C273.815 220.715 274.832 220.523 275.971 220.523C277.63 220.523 278.929 220.883 279.867 221.604C280.815 222.324 281.444 223.276 281.754 224.461ZM290.429 236.314C288.934 236.314 287.64 235.991 286.546 235.344C285.453 234.697 284.61 233.785 284.017 232.609C283.434 231.424 283.142 230.044 283.142 228.467C283.142 226.899 283.429 225.518 284.004 224.324C284.587 223.13 285.403 222.201 286.451 221.535C287.508 220.861 288.748 220.523 290.17 220.523C291.035 220.523 291.874 220.665 292.685 220.947C293.496 221.23 294.226 221.676 294.873 222.287C295.52 222.898 296.03 223.691 296.404 224.666C296.787 225.641 296.978 226.817 296.978 228.193V229.26H284.824V227.031H295.447L294.066 227.77C294.066 226.831 293.92 226.001 293.629 225.281C293.337 224.561 292.899 224.001 292.316 223.6C291.742 223.189 291.026 222.984 290.17 222.984C289.313 222.984 288.579 223.189 287.968 223.6C287.367 224.01 286.907 224.552 286.587 225.227C286.268 225.901 286.109 226.639 286.109 227.441V228.959C286.109 230.007 286.291 230.896 286.656 231.625C287.02 232.354 287.526 232.91 288.173 233.293C288.83 233.676 289.591 233.867 290.457 233.867C291.022 233.867 291.532 233.785 291.988 233.621C292.453 233.457 292.854 233.211 293.191 232.883C293.528 232.555 293.783 232.149 293.957 231.666L296.773 232.199C296.545 233.02 296.144 233.74 295.57 234.359C294.996 234.979 294.271 235.462 293.396 235.809C292.53 236.146 291.541 236.314 290.429 236.314ZM304.464 236.301C303.224 236.301 302.121 235.986 301.155 235.357C300.189 234.719 299.432 233.812 298.886 232.637C298.339 231.452 298.065 230.039 298.065 228.398C298.065 226.74 298.343 225.322 298.899 224.146C299.455 222.971 300.216 222.073 301.182 221.453C302.149 220.833 303.242 220.523 304.464 220.523C305.421 220.523 306.186 220.683 306.761 221.002C307.344 221.312 307.795 221.676 308.114 222.096C308.442 222.515 308.693 222.884 308.866 223.203H309.044V215.629H311.997V236H309.112V233.621H308.866C308.693 233.94 308.438 234.309 308.1 234.729C307.763 235.148 307.303 235.517 306.72 235.836C306.145 236.146 305.393 236.301 304.464 236.301ZM305.106 233.771C305.963 233.771 306.688 233.544 307.28 233.088C307.873 232.632 308.319 231.999 308.62 231.188C308.93 230.376 309.085 229.438 309.085 228.371C309.085 227.305 308.934 226.375 308.634 225.582C308.333 224.78 307.886 224.16 307.294 223.723C306.701 223.276 305.972 223.053 305.106 223.053C304.213 223.053 303.47 223.285 302.878 223.75C302.285 224.215 301.839 224.848 301.538 225.65C301.237 226.452 301.087 227.359 301.087 228.371C301.087 229.392 301.237 230.312 301.538 231.133C301.839 231.944 302.285 232.587 302.878 233.061C303.479 233.535 304.222 233.771 305.106 233.771ZM32.5312 256.715V259.107H24.1914V256.715H32.5312ZM26.4199 253.078H29.3867V267.516C29.3867 268.217 29.5326 268.732 29.8242 269.061C30.1159 269.38 30.5853 269.539 31.2324 269.539C31.3874 269.539 31.5514 269.53 31.7246 269.512C31.9069 269.493 32.0892 269.466 32.2715 269.43L32.832 271.891C32.5312 271.991 32.2031 272.068 31.8477 272.123C31.4922 272.178 31.1367 272.205 30.7812 272.205C29.4596 272.205 28.4023 271.836 27.6094 271.098C26.8164 270.35 26.4199 269.357 26.4199 268.117V253.078ZM34.3841 272V256.715H37.3372V272H34.3841ZM35.8743 254.363C35.3548 254.363 34.9127 254.19 34.5481 253.844C34.1835 253.497 34.0013 253.083 34.0013 252.6C34.0013 252.107 34.1835 251.688 34.5481 251.342C34.9127 250.995 35.3548 250.822 35.8743 250.822C36.3847 250.822 36.8222 250.995 37.1868 251.342C37.5605 251.688 37.7473 252.107 37.7473 252.6C37.7473 253.083 37.5605 253.497 37.1868 253.844C36.8222 254.19 36.3847 254.363 35.8743 254.363ZM46.313 272.314C44.8456 272.314 43.5787 271.977 42.5123 271.303C41.4459 270.628 40.6255 269.699 40.0513 268.514C39.4771 267.329 39.19 265.971 39.19 264.439C39.19 262.881 39.4817 261.509 40.065 260.324C40.6574 259.13 41.4823 258.201 42.5396 257.535C43.606 256.861 44.8547 256.523 46.2857 256.523C47.4524 256.523 48.4869 256.738 49.3892 257.166C50.3007 257.585 51.0344 258.182 51.5904 258.957C52.1555 259.732 52.4882 260.634 52.5884 261.664H49.69C49.5897 261.181 49.3938 260.739 49.1021 260.338C48.8196 259.937 48.4459 259.618 47.981 259.381C47.5162 259.144 46.9647 259.025 46.3267 259.025C45.4973 259.025 44.7727 259.244 44.1529 259.682C43.5422 260.11 43.0637 260.725 42.7173 261.527C42.371 262.329 42.1978 263.277 42.1978 264.371C42.1978 265.474 42.3664 266.436 42.7037 267.256C43.0409 268.076 43.5194 268.71 44.1392 269.156C44.7681 269.594 45.4973 269.812 46.3267 269.812C47.1835 269.812 47.9127 269.576 48.5142 269.102C49.1249 268.628 49.5168 267.98 49.69 267.16H52.5884C52.4882 268.154 52.1692 269.038 51.6314 269.812C51.0936 270.587 50.3736 271.198 49.4712 271.645C48.5689 272.091 47.5162 272.314 46.313 272.314ZM57.1483 266.818L57.1073 263.195H57.6405L63.7245 256.715H67.2791L60.3475 264.098H59.8553L57.1483 266.818ZM54.4139 272V251.629H57.367V272H54.4139ZM64.0389 272L58.5702 264.754L60.6209 262.662L67.703 272H64.0389ZM74.4913 272.314C72.9965 272.314 71.7023 271.991 70.6085 271.344C69.5148 270.697 68.6717 269.785 68.0792 268.609C67.4959 267.424 67.2042 266.044 67.2042 264.467C67.2042 262.899 67.4913 261.518 68.0655 260.324C68.6489 259.13 69.4646 258.201 70.5128 257.535C71.5701 256.861 72.8097 256.523 74.2316 256.523C75.0974 256.523 75.936 256.665 76.7472 256.947C77.5584 257.23 78.2876 257.676 78.9347 258.287C79.5818 258.898 80.0922 259.691 80.4659 260.666C80.8488 261.641 81.0402 262.817 81.0402 264.193V265.26H68.8859V263.031H79.5089L78.128 263.77C78.128 262.831 77.9822 262.001 77.6905 261.281C77.3989 260.561 76.9614 260.001 76.378 259.6C75.8038 259.189 75.0883 258.984 74.2316 258.984C73.3748 258.984 72.6411 259.189 72.0304 259.6C71.4288 260.01 70.9685 260.552 70.6495 261.227C70.3305 261.901 70.171 262.639 70.171 263.441V264.959C70.171 266.007 70.3533 266.896 70.7179 267.625C71.0825 268.354 71.5883 268.91 72.2355 269.293C72.8917 269.676 73.6528 269.867 74.5187 269.867C75.0838 269.867 75.5942 269.785 76.0499 269.621C76.5148 269.457 76.9158 269.211 77.253 268.883C77.5903 268.555 77.8455 268.149 78.0187 267.666L80.8351 268.199C80.6072 269.02 80.2062 269.74 79.632 270.359C79.0577 270.979 78.3331 271.462 77.4581 271.809C76.5922 272.146 75.6033 272.314 74.4913 272.314ZM89.9477 256.715V259.107H81.6078V256.715H89.9477ZM83.8363 253.078H86.8031V267.516C86.8031 268.217 86.949 268.732 87.2406 269.061C87.5323 269.38 88.0017 269.539 88.6488 269.539C88.8038 269.539 88.9678 269.53 89.141 269.512C89.3233 269.493 89.5056 269.466 89.6879 269.43L90.2484 271.891C89.9477 271.991 89.6195 272.068 89.2641 272.123C88.9086 272.178 88.5531 272.205 88.1977 272.205C86.876 272.205 85.8187 271.836 85.0258 271.098C84.2328 270.35 83.8363 269.357 83.8363 268.117V253.078ZM102.984 260.461L100.291 260.926C100.118 260.415 99.794 259.946 99.32 259.518C98.8552 259.089 98.1579 258.875 97.2282 258.875C96.3897 258.875 95.6878 259.066 95.1227 259.449C94.5667 259.823 94.2887 260.301 94.2887 260.885C94.2887 261.395 94.4756 261.81 94.8493 262.129C95.2321 262.448 95.8382 262.703 96.6677 262.895L99.1149 263.441C100.509 263.76 101.553 264.262 102.246 264.945C102.938 265.629 103.285 266.504 103.285 267.57C103.285 268.491 103.021 269.311 102.492 270.031C101.963 270.742 101.23 271.303 100.291 271.713C99.3519 272.114 98.2673 272.314 97.0368 272.314C95.3233 272.314 93.9287 271.945 92.8532 271.207C91.7777 270.469 91.1169 269.43 90.8708 268.09L93.7282 267.652C93.9105 268.4 94.2796 268.965 94.8356 269.348C95.4007 269.73 96.1299 269.922 97.0231 269.922C97.9893 269.922 98.764 269.717 99.3473 269.307C99.9398 268.896 100.236 268.4 100.236 267.816C100.236 266.85 99.516 266.199 98.0759 265.861L95.4919 265.287C94.0609 264.959 93.0036 264.444 92.32 263.742C91.6455 263.031 91.3083 262.138 91.3083 261.062C91.3083 260.16 91.5589 259.367 92.0602 258.684C92.5707 258 93.2679 257.471 94.152 257.098C95.0453 256.715 96.0615 256.523 97.2009 256.523C98.8597 256.523 100.159 256.883 101.097 257.604C102.045 258.324 102.674 259.276 102.984 260.461ZM118.571 272.301C117.65 272.301 116.893 272.146 116.301 271.836C115.718 271.517 115.257 271.148 114.92 270.729C114.592 270.309 114.337 269.94 114.155 269.621H113.908V272H111.037V251.629H113.99V259.203H114.155C114.337 258.884 114.587 258.515 114.906 258.096C115.235 257.676 115.69 257.312 116.274 257.002C116.857 256.683 117.618 256.523 118.557 256.523C119.787 256.523 120.881 256.833 121.838 257.453C122.804 258.073 123.565 258.971 124.121 260.146C124.677 261.322 124.955 262.74 124.955 264.398C124.955 266.039 124.682 267.452 124.135 268.637C123.588 269.812 122.832 270.719 121.865 271.357C120.908 271.986 119.81 272.301 118.571 272.301ZM117.928 269.771C118.812 269.771 119.55 269.535 120.143 269.061C120.735 268.587 121.182 267.944 121.483 267.133C121.793 266.312 121.948 265.392 121.948 264.371C121.948 263.359 121.797 262.452 121.496 261.65C121.196 260.848 120.749 260.215 120.156 259.75C119.564 259.285 118.821 259.053 117.928 259.053C117.062 259.053 116.333 259.276 115.74 259.723C115.148 260.16 114.697 260.78 114.387 261.582C114.086 262.375 113.936 263.305 113.936 264.371C113.936 265.438 114.091 266.376 114.401 267.188C114.711 267.999 115.162 268.632 115.754 269.088C116.356 269.544 117.08 269.771 117.928 269.771ZM128.175 277.715C127.729 277.724 127.323 277.692 126.959 277.619C126.603 277.555 126.33 277.478 126.138 277.387L126.863 274.967L127.068 275.021C127.824 275.213 128.462 275.199 128.982 274.98C129.511 274.771 129.953 274.183 130.308 273.217L130.677 272.205L125.099 256.715H128.285L132.14 268.582H132.304L136.173 256.715H139.359L133.07 274.023C132.778 274.826 132.409 275.5 131.962 276.047C131.516 276.603 130.978 277.018 130.349 277.291C129.729 277.574 129.005 277.715 128.175 277.715Z" fill="#424242"/>
<path d="M146.168 268.227V265.287L154.822 251.629H157.256V255.812H155.766L149.941 265.027V265.191H162.014V268.227H146.168ZM155.875 272V267.338L155.93 266.012V251.629H159.402V272H155.875ZM171.4 272.273C169.75 272.273 168.337 271.863 167.161 271.043C165.995 270.214 165.102 269.024 164.482 267.475C163.862 265.916 163.552 264.034 163.552 261.828C163.552 259.622 163.862 257.74 164.482 256.182C165.102 254.614 165.995 253.42 167.161 252.6C168.337 251.77 169.75 251.355 171.4 251.355C173.04 251.355 174.449 251.77 175.624 252.6C176.8 253.429 177.698 254.623 178.318 256.182C178.938 257.74 179.247 259.622 179.247 261.828C179.247 264.034 178.938 265.916 178.318 267.475C177.698 269.024 176.805 270.214 175.638 271.043C174.471 271.863 173.059 272.273 171.4 272.273ZM171.4 269.184C172.284 269.184 173.031 268.896 173.642 268.322C174.262 267.748 174.731 266.914 175.05 265.82C175.378 264.717 175.542 263.387 175.542 261.828C175.542 260.26 175.378 258.925 175.05 257.822C174.731 256.719 174.262 255.881 173.642 255.307C173.031 254.723 172.284 254.432 171.4 254.432C170.069 254.432 169.044 255.079 168.324 256.373C167.613 257.658 167.257 259.477 167.257 261.828C167.257 263.387 167.417 264.717 167.736 265.82C168.055 266.914 168.524 267.748 169.144 268.322C169.764 268.896 170.516 269.184 171.4 269.184ZM192.12 268.172V267.105C192.12 266.312 192.284 265.583 192.612 264.918C192.94 264.253 193.428 263.719 194.075 263.318C194.722 262.917 195.506 262.717 196.426 262.717C197.365 262.717 198.154 262.917 198.792 263.318C199.43 263.719 199.908 264.253 200.227 264.918C200.555 265.574 200.719 266.303 200.719 267.105V268.172C200.719 268.965 200.555 269.694 200.227 270.359C199.899 271.025 199.416 271.558 198.778 271.959C198.14 272.36 197.356 272.561 196.426 272.561C195.497 272.561 194.708 272.36 194.061 271.959C193.414 271.558 192.926 271.025 192.598 270.359C192.279 269.694 192.12 268.965 192.12 268.172ZM194.704 267.105V268.172C194.704 268.701 194.831 269.184 195.087 269.621C195.342 270.059 195.788 270.277 196.426 270.277C197.055 270.277 197.493 270.059 197.739 269.621C197.985 269.184 198.108 268.701 198.108 268.172V267.105C198.108 266.577 197.99 266.094 197.753 265.656C197.525 265.219 197.083 265 196.426 265C195.798 265 195.351 265.219 195.087 265.656C194.831 266.094 194.704 266.577 194.704 267.105ZM181.77 256.523V255.457C181.77 254.655 181.939 253.926 182.276 253.27C182.613 252.604 183.101 252.071 183.739 251.67C184.377 251.269 185.152 251.068 186.063 251.068C187.011 251.068 187.804 251.269 188.442 251.67C189.08 252.071 189.563 252.604 189.891 253.27C190.219 253.926 190.379 254.655 190.37 255.457V256.523C190.379 257.316 190.215 258.046 189.878 258.711C189.54 259.376 189.053 259.91 188.415 260.311C187.777 260.702 186.993 260.898 186.063 260.898C185.133 260.898 184.35 260.698 183.712 260.297C183.074 259.896 182.59 259.363 182.262 258.697C181.934 258.032 181.77 257.307 181.77 256.523ZM184.381 255.457V256.523C184.381 257.052 184.505 257.535 184.751 257.973C184.997 258.41 185.434 258.624 186.063 258.615C186.71 258.624 187.152 258.41 187.389 257.973C187.635 257.535 187.758 257.052 187.758 256.523V255.457C187.758 254.928 187.64 254.445 187.403 254.008C187.175 253.561 186.728 253.338 186.063 253.338C185.443 253.338 185.006 253.561 184.751 254.008C184.505 254.454 184.381 254.938 184.381 255.457ZM182.891 272L196.891 251.629H199.393L185.393 272H182.891Z" fill="#D09E55"/>
<g clip-path="url(#clip1_455_6659)">
<g opacity="0.8">
<path d="M231.498 391.113C240.703 409.772 258.504 422.701 279.091 425.69C330.941 433.224 351.639 496.94 314.122 533.513C299.223 548.033 292.423 568.961 295.941 589.466C304.798 641.105 250.598 680.488 204.223 656.104C185.806 646.42 163.809 646.42 145.393 656.104C99.0177 680.488 44.8175 641.105 53.6747 589.466C57.1928 568.961 50.3929 548.039 35.494 533.513C-2.02346 496.94 18.6808 433.224 70.5253 425.69C91.1114 422.701 108.913 409.766 118.118 391.113C141.309 344.129 208.301 344.129 231.491 391.113H231.498Z" stroke="url(#paint0_linear_455_6659)" stroke-width="4.35094" stroke-miterlimit="10"/>
<path d="M180.211 377.923C196.21 391.225 217.728 395.799 237.755 390.155C288.188 375.947 333.016 425.74 313.617 474.408C305.915 493.733 308.215 515.618 319.764 532.916C348.859 576.487 315.363 634.51 263.077 631.098C242.317 629.743 222.216 638.693 209.331 655.028C176.879 696.163 111.348 682.234 98.4379 631.458C93.31 611.295 78.5914 594.948 59.0744 587.738C9.92741 569.588 2.92241 502.957 47.2212 474.986C64.8114 463.879 75.813 444.828 76.6397 424.037C78.7157 371.683 139.915 344.433 180.211 377.923V377.923Z" stroke="url(#paint1_linear_455_6659)" stroke-width="4.35094" stroke-miterlimit="10"/>
<path d="M122.657 389.508C142.684 395.152 164.202 390.578 180.202 377.276C220.491 343.786 281.696 371.036 283.772 423.39C284.593 444.181 295.595 463.232 313.191 474.339C357.49 502.31 350.491 568.941 301.338 587.091C281.821 594.301 267.102 610.648 261.974 630.811C249.064 681.587 183.527 695.516 151.081 654.381C138.196 638.046 118.095 629.096 97.3348 630.451C45.0552 633.863 11.553 575.84 40.6483 532.269C52.2032 514.965 54.5029 493.086 46.7956 473.761C27.3966 425.093 72.2237 375.306 122.657 389.508V389.508Z" stroke="url(#paint2_linear_455_6659)" stroke-width="4.35094" stroke-miterlimit="10"/>
</g>
<g opacity="0.8">
<path d="M195.003 448.161C198.272 457.347 208.764 461.692 217.572 457.509C231.557 450.865 246.145 465.453 239.495 479.432C235.311 488.239 239.656 498.731 248.843 502.001C263.431 507.191 263.431 527.82 248.843 533.004C239.656 536.273 235.311 546.765 239.495 555.573C246.139 569.558 231.551 584.146 217.572 577.495C208.764 573.312 198.272 577.657 195.003 586.844C189.813 601.432 169.183 601.432 164 586.844C160.73 577.657 150.238 573.312 141.431 577.495C127.445 584.14 112.857 569.552 119.508 555.573C123.691 546.765 119.346 536.273 110.16 533.004C95.5717 527.814 95.5717 507.184 110.16 502.001C119.346 498.731 123.691 488.239 119.508 479.432C112.864 465.446 127.452 450.858 141.431 457.509C150.238 461.692 160.73 457.347 164 448.161C169.19 433.573 189.819 433.573 195.003 448.161Z" stroke="url(#paint3_linear_455_6659)" stroke-width="4.35094" stroke-miterlimit="10"/>
<path d="M167.283 447.502C173.815 454.737 185.178 454.737 191.71 447.502C202.084 436.009 221.147 443.903 220.358 459.367C219.861 469.107 227.891 477.138 237.631 476.64C253.096 475.851 260.99 494.908 249.497 505.288C242.262 511.821 242.262 523.183 249.497 529.716C260.99 540.089 253.096 559.153 237.631 558.363C227.891 557.866 219.861 565.897 220.358 575.637C221.147 591.101 202.09 598.995 191.71 587.502C185.178 580.267 173.815 580.267 167.283 587.502C156.909 598.995 137.846 591.101 138.635 575.637C139.132 565.897 131.102 557.866 121.362 558.363C105.897 559.153 98.0035 540.096 109.496 529.716C116.731 523.183 116.731 511.821 109.496 505.288C98.0035 494.914 105.897 475.851 121.362 476.64C131.102 477.138 139.132 469.107 138.635 459.367C137.846 443.903 156.903 436.009 167.283 447.502V447.502Z" stroke="url(#paint4_linear_455_6659)" stroke-width="4.35094" stroke-miterlimit="10"/>
</g>
<path opacity="0.8" d="M179.507 723.831C293.459 723.831 385.835 631.455 385.835 517.503C385.835 403.551 293.459 311.175 179.507 311.175C65.5557 311.175 -26.8203 403.551 -26.8203 517.503C-26.8203 631.455 65.5557 723.831 179.507 723.831Z" stroke="url(#paint5_linear_455_6659)" stroke-width="4.35094" stroke-miterlimit="10"/>
</g>
<rect x="24.5" y="92.5" width="47" height="47" rx="7.5" fill="#F7EBDA"/>
<rect x="24.5" y="92.5" width="47" height="47" rx="7.5" stroke="#F5E1C4"/>
<path d="M58.8489 113.428C59.2442 113.347 59.5996 113.133 59.8549 112.82C60.1102 112.508 60.2498 112.117 60.25 111.714V109C60.25 108.536 60.0656 108.091 59.7374 107.763C59.4093 107.434 58.9641 107.25 58.5 107.25H37.5C37.0359 107.25 36.5908 107.434 36.2626 107.763C35.9344 108.091 35.75 108.536 35.75 109V111.714C35.7502 112.117 35.8898 112.508 36.1451 112.82C36.4004 113.133 36.7558 113.347 37.1511 113.428C37.7422 113.55 38.2729 113.873 38.654 114.341C39.035 114.809 39.2431 115.394 39.2431 115.998C39.2431 116.601 39.035 117.187 38.654 117.655C38.2729 118.123 37.7422 118.446 37.1511 118.568C36.7551 118.649 36.3991 118.864 36.1437 119.177C35.8883 119.49 35.7492 119.882 35.75 120.286V123C35.75 123.464 35.9344 123.909 36.2626 124.237C36.5908 124.566 37.0359 124.75 37.5 124.75H58.5C58.9641 124.75 59.4093 124.566 59.7374 124.237C60.0656 123.909 60.25 123.464 60.25 123V120.286C60.2498 119.883 60.1102 119.492 59.8549 119.18C59.5996 118.867 59.2442 118.653 58.8489 118.573C58.2578 118.45 57.7271 118.127 57.346 117.659C56.965 117.191 56.7569 116.606 56.7569 116.002C56.7569 115.399 56.965 114.813 57.346 114.345C57.7271 113.877 58.2578 113.554 58.8489 113.432V113.428ZM37.5 120.287C38.4884 120.086 39.3769 119.549 40.015 118.768C40.6531 117.987 41.0017 117.009 41.0017 116.001C41.0017 114.992 40.6531 114.014 40.015 113.233C39.3769 112.452 38.4884 111.915 37.5 111.714V109H43.625V123H37.5V120.287ZM58.5 120.287V123H45.375V109H58.5V111.713C57.5116 111.914 56.6231 112.451 55.985 113.232C55.3469 114.013 54.9983 114.991 54.9983 115.999C54.9983 117.008 55.3469 117.986 55.985 118.767C56.6231 119.548 57.5116 120.085 58.5 120.286V120.287Z" fill="#D09E55"/>
</g>
<defs>
<linearGradient id="paint0_linear_455_6659" x1="174.809" y1="355.875" x2="174.809" y2="663.506" gradientUnits="userSpaceOnUse">
<stop stop-color="#F8F7F4"/>
<stop offset="0.235" stop-color="#F6F3EC"/>
<stop offset="0.57" stop-color="#EDEAE0"/>
<stop offset="0.8" stop-color="#EDEAE0"/>
</linearGradient>
<linearGradient id="paint1_linear_455_6659" x1="174.144" y1="363.219" x2="174.144" y2="679.125" gradientUnits="userSpaceOnUse">
<stop stop-color="#F8F7F4"/>
<stop offset="0.235" stop-color="#F6F3EC"/>
<stop offset="0.57" stop-color="#EDEAE0"/>
<stop offset="0.8" stop-color="#EDEAE0"/>
</linearGradient>
<linearGradient id="paint2_linear_455_6659" x1="186.27" y1="362.572" x2="186.27" y2="678.478" gradientUnits="userSpaceOnUse">
<stop stop-color="#F8F7F4"/>
<stop offset="0.235" stop-color="#F6F3EC"/>
<stop offset="0.57" stop-color="#EDEAE0"/>
<stop offset="0.8" stop-color="#EDEAE0"/>
</linearGradient>
<linearGradient id="paint3_linear_455_6659" x1="179.501" y1="437.22" x2="179.501" y2="597.785" gradientUnits="userSpaceOnUse">
<stop stop-color="#F8F7F4"/>
<stop offset="0.2" stop-color="#F6F3EC"/>
<stop offset="0.57" stop-color="#EDEAE0"/>
<stop offset="0.8" stop-color="#EDEAE0"/>
</linearGradient>
<linearGradient id="paint4_linear_455_6659" x1="179.497" y1="442.033" x2="179.497" y2="592.971" gradientUnits="userSpaceOnUse">
<stop stop-color="#F8F7F4"/>
<stop offset="0.2" stop-color="#F6F3EC"/>
<stop offset="0.57" stop-color="#EDEAE0"/>
<stop offset="0.8" stop-color="#EDEAE0"/>
</linearGradient>
<linearGradient id="paint5_linear_455_6659" x1="179.507" y1="311.175" x2="179.507" y2="723.831" gradientUnits="userSpaceOnUse">
<stop stop-color="#F8F7F4"/>
<stop offset="0.2" stop-color="#F6F3EC"/>
<stop offset="0.57" stop-color="#EDEAE0"/>
<stop offset="0.8" stop-color="#EDEAE0"/>
</linearGradient>
<clipPath id="clip0_455_6659">
<rect width="360" height="540" rx="12" fill="white"/>
</clipPath>
<clipPath id="clip1_455_6659">
<rect width="417" height="417" fill="white" transform="translate(-29 309)"/>
</clipPath>
</defs>
</svg>
