<svg width="360" height="540" viewBox="0 0 360 540" fill="none" xmlns="http://www.w3.org/2000/svg">
<g clip-path="url(#clip0_455_6657)">
<rect width="360" height="540" rx="12" fill="#F8F7F4"/>
<path d="M34.1445 200.273C32.3945 200.273 30.8268 199.854 29.4414 199.016C28.056 198.177 26.9668 196.979 26.1738 195.42C25.3809 193.852 24.9844 191.988 24.9844 189.828C24.9844 187.65 25.3809 185.781 26.1738 184.223C26.9759 182.655 28.0651 181.452 29.4414 180.613C30.8268 179.775 32.3945 179.355 34.1445 179.355C35.2201 179.355 36.2272 179.51 37.166 179.82C38.1139 180.13 38.9616 180.581 39.709 181.174C40.4564 181.766 41.0716 182.491 41.5547 183.348C42.0469 184.204 42.375 185.175 42.5391 186.26H39.4492C39.3307 185.594 39.1074 185.011 38.7793 184.51C38.4603 183.999 38.0638 183.571 37.5898 183.225C37.125 182.869 36.6009 182.605 36.0176 182.432C35.4434 182.249 34.8327 182.158 34.1855 182.158C33.0189 182.158 31.9661 182.454 31.0273 183.047C30.0977 183.63 29.3639 184.496 28.8262 185.645C28.2975 186.784 28.0332 188.178 28.0332 189.828C28.0332 191.487 28.3021 192.886 28.8398 194.025C29.3776 195.156 30.1113 196.012 31.041 196.596C31.9707 197.179 33.0143 197.471 34.1719 197.471C34.819 197.471 35.4297 197.384 36.0039 197.211C36.5781 197.038 37.1022 196.778 37.5762 196.432C38.0501 196.085 38.4466 195.666 38.7656 195.174C39.0938 194.673 39.3216 194.094 39.4492 193.438H42.5391C42.3841 194.449 42.0697 195.374 41.5957 196.213C41.1217 197.042 40.5156 197.762 39.7773 198.373C39.0391 198.975 38.196 199.444 37.248 199.781C36.3001 200.109 35.2656 200.273 34.1445 200.273ZM44.5559 200V184.715H47.4134V187.162H47.5774C47.86 186.342 48.3522 185.695 49.054 185.221C49.7649 184.738 50.567 184.496 51.4602 184.496C51.6425 184.496 51.8567 184.505 52.1028 184.523C52.358 184.533 52.5631 184.546 52.718 184.564V187.408C52.5996 187.372 52.3854 187.335 52.0755 187.299C51.7747 187.262 51.4693 187.244 51.1595 187.244C50.4576 187.244 49.8287 187.395 49.2727 187.695C48.7259 187.987 48.2929 188.393 47.9739 188.912C47.664 189.423 47.5091 190.015 47.5091 190.689V200H44.5559ZM59.9029 200.314C58.4081 200.314 57.1138 199.991 56.0201 199.344C54.9263 198.697 54.0832 197.785 53.4908 196.609C52.9074 195.424 52.6158 194.044 52.6158 192.467C52.6158 190.899 52.9029 189.518 53.4771 188.324C54.0604 187.13 54.8762 186.201 55.9244 185.535C56.9817 184.861 58.2213 184.523 59.6431 184.523C60.509 184.523 61.3476 184.665 62.1588 184.947C62.9699 185.23 63.6991 185.676 64.3463 186.287C64.9934 186.898 65.5038 187.691 65.8775 188.666C66.2603 189.641 66.4517 190.817 66.4517 192.193V193.26H54.2974V191.031H64.9205L63.5396 191.77C63.5396 190.831 63.3938 190.001 63.1021 189.281C62.8104 188.561 62.3729 188.001 61.7896 187.6C61.2154 187.189 60.4999 186.984 59.6431 186.984C58.7864 186.984 58.0526 187.189 57.442 187.6C56.8404 188.01 56.3801 188.552 56.0611 189.227C55.7421 189.901 55.5826 190.639 55.5826 191.441V192.959C55.5826 194.007 55.7649 194.896 56.1295 195.625C56.494 196.354 56.9999 196.91 57.647 197.293C58.3033 197.676 59.0643 197.867 59.9302 197.867C60.4953 197.867 61.0058 197.785 61.4615 197.621C61.9263 197.457 62.3274 197.211 62.6646 196.883C63.0018 196.555 63.2571 196.149 63.4302 195.666L66.2466 196.199C66.0188 197.02 65.6177 197.74 65.0435 198.359C64.4693 198.979 63.7447 199.462 62.8697 199.809C62.0038 200.146 61.0149 200.314 59.9029 200.314ZM72.6795 200.328C71.7134 200.328 70.8384 200.15 70.0545 199.795C69.2707 199.43 68.6509 198.902 68.1952 198.209C67.7394 197.516 67.5116 196.673 67.5116 195.68C67.5116 194.814 67.6756 194.107 68.0037 193.561C68.341 193.005 68.7922 192.562 69.3573 192.234C69.9224 191.906 70.5513 191.66 71.244 191.496C71.9367 191.332 72.6476 191.204 73.3768 191.113C74.2974 191.013 75.0402 190.926 75.6053 190.854C76.1704 190.781 76.5806 190.667 76.8358 190.512C77.1001 190.348 77.2323 190.088 77.2323 189.732V189.664C77.2323 188.798 76.9862 188.128 76.494 187.654C76.0109 187.18 75.2909 186.943 74.3338 186.943C73.3403 186.943 72.5519 187.162 71.9686 187.6C71.3944 188.028 70.9979 188.516 70.7791 189.062L67.9764 188.42C68.3136 187.49 68.8013 186.743 69.4393 186.178C70.0864 185.604 70.8247 185.184 71.6541 184.92C72.4927 184.656 73.3677 184.523 74.2791 184.523C74.8898 184.523 75.537 184.596 76.2205 184.742C76.9041 184.879 77.5467 185.139 78.1483 185.521C78.759 185.895 79.2557 186.433 79.6385 187.135C80.0213 187.837 80.2127 188.743 80.2127 189.855V200H77.3006V197.908H77.1912C77.009 198.282 76.7218 198.656 76.3299 199.029C75.9471 199.403 75.4549 199.713 74.8534 199.959C74.2518 200.205 73.5272 200.328 72.6795 200.328ZM73.3221 197.949C74.1515 197.949 74.8579 197.79 75.4412 197.471C76.0246 197.143 76.4712 196.714 76.7811 196.186C77.091 195.657 77.2459 195.096 77.2459 194.504V192.521C77.1366 192.622 76.9315 192.717 76.6307 192.809C76.3299 192.9 75.9881 192.977 75.6053 193.041C75.2225 193.105 74.8488 193.164 74.4842 193.219C74.1196 193.264 73.8143 193.301 73.5682 193.328C72.994 193.41 72.4699 193.538 71.9959 193.711C71.522 193.875 71.1392 194.121 70.8475 194.449C70.5649 194.768 70.4237 195.192 70.4237 195.721C70.4237 196.459 70.6971 197.015 71.244 197.389C71.7909 197.762 72.4836 197.949 73.3221 197.949ZM89.8995 184.715V187.107H81.5597V184.715H89.8995ZM83.7882 181.078H86.755V195.516C86.755 196.217 86.9008 196.732 87.1925 197.061C87.4842 197.38 87.9536 197.539 88.6007 197.539C88.7557 197.539 88.9197 197.53 89.0929 197.512C89.2752 197.493 89.4575 197.466 89.6398 197.43L90.2003 199.891C89.8995 199.991 89.5714 200.068 89.2159 200.123C88.8605 200.178 88.505 200.205 88.1495 200.205C86.8279 200.205 85.7706 199.836 84.9777 199.098C84.1847 198.35 83.7882 197.357 83.7882 196.117V181.078ZM98.1645 200.314C96.6697 200.314 95.3754 199.991 94.2816 199.344C93.1879 198.697 92.3448 197.785 91.7523 196.609C91.169 195.424 90.8773 194.044 90.8773 192.467C90.8773 190.899 91.1645 189.518 91.7387 188.324C92.322 187.13 93.1378 186.201 94.1859 185.535C95.2432 184.861 96.4828 184.523 97.9047 184.523C98.7706 184.523 99.6091 184.665 100.42 184.947C101.232 185.23 101.961 185.676 102.608 186.287C103.255 186.898 103.765 187.691 104.139 188.666C104.522 189.641 104.713 190.817 104.713 192.193V193.26H92.559V191.031H103.182L101.801 191.77C101.801 190.831 101.655 190.001 101.364 189.281C101.072 188.561 100.635 188.001 100.051 187.6C99.477 187.189 98.7615 186.984 97.9047 186.984C97.0479 186.984 96.3142 187.189 95.7035 187.6C95.102 188.01 94.6417 188.552 94.3227 189.227C94.0036 189.901 93.8441 190.639 93.8441 191.441V192.959C93.8441 194.007 94.0264 194.896 94.391 195.625C94.7556 196.354 95.2615 196.91 95.9086 197.293C96.5648 197.676 97.3259 197.867 98.1918 197.867C98.7569 197.867 99.2673 197.785 99.723 197.621C100.188 197.457 100.589 197.211 100.926 196.883C101.263 196.555 101.519 196.149 101.692 195.666L104.508 196.199C104.28 197.02 103.879 197.74 103.305 198.359C102.731 198.979 102.006 199.462 101.131 199.809C100.265 200.146 99.2764 200.314 98.1645 200.314ZM112.199 200.301C110.959 200.301 109.856 199.986 108.89 199.357C107.924 198.719 107.168 197.812 106.621 196.637C106.074 195.452 105.8 194.039 105.8 192.398C105.8 190.74 106.078 189.322 106.634 188.146C107.19 186.971 107.952 186.073 108.918 185.453C109.884 184.833 110.978 184.523 112.199 184.523C113.156 184.523 113.922 184.683 114.496 185.002C115.079 185.312 115.53 185.676 115.849 186.096C116.177 186.515 116.428 186.884 116.601 187.203H116.779V179.629H119.732V200H116.847V197.621H116.601C116.428 197.94 116.173 198.309 115.836 198.729C115.498 199.148 115.038 199.517 114.455 199.836C113.881 200.146 113.129 200.301 112.199 200.301ZM112.841 197.771C113.698 197.771 114.423 197.544 115.015 197.088C115.608 196.632 116.054 195.999 116.355 195.188C116.665 194.376 116.82 193.438 116.82 192.371C116.82 191.305 116.67 190.375 116.369 189.582C116.068 188.78 115.621 188.16 115.029 187.723C114.437 187.276 113.707 187.053 112.841 187.053C111.948 187.053 111.205 187.285 110.613 187.75C110.021 188.215 109.574 188.848 109.273 189.65C108.972 190.452 108.822 191.359 108.822 192.371C108.822 193.392 108.972 194.312 109.273 195.133C109.574 195.944 110.021 196.587 110.613 197.061C111.215 197.535 111.957 197.771 112.841 197.771ZM134.676 200.314C133.209 200.314 131.942 199.977 130.875 199.303C129.809 198.628 128.989 197.699 128.414 196.514C127.84 195.329 127.553 193.971 127.553 192.439C127.553 190.881 127.845 189.509 128.428 188.324C129.02 187.13 129.845 186.201 130.903 185.535C131.969 184.861 133.218 184.523 134.649 184.523C135.815 184.523 136.85 184.738 137.752 185.166C138.664 185.585 139.397 186.182 139.953 186.957C140.518 187.732 140.851 188.634 140.951 189.664H138.053C137.953 189.181 137.757 188.739 137.465 188.338C137.183 187.937 136.809 187.618 136.344 187.381C135.879 187.144 135.328 187.025 134.69 187.025C133.86 187.025 133.136 187.244 132.516 187.682C131.905 188.11 131.427 188.725 131.08 189.527C130.734 190.329 130.561 191.277 130.561 192.371C130.561 193.474 130.729 194.436 131.067 195.256C131.404 196.076 131.882 196.71 132.502 197.156C133.131 197.594 133.86 197.812 134.69 197.812C135.546 197.812 136.276 197.576 136.877 197.102C137.488 196.628 137.88 195.98 138.053 195.16H140.951C140.851 196.154 140.532 197.038 139.994 197.812C139.457 198.587 138.737 199.198 137.834 199.645C136.932 200.091 135.879 200.314 134.676 200.314ZM149.189 200.314C147.758 200.314 146.505 199.986 145.429 199.33C144.363 198.674 143.533 197.753 142.941 196.568C142.358 195.383 142.066 194.007 142.066 192.439C142.066 190.854 142.358 189.468 142.941 188.283C143.533 187.089 144.363 186.164 145.429 185.508C146.505 184.852 147.758 184.523 149.189 184.523C150.629 184.523 151.882 184.852 152.949 185.508C154.015 186.164 154.845 187.089 155.437 188.283C156.029 189.468 156.326 190.854 156.326 192.439C156.326 194.007 156.029 195.383 155.437 196.568C154.845 197.753 154.015 198.674 152.949 199.33C151.882 199.986 150.629 200.314 149.189 200.314ZM149.189 197.812C150.128 197.812 150.903 197.566 151.513 197.074C152.124 196.582 152.575 195.93 152.867 195.119C153.168 194.299 153.318 193.406 153.318 192.439C153.318 191.455 153.168 190.553 152.867 189.732C152.575 188.912 152.124 188.256 151.513 187.764C150.903 187.271 150.128 187.025 149.189 187.025C148.259 187.025 147.489 187.271 146.878 187.764C146.277 188.256 145.826 188.912 145.525 189.732C145.224 190.553 145.074 191.455 145.074 192.439C145.074 193.406 145.224 194.299 145.525 195.119C145.826 195.93 146.277 196.582 146.878 197.074C147.489 197.566 148.259 197.812 149.189 197.812ZM158.192 200V184.715H161.022V187.23H161.227C161.546 186.383 162.066 185.722 162.786 185.248C163.515 184.765 164.381 184.523 165.384 184.523C166.404 184.523 167.257 184.765 167.94 185.248C168.633 185.722 169.148 186.383 169.485 187.23H169.649C170.014 186.401 170.593 185.745 171.386 185.262C172.179 184.77 173.122 184.523 174.216 184.523C175.601 184.523 176.736 184.961 177.62 185.836C178.504 186.702 178.946 188.01 178.946 189.76V200H175.966V190.033C175.966 188.994 175.683 188.247 175.118 187.791C174.553 187.326 173.878 187.094 173.095 187.094C172.128 187.094 171.376 187.395 170.839 187.996C170.31 188.589 170.046 189.34 170.046 190.252V200H167.065V189.842C167.065 189.012 166.81 188.347 166.3 187.846C165.789 187.344 165.119 187.094 164.29 187.094C163.725 187.094 163.201 187.244 162.718 187.545C162.244 187.837 161.861 188.247 161.569 188.775C161.287 189.295 161.145 189.896 161.145 190.58V200H158.192ZM181.51 205.715V184.715H184.381V187.203H184.627C184.809 186.884 185.06 186.515 185.379 186.096C185.707 185.676 186.163 185.312 186.746 185.002C187.33 184.683 188.091 184.523 189.029 184.523C190.26 184.523 191.354 184.833 192.311 185.453C193.277 186.073 194.038 186.971 194.594 188.146C195.15 189.322 195.428 190.74 195.428 192.398C195.428 194.039 195.154 195.452 194.607 196.637C194.061 197.812 193.304 198.719 192.338 199.357C191.381 199.986 190.283 200.301 189.043 200.301C188.122 200.301 187.366 200.146 186.774 199.836C186.19 199.517 185.73 199.148 185.393 198.729C185.065 198.309 184.809 197.94 184.627 197.621H184.463V205.715H181.51ZM188.4 197.771C189.285 197.771 190.023 197.535 190.615 197.061C191.208 196.587 191.654 195.944 191.955 195.133C192.265 194.312 192.42 193.392 192.42 192.371C192.42 191.359 192.27 190.452 191.969 189.65C191.668 188.848 191.221 188.215 190.629 187.75C190.037 187.285 189.294 187.053 188.4 187.053C187.535 187.053 186.805 187.276 186.213 187.723C185.621 188.16 185.169 188.78 184.859 189.582C184.559 190.375 184.408 191.305 184.408 192.371C184.408 193.438 184.563 194.376 184.873 195.188C185.183 195.999 185.634 196.632 186.227 197.088C186.828 197.544 187.553 197.771 188.4 197.771ZM203.72 200.314C202.289 200.314 201.036 199.986 199.96 199.33C198.894 198.674 198.064 197.753 197.472 196.568C196.889 195.383 196.597 194.007 196.597 192.439C196.597 190.854 196.889 189.468 197.472 188.283C198.064 187.089 198.894 186.164 199.96 185.508C201.036 184.852 202.289 184.523 203.72 184.523C205.16 184.523 206.413 184.852 207.48 185.508C208.546 186.164 209.376 187.089 209.968 188.283C210.561 189.468 210.857 190.854 210.857 192.439C210.857 194.007 210.561 195.383 209.968 196.568C209.376 197.753 208.546 198.674 207.48 199.33C206.413 199.986 205.16 200.314 203.72 200.314ZM203.72 197.812C204.659 197.812 205.434 197.566 206.044 197.074C206.655 196.582 207.106 195.93 207.398 195.119C207.699 194.299 207.849 193.406 207.849 192.439C207.849 191.455 207.699 190.553 207.398 189.732C207.106 188.912 206.655 188.256 206.044 187.764C205.434 187.271 204.659 187.025 203.72 187.025C202.79 187.025 202.02 187.271 201.41 187.764C200.808 188.256 200.357 188.912 200.056 189.732C199.755 190.553 199.605 191.455 199.605 192.439C199.605 193.406 199.755 194.299 200.056 195.119C200.357 195.93 200.808 196.582 201.41 197.074C202.02 197.566 202.79 197.812 203.72 197.812ZM215.676 190.936V200H212.723V184.715H215.594V187.23H215.799C216.146 186.401 216.688 185.745 217.426 185.262C218.165 184.77 219.113 184.523 220.27 184.523C221.309 184.523 222.216 184.742 222.991 185.18C223.775 185.608 224.381 186.251 224.809 187.107C225.247 187.964 225.465 189.026 225.465 190.293V200H222.512V190.648C222.512 189.546 222.221 188.68 221.637 188.051C221.054 187.413 220.261 187.094 219.258 187.094C218.575 187.094 217.96 187.249 217.413 187.559C216.875 187.859 216.451 188.292 216.141 188.857C215.831 189.423 215.676 190.115 215.676 190.936ZM234.605 200.314C233.111 200.314 231.816 199.991 230.723 199.344C229.629 198.697 228.786 197.785 228.193 196.609C227.61 195.424 227.318 194.044 227.318 192.467C227.318 190.899 227.605 189.518 228.18 188.324C228.763 187.13 229.579 186.201 230.627 185.535C231.684 184.861 232.924 184.523 234.346 184.523C235.212 184.523 236.05 184.665 236.861 184.947C237.672 185.23 238.402 185.676 239.049 186.287C239.696 186.898 240.206 187.691 240.58 188.666C240.963 189.641 241.154 190.817 241.154 192.193V193.26H229V191.031H239.623L238.242 191.77C238.242 190.831 238.096 190.001 237.805 189.281C237.513 188.561 237.075 188.001 236.492 187.6C235.918 187.189 235.202 186.984 234.346 186.984C233.489 186.984 232.755 187.189 232.144 187.6C231.543 188.01 231.083 188.552 230.764 189.227C230.445 189.901 230.285 190.639 230.285 191.441V192.959C230.285 194.007 230.467 194.896 230.832 195.625C231.197 196.354 231.702 196.91 232.35 197.293C233.006 197.676 233.767 197.867 234.633 197.867C235.198 197.867 235.708 197.785 236.164 197.621C236.629 197.457 237.03 197.211 237.367 196.883C237.704 196.555 237.96 196.149 238.133 195.666L240.949 196.199C240.721 197.02 240.32 197.74 239.746 198.359C239.172 198.979 238.447 199.462 237.572 199.809C236.706 200.146 235.717 200.314 234.605 200.314ZM245.905 190.936V200H242.952V184.715H245.823V187.23H246.029C246.375 186.401 246.917 185.745 247.655 185.262C248.394 184.77 249.342 184.523 250.499 184.523C251.538 184.523 252.445 184.742 253.22 185.18C254.004 185.608 254.61 186.251 255.038 187.107C255.476 187.964 255.695 189.026 255.695 190.293V200H252.741V190.648C252.741 189.546 252.45 188.68 251.866 188.051C251.283 187.413 250.49 187.094 249.488 187.094C248.804 187.094 248.189 187.249 247.642 187.559C247.104 187.859 246.68 188.292 246.37 188.857C246.06 189.423 245.905 190.115 245.905 190.936ZM265.368 184.715V187.107H257.028V184.715H265.368ZM259.256 181.078H262.223V195.516C262.223 196.217 262.369 196.732 262.661 197.061C262.952 197.38 263.422 197.539 264.069 197.539C264.224 197.539 264.388 197.53 264.561 197.512C264.743 197.493 264.926 197.466 265.108 197.43L265.668 199.891C265.368 199.991 265.04 200.068 264.684 200.123C264.329 200.178 263.973 200.205 263.618 200.205C262.296 200.205 261.239 199.836 260.446 199.098C259.653 198.35 259.256 197.357 259.256 196.117V181.078ZM278.404 188.461L275.711 188.926C275.538 188.415 275.214 187.946 274.74 187.518C274.275 187.089 273.578 186.875 272.648 186.875C271.81 186.875 271.108 187.066 270.543 187.449C269.987 187.823 269.709 188.301 269.709 188.885C269.709 189.395 269.896 189.81 270.269 190.129C270.652 190.448 271.258 190.703 272.088 190.895L274.535 191.441C275.929 191.76 276.973 192.262 277.666 192.945C278.358 193.629 278.705 194.504 278.705 195.57C278.705 196.491 278.441 197.311 277.912 198.031C277.383 198.742 276.65 199.303 275.711 199.713C274.772 200.114 273.687 200.314 272.457 200.314C270.743 200.314 269.349 199.945 268.273 199.207C267.198 198.469 266.537 197.43 266.291 196.09L269.148 195.652C269.331 196.4 269.7 196.965 270.256 197.348C270.821 197.73 271.55 197.922 272.443 197.922C273.409 197.922 274.184 197.717 274.767 197.307C275.36 196.896 275.656 196.4 275.656 195.816C275.656 194.85 274.936 194.199 273.496 193.861L270.912 193.287C269.481 192.959 268.424 192.444 267.74 191.742C267.066 191.031 266.728 190.138 266.728 189.062C266.728 188.16 266.979 187.367 267.48 186.684C267.991 186 268.688 185.471 269.572 185.098C270.465 184.715 271.482 184.523 272.621 184.523C274.28 184.523 275.579 184.883 276.517 185.604C277.465 186.324 278.094 187.276 278.404 188.461ZM293.731 184.715V187.107H285.104V184.715H293.731ZM287.455 200V182.938C287.455 181.99 287.665 181.201 288.084 180.572C288.513 179.934 289.069 179.46 289.752 179.15C290.445 178.831 291.188 178.672 291.981 178.672C292.591 178.672 293.111 178.722 293.539 178.822C293.968 178.923 294.282 179.009 294.483 179.082L293.772 181.488C293.635 181.443 293.457 181.393 293.239 181.338C293.029 181.283 292.765 181.256 292.446 181.256C291.726 181.256 291.206 181.438 290.887 181.803C290.568 182.158 290.409 182.678 290.409 183.361V200H287.455ZM301.148 200.314C299.717 200.314 298.464 199.986 297.388 199.33C296.322 198.674 295.492 197.753 294.9 196.568C294.317 195.383 294.025 194.007 294.025 192.439C294.025 190.854 294.317 189.468 294.9 188.283C295.492 187.089 296.322 186.164 297.388 185.508C298.464 184.852 299.717 184.523 301.148 184.523C302.588 184.523 303.841 184.852 304.908 185.508C305.974 186.164 306.804 187.089 307.396 188.283C307.989 189.468 308.285 190.854 308.285 192.439C308.285 194.007 307.989 195.383 307.396 196.568C306.804 197.753 305.974 198.674 304.908 199.33C303.841 199.986 302.588 200.314 301.148 200.314ZM301.148 197.812C302.087 197.812 302.862 197.566 303.472 197.074C304.083 196.582 304.534 195.93 304.826 195.119C305.127 194.299 305.277 193.406 305.277 192.439C305.277 191.455 305.127 190.553 304.826 189.732C304.534 188.912 304.083 188.256 303.472 187.764C302.862 187.271 302.087 187.025 301.148 187.025C300.218 187.025 299.448 187.271 298.837 187.764C298.236 188.256 297.785 188.912 297.484 189.732C297.183 190.553 297.033 191.455 297.033 192.439C297.033 193.406 297.183 194.299 297.484 195.119C297.785 195.93 298.236 196.582 298.837 197.074C299.448 197.566 300.218 197.812 301.148 197.812ZM310.151 200V184.715H313.009V187.162H313.173C313.455 186.342 313.947 185.695 314.649 185.221C315.36 184.738 316.162 184.496 317.056 184.496C317.238 184.496 317.452 184.505 317.698 184.523C317.953 184.533 318.158 184.546 318.313 184.564V187.408C318.195 187.372 317.981 187.335 317.671 187.299C317.37 187.262 317.065 187.244 316.755 187.244C316.053 187.244 315.424 187.395 314.868 187.695C314.321 187.987 313.888 188.393 313.569 188.912C313.259 189.423 313.104 190.015 313.104 190.689V200H310.151ZM32.5312 220.715V223.107H24.1914V220.715H32.5312ZM26.4199 217.078H29.3867V231.516C29.3867 232.217 29.5326 232.732 29.8242 233.061C30.1159 233.38 30.5853 233.539 31.2324 233.539C31.3874 233.539 31.5514 233.53 31.7246 233.512C31.9069 233.493 32.0892 233.466 32.2715 233.43L32.832 235.891C32.5312 235.991 32.2031 236.068 31.8477 236.123C31.4922 236.178 31.1367 236.205 30.7812 236.205C29.4596 236.205 28.4023 235.836 27.6094 235.098C26.8164 234.35 26.4199 233.357 26.4199 232.117V217.078ZM37.6653 226.936V236H34.7122V215.629H37.6243V223.23H37.8294C38.1848 222.401 38.7272 221.745 39.4563 221.262C40.1946 220.77 41.1562 220.523 42.3411 220.523C43.3893 220.523 44.3053 220.738 45.0891 221.166C45.873 221.594 46.4837 222.237 46.9212 223.094C47.3678 223.951 47.5911 225.017 47.5911 226.293V236H44.6106V226.648C44.6106 225.518 44.319 224.643 43.7356 224.023C43.1614 223.404 42.3593 223.094 41.3294 223.094C40.6184 223.094 39.9895 223.249 39.4427 223.559C38.8958 223.859 38.4628 224.292 38.1438 224.857C37.8248 225.423 37.6653 226.115 37.6653 226.936ZM56.731 236.314C55.2362 236.314 53.942 235.991 52.8482 235.344C51.7545 234.697 50.9114 233.785 50.3189 232.609C49.7356 231.424 49.4439 230.044 49.4439 228.467C49.4439 226.899 49.731 225.518 50.3052 224.324C50.8886 223.13 51.7043 222.201 52.7525 221.535C53.8098 220.861 55.0494 220.523 56.4713 220.523C57.3371 220.523 58.1757 220.665 58.9869 220.947C59.7981 221.23 60.5272 221.676 61.1744 222.287C61.8215 222.898 62.3319 223.691 62.7056 224.666C63.0884 225.641 63.2798 226.817 63.2798 228.193V229.26H51.1255V227.031H61.7486L60.3677 227.77C60.3677 226.831 60.2219 226.001 59.9302 225.281C59.6386 224.561 59.2011 224.001 58.6177 223.6C58.0435 223.189 57.328 222.984 56.4713 222.984C55.6145 222.984 54.8808 223.189 54.2701 223.6C53.6685 224.01 53.2082 224.552 52.8892 225.227C52.5702 225.901 52.4107 226.639 52.4107 227.441V228.959C52.4107 230.007 52.593 230.896 52.9576 231.625C53.3222 232.354 53.828 232.91 54.4752 233.293C55.1314 233.676 55.8925 233.867 56.7584 233.867C57.3235 233.867 57.8339 233.785 58.2896 233.621C58.7545 233.457 59.1555 233.211 59.4927 232.883C59.83 232.555 60.0852 232.149 60.2584 231.666L63.0748 232.199C62.8469 233.02 62.4459 233.74 61.8716 234.359C61.2974 234.979 60.5728 235.462 59.6978 235.809C58.8319 236.146 57.843 236.314 56.731 236.314ZM264.206 220.715V223.107H255.866V220.715H264.206ZM258.095 217.078H261.062V231.516C261.062 232.217 261.207 232.732 261.499 233.061C261.791 233.38 262.26 233.539 262.907 233.539C263.062 233.539 263.226 233.53 263.399 233.512C263.582 233.493 263.764 233.466 263.946 233.43L264.507 235.891C264.206 235.991 263.878 236.068 263.523 236.123C263.167 236.178 262.812 236.205 262.456 236.205C261.134 236.205 260.077 235.836 259.284 235.098C258.491 234.35 258.095 233.357 258.095 232.117V217.078ZM272.307 236.314C270.876 236.314 269.623 235.986 268.547 235.33C267.481 234.674 266.651 233.753 266.059 232.568C265.476 231.383 265.184 230.007 265.184 228.439C265.184 226.854 265.476 225.468 266.059 224.283C266.651 223.089 267.481 222.164 268.547 221.508C269.623 220.852 270.876 220.523 272.307 220.523C273.747 220.523 275 220.852 276.067 221.508C277.133 222.164 277.963 223.089 278.555 224.283C279.147 225.468 279.444 226.854 279.444 228.439C279.444 230.007 279.147 231.383 278.555 232.568C277.963 233.753 277.133 234.674 276.067 235.33C275 235.986 273.747 236.314 272.307 236.314ZM272.307 233.812C273.246 233.812 274.02 233.566 274.631 233.074C275.242 232.582 275.693 231.93 275.985 231.119C276.285 230.299 276.436 229.406 276.436 228.439C276.436 227.455 276.285 226.553 275.985 225.732C275.693 224.912 275.242 224.256 274.631 223.764C274.02 223.271 273.246 223.025 272.307 223.025C271.377 223.025 270.607 223.271 269.996 223.764C269.395 224.256 268.944 224.912 268.643 225.732C268.342 226.553 268.192 227.455 268.192 228.439C268.192 229.406 268.342 230.299 268.643 231.119C268.944 231.93 269.395 232.582 269.996 233.074C270.607 233.566 271.377 233.812 272.307 233.812ZM31.834 272.314C30.3665 272.314 29.0996 271.977 28.0332 271.303C26.9668 270.628 26.1465 269.699 25.5723 268.514C24.998 267.329 24.7109 265.971 24.7109 264.439C24.7109 262.881 25.0026 261.509 25.5859 260.324C26.1784 259.13 27.0033 258.201 28.0605 257.535C29.127 256.861 30.3757 256.523 31.8066 256.523C32.9733 256.523 34.0078 256.738 34.9102 257.166C35.8216 257.585 36.5553 258.182 37.1113 258.957C37.6764 259.732 38.0091 260.634 38.1094 261.664H35.2109C35.1107 261.181 34.9147 260.739 34.623 260.338C34.3405 259.937 33.9668 259.618 33.502 259.381C33.0371 259.144 32.4857 259.025 31.8477 259.025C31.0182 259.025 30.2936 259.244 29.6738 259.682C29.0632 260.11 28.5846 260.725 28.2383 261.527C27.8919 262.329 27.7188 263.277 27.7188 264.371C27.7188 265.474 27.8874 266.436 28.2246 267.256C28.5618 268.076 29.0404 268.71 29.6602 269.156C30.2891 269.594 31.0182 269.812 31.8477 269.812C32.7044 269.812 33.4336 269.576 34.0352 269.102C34.6458 268.628 35.0378 267.98 35.2109 267.16H38.1094C38.0091 268.154 37.6901 269.038 37.1523 269.812C36.6146 270.587 35.8945 271.198 34.9922 271.645C34.0898 272.091 33.0371 272.314 31.834 272.314ZM46.347 272.314C44.916 272.314 43.6627 271.986 42.5872 271.33C41.5208 270.674 40.6914 269.753 40.0989 268.568C39.5156 267.383 39.2239 266.007 39.2239 264.439C39.2239 262.854 39.5156 261.468 40.0989 260.283C40.6914 259.089 41.5208 258.164 42.5872 257.508C43.6627 256.852 44.916 256.523 46.347 256.523C47.7871 256.523 49.0403 256.852 50.1067 257.508C51.1731 258.164 52.0026 259.089 52.595 260.283C53.1874 261.468 53.4837 262.854 53.4837 264.439C53.4837 266.007 53.1874 267.383 52.595 268.568C52.0026 269.753 51.1731 270.674 50.1067 271.33C49.0403 271.986 47.7871 272.314 46.347 272.314ZM46.347 269.812C47.2858 269.812 48.0605 269.566 48.6712 269.074C49.2818 268.582 49.733 267.93 50.0247 267.119C50.3255 266.299 50.4759 265.406 50.4759 264.439C50.4759 263.455 50.3255 262.553 50.0247 261.732C49.733 260.912 49.2818 260.256 48.6712 259.764C48.0605 259.271 47.2858 259.025 46.347 259.025C45.4173 259.025 44.6471 259.271 44.0364 259.764C43.4348 260.256 42.9837 260.912 42.6829 261.732C42.3821 262.553 42.2317 263.455 42.2317 264.439C42.2317 265.406 42.3821 266.299 42.6829 267.119C42.9837 267.93 43.4348 268.582 44.0364 269.074C44.6471 269.566 45.4173 269.812 46.347 269.812ZM67.8736 256.715L62.3502 272H59.1509L53.6138 256.715H56.7994L60.6822 268.5H60.8463L64.7017 256.715H67.8736ZM75.2909 272.314C73.7961 272.314 72.5018 271.991 71.408 271.344C70.3143 270.697 69.4712 269.785 68.8787 268.609C68.2954 267.424 68.0037 266.044 68.0037 264.467C68.0037 262.899 68.2909 261.518 68.8651 260.324C69.4484 259.13 70.2642 258.201 71.3123 257.535C72.3696 256.861 73.6092 256.523 75.0311 256.523C75.897 256.523 76.7355 256.665 77.5467 256.947C78.3579 257.23 79.0871 257.676 79.7342 258.287C80.3814 258.898 80.8918 259.691 81.2655 260.666C81.6483 261.641 81.8397 262.817 81.8397 264.193V265.26H69.6854V263.031H80.3084L78.9276 263.77C78.9276 262.831 78.7817 262.001 78.4901 261.281C78.1984 260.561 77.7609 260.001 77.1776 259.6C76.6034 259.189 75.8879 258.984 75.0311 258.984C74.1743 258.984 73.4406 259.189 72.8299 259.6C72.2284 260.01 71.7681 260.552 71.4491 261.227C71.1301 261.901 70.9705 262.639 70.9705 263.441V264.959C70.9705 266.007 71.1528 266.896 71.5174 267.625C71.882 268.354 72.3879 268.91 73.035 269.293C73.6912 269.676 74.4523 269.867 75.3182 269.867C75.8833 269.867 76.3937 269.785 76.8495 269.621C77.3143 269.457 77.7153 269.211 78.0526 268.883C78.3898 268.555 78.645 268.149 78.8182 267.666L81.6346 268.199C81.4067 269.02 81.0057 269.74 80.4315 270.359C79.8573 270.979 79.1327 271.462 78.2577 271.809C77.3918 272.146 76.4028 272.314 75.2909 272.314ZM83.6378 272V256.715H86.4952V259.162H86.6593C86.9419 258.342 87.434 257.695 88.1359 257.221C88.8468 256.738 89.6489 256.496 90.5421 256.496C90.7244 256.496 90.9386 256.505 91.1847 256.523C91.4399 256.533 91.645 256.546 91.7999 256.564V259.408C91.6814 259.372 91.4672 259.335 91.1573 259.299C90.8566 259.262 90.5512 259.244 90.2413 259.244C89.5395 259.244 88.9106 259.395 88.3546 259.695C87.8077 259.987 87.3748 260.393 87.0558 260.912C86.7459 261.423 86.5909 262.015 86.5909 262.689V272H83.6378ZM101.863 262.936V272H98.9098V256.715H101.781V259.23H101.986C102.332 258.401 102.875 257.745 103.613 257.262C104.351 256.77 105.299 256.523 106.457 256.523C107.496 256.523 108.403 256.742 109.177 257.18C109.961 257.608 110.567 258.251 110.996 259.107C111.433 259.964 111.652 261.026 111.652 262.293V272H108.699V262.648C108.699 261.546 108.407 260.68 107.824 260.051C107.241 259.413 106.448 259.094 105.445 259.094C104.761 259.094 104.146 259.249 103.599 259.559C103.062 259.859 102.638 260.292 102.328 260.857C102.018 261.423 101.863 262.115 101.863 262.936ZM120.792 272.314C119.297 272.314 118.003 271.991 116.909 271.344C115.815 270.697 114.972 269.785 114.38 268.609C113.797 267.424 113.505 266.044 113.505 264.467C113.505 262.899 113.792 261.518 114.366 260.324C114.95 259.13 115.765 258.201 116.813 257.535C117.871 256.861 119.11 256.523 120.532 256.523C121.398 256.523 122.237 256.665 123.048 256.947C123.859 257.23 124.588 257.676 125.235 258.287C125.882 258.898 126.393 259.691 126.767 260.666C127.149 261.641 127.341 262.817 127.341 264.193V265.26H115.186V263.031H125.81L124.429 263.77C124.429 262.831 124.283 262.001 123.991 261.281C123.7 260.561 123.262 260.001 122.679 259.6C122.104 259.189 121.389 258.984 120.532 258.984C119.675 258.984 118.942 259.189 118.331 259.6C117.729 260.01 117.269 260.552 116.95 261.227C116.631 261.901 116.472 262.639 116.472 263.441V264.959C116.472 266.007 116.654 266.896 117.019 267.625C117.383 268.354 117.889 268.91 118.536 269.293C119.192 269.676 119.953 269.867 120.819 269.867C121.384 269.867 121.895 269.785 122.351 269.621C122.815 269.457 123.216 269.211 123.554 268.883C123.891 268.555 124.146 268.149 124.319 267.666L127.136 268.199C126.908 269.02 126.507 269.74 125.933 270.359C125.358 270.979 124.634 271.462 123.759 271.809C122.893 272.146 121.904 272.314 120.792 272.314ZM131.969 272L127.485 256.715H130.547L133.541 267.939H133.705L136.699 256.715H139.776L142.742 267.898H142.893L145.873 256.715H148.936L144.451 272H141.43L138.313 260.98H138.108L134.99 272H131.969ZM163.552 256.715V259.107H154.925V256.715H163.552ZM157.276 272V254.938C157.276 253.99 157.486 253.201 157.905 252.572C158.333 251.934 158.889 251.46 159.573 251.15C160.266 250.831 161.009 250.672 161.802 250.672C162.412 250.672 162.932 250.722 163.36 250.822C163.789 250.923 164.103 251.009 164.304 251.082L163.593 253.488C163.456 253.443 163.278 253.393 163.059 253.338C162.85 253.283 162.585 253.256 162.266 253.256C161.546 253.256 161.027 253.438 160.708 253.803C160.389 254.158 160.229 254.678 160.229 255.361V272H157.276ZM168.111 251.629V272H165.158V251.629H168.111ZM177.087 272.314C175.656 272.314 174.403 271.986 173.327 271.33C172.261 270.674 171.432 269.753 170.839 268.568C170.256 267.383 169.964 266.007 169.964 264.439C169.964 262.854 170.256 261.468 170.839 260.283C171.432 259.089 172.261 258.164 173.327 257.508C174.403 256.852 175.656 256.523 177.087 256.523C178.527 256.523 179.781 256.852 180.847 257.508C181.913 258.164 182.743 259.089 183.335 260.283C183.928 261.468 184.224 262.854 184.224 264.439C184.224 266.007 183.928 267.383 183.335 268.568C182.743 269.753 181.913 270.674 180.847 271.33C179.781 271.986 178.527 272.314 177.087 272.314ZM177.087 269.812C178.026 269.812 178.801 269.566 179.411 269.074C180.022 268.582 180.473 267.93 180.765 267.119C181.066 266.299 181.216 265.406 181.216 264.439C181.216 263.455 181.066 262.553 180.765 261.732C180.473 260.912 180.022 260.256 179.411 259.764C178.801 259.271 178.026 259.025 177.087 259.025C176.158 259.025 175.387 259.271 174.777 259.764C174.175 260.256 173.724 260.912 173.423 261.732C173.122 262.553 172.972 263.455 172.972 264.439C172.972 265.406 173.122 266.299 173.423 267.119C173.724 267.93 174.175 268.582 174.777 269.074C175.387 269.566 176.158 269.812 177.087 269.812ZM188.921 272L184.436 256.715H187.499L190.493 267.939H190.657L193.651 256.715H196.727L199.694 267.898H199.844L202.825 256.715H205.887L201.403 272H198.381L195.264 260.98H195.059L191.942 272H188.921ZM218.705 260.461L216.012 260.926C215.838 260.415 215.515 259.946 215.041 259.518C214.576 259.089 213.879 258.875 212.949 258.875C212.111 258.875 211.409 259.066 210.844 259.449C210.288 259.823 210.01 260.301 210.01 260.885C210.01 261.395 210.197 261.81 210.57 262.129C210.953 262.448 211.559 262.703 212.389 262.895L214.836 263.441C216.23 263.76 217.274 264.262 217.967 264.945C218.659 265.629 219.006 266.504 219.006 267.57C219.006 268.491 218.741 269.311 218.213 270.031C217.684 270.742 216.95 271.303 216.012 271.713C215.073 272.114 213.988 272.314 212.758 272.314C211.044 272.314 209.65 271.945 208.574 271.207C207.499 270.469 206.838 269.43 206.592 268.09L209.449 267.652C209.631 268.4 210.001 268.965 210.557 269.348C211.122 269.73 211.851 269.922 212.744 269.922C213.71 269.922 214.485 269.717 215.068 269.307C215.661 268.896 215.957 268.4 215.957 267.816C215.957 266.85 215.237 266.199 213.797 265.861L211.213 265.287C209.782 264.959 208.725 264.444 208.041 263.742C207.366 263.031 207.029 262.138 207.029 261.062C207.029 260.16 207.28 259.367 207.781 258.684C208.292 258 208.989 257.471 209.873 257.098C210.766 256.715 211.782 256.523 212.922 256.523C214.581 256.523 215.879 256.883 216.818 257.604C217.766 258.324 218.395 259.276 218.705 260.461ZM231.188 272.328C230.222 272.328 229.347 272.15 228.563 271.795C227.779 271.43 227.159 270.902 226.704 270.209C226.248 269.516 226.02 268.673 226.02 267.68C226.02 266.814 226.184 266.107 226.512 265.561C226.849 265.005 227.301 264.562 227.866 264.234C228.431 263.906 229.06 263.66 229.752 263.496C230.445 263.332 231.156 263.204 231.885 263.113C232.806 263.013 233.549 262.926 234.114 262.854C234.679 262.781 235.089 262.667 235.344 262.512C235.609 262.348 235.741 262.088 235.741 261.732V261.664C235.741 260.798 235.495 260.128 235.002 259.654C234.519 259.18 233.799 258.943 232.842 258.943C231.849 258.943 231.06 259.162 230.477 259.6C229.903 260.028 229.506 260.516 229.288 261.062L226.485 260.42C226.822 259.49 227.31 258.743 227.948 258.178C228.595 257.604 229.333 257.184 230.163 256.92C231.001 256.656 231.876 256.523 232.788 256.523C233.398 256.523 234.045 256.596 234.729 256.742C235.413 256.879 236.055 257.139 236.657 257.521C237.267 257.895 237.764 258.433 238.147 259.135C238.53 259.837 238.721 260.743 238.721 261.855V272H235.809V269.908H235.7C235.517 270.282 235.23 270.656 234.838 271.029C234.456 271.403 233.963 271.713 233.362 271.959C232.76 272.205 232.036 272.328 231.188 272.328ZM231.831 269.949C232.66 269.949 233.366 269.79 233.95 269.471C234.533 269.143 234.98 268.714 235.29 268.186C235.599 267.657 235.754 267.096 235.754 266.504V264.521C235.645 264.622 235.44 264.717 235.139 264.809C234.838 264.9 234.497 264.977 234.114 265.041C233.731 265.105 233.357 265.164 232.993 265.219C232.628 265.264 232.323 265.301 232.077 265.328C231.502 265.41 230.978 265.538 230.504 265.711C230.03 265.875 229.648 266.121 229.356 266.449C229.073 266.768 228.932 267.192 228.932 267.721C228.932 268.459 229.206 269.015 229.752 269.389C230.299 269.762 230.992 269.949 231.831 269.949ZM244.252 262.936V272H241.299V256.715H244.17V259.23H244.375C244.721 258.401 245.263 257.745 246.002 257.262C246.74 256.77 247.688 256.523 248.845 256.523C249.885 256.523 250.791 256.742 251.566 257.18C252.35 257.608 252.956 258.251 253.385 259.107C253.822 259.964 254.041 261.026 254.041 262.293V272H251.088V262.648C251.088 261.546 250.796 260.68 250.213 260.051C249.629 259.413 248.836 259.094 247.834 259.094C247.15 259.094 246.535 259.249 245.988 259.559C245.45 259.859 245.026 260.292 244.717 260.857C244.407 261.423 244.252 262.115 244.252 262.936ZM262.292 272.301C261.052 272.301 259.95 271.986 258.983 271.357C258.017 270.719 257.261 269.812 256.714 268.637C256.167 267.452 255.894 266.039 255.894 264.398C255.894 262.74 256.172 261.322 256.728 260.146C257.284 258.971 258.045 258.073 259.011 257.453C259.977 256.833 261.071 256.523 262.292 256.523C263.249 256.523 264.015 256.683 264.589 257.002C265.172 257.312 265.623 257.676 265.942 258.096C266.271 258.515 266.521 258.884 266.694 259.203H266.872V251.629H269.825V272H266.94V269.621H266.694C266.521 269.94 266.266 270.309 265.929 270.729C265.592 271.148 265.131 271.517 264.548 271.836C263.974 272.146 263.222 272.301 262.292 272.301ZM262.935 269.771C263.791 269.771 264.516 269.544 265.108 269.088C265.701 268.632 266.148 267.999 266.448 267.188C266.758 266.376 266.913 265.438 266.913 264.371C266.913 263.305 266.763 262.375 266.462 261.582C266.161 260.78 265.715 260.16 265.122 259.723C264.53 259.276 263.801 259.053 262.935 259.053C262.041 259.053 261.299 259.285 260.706 259.75C260.114 260.215 259.667 260.848 259.366 261.65C259.065 262.452 258.915 263.359 258.915 264.371C258.915 265.392 259.065 266.312 259.366 267.133C259.667 267.944 260.114 268.587 260.706 269.061C261.308 269.535 262.051 269.771 262.935 269.771ZM32.6953 292.715V295.107H24.0684V292.715H32.6953ZM26.4199 308V290.938C26.4199 289.99 26.6296 289.201 27.0488 288.572C27.4772 287.934 28.0332 287.46 28.7168 287.15C29.4095 286.831 30.1523 286.672 30.9453 286.672C31.556 286.672 32.0755 286.722 32.5039 286.822C32.9323 286.923 33.2467 287.009 33.4473 287.082L32.7363 289.488C32.5996 289.443 32.4219 289.393 32.2031 289.338C31.9935 289.283 31.7292 289.256 31.4102 289.256C30.6901 289.256 30.1706 289.438 29.8516 289.803C29.5326 290.158 29.373 290.678 29.373 291.361V308H26.4199ZM40.2766 308.314C38.7818 308.314 37.4876 307.991 36.3938 307.344C35.3001 306.697 34.457 305.785 33.8645 304.609C33.2812 303.424 32.9895 302.044 32.9895 300.467C32.9895 298.899 33.2766 297.518 33.8509 296.324C34.4342 295.13 35.2499 294.201 36.2981 293.535C37.3554 292.861 38.595 292.523 40.0169 292.523C40.8828 292.523 41.7213 292.665 42.5325 292.947C43.3437 293.23 44.0729 293.676 44.72 294.287C45.3671 294.898 45.8776 295.691 46.2513 296.666C46.6341 297.641 46.8255 298.817 46.8255 300.193V301.26H34.6712V299.031H45.2942L43.9134 299.77C43.9134 298.831 43.7675 298.001 43.4759 297.281C43.1842 296.561 42.7467 296.001 42.1634 295.6C41.5891 295.189 40.8736 294.984 40.0169 294.984C39.1601 294.984 38.4264 295.189 37.8157 295.6C37.2141 296.01 36.7539 296.552 36.4348 297.227C36.1158 297.901 35.9563 298.639 35.9563 299.441V300.959C35.9563 302.007 36.1386 302.896 36.5032 303.625C36.8678 304.354 37.3736 304.91 38.0208 305.293C38.677 305.676 39.4381 305.867 40.304 305.867C40.8691 305.867 41.3795 305.785 41.8352 305.621C42.3001 305.457 42.7011 305.211 43.0384 304.883C43.3756 304.555 43.6308 304.149 43.804 303.666L46.6204 304.199C46.3925 305.02 45.9915 305.74 45.4173 306.359C44.843 306.979 44.1184 307.462 43.2434 307.809C42.3776 308.146 41.3886 308.314 40.2766 308.314ZM53.0533 308.328C52.0871 308.328 51.2121 308.15 50.4283 307.795C49.6444 307.43 49.0246 306.902 48.5689 306.209C48.1132 305.516 47.8853 304.673 47.8853 303.68C47.8853 302.814 48.0494 302.107 48.3775 301.561C48.7147 301.005 49.1659 300.562 49.731 300.234C50.2961 299.906 50.925 299.66 51.6177 299.496C52.3104 299.332 53.0214 299.204 53.7505 299.113C54.6711 299.013 55.414 298.926 55.9791 298.854C56.5442 298.781 56.9543 298.667 57.2095 298.512C57.4739 298.348 57.606 298.088 57.606 297.732V297.664C57.606 296.798 57.3599 296.128 56.8677 295.654C56.3847 295.18 55.6646 294.943 54.7076 294.943C53.7141 294.943 52.9257 295.162 52.3423 295.6C51.7681 296.028 51.3716 296.516 51.1529 297.062L48.3502 296.42C48.6874 295.49 49.175 294.743 49.813 294.178C50.4602 293.604 51.1985 293.184 52.0279 292.92C52.8664 292.656 53.7414 292.523 54.6529 292.523C55.2636 292.523 55.9107 292.596 56.5943 292.742C57.2779 292.879 57.9205 293.139 58.522 293.521C59.1327 293.895 59.6295 294.433 60.0123 295.135C60.3951 295.837 60.5865 296.743 60.5865 297.855V308H57.6744V305.908H57.565C57.3827 306.282 57.0956 306.656 56.7037 307.029C56.3209 307.403 55.8287 307.713 55.2271 307.959C54.6255 308.205 53.9009 308.328 53.0533 308.328ZM53.6959 305.949C54.5253 305.949 55.2317 305.79 55.815 305.471C56.3983 305.143 56.8449 304.714 57.1548 304.186C57.4647 303.657 57.6197 303.096 57.6197 302.504V300.521C57.5103 300.622 57.3052 300.717 57.0045 300.809C56.7037 300.9 56.3619 300.977 55.9791 301.041C55.5963 301.105 55.2226 301.164 54.858 301.219C54.4934 301.264 54.188 301.301 53.942 301.328C53.3677 301.41 52.8436 301.538 52.3697 301.711C51.8957 301.875 51.5129 302.121 51.2213 302.449C50.9387 302.768 50.7974 303.192 50.7974 303.721C50.7974 304.459 51.0709 305.015 51.6177 305.389C52.1646 305.762 52.8573 305.949 53.6959 305.949ZM70.2733 292.715V295.107H61.9334V292.715H70.2733ZM64.162 289.078H67.1287V303.516C67.1287 304.217 67.2746 304.732 67.5662 305.061C67.8579 305.38 68.3273 305.539 68.9745 305.539C69.1294 305.539 69.2935 305.53 69.4666 305.512C69.6489 305.493 69.8312 305.466 70.0135 305.43L70.5741 307.891C70.2733 307.991 69.9452 308.068 69.5897 308.123C69.2342 308.178 68.8787 308.205 68.5233 308.205C67.2017 308.205 66.1444 307.836 65.3514 307.098C64.5584 306.35 64.162 305.357 64.162 304.117V289.078ZM81.8058 301.684V292.715H84.7589V308H81.8605V305.348H81.6964C81.3318 306.159 80.7667 306.838 80.0011 307.385C79.2355 307.932 78.2784 308.201 77.13 308.191C76.1456 308.191 75.2752 307.977 74.5187 307.549C73.7713 307.12 73.1834 306.478 72.755 305.621C72.3357 304.764 72.1261 303.702 72.1261 302.436V292.715H75.0792V302.094C75.0792 303.124 75.3709 303.949 75.9542 304.568C76.5376 305.188 77.2895 305.493 78.2101 305.484C78.7661 305.484 79.3175 305.348 79.8644 305.074C80.4204 304.801 80.8807 304.382 81.2452 303.816C81.6189 303.251 81.8058 302.54 81.8058 301.684ZM87.3227 308V292.715H90.1801V295.162H90.3441C90.6267 294.342 91.1189 293.695 91.8207 293.221C92.5316 292.738 93.3337 292.496 94.227 292.496C94.4092 292.496 94.6234 292.505 94.8695 292.523C95.1247 292.533 95.3298 292.546 95.4848 292.564V295.408C95.3663 295.372 95.1521 295.335 94.8422 295.299C94.5414 295.262 94.2361 295.244 93.9262 295.244C93.2243 295.244 92.5954 295.395 92.0395 295.695C91.4926 295.987 91.0596 296.393 90.7406 296.912C90.4307 297.423 90.2758 298.015 90.2758 298.689V308H87.3227ZM102.67 308.314C101.175 308.314 99.8805 307.991 98.7868 307.344C97.693 306.697 96.8499 305.785 96.2575 304.609C95.6742 303.424 95.3825 302.044 95.3825 300.467C95.3825 298.899 95.6696 297.518 96.2438 296.324C96.8272 295.13 97.6429 294.201 98.6911 293.535C99.7484 292.861 100.988 292.523 102.41 292.523C103.276 292.523 104.114 292.665 104.925 292.947C105.737 293.23 106.466 293.676 107.113 294.287C107.76 294.898 108.271 295.691 108.644 296.666C109.027 297.641 109.218 298.817 109.218 300.193V301.26H97.0641V299.031H107.687L106.306 299.77C106.306 298.831 106.16 298.001 105.869 297.281C105.577 296.561 105.14 296.001 104.556 295.6C103.982 295.189 103.267 294.984 102.41 294.984C101.553 294.984 100.819 295.189 100.209 295.6C99.6071 296.01 99.1468 296.552 98.8278 297.227C98.5088 297.901 98.3493 298.639 98.3493 299.441V300.959C98.3493 302.007 98.5316 302.896 98.8962 303.625C99.2608 304.354 99.7666 304.91 100.414 305.293C101.07 305.676 101.831 305.867 102.697 305.867C103.262 305.867 103.772 305.785 104.228 305.621C104.693 305.457 105.094 305.211 105.431 304.883C105.769 304.555 106.024 304.149 106.197 303.666L109.013 304.199C108.785 305.02 108.384 305.74 107.81 306.359C107.236 306.979 106.511 307.462 105.636 307.809C104.771 308.146 103.782 308.314 102.67 308.314ZM122.446 296.461L119.753 296.926C119.58 296.415 119.256 295.946 118.782 295.518C118.317 295.089 117.62 294.875 116.69 294.875C115.852 294.875 115.15 295.066 114.585 295.449C114.029 295.823 113.751 296.301 113.751 296.885C113.751 297.395 113.938 297.81 114.311 298.129C114.694 298.448 115.3 298.703 116.13 298.895L118.577 299.441C119.972 299.76 121.015 300.262 121.708 300.945C122.401 301.629 122.747 302.504 122.747 303.57C122.747 304.491 122.483 305.311 121.954 306.031C121.425 306.742 120.692 307.303 119.753 307.713C118.814 308.114 117.729 308.314 116.499 308.314C114.785 308.314 113.391 307.945 112.315 307.207C111.24 306.469 110.579 305.43 110.333 304.09L113.19 303.652C113.373 304.4 113.742 304.965 114.298 305.348C114.863 305.73 115.592 305.922 116.485 305.922C117.451 305.922 118.226 305.717 118.81 305.307C119.402 304.896 119.698 304.4 119.698 303.816C119.698 302.85 118.978 302.199 117.538 301.861L114.954 301.287C113.523 300.959 112.466 300.444 111.782 299.742C111.108 299.031 110.77 298.138 110.77 297.062C110.77 296.16 111.021 295.367 111.522 294.684C112.033 294 112.73 293.471 113.614 293.098C114.507 292.715 115.524 292.523 116.663 292.523C118.322 292.523 119.621 292.883 120.56 293.604C121.507 294.324 122.136 295.276 122.446 296.461Z" fill="#424242"/>
<path d="M76.5695 236.273C75.3754 236.273 74.2999 235.968 73.3429 235.357C72.395 234.738 71.6476 233.84 71.1007 232.664C70.5538 231.488 70.2804 230.062 70.2804 228.385C70.2804 226.68 70.5584 225.245 71.1144 224.078C71.6795 222.911 72.436 222.027 73.3839 221.426C74.3318 220.824 75.3937 220.523 76.5695 220.523C77.4718 220.523 78.2101 220.674 78.7843 220.975C79.3585 221.275 79.8142 221.64 80.1515 222.068C80.4978 222.488 80.7622 222.88 80.9445 223.244H81.0948V215.629H84.6769V236H81.1632V233.58H80.9445C80.753 233.954 80.4842 234.35 80.1378 234.77C79.7915 235.18 79.3312 235.535 78.757 235.836C78.1827 236.128 77.4536 236.273 76.5695 236.273ZM77.5675 233.32C78.3331 233.32 78.9803 233.115 79.5089 232.705C80.0467 232.286 80.4568 231.707 80.7394 230.969C81.0219 230.221 81.1632 229.355 81.1632 228.371C81.1632 227.378 81.0219 226.516 80.7394 225.787C80.4659 225.049 80.0603 224.479 79.5226 224.078C78.9939 223.677 78.3422 223.477 77.5675 223.477C76.7745 223.477 76.1092 223.686 75.5714 224.105C75.0336 224.525 74.628 225.104 74.3546 225.842C74.0903 226.58 73.9581 227.423 73.9581 228.371C73.9581 229.319 74.0948 230.167 74.3683 230.914C74.6417 231.661 75.0428 232.249 75.5714 232.678C76.1092 233.106 76.7745 233.32 77.5675 233.32ZM93.8305 236.301C92.2992 236.301 90.9776 235.982 89.8656 235.344C88.7536 234.697 87.8969 233.785 87.2953 232.609C86.7029 231.434 86.4066 230.048 86.4066 228.453C86.4066 226.876 86.7029 225.495 87.2953 224.311C87.8878 223.117 88.7217 222.187 89.7973 221.521C90.8728 220.856 92.1397 220.523 93.598 220.523C94.5368 220.523 95.4255 220.674 96.2641 220.975C97.1117 221.275 97.8591 221.74 98.5062 222.369C99.1625 222.998 99.6775 223.8 100.051 224.775C100.425 225.742 100.612 226.895 100.612 228.234V229.355H88.0883V226.936H98.8207L97.1391 227.646C97.1391 226.781 97.0069 226.029 96.7426 225.391C96.4783 224.743 96.0863 224.238 95.5668 223.873C95.0473 223.508 94.4001 223.326 93.6254 223.326C92.8506 223.326 92.1898 223.508 91.643 223.873C91.0961 224.238 90.6814 224.73 90.3988 225.35C90.1163 225.96 89.975 226.644 89.975 227.4V229.082C89.975 230.012 90.1345 230.809 90.4535 231.475C90.7816 232.131 91.2374 232.632 91.8207 232.979C92.4131 233.325 93.1013 233.498 93.8852 233.498C94.3956 233.498 94.8604 233.425 95.2797 233.279C95.7081 233.133 96.0727 232.915 96.3734 232.623C96.6833 232.322 96.9203 231.953 97.0844 231.516L100.448 231.912C100.229 232.796 99.8233 233.571 99.2309 234.236C98.6475 234.893 97.8956 235.403 96.975 235.768C96.0635 236.123 95.0154 236.301 93.8305 236.301ZM114.345 224.775L111.078 225.117C110.941 224.616 110.645 224.174 110.189 223.791C109.733 223.399 109.091 223.203 108.261 223.203C107.514 223.203 106.885 223.367 106.375 223.695C105.873 224.023 105.623 224.443 105.623 224.953C105.623 225.4 105.787 225.769 106.115 226.061C106.452 226.343 107.008 226.571 107.783 226.744L110.394 227.291C111.825 227.592 112.896 228.084 113.607 228.768C114.318 229.451 114.674 230.335 114.674 231.42C114.674 232.377 114.396 233.225 113.84 233.963C113.284 234.701 112.513 235.275 111.529 235.686C110.554 236.096 109.428 236.301 108.152 236.301C106.284 236.301 104.78 235.909 103.64 235.125C102.51 234.332 101.831 233.234 101.603 231.83L105.117 231.502C105.272 232.186 105.609 232.705 106.129 233.061C106.657 233.407 107.332 233.58 108.152 233.58C109.009 233.58 109.697 233.407 110.216 233.061C110.736 232.705 110.996 232.272 110.996 231.762C110.996 230.905 110.312 230.322 108.945 230.012L106.334 229.465C104.866 229.146 103.782 228.631 103.08 227.92C102.378 227.2 102.027 226.284 102.027 225.172C102.027 224.224 102.287 223.404 102.806 222.711C103.326 222.018 104.05 221.48 104.98 221.098C105.91 220.715 106.985 220.523 108.207 220.523C110.002 220.523 111.41 220.911 112.431 221.686C113.461 222.451 114.099 223.481 114.345 224.775ZM116.335 236V220.715H119.931V236H116.335ZM118.14 218.568C117.565 218.568 117.073 218.377 116.663 217.994C116.253 217.611 116.048 217.151 116.048 216.613C116.048 216.066 116.253 215.602 116.663 215.219C117.073 214.836 117.565 214.645 118.14 214.645C118.705 214.645 119.192 214.836 119.603 215.219C120.013 215.602 120.218 216.062 120.218 216.6C120.218 217.146 120.013 217.611 119.603 217.994C119.192 218.377 118.705 218.568 118.14 218.568ZM128.934 242.043C126.992 242.043 125.466 241.665 124.354 240.908C123.242 240.161 122.526 239.254 122.207 238.188L125.434 237.395C125.58 237.695 125.794 237.992 126.076 238.283C126.359 238.584 126.737 238.83 127.211 239.021C127.685 239.222 128.282 239.322 129.002 239.322C130.023 239.322 130.866 239.072 131.531 238.57C132.206 238.078 132.543 237.271 132.543 236.15V233.266H132.338C132.165 233.63 131.901 234.008 131.545 234.4C131.19 234.783 130.72 235.111 130.137 235.385C129.563 235.649 128.834 235.781 127.949 235.781C126.783 235.781 125.721 235.503 124.764 234.947C123.816 234.391 123.059 233.562 122.494 232.459C121.938 231.356 121.66 229.975 121.66 228.316C121.66 226.639 121.938 225.222 122.494 224.064C123.059 222.907 123.821 222.027 124.778 221.426C125.735 220.824 126.801 220.523 127.977 220.523C128.87 220.523 129.608 220.674 130.192 220.975C130.775 221.275 131.24 221.64 131.586 222.068C131.933 222.488 132.201 222.88 132.393 223.244H132.584V220.715H136.098V236.246C136.098 237.549 135.788 238.63 135.168 239.486C134.548 240.343 133.696 240.981 132.612 241.4C131.536 241.829 130.31 242.043 128.934 242.043ZM128.961 232.951C130.11 232.951 130.994 232.541 131.614 231.721C132.242 230.891 132.557 229.747 132.557 228.289C132.557 227.323 132.42 226.48 132.147 225.76C131.873 225.04 131.468 224.479 130.93 224.078C130.392 223.677 129.736 223.477 128.961 223.477C128.159 223.477 127.489 223.686 126.951 224.105C126.414 224.525 126.008 225.099 125.735 225.828C125.47 226.548 125.338 227.368 125.338 228.289C125.338 229.219 125.475 230.035 125.748 230.736C126.022 231.438 126.427 231.985 126.965 232.377C127.512 232.76 128.177 232.951 128.961 232.951ZM142.066 227.059V236H138.47V220.715H141.998V223.326H142.175C142.522 222.469 143.064 221.79 143.802 221.289C144.55 220.779 145.498 220.523 146.646 220.523C147.703 220.523 148.624 220.747 149.408 221.193C150.192 221.64 150.798 222.296 151.226 223.162C151.664 224.019 151.882 225.058 151.882 226.279V236H148.287V226.84C148.287 225.819 148.022 225.021 147.494 224.447C146.965 223.864 146.236 223.572 145.306 223.572C144.677 223.572 144.117 223.709 143.625 223.982C143.141 224.256 142.759 224.652 142.476 225.172C142.203 225.682 142.066 226.311 142.066 227.059ZM171.953 224.775L168.686 225.117C168.549 224.616 168.253 224.174 167.797 223.791C167.341 223.399 166.699 223.203 165.869 223.203C165.122 223.203 164.493 223.367 163.982 223.695C163.481 224.023 163.231 224.443 163.231 224.953C163.231 225.4 163.395 225.769 163.723 226.061C164.06 226.343 164.616 226.571 165.391 226.744L168.002 227.291C169.433 227.592 170.504 228.084 171.215 228.768C171.926 229.451 172.281 230.335 172.281 231.42C172.281 232.377 172.003 233.225 171.447 233.963C170.891 234.701 170.121 235.275 169.137 235.686C168.162 236.096 167.036 236.301 165.76 236.301C163.891 236.301 162.387 235.909 161.248 235.125C160.118 234.332 159.439 233.234 159.211 231.83L162.725 231.502C162.88 232.186 163.217 232.705 163.736 233.061C164.265 233.407 164.94 233.58 165.76 233.58C166.617 233.58 167.305 233.407 167.824 233.061C168.344 232.705 168.604 232.272 168.604 231.762C168.604 230.905 167.92 230.322 166.553 230.012L163.941 229.465C162.474 229.146 161.389 228.631 160.688 227.92C159.986 227.2 159.635 226.284 159.635 225.172C159.635 224.224 159.895 223.404 160.414 222.711C160.934 222.018 161.658 221.48 162.588 221.098C163.518 220.715 164.593 220.523 165.815 220.523C167.61 220.523 169.018 220.911 170.039 221.686C171.069 222.451 171.707 223.481 171.953 224.775ZM176.185 241.715C175.693 241.724 175.237 241.688 174.818 241.605C174.408 241.533 174.075 241.446 173.82 241.346L174.667 238.543L174.845 238.598C175.574 238.789 176.194 238.803 176.704 238.639C177.224 238.475 177.639 237.978 177.949 237.148L178.249 236.328L172.726 220.715H176.54L180.054 232.268H180.218L183.745 220.715H187.587L181.462 237.846C181.18 238.657 180.806 239.35 180.341 239.924C179.876 240.507 179.302 240.949 178.619 241.25C177.935 241.56 177.124 241.715 176.185 241.715ZM200.815 224.775L197.548 225.117C197.411 224.616 197.115 224.174 196.659 223.791C196.203 223.399 195.561 223.203 194.731 223.203C193.984 223.203 193.355 223.367 192.844 223.695C192.343 224.023 192.092 224.443 192.092 224.953C192.092 225.4 192.256 225.769 192.585 226.061C192.922 226.343 193.478 226.571 194.253 226.744L196.864 227.291C198.295 227.592 199.366 228.084 200.077 228.768C200.788 229.451 201.143 230.335 201.143 231.42C201.143 232.377 200.865 233.225 200.309 233.963C199.753 234.701 198.983 235.275 197.999 235.686C197.023 236.096 195.898 236.301 194.622 236.301C192.753 236.301 191.249 235.909 190.11 235.125C188.98 234.332 188.301 233.234 188.073 231.83L191.587 231.502C191.742 232.186 192.079 232.705 192.598 233.061C193.127 233.407 193.801 233.58 194.622 233.58C195.478 233.58 196.167 233.407 196.686 233.061C197.206 232.705 197.465 232.272 197.465 231.762C197.465 230.905 196.782 230.322 195.415 230.012L192.803 229.465C191.336 229.146 190.251 228.631 189.549 227.92C188.848 227.2 188.497 226.284 188.497 225.172C188.497 224.224 188.756 223.404 189.276 222.711C189.796 222.018 190.52 221.48 191.45 221.098C192.38 220.715 193.455 220.523 194.676 220.523C196.472 220.523 197.88 220.911 198.901 221.686C199.931 222.451 200.569 223.481 200.815 224.775ZM210.42 220.715V223.504H201.656V220.715H210.42ZM203.803 217.078H207.398V231.406C207.398 232.008 207.531 232.454 207.795 232.746C208.059 233.029 208.478 233.17 209.053 233.17C209.208 233.17 209.381 233.156 209.572 233.129C209.764 233.102 209.937 233.07 210.092 233.033L210.707 235.85C210.324 235.968 209.937 236.055 209.545 236.109C209.153 236.173 208.761 236.205 208.369 236.205C206.947 236.205 205.831 235.831 205.019 235.084C204.208 234.327 203.803 233.298 203.803 231.994V217.078ZM218.726 236.301C217.195 236.301 215.873 235.982 214.761 235.344C213.649 234.697 212.792 233.785 212.191 232.609C211.598 231.434 211.302 230.048 211.302 228.453C211.302 226.876 211.598 225.495 212.191 224.311C212.783 223.117 213.617 222.187 214.693 221.521C215.768 220.856 217.035 220.523 218.493 220.523C219.432 220.523 220.321 220.674 221.159 220.975C222.007 221.275 222.754 221.74 223.402 222.369C224.058 222.998 224.573 223.8 224.946 224.775C225.32 225.742 225.507 226.895 225.507 228.234V229.355H212.984V226.936H223.716L222.034 227.646C222.034 226.781 221.902 226.029 221.638 225.391C221.374 224.743 220.982 224.238 220.462 223.873C219.943 223.508 219.295 223.326 218.521 223.326C217.746 223.326 217.085 223.508 216.538 223.873C215.991 224.238 215.577 224.73 215.294 225.35C215.012 225.96 214.87 226.644 214.87 227.4V229.082C214.87 230.012 215.03 230.809 215.349 231.475C215.677 232.131 216.133 232.632 216.716 232.979C217.308 233.325 217.997 233.498 218.78 233.498C219.291 233.498 219.756 233.425 220.175 233.279C220.603 233.133 220.968 232.915 221.269 232.623C221.579 232.322 221.816 231.953 221.98 231.516L225.343 231.912C225.124 232.796 224.719 233.571 224.126 234.236C223.543 234.893 222.791 235.403 221.87 235.768C220.959 236.123 219.911 236.301 218.726 236.301ZM227.182 236V220.715H230.614V223.326H230.805C231.124 222.451 231.653 221.768 232.391 221.275C233.129 220.774 234.004 220.523 235.016 220.523C236.055 220.523 236.93 220.774 237.641 221.275C238.352 221.777 238.849 222.46 239.131 223.326H239.295C239.642 222.479 240.216 221.799 241.018 221.289C241.82 220.779 242.777 220.523 243.889 220.523C245.293 220.523 246.437 220.97 247.321 221.863C248.214 222.747 248.661 224.042 248.661 225.746V236H245.051V226.293C245.051 225.354 244.796 224.666 244.286 224.229C243.784 223.782 243.169 223.559 242.44 223.559C241.574 223.559 240.9 223.832 240.416 224.379C239.933 224.917 239.692 225.609 239.692 226.457V236H236.137V226.156C236.137 225.363 235.905 224.734 235.44 224.27C234.975 223.796 234.36 223.559 233.594 223.559C233.075 223.559 232.601 223.691 232.172 223.955C231.744 224.219 231.402 224.589 231.147 225.062C230.901 225.536 230.778 226.083 230.778 226.703V236H227.182Z" fill="#A47FE2"/>
<rect x="24.5" y="92.5" width="47" height="47" rx="7.5" fill="#F0EBF8"/>
<rect x="24.5" y="92.5" width="47" height="47" rx="7.5" stroke="#E6D8FD"/>
<g clip-path="url(#clip1_455_6657)">
<path d="M52.9497 109.813L49.2374 113.525C48.9092 113.853 48.4641 114.038 48 114.038C47.5359 114.038 47.0908 113.853 46.7626 113.525L43.0503 109.813C42.7221 109.485 42.5377 109.039 42.5377 108.575C42.5377 108.111 42.7221 107.666 43.0503 107.338L46.7626 103.626C47.0908 103.297 47.5359 103.113 48 103.113C48.4641 103.113 48.9092 103.297 49.2374 103.626L52.9497 107.338C53.2779 107.666 53.4623 108.111 53.4623 108.575C53.4623 109.039 53.2779 109.485 52.9497 109.813ZM60.3744 114.763L56.6621 111.05C56.3339 110.722 55.8887 110.538 55.4246 110.538C54.9605 110.538 54.5154 110.722 54.1872 111.05L50.4749 114.763C50.1467 115.091 49.9623 115.536 49.9623 116C49.9623 116.464 50.1467 116.909 50.4749 117.237L54.1872 120.95C54.5154 121.278 54.9605 121.462 55.4246 121.462C55.8887 121.462 56.3339 121.278 56.6621 120.95L60.3744 117.237C60.7026 116.909 60.8869 116.464 60.8869 116C60.8869 115.536 60.7026 115.091 60.3744 114.763ZM45.5251 114.763L41.8128 111.05C41.4846 110.722 41.0395 110.538 40.5754 110.538C40.1113 110.538 39.6661 110.722 39.3379 111.05L35.6256 114.763C35.2974 115.091 35.1131 115.536 35.1131 116C35.1131 116.464 35.2974 116.909 35.6256 117.237L39.3379 120.95C39.6661 121.278 40.1113 121.462 40.5754 121.462C41.0395 121.462 41.4846 121.278 41.8128 120.95L45.5251 117.237C45.8533 116.909 46.0377 116.464 46.0377 116C46.0377 115.536 45.8533 115.091 45.5251 114.763ZM52.9497 122.187L49.2374 118.475C48.9092 118.147 48.4641 117.962 48 117.962C47.5359 117.962 47.0908 118.147 46.7626 118.475L43.0503 122.187C42.7221 122.515 42.5377 122.96 42.5377 123.425C42.5377 123.889 42.7221 124.334 43.0503 124.662L46.7626 128.374C47.0908 128.703 47.5359 128.887 48 128.887C48.4641 128.887 48.9092 128.703 49.2374 128.374L52.9497 124.662C53.2779 124.334 53.4623 123.889 53.4623 123.425C53.4623 122.96 53.2779 122.515 52.9497 122.187Z" fill="#A47FE2"/>
</g>
<g clip-path="url(#clip2_455_6657)">
<g opacity="0.8">
<path d="M231.498 391.113C240.703 409.772 258.504 422.701 279.091 425.69C330.941 433.224 351.639 496.94 314.122 533.513C299.223 548.033 292.423 568.961 295.941 589.466C304.798 641.105 250.598 680.488 204.223 656.104C185.806 646.42 163.809 646.42 145.393 656.104C99.0177 680.488 44.8175 641.105 53.6747 589.466C57.1928 568.961 50.3929 548.039 35.494 533.513C-2.02346 496.94 18.6808 433.224 70.5253 425.69C91.1114 422.701 108.913 409.766 118.118 391.113C141.309 344.129 208.301 344.129 231.491 391.113H231.498Z" stroke="url(#paint0_linear_455_6657)" stroke-width="4.35094" stroke-miterlimit="10"/>
<path d="M180.211 377.923C196.21 391.225 217.728 395.799 237.755 390.155C288.188 375.947 333.016 425.74 313.617 474.408C305.915 493.733 308.215 515.618 319.764 532.916C348.859 576.487 315.363 634.51 263.077 631.098C242.317 629.743 222.216 638.693 209.331 655.028C176.879 696.163 111.348 682.234 98.4379 631.458C93.31 611.295 78.5914 594.948 59.0744 587.738C9.92741 569.588 2.92241 502.957 47.2212 474.986C64.8114 463.879 75.813 444.828 76.6397 424.037C78.7157 371.683 139.915 344.433 180.211 377.923V377.923Z" stroke="url(#paint1_linear_455_6657)" stroke-width="4.35094" stroke-miterlimit="10"/>
<path d="M122.657 389.508C142.684 395.152 164.202 390.578 180.202 377.276C220.491 343.786 281.696 371.036 283.772 423.39C284.593 444.181 295.595 463.232 313.191 474.339C357.49 502.31 350.491 568.941 301.338 587.091C281.821 594.301 267.102 610.648 261.974 630.811C249.064 681.587 183.527 695.516 151.081 654.381C138.196 638.046 118.095 629.096 97.3348 630.451C45.0552 633.863 11.553 575.84 40.6483 532.269C52.2032 514.965 54.5029 493.086 46.7956 473.761C27.3966 425.093 72.2237 375.306 122.657 389.508V389.508Z" stroke="url(#paint2_linear_455_6657)" stroke-width="4.35094" stroke-miterlimit="10"/>
</g>
<g opacity="0.8">
<path d="M195.003 448.161C198.272 457.347 208.764 461.692 217.572 457.509C231.557 450.865 246.145 465.453 239.495 479.432C235.311 488.239 239.656 498.731 248.843 502.001C263.431 507.191 263.431 527.82 248.843 533.004C239.656 536.273 235.311 546.765 239.495 555.573C246.139 569.558 231.551 584.146 217.572 577.495C208.764 573.312 198.272 577.657 195.003 586.844C189.813 601.432 169.183 601.432 164 586.844C160.73 577.657 150.238 573.312 141.431 577.495C127.445 584.14 112.857 569.552 119.508 555.573C123.691 546.765 119.346 536.273 110.16 533.004C95.5717 527.814 95.5717 507.184 110.16 502.001C119.346 498.731 123.691 488.239 119.508 479.432C112.864 465.446 127.452 450.858 141.431 457.509C150.238 461.692 160.73 457.347 164 448.161C169.19 433.573 189.819 433.573 195.003 448.161Z" stroke="url(#paint3_linear_455_6657)" stroke-width="4.35094" stroke-miterlimit="10"/>
<path d="M167.283 447.502C173.815 454.737 185.178 454.737 191.71 447.502C202.084 436.009 221.147 443.903 220.358 459.367C219.861 469.107 227.891 477.138 237.631 476.64C253.096 475.851 260.99 494.908 249.497 505.288C242.262 511.821 242.262 523.183 249.497 529.716C260.99 540.089 253.096 559.153 237.631 558.363C227.891 557.866 219.861 565.897 220.358 575.637C221.147 591.101 202.09 598.995 191.71 587.502C185.178 580.267 173.815 580.267 167.283 587.502C156.909 598.995 137.846 591.101 138.635 575.637C139.132 565.897 131.102 557.866 121.362 558.363C105.897 559.153 98.0035 540.096 109.496 529.716C116.731 523.183 116.731 511.821 109.496 505.288C98.0035 494.914 105.897 475.851 121.362 476.64C131.102 477.138 139.132 469.107 138.635 459.367C137.846 443.903 156.903 436.009 167.283 447.502V447.502Z" stroke="url(#paint4_linear_455_6657)" stroke-width="4.35094" stroke-miterlimit="10"/>
</g>
<path opacity="0.8" d="M179.507 723.831C293.459 723.831 385.835 631.455 385.835 517.503C385.835 403.551 293.459 311.175 179.507 311.175C65.5557 311.175 -26.8203 403.551 -26.8203 517.503C-26.8203 631.455 65.5557 723.831 179.507 723.831Z" stroke="url(#paint5_linear_455_6657)" stroke-width="4.35094" stroke-miterlimit="10"/>
</g>
</g>
<defs>
<linearGradient id="paint0_linear_455_6657" x1="174.809" y1="355.875" x2="174.809" y2="663.506" gradientUnits="userSpaceOnUse">
<stop stop-color="#F8F7F4"/>
<stop offset="0.235" stop-color="#F6F3EC"/>
<stop offset="0.57" stop-color="#EDEAE0"/>
<stop offset="0.8" stop-color="#EDEAE0"/>
</linearGradient>
<linearGradient id="paint1_linear_455_6657" x1="174.144" y1="363.219" x2="174.144" y2="679.125" gradientUnits="userSpaceOnUse">
<stop stop-color="#F8F7F4"/>
<stop offset="0.235" stop-color="#F6F3EC"/>
<stop offset="0.57" stop-color="#EDEAE0"/>
<stop offset="0.8" stop-color="#EDEAE0"/>
</linearGradient>
<linearGradient id="paint2_linear_455_6657" x1="186.27" y1="362.572" x2="186.27" y2="678.478" gradientUnits="userSpaceOnUse">
<stop stop-color="#F8F7F4"/>
<stop offset="0.235" stop-color="#F6F3EC"/>
<stop offset="0.57" stop-color="#EDEAE0"/>
<stop offset="0.8" stop-color="#EDEAE0"/>
</linearGradient>
<linearGradient id="paint3_linear_455_6657" x1="179.501" y1="437.22" x2="179.501" y2="597.785" gradientUnits="userSpaceOnUse">
<stop stop-color="#F8F7F4"/>
<stop offset="0.2" stop-color="#F6F3EC"/>
<stop offset="0.57" stop-color="#EDEAE0"/>
<stop offset="0.8" stop-color="#EDEAE0"/>
</linearGradient>
<linearGradient id="paint4_linear_455_6657" x1="179.497" y1="442.033" x2="179.497" y2="592.971" gradientUnits="userSpaceOnUse">
<stop stop-color="#F8F7F4"/>
<stop offset="0.2" stop-color="#F6F3EC"/>
<stop offset="0.57" stop-color="#EDEAE0"/>
<stop offset="0.8" stop-color="#EDEAE0"/>
</linearGradient>
<linearGradient id="paint5_linear_455_6657" x1="179.507" y1="311.175" x2="179.507" y2="723.831" gradientUnits="userSpaceOnUse">
<stop stop-color="#F8F7F4"/>
<stop offset="0.2" stop-color="#F6F3EC"/>
<stop offset="0.57" stop-color="#EDEAE0"/>
<stop offset="0.8" stop-color="#EDEAE0"/>
</linearGradient>
<clipPath id="clip0_455_6657">
<rect width="360" height="540" rx="12" fill="white"/>
</clipPath>
<clipPath id="clip1_455_6657">
<rect width="28" height="28" fill="white" transform="translate(48 96.2012) rotate(45)"/>
</clipPath>
<clipPath id="clip2_455_6657">
<rect width="417" height="417" fill="white" transform="translate(-29 309)"/>
</clipPath>
</defs>
</svg>
