<svg width="360" height="540" viewBox="0 0 360 540" fill="none" xmlns="http://www.w3.org/2000/svg">
<g clip-path="url(#clip0_455_6657)">
<rect width="360" height="540" rx="16" fill="#F8F7F4"/>
<path d="M34.948 189.42C29.348 189.42 25.008 184.856 25.008 178.92C25.008 173.012 29.348 168.476 34.948 168.476C39.988 168.476 44.02 171.836 44.776 176.792H41.5C40.94 173.544 38.308 171.248 34.976 171.248C31 171.248 28.2 174.468 28.2 178.92C28.2 183.428 31 186.648 34.976 186.648C38.308 186.648 40.94 184.324 41.5 181.076H44.776C44.02 186.06 39.988 189.42 34.948 189.42ZM50.301 181.412V189H47.473V174.16H50.105V177.296C51.141 175.252 53.381 173.964 55.817 173.964V176.904C52.625 176.736 50.301 178.136 50.301 181.412ZM63.8243 189.28C59.5403 189.28 56.6563 186.172 56.6563 181.496C56.6563 177.1 59.6523 173.88 63.7403 173.88C68.1643 173.88 71.1043 177.464 70.6003 182.28H59.5403C59.7643 185.304 61.2763 187.068 63.7683 187.068C65.8683 187.068 67.3243 185.92 67.8003 183.988H70.6003C69.8723 187.292 67.3243 189.28 63.8243 189.28ZM63.6843 176.008C61.4163 176.008 59.8763 177.632 59.5683 180.404H67.6043C67.4643 177.66 65.9803 176.008 63.6843 176.008ZM82.315 189V186.704C81.391 188.356 79.739 189.28 77.555 189.28C74.475 189.28 72.459 187.516 72.459 184.8C72.459 181.888 74.783 180.376 79.207 180.376C80.075 180.376 80.775 180.404 81.979 180.544V179.452C81.979 177.324 80.831 176.12 78.871 176.12C76.799 176.12 75.539 177.352 75.455 179.424H72.879C73.019 176.092 75.399 173.88 78.871 173.88C82.539 173.88 84.667 175.952 84.667 179.48V189H82.315ZM75.147 184.716C75.147 186.256 76.295 187.264 78.115 187.264C80.495 187.264 81.979 185.78 81.979 183.512V182.308C80.887 182.168 80.103 182.14 79.375 182.14C76.547 182.14 75.147 182.98 75.147 184.716ZM96.4034 186.256V188.748C95.5354 189.14 94.7794 189.28 93.8834 189.28C91.1394 189.28 89.2354 187.796 89.2354 184.52V176.568H85.9594V174.16H89.2354V169.764H92.0634V174.16H96.5434V176.568H92.0634V183.876C92.0634 185.92 93.0434 186.648 94.5554 186.648C95.2274 186.648 95.8154 186.536 96.4034 186.256ZM104.656 189.28C100.372 189.28 97.4882 186.172 97.4882 181.496C97.4882 177.1 100.484 173.88 104.572 173.88C108.996 173.88 111.936 177.464 111.432 182.28H100.372C100.596 185.304 102.108 187.068 104.6 187.068C106.7 187.068 108.156 185.92 108.632 183.988H111.432C110.704 187.292 108.156 189.28 104.656 189.28ZM104.516 176.008C102.248 176.008 100.708 177.632 100.4 180.404H108.436C108.296 177.66 106.812 176.008 104.516 176.008ZM112.821 181.58C112.821 177.072 115.397 173.88 119.401 173.88C121.389 173.88 123.125 174.888 124.161 176.708V168.896H126.989V189H124.357V186.34C123.293 188.216 121.501 189.28 119.401 189.28C115.397 189.28 112.821 186.032 112.821 181.58ZM115.761 181.58C115.761 184.884 117.497 186.76 119.961 186.76C122.369 186.76 124.161 184.8 124.161 181.524C124.161 178.192 122.313 176.372 119.961 176.372C117.497 176.372 115.761 178.22 115.761 181.58ZM142.064 189.308C138.004 189.308 135.148 186.116 135.148 181.58C135.148 177.1 138.06 173.88 142.064 173.88C145.732 173.88 148.392 176.316 148.924 180.18H145.956C145.648 177.8 144.164 176.372 142.092 176.372C139.656 176.372 138.06 178.444 138.06 181.58C138.06 184.744 139.656 186.788 142.092 186.788C144.192 186.788 145.648 185.388 145.984 182.98H148.924C148.42 186.9 145.788 189.308 142.064 189.308ZM157.57 189.28C153.37 189.28 150.29 185.976 150.29 181.58C150.29 177.184 153.37 173.88 157.57 173.88C161.77 173.88 164.85 177.184 164.85 181.58C164.85 185.976 161.77 189.28 157.57 189.28ZM157.57 186.788C160.006 186.788 161.938 184.828 161.938 181.58C161.938 178.332 160.006 176.4 157.57 176.4C155.134 176.4 153.23 178.332 153.23 181.58C153.23 184.828 155.134 186.788 157.57 186.788ZM170.281 189H167.453V174.16H170.085V176.624C171.093 174.916 172.689 173.88 174.733 173.88C176.917 173.88 178.569 175 179.241 176.96C180.277 175.056 181.985 173.88 184.253 173.88C187.305 173.88 189.265 175.868 189.265 179.396V189H186.437V180.292C186.437 177.828 185.345 176.372 183.273 176.372C181.341 176.372 179.773 177.996 179.773 180.488V189H176.945V180.292C176.945 177.828 175.853 176.372 173.781 176.372C171.821 176.372 170.281 177.996 170.281 180.488V189ZM206.935 181.58C206.935 186.06 204.359 189.28 200.383 189.28C198.367 189.28 196.659 188.272 195.595 186.48V194.404H192.767V174.16H195.399V176.876C196.463 174.972 198.283 173.88 200.383 173.88C204.331 173.88 206.935 177.1 206.935 181.58ZM203.995 181.58C203.995 178.248 202.231 176.372 199.795 176.372C197.443 176.372 195.595 178.248 195.595 181.58C195.595 184.856 197.415 186.76 199.795 186.76C202.231 186.76 203.995 184.912 203.995 181.58ZM215.738 189.28C211.538 189.28 208.458 185.976 208.458 181.58C208.458 177.184 211.538 173.88 215.738 173.88C219.938 173.88 223.018 177.184 223.018 181.58C223.018 185.976 219.938 189.28 215.738 189.28ZM215.738 186.788C218.174 186.788 220.106 184.828 220.106 181.58C220.106 178.332 218.174 176.4 215.738 176.4C213.302 176.4 211.398 178.332 211.398 181.58C211.398 184.828 213.302 186.788 215.738 186.788ZM228.449 180.628V189H225.621V174.16H228.253V176.624C229.261 174.972 230.941 173.88 232.985 173.88C236.037 173.88 238.053 175.84 238.053 179.396V189H235.225V180.348C235.225 177.8 234.105 176.372 232.005 176.372C230.073 176.372 228.449 177.996 228.449 180.628ZM247.632 189.28C243.348 189.28 240.464 186.172 240.464 181.496C240.464 177.1 243.46 173.88 247.548 173.88C251.972 173.88 254.912 177.464 254.408 182.28H243.348C243.572 185.304 245.084 187.068 247.576 187.068C249.676 187.068 251.132 185.92 251.608 183.988H254.408C253.68 187.292 251.132 189.28 247.632 189.28ZM247.492 176.008C245.224 176.008 243.684 177.632 243.376 180.404H251.412C251.272 177.66 249.788 176.008 247.492 176.008ZM259.963 180.628V189H257.135V174.16H259.767V176.624C260.775 174.972 262.455 173.88 264.499 173.88C267.551 173.88 269.567 175.84 269.567 179.396V189H266.739V180.348C266.739 177.8 265.619 176.372 263.519 176.372C261.587 176.372 259.963 177.996 259.963 180.628ZM281.36 186.256V188.748C280.492 189.14 279.736 189.28 278.84 189.28C276.096 189.28 274.192 187.796 274.192 184.52V176.568H270.916V174.16H274.192V169.764H277.02V174.16H281.5V176.568H277.02V183.876C277.02 185.92 278 186.648 279.512 186.648C280.184 186.648 280.772 186.536 281.36 186.256ZM295.624 184.576C295.624 187.488 293.356 189.28 289.408 189.28C285.488 189.28 283.164 187.348 282.884 184.156H285.6C285.712 186.004 287.196 187.152 289.464 187.152C291.452 187.152 292.768 186.452 292.768 185.052C292.768 183.82 292.012 183.288 290.164 182.924L287.756 182.476C285.012 181.944 283.472 180.544 283.472 178.304C283.472 175.7 285.74 173.88 289.184 173.88C292.74 173.88 295.148 175.784 295.4 178.836H292.684C292.516 177.044 291.2 176.008 289.212 176.008C287.42 176.008 286.216 176.764 286.216 178.052C286.216 179.256 286.972 179.816 288.764 180.152L291.284 180.628C294.224 181.16 295.624 182.448 295.624 184.576ZM30.132 225H27.304V212.568H24.028V210.16H27.304V209.068C27.304 206.212 28.844 204.644 31.644 204.644C32.484 204.644 33.156 204.784 33.716 205.008V207.304C33.268 207.108 32.764 207.052 32.26 207.052C30.916 207.052 30.132 207.668 30.132 209.096V210.16H34.276V212.568H30.132V225ZM41.9585 225.28C37.7585 225.28 34.6785 221.976 34.6785 217.58C34.6785 213.184 37.7585 209.88 41.9585 209.88C46.1585 209.88 49.2385 213.184 49.2385 217.58C49.2385 221.976 46.1585 225.28 41.9585 225.28ZM41.9585 222.788C44.3945 222.788 46.3265 220.828 46.3265 217.58C46.3265 214.332 44.3945 212.4 41.9585 212.4C39.5225 212.4 37.6185 214.332 37.6185 217.58C37.6185 220.828 39.5225 222.788 41.9585 222.788ZM54.6694 217.412V225H51.8414V210.16H54.4734V213.296C55.5094 211.252 57.7494 209.964 60.1854 209.964V212.904C56.9934 212.736 54.6694 214.136 54.6694 217.412ZM76.087 222.256V224.748C75.219 225.14 74.463 225.28 73.567 225.28C70.823 225.28 68.919 223.796 68.919 220.52V212.568H65.643V210.16H68.919V205.764H71.747V210.16H76.227V212.568H71.747V219.876C71.747 221.92 72.727 222.648 74.239 222.648C74.911 222.648 75.499 222.536 76.087 222.256ZM81.4739 216.628V225H78.6459V204.896H81.4739V212.54C82.4539 210.944 83.9659 209.88 86.0099 209.88C89.0619 209.88 91.0779 211.84 91.0779 215.396V225H88.2499V216.348C88.2499 213.8 87.1299 212.372 85.0299 212.372C83.0979 212.372 81.4739 213.996 81.4739 216.628ZM100.657 225.28C96.3734 225.28 93.4894 222.172 93.4894 217.496C93.4894 213.1 96.4854 209.88 100.573 209.88C104.997 209.88 107.937 213.464 107.433 218.28H96.3734C96.5974 221.304 98.1094 223.068 100.601 223.068C102.701 223.068 104.157 221.92 104.633 219.988H107.433C106.705 223.292 104.157 225.28 100.657 225.28ZM100.517 212.008C98.2494 212.008 96.7094 213.632 96.4014 216.404H104.437C104.297 213.66 102.813 212.008 100.517 212.008ZM34.332 258.256V260.748C33.464 261.14 32.708 261.28 31.812 261.28C29.068 261.28 27.164 259.796 27.164 256.52V248.568H23.888V246.16H27.164V241.764H29.992V246.16H34.472V248.568H29.992V255.876C29.992 257.92 30.972 258.648 32.484 258.648C33.156 258.648 33.744 258.536 34.332 258.256ZM42.6968 261.28C38.4968 261.28 35.4168 257.976 35.4168 253.58C35.4168 249.184 38.4968 245.88 42.6968 245.88C46.8968 245.88 49.9768 249.184 49.9768 253.58C49.9768 257.976 46.8968 261.28 42.6968 261.28ZM42.6968 258.788C45.1328 258.788 47.0648 256.828 47.0648 253.58C47.0648 250.332 45.1328 248.4 42.6968 248.4C40.2608 248.4 38.3568 250.332 38.3568 253.58C38.3568 256.828 40.2608 258.788 42.6968 258.788ZM64.0033 261.308C59.9432 261.308 57.0872 258.116 57.0872 253.58C57.0872 249.1 59.9993 245.88 64.0033 245.88C67.6713 245.88 70.3312 248.316 70.8633 252.18H67.8953C67.5872 249.8 66.1032 248.372 64.0312 248.372C61.5952 248.372 59.9993 250.444 59.9993 253.58C59.9993 256.744 61.5952 258.788 64.0312 258.788C66.1313 258.788 67.5872 257.388 67.9233 254.98H70.8633C70.3593 258.9 67.7273 261.308 64.0033 261.308ZM79.5091 261.28C75.3091 261.28 72.2291 257.976 72.2291 253.58C72.2291 249.184 75.3091 245.88 79.5091 245.88C83.7091 245.88 86.7891 249.184 86.7891 253.58C86.7891 257.976 83.7091 261.28 79.5091 261.28ZM79.5091 258.788C81.9451 258.788 83.8771 256.828 83.8771 253.58C83.8771 250.332 81.9451 248.4 79.5091 248.4C77.0731 248.4 75.1691 250.332 75.1691 253.58C75.1691 256.828 77.0731 258.788 79.5091 258.788ZM101.247 246.16L95.6752 261H92.5952L87.0232 246.16H90.0752L94.1912 257.752L98.3632 246.16H101.247ZM108.614 261.28C104.33 261.28 101.446 258.172 101.446 253.496C101.446 249.1 104.442 245.88 108.53 245.88C112.954 245.88 115.894 249.464 115.39 254.28H104.33C104.554 257.304 106.066 259.068 108.558 259.068C110.658 259.068 112.114 257.92 112.59 255.988H115.39C114.662 259.292 112.114 261.28 108.614 261.28ZM108.474 248.008C106.206 248.008 104.666 249.632 104.358 252.404H112.394C112.254 249.66 110.77 248.008 108.474 248.008ZM120.945 253.412V261H118.117V246.16H120.749V249.296C121.785 247.252 124.025 245.964 126.461 245.964V248.904C123.269 248.736 120.945 250.136 120.945 253.412ZM136.819 252.628V261H133.991V246.16H136.623V248.624C137.631 246.972 139.311 245.88 141.355 245.88C144.407 245.88 146.423 247.84 146.423 251.396V261H143.595V252.348C143.595 249.8 142.475 248.372 140.375 248.372C138.443 248.372 136.819 249.996 136.819 252.628ZM156.002 261.28C151.718 261.28 148.834 258.172 148.834 253.496C148.834 249.1 151.83 245.88 155.918 245.88C160.342 245.88 163.282 249.464 162.778 254.28H151.718C151.942 257.304 153.454 259.068 155.946 259.068C158.046 259.068 159.502 257.92 159.978 255.988H162.778C162.05 259.292 159.502 261.28 156.002 261.28ZM155.862 248.008C153.594 248.008 152.054 249.632 151.746 252.404H159.782C159.642 249.66 158.158 248.008 155.862 248.008ZM177.441 261L174.081 249.968L170.693 261H167.837L163.553 246.16H166.325L169.321 256.968L172.681 246.16H175.481L178.785 256.996L181.781 246.16H184.581L180.269 261H177.441ZM196.351 261H193.523V248.568H190.247V246.16H193.523V245.068C193.523 242.212 195.063 240.644 197.863 240.644C198.703 240.644 199.375 240.784 199.935 241.008V243.304C199.487 243.108 198.983 243.052 198.479 243.052C197.135 243.052 196.351 243.668 196.351 245.096V246.16H200.495V248.568H196.351V261ZM205.479 261H202.623V240.896H205.479V261ZM215.342 261.28C211.142 261.28 208.062 257.976 208.062 253.58C208.062 249.184 211.142 245.88 215.342 245.88C219.542 245.88 222.622 249.184 222.622 253.58C222.622 257.976 219.542 261.28 215.342 261.28ZM215.342 258.788C217.778 258.788 219.71 256.828 219.71 253.58C219.71 250.332 217.778 248.4 215.342 248.4C212.906 248.4 211.002 250.332 211.002 253.58C211.002 256.828 212.906 258.788 215.342 258.788ZM237.161 261L233.801 249.968L230.413 261H227.557L223.273 246.16H226.045L229.041 256.968L232.401 246.16H235.201L238.505 256.996L241.501 246.16H244.301L239.989 261H237.161ZM257.76 256.576C257.76 259.488 255.492 261.28 251.544 261.28C247.624 261.28 245.3 259.348 245.02 256.156H247.736C247.848 258.004 249.332 259.152 251.6 259.152C253.588 259.152 254.904 258.452 254.904 257.052C254.904 255.82 254.148 255.288 252.3 254.924L249.892 254.476C247.148 253.944 245.608 252.544 245.608 250.304C245.608 247.7 247.876 245.88 251.32 245.88C254.876 245.88 257.284 247.784 257.536 250.836H254.82C254.652 249.044 253.336 248.008 251.348 248.008C249.556 248.008 248.352 248.764 248.352 250.052C248.352 251.256 249.108 251.816 250.9 252.152L253.42 252.628C256.36 253.16 257.76 254.448 257.76 256.576ZM275.127 261V258.704C274.203 260.356 272.551 261.28 270.367 261.28C267.287 261.28 265.271 259.516 265.271 256.8C265.271 253.888 267.595 252.376 272.019 252.376C272.887 252.376 273.587 252.404 274.791 252.544V251.452C274.791 249.324 273.643 248.12 271.683 248.12C269.611 248.12 268.351 249.352 268.267 251.424H265.691C265.831 248.092 268.211 245.88 271.683 245.88C275.351 245.88 277.479 247.952 277.479 251.48V261H275.127ZM267.959 256.716C267.959 258.256 269.107 259.264 270.927 259.264C273.307 259.264 274.791 257.78 274.791 255.512V254.308C273.699 254.168 272.915 254.14 272.187 254.14C269.359 254.14 267.959 254.98 267.959 256.716ZM283.808 252.628V261H280.98V246.16H283.612V248.624C284.62 246.972 286.3 245.88 288.344 245.88C291.396 245.88 293.412 247.84 293.412 251.396V261H290.584V252.348C290.584 249.8 289.464 248.372 287.364 248.372C285.432 248.372 283.808 249.996 283.808 252.628ZM295.823 253.58C295.823 249.072 298.399 245.88 302.403 245.88C304.391 245.88 306.127 246.888 307.163 248.708V240.896H309.991V261H307.359V258.34C306.295 260.216 304.503 261.28 302.403 261.28C298.399 261.28 295.823 258.032 295.823 253.58ZM298.763 253.58C298.763 256.884 300.499 258.76 302.963 258.76C305.371 258.76 307.163 256.8 307.163 253.524C307.163 250.192 305.315 248.372 302.963 248.372C300.499 248.372 298.763 250.22 298.763 253.58ZM30.132 297H27.304V284.568H24.028V282.16H27.304V281.068C27.304 278.212 28.844 276.644 31.644 276.644C32.484 276.644 33.156 276.784 33.716 277.008V279.304C33.268 279.108 32.764 279.052 32.26 279.052C30.916 279.052 30.132 279.668 30.132 281.096V282.16H34.276V284.568H30.132V297ZM41.8465 297.28C37.5625 297.28 34.6785 294.172 34.6785 289.496C34.6785 285.1 37.6745 281.88 41.7625 281.88C46.1865 281.88 49.1265 285.464 48.6225 290.28H37.5625C37.7865 293.304 39.2985 295.068 41.7905 295.068C43.8905 295.068 45.3465 293.92 45.8225 291.988H48.6225C47.8945 295.292 45.3465 297.28 41.8465 297.28ZM41.7065 284.008C39.4385 284.008 37.8985 285.632 37.5905 288.404H45.6265C45.4865 285.66 44.0025 284.008 41.7065 284.008ZM60.3372 297V294.704C59.4132 296.356 57.7612 297.28 55.5772 297.28C52.4972 297.28 50.4812 295.516 50.4812 292.8C50.4812 289.888 52.8052 288.376 57.2292 288.376C58.0972 288.376 58.7972 288.404 60.0012 288.544V287.452C60.0012 285.324 58.8532 284.12 56.8932 284.12C54.8212 284.12 53.5612 285.352 53.4772 287.424H50.9012C51.0412 284.092 53.4212 281.88 56.8932 281.88C60.5612 281.88 62.6892 283.952 62.6892 287.48V297H60.3372ZM53.1692 292.716C53.1692 294.256 54.3172 295.264 56.1372 295.264C58.5172 295.264 60.0012 293.78 60.0012 291.512V290.308C58.9092 290.168 58.1252 290.14 57.3972 290.14C54.5692 290.14 53.1692 290.98 53.1692 292.716ZM74.4256 294.256V296.748C73.5576 297.14 72.8016 297.28 71.9056 297.28C69.1616 297.28 67.2576 295.796 67.2576 292.52V284.568H63.9816V282.16H67.2576V277.764H70.0856V282.16H74.5656V284.568H70.0856V291.876C70.0856 293.92 71.0656 294.648 72.5776 294.648C73.2496 294.648 73.8376 294.536 74.4256 294.256ZM86.2525 290.896V282.16H89.0805V297H86.4485V294.648C85.6645 296.188 83.9285 297.28 81.9125 297.28C78.9165 297.28 76.8445 295.516 76.8445 291.708V282.16H79.6725V291.148C79.6725 293.724 80.9605 294.788 82.8085 294.788C84.7125 294.788 86.2525 293.22 86.2525 290.896ZM95.556 289.412V297H92.728V282.16H95.36V285.296C96.396 283.252 98.636 281.964 101.072 281.964V284.904C97.88 284.736 95.556 286.136 95.556 289.412ZM109.079 297.28C104.795 297.28 101.911 294.172 101.911 289.496C101.911 285.1 104.907 281.88 108.995 281.88C113.419 281.88 116.359 285.464 115.855 290.28H104.795C105.019 293.304 106.531 295.068 109.023 295.068C111.123 295.068 112.579 293.92 113.055 291.988H115.855C115.127 295.292 112.579 297.28 109.079 297.28ZM108.939 284.008C106.671 284.008 105.131 285.632 104.823 288.404H112.859C112.719 285.66 111.235 284.008 108.939 284.008ZM130.342 292.576C130.342 295.488 128.074 297.28 124.126 297.28C120.206 297.28 117.882 295.348 117.602 292.156H120.318C120.43 294.004 121.914 295.152 124.182 295.152C126.17 295.152 127.486 294.452 127.486 293.052C127.486 291.82 126.73 291.288 124.882 290.924L122.474 290.476C119.73 289.944 118.19 288.544 118.19 286.304C118.19 283.7 120.458 281.88 123.902 281.88C127.458 281.88 129.866 283.784 130.118 286.836H127.402C127.234 285.044 125.918 284.008 123.93 284.008C122.138 284.008 120.934 284.764 120.934 286.052C120.934 287.256 121.69 287.816 123.482 288.152L126.002 288.628C128.942 289.16 130.342 290.448 130.342 292.576Z" fill="#424242"/>
<path d="M114.528 217.524C114.528 213.1 117.132 209.768 121.164 209.768C122.956 209.768 124.468 210.552 125.588 211.98V204.896H129.452V225H125.896V222.844C124.72 224.412 123.096 225.28 121.164 225.28C117.132 225.28 114.528 221.892 114.528 217.524ZM118.532 217.524C118.532 220.324 120.128 221.808 122.032 221.808C123.964 221.808 125.56 220.296 125.56 217.468C125.56 214.64 123.936 213.212 122.032 213.212C120.128 213.212 118.532 214.668 118.532 217.524ZM139.142 225.252C134.662 225.252 131.666 222.144 131.666 217.468C131.666 213.016 134.774 209.768 139.086 209.768C143.818 209.768 146.954 213.604 146.254 218.476H135.642C135.894 220.912 137.07 222.256 139.058 222.256C140.766 222.256 141.914 221.416 142.362 219.932H146.226C145.386 223.32 142.782 225.252 139.142 225.252ZM139.002 212.624C137.182 212.624 136.034 213.8 135.698 216.012H142.138C142.026 213.94 140.85 212.624 139.002 212.624ZM161.209 220.212C161.209 223.348 158.829 225.28 154.573 225.28C150.317 225.28 147.937 223.236 147.629 219.904H151.353C151.381 221.444 152.697 222.424 154.629 222.424C156.141 222.424 157.289 221.948 157.289 220.884C157.289 219.932 156.673 219.54 155.245 219.26L152.557 218.756C149.869 218.28 148.245 216.796 148.245 214.472C148.245 211.7 150.625 209.768 154.349 209.768C158.101 209.768 160.677 211.756 160.957 214.976H157.233C157.093 213.52 156.001 212.624 154.349 212.624C152.921 212.624 151.969 213.156 151.969 214.108C151.969 215.004 152.585 215.368 153.929 215.62L156.813 216.152C159.725 216.712 161.209 218.056 161.209 220.212ZM168.094 206.576C168.094 207.892 167.03 208.872 165.49 208.872C163.978 208.872 162.914 207.892 162.914 206.576C162.914 205.204 163.978 204.224 165.49 204.224C167.03 204.224 168.094 205.204 168.094 206.576ZM167.478 225H163.586V210.048H167.478V225ZM177.017 230.684C172.985 230.684 170.297 228.5 170.129 225.056H173.881C174.049 226.764 175.141 227.66 176.989 227.66C179.145 227.66 180.265 226.512 180.265 224.356V222.172C179.453 223.6 177.913 224.44 176.093 224.44C172.425 224.44 169.681 221.332 169.681 217.104C169.681 212.764 172.257 209.768 175.953 209.768C177.969 209.768 179.481 210.552 180.573 212.092V210.048H184.129V224.3C184.129 228.276 181.441 230.684 177.017 230.684ZM173.573 217.104C173.573 219.54 174.833 221.08 176.849 221.08C178.893 221.08 180.237 219.484 180.237 217.132C180.237 214.696 178.893 213.128 176.849 213.128C174.861 213.128 173.573 214.668 173.573 217.104ZM191.254 216.852V225H187.362V210.048H190.946V212.176C192.038 210.692 193.578 209.768 195.538 209.768C198.534 209.768 200.606 211.728 200.606 215.34V225H196.742V216.656C196.742 214.444 195.874 213.212 194.11 213.212C192.57 213.212 191.254 214.444 191.254 216.852ZM221.879 220.212C221.879 223.348 219.499 225.28 215.243 225.28C210.987 225.28 208.607 223.236 208.299 219.904H212.023C212.051 221.444 213.367 222.424 215.299 222.424C216.811 222.424 217.959 221.948 217.959 220.884C217.959 219.932 217.343 219.54 215.915 219.26L213.227 218.756C210.539 218.28 208.915 216.796 208.915 214.472C208.915 211.7 211.295 209.768 215.019 209.768C218.771 209.768 221.347 211.756 221.627 214.976H217.903C217.763 213.52 216.671 212.624 215.019 212.624C213.591 212.624 212.639 213.156 212.639 214.108C212.639 215.004 213.255 215.368 214.599 215.62L217.483 216.152C220.395 216.712 221.879 218.056 221.879 220.212ZM237.341 210.048L230.061 230.404H225.833L227.961 224.832L222.081 210.048H226.281L230.033 220.296L233.449 210.048H237.341ZM251.014 220.212C251.014 223.348 248.634 225.28 244.378 225.28C240.122 225.28 237.742 223.236 237.434 219.904H241.158C241.186 221.444 242.502 222.424 244.434 222.424C245.946 222.424 247.094 221.948 247.094 220.884C247.094 219.932 246.478 219.54 245.05 219.26L242.362 218.756C239.674 218.28 238.05 216.796 238.05 214.472C238.05 211.7 240.43 209.768 244.154 209.768C247.906 209.768 250.482 211.756 250.762 214.976H247.038C246.898 213.52 245.806 212.624 244.154 212.624C242.726 212.624 241.774 213.156 241.774 214.108C241.774 215.004 242.39 215.368 243.734 215.62L246.618 216.152C249.53 216.712 251.014 218.056 251.014 220.212ZM262.387 221.22V224.608C261.435 225.084 260.539 225.28 259.391 225.28C256.311 225.28 254.379 223.516 254.379 220.156V213.38H251.355V210.048H254.379V205.624H258.243V210.048H262.527V213.38H258.243V219.26C258.243 220.996 259.027 221.696 260.427 221.696C261.155 221.696 261.827 221.528 262.387 221.22ZM270.791 225.252C266.311 225.252 263.315 222.144 263.315 217.468C263.315 213.016 266.423 209.768 270.735 209.768C275.467 209.768 278.603 213.604 277.903 218.476H267.291C267.543 220.912 268.719 222.256 270.707 222.256C272.415 222.256 273.563 221.416 274.011 219.932H277.875C277.035 223.32 274.431 225.252 270.791 225.252ZM270.651 212.624C268.831 212.624 267.683 213.8 267.347 216.012H273.787C273.675 213.94 272.499 212.624 270.651 212.624ZM284.122 225H280.23V210.048H283.814V212.176C284.906 210.664 286.306 209.768 288.294 209.768C290.338 209.768 291.906 210.72 292.662 212.428C293.838 210.776 295.35 209.768 297.59 209.768C300.614 209.768 302.658 211.756 302.658 215.34V225H298.794V216.572C298.794 214.472 297.898 213.212 296.19 213.212C294.65 213.212 293.39 214.416 293.39 216.656V225H289.526V216.572C289.526 214.472 288.63 213.212 286.922 213.212C285.354 213.212 284.122 214.416 284.122 216.656V225Z" fill="#A47FE2"/>
<rect x="24.5" y="92.5" width="47" height="47" rx="7.5" fill="#F0EBF8"/>
<rect x="24.5" y="92.5" width="47" height="47" rx="7.5" stroke="#E6D8FD"/>
<g clip-path="url(#clip1_455_6657)">
<path d="M52.9497 109.813L49.2374 113.525C48.9092 113.853 48.4641 114.038 48 114.038C47.5359 114.038 47.0908 113.853 46.7626 113.525L43.0503 109.813C42.7221 109.485 42.5377 109.039 42.5377 108.575C42.5377 108.111 42.7221 107.666 43.0503 107.338L46.7626 103.626C47.0908 103.297 47.5359 103.113 48 103.113C48.4641 103.113 48.9092 103.297 49.2374 103.626L52.9497 107.338C53.2779 107.666 53.4623 108.111 53.4623 108.575C53.4623 109.039 53.2779 109.485 52.9497 109.813ZM60.3744 114.763L56.6621 111.05C56.3339 110.722 55.8887 110.538 55.4246 110.538C54.9605 110.538 54.5154 110.722 54.1872 111.05L50.4749 114.763C50.1467 115.091 49.9623 115.536 49.9623 116C49.9623 116.464 50.1467 116.909 50.4749 117.237L54.1872 120.95C54.5154 121.278 54.9605 121.462 55.4246 121.462C55.8887 121.462 56.3339 121.278 56.6621 120.95L60.3744 117.237C60.7026 116.909 60.8869 116.464 60.8869 116C60.8869 115.536 60.7026 115.091 60.3744 114.763ZM45.5251 114.763L41.8128 111.05C41.4846 110.722 41.0395 110.538 40.5754 110.538C40.1113 110.538 39.6661 110.722 39.3379 111.05L35.6256 114.763C35.2974 115.091 35.1131 115.536 35.1131 116C35.1131 116.464 35.2974 116.909 35.6256 117.237L39.3379 120.95C39.6661 121.278 40.1113 121.462 40.5754 121.462C41.0395 121.462 41.4846 121.278 41.8128 120.95L45.5251 117.237C45.8533 116.909 46.0377 116.464 46.0377 116C46.0377 115.536 45.8533 115.091 45.5251 114.763ZM52.9497 122.187L49.2374 118.475C48.9092 118.147 48.4641 117.962 48 117.962C47.5359 117.962 47.0908 118.147 46.7626 118.475L43.0503 122.187C42.7221 122.515 42.5377 122.96 42.5377 123.425C42.5377 123.889 42.7221 124.334 43.0503 124.662L46.7626 128.374C47.0908 128.703 47.5359 128.887 48 128.887C48.4641 128.887 48.9092 128.703 49.2374 128.374L52.9497 124.662C53.2779 124.334 53.4623 123.889 53.4623 123.425C53.4623 122.96 53.2779 122.515 52.9497 122.187Z" fill="#A47FE2"/>
</g>
<g clip-path="url(#clip2_455_6657)">
<g opacity="0.8">
<path d="M231.498 391.113C240.703 409.772 258.504 422.701 279.091 425.69C330.941 433.224 351.639 496.94 314.122 533.513C299.223 548.033 292.423 568.961 295.941 589.466C304.798 641.105 250.598 680.488 204.223 656.104C185.806 646.42 163.809 646.42 145.393 656.104C99.0177 680.488 44.8175 641.105 53.6747 589.466C57.1928 568.961 50.3929 548.039 35.494 533.513C-2.02346 496.94 18.6808 433.224 70.5253 425.69C91.1114 422.701 108.913 409.766 118.118 391.113C141.309 344.129 208.301 344.129 231.491 391.113H231.498Z" stroke="url(#paint0_linear_455_6657)" stroke-width="4.35094" stroke-miterlimit="10"/>
<path d="M180.211 377.923C196.21 391.225 217.728 395.799 237.755 390.155C288.188 375.947 333.016 425.74 313.617 474.408C305.915 493.733 308.215 515.618 319.764 532.916C348.859 576.487 315.363 634.51 263.077 631.098C242.317 629.743 222.216 638.693 209.331 655.028C176.879 696.163 111.348 682.234 98.4379 631.458C93.31 611.295 78.5914 594.948 59.0744 587.738C9.92741 569.588 2.92241 502.957 47.2212 474.986C64.8114 463.879 75.813 444.828 76.6397 424.037C78.7157 371.683 139.915 344.433 180.211 377.923V377.923Z" stroke="url(#paint1_linear_455_6657)" stroke-width="4.35094" stroke-miterlimit="10"/>
<path d="M122.657 389.508C142.684 395.152 164.202 390.578 180.202 377.276C220.491 343.786 281.696 371.036 283.772 423.39C284.593 444.181 295.595 463.232 313.191 474.339C357.49 502.31 350.491 568.941 301.338 587.091C281.821 594.301 267.102 610.648 261.974 630.811C249.064 681.587 183.527 695.516 151.081 654.381C138.196 638.046 118.095 629.096 97.3348 630.451C45.0552 633.863 11.553 575.84 40.6483 532.269C52.2032 514.965 54.5029 493.086 46.7956 473.761C27.3966 425.093 72.2237 375.306 122.657 389.508V389.508Z" stroke="url(#paint2_linear_455_6657)" stroke-width="4.35094" stroke-miterlimit="10"/>
</g>
<g opacity="0.8">
<path d="M195.003 448.161C198.272 457.347 208.764 461.692 217.572 457.509C231.557 450.865 246.145 465.453 239.495 479.432C235.311 488.239 239.656 498.731 248.843 502.001C263.431 507.191 263.431 527.82 248.843 533.004C239.656 536.273 235.311 546.765 239.495 555.573C246.139 569.558 231.551 584.146 217.572 577.495C208.764 573.312 198.272 577.657 195.003 586.844C189.813 601.432 169.183 601.432 164 586.844C160.73 577.657 150.238 573.312 141.431 577.495C127.445 584.14 112.857 569.552 119.508 555.573C123.691 546.765 119.346 536.273 110.16 533.004C95.5717 527.814 95.5717 507.184 110.16 502.001C119.346 498.731 123.691 488.239 119.508 479.432C112.864 465.446 127.452 450.858 141.431 457.509C150.238 461.692 160.73 457.347 164 448.161C169.19 433.573 189.819 433.573 195.003 448.161Z" stroke="url(#paint3_linear_455_6657)" stroke-width="4.35094" stroke-miterlimit="10"/>
<path d="M167.283 447.502C173.815 454.737 185.178 454.737 191.71 447.502C202.084 436.009 221.147 443.903 220.358 459.367C219.861 469.107 227.891 477.138 237.631 476.64C253.096 475.851 260.99 494.908 249.497 505.288C242.262 511.821 242.262 523.183 249.497 529.716C260.99 540.089 253.096 559.153 237.631 558.363C227.891 557.866 219.861 565.897 220.358 575.637C221.147 591.101 202.09 598.995 191.71 587.502C185.178 580.267 173.815 580.267 167.283 587.502C156.909 598.995 137.846 591.101 138.635 575.637C139.132 565.897 131.102 557.866 121.362 558.363C105.897 559.153 98.0035 540.096 109.496 529.716C116.731 523.183 116.731 511.821 109.496 505.288C98.0035 494.914 105.897 475.851 121.362 476.64C131.102 477.138 139.132 469.107 138.635 459.367C137.846 443.903 156.903 436.009 167.283 447.502V447.502Z" stroke="url(#paint4_linear_455_6657)" stroke-width="4.35094" stroke-miterlimit="10"/>
</g>
<path opacity="0.8" d="M179.507 723.831C293.459 723.831 385.835 631.455 385.835 517.503C385.835 403.551 293.459 311.175 179.507 311.175C65.5557 311.175 -26.8203 403.551 -26.8203 517.503C-26.8203 631.455 65.5557 723.831 179.507 723.831Z" stroke="url(#paint5_linear_455_6657)" stroke-width="4.35094" stroke-miterlimit="10"/>
</g>
</g>
<defs>
<linearGradient id="paint0_linear_455_6657" x1="174.809" y1="355.875" x2="174.809" y2="663.506" gradientUnits="userSpaceOnUse">
<stop stop-color="#F8F7F4"/>
<stop offset="0.235" stop-color="#F6F3EC"/>
<stop offset="0.57" stop-color="#EDEAE0"/>
<stop offset="0.8" stop-color="#EDEAE0"/>
</linearGradient>
<linearGradient id="paint1_linear_455_6657" x1="174.144" y1="363.219" x2="174.144" y2="679.125" gradientUnits="userSpaceOnUse">
<stop stop-color="#F8F7F4"/>
<stop offset="0.235" stop-color="#F6F3EC"/>
<stop offset="0.57" stop-color="#EDEAE0"/>
<stop offset="0.8" stop-color="#EDEAE0"/>
</linearGradient>
<linearGradient id="paint2_linear_455_6657" x1="186.27" y1="362.572" x2="186.27" y2="678.478" gradientUnits="userSpaceOnUse">
<stop stop-color="#F8F7F4"/>
<stop offset="0.235" stop-color="#F6F3EC"/>
<stop offset="0.57" stop-color="#EDEAE0"/>
<stop offset="0.8" stop-color="#EDEAE0"/>
</linearGradient>
<linearGradient id="paint3_linear_455_6657" x1="179.501" y1="437.22" x2="179.501" y2="597.785" gradientUnits="userSpaceOnUse">
<stop stop-color="#F8F7F4"/>
<stop offset="0.2" stop-color="#F6F3EC"/>
<stop offset="0.57" stop-color="#EDEAE0"/>
<stop offset="0.8" stop-color="#EDEAE0"/>
</linearGradient>
<linearGradient id="paint4_linear_455_6657" x1="179.497" y1="442.033" x2="179.497" y2="592.971" gradientUnits="userSpaceOnUse">
<stop stop-color="#F8F7F4"/>
<stop offset="0.2" stop-color="#F6F3EC"/>
<stop offset="0.57" stop-color="#EDEAE0"/>
<stop offset="0.8" stop-color="#EDEAE0"/>
</linearGradient>
<linearGradient id="paint5_linear_455_6657" x1="179.507" y1="311.175" x2="179.507" y2="723.831" gradientUnits="userSpaceOnUse">
<stop stop-color="#F8F7F4"/>
<stop offset="0.2" stop-color="#F6F3EC"/>
<stop offset="0.57" stop-color="#EDEAE0"/>
<stop offset="0.8" stop-color="#EDEAE0"/>
</linearGradient>
<clipPath id="clip0_455_6657">
<rect width="360" height="540" rx="16" fill="white"/>
</clipPath>
<clipPath id="clip1_455_6657">
<rect width="28" height="28" fill="white" transform="translate(48 96.2012) rotate(45)"/>
</clipPath>
<clipPath id="clip2_455_6657">
<rect width="417" height="417" fill="white" transform="translate(-29 309)"/>
</clipPath>
</defs>
</svg>
