<svg width="360" height="540" viewBox="0 0 360 540" fill="none" xmlns="http://www.w3.org/2000/svg">
<g clip-path="url(#clip0_455_6655)">
<rect width="360" height="540" rx="16" fill="#F8F7F4"/>
<g clip-path="url(#clip1_455_6655)">
<g opacity="0.8">
<path d="M231.498 391.113C240.703 409.772 258.504 422.701 279.091 425.69C330.941 433.224 351.639 496.94 314.122 533.513C299.223 548.033 292.423 568.961 295.941 589.466C304.798 641.105 250.598 680.488 204.223 656.104C185.806 646.42 163.809 646.42 145.393 656.104C99.0177 680.488 44.8175 641.105 53.6747 589.466C57.1928 568.961 50.3929 548.039 35.494 533.513C-2.02346 496.94 18.6808 433.224 70.5253 425.69C91.1114 422.701 108.913 409.766 118.118 391.113C141.309 344.129 208.301 344.129 231.491 391.113H231.498Z" stroke="url(#paint0_linear_455_6655)" stroke-width="4.35094" stroke-miterlimit="10"/>
<path d="M180.211 377.923C196.21 391.225 217.728 395.799 237.755 390.155C288.188 375.947 333.016 425.74 313.617 474.408C305.915 493.733 308.215 515.618 319.764 532.916C348.859 576.487 315.363 634.51 263.077 631.098C242.317 629.743 222.216 638.693 209.331 655.028C176.879 696.163 111.348 682.234 98.4379 631.458C93.31 611.295 78.5914 594.948 59.0744 587.738C9.92741 569.588 2.92241 502.957 47.2212 474.986C64.8114 463.879 75.813 444.828 76.6397 424.037C78.7157 371.683 139.915 344.433 180.211 377.923V377.923Z" stroke="url(#paint1_linear_455_6655)" stroke-width="4.35094" stroke-miterlimit="10"/>
<path d="M122.657 389.508C142.684 395.152 164.202 390.578 180.202 377.276C220.491 343.786 281.696 371.036 283.772 423.39C284.593 444.181 295.595 463.232 313.191 474.339C357.49 502.31 350.491 568.941 301.338 587.091C281.821 594.301 267.102 610.648 261.974 630.811C249.064 681.587 183.527 695.516 151.081 654.381C138.196 638.046 118.095 629.096 97.3348 630.451C45.0552 633.863 11.553 575.84 40.6483 532.269C52.2032 514.965 54.5029 493.086 46.7956 473.761C27.3966 425.093 72.2237 375.306 122.657 389.508V389.508Z" stroke="url(#paint2_linear_455_6655)" stroke-width="4.35094" stroke-miterlimit="10"/>
</g>
<g opacity="0.8">
<path d="M195.003 448.161C198.272 457.347 208.764 461.692 217.572 457.509C231.557 450.865 246.145 465.453 239.495 479.432C235.311 488.239 239.656 498.731 248.843 502.001C263.431 507.191 263.431 527.82 248.843 533.004C239.656 536.273 235.311 546.765 239.495 555.573C246.139 569.558 231.551 584.146 217.572 577.495C208.764 573.312 198.272 577.657 195.003 586.844C189.813 601.432 169.183 601.432 164 586.844C160.73 577.657 150.238 573.312 141.431 577.495C127.445 584.14 112.857 569.552 119.508 555.573C123.691 546.765 119.346 536.273 110.16 533.004C95.5717 527.814 95.5717 507.184 110.16 502.001C119.346 498.731 123.691 488.239 119.508 479.432C112.864 465.446 127.452 450.858 141.431 457.509C150.238 461.692 160.73 457.347 164 448.161C169.19 433.573 189.819 433.573 195.003 448.161Z" stroke="url(#paint3_linear_455_6655)" stroke-width="4.35094" stroke-miterlimit="10"/>
<path d="M167.283 447.502C173.815 454.737 185.178 454.737 191.71 447.502C202.084 436.009 221.147 443.903 220.358 459.367C219.861 469.107 227.891 477.138 237.631 476.64C253.096 475.851 260.99 494.908 249.497 505.288C242.262 511.821 242.262 523.183 249.497 529.716C260.99 540.089 253.096 559.153 237.631 558.363C227.891 557.866 219.861 565.897 220.358 575.637C221.147 591.101 202.09 598.995 191.71 587.502C185.178 580.267 173.815 580.267 167.283 587.502C156.909 598.995 137.846 591.101 138.635 575.637C139.132 565.897 131.102 557.866 121.362 558.363C105.897 559.153 98.0035 540.096 109.496 529.716C116.731 523.183 116.731 511.821 109.496 505.288C98.0035 494.914 105.897 475.851 121.362 476.64C131.102 477.138 139.132 469.107 138.635 459.367C137.846 443.903 156.903 436.009 167.283 447.502V447.502Z" stroke="url(#paint4_linear_455_6655)" stroke-width="4.35094" stroke-miterlimit="10"/>
</g>
<path opacity="0.8" d="M179.507 723.831C293.459 723.831 385.835 631.455 385.835 517.503C385.835 403.551 293.459 311.175 179.507 311.175C65.5557 311.175 -26.8203 403.551 -26.8203 517.503C-26.8203 631.455 65.5557 723.831 179.507 723.831Z" stroke="url(#paint5_linear_455_6655)" stroke-width="4.35094" stroke-miterlimit="10"/>
</g>
<path d="M38.924 186.312V189H26.184V168.896H38.728V171.584H29.264V177.296H37.888V179.984H29.264V186.312H38.924ZM43.8516 189H40.6596L45.9236 181.412L40.9956 174.16H44.2716L47.9396 179.76L51.6076 174.16H54.6596L49.7876 181.496L54.9956 189H51.7476L47.7716 183.092L43.8516 189ZM71.4366 181.58C71.4366 186.06 68.8606 189.28 64.8846 189.28C62.8686 189.28 61.1606 188.272 60.0966 186.48V194.404H57.2686V174.16H59.9006V176.876C60.9646 174.972 62.7846 173.88 64.8846 173.88C68.8326 173.88 71.4366 177.1 71.4366 181.58ZM68.4966 181.58C68.4966 178.248 66.7326 176.372 64.2966 176.372C61.9446 176.372 60.0966 178.248 60.0966 181.58C60.0966 184.856 61.9166 186.76 64.2966 186.76C66.7326 186.76 68.4966 184.912 68.4966 181.58ZM77.1598 189H74.3038V168.896H77.1598V189ZM87.301 189.28C83.101 189.28 80.021 185.976 80.021 181.58C80.021 177.184 83.101 173.88 87.301 173.88C91.501 173.88 94.581 177.184 94.581 181.58C94.581 185.976 91.501 189.28 87.301 189.28ZM87.301 186.788C89.737 186.788 91.669 184.828 91.669 181.58C91.669 178.332 89.737 176.4 87.301 176.4C84.865 176.4 82.961 178.332 82.961 181.58C82.961 184.828 84.865 186.788 87.301 186.788ZM100.292 181.412V189H97.4639V174.16H100.096V177.296C101.132 175.252 103.372 173.964 105.808 173.964V176.904C102.616 176.736 100.292 178.136 100.292 181.412ZM114.095 189.28C109.811 189.28 106.927 186.172 106.927 181.496C106.927 177.1 109.923 173.88 114.011 173.88C118.435 173.88 121.375 177.464 120.871 182.28H109.811C110.035 185.304 111.547 187.068 114.039 187.068C116.139 187.068 117.595 185.92 118.071 183.988H120.871C120.143 187.292 117.595 189.28 114.095 189.28ZM113.955 176.008C111.687 176.008 110.147 177.632 109.839 180.404H117.875C117.735 177.66 116.251 176.008 113.955 176.008ZM122.541 181.58C122.541 177.072 125.117 173.88 129.121 173.88C131.109 173.88 132.845 174.888 133.881 176.708V168.896H136.709V189H134.077V186.34C133.013 188.216 131.221 189.28 129.121 189.28C125.117 189.28 122.541 186.032 122.541 181.58ZM125.481 181.58C125.481 184.884 127.217 186.76 129.681 186.76C132.089 186.76 133.881 184.8 133.881 181.524C133.881 178.192 132.033 176.372 129.681 176.372C127.217 176.372 125.481 178.22 125.481 181.58ZM155.479 189V186.704C154.555 188.356 152.903 189.28 150.719 189.28C147.639 189.28 145.623 187.516 145.623 184.8C145.623 181.888 147.947 180.376 152.371 180.376C153.239 180.376 153.939 180.404 155.143 180.544V179.452C155.143 177.324 153.995 176.12 152.035 176.12C149.963 176.12 148.703 177.352 148.619 179.424H146.043C146.183 176.092 148.563 173.88 152.035 173.88C155.703 173.88 157.831 175.952 157.831 179.48V189H155.479ZM148.311 184.716C148.311 186.256 149.459 187.264 151.279 187.264C153.659 187.264 155.143 185.78 155.143 183.512V182.308C154.051 182.168 153.267 182.14 152.539 182.14C149.711 182.14 148.311 182.98 148.311 184.716ZM164.468 189H161.612V168.896H164.468V189ZM176.766 186.256V188.748C175.898 189.14 175.142 189.28 174.246 189.28C171.502 189.28 169.598 187.796 169.598 184.52V176.568H166.322V174.16H169.598V169.764H172.426V174.16H176.906V176.568H172.426V183.876C172.426 185.92 173.406 186.648 174.918 186.648C175.59 186.648 176.178 186.536 176.766 186.256ZM185.298 189.28C181.014 189.28 178.13 186.172 178.13 181.496C178.13 177.1 181.126 173.88 185.214 173.88C189.638 173.88 192.578 177.464 192.074 182.28H181.014C181.238 185.304 182.75 187.068 185.242 187.068C187.342 187.068 188.798 185.92 189.274 183.988H192.074C191.346 187.292 188.798 189.28 185.298 189.28ZM185.158 176.008C182.89 176.008 181.35 177.632 181.042 180.404H189.078C188.938 177.66 187.454 176.008 185.158 176.008ZM197.909 181.412V189H195.081V174.16H197.713V177.296C198.749 175.252 200.989 173.964 203.425 173.964V176.904C200.233 176.736 197.909 178.136 197.909 181.412ZM208.491 180.628V189H205.663V174.16H208.295V176.624C209.303 174.972 210.983 173.88 213.027 173.88C216.079 173.88 218.095 175.84 218.095 179.396V189H215.267V180.348C215.267 177.8 214.147 176.372 212.047 176.372C210.115 176.372 208.491 177.996 208.491 180.628ZM230.839 189V186.704C229.915 188.356 228.263 189.28 226.079 189.28C222.999 189.28 220.983 187.516 220.983 184.8C220.983 181.888 223.307 180.376 227.731 180.376C228.599 180.376 229.299 180.404 230.503 180.544V179.452C230.503 177.324 229.355 176.12 227.395 176.12C225.323 176.12 224.063 177.352 223.979 179.424H221.403C221.543 176.092 223.923 173.88 227.395 173.88C231.063 173.88 233.191 175.952 233.191 179.48V189H230.839ZM223.671 184.716C223.671 186.256 224.819 187.264 226.639 187.264C229.019 187.264 230.503 185.78 230.503 183.512V182.308C229.411 182.168 228.627 182.14 227.899 182.14C225.071 182.14 223.671 182.98 223.671 184.716ZM245.207 186.256V188.748C244.339 189.14 243.583 189.28 242.687 189.28C239.943 189.28 238.039 187.796 238.039 184.52V176.568H234.763V174.16H238.039V169.764H240.867V174.16H245.347V176.568H240.867V183.876C240.867 185.92 241.847 186.648 243.359 186.648C244.031 186.648 244.619 186.536 245.207 186.256ZM251.49 170.716C251.49 171.78 250.65 172.592 249.446 172.592C248.242 172.592 247.374 171.78 247.374 170.716C247.374 169.624 248.242 168.84 249.446 168.84C250.65 168.84 251.49 169.624 251.49 170.716ZM250.874 189H248.046V174.16H250.874V189ZM267.12 174.16L261.548 189H258.468L252.896 174.16H255.948L260.064 185.752L264.236 174.16H267.12ZM274.767 189.28C270.483 189.28 267.599 186.172 267.599 181.496C267.599 177.1 270.595 173.88 274.683 173.88C279.107 173.88 282.047 177.464 281.543 182.28H270.483C270.707 185.304 272.219 187.068 274.711 187.068C276.811 187.068 278.267 185.92 278.743 183.988H281.543C280.815 187.292 278.267 189.28 274.767 189.28ZM274.627 176.008C272.359 176.008 270.819 177.632 270.511 180.404H278.547C278.407 177.66 276.923 176.008 274.627 176.008ZM204.437 258.256V260.748C203.569 261.14 202.813 261.28 201.917 261.28C199.173 261.28 197.269 259.796 197.269 256.52V248.568H193.993V246.16H197.269V241.764H200.097V246.16H204.577V248.568H200.097V255.876C200.097 257.92 201.077 258.648 202.589 258.648C203.261 258.648 203.849 258.536 204.437 258.256ZM213.082 261.28C208.882 261.28 205.802 257.976 205.802 253.58C205.802 249.184 208.882 245.88 213.082 245.88C217.282 245.88 220.362 249.184 220.362 253.58C220.362 257.976 217.282 261.28 213.082 261.28ZM213.082 258.788C215.518 258.788 217.45 256.828 217.45 253.58C217.45 250.332 215.518 248.4 213.082 248.4C210.646 248.4 208.742 250.332 208.742 253.58C208.742 256.828 210.646 258.788 213.082 258.788ZM232.541 242.716C232.541 243.78 231.701 244.592 230.497 244.592C229.293 244.592 228.425 243.78 228.425 242.716C228.425 241.624 229.293 240.84 230.497 240.84C231.701 240.84 232.541 241.624 232.541 242.716ZM231.925 261H229.097V246.16H231.925V261ZM238.679 261H235.851V246.16H238.483V248.624C239.491 246.916 241.087 245.88 243.131 245.88C245.315 245.88 246.967 247 247.639 248.96C248.675 247.056 250.383 245.88 252.651 245.88C255.703 245.88 257.663 247.868 257.663 251.396V261H254.835V252.292C254.835 249.828 253.743 248.372 251.671 248.372C249.739 248.372 248.171 249.996 248.171 252.488V261H245.343V252.292C245.343 249.828 244.251 248.372 242.179 248.372C240.219 248.372 238.679 249.996 238.679 252.488V261ZM275.612 253.58C275.612 258.06 273.036 261.28 269.06 261.28C267.044 261.28 265.336 260.272 264.272 258.48V266.404H261.444V246.16H264.076V248.876C265.14 246.972 266.96 245.88 269.06 245.88C273.008 245.88 275.612 249.1 275.612 253.58ZM272.672 253.58C272.672 250.248 270.908 248.372 268.472 248.372C266.12 248.372 264.272 250.248 264.272 253.58C264.272 256.856 266.092 258.76 268.472 258.76C270.908 258.76 272.672 256.912 272.672 253.58ZM281.308 253.412V261H278.48V246.16H281.112V249.296C282.148 247.252 284.388 245.964 286.824 245.964V248.904C283.632 248.736 281.308 250.136 281.308 253.412ZM295.223 261.28C291.023 261.28 287.943 257.976 287.943 253.58C287.943 249.184 291.023 245.88 295.223 245.88C299.423 245.88 302.503 249.184 302.503 253.58C302.503 257.976 299.423 261.28 295.223 261.28ZM295.223 258.788C297.659 258.788 299.591 256.828 299.591 253.58C299.591 250.332 297.659 248.4 295.223 248.4C292.787 248.4 290.883 250.332 290.883 253.58C290.883 256.828 292.787 258.788 295.223 258.788ZM317.241 246.16L311.669 261H308.589L303.017 246.16H306.069L310.185 257.752L314.357 246.16H317.241ZM324.888 261.28C320.604 261.28 317.72 258.172 317.72 253.496C317.72 249.1 320.716 245.88 324.804 245.88C329.228 245.88 332.168 249.464 331.664 254.28H320.604C320.828 257.304 322.34 259.068 324.832 259.068C326.932 259.068 328.388 257.92 328.864 255.988H331.664C330.936 259.292 328.388 261.28 324.888 261.28ZM324.748 248.008C322.48 248.008 320.94 249.632 320.632 252.404H328.668C328.528 249.66 327.044 248.008 324.748 248.008ZM24.896 289.58C24.896 285.072 27.472 281.88 31.476 281.88C33.464 281.88 35.2 282.888 36.236 284.708V276.896H39.064V297H36.432V294.34C35.368 296.216 33.576 297.28 31.476 297.28C27.472 297.28 24.896 294.032 24.896 289.58ZM27.836 289.58C27.836 292.884 29.572 294.76 32.036 294.76C34.444 294.76 36.236 292.8 36.236 289.524C36.236 286.192 34.388 284.372 32.036 284.372C29.572 284.372 27.836 286.22 27.836 289.58ZM46.4392 278.716C46.4392 279.78 45.5992 280.592 44.3952 280.592C43.1912 280.592 42.3232 279.78 42.3232 278.716C42.3232 277.624 43.1912 276.84 44.3952 276.84C45.5992 276.84 46.4392 277.624 46.4392 278.716ZM45.8232 297H42.9952V282.16H45.8232V297ZM61.5091 292.576C61.5091 295.488 59.2411 297.28 55.2931 297.28C51.3731 297.28 49.0491 295.348 48.7691 292.156H51.4851C51.5971 294.004 53.0811 295.152 55.3491 295.152C57.3371 295.152 58.6531 294.452 58.6531 293.052C58.6531 291.82 57.8971 291.288 56.0491 290.924L53.6411 290.476C50.8971 289.944 49.3571 288.544 49.3571 286.304C49.3571 283.7 51.6251 281.88 55.0691 281.88C58.6251 281.88 61.0331 283.784 61.2851 286.836H58.5691C58.4011 285.044 57.0851 284.008 55.0971 284.008C53.3051 284.008 52.1011 284.764 52.1011 286.052C52.1011 287.256 52.8571 287.816 54.6491 288.152L57.1691 288.628C60.1091 289.16 61.5091 290.448 61.5091 292.576ZM70.4487 297.308C66.3887 297.308 63.5327 294.116 63.5327 289.58C63.5327 285.1 66.4447 281.88 70.4487 281.88C74.1167 281.88 76.7767 284.316 77.3087 288.18H74.3407C74.0327 285.8 72.5487 284.372 70.4767 284.372C68.0407 284.372 66.4447 286.444 66.4447 289.58C66.4447 292.744 68.0407 294.788 70.4767 294.788C72.5767 294.788 74.0327 293.388 74.3687 290.98H77.3087C76.8047 294.9 74.1727 297.308 70.4487 297.308ZM86.2346 297.28C82.0346 297.28 78.9546 293.976 78.9546 289.58C78.9546 285.184 82.0346 281.88 86.2346 281.88C90.4346 281.88 93.5146 285.184 93.5146 289.58C93.5146 293.976 90.4346 297.28 86.2346 297.28ZM86.2346 294.788C88.6706 294.788 90.6026 292.828 90.6026 289.58C90.6026 286.332 88.6706 284.4 86.2346 284.4C83.7986 284.4 81.8946 286.332 81.8946 289.58C81.8946 292.828 83.7986 294.788 86.2346 294.788ZM108.253 282.16L102.681 297H99.6007L94.0287 282.16H97.0807L101.197 293.752L105.369 282.16H108.253ZM115.9 297.28C111.616 297.28 108.732 294.172 108.732 289.496C108.732 285.1 111.728 281.88 115.816 281.88C120.24 281.88 123.18 285.464 122.676 290.28H111.616C111.84 293.304 113.352 295.068 115.844 295.068C117.944 295.068 119.4 293.92 119.876 291.988H122.676C121.948 295.292 119.4 297.28 115.9 297.28ZM115.76 284.008C113.492 284.008 111.952 285.632 111.644 288.404H119.68C119.54 285.66 118.056 284.008 115.76 284.008ZM128.511 289.412V297H125.683V282.16H128.315V285.296C129.351 283.252 131.591 281.964 134.027 281.964V284.904C130.835 284.736 128.511 286.136 128.511 289.412ZM145.253 297V294.704C144.329 296.356 142.677 297.28 140.493 297.28C137.413 297.28 135.397 295.516 135.397 292.8C135.397 289.888 137.721 288.376 142.145 288.376C143.013 288.376 143.713 288.404 144.917 288.544V287.452C144.917 285.324 143.769 284.12 141.809 284.12C139.737 284.12 138.477 285.352 138.393 287.424H135.817C135.957 284.092 138.337 281.88 141.809 281.88C145.477 281.88 147.605 283.952 147.605 287.48V297H145.253ZM138.085 292.716C138.085 294.256 139.233 295.264 141.053 295.264C143.433 295.264 144.917 293.78 144.917 291.512V290.308C143.825 290.168 143.041 290.14 142.313 290.14C139.485 290.14 138.085 290.98 138.085 292.716ZM165.554 289.58C165.554 294.032 162.978 297.28 158.974 297.28C156.874 297.28 155.082 296.216 154.018 294.34V297H151.386V276.896H154.214V284.708C155.25 282.888 156.958 281.88 158.974 281.88C162.95 281.88 165.554 285.072 165.554 289.58ZM162.614 289.58C162.614 286.22 160.85 284.372 158.414 284.372C156.062 284.372 154.214 286.192 154.214 289.524C154.214 292.8 156.006 294.76 158.414 294.76C160.85 294.76 162.614 292.884 162.614 289.58ZM171.865 278.716C171.865 279.78 171.025 280.592 169.821 280.592C168.617 280.592 167.749 279.78 167.749 278.716C167.749 277.624 168.617 276.84 169.821 276.84C171.025 276.84 171.865 277.624 171.865 278.716ZM171.249 297H168.421V282.16H171.249V297ZM178.031 297H175.175V276.896H178.031V297ZM185.4 278.716C185.4 279.78 184.56 280.592 183.356 280.592C182.152 280.592 181.284 279.78 181.284 278.716C181.284 277.624 182.152 276.84 183.356 276.84C184.56 276.84 185.4 277.624 185.4 278.716ZM184.784 297H181.956V282.16H184.784V297ZM197.082 294.256V296.748C196.214 297.14 195.458 297.28 194.562 297.28C191.818 297.28 189.914 295.796 189.914 292.52V284.568H186.638V282.16H189.914V277.764H192.742V282.16H197.222V284.568H192.742V291.876C192.742 293.92 193.722 294.648 195.234 294.648C195.906 294.648 196.494 294.536 197.082 294.256ZM212.241 282.16L204.821 302.404H201.741L203.869 296.804L198.017 282.16H201.069L205.381 293.472L209.385 282.16H212.241ZM229.089 297V294.704C228.165 296.356 226.513 297.28 224.329 297.28C221.249 297.28 219.233 295.516 219.233 292.8C219.233 289.888 221.557 288.376 225.981 288.376C226.849 288.376 227.549 288.404 228.753 288.544V287.452C228.753 285.324 227.605 284.12 225.645 284.12C223.573 284.12 222.313 285.352 222.229 287.424H219.653C219.793 284.092 222.173 281.88 225.645 281.88C229.313 281.88 231.441 283.952 231.441 287.48V297H229.089ZM221.921 292.716C221.921 294.256 223.069 295.264 224.889 295.264C227.269 295.264 228.753 293.78 228.753 291.512V290.308C227.661 290.168 226.877 290.14 226.149 290.14C223.321 290.14 221.921 290.98 221.921 292.716ZM238.05 288.628V297H235.222V282.16H237.854V284.624C238.862 282.972 240.542 281.88 242.586 281.88C245.638 281.88 247.654 283.84 247.654 287.396V297H244.826V288.348C244.826 285.8 243.706 284.372 241.606 284.372C239.674 284.372 238.05 285.996 238.05 288.628ZM250.345 289.58C250.345 285.072 252.921 281.88 256.925 281.88C258.913 281.88 260.649 282.888 261.685 284.708V276.896H264.513V297H261.881V294.34C260.817 296.216 259.025 297.28 256.925 297.28C252.921 297.28 250.345 294.032 250.345 289.58ZM253.285 289.58C253.285 292.884 255.021 294.76 257.485 294.76C259.893 294.76 261.685 292.8 261.685 289.524C261.685 286.192 259.837 284.372 257.485 284.372C255.021 284.372 253.285 286.22 253.285 289.58ZM30.132 333H27.304V320.568H24.028V318.16H27.304V317.068C27.304 314.212 28.844 312.644 31.644 312.644C32.484 312.644 33.156 312.784 33.716 313.008V315.304C33.268 315.108 32.764 315.052 32.26 315.052C30.916 315.052 30.132 315.668 30.132 317.096V318.16H34.276V320.568H30.132V333ZM45.7007 326.896V318.16H48.5287V333H45.8967V330.648C45.1127 332.188 43.3767 333.28 41.3607 333.28C38.3647 333.28 36.2927 331.516 36.2927 327.708V318.16H39.1207V327.148C39.1207 329.724 40.4087 330.788 42.2567 330.788C44.1607 330.788 45.7007 329.22 45.7007 326.896ZM55.2841 324.628V333H52.4561V318.16H55.0881V320.624C56.0961 318.972 57.7761 317.88 59.8201 317.88C62.8721 317.88 64.8881 319.84 64.8881 323.396V333H62.0601V324.348C62.0601 321.8 60.9401 320.372 58.8401 320.372C56.9081 320.372 55.2841 321.996 55.2841 324.628ZM74.4956 333.308C70.4356 333.308 67.5796 330.116 67.5796 325.58C67.5796 321.1 70.4916 317.88 74.4956 317.88C78.1636 317.88 80.8236 320.316 81.3556 324.18H78.3876C78.0796 321.8 76.5956 320.372 74.5236 320.372C72.0876 320.372 70.4916 322.444 70.4916 325.58C70.4916 328.744 72.0876 330.788 74.5236 330.788C76.6236 330.788 78.0796 329.388 78.4156 326.98H81.3556C80.8516 330.9 78.2196 333.308 74.4956 333.308ZM92.5742 330.256V332.748C91.7062 333.14 90.9502 333.28 90.0542 333.28C87.3102 333.28 85.4062 331.796 85.4062 328.52V320.568H82.1302V318.16H85.4062V313.764H88.2342V318.16H92.7142V320.568H88.2342V327.876C88.2342 329.92 89.2142 330.648 90.7262 330.648C91.3982 330.648 91.9862 330.536 92.5742 330.256ZM98.8571 314.716C98.8571 315.78 98.0171 316.592 96.8131 316.592C95.6091 316.592 94.7411 315.78 94.7411 314.716C94.7411 313.624 95.6091 312.84 96.8131 312.84C98.0171 312.84 98.8571 313.624 98.8571 314.716ZM98.2411 333H95.4131V318.16H98.2411V333ZM108.383 333.28C104.183 333.28 101.103 329.976 101.103 325.58C101.103 321.184 104.183 317.88 108.383 317.88C112.583 317.88 115.663 321.184 115.663 325.58C115.663 329.976 112.583 333.28 108.383 333.28ZM108.383 330.788C110.819 330.788 112.751 328.828 112.751 325.58C112.751 322.332 110.819 320.4 108.383 320.4C105.947 320.4 104.043 322.332 104.043 325.58C104.043 328.828 105.947 330.788 108.383 330.788ZM121.374 324.628V333H118.546V318.16H121.178V320.624C122.186 318.972 123.866 317.88 125.91 317.88C128.962 317.88 130.978 319.84 130.978 323.396V333H128.15V324.348C128.15 321.8 127.03 320.372 124.93 320.372C122.998 320.372 121.374 321.996 121.374 324.628ZM143.721 333V330.704C142.797 332.356 141.145 333.28 138.961 333.28C135.881 333.28 133.865 331.516 133.865 328.8C133.865 325.888 136.189 324.376 140.613 324.376C141.481 324.376 142.181 324.404 143.385 324.544V323.452C143.385 321.324 142.237 320.12 140.277 320.12C138.205 320.12 136.945 321.352 136.861 323.424H134.285C134.425 320.092 136.805 317.88 140.277 317.88C143.945 317.88 146.073 319.952 146.073 323.48V333H143.721ZM136.553 328.716C136.553 330.256 137.701 331.264 139.521 331.264C141.901 331.264 143.385 329.78 143.385 327.512V326.308C142.293 326.168 141.509 326.14 140.781 326.14C137.953 326.14 136.553 326.98 136.553 328.716ZM152.711 333H149.855V312.896H152.711V333ZM160.08 314.716C160.08 315.78 159.24 316.592 158.036 316.592C156.832 316.592 155.964 315.78 155.964 314.716C155.964 313.624 156.832 312.84 158.036 312.84C159.24 312.84 160.08 313.624 160.08 314.716ZM159.464 333H156.636V318.16H159.464V333ZM171.762 330.256V332.748C170.894 333.14 170.138 333.28 169.242 333.28C166.498 333.28 164.594 331.796 164.594 328.52V320.568H161.318V318.16H164.594V313.764H167.422V318.16H171.902V320.568H167.422V327.876C167.422 329.92 168.402 330.648 169.914 330.648C170.586 330.648 171.174 330.536 171.762 330.256ZM186.921 318.16L179.501 338.404H176.421L178.549 332.804L172.697 318.16H175.749L180.061 329.472L184.065 318.16H186.921Z" fill="#424242"/>
<path d="M294.685 170.576C294.685 171.892 293.621 172.872 292.081 172.872C290.569 172.872 289.505 171.892 289.505 170.576C289.505 169.204 290.569 168.224 292.081 168.224C293.621 168.224 294.685 169.204 294.685 170.576ZM294.069 189H290.177V174.048H294.069V189ZM301.425 180.852V189H297.533V174.048H301.117V176.176C302.209 174.692 303.749 173.768 305.709 173.768C308.705 173.768 310.777 175.728 310.777 179.34V189H306.913V180.656C306.913 178.444 306.045 177.212 304.281 177.212C302.741 177.212 301.425 178.444 301.425 180.852ZM321.719 183.036H313.179V179.564H321.719V183.036ZM34.64 225V223.152C33.66 224.552 32.176 225.28 30.132 225.28C27.024 225.28 24.952 223.46 24.952 220.66C24.952 217.748 27.304 216.18 31.672 216.18C32.512 216.18 33.24 216.236 34.164 216.348V215.452C34.164 213.772 33.212 212.792 31.588 212.792C29.908 212.792 28.9 213.772 28.76 215.452H25.26C25.484 212.008 27.976 209.768 31.588 209.768C35.508 209.768 37.804 211.924 37.804 215.592V225H34.64ZM28.62 220.548C28.62 221.808 29.516 222.592 30.972 222.592C32.96 222.592 34.164 221.5 34.164 219.764V218.7C33.24 218.56 32.596 218.504 31.924 218.504C29.712 218.504 28.62 219.204 28.62 220.548ZM56.0819 217.524C56.0819 221.948 53.4779 225.28 49.4459 225.28C47.6819 225.28 46.1699 224.524 45.0499 223.068V230.404H41.1579V210.048H44.7419V212.232C45.8899 210.636 47.5419 209.768 49.4459 209.768C53.4779 209.768 56.0819 213.128 56.0819 217.524ZM52.0779 217.524C52.0779 214.724 50.4819 213.212 48.5779 213.212C46.6739 213.212 45.0779 214.696 45.0779 217.524C45.0779 220.352 46.6739 221.808 48.5779 221.808C50.4819 221.808 52.0779 220.38 52.0779 217.524ZM73.4998 217.524C73.4998 221.948 70.8958 225.28 66.8638 225.28C65.0998 225.28 63.5878 224.524 62.4678 223.068V230.404H58.5758V210.048H62.1598V212.232C63.3078 210.636 64.9598 209.768 66.8638 209.768C70.8958 209.768 73.4998 213.128 73.4998 217.524ZM69.4958 217.524C69.4958 214.724 67.8998 213.212 65.9958 213.212C64.0918 213.212 62.4958 214.696 62.4958 217.524C62.4958 220.352 64.0918 221.808 65.9958 221.808C67.8998 221.808 69.4958 220.38 69.4958 217.524ZM94.4734 220.212C94.4734 223.348 92.0934 225.28 87.8374 225.28C83.5814 225.28 81.2014 223.236 80.8934 219.904H84.6174C84.6454 221.444 85.9614 222.424 87.8934 222.424C89.4054 222.424 90.5534 221.948 90.5534 220.884C90.5534 219.932 89.9374 219.54 88.5094 219.26L85.8214 218.756C83.1334 218.28 81.5094 216.796 81.5094 214.472C81.5094 211.7 83.8894 209.768 87.6134 209.768C91.3654 209.768 93.9414 211.756 94.2214 214.976H90.4974C90.3574 213.52 89.2654 212.624 87.6134 212.624C86.1854 212.624 85.2334 213.156 85.2334 214.108C85.2334 215.004 85.8494 215.368 87.1934 215.62L90.0774 216.152C92.9894 216.712 94.4734 218.056 94.4734 220.212ZM103.627 225.252C99.1465 225.252 96.1505 222.144 96.1505 217.468C96.1505 213.016 99.2585 209.768 103.571 209.768C108.303 209.768 111.439 213.604 110.739 218.476H100.127C100.379 220.912 101.555 222.256 103.543 222.256C105.251 222.256 106.399 221.416 106.847 219.932H110.711C109.871 223.32 107.267 225.252 103.627 225.252ZM103.487 212.624C101.667 212.624 100.519 213.8 100.183 216.012H106.623C106.511 213.94 105.335 212.624 103.487 212.624ZM122.249 225V223.152C121.269 224.552 119.785 225.28 117.741 225.28C114.633 225.28 112.561 223.46 112.561 220.66C112.561 217.748 114.913 216.18 119.281 216.18C120.121 216.18 120.849 216.236 121.773 216.348V215.452C121.773 213.772 120.821 212.792 119.197 212.792C117.517 212.792 116.509 213.772 116.369 215.452H112.869C113.093 212.008 115.585 209.768 119.197 209.768C123.117 209.768 125.413 211.924 125.413 215.592V225H122.249ZM116.229 220.548C116.229 221.808 117.125 222.592 118.581 222.592C120.569 222.592 121.773 221.5 121.773 219.764V218.7C120.849 218.56 120.205 218.504 119.533 218.504C117.321 218.504 116.229 219.204 116.229 220.548ZM132.659 217.748V225H128.767V210.048H132.351V212.932C133.443 211.028 135.767 209.88 138.175 209.88V213.912C134.871 213.66 132.659 214.444 132.659 217.748ZM146.388 225.28C142.076 225.28 139.108 222.088 139.108 217.524C139.108 213.044 142.188 209.768 146.388 209.768C150.28 209.768 153.164 212.4 153.64 216.432H149.552C149.356 214.444 148.152 213.212 146.388 213.212C144.372 213.212 143.084 214.864 143.084 217.524C143.084 220.212 144.344 221.836 146.388 221.836C148.18 221.836 149.328 220.66 149.552 218.616H153.64C153.192 222.732 150.392 225.28 146.388 225.28ZM160.03 216.852V225H156.138V204.896H160.03V212.008C161.066 210.636 162.354 209.768 164.314 209.768C167.31 209.768 169.382 211.728 169.382 215.34V225H165.518V216.656C165.518 214.444 164.65 213.212 162.886 213.212C161.346 213.212 160.03 214.444 160.03 216.852ZM32.232 261.252C27.752 261.252 24.756 258.144 24.756 253.468C24.756 249.016 27.864 245.768 32.176 245.768C36.908 245.768 40.044 249.604 39.344 254.476H28.732C28.984 256.912 30.16 258.256 32.148 258.256C33.856 258.256 35.004 257.416 35.452 255.932H39.316C38.476 259.32 35.872 261.252 32.232 261.252ZM32.092 248.624C30.272 248.624 29.124 249.8 28.788 252.012H35.228C35.116 249.94 33.94 248.624 32.092 248.624ZM44.1526 261H39.8126L44.8526 253.384L40.1486 246.048H44.6286L47.6806 251.2L50.7606 246.048H54.8486L50.2006 253.524L55.2126 261H50.7886L47.4286 255.624L44.1526 261ZM72.1873 253.524C72.1873 257.948 69.5833 261.28 65.5513 261.28C63.7873 261.28 62.2753 260.524 61.1553 259.068V266.404H57.2633V246.048H60.8473V248.232C61.9953 246.636 63.6473 245.768 65.5513 245.768C69.5833 245.768 72.1873 249.128 72.1873 253.524ZM68.1833 253.524C68.1833 250.724 66.5873 249.212 64.6833 249.212C62.7793 249.212 61.1833 250.696 61.1833 253.524C61.1833 256.352 62.7793 257.808 64.6833 257.808C66.5873 257.808 68.1833 256.38 68.1833 253.524ZM81.1773 261.252C76.6973 261.252 73.7013 258.144 73.7013 253.468C73.7013 249.016 76.8093 245.768 81.1213 245.768C85.8533 245.768 88.9893 249.604 88.2893 254.476H77.6773C77.9293 256.912 79.1053 258.256 81.0933 258.256C82.8013 258.256 83.9493 257.416 84.3973 255.932H88.2613C87.4213 259.32 84.8173 261.252 81.1773 261.252ZM81.0373 248.624C79.2173 248.624 78.0693 249.8 77.7333 252.012H84.1733C84.0613 249.94 82.8853 248.624 81.0373 248.624ZM94.7882 253.748V261H90.8962V246.048H94.4802V248.932C95.5722 247.028 97.8962 245.88 100.304 245.88V249.912C97.0002 249.66 94.7882 250.444 94.7882 253.748ZM106.834 242.576C106.834 243.892 105.77 244.872 104.23 244.872C102.718 244.872 101.654 243.892 101.654 242.576C101.654 241.204 102.718 240.224 104.23 240.224C105.77 240.224 106.834 241.204 106.834 242.576ZM106.218 261H102.326V246.048H106.218V261ZM116.177 261.252C111.697 261.252 108.701 258.144 108.701 253.468C108.701 249.016 111.809 245.768 116.121 245.768C120.853 245.768 123.989 249.604 123.289 254.476H112.677C112.929 256.912 114.105 258.256 116.093 258.256C117.801 258.256 118.949 257.416 119.397 255.932H123.261C122.421 259.32 119.817 261.252 116.177 261.252ZM116.037 248.624C114.217 248.624 113.069 249.8 112.733 252.012H119.173C119.061 249.94 117.885 248.624 116.037 248.624ZM129.788 252.852V261H125.896V246.048H129.48V248.176C130.572 246.692 132.112 245.768 134.072 245.768C137.068 245.768 139.14 247.728 139.14 251.34V261H135.276V252.656C135.276 250.444 134.408 249.212 132.644 249.212C131.104 249.212 129.788 250.444 129.788 252.852ZM148.794 261.28C144.482 261.28 141.514 258.088 141.514 253.524C141.514 249.044 144.594 245.768 148.794 245.768C152.686 245.768 155.57 248.4 156.046 252.432H151.958C151.762 250.444 150.558 249.212 148.794 249.212C146.778 249.212 145.49 250.864 145.49 253.524C145.49 256.212 146.75 257.836 148.794 257.836C150.586 257.836 151.734 256.66 151.958 254.616H156.046C155.598 258.732 152.798 261.28 148.794 261.28ZM164.986 261.252C160.506 261.252 157.51 258.144 157.51 253.468C157.51 249.016 160.618 245.768 164.93 245.768C169.662 245.768 172.798 249.604 172.098 254.476H161.486C161.738 256.912 162.914 258.256 164.902 258.256C166.61 258.256 167.758 257.416 168.206 255.932H172.07C171.23 259.32 168.626 261.252 164.986 261.252ZM164.846 248.624C163.026 248.624 161.878 249.8 161.542 252.012H167.982C167.87 249.94 166.694 248.624 164.846 248.624ZM187.333 256.212C187.333 259.348 184.953 261.28 180.697 261.28C176.441 261.28 174.061 259.236 173.753 255.904H177.477C177.505 257.444 178.821 258.424 180.753 258.424C182.265 258.424 183.413 257.948 183.413 256.884C183.413 255.932 182.797 255.54 181.369 255.26L178.681 254.756C175.993 254.28 174.369 252.796 174.369 250.472C174.369 247.7 176.749 245.768 180.473 245.768C184.225 245.768 186.801 247.756 187.081 250.976H183.357C183.217 249.52 182.125 248.624 180.473 248.624C179.045 248.624 178.093 249.156 178.093 250.108C178.093 251.004 178.709 251.368 180.053 251.62L182.937 252.152C185.849 252.712 187.333 254.056 187.333 256.212Z" fill="#4D84C3"/>
<rect x="24.5" y="92.5" width="47" height="47" rx="7.5" fill="#E5EEF9"/>
<rect x="24.5" y="92.5" width="47" height="47" rx="7.5" stroke="#D0E3F8"/>
<path d="M59.4311 125.571L54.2369 120.375C55.7943 118.345 56.5214 115.799 56.2707 113.253C56.0201 110.707 54.8104 108.352 52.8871 106.666C50.9637 104.979 48.4708 104.087 45.914 104.17C43.3572 104.254 40.928 105.307 39.1191 107.116C37.3102 108.925 36.257 111.354 36.1734 113.911C36.0897 116.468 36.9817 118.961 38.6685 120.884C40.3552 122.807 42.7104 124.017 45.2563 124.268C47.8022 124.518 50.3481 123.791 52.3775 122.234L57.5761 127.434C57.6982 127.556 57.8432 127.653 58.0027 127.719C58.1622 127.785 58.3332 127.819 58.5058 127.819C58.6785 127.819 58.8494 127.785 59.009 127.719C59.1685 127.653 59.3134 127.556 59.4355 127.434C59.5576 127.312 59.6544 127.167 59.7205 127.007C59.7866 126.848 59.8206 126.677 59.8206 126.504C59.8206 126.331 59.7866 126.16 59.7205 126.001C59.6544 125.841 59.5576 125.696 59.4355 125.574L59.4311 125.571ZM38.815 114.25C38.815 112.779 39.2512 111.341 40.0685 110.118C40.8857 108.894 42.0473 107.941 43.4063 107.378C44.7654 106.815 46.2608 106.668 47.7035 106.955C49.1463 107.242 50.4715 107.95 51.5116 108.99C52.5518 110.031 53.2601 111.356 53.5471 112.799C53.8341 114.241 53.6868 115.737 53.1239 117.096C52.561 118.455 51.6077 119.616 50.3846 120.434C49.1615 121.251 47.7235 121.687 46.2525 121.687C44.2806 121.685 42.39 120.901 40.9957 119.506C39.6013 118.112 38.8171 116.222 38.815 114.25Z" fill="#4D84C3"/>
<path d="M47.5009 109.233L47.5009 109.233C47.2072 109.125 46.9539 108.93 46.7749 108.673C46.5959 108.416 46.5 108.111 46.5 107.798C46.5 107.485 46.5959 107.18 46.7749 106.923C46.9539 106.667 47.2072 106.471 47.5009 106.363L47.501 106.363L50.623 105.214L51.7715 102.093C51.7715 102.093 51.7715 102.093 51.7715 102.093C51.8795 101.8 52.075 101.546 52.3316 101.367C52.5883 101.188 52.8936 101.092 53.2065 101.092C53.5194 101.092 53.8247 101.188 54.0813 101.367C54.338 101.546 54.5335 101.8 54.6415 102.093L54.6416 102.094L55.7901 105.217L58.9074 106.365C59.2014 106.47 59.4557 106.664 59.6359 106.919C59.8163 107.174 59.9135 107.479 59.9142 107.792M47.5009 109.233L51.773 113.499C51.8811 113.793 52.0765 114.046 52.3329 114.225C52.5895 114.404 52.8949 114.5 53.2078 114.5C53.5207 114.5 53.826 114.404 54.0826 114.225C54.3392 114.046 54.5347 113.792 54.6428 113.499C54.6428 113.499 54.6428 113.499 54.6428 113.499L55.7913 110.378L58.9105 109.231C58.911 109.23 58.9116 109.23 58.9121 109.23C59.207 109.123 59.4616 108.928 59.641 108.67C59.8205 108.413 59.9159 108.106 59.9142 107.792M47.5009 109.233L50.6214 110.382L51.7728 113.499L47.5009 109.233ZM59.9142 107.792C59.9142 107.793 59.9142 107.793 59.9142 107.793L59.4142 107.794L59.9142 107.791C59.9142 107.792 59.9142 107.792 59.9142 107.792ZM55.7942 102.087H56.3285V102.621C56.3285 102.891 56.4356 103.15 56.6264 103.34C56.8171 103.531 57.0758 103.638 57.3456 103.638C57.6155 103.638 57.8742 103.531 58.0649 103.34C58.2557 103.15 58.3628 102.891 58.3628 102.621V102.087H58.8971C59.1669 102.087 59.4256 101.979 59.6164 101.789C59.8071 101.598 59.9142 101.339 59.9142 101.069C59.9142 100.799 59.8071 100.541 59.6164 100.35C59.4256 100.159 59.1669 100.052 58.8971 100.052H58.3628V99.5173C58.3628 99.2475 58.2557 98.9888 58.0649 98.798C57.8742 98.6072 57.6155 98.5 57.3456 98.5C57.0758 98.5 56.8171 98.6072 56.6264 98.798C56.4356 98.9888 56.3285 99.2475 56.3285 99.5173V100.052H55.7942C55.5244 100.052 55.2656 100.159 55.0749 100.35C54.8842 100.541 54.777 100.799 54.777 101.069C54.777 101.339 54.8842 101.598 55.0749 101.789C55.2656 101.979 55.5244 102.087 55.7942 102.087ZM61.4828 103.156H61.4657V103.138C61.4657 102.869 61.3586 102.61 61.1678 102.419C60.9771 102.228 60.7184 102.121 60.4485 102.121C60.1787 102.121 59.92 102.228 59.7293 102.419C59.5385 102.61 59.4314 102.869 59.4314 103.138V103.156H59.4142C59.1444 103.156 58.8857 103.263 58.695 103.454C58.5042 103.645 58.3971 103.903 58.3971 104.173C58.3971 104.443 58.5042 104.702 58.695 104.892C58.8857 105.083 59.1444 105.19 59.4142 105.19H59.4314V105.208C59.4314 105.477 59.5385 105.736 59.7293 105.927C59.92 106.118 60.1787 106.225 60.4485 106.225C60.7184 106.225 60.9771 106.118 61.1678 105.927C61.3586 105.736 61.4657 105.477 61.4657 105.208V105.19H61.4828C61.7527 105.19 62.0114 105.083 62.2021 104.892C62.3929 104.702 62.5 104.443 62.5 104.173C62.5 103.903 62.3929 103.645 62.2021 103.454C62.0114 103.263 61.7527 103.156 61.4828 103.156Z" fill="#4D84C3" stroke="#E5EEF9"/>
</g>
<defs>
<linearGradient id="paint0_linear_455_6655" x1="174.809" y1="355.875" x2="174.809" y2="663.506" gradientUnits="userSpaceOnUse">
<stop stop-color="#F8F7F4"/>
<stop offset="0.235" stop-color="#F6F3EC"/>
<stop offset="0.57" stop-color="#EDEAE0"/>
<stop offset="0.8" stop-color="#EDEAE0"/>
</linearGradient>
<linearGradient id="paint1_linear_455_6655" x1="174.144" y1="363.219" x2="174.144" y2="679.125" gradientUnits="userSpaceOnUse">
<stop stop-color="#F8F7F4"/>
<stop offset="0.235" stop-color="#F6F3EC"/>
<stop offset="0.57" stop-color="#EDEAE0"/>
<stop offset="0.8" stop-color="#EDEAE0"/>
</linearGradient>
<linearGradient id="paint2_linear_455_6655" x1="186.27" y1="362.572" x2="186.27" y2="678.478" gradientUnits="userSpaceOnUse">
<stop stop-color="#F8F7F4"/>
<stop offset="0.235" stop-color="#F6F3EC"/>
<stop offset="0.57" stop-color="#EDEAE0"/>
<stop offset="0.8" stop-color="#EDEAE0"/>
</linearGradient>
<linearGradient id="paint3_linear_455_6655" x1="179.501" y1="437.22" x2="179.501" y2="597.785" gradientUnits="userSpaceOnUse">
<stop stop-color="#F8F7F4"/>
<stop offset="0.2" stop-color="#F6F3EC"/>
<stop offset="0.57" stop-color="#EDEAE0"/>
<stop offset="0.8" stop-color="#EDEAE0"/>
</linearGradient>
<linearGradient id="paint4_linear_455_6655" x1="179.497" y1="442.033" x2="179.497" y2="592.971" gradientUnits="userSpaceOnUse">
<stop stop-color="#F8F7F4"/>
<stop offset="0.2" stop-color="#F6F3EC"/>
<stop offset="0.57" stop-color="#EDEAE0"/>
<stop offset="0.8" stop-color="#EDEAE0"/>
</linearGradient>
<linearGradient id="paint5_linear_455_6655" x1="179.507" y1="311.175" x2="179.507" y2="723.831" gradientUnits="userSpaceOnUse">
<stop stop-color="#F8F7F4"/>
<stop offset="0.2" stop-color="#F6F3EC"/>
<stop offset="0.57" stop-color="#EDEAE0"/>
<stop offset="0.8" stop-color="#EDEAE0"/>
</linearGradient>
<clipPath id="clip0_455_6655">
<rect width="360" height="540" rx="16" fill="white"/>
</clipPath>
<clipPath id="clip1_455_6655">
<rect width="417" height="417" fill="white" transform="translate(-29 309)"/>
</clipPath>
</defs>
</svg>
