<svg width="696" height="154" viewBox="0 0 696 154" fill="none" xmlns="http://www.w3.org/2000/svg">
<mask id="path-1-outside-1_705_61203" maskUnits="userSpaceOnUse" x="0.582031" y="0.770218" width="695" height="153" fill="black">
<rect fill="white" x="0.582031" y="0.770218" width="695" height="153"/>
<path fill-rule="evenodd" clip-rule="evenodd" d="M86.8822 13.9974C85.3085 12.3612 82.6901 12.3612 81.1164 13.9974L50.0413 46.3059C49.9009 46.4518 49.7497 46.5869 49.5889 46.7099L14.1514 73.8232C12.0589 75.4242 12.0589 78.5758 14.1514 80.1768L49.5889 107.29C49.7497 107.413 49.9009 107.548 50.0413 107.694L81.1164 140.003C82.6901 141.639 85.3085 141.639 86.8822 140.003L107.999 118.047L129.116 140.003C130.69 141.639 133.308 141.639 134.882 140.003L155.999 118.047L177.116 140.003C178.69 141.639 181.308 141.639 182.882 140.003L203.999 118.047L225.116 140.003C226.69 141.639 229.308 141.639 230.882 140.003L251.999 118.047L273.116 140.003C274.69 141.639 277.308 141.639 278.882 140.003L299.999 118.047L321.116 140.003C322.69 141.639 325.308 141.639 326.882 140.003L347.999 118.047L369.116 140.003C370.69 141.639 373.308 141.639 374.882 140.003L395.999 118.047L417.116 140.003C418.69 141.639 421.308 141.639 422.882 140.003L443.999 118.047L465.116 140.003C466.69 141.639 469.308 141.639 470.882 140.003L491.999 118.047L513.116 140.003C514.69 141.639 517.308 141.639 518.882 140.003L539.999 118.047L561.116 140.003C562.69 141.639 565.308 141.639 566.882 140.003L587.999 118.047L609.116 140.003C610.69 141.639 613.308 141.639 614.882 140.003L645.957 107.694C646.098 107.548 646.249 107.413 646.41 107.29L681.847 80.1768C683.94 78.5758 683.94 75.4242 681.847 73.8232L646.41 46.7099C646.249 46.5869 646.098 46.4518 645.957 46.3059L614.882 13.9974C613.308 12.3612 610.69 12.3612 609.116 13.9974L587.999 35.9527L566.882 13.9974C565.308 12.3612 562.69 12.3612 561.116 13.9974L539.999 35.9527L518.882 13.9974C517.308 12.3612 514.69 12.3612 513.116 13.9974L491.999 35.9527L470.882 13.9974C469.308 12.3612 466.69 12.3612 465.116 13.9974L443.999 35.9527L422.882 13.9974C421.308 12.3612 418.69 12.3612 417.116 13.9974L395.999 35.9527L374.882 13.9974C373.308 12.3612 370.69 12.3612 369.116 13.9974L347.999 35.9527L326.882 13.9974C325.308 12.3612 322.69 12.3612 321.116 13.9974L299.999 35.9527L278.882 13.9974C277.308 12.3612 274.69 12.3612 273.116 13.9974L251.999 35.9527L230.882 13.9974C229.308 12.3612 226.69 12.3612 225.116 13.9974L203.999 35.9527L182.882 13.9974C181.308 12.3612 178.69 12.3612 177.116 13.9974L155.999 35.9527L134.882 13.9974C133.308 12.3612 130.69 12.3612 129.116 13.9974L107.999 35.9527L86.8822 13.9974Z"/>
</mask>
<path fill-rule="evenodd" clip-rule="evenodd" d="M86.8822 13.9974C85.3085 12.3612 82.6901 12.3612 81.1164 13.9974L50.0413 46.3059C49.9009 46.4518 49.7497 46.5869 49.5889 46.7099L14.1514 73.8232C12.0589 75.4242 12.0589 78.5758 14.1514 80.1768L49.5889 107.29C49.7497 107.413 49.9009 107.548 50.0413 107.694L81.1164 140.003C82.6901 141.639 85.3085 141.639 86.8822 140.003L107.999 118.047L129.116 140.003C130.69 141.639 133.308 141.639 134.882 140.003L155.999 118.047L177.116 140.003C178.69 141.639 181.308 141.639 182.882 140.003L203.999 118.047L225.116 140.003C226.69 141.639 229.308 141.639 230.882 140.003L251.999 118.047L273.116 140.003C274.69 141.639 277.308 141.639 278.882 140.003L299.999 118.047L321.116 140.003C322.69 141.639 325.308 141.639 326.882 140.003L347.999 118.047L369.116 140.003C370.69 141.639 373.308 141.639 374.882 140.003L395.999 118.047L417.116 140.003C418.69 141.639 421.308 141.639 422.882 140.003L443.999 118.047L465.116 140.003C466.69 141.639 469.308 141.639 470.882 140.003L491.999 118.047L513.116 140.003C514.69 141.639 517.308 141.639 518.882 140.003L539.999 118.047L561.116 140.003C562.69 141.639 565.308 141.639 566.882 140.003L587.999 118.047L609.116 140.003C610.69 141.639 613.308 141.639 614.882 140.003L645.957 107.694C646.098 107.548 646.249 107.413 646.41 107.29L681.847 80.1768C683.94 78.5758 683.94 75.4242 681.847 73.8232L646.41 46.7099C646.249 46.5869 646.098 46.4518 645.957 46.3059L614.882 13.9974C613.308 12.3612 610.69 12.3612 609.116 13.9974L587.999 35.9527L566.882 13.9974C565.308 12.3612 562.69 12.3612 561.116 13.9974L539.999 35.9527L518.882 13.9974C517.308 12.3612 514.69 12.3612 513.116 13.9974L491.999 35.9527L470.882 13.9974C469.308 12.3612 466.69 12.3612 465.116 13.9974L443.999 35.9527L422.882 13.9974C421.308 12.3612 418.69 12.3612 417.116 13.9974L395.999 35.9527L374.882 13.9974C373.308 12.3612 370.69 12.3612 369.116 13.9974L347.999 35.9527L326.882 13.9974C325.308 12.3612 322.69 12.3612 321.116 13.9974L299.999 35.9527L278.882 13.9974C277.308 12.3612 274.69 12.3612 273.116 13.9974L251.999 35.9527L230.882 13.9974C229.308 12.3612 226.69 12.3612 225.116 13.9974L203.999 35.9527L182.882 13.9974C181.308 12.3612 178.69 12.3612 177.116 13.9974L155.999 35.9527L134.882 13.9974C133.308 12.3612 130.69 12.3612 129.116 13.9974L107.999 35.9527L86.8822 13.9974Z" fill="#6F74EB"/>
<path d="M81.1164 13.9974L89.7651 22.3159L89.7651 22.3159L81.1164 13.9974ZM86.8822 13.9974L95.531 5.67878L95.531 5.67878L86.8822 13.9974ZM50.0413 46.3059L58.69 54.6245L58.69 54.6245L50.0413 46.3059ZM49.5889 46.7099L42.2972 37.1794L42.2972 37.1794L49.5889 46.7099ZM14.1514 73.8232L6.85966 64.2927L6.85966 64.2927L14.1514 73.8232ZM14.1514 80.1768L21.4432 70.6463L21.4432 70.6463L14.1514 80.1768ZM49.5889 107.29L56.8808 97.7597L56.8807 97.7596L49.5889 107.29ZM50.0413 107.694L41.3924 116.013L41.3925 116.013L50.0413 107.694ZM81.1164 140.003L89.7651 131.684L89.7651 131.684L81.1164 140.003ZM86.8822 140.003L95.531 148.321L95.531 148.321L86.8822 140.003ZM107.999 118.047L116.648 109.729L107.999 100.737L99.3505 109.729L107.999 118.047ZM129.116 140.003L137.765 131.684L137.765 131.684L129.116 140.003ZM134.882 140.003L143.531 148.321L143.531 148.321L134.882 140.003ZM155.999 118.047L164.648 109.729L155.999 100.737L147.35 109.729L155.999 118.047ZM177.116 140.003L168.468 148.321L168.468 148.321L177.116 140.003ZM182.882 140.003L191.531 148.321L191.531 148.321L182.882 140.003ZM203.999 118.047L212.648 109.729L203.999 100.737L195.35 109.729L203.999 118.047ZM225.116 140.003L216.468 148.321L216.468 148.321L225.116 140.003ZM230.882 140.003L239.531 148.321L239.531 148.321L230.882 140.003ZM251.999 118.047L260.648 109.729L251.999 100.737L243.351 109.729L251.999 118.047ZM273.116 140.003L281.765 131.684L281.765 131.684L273.116 140.003ZM278.882 140.003L287.531 148.321L287.531 148.321L278.882 140.003ZM299.999 118.047L308.648 109.729L299.999 100.737L291.35 109.729L299.999 118.047ZM321.116 140.003L329.765 131.684L329.765 131.684L321.116 140.003ZM326.882 140.003L335.531 148.321L335.531 148.321L326.882 140.003ZM347.999 118.047L356.648 109.729L347.999 100.737L339.35 109.729L347.999 118.047ZM369.116 140.003L377.765 131.684L377.765 131.684L369.116 140.003ZM374.882 140.003L383.531 148.321L383.531 148.321L374.882 140.003ZM395.999 118.047L404.648 109.729L395.999 100.737L387.35 109.729L395.999 118.047ZM417.116 140.003L425.765 131.684L425.765 131.684L417.116 140.003ZM422.882 140.003L431.531 148.321L431.531 148.321L422.882 140.003ZM443.999 118.047L452.648 109.729L443.999 100.737L435.35 109.729L443.999 118.047ZM465.116 140.003L473.765 131.684L473.765 131.684L465.116 140.003ZM470.882 140.003L479.531 148.321L479.531 148.321L470.882 140.003ZM491.999 118.047L500.648 109.729L491.999 100.737L483.35 109.729L491.999 118.047ZM513.116 140.003L521.765 131.684L521.765 131.684L513.116 140.003ZM518.882 140.003L527.531 148.321L527.531 148.321L518.882 140.003ZM539.999 118.047L548.648 109.729L539.999 100.737L531.35 109.729L539.999 118.047ZM561.116 140.003L552.468 148.321L552.468 148.321L561.116 140.003ZM566.882 140.003L575.531 148.321L575.531 148.321L566.882 140.003ZM587.999 118.047L596.648 109.729L587.999 100.737L579.35 109.729L587.999 118.047ZM609.116 140.003L600.468 148.321L600.468 148.321L609.116 140.003ZM614.882 140.003L623.531 148.321L623.531 148.321L614.882 140.003ZM645.957 107.694L654.606 116.013L654.606 116.012L645.957 107.694ZM646.41 107.29L639.118 97.7596L639.117 97.76L646.41 107.29ZM681.847 80.1768L689.139 89.7073L689.139 89.7073L681.847 80.1768ZM681.847 73.8232L689.139 64.2927L689.139 64.2927L681.847 73.8232ZM646.41 46.7099L639.117 56.2401L639.118 56.2404L646.41 46.7099ZM645.957 46.3059L654.607 37.9879L654.606 37.9874L645.957 46.3059ZM614.882 13.9974L623.531 5.67878L623.531 5.67876L614.882 13.9974ZM609.116 13.9974L600.468 5.67876L600.468 5.67878L609.116 13.9974ZM587.999 35.9527L579.35 44.2712L587.999 53.2633L596.648 44.2712L587.999 35.9527ZM566.882 13.9974L575.531 5.67878L575.531 5.67876L566.882 13.9974ZM561.116 13.9974L552.468 5.67876L552.468 5.67878L561.116 13.9974ZM539.999 35.9527L531.35 44.2712L539.999 53.2633L548.648 44.2712L539.999 35.9527ZM518.882 13.9974L527.531 5.67878L527.531 5.67876L518.882 13.9974ZM513.116 13.9974L521.765 22.3159L521.765 22.3159L513.116 13.9974ZM491.999 35.9527L483.35 44.2712L491.999 53.2633L500.648 44.2712L491.999 35.9527ZM470.882 13.9974L479.531 5.67878L479.531 5.67876L470.882 13.9974ZM465.116 13.9974L473.765 22.3159L473.765 22.3159L465.116 13.9974ZM443.999 35.9527L435.35 44.2712L443.999 53.2633L452.648 44.2712L443.999 35.9527ZM422.882 13.9974L431.531 5.67878L431.531 5.67876L422.882 13.9974ZM417.116 13.9974L425.765 22.3159L425.765 22.3159L417.116 13.9974ZM395.999 35.9527L387.35 44.2712L395.999 53.2633L404.648 44.2712L395.999 35.9527ZM374.882 13.9974L383.531 5.67878L383.531 5.67876L374.882 13.9974ZM369.116 13.9974L377.765 22.3159L377.765 22.3159L369.116 13.9974ZM347.999 35.9527L339.35 44.2712L347.999 53.2633L356.648 44.2712L347.999 35.9527ZM326.882 13.9974L335.531 5.67878L335.531 5.67876L326.882 13.9974ZM321.116 13.9974L329.765 22.3159L329.765 22.3159L321.116 13.9974ZM299.999 35.9527L291.35 44.2712L299.999 53.2633L308.648 44.2712L299.999 35.9527ZM278.882 13.9974L287.531 5.67878L287.531 5.67876L278.882 13.9974ZM273.116 13.9974L281.765 22.3159L281.765 22.3159L273.116 13.9974ZM251.999 35.9527L243.351 44.2712L251.999 53.2633L260.648 44.2712L251.999 35.9527ZM230.882 13.9974L222.233 22.3159L222.233 22.3159L230.882 13.9974ZM225.116 13.9974L216.468 5.67876L216.468 5.67878L225.116 13.9974ZM203.999 35.9527L195.351 44.2712L203.999 53.2633L212.648 44.2712L203.999 35.9527ZM182.882 13.9974L174.233 22.3159L174.233 22.3159L182.882 13.9974ZM177.116 13.9974L168.468 5.67876L168.468 5.67878L177.116 13.9974ZM155.999 35.9527L147.351 44.2712L155.999 53.2633L164.648 44.2712L155.999 35.9527ZM134.882 13.9974L143.531 5.67878L143.531 5.67878L134.882 13.9974ZM129.116 13.9974L137.765 22.3159L137.765 22.3159L129.116 13.9974ZM107.999 35.9527L99.3505 44.2712L107.999 53.2633L116.648 44.2712L107.999 35.9527ZM89.7651 22.3159C86.6177 25.5883 81.3809 25.5883 78.2334 22.3159L95.531 5.67878C89.2361 -0.865953 78.7625 -0.865993 72.4676 5.6788L89.7651 22.3159ZM58.69 54.6245L89.7651 22.3159L72.4676 5.67878L41.3925 37.9874L58.69 54.6245ZM56.8806 56.2404C57.5239 55.7483 58.1287 55.2081 58.69 54.6245L41.3925 37.9873C41.6732 37.6956 41.9756 37.4255 42.2972 37.1794L56.8806 56.2404ZM21.4432 83.3536L56.8807 56.2404L42.2972 37.1794L6.85966 64.2927L21.4432 83.3536ZM21.4432 70.6463C25.6283 73.8484 25.6283 80.1517 21.4432 83.3536L6.85966 64.2927C-1.51048 70.6967 -1.51054 83.3033 6.85966 89.7073L21.4432 70.6463ZM56.8807 97.7596L21.4432 70.6463L6.85966 89.7073L42.2972 116.821L56.8807 97.7596ZM58.6901 99.3756C58.1287 98.7918 57.5238 98.2517 56.8808 97.7597L42.2971 116.821C41.9756 116.575 41.6732 116.304 41.3924 116.013L58.6901 99.3756ZM89.7651 131.684L58.69 99.3755L41.3925 116.013L72.4676 148.321L89.7651 131.684ZM78.2334 131.684C81.3809 128.412 86.6177 128.412 89.7651 131.684L72.4676 148.321C78.7625 154.866 89.2361 154.866 95.531 148.321L78.2334 131.684ZM99.3505 109.729L78.2334 131.684L95.531 148.321L116.648 126.366L99.3505 109.729ZM137.765 131.684L116.648 109.729L99.3505 126.366L120.468 148.321L137.765 131.684ZM126.233 131.684C129.381 128.412 134.618 128.412 137.765 131.684L120.468 148.321C126.762 154.866 137.236 154.866 143.531 148.321L126.233 131.684ZM147.35 109.729L126.233 131.684L143.531 148.321L164.648 126.366L147.35 109.729ZM185.765 131.684L164.648 109.729L147.35 126.366L168.468 148.321L185.765 131.684ZM174.233 131.684C177.381 128.412 182.618 128.412 185.765 131.684L168.468 148.321C174.762 154.866 185.236 154.866 191.531 148.321L174.233 131.684ZM195.35 109.729L174.233 131.684L191.531 148.321L212.648 126.366L195.35 109.729ZM233.765 131.684L212.648 109.729L195.35 126.366L216.468 148.321L233.765 131.684ZM222.233 131.684C225.381 128.412 230.618 128.412 233.765 131.684L216.468 148.321C222.762 154.866 233.236 154.866 239.531 148.321L222.233 131.684ZM243.351 109.729L222.233 131.684L239.531 148.321L260.648 126.366L243.351 109.729ZM281.765 131.684L260.648 109.729L243.351 126.366L264.468 148.321L281.765 131.684ZM270.233 131.684C273.381 128.412 278.618 128.412 281.765 131.684L264.468 148.321C270.762 154.866 281.236 154.866 287.531 148.321L270.233 131.684ZM291.35 109.729L270.233 131.684L287.531 148.321L308.648 126.366L291.35 109.729ZM329.765 131.684L308.648 109.729L291.35 126.366L312.468 148.321L329.765 131.684ZM318.233 131.684C321.381 128.412 326.618 128.412 329.765 131.684L312.468 148.321C318.762 154.866 329.236 154.866 335.531 148.321L318.233 131.684ZM339.35 109.729L318.233 131.684L335.531 148.321L356.648 126.366L339.35 109.729ZM377.765 131.684L356.648 109.729L339.35 126.366L360.468 148.321L377.765 131.684ZM366.233 131.684C369.381 128.412 374.618 128.412 377.765 131.684L360.468 148.321C366.762 154.866 377.236 154.866 383.531 148.321L366.233 131.684ZM387.35 109.729L366.233 131.684L383.531 148.321L404.648 126.366L387.35 109.729ZM425.765 131.684L404.648 109.729L387.35 126.366L408.468 148.321L425.765 131.684ZM414.233 131.684C417.381 128.412 422.618 128.412 425.765 131.684L408.468 148.321C414.762 154.866 425.236 154.866 431.531 148.321L414.233 131.684ZM435.35 109.729L414.233 131.684L431.531 148.321L452.648 126.366L435.35 109.729ZM473.765 131.684L452.648 109.729L435.35 126.366L456.468 148.321L473.765 131.684ZM462.233 131.684C465.381 128.412 470.618 128.412 473.765 131.684L456.468 148.321C462.762 154.866 473.236 154.866 479.531 148.321L462.233 131.684ZM483.35 109.729L462.233 131.684L479.531 148.321L500.648 126.366L483.35 109.729ZM521.765 131.684L500.648 109.729L483.35 126.366L504.468 148.321L521.765 131.684ZM510.233 131.684C513.381 128.412 518.618 128.412 521.765 131.684L504.468 148.321C510.762 154.866 521.236 154.866 527.531 148.321L510.233 131.684ZM531.35 109.729L510.233 131.684L527.531 148.321L548.648 126.366L531.35 109.729ZM569.765 131.684L548.648 109.729L531.35 126.366L552.468 148.321L569.765 131.684ZM558.233 131.684C561.381 128.412 566.618 128.412 569.765 131.684L552.468 148.321C558.762 154.866 569.236 154.866 575.531 148.321L558.233 131.684ZM579.35 109.729L558.233 131.684L575.531 148.321L596.648 126.366L579.35 109.729ZM617.765 131.684L596.648 109.729L579.35 126.366L600.468 148.321L617.765 131.684ZM606.233 131.684C609.381 128.412 614.618 128.412 617.765 131.684L600.468 148.321C606.762 154.866 617.236 154.866 623.531 148.321L606.233 131.684ZM637.309 99.3755L606.233 131.684L623.531 148.321L654.606 116.013L637.309 99.3755ZM639.117 97.76C638.475 98.2514 637.87 98.7914 637.308 99.3759L654.606 116.012C654.325 116.305 654.023 116.575 653.702 116.82L639.117 97.76ZM674.555 70.6463L639.118 97.7596L653.701 116.821L689.139 89.7073L674.555 70.6463ZM674.555 83.3536C670.37 80.1516 670.37 73.8484 674.555 70.6464L689.139 89.7073C697.509 83.3032 697.509 70.6968 689.139 64.2927L674.555 83.3536ZM639.118 56.2404L674.555 83.3537L689.139 64.2927L653.701 37.1794L639.118 56.2404ZM637.308 54.624C637.87 55.2086 638.475 55.7487 639.117 56.2401L653.702 37.1797C654.022 37.425 654.325 37.6951 654.607 37.9879L637.308 54.624ZM606.233 22.3159L637.309 54.6245L654.606 37.9874L623.531 5.67878L606.233 22.3159ZM617.765 22.316C614.618 25.5883 609.381 25.5883 606.233 22.316L623.531 5.67876C617.236 -0.865958 606.762 -0.865967 600.468 5.67876L617.765 22.316ZM596.648 44.2712L617.765 22.3159L600.468 5.67878L579.35 27.6341L596.648 44.2712ZM558.233 22.3159L579.35 44.2712L596.648 27.6341L575.531 5.67878L558.233 22.3159ZM569.765 22.316C566.618 25.5883 561.381 25.5883 558.233 22.316L575.531 5.67876C569.236 -0.865958 558.762 -0.865967 552.468 5.67876L569.765 22.316ZM548.648 44.2712L569.765 22.3159L552.468 5.67878L531.35 27.6341L548.648 44.2712ZM510.233 22.3159L531.35 44.2712L548.648 27.6341L527.531 5.67878L510.233 22.3159ZM521.765 22.3159C518.618 25.5884 513.381 25.5883 510.233 22.316L527.531 5.67876C521.236 -0.86591 510.762 -0.866042 504.468 5.67884L521.765 22.3159ZM500.648 44.2712L521.765 22.3159L504.468 5.67878L483.35 27.6341L500.648 44.2712ZM462.233 22.3159L483.35 44.2712L500.648 27.6341L479.531 5.67878L462.233 22.3159ZM473.765 22.3159C470.618 25.5884 465.381 25.5883 462.233 22.316L479.531 5.67876C473.236 -0.86591 462.762 -0.866042 456.468 5.67884L473.765 22.3159ZM452.648 44.2712L473.765 22.3159L456.468 5.67878L435.35 27.6341L452.648 44.2712ZM414.233 22.3159L435.35 44.2712L452.648 27.6341L431.531 5.67878L414.233 22.3159ZM425.765 22.3159C422.618 25.5884 417.381 25.5883 414.233 22.316L431.531 5.67876C425.236 -0.86591 414.762 -0.866042 408.468 5.67884L425.765 22.3159ZM404.648 44.2712L425.765 22.3159L408.468 5.67878L387.35 27.6341L404.648 44.2712ZM366.233 22.3159L387.35 44.2712L404.648 27.6341L383.531 5.67878L366.233 22.3159ZM377.765 22.3159C374.618 25.5884 369.381 25.5883 366.233 22.316L383.531 5.67876C377.236 -0.86591 366.762 -0.866042 360.468 5.67884L377.765 22.3159ZM356.648 44.2712L377.765 22.3159L360.468 5.67878L339.35 27.6341L356.648 44.2712ZM318.233 22.3159L339.35 44.2712L356.648 27.6341L335.531 5.67878L318.233 22.3159ZM329.765 22.3159C326.618 25.5884 321.381 25.5883 318.233 22.316L335.531 5.67876C329.236 -0.86591 318.762 -0.866042 312.468 5.67884L329.765 22.3159ZM308.648 44.2712L329.765 22.3159L312.468 5.67878L291.35 27.6341L308.648 44.2712ZM270.233 22.3159L291.35 44.2712L308.648 27.6341L287.531 5.67878L270.233 22.3159ZM281.765 22.3159C278.618 25.5884 273.381 25.5883 270.233 22.316L287.531 5.67876C281.236 -0.86591 270.762 -0.866042 264.468 5.67884L281.765 22.3159ZM260.648 44.2712L281.765 22.3159L264.468 5.67878L243.351 27.6341L260.648 44.2712ZM222.233 22.3159L243.351 44.2712L260.648 27.6341L239.531 5.67878L222.233 22.3159ZM233.765 22.316C230.618 25.5883 225.381 25.5883 222.233 22.3159L239.531 5.6788C233.236 -0.865995 222.762 -0.865943 216.468 5.67876L233.765 22.316ZM212.648 44.2712L233.765 22.3159L216.468 5.67878L195.351 27.6341L212.648 44.2712ZM174.233 22.3159L195.351 44.2712L212.648 27.6341L191.531 5.67878L174.233 22.3159ZM185.765 22.316C182.618 25.5883 177.381 25.5883 174.233 22.3159L191.531 5.6788C185.236 -0.865995 174.762 -0.865943 168.468 5.67876L185.765 22.316ZM164.648 44.2712L185.765 22.3159L168.468 5.67878L147.351 27.6341L164.648 44.2712ZM126.233 22.3159L147.351 44.2712L164.648 27.6341L143.531 5.67878L126.233 22.3159ZM137.765 22.3159C134.618 25.5883 129.381 25.5883 126.233 22.3159L143.531 5.67878C137.236 -0.865953 126.762 -0.865993 120.468 5.6788L137.765 22.3159ZM116.648 44.2712L137.765 22.3159L120.468 5.67878L99.3505 27.6341L116.648 44.2712ZM78.2334 22.3159L99.3505 44.2712L116.648 27.6341L95.531 5.67878L78.2334 22.3159Z" fill="white" mask="url(#path-1-outside-1_705_61203)"/>
<path d="M81.1884 89V63.8H85.0764V89H81.1884ZM90.617 89V71.252H94.253V73.916H94.829C95.165 73.196 95.765 72.524 96.629 71.9C97.493 71.276 98.777 70.964 100.481 70.964C101.825 70.964 103.013 71.264 104.045 71.864C105.101 72.464 105.929 73.316 106.529 74.42C107.129 75.5 107.429 76.808 107.429 78.344V89H103.721V78.632C103.721 77.096 103.337 75.968 102.569 75.248C101.801 74.504 100.745 74.132 99.401 74.132C97.865 74.132 96.629 74.636 95.693 75.644C94.781 76.652 94.325 78.116 94.325 80.036V89H90.617ZM121.189 89.504C119.485 89.504 117.937 89.144 116.545 88.424C115.177 87.704 114.085 86.66 113.269 85.292C112.477 83.924 112.081 82.28 112.081 80.36V79.892C112.081 77.972 112.477 76.34 113.269 74.996C114.085 73.628 115.177 72.584 116.545 71.864C117.937 71.12 119.485 70.748 121.189 70.748C122.893 70.748 124.345 71.06 125.545 71.684C126.745 72.308 127.705 73.136 128.425 74.168C129.169 75.2 129.649 76.34 129.865 77.588L126.265 78.344C126.145 77.552 125.893 76.832 125.509 76.184C125.125 75.536 124.585 75.02 123.889 74.636C123.193 74.252 122.317 74.06 121.261 74.06C120.229 74.06 119.293 74.3 118.453 74.78C117.637 75.236 116.989 75.908 116.509 76.796C116.029 77.66 115.789 78.716 115.789 79.964V80.288C115.789 81.536 116.029 82.604 116.509 83.492C116.989 84.38 117.637 85.052 118.453 85.508C119.293 85.964 120.229 86.192 121.261 86.192C122.821 86.192 124.009 85.796 124.825 85.004C125.641 84.188 126.157 83.156 126.373 81.908L129.973 82.736C129.685 83.96 129.169 85.088 128.425 86.12C127.705 87.152 126.745 87.98 125.545 88.604C124.345 89.204 122.893 89.504 121.189 89.504ZM134.43 89V71.252H138.066V73.34H138.642C138.93 72.596 139.386 72.056 140.01 71.72C140.658 71.36 141.45 71.18 142.386 71.18H144.51V74.528H142.242C141.042 74.528 140.058 74.864 139.29 75.536C138.522 76.184 138.138 77.192 138.138 78.56V89H134.43ZM156.035 89.504C154.235 89.504 152.663 89.132 151.319 88.388C149.975 87.62 148.919 86.552 148.151 85.184C147.407 83.792 147.035 82.184 147.035 80.36V79.928C147.035 78.08 147.407 76.472 148.151 75.104C148.895 73.712 149.927 72.644 151.247 71.9C152.591 71.132 154.139 70.748 155.891 70.748C157.595 70.748 159.083 71.132 160.355 71.9C161.651 72.644 162.659 73.688 163.379 75.032C164.099 76.376 164.459 77.948 164.459 79.748V81.152H150.815C150.863 82.712 151.379 83.96 152.363 84.896C153.371 85.808 154.619 86.264 156.107 86.264C157.499 86.264 158.543 85.952 159.239 85.328C159.959 84.704 160.511 83.984 160.895 83.168L163.955 84.752C163.619 85.424 163.127 86.132 162.479 86.876C161.855 87.62 161.027 88.244 159.995 88.748C158.963 89.252 157.643 89.504 156.035 89.504ZM150.851 78.308H160.679C160.583 76.964 160.103 75.92 159.239 75.176C158.375 74.408 157.247 74.024 155.855 74.024C154.463 74.024 153.323 74.408 152.435 75.176C151.571 75.92 151.043 76.964 150.851 78.308ZM174.611 89.504C173.339 89.504 172.199 89.288 171.191 88.856C170.207 88.424 169.415 87.788 168.815 86.948C168.239 86.108 167.951 85.088 167.951 83.888C167.951 82.664 168.239 81.656 168.815 80.864C169.415 80.048 170.219 79.436 171.227 79.028C172.259 78.62 173.423 78.416 174.719 78.416H180.119V77.264C180.119 76.232 179.807 75.404 179.183 74.78C178.559 74.156 177.599 73.844 176.303 73.844C175.031 73.844 174.059 74.144 173.387 74.744C172.715 75.344 172.271 76.124 172.055 77.084L168.599 75.968C168.887 75.008 169.343 74.144 169.967 73.376C170.615 72.584 171.467 71.948 172.523 71.468C173.579 70.988 174.851 70.748 176.339 70.748C178.643 70.748 180.455 71.336 181.775 72.512C183.095 73.688 183.755 75.356 183.755 77.516V84.824C183.755 85.544 184.091 85.904 184.763 85.904H186.275V89H183.503C182.663 89 181.979 88.784 181.451 88.352C180.923 87.92 180.659 87.332 180.659 86.588V86.48H180.119C179.927 86.84 179.639 87.26 179.255 87.74C178.871 88.22 178.307 88.64 177.563 89C176.819 89.336 175.835 89.504 174.611 89.504ZM175.151 86.444C176.639 86.444 177.839 86.024 178.751 85.184C179.663 84.32 180.119 83.144 180.119 81.656V81.296H174.935C173.951 81.296 173.159 81.512 172.559 81.944C171.959 82.352 171.659 82.964 171.659 83.78C171.659 84.596 171.971 85.244 172.595 85.724C173.219 86.204 174.071 86.444 175.151 86.444ZM197.191 89.504C194.935 89.504 193.063 89 191.575 87.992C190.087 86.984 189.175 85.46 188.839 83.42L192.295 82.592C192.487 83.576 192.811 84.356 193.267 84.932C193.723 85.508 194.287 85.916 194.959 86.156C195.655 86.396 196.399 86.516 197.191 86.516C198.367 86.516 199.267 86.288 199.891 85.832C200.539 85.376 200.863 84.788 200.863 84.068C200.863 83.348 200.563 82.82 199.963 82.484C199.363 82.148 198.475 81.872 197.299 81.656L196.075 81.44C194.875 81.224 193.783 80.912 192.799 80.504C191.815 80.096 191.035 79.532 190.459 78.812C189.883 78.092 189.595 77.168 189.595 76.04C189.595 74.36 190.219 73.064 191.467 72.152C192.715 71.216 194.371 70.748 196.435 70.748C198.427 70.748 200.059 71.204 201.331 72.116C202.627 73.004 203.467 74.216 203.851 75.752L200.395 76.724C200.179 75.644 199.723 74.888 199.027 74.456C198.331 74 197.467 73.772 196.435 73.772C195.427 73.772 194.635 73.964 194.059 74.348C193.483 74.708 193.195 75.224 193.195 75.896C193.195 76.616 193.471 77.144 194.023 77.48C194.599 77.816 195.367 78.068 196.327 78.236L197.587 78.452C198.859 78.668 200.023 78.968 201.079 79.352C202.135 79.736 202.963 80.288 203.563 81.008C204.187 81.728 204.499 82.688 204.499 83.888C204.499 85.664 203.839 87.044 202.519 88.028C201.199 89.012 199.423 89.504 197.191 89.504ZM217.149 89.504C215.349 89.504 213.777 89.132 212.433 88.388C211.089 87.62 210.033 86.552 209.265 85.184C208.521 83.792 208.149 82.184 208.149 80.36V79.928C208.149 78.08 208.521 76.472 209.265 75.104C210.009 73.712 211.041 72.644 212.361 71.9C213.705 71.132 215.253 70.748 217.005 70.748C218.709 70.748 220.197 71.132 221.469 71.9C222.765 72.644 223.773 73.688 224.493 75.032C225.213 76.376 225.573 77.948 225.573 79.748V81.152H211.929C211.977 82.712 212.493 83.96 213.477 84.896C214.485 85.808 215.733 86.264 217.221 86.264C218.613 86.264 219.657 85.952 220.353 85.328C221.073 84.704 221.625 83.984 222.009 83.168L225.069 84.752C224.733 85.424 224.241 86.132 223.593 86.876C222.969 87.62 222.141 88.244 221.109 88.748C220.077 89.252 218.757 89.504 217.149 89.504ZM211.965 78.308H221.793C221.697 76.964 221.217 75.92 220.353 75.176C219.489 74.408 218.361 74.024 216.969 74.024C215.577 74.024 214.437 74.408 213.549 75.176C212.685 75.92 212.157 76.964 211.965 78.308ZM237.561 89.504C236.097 89.504 234.741 89.144 233.493 88.424C232.245 87.704 231.237 86.672 230.469 85.328C229.725 83.96 229.353 82.316 229.353 80.396V79.856C229.353 77.96 229.725 76.328 230.469 74.96C231.213 73.592 232.209 72.548 233.457 71.828C234.705 71.108 236.073 70.748 237.561 70.748C238.713 70.748 239.673 70.892 240.441 71.18C241.233 71.468 241.881 71.84 242.385 72.296C242.889 72.728 243.273 73.184 243.537 73.664H244.113V63.8H247.821V89H244.185V86.48H243.609C243.153 87.248 242.457 87.944 241.521 88.568C240.609 89.192 239.289 89.504 237.561 89.504ZM238.605 86.264C240.213 86.264 241.533 85.748 242.565 84.716C243.621 83.684 244.149 82.208 244.149 80.288V79.964C244.149 78.068 243.633 76.604 242.601 75.572C241.569 74.54 240.237 74.024 238.605 74.024C237.021 74.024 235.701 74.54 234.645 75.572C233.613 76.604 233.097 78.068 233.097 79.964V80.288C233.097 82.208 233.613 83.684 234.645 84.716C235.701 85.748 237.021 86.264 238.605 86.264ZM270.951 89.504C269.151 89.504 267.579 89.132 266.235 88.388C264.891 87.62 263.835 86.552 263.067 85.184C262.323 83.792 261.951 82.184 261.951 80.36V79.928C261.951 78.08 262.323 76.472 263.067 75.104C263.811 73.712 264.843 72.644 266.163 71.9C267.507 71.132 269.055 70.748 270.807 70.748C272.511 70.748 273.999 71.132 275.271 71.9C276.567 72.644 277.575 73.688 278.295 75.032C279.015 76.376 279.375 77.948 279.375 79.748V81.152H265.731C265.779 82.712 266.295 83.96 267.279 84.896C268.287 85.808 269.535 86.264 271.023 86.264C272.415 86.264 273.459 85.952 274.155 85.328C274.875 84.704 275.427 83.984 275.811 83.168L278.871 84.752C278.535 85.424 278.043 86.132 277.395 86.876C276.771 87.62 275.943 88.244 274.911 88.748C273.879 89.252 272.559 89.504 270.951 89.504ZM265.767 78.308H275.595C275.499 76.964 275.019 75.92 274.155 75.176C273.291 74.408 272.163 74.024 270.771 74.024C269.379 74.024 268.239 74.408 267.351 75.176C266.487 75.92 265.959 76.964 265.767 78.308ZM284.019 89V71.252H287.655V73.916H288.231C288.567 73.196 289.167 72.524 290.031 71.9C290.895 71.276 292.179 70.964 293.883 70.964C295.227 70.964 296.415 71.264 297.447 71.864C298.503 72.464 299.331 73.316 299.931 74.42C300.531 75.5 300.831 76.808 300.831 78.344V89H297.123V78.632C297.123 77.096 296.739 75.968 295.971 75.248C295.203 74.504 294.147 74.132 292.803 74.132C291.267 74.132 290.031 74.636 289.095 75.644C288.183 76.652 287.727 78.116 287.727 80.036V89H284.019ZM305.483 80.216V79.676C305.483 77.804 305.855 76.208 306.599 74.888C307.367 73.568 308.375 72.548 309.623 71.828C310.871 71.108 312.239 70.748 313.727 70.748C315.455 70.748 316.775 71.072 317.687 71.72C318.623 72.368 319.307 73.064 319.739 73.808H320.315V71.252H323.915V92.636C323.915 93.716 323.591 94.58 322.943 95.228C322.319 95.876 321.455 96.2 320.351 96.2H308.399V92.96H319.199C319.895 92.96 320.243 92.6 320.243 91.88V86.228H319.667C319.403 86.66 319.031 87.104 318.551 87.56C318.071 88.016 317.435 88.388 316.643 88.676C315.875 88.964 314.903 89.108 313.727 89.108C312.239 89.108 310.859 88.76 309.587 88.064C308.339 87.344 307.343 86.324 306.599 85.004C305.855 83.66 305.483 82.064 305.483 80.216ZM314.735 85.868C316.343 85.868 317.663 85.364 318.695 84.356C319.751 83.324 320.279 81.908 320.279 80.108V79.784C320.279 77.936 319.763 76.52 318.731 75.536C317.699 74.528 316.367 74.024 314.735 74.024C313.151 74.024 311.831 74.528 310.775 75.536C309.743 76.52 309.227 77.936 309.227 79.784V80.108C309.227 81.908 309.743 83.324 310.775 84.356C311.831 85.364 313.151 85.868 314.735 85.868ZM335.062 89.504C333.79 89.504 332.65 89.288 331.642 88.856C330.658 88.424 329.866 87.788 329.266 86.948C328.69 86.108 328.402 85.088 328.402 83.888C328.402 82.664 328.69 81.656 329.266 80.864C329.866 80.048 330.67 79.436 331.678 79.028C332.71 78.62 333.874 78.416 335.17 78.416H340.57V77.264C340.57 76.232 340.258 75.404 339.634 74.78C339.01 74.156 338.05 73.844 336.754 73.844C335.482 73.844 334.51 74.144 333.838 74.744C333.166 75.344 332.722 76.124 332.506 77.084L329.05 75.968C329.338 75.008 329.794 74.144 330.418 73.376C331.066 72.584 331.918 71.948 332.974 71.468C334.03 70.988 335.302 70.748 336.79 70.748C339.094 70.748 340.906 71.336 342.226 72.512C343.546 73.688 344.206 75.356 344.206 77.516V84.824C344.206 85.544 344.542 85.904 345.214 85.904H346.726V89H343.954C343.114 89 342.43 88.784 341.902 88.352C341.374 87.92 341.11 87.332 341.11 86.588V86.48H340.57C340.378 86.84 340.09 87.26 339.706 87.74C339.322 88.22 338.758 88.64 338.014 89C337.27 89.336 336.286 89.504 335.062 89.504ZM335.602 86.444C337.09 86.444 338.29 86.024 339.202 85.184C340.114 84.32 340.57 83.144 340.57 81.656V81.296H335.386C334.402 81.296 333.61 81.512 333.01 81.944C332.41 82.352 332.11 82.964 332.11 83.78C332.11 84.596 332.422 85.244 333.046 85.724C333.67 86.204 334.522 86.444 335.602 86.444ZM349.226 80.216V79.676C349.226 77.804 349.598 76.208 350.342 74.888C351.11 73.568 352.118 72.548 353.366 71.828C354.614 71.108 355.982 70.748 357.47 70.748C359.198 70.748 360.518 71.072 361.43 71.72C362.366 72.368 363.05 73.064 363.482 73.808H364.058V71.252H367.658V92.636C367.658 93.716 367.334 94.58 366.686 95.228C366.062 95.876 365.198 96.2 364.094 96.2H352.142V92.96H362.942C363.638 92.96 363.986 92.6 363.986 91.88V86.228H363.41C363.146 86.66 362.774 87.104 362.294 87.56C361.814 88.016 361.178 88.388 360.386 88.676C359.618 88.964 358.646 89.108 357.47 89.108C355.982 89.108 354.602 88.76 353.33 88.064C352.082 87.344 351.086 86.324 350.342 85.004C349.598 83.66 349.226 82.064 349.226 80.216ZM358.478 85.868C360.086 85.868 361.406 85.364 362.438 84.356C363.494 83.324 364.022 81.908 364.022 80.108V79.784C364.022 77.936 363.506 76.52 362.474 75.536C361.442 74.528 360.11 74.024 358.478 74.024C356.894 74.024 355.574 74.528 354.518 75.536C353.486 76.52 352.97 77.936 352.97 79.784V80.108C352.97 81.908 353.486 83.324 354.518 84.356C355.574 85.364 356.894 85.868 358.478 85.868ZM381.433 89.504C379.633 89.504 378.061 89.132 376.717 88.388C375.373 87.62 374.317 86.552 373.549 85.184C372.805 83.792 372.433 82.184 372.433 80.36V79.928C372.433 78.08 372.805 76.472 373.549 75.104C374.293 73.712 375.325 72.644 376.645 71.9C377.989 71.132 379.537 70.748 381.289 70.748C382.993 70.748 384.481 71.132 385.753 71.9C387.049 72.644 388.057 73.688 388.777 75.032C389.497 76.376 389.857 77.948 389.857 79.748V81.152H376.213C376.261 82.712 376.777 83.96 377.761 84.896C378.769 85.808 380.017 86.264 381.505 86.264C382.897 86.264 383.941 85.952 384.637 85.328C385.357 84.704 385.909 83.984 386.293 83.168L389.353 84.752C389.017 85.424 388.525 86.132 387.877 86.876C387.253 87.62 386.425 88.244 385.393 88.748C384.361 89.252 383.041 89.504 381.433 89.504ZM376.249 78.308H386.077C385.981 76.964 385.501 75.92 384.637 75.176C383.773 74.408 382.645 74.024 381.253 74.024C379.861 74.024 378.721 74.408 377.833 75.176C376.969 75.92 376.441 76.964 376.249 78.308ZM394.501 89V71.252H398.137V73.34H398.713C399.049 72.716 399.589 72.164 400.333 71.684C401.077 71.204 402.085 70.964 403.357 70.964C404.677 70.964 405.733 71.24 406.525 71.792C407.341 72.32 407.953 73.004 408.361 73.844H408.937C409.345 73.028 409.933 72.344 410.701 71.792C411.493 71.24 412.609 70.964 414.049 70.964C415.201 70.964 416.221 71.204 417.109 71.684C417.997 72.14 418.705 72.836 419.233 73.772C419.761 74.684 420.025 75.824 420.025 77.192V89H416.317V77.48C416.317 76.4 416.017 75.572 415.417 74.996C414.841 74.396 414.013 74.096 412.933 74.096C411.781 74.096 410.857 74.468 410.161 75.212C409.465 75.956 409.117 77.024 409.117 78.416V89H405.409V77.48C405.409 76.4 405.109 75.572 404.509 74.996C403.933 74.396 403.105 74.096 402.025 74.096C400.873 74.096 399.949 74.468 399.253 75.212C398.557 75.956 398.209 77.024 398.209 78.416V89H394.501ZM433.684 89.504C431.884 89.504 430.312 89.132 428.968 88.388C427.624 87.62 426.568 86.552 425.8 85.184C425.056 83.792 424.684 82.184 424.684 80.36V79.928C424.684 78.08 425.056 76.472 425.8 75.104C426.544 73.712 427.576 72.644 428.896 71.9C430.24 71.132 431.788 70.748 433.54 70.748C435.244 70.748 436.732 71.132 438.004 71.9C439.3 72.644 440.308 73.688 441.028 75.032C441.748 76.376 442.108 77.948 442.108 79.748V81.152H428.464C428.512 82.712 429.028 83.96 430.012 84.896C431.02 85.808 432.268 86.264 433.756 86.264C435.148 86.264 436.192 85.952 436.888 85.328C437.608 84.704 438.16 83.984 438.544 83.168L441.604 84.752C441.268 85.424 440.776 86.132 440.128 86.876C439.504 87.62 438.676 88.244 437.644 88.748C436.612 89.252 435.292 89.504 433.684 89.504ZM428.5 78.308H438.328C438.232 76.964 437.752 75.92 436.888 75.176C436.024 74.408 434.896 74.024 433.504 74.024C432.112 74.024 430.972 74.408 430.084 75.176C429.22 75.92 428.692 76.964 428.5 78.308ZM446.751 89V71.252H450.387V73.916H450.963C451.299 73.196 451.899 72.524 452.763 71.9C453.627 71.276 454.911 70.964 456.615 70.964C457.959 70.964 459.147 71.264 460.179 71.864C461.235 72.464 462.063 73.316 462.663 74.42C463.263 75.5 463.563 76.808 463.563 78.344V89H459.855V78.632C459.855 77.096 459.471 75.968 458.703 75.248C457.935 74.504 456.879 74.132 455.535 74.132C453.999 74.132 452.763 74.636 451.827 75.644C450.915 76.652 450.459 78.116 450.459 80.036V89H446.751ZM475.248 89C474.168 89 473.304 88.676 472.656 88.028C472.032 87.38 471.72 86.516 471.72 85.436V74.384H466.824V71.252H471.72V65.384H475.428V71.252H480.72V74.384H475.428V84.788C475.428 85.508 475.764 85.868 476.436 85.868H480.144V89H475.248ZM504.872 89.504C503.144 89.504 501.812 89.192 500.876 88.568C499.964 87.944 499.28 87.248 498.824 86.48H498.248V89H494.612V63.8H498.32V73.664H498.896C499.184 73.184 499.568 72.728 500.048 72.296C500.528 71.84 501.164 71.468 501.956 71.18C502.748 70.892 503.72 70.748 504.872 70.748C506.36 70.748 507.728 71.108 508.976 71.828C510.224 72.548 511.22 73.592 511.964 74.96C512.708 76.328 513.08 77.96 513.08 79.856V80.396C513.08 82.316 512.696 83.96 511.928 85.328C511.184 86.672 510.188 87.704 508.94 88.424C507.716 89.144 506.36 89.504 504.872 89.504ZM503.792 86.264C505.4 86.264 506.72 85.748 507.752 84.716C508.808 83.684 509.336 82.208 509.336 80.288V79.964C509.336 78.068 508.82 76.604 507.788 75.572C506.756 74.54 505.424 74.024 503.792 74.024C502.208 74.024 500.888 74.54 499.832 75.572C498.8 76.604 498.284 78.068 498.284 79.964V80.288C498.284 82.208 498.8 83.684 499.832 84.716C500.888 85.748 502.208 86.264 503.792 86.264ZM519.906 96.2V92.96H529.806C530.478 92.96 530.814 92.6 530.814 91.88V86.408H530.238C530.022 86.888 529.686 87.356 529.23 87.812C528.798 88.244 528.21 88.604 527.466 88.892C526.722 89.18 525.786 89.324 524.658 89.324C523.314 89.324 522.114 89.024 521.058 88.424C520.002 87.824 519.174 86.972 518.574 85.868C517.974 84.764 517.674 83.456 517.674 81.944V71.252H521.382V81.656C521.382 83.192 521.766 84.332 522.534 85.076C523.302 85.796 524.37 86.156 525.738 86.156C527.25 86.156 528.462 85.652 529.374 84.644C530.31 83.636 530.778 82.172 530.778 80.252V71.252H534.486V92.636C534.486 93.716 534.162 94.58 533.514 95.228C532.89 95.876 532.026 96.2 530.922 96.2H519.906ZM557.639 89.504C555.743 89.504 554.099 89.156 552.707 88.46C551.315 87.764 550.235 86.78 549.467 85.508C548.723 84.236 548.351 82.76 548.351 81.08V80.684H552.203V81.044C552.203 82.58 552.671 83.816 553.607 84.752C554.567 85.664 555.899 86.12 557.603 86.12C559.355 86.12 560.711 85.64 561.671 84.68C562.631 83.72 563.111 82.424 563.111 80.792V80.468C563.111 78.908 562.631 77.66 561.671 76.724C560.735 75.788 559.535 75.32 558.071 75.32C557.255 75.32 556.571 75.452 556.019 75.716C555.491 75.956 555.059 76.256 554.723 76.616C554.411 76.976 554.147 77.324 553.931 77.66H549.143V63.8H566.027V67.22H552.923V74.636H553.499C553.739 74.228 554.075 73.844 554.507 73.484C554.963 73.1 555.551 72.788 556.271 72.548C556.991 72.308 557.855 72.188 558.863 72.188C560.351 72.188 561.695 72.512 562.895 73.16C564.119 73.784 565.091 74.72 565.811 75.968C566.531 77.192 566.891 78.68 566.891 80.432V80.828C566.891 82.58 566.519 84.104 565.775 85.4C565.031 86.696 563.963 87.704 562.571 88.424C561.203 89.144 559.559 89.504 557.639 89.504ZM569.945 89V86.156C569.945 84.404 570.245 82.964 570.845 81.836C571.445 80.708 572.297 79.796 573.401 79.1C574.529 78.38 575.885 77.78 577.469 77.3L579.665 76.616C580.649 76.304 581.489 75.92 582.185 75.464C582.905 75.008 583.457 74.444 583.841 73.772C584.225 73.076 584.417 72.272 584.417 71.36V71.216C584.417 69.8 583.937 68.696 582.977 67.904C582.017 67.088 580.757 66.68 579.197 66.68C577.589 66.68 576.281 67.112 575.273 67.976C574.289 68.84 573.797 70.112 573.797 71.792V72.368H570.053V71.828C570.053 70.004 570.449 68.468 571.241 67.22C572.033 65.948 573.125 64.976 574.517 64.304C575.909 63.632 577.469 63.296 579.197 63.296C580.925 63.296 582.461 63.62 583.805 64.268C585.173 64.916 586.241 65.828 587.009 67.004C587.801 68.18 588.197 69.56 588.197 71.144V71.468C588.197 73.1 587.873 74.456 587.225 75.536C586.577 76.616 585.677 77.504 584.525 78.2C583.397 78.896 582.089 79.484 580.601 79.964L578.477 80.612C577.349 80.948 576.437 81.32 575.741 81.728C575.069 82.112 574.565 82.58 574.229 83.132C573.917 83.684 573.761 84.392 573.761 85.256V85.616H587.981V89H569.945ZM594.988 89.468L592.684 87.596L612.376 63.332L614.68 65.204L594.988 89.468ZM610.576 89.396C608.8 89.396 607.396 88.904 606.364 87.92C605.332 86.912 604.816 85.556 604.816 83.852V83.636C604.816 81.908 605.332 80.552 606.364 79.568C607.396 78.56 608.8 78.056 610.576 78.056C612.328 78.056 613.732 78.56 614.788 79.568C615.844 80.552 616.372 81.908 616.372 83.636V83.852C616.372 85.556 615.844 86.912 614.788 87.92C613.756 88.904 612.352 89.396 610.576 89.396ZM610.576 86.876C611.44 86.876 612.112 86.612 612.592 86.084C613.096 85.556 613.348 84.86 613.348 83.996V83.492C613.348 82.604 613.096 81.896 612.592 81.368C612.112 80.84 611.44 80.576 610.576 80.576C609.736 80.576 609.064 80.84 608.56 81.368C608.08 81.896 607.84 82.604 607.84 83.492V83.996C607.84 84.86 608.08 85.556 608.56 86.084C609.064 86.612 609.736 86.876 610.576 86.876ZM596.788 74.744C595.012 74.744 593.596 74.252 592.54 73.268C591.508 72.26 590.992 70.904 590.992 69.2V68.948C590.992 67.22 591.508 65.864 592.54 64.88C593.596 63.896 595.012 63.404 596.788 63.404C598.54 63.404 599.932 63.896 600.964 64.88C602.02 65.864 602.548 67.22 602.548 68.948V69.2C602.548 70.904 602.032 72.26 601 73.268C599.968 74.252 598.564 74.744 596.788 74.744ZM596.788 72.224C597.628 72.224 598.288 71.96 598.768 71.432C599.272 70.88 599.524 70.172 599.524 69.308V68.804C599.524 67.94 599.272 67.244 598.768 66.716C598.288 66.188 597.628 65.924 596.788 65.924C595.924 65.924 595.24 66.188 594.736 66.716C594.256 67.244 594.016 67.94 594.016 68.804V69.308C594.016 70.172 594.256 70.88 594.736 71.432C595.24 71.96 595.924 72.224 596.788 72.224Z" fill="white"/>
</svg>
