<svg width="612" height="153" viewBox="0 0 612 153" fill="none" xmlns="http://www.w3.org/2000/svg">
<mask id="path-1-outside-1_705_61202" maskUnits="userSpaceOnUse" x="0.554688" y="0" width="611" height="153" fill="black">
<rect fill="white" x="0.554688" width="611" height="153"/>
<path fill-rule="evenodd" clip-rule="evenodd" d="M56.2757 22.2589C65.3461 8.58037 85.4299 8.58035 94.5004 22.2589L104.219 36.9148L113.937 22.2589C123.008 8.58037 143.092 8.58035 152.162 22.2589L161.881 36.9147L171.599 22.2589C180.67 8.58037 200.753 8.58035 209.824 22.2589L219.542 36.9147L229.261 22.2589C238.331 8.58037 258.415 8.58035 267.486 22.2589L277.204 36.9148L286.923 22.2589C295.993 8.58037 316.077 8.58035 325.147 22.2589L334.866 36.9148L344.584 22.2589C353.655 8.58037 373.739 8.58035 382.809 22.2589L392.528 36.9148L402.246 22.2589C411.317 8.58037 431.4 8.58035 440.471 22.2589L450.189 36.9148L459.908 22.2589C468.978 8.58037 489.062 8.58035 498.133 22.2589L507.851 36.9148L517.57 22.2589C526.64 8.58037 546.724 8.58035 555.794 22.2589L566.736 38.76C568.242 41.0298 570.139 43.0134 572.34 44.6177L590.092 57.5584C602.656 66.7178 602.656 85.4617 590.092 94.6212L572.34 107.562C570.139 109.166 568.242 111.15 566.736 113.42L555.794 129.921C546.724 143.599 526.64 143.599 517.57 129.921L507.851 115.265L498.133 129.921C489.062 143.599 468.978 143.599 459.908 129.921L450.189 115.265L440.471 129.921C431.4 143.599 411.317 143.599 402.246 129.921L392.528 115.265L382.809 129.921C373.739 143.599 353.655 143.599 344.584 129.921L334.866 115.265L325.147 129.921C316.077 143.599 295.993 143.599 286.923 129.921L277.204 115.265L267.486 129.921C258.415 143.599 238.331 143.599 229.261 129.921L219.542 115.265L209.824 129.921C200.753 143.599 180.67 143.599 171.599 129.921L161.881 115.265L152.162 129.921C143.092 143.599 123.008 143.599 113.937 129.921L104.219 115.265L94.5004 129.921C85.43 143.599 65.3461 143.599 56.2757 129.921L45.3336 113.42C43.8284 111.15 41.931 109.166 39.7301 107.562L21.9784 94.6212C9.41347 85.4617 9.41346 66.7179 21.9783 57.5584L39.7301 44.6177C41.931 43.0134 43.8284 41.0298 45.3336 38.76L56.2757 22.2589Z"/>
</mask>
<path fill-rule="evenodd" clip-rule="evenodd" d="M56.2757 22.2589C65.3461 8.58037 85.4299 8.58035 94.5004 22.2589L104.219 36.9148L113.937 22.2589C123.008 8.58037 143.092 8.58035 152.162 22.2589L161.881 36.9147L171.599 22.2589C180.67 8.58037 200.753 8.58035 209.824 22.2589L219.542 36.9147L229.261 22.2589C238.331 8.58037 258.415 8.58035 267.486 22.2589L277.204 36.9148L286.923 22.2589C295.993 8.58037 316.077 8.58035 325.147 22.2589L334.866 36.9148L344.584 22.2589C353.655 8.58037 373.739 8.58035 382.809 22.2589L392.528 36.9148L402.246 22.2589C411.317 8.58037 431.4 8.58035 440.471 22.2589L450.189 36.9148L459.908 22.2589C468.978 8.58037 489.062 8.58035 498.133 22.2589L507.851 36.9148L517.57 22.2589C526.64 8.58037 546.724 8.58035 555.794 22.2589L566.736 38.76C568.242 41.0298 570.139 43.0134 572.34 44.6177L590.092 57.5584C602.656 66.7178 602.656 85.4617 590.092 94.6212L572.34 107.562C570.139 109.166 568.242 111.15 566.736 113.42L555.794 129.921C546.724 143.599 526.64 143.599 517.57 129.921L507.851 115.265L498.133 129.921C489.062 143.599 468.978 143.599 459.908 129.921L450.189 115.265L440.471 129.921C431.4 143.599 411.317 143.599 402.246 129.921L392.528 115.265L382.809 129.921C373.739 143.599 353.655 143.599 344.584 129.921L334.866 115.265L325.147 129.921C316.077 143.599 295.993 143.599 286.923 129.921L277.204 115.265L267.486 129.921C258.415 143.599 238.331 143.599 229.261 129.921L219.542 115.265L209.824 129.921C200.753 143.599 180.67 143.599 171.599 129.921L161.881 115.265L152.162 129.921C143.092 143.599 123.008 143.599 113.937 129.921L104.219 115.265L94.5004 129.921C85.43 143.599 65.3461 143.599 56.2757 129.921L45.3336 113.42C43.8284 111.15 41.931 109.166 39.7301 107.562L21.9784 94.6212C9.41347 85.4617 9.41346 66.7179 21.9783 57.5584L39.7301 44.6177C41.931 43.0134 43.8284 41.0298 45.3336 38.76L56.2757 22.2589Z" fill="#FC6972" fill-opacity="0.8"/>
<path d="M94.5004 22.2589L104.501 15.6271L104.501 15.6271L94.5004 22.2589ZM56.2757 22.2589L46.2747 15.6271L46.2747 15.6272L56.2757 22.2589ZM104.219 36.9148L94.2179 43.5465L104.219 58.6284L114.22 43.5465L104.219 36.9148ZM113.937 22.2589L103.936 15.6272L103.936 15.6272L113.937 22.2589ZM152.162 22.2589L142.161 28.8907L142.161 28.8907L152.162 22.2589ZM161.881 36.9147L151.88 43.5465L161.881 58.6283L171.882 43.5465L161.881 36.9147ZM171.599 22.2589L161.598 15.6271L161.598 15.6272L171.599 22.2589ZM209.824 22.2589L219.825 15.6271L219.825 15.6271L209.824 22.2589ZM219.542 36.9147L209.541 43.5465L219.542 58.6283L229.543 43.5465L219.542 36.9147ZM229.261 22.2589L219.26 15.6271L219.26 15.6271L229.261 22.2589ZM267.486 22.2589L257.485 28.8907L257.485 28.8907L267.486 22.2589ZM277.204 36.9148L267.203 43.5466L277.204 58.6284L287.205 43.5465L277.204 36.9148ZM286.923 22.2589L276.922 15.6271L276.922 15.6272L286.923 22.2589ZM325.147 22.2589L315.146 28.8907L315.146 28.8907L325.147 22.2589ZM334.866 36.9148L324.865 43.5466L334.866 58.6283L344.867 43.5466L334.866 36.9148ZM344.584 22.2589L354.585 28.8907L354.585 28.8907L344.584 22.2589ZM382.809 22.2589L372.808 28.8907L372.808 28.8907L382.809 22.2589ZM392.528 36.9148L382.527 43.5466L392.528 58.6283L402.529 43.5466L392.528 36.9148ZM402.246 22.2589L412.247 28.8907L412.247 28.8907L402.246 22.2589ZM440.471 22.2589L430.47 28.8907L430.47 28.8907L440.471 22.2589ZM450.189 36.9148L440.188 43.5466L450.189 58.6283L460.19 43.5466L450.189 36.9148ZM459.908 22.2589L469.909 28.8907L469.909 28.8907L459.908 22.2589ZM498.133 22.2589L488.132 28.8907L488.132 28.8907L498.133 22.2589ZM507.851 36.9148L497.85 43.5466L507.851 58.6283L517.852 43.5466L507.851 36.9148ZM517.57 22.2589L527.571 28.8907L527.571 28.8907L517.57 22.2589ZM555.794 22.2589L565.795 15.6271L565.795 15.6271L555.794 22.2589ZM566.736 38.76L556.735 45.3918L556.735 45.3919L566.736 38.76ZM572.34 44.6177L565.271 54.3147L565.271 54.3147L572.34 44.6177ZM590.092 57.5584L597.16 47.8614L597.16 47.8614L590.092 57.5584ZM590.092 94.6212L597.16 104.318L597.16 104.318L590.092 94.6212ZM572.34 107.562L565.271 97.8648L565.271 97.8649L572.34 107.562ZM566.736 113.42L556.735 106.788L556.735 106.788L566.736 113.42ZM555.794 129.921L545.793 123.289L545.793 123.289L555.794 129.921ZM517.57 129.921L527.571 123.289L527.571 123.289L517.57 129.921ZM507.851 115.265L517.852 108.633L507.851 93.5512L497.85 108.633L507.851 115.265ZM498.133 129.921L508.134 136.552L508.134 136.552L498.133 129.921ZM459.908 129.921L469.909 123.289L469.909 123.289L459.908 129.921ZM450.189 115.265L460.19 108.633L450.189 93.5512L440.188 108.633L450.189 115.265ZM440.471 129.921L450.472 136.552L450.472 136.552L440.471 129.921ZM402.246 129.921L412.247 123.289L412.247 123.289L402.246 129.921ZM392.528 115.265L402.529 108.633L392.528 93.5512L382.527 108.633L392.528 115.265ZM382.809 129.921L392.81 136.552L392.81 136.552L382.809 129.921ZM344.584 129.921L354.585 123.289L354.585 123.289L344.584 129.921ZM334.866 115.265L344.867 108.633L334.866 93.5512L324.865 108.633L334.866 115.265ZM325.147 129.921L335.148 136.552L335.148 136.552L325.147 129.921ZM286.923 129.921L296.924 123.289L296.924 123.289L286.923 129.921ZM277.204 115.265L287.205 108.633L277.204 93.5512L267.203 108.633L277.204 115.265ZM267.486 129.921L277.487 136.552L277.487 136.552L267.486 129.921ZM229.261 129.921L239.262 123.289L239.262 123.289L229.261 129.921ZM219.542 115.265L229.543 108.633L219.542 93.5512L209.541 108.633L219.542 115.265ZM209.824 129.921L219.825 136.552L219.825 136.552L209.824 129.921ZM171.599 129.921L161.598 136.552L161.598 136.552L171.599 129.921ZM161.881 115.265L171.882 108.633L161.881 93.5512L151.88 108.633L161.881 115.265ZM152.162 129.921L142.161 123.289L142.161 123.289L152.162 129.921ZM113.937 129.921L123.938 123.289L123.938 123.289L113.937 129.921ZM104.219 115.265L114.22 108.633L104.219 93.5512L94.2179 108.633L104.219 115.265ZM94.5004 129.921L84.4995 123.289L84.4994 123.289L94.5004 129.921ZM56.2757 129.921L66.2767 123.289L66.2766 123.289L56.2757 129.921ZM45.3336 113.42L55.3345 106.788L55.3345 106.788L45.3336 113.42ZM39.7301 107.562L46.799 97.8648L46.799 97.8648L39.7301 107.562ZM21.9784 94.6212L14.9095 104.318L14.9095 104.318L21.9784 94.6212ZM21.9783 57.5584L29.0472 67.2553L29.0472 67.2553L21.9783 57.5584ZM39.7301 44.6177L32.6613 34.9208L32.6613 34.9208L39.7301 44.6177ZM45.3336 38.76L55.3345 45.3918L55.3345 45.3918L45.3336 38.76ZM104.501 15.6271C90.6846 -5.20907 60.0915 -5.20902 46.2747 15.6271L66.2766 28.8907C70.6008 22.3698 80.1753 22.3698 84.4994 28.8907L104.501 15.6271ZM114.22 30.283L104.501 15.6271L84.4994 28.8907L94.2179 43.5465L114.22 30.283ZM103.936 15.6272L94.2179 30.283L114.22 43.5465L123.938 28.8907L103.936 15.6272ZM162.163 15.6271C148.346 -5.20907 117.753 -5.20902 103.936 15.6272L123.938 28.8907C128.263 22.3698 137.837 22.3698 142.161 28.8907L162.163 15.6271ZM171.882 30.283L162.163 15.6271L142.161 28.8907L151.88 43.5465L171.882 30.283ZM161.598 15.6272L151.88 30.283L171.882 43.5465L181.6 28.8907L161.598 15.6272ZM219.825 15.6271C206.008 -5.20907 175.415 -5.20902 161.598 15.6271L181.6 28.8907C185.924 22.3698 195.499 22.3698 199.823 28.8907L219.825 15.6271ZM229.543 30.2829L219.825 15.6271L199.823 28.8907L209.541 43.5465L229.543 30.2829ZM219.26 15.6271L209.541 30.2829L229.543 43.5465L239.262 28.8907L219.26 15.6271ZM277.487 15.6271C263.67 -5.20907 233.077 -5.20902 219.26 15.6271L239.262 28.8907C243.586 22.3698 253.16 22.3698 257.485 28.8907L277.487 15.6271ZM287.205 30.283L277.487 15.6271L257.485 28.8907L267.203 43.5466L287.205 30.283ZM276.922 15.6272L267.203 30.283L287.205 43.5465L296.924 28.8907L276.922 15.6272ZM335.148 15.6271C321.332 -5.20909 290.738 -5.20901 276.922 15.6271L296.924 28.8907C301.248 22.3697 310.822 22.3698 315.146 28.8907L335.148 15.6271ZM344.867 30.283L335.148 15.6271L315.146 28.8907L324.865 43.5466L344.867 30.283ZM334.583 15.6271L324.865 30.283L344.867 43.5466L354.585 28.8907L334.583 15.6271ZM392.81 15.6271C378.993 -5.20909 348.4 -5.20901 334.583 15.6271L354.585 28.8907C358.909 22.3697 368.484 22.3698 372.808 28.8907L392.81 15.6271ZM402.529 30.283L392.81 15.6271L372.808 28.8907L382.527 43.5466L402.529 30.283ZM392.245 15.6271L382.527 30.283L402.529 43.5466L412.247 28.8907L392.245 15.6271ZM450.472 15.6271C436.655 -5.20909 406.062 -5.20901 392.245 15.6271L412.247 28.8907C416.571 22.3697 426.146 22.3698 430.47 28.8907L450.472 15.6271ZM460.19 30.283L450.472 15.6271L430.47 28.8907L440.188 43.5466L460.19 30.283ZM449.907 15.6271L440.188 30.283L460.19 43.5466L469.909 28.8907L449.907 15.6271ZM508.134 15.6271C494.317 -5.20909 463.724 -5.20901 449.907 15.6271L469.909 28.8907C474.233 22.3697 483.807 22.3698 488.132 28.8907L508.134 15.6271ZM517.852 30.283L508.134 15.6271L488.132 28.8907L497.85 43.5466L517.852 30.283ZM517.852 43.5466L527.571 28.8907L507.569 15.6271L497.85 30.283L517.852 43.5466ZM527.571 28.8907C531.895 22.3698 541.469 22.3697 545.793 28.8907L565.795 15.6271C551.978 -5.20905 521.385 -5.20903 507.569 15.6271L527.571 28.8907ZM545.793 28.8907L556.735 45.3918L576.737 32.1282L565.795 15.6271L545.793 28.8907ZM556.735 45.3919C559.028 48.8494 561.919 51.8709 565.271 54.3147L579.409 34.9208C578.36 34.1559 577.455 33.2103 576.737 32.1281L556.735 45.3919ZM565.271 54.3147L583.023 67.2553L597.16 47.8614L579.409 34.9208L565.271 54.3147ZM583.023 67.2553C589.013 71.6219 589.013 80.5576 583.023 84.9242L597.16 104.318C616.3 90.3657 616.3 61.8138 597.16 47.8614L583.023 67.2553ZM583.023 84.9242L565.271 97.8648L579.409 117.259L597.16 104.318L583.023 84.9242ZM565.271 97.8649C561.919 100.309 559.028 103.33 556.735 106.788L576.737 120.051C577.455 118.969 578.36 118.024 579.409 117.259L565.271 97.8649ZM556.735 106.788L545.793 123.289L565.795 136.552L576.737 120.051L556.735 106.788ZM545.793 123.289C541.469 129.81 531.895 129.81 527.571 123.289L507.569 136.552C521.385 157.389 551.979 157.389 565.795 136.552L545.793 123.289ZM527.571 123.289L517.852 108.633L497.85 121.897L507.569 136.552L527.571 123.289ZM508.134 136.552L517.852 121.897L497.85 108.633L488.132 123.289L508.134 136.552ZM449.907 136.552C463.724 157.389 494.317 157.389 508.134 136.552L488.132 123.289C483.807 129.81 474.233 129.81 469.909 123.289L449.907 136.552ZM440.188 121.897L449.907 136.552L469.909 123.289L460.19 108.633L440.188 121.897ZM450.472 136.552L460.19 121.897L440.188 108.633L430.47 123.289L450.472 136.552ZM392.245 136.552C406.062 157.389 436.655 157.389 450.472 136.552L430.47 123.289C426.146 129.81 416.571 129.81 412.247 123.289L392.245 136.552ZM382.527 121.897L392.245 136.552L412.247 123.289L402.529 108.633L382.527 121.897ZM392.81 136.552L402.529 121.897L382.527 108.633L372.808 123.289L392.81 136.552ZM334.583 136.552C348.4 157.389 378.993 157.389 392.81 136.552L372.808 123.289C368.484 129.81 358.909 129.81 354.585 123.289L334.583 136.552ZM324.865 121.897L334.583 136.552L354.585 123.289L344.867 108.633L324.865 121.897ZM335.148 136.552L344.867 121.897L324.865 108.633L315.146 123.289L335.148 136.552ZM276.922 136.552C290.738 157.389 321.332 157.389 335.148 136.552L315.146 123.289C310.822 129.81 301.248 129.81 296.924 123.289L276.922 136.552ZM267.203 121.897L276.922 136.552L296.924 123.289L287.205 108.633L267.203 121.897ZM277.487 136.552L287.205 121.897L267.203 108.633L257.485 123.289L277.487 136.552ZM219.26 136.552C233.077 157.389 263.67 157.389 277.487 136.552L257.485 123.289C253.16 129.81 243.586 129.81 239.262 123.289L219.26 136.552ZM209.541 121.897L219.26 136.552L239.262 123.289L229.543 108.633L209.541 121.897ZM219.825 136.552L229.543 121.897L209.541 108.633L199.823 123.289L219.825 136.552ZM161.598 136.552C175.415 157.389 206.008 157.389 219.825 136.552L199.823 123.289C195.499 129.81 185.924 129.81 181.6 123.289L161.598 136.552ZM151.88 121.897L161.598 136.552L181.6 123.289L171.882 108.633L151.88 121.897ZM162.163 136.552L171.882 121.897L151.88 108.633L142.161 123.289L162.163 136.552ZM103.936 136.552C117.753 157.389 148.346 157.389 162.163 136.552L142.161 123.289C137.837 129.81 128.263 129.81 123.938 123.289L103.936 136.552ZM94.2179 121.897L103.936 136.552L123.938 123.289L114.22 108.633L94.2179 121.897ZM104.501 136.552L114.22 121.897L94.2179 108.633L84.4995 123.289L104.501 136.552ZM46.2747 136.552C60.0915 157.389 90.6846 157.389 104.501 136.552L84.4994 123.289C80.1753 129.81 70.6008 129.81 66.2767 123.289L46.2747 136.552ZM35.3326 120.051L46.2747 136.552L66.2766 123.289L55.3345 106.788L35.3326 120.051ZM32.6613 117.259C33.7105 118.024 34.615 118.969 35.3326 120.051L55.3345 106.788C53.0418 103.33 50.1515 100.309 46.799 97.8648L32.6613 117.259ZM14.9095 104.318L32.6613 117.259L46.799 97.8648L29.0472 84.9242L14.9095 104.318ZM14.9095 47.8614C-4.23027 61.8138 -4.23023 90.3658 14.9095 104.318L29.0472 84.9242C23.0572 80.5576 23.0572 71.6219 29.0472 67.2553L14.9095 47.8614ZM32.6613 34.9208L14.9095 47.8614L29.0472 67.2553L46.799 54.3147L32.6613 34.9208ZM35.3326 32.1282C34.615 33.2103 33.7105 34.1559 32.6613 34.9208L46.799 54.3147C50.1514 51.8709 53.0418 48.8494 55.3345 45.3918L35.3326 32.1282ZM46.2747 15.6272L35.3326 32.1282L55.3345 45.3918L66.2766 28.8907L46.2747 15.6272Z" fill="white" mask="url(#path-1-outside-1_705_61202)"/>
<path d="M94.3197 85.5782V60.3782H104.904C106.464 60.3782 107.832 60.6542 109.008 61.2062C110.208 61.7342 111.132 62.5022 111.78 63.5102C112.452 64.5182 112.788 65.7182 112.788 67.1102V67.5062C112.788 69.0902 112.404 70.3622 111.636 71.3222C110.892 72.2582 109.98 72.9182 108.9 73.3022V73.8782C109.812 73.9262 110.544 74.2382 111.096 74.8142C111.648 75.3662 111.924 76.1702 111.924 77.2262V85.5782H108V77.7662C108 77.1182 107.832 76.6022 107.496 76.2182C107.16 75.8342 106.62 75.6422 105.876 75.6422H98.2077V85.5782H94.3197ZM98.2077 72.1142H104.472C105.864 72.1142 106.944 71.7662 107.712 71.0702C108.48 70.3502 108.864 69.3782 108.864 68.1542V67.8662C108.864 66.6422 108.48 65.6822 107.712 64.9862C106.968 64.2662 105.888 63.9062 104.472 63.9062H98.2077V72.1142ZM125.49 86.0822C123.69 86.0822 122.118 85.7102 120.774 84.9662C119.43 84.1982 118.374 83.1302 117.606 81.7622C116.862 80.3702 116.49 78.7622 116.49 76.9382V76.5062C116.49 74.6582 116.862 73.0502 117.606 71.6822C118.35 70.2902 119.382 69.2222 120.702 68.4782C122.046 67.7102 123.594 67.3262 125.346 67.3262C127.05 67.3262 128.538 67.7102 129.81 68.4782C131.106 69.2222 132.114 70.2662 132.834 71.6102C133.554 72.9542 133.914 74.5262 133.914 76.3262V77.7302H120.27C120.318 79.2902 120.834 80.5382 121.818 81.4742C122.826 82.3862 124.074 82.8422 125.562 82.8422C126.954 82.8422 127.998 82.5302 128.694 81.9062C129.414 81.2822 129.966 80.5622 130.35 79.7462L133.41 81.3302C133.074 82.0022 132.582 82.7102 131.934 83.4542C131.31 84.1982 130.482 84.8222 129.45 85.3262C128.418 85.8302 127.098 86.0822 125.49 86.0822ZM120.306 74.8862H130.134C130.038 73.5422 129.558 72.4982 128.694 71.7542C127.83 70.9862 126.702 70.6022 125.31 70.6022C123.918 70.6022 122.778 70.9862 121.89 71.7542C121.026 72.4982 120.498 73.5422 120.306 74.8862ZM142.028 85.5782L136.052 67.8302H139.976L144.692 82.8422H145.268L149.984 67.8302H153.908L147.932 85.5782H142.028ZM162.702 86.0822C161.43 86.0822 160.29 85.8662 159.282 85.4342C158.298 85.0022 157.506 84.3662 156.906 83.5262C156.33 82.6862 156.042 81.6662 156.042 80.4662C156.042 79.2422 156.33 78.2342 156.906 77.4422C157.506 76.6262 158.31 76.0142 159.318 75.6062C160.35 75.1982 161.514 74.9942 162.81 74.9942H168.21V73.8422C168.21 72.8102 167.898 71.9822 167.274 71.3582C166.65 70.7342 165.69 70.4222 164.394 70.4222C163.122 70.4222 162.15 70.7222 161.478 71.3222C160.806 71.9222 160.362 72.7022 160.146 73.6622L156.69 72.5462C156.978 71.5862 157.434 70.7222 158.058 69.9542C158.706 69.1622 159.558 68.5262 160.614 68.0462C161.67 67.5662 162.942 67.3262 164.43 67.3262C166.734 67.3262 168.546 67.9142 169.866 69.0902C171.186 70.2662 171.846 71.9342 171.846 74.0942V81.4022C171.846 82.1222 172.182 82.4822 172.854 82.4822H174.366V85.5782H171.594C170.754 85.5782 170.07 85.3622 169.542 84.9302C169.014 84.4982 168.75 83.9102 168.75 83.1662V83.0582H168.21C168.018 83.4182 167.73 83.8382 167.346 84.3182C166.962 84.7982 166.398 85.2182 165.654 85.5782C164.91 85.9142 163.926 86.0822 162.702 86.0822ZM163.242 83.0222C164.73 83.0222 165.93 82.6022 166.842 81.7622C167.754 80.8982 168.21 79.7222 168.21 78.2342V77.8742H163.026C162.042 77.8742 161.25 78.0902 160.65 78.5222C160.05 78.9302 159.75 79.5422 159.75 80.3582C159.75 81.1742 160.062 81.8222 160.686 82.3022C161.31 82.7822 162.162 83.0222 163.242 83.0222ZM178.152 85.5782V67.8302H181.788V69.9182H182.364C182.7 69.2942 183.24 68.7422 183.984 68.2622C184.728 67.7822 185.736 67.5422 187.008 67.5422C188.328 67.5422 189.384 67.8182 190.176 68.3702C190.992 68.8982 191.604 69.5822 192.012 70.4222H192.588C192.996 69.6062 193.584 68.9222 194.352 68.3702C195.144 67.8182 196.26 67.5422 197.7 67.5422C198.852 67.5422 199.872 67.7822 200.76 68.2622C201.648 68.7182 202.356 69.4142 202.884 70.3502C203.412 71.2622 203.676 72.4022 203.676 73.7702V85.5782H199.968V74.0582C199.968 72.9782 199.668 72.1502 199.068 71.5742C198.492 70.9742 197.664 70.6742 196.584 70.6742C195.432 70.6742 194.508 71.0462 193.812 71.7902C193.116 72.5342 192.768 73.6022 192.768 74.9942V85.5782H189.06V74.0582C189.06 72.9782 188.76 72.1502 188.16 71.5742C187.584 70.9742 186.756 70.6742 185.676 70.6742C184.524 70.6742 183.6 71.0462 182.904 71.7902C182.208 72.5342 181.86 73.6022 181.86 74.9942V85.5782H178.152ZM209.199 92.7782V67.8302H212.835V70.3862H213.411C213.867 69.5942 214.551 68.8862 215.463 68.2622C216.399 67.6382 217.731 67.3262 219.459 67.3262C220.947 67.3262 222.303 67.6862 223.527 68.4062C224.775 69.1262 225.771 70.1702 226.515 71.5382C227.283 72.8822 227.667 74.5142 227.667 76.4342V76.9742C227.667 78.8942 227.295 80.5382 226.551 81.9062C225.807 83.2502 224.811 84.2822 223.563 85.0022C222.315 85.7222 220.947 86.0822 219.459 86.0822C218.307 86.0822 217.335 85.9382 216.543 85.6502C215.751 85.3622 215.115 85.0022 214.635 84.5702C214.155 84.1142 213.771 83.6462 213.483 83.1662H212.907V92.7782H209.199ZM218.379 82.8422C220.011 82.8422 221.343 82.3262 222.375 81.2942C223.407 80.2622 223.923 78.7862 223.923 76.8662V76.5422C223.923 74.6462 223.395 73.1822 222.339 72.1502C221.307 71.1182 219.987 70.6022 218.379 70.6022C216.795 70.6022 215.475 71.1182 214.419 72.1502C213.387 73.1822 212.871 74.6462 212.871 76.5422V76.8662C212.871 78.7862 213.387 80.2622 214.419 81.2942C215.475 82.3262 216.795 82.8422 218.379 82.8422ZM232.441 85.5782V67.8302H236.149V85.5782H232.441ZM234.313 65.4182C233.593 65.4182 232.981 65.1902 232.477 64.7342C231.997 64.2542 231.757 63.6422 231.757 62.8982C231.757 62.1542 231.997 61.5542 232.477 61.0982C232.981 60.6182 233.593 60.3782 234.313 60.3782C235.057 60.3782 235.669 60.6182 236.149 61.0982C236.629 61.5542 236.869 62.1542 236.869 62.8982C236.869 63.6422 236.629 64.2542 236.149 64.7342C235.669 65.1902 235.057 65.4182 234.313 65.4182ZM241.832 85.5782V67.8302H245.468V70.4942H246.044C246.38 69.7742 246.98 69.1022 247.844 68.4782C248.708 67.8542 249.992 67.5422 251.696 67.5422C253.04 67.5422 254.228 67.8422 255.26 68.4422C256.316 69.0422 257.144 69.8942 257.744 70.9982C258.344 72.0782 258.644 73.3862 258.644 74.9222V85.5782H254.936V75.2102C254.936 73.6742 254.552 72.5462 253.784 71.8262C253.016 71.0822 251.96 70.7102 250.616 70.7102C249.08 70.7102 247.844 71.2142 246.908 72.2222C245.996 73.2302 245.54 74.6942 245.54 76.6142V85.5782H241.832ZM263.297 76.7942V76.2542C263.297 74.3822 263.669 72.7862 264.413 71.4662C265.181 70.1462 266.189 69.1262 267.437 68.4062C268.685 67.6862 270.053 67.3262 271.541 67.3262C273.269 67.3262 274.589 67.6502 275.501 68.2982C276.437 68.9462 277.121 69.6422 277.553 70.3862H278.129V67.8302H281.729V89.2142C281.729 90.2942 281.405 91.1582 280.757 91.8062C280.133 92.4542 279.269 92.7782 278.165 92.7782H266.213V89.5382H277.013C277.709 89.5382 278.057 89.1782 278.057 88.4582V82.8062H277.481C277.217 83.2382 276.845 83.6822 276.365 84.1382C275.885 84.5942 275.249 84.9662 274.457 85.2542C273.689 85.5422 272.717 85.6862 271.541 85.6862C270.053 85.6862 268.673 85.3382 267.401 84.6422C266.153 83.9222 265.157 82.9022 264.413 81.5822C263.669 80.2382 263.297 78.6422 263.297 76.7942ZM272.549 82.4462C274.157 82.4462 275.477 81.9422 276.509 80.9342C277.565 79.9022 278.093 78.4862 278.093 76.6862V76.3622C278.093 74.5142 277.577 73.0982 276.545 72.1142C275.513 71.1062 274.181 70.6022 272.549 70.6022C270.965 70.6022 269.645 71.1062 268.589 72.1142C267.557 73.0982 267.041 74.5142 267.041 76.3622V76.6862C267.041 78.4862 267.557 79.9022 268.589 80.9342C269.645 81.9422 270.965 82.4462 272.549 82.4462ZM304.968 86.0822C303.264 86.0822 301.716 85.7222 300.324 85.0022C298.956 84.2822 297.864 83.2382 297.048 81.8702C296.256 80.5022 295.86 78.8582 295.86 76.9382V76.4702C295.86 74.5502 296.256 72.9182 297.048 71.5742C297.864 70.2062 298.956 69.1622 300.324 68.4422C301.716 67.6982 303.264 67.3262 304.968 67.3262C306.672 67.3262 308.124 67.6382 309.324 68.2622C310.524 68.8862 311.484 69.7142 312.204 70.7462C312.948 71.7782 313.428 72.9182 313.644 74.1662L310.044 74.9222C309.924 74.1302 309.672 73.4102 309.288 72.7622C308.904 72.1142 308.364 71.5982 307.668 71.2142C306.972 70.8302 306.096 70.6382 305.04 70.6382C304.008 70.6382 303.072 70.8782 302.232 71.3582C301.416 71.8142 300.768 72.4862 300.288 73.3742C299.808 74.2382 299.568 75.2942 299.568 76.5422V76.8662C299.568 78.1142 299.808 79.1822 300.288 80.0702C300.768 80.9582 301.416 81.6302 302.232 82.0862C303.072 82.5422 304.008 82.7702 305.04 82.7702C306.6 82.7702 307.788 82.3742 308.604 81.5822C309.42 80.7662 309.936 79.7342 310.152 78.4862L313.752 79.3142C313.464 80.5382 312.948 81.6662 312.204 82.6982C311.484 83.7302 310.524 84.5582 309.324 85.1822C308.124 85.7822 306.672 86.0822 304.968 86.0822ZM318.208 85.5782V67.8302H321.844V69.9182H322.42C322.708 69.1742 323.164 68.6342 323.788 68.2982C324.436 67.9382 325.228 67.7582 326.164 67.7582H328.288V71.1062H326.02C324.82 71.1062 323.836 71.4422 323.068 72.1142C322.3 72.7622 321.916 73.7702 321.916 75.1382V85.5782H318.208ZM332.31 85.5782V67.8302H336.018V85.5782H332.31ZM334.182 65.4182C333.462 65.4182 332.85 65.1902 332.346 64.7342C331.866 64.2542 331.626 63.6422 331.626 62.8982C331.626 62.1542 331.866 61.5542 332.346 61.0982C332.85 60.6182 333.462 60.3782 334.182 60.3782C334.926 60.3782 335.538 60.6182 336.018 61.0982C336.498 61.5542 336.738 62.1542 336.738 62.8982C336.738 63.6422 336.498 64.2542 336.018 64.7342C335.538 65.1902 334.926 65.4182 334.182 65.4182ZM348.361 85.5782C347.281 85.5782 346.417 85.2542 345.769 84.6062C345.145 83.9582 344.833 83.0942 344.833 82.0142V70.9622H339.937V67.8302H344.833V61.9622H348.541V67.8302H353.833V70.9622H348.541V81.3662C348.541 82.0862 348.877 82.4462 349.549 82.4462H353.257V85.5782H348.361ZM358.37 85.5782V67.8302H362.078V85.5782H358.37ZM360.242 65.4182C359.522 65.4182 358.91 65.1902 358.406 64.7342C357.926 64.2542 357.686 63.6422 357.686 62.8982C357.686 62.1542 357.926 61.5542 358.406 61.0982C358.91 60.6182 359.522 60.3782 360.242 60.3782C360.986 60.3782 361.598 60.6182 362.078 61.0982C362.558 61.5542 362.798 62.1542 362.798 62.8982C362.798 63.6422 362.558 64.2542 362.078 64.7342C361.598 65.1902 360.986 65.4182 360.242 65.4182ZM376.005 86.0822C374.301 86.0822 372.753 85.7222 371.361 85.0022C369.993 84.2822 368.901 83.2382 368.085 81.8702C367.293 80.5022 366.897 78.8582 366.897 76.9382V76.4702C366.897 74.5502 367.293 72.9182 368.085 71.5742C368.901 70.2062 369.993 69.1622 371.361 68.4422C372.753 67.6982 374.301 67.3262 376.005 67.3262C377.709 67.3262 379.161 67.6382 380.361 68.2622C381.561 68.8862 382.521 69.7142 383.241 70.7462C383.985 71.7782 384.465 72.9182 384.681 74.1662L381.081 74.9222C380.961 74.1302 380.709 73.4102 380.325 72.7622C379.941 72.1142 379.401 71.5982 378.705 71.2142C378.009 70.8302 377.133 70.6382 376.077 70.6382C375.045 70.6382 374.109 70.8782 373.269 71.3582C372.453 71.8142 371.805 72.4862 371.325 73.3742C370.845 74.2382 370.605 75.2942 370.605 76.5422V76.8662C370.605 78.1142 370.845 79.1822 371.325 80.0702C371.805 80.9582 372.453 81.6302 373.269 82.0862C374.109 82.5422 375.045 82.7702 376.077 82.7702C377.637 82.7702 378.825 82.3742 379.641 81.5822C380.457 80.7662 380.973 79.7342 381.189 78.4862L384.789 79.3142C384.501 80.5382 383.985 81.6662 383.241 82.6982C382.521 83.7302 381.561 84.5582 380.361 85.1822C379.161 85.7822 377.709 86.0822 376.005 86.0822ZM394.753 86.0822C393.481 86.0822 392.341 85.8662 391.333 85.4342C390.349 85.0022 389.557 84.3662 388.957 83.5262C388.381 82.6862 388.093 81.6662 388.093 80.4662C388.093 79.2422 388.381 78.2342 388.957 77.4422C389.557 76.6262 390.361 76.0142 391.369 75.6062C392.401 75.1982 393.565 74.9942 394.861 74.9942H400.261V73.8422C400.261 72.8102 399.949 71.9822 399.325 71.3582C398.701 70.7342 397.741 70.4222 396.445 70.4222C395.173 70.4222 394.201 70.7222 393.529 71.3222C392.857 71.9222 392.413 72.7022 392.197 73.6622L388.741 72.5462C389.029 71.5862 389.485 70.7222 390.109 69.9542C390.757 69.1622 391.609 68.5262 392.665 68.0462C393.721 67.5662 394.993 67.3262 396.481 67.3262C398.785 67.3262 400.597 67.9142 401.917 69.0902C403.237 70.2662 403.897 71.9342 403.897 74.0942V81.4022C403.897 82.1222 404.233 82.4822 404.905 82.4822H406.417V85.5782H403.645C402.805 85.5782 402.121 85.3622 401.593 84.9302C401.065 84.4982 400.801 83.9102 400.801 83.1662V83.0582H400.261C400.069 83.4182 399.781 83.8382 399.397 84.3182C399.013 84.7982 398.449 85.2182 397.705 85.5782C396.961 85.9142 395.977 86.0822 394.753 86.0822ZM395.293 83.0222C396.781 83.0222 397.981 82.6022 398.893 81.7622C399.805 80.8982 400.261 79.7222 400.261 78.2342V77.8742H395.077C394.093 77.8742 393.301 78.0902 392.701 78.5222C392.101 78.9302 391.801 79.5422 391.801 80.3582C391.801 81.1742 392.113 81.8222 392.737 82.3022C393.361 82.7822 394.213 83.0222 395.293 83.0222ZM410.203 85.5782V60.3782H413.911V85.5782H410.203ZM432.153 85.5782V70.9622H427.185V67.8302H432.153V63.9422C432.153 62.8622 432.477 61.9982 433.125 61.3502C433.773 60.7022 434.637 60.3782 435.717 60.3782H440.289V63.5102H436.905C436.209 63.5102 435.861 63.8702 435.861 64.5902V67.8302H440.973V70.9622H435.861V85.5782H432.153ZM444 85.5782V60.3782H447.708V85.5782H444ZM461.707 86.0822C459.931 86.0822 458.347 85.7222 456.955 85.0022C455.587 84.2582 454.507 83.2022 453.715 81.8342C452.923 80.4662 452.527 78.8462 452.527 76.9742V76.4342C452.527 74.5622 452.923 72.9542 453.715 71.6102C454.507 70.2422 455.587 69.1862 456.955 68.4422C458.347 67.6982 459.931 67.3262 461.707 67.3262C463.483 67.3262 465.067 67.6982 466.459 68.4422C467.851 69.1862 468.943 70.2422 469.735 71.6102C470.527 72.9542 470.923 74.5622 470.923 76.4342V76.9742C470.923 78.8462 470.527 80.4662 469.735 81.8342C468.943 83.2022 467.851 84.2582 466.459 85.0022C465.067 85.7222 463.483 86.0822 461.707 86.0822ZM461.707 82.7702C463.339 82.7702 464.659 82.2542 465.667 81.2222C466.699 80.1662 467.215 78.7142 467.215 76.8662V76.5422C467.215 74.6942 466.711 73.2542 465.703 72.2222C464.695 71.1662 463.363 70.6382 461.707 70.6382C460.099 70.6382 458.779 71.1662 457.747 72.2222C456.739 73.2542 456.235 74.6942 456.235 76.5422V76.8662C456.235 78.7142 456.739 80.1662 457.747 81.2222C458.779 82.2542 460.099 82.7702 461.707 82.7702ZM477.453 85.5782L474.429 67.8302H478.137L480.369 83.0942H480.945L484.041 67.8302H490.053L493.113 83.0942H493.689L495.921 67.8302H499.629L496.605 85.5782H490.377L487.317 70.3502H486.741L483.681 85.5782H477.453ZM511.402 86.0822C509.146 86.0822 507.274 85.5782 505.786 84.5702C504.298 83.5622 503.386 82.0382 503.05 79.9982L506.506 79.1702C506.698 80.1542 507.022 80.9342 507.478 81.5102C507.934 82.0862 508.498 82.4942 509.17 82.7342C509.866 82.9742 510.61 83.0942 511.402 83.0942C512.578 83.0942 513.478 82.8662 514.102 82.4102C514.75 81.9542 515.074 81.3662 515.074 80.6462C515.074 79.9262 514.774 79.3982 514.174 79.0622C513.574 78.7262 512.686 78.4502 511.51 78.2342L510.286 78.0182C509.086 77.8022 507.994 77.4902 507.01 77.0822C506.026 76.6742 505.246 76.1102 504.67 75.3902C504.094 74.6702 503.806 73.7462 503.806 72.6182C503.806 70.9382 504.43 69.6422 505.678 68.7302C506.926 67.7942 508.582 67.3262 510.646 67.3262C512.638 67.3262 514.27 67.7822 515.542 68.6942C516.838 69.5822 517.678 70.7942 518.062 72.3302L514.606 73.3022C514.39 72.2222 513.934 71.4662 513.238 71.0342C512.542 70.5782 511.678 70.3502 510.646 70.3502C509.638 70.3502 508.846 70.5422 508.27 70.9262C507.694 71.2862 507.406 71.8022 507.406 72.4742C507.406 73.1942 507.682 73.7222 508.234 74.0582C508.81 74.3942 509.578 74.6462 510.538 74.8142L511.798 75.0302C513.07 75.2462 514.234 75.5462 515.29 75.9302C516.346 76.3142 517.174 76.8662 517.774 77.5862C518.398 78.3062 518.71 79.2662 518.71 80.4662C518.71 82.2422 518.05 83.6222 516.73 84.6062C515.41 85.5902 513.634 86.0822 511.402 86.0822Z" fill="white"/>
</svg>
