<svg width="500" height="500" viewBox="0 0 500 500" fill="none" xmlns="http://www.w3.org/2000/svg">
<g clip-path="url(#clip0_116_5092)">
<rect width="500" height="500" fill="#F2EFFF"/>
<rect x="169.485" y="299.263" width="162.08" height="10.3455" rx="5.17277" fill="#EEEEF1"/>
<rect x="169.485" y="323.403" width="162.08" height="10.3455" rx="5.17277" fill="#EEEEF1"/>
<g clip-path="url(#clip1_116_5092)">
<mask id="mask0_116_5092" style="mask-type:luminance" maskUnits="userSpaceOnUse" x="204" y="238" width="93" height="47">
<path d="M204.228 238.538H296.826V284.121H204.228V238.538Z" fill="white"/>
</mask>
<g mask="url(#mask0_116_5092)">
<path d="M211.511 271.234H212.104L211.553 273.502C211.471 273.839 211.486 274.092 211.599 274.261C211.712 274.431 211.922 274.515 212.229 274.515C212.533 274.515 212.783 274.431 212.979 274.261C213.174 274.092 213.313 273.839 213.395 273.502L213.946 271.234H214.548L213.982 273.559C213.86 274.064 213.641 274.442 213.327 274.693C213.014 274.944 212.603 275.069 212.094 275.069C211.585 275.069 211.236 274.944 211.046 274.694C210.855 274.444 210.822 274.065 210.945 273.559L211.511 271.234Z" fill="#474747"/>
<path d="M214.468 274.97L215.412 271.086L217.207 273.37C217.255 273.434 217.303 273.503 217.351 273.577C217.399 273.65 217.448 273.732 217.498 273.824L218.128 271.234H218.684L217.74 275.115L215.908 272.79C215.858 272.728 215.813 272.661 215.77 272.591C215.727 272.522 215.688 272.448 215.653 272.372L215.021 274.97H214.468Z" fill="#474747"/>
<path d="M218.635 274.97L219.544 271.234H220.145L219.236 274.97H218.635Z" fill="#474747"/>
<path d="M220.1 274.97L221.009 271.234H223.073L222.947 271.749H221.484L221.258 272.681H222.721L222.591 273.214H221.128L220.701 274.97H220.1Z" fill="#474747"/>
<path d="M222.827 274.97L223.735 271.234H224.336L223.428 274.97H222.827Z" fill="#474747"/>
<path d="M224.292 274.97L225.2 271.234H227.264L227.139 271.749H225.676L225.448 272.686H226.911L226.781 273.219H225.318L225.025 274.426H226.488L226.356 274.97H224.292Z" fill="#474747"/>
<path d="M227.78 274.421H228.286C228.564 274.421 228.777 274.402 228.925 274.365C229.073 274.327 229.209 274.264 229.333 274.176C229.503 274.055 229.644 273.905 229.757 273.726C229.871 273.546 229.957 273.337 230.015 273.099C230.072 272.861 230.088 272.652 230.062 272.473C230.036 272.293 229.967 272.143 229.857 272.022C229.774 271.934 229.665 271.871 229.528 271.833C229.391 271.796 229.168 271.777 228.858 271.777H228.641H228.423L227.78 274.421ZM227.046 274.97L227.954 271.233H228.765C229.292 271.233 229.657 271.26 229.859 271.314C230.06 271.367 230.227 271.457 230.358 271.583C230.532 271.748 230.642 271.96 230.69 272.218C230.737 272.477 230.72 272.772 230.64 273.104C230.559 273.436 230.433 273.73 230.26 273.986C230.087 274.242 229.874 274.453 229.62 274.62C229.427 274.746 229.221 274.836 229.002 274.889C228.782 274.943 228.455 274.97 228.018 274.97H227.857H227.046Z" fill="#474747"/>
<path d="M233.567 272.796H233.722C234.055 272.796 234.286 272.759 234.415 272.686C234.545 272.613 234.631 272.483 234.676 272.298C234.725 272.099 234.7 271.958 234.601 271.877C234.502 271.795 234.293 271.754 233.975 271.754H233.821L233.567 272.796ZM233.408 273.293L233.001 274.97H232.438L233.346 271.234H234.256C234.525 271.234 234.72 271.248 234.84 271.278C234.96 271.308 235.058 271.357 235.136 271.425C235.231 271.512 235.294 271.629 235.324 271.776C235.353 271.923 235.347 272.085 235.304 272.262C235.261 272.439 235.188 272.602 235.086 272.752C234.984 272.902 234.865 273.019 234.728 273.104C234.617 273.172 234.495 273.221 234.36 273.249C234.226 273.279 234.024 273.293 233.755 273.293H233.636H233.408Z" fill="#474747"/>
<path d="M236.046 273.503H237.077L236.905 272.65C236.897 272.596 236.889 272.533 236.883 272.463C236.876 272.392 236.872 272.313 236.869 272.226C236.829 272.308 236.789 272.384 236.749 272.455C236.709 272.525 236.671 272.59 236.632 272.65L236.046 273.503ZM237.352 274.97L237.166 274.008H235.701L235.038 274.97H234.406L237.142 271.086L237.986 274.97H237.352Z" fill="#474747"/>
<path d="M238.849 274.97L239.264 273.26L238.511 271.234H239.143L239.61 272.502C239.621 272.535 239.634 272.577 239.649 272.63C239.664 272.682 239.678 272.739 239.692 272.801C239.73 272.741 239.768 272.685 239.807 272.632C239.846 272.579 239.885 272.531 239.925 272.487L241.025 271.234H241.627L239.86 273.26L239.445 274.97H238.849Z" fill="#474747"/>
<path d="M244.586 273.125C244.586 273.096 244.595 273.016 244.612 272.885C244.625 272.776 244.635 272.686 244.642 272.614C244.606 272.699 244.564 272.785 244.516 272.869C244.467 272.954 244.411 273.041 244.347 273.13L242.896 275.12L242.422 273.089C242.402 273.005 242.386 272.925 242.376 272.847C242.366 272.768 242.359 272.691 242.355 272.614C242.335 272.693 242.309 272.774 242.277 272.861C242.245 272.946 242.207 273.036 242.162 273.13L241.318 274.97H240.765L242.586 271.075L243.104 273.433C243.111 273.471 243.122 273.533 243.136 273.62C243.149 273.707 243.164 273.814 243.183 273.941C243.244 273.834 243.332 273.698 243.448 273.533C243.479 273.489 243.503 273.455 243.519 273.431L245.158 271.075L245.105 274.97H244.547L244.586 273.125Z" fill="#474747"/>
<path d="M245.585 274.97L246.494 271.234H248.558L248.432 271.749H246.969L246.742 272.686H248.204L248.075 273.219H246.612L246.318 274.426H247.781L247.649 274.97H245.585Z" fill="#474747"/>
<path d="M248.338 274.97L249.283 271.086L251.077 273.37C251.125 273.434 251.174 273.503 251.222 273.577C251.269 273.65 251.318 273.732 251.368 273.824L251.998 271.234H252.554L251.61 275.115L249.778 272.79C249.729 272.728 249.683 272.661 249.641 272.591C249.598 272.522 249.559 272.448 249.523 272.372L248.892 274.97H248.338Z" fill="#474747"/>
<path d="M254.472 271.749L253.689 274.97H253.088L253.871 271.749H252.888L253.014 271.234H255.575L255.45 271.749H254.472Z" fill="#474747"/>
<path d="M255.097 274.222L255.632 273.997C255.637 274.164 255.69 274.291 255.789 274.379C255.889 274.466 256.034 274.51 256.223 274.51C256.401 274.51 256.555 274.46 256.685 274.359C256.814 274.259 256.9 274.125 256.941 273.956C256.994 273.737 256.861 273.541 256.543 273.37C256.498 273.344 256.464 273.325 256.44 273.313C256.081 273.112 255.854 272.931 255.758 272.768C255.662 272.606 255.642 272.407 255.699 272.173C255.773 271.868 255.936 271.621 256.186 271.432C256.437 271.244 256.728 271.149 257.06 271.149C257.333 271.149 257.548 271.202 257.706 271.309C257.863 271.415 257.953 271.568 257.976 271.767L257.447 272.012C257.401 271.894 257.34 271.808 257.265 271.754C257.19 271.699 257.095 271.672 256.981 271.672C256.819 271.672 256.68 271.715 256.564 271.8C256.449 271.885 256.373 271.999 256.338 272.142C256.284 272.366 256.442 272.576 256.812 272.77C256.841 272.785 256.863 272.797 256.879 272.805C257.203 272.975 257.414 273.142 257.511 273.304C257.608 273.467 257.627 273.67 257.568 273.913C257.482 274.267 257.303 274.548 257.032 274.756C256.76 274.965 256.437 275.069 256.061 275.069C255.746 275.069 255.506 274.996 255.34 274.849C255.174 274.703 255.093 274.494 255.097 274.222Z" fill="#474747"/>
<path d="M259.54 274.97L260.448 271.234H261.049L260.141 274.97H259.54Z" fill="#474747"/>
<path d="M261.004 274.97L261.949 271.086L263.743 273.37C263.791 273.434 263.84 273.503 263.888 273.577C263.935 273.65 263.984 273.732 264.034 273.824L264.664 271.234H265.22L264.276 275.115L262.444 272.79C262.395 272.728 262.349 272.661 262.307 272.591C262.264 272.522 262.225 272.448 262.189 272.372L261.558 274.97H261.004Z" fill="#474747"/>
<path d="M267.14 271.749L266.357 274.97H265.756L266.538 271.749H265.556L265.681 271.234H268.243L268.118 271.749H267.14Z" fill="#474747"/>
<path d="M267.793 274.97L268.702 271.234H270.766L270.641 271.749H269.178L268.95 272.686H270.413L270.283 273.219H268.82L268.527 274.426H269.99L269.858 274.97H267.793Z" fill="#474747"/>
<path d="M271.67 272.826H271.779C272.097 272.826 272.318 272.789 272.441 272.714C272.563 272.639 272.648 272.506 272.694 272.316C272.744 272.11 272.723 271.965 272.632 271.881C272.54 271.796 272.343 271.754 272.04 271.754H271.931L271.67 272.826ZM271.518 273.298L271.111 274.97H270.548L271.456 271.234H272.295C272.541 271.234 272.728 271.25 272.856 271.282C272.983 271.315 273.086 271.368 273.164 271.443C273.257 271.533 273.317 271.65 273.344 271.793C273.372 271.935 273.365 272.092 273.323 272.262C273.251 272.561 273.122 272.796 272.938 272.965C272.753 273.134 272.517 273.236 272.229 273.27L273.09 274.97H272.41L271.586 273.298H271.518Z" fill="#474747"/>
<path d="M273.446 274.97L274.354 271.234H276.418L276.293 271.749H274.83L274.603 272.681H276.067L275.937 273.214H274.474L274.047 274.97H273.446Z" fill="#474747"/>
<path d="M277.115 273.503H278.146L277.974 272.65C277.966 272.596 277.958 272.533 277.952 272.463C277.945 272.392 277.941 272.313 277.938 272.226C277.898 272.308 277.858 272.384 277.818 272.455C277.778 272.525 277.739 272.59 277.701 272.65L277.115 273.503ZM278.421 274.97L278.235 274.008H276.77L276.107 274.97H275.475L278.21 271.086L279.055 274.97H278.421Z" fill="#474747"/>
<path d="M282.969 272.142C282.834 271.996 282.681 271.886 282.509 271.813C282.338 271.74 282.148 271.703 281.939 271.703C281.534 271.703 281.174 271.834 280.857 272.096C280.539 272.358 280.33 272.697 280.228 273.114C280.131 273.518 280.173 273.85 280.356 274.112C280.539 274.374 280.819 274.505 281.194 274.505C281.413 274.505 281.631 274.466 281.848 274.388C282.065 274.309 282.284 274.191 282.504 274.033L282.337 274.719C282.147 274.837 281.949 274.925 281.745 274.982C281.541 275.04 281.327 275.069 281.105 275.069C280.822 275.069 280.572 275.022 280.355 274.929C280.137 274.835 279.96 274.698 279.822 274.515C279.686 274.337 279.598 274.126 279.56 273.884C279.522 273.641 279.537 273.383 279.603 273.109C279.67 272.835 279.781 272.578 279.936 272.337C280.092 272.096 280.283 271.885 280.511 271.703C280.739 271.519 280.984 271.38 281.244 271.286C281.504 271.191 281.773 271.144 282.049 271.144C282.267 271.144 282.466 271.176 282.648 271.24C282.829 271.303 282.997 271.4 283.151 271.53L282.969 272.142Z" fill="#474747"/>
<path d="M283.027 274.97L283.936 271.234H286L285.875 271.749H284.412L284.184 272.686H285.647L285.517 273.219H284.054L283.761 274.426H285.224L285.092 274.97H283.027Z" fill="#474747"/>
<path d="M272.061 267.978H267.928L273.677 247.538H277.81L272.061 267.978Z" fill="#474747"/>
<path d="M269.916 248.184C269.629 247.795 269.187 247.599 268.587 247.599H245.858L244.733 251.602H248.868V251.6H265.409L264.206 255.878H247.665L247.666 255.869H243.532L240.101 268.064H244.237L246.54 259.879H265.133C265.714 259.879 266.261 259.684 266.775 259.294C267.288 258.904 267.625 258.422 267.787 257.848L270.089 249.661C270.257 249.067 270.199 248.574 269.916 248.184Z" fill="#474747"/>
<path d="M237.691 266.702C237.463 267.511 236.714 268.071 235.861 268.071H214.535C213.954 268.071 213.522 267.876 213.238 267.487C212.954 267.097 212.894 266.614 213.056 266.04L218.259 247.598H222.396L217.749 264.069H234.298L238.945 247.598H243.082L237.691 266.702Z" fill="#474747"/>
<path d="M284.948 247.576L290.181 257.823L279.18 268.066L284.948 247.576Z" fill="#27803B"/>
<path d="M281.28 247.576L286.509 257.823L275.504 268.066L281.28 247.576Z" fill="#E9661C"/>
</g>
</g>
<rect x="80" y="-46" width="345" height="441" rx="8" fill="white"/>
<rect width="286" height="286" transform="translate(110 51)" fill="white"/>
<path d="M126.227 67.2269H136.368V77.3688H126.227V67.2269ZM136.368 67.2269H146.51V77.3688H136.368V67.2269ZM146.51 67.2269H156.652V77.3688H146.51V67.2269ZM156.652 67.2269H166.794V77.3688H156.652V67.2269ZM166.794 67.2269H176.936V77.3688H166.794V67.2269ZM176.936 67.2269H187.078V77.3688H176.936V67.2269ZM187.078 67.2269H197.219V77.3688H187.078V67.2269ZM217.503 67.2269H227.645V77.3688H217.503V67.2269ZM227.645 67.2269H237.787V77.3688H227.645V67.2269ZM237.787 67.2269H247.929V77.3688H237.787V67.2269ZM247.929 67.2269H258.071V77.3688H247.929V67.2269ZM278.354 67.2269H288.496V77.3688H278.354V67.2269ZM288.496 67.2269H298.638V77.3688H288.496V67.2269ZM308.78 67.2269H318.922V77.3688H308.78V67.2269ZM318.922 67.2269H329.063V77.3688H318.922V67.2269ZM329.063 67.2269H339.205V77.3688H329.063V67.2269ZM339.205 67.2269H349.347V77.3688H339.205V67.2269ZM349.347 67.2269H359.489V77.3688H349.347V67.2269ZM359.489 67.2269H369.631V77.3688H359.489V67.2269ZM369.631 67.2269H379.773V77.3688H369.631V67.2269ZM126.227 77.3688H136.368V87.5106H126.227V77.3688ZM187.078 77.3688H197.219V87.5106H187.078V77.3688ZM207.361 77.3688H217.503V87.5106H207.361V77.3688ZM227.645 77.3688H237.787V87.5106H227.645V77.3688ZM237.787 77.3688H247.929V87.5106H237.787V77.3688ZM247.929 77.3688H258.071V87.5106H247.929V77.3688ZM288.496 77.3688H298.638V87.5106H288.496V77.3688ZM308.78 77.3688H318.922V87.5106H308.78V77.3688ZM369.631 77.3688H379.773V87.5106H369.631V77.3688ZM126.227 87.5106H136.368V97.6525H126.227V87.5106ZM146.51 87.5106H156.652V97.6525H146.51V87.5106ZM156.652 87.5106H166.794V97.6525H156.652V87.5106ZM166.794 87.5106H176.936V97.6525H166.794V87.5106ZM187.078 87.5106H197.219V97.6525H187.078V87.5106ZM217.503 87.5106H227.645V97.6525H217.503V87.5106ZM227.645 87.5106H237.787V97.6525H227.645V87.5106ZM278.354 87.5106H288.496V97.6525H278.354V87.5106ZM288.496 87.5106H298.638V97.6525H288.496V87.5106ZM308.78 87.5106H318.922V97.6525H308.78V87.5106ZM329.063 87.5106H339.205V97.6525H329.063V87.5106ZM339.205 87.5106H349.347V97.6525H339.205V87.5106ZM349.347 87.5106H359.489V97.6525H349.347V87.5106ZM369.631 87.5106H379.773V97.6525H369.631V87.5106ZM126.227 97.6525H136.368V107.794H126.227V97.6525ZM146.51 97.6525H156.652V107.794H146.51V97.6525ZM156.652 97.6525H166.794V107.794H156.652V97.6525ZM166.794 97.6525H176.936V107.794H166.794V97.6525ZM187.078 97.6525H197.219V107.794H187.078V97.6525ZM207.361 97.6525H217.503V107.794H207.361V97.6525ZM217.503 97.6525H227.645V107.794H217.503V97.6525ZM227.645 97.6525H237.787V107.794H227.645V97.6525ZM237.787 97.6525H247.929V107.794H237.787V97.6525ZM288.496 97.6525H298.638V107.794H288.496V97.6525ZM308.78 97.6525H318.922V107.794H308.78V97.6525ZM329.063 97.6525H339.205V107.794H329.063V97.6525ZM339.205 97.6525H349.347V107.794H339.205V97.6525ZM349.347 97.6525H359.489V107.794H349.347V97.6525ZM369.631 97.6525H379.773V107.794H369.631V97.6525ZM126.227 107.794H136.368V117.936H126.227V107.794ZM146.51 107.794H156.652V117.936H146.51V107.794ZM156.652 107.794H166.794V117.936H156.652V107.794ZM166.794 107.794H176.936V117.936H166.794V107.794ZM187.078 107.794H197.219V117.936H187.078V107.794ZM207.361 107.794H217.503V117.936H207.361V107.794ZM227.645 107.794H237.787V117.936H227.645V107.794ZM247.929 107.794H258.071V117.936H247.929V107.794ZM268.212 107.794H278.354V117.936H268.212V107.794ZM278.354 107.794H288.496V117.936H278.354V107.794ZM288.496 107.794H298.638V117.936H288.496V107.794ZM308.78 107.794H318.922V117.936H308.78V107.794ZM329.063 107.794H339.205V117.936H329.063V107.794ZM339.205 107.794H349.347V117.936H339.205V107.794ZM349.347 107.794H359.489V117.936H349.347V107.794ZM369.631 107.794H379.773V117.936H369.631V107.794ZM126.227 117.936H136.368V128.078H126.227V117.936ZM187.078 117.936H197.219V128.078H187.078V117.936ZM247.929 117.936H258.071V128.078H247.929V117.936ZM278.354 117.936H288.496V128.078H278.354V117.936ZM288.496 117.936H298.638V128.078H288.496V117.936ZM308.78 117.936H318.922V128.078H308.78V117.936ZM369.631 117.936H379.773V128.078H369.631V117.936ZM126.227 128.078H136.368V138.22H126.227V128.078ZM136.368 128.078H146.51V138.22H136.368V128.078ZM146.51 128.078H156.652V138.22H146.51V128.078ZM156.652 128.078H166.794V138.22H156.652V128.078ZM166.794 128.078H176.936V138.22H166.794V128.078ZM176.936 128.078H187.078V138.22H176.936V128.078ZM187.078 128.078H197.219V138.22H187.078V128.078ZM207.361 128.078H217.503V138.22H207.361V128.078ZM227.645 128.078H237.787V138.22H227.645V128.078ZM247.929 128.078H258.071V138.22H247.929V128.078ZM268.212 128.078H278.354V138.22H268.212V128.078ZM288.496 128.078H298.638V138.22H288.496V128.078ZM308.78 128.078H318.922V138.22H308.78V128.078ZM318.922 128.078H329.063V138.22H318.922V128.078ZM329.063 128.078H339.205V138.22H329.063V128.078ZM339.205 128.078H349.347V138.22H339.205V128.078ZM349.347 128.078H359.489V138.22H349.347V128.078ZM359.489 128.078H369.631V138.22H359.489V128.078ZM369.631 128.078H379.773V138.22H369.631V128.078ZM207.361 138.22H217.503V148.362H207.361V138.22ZM217.503 138.22H227.645V148.362H217.503V138.22ZM237.787 138.22H247.929V148.362H237.787V138.22ZM258.071 138.22H268.212V148.362H258.071V138.22ZM278.354 138.22H288.496V148.362H278.354V138.22ZM288.496 138.22H298.638V148.362H288.496V138.22ZM136.368 148.362H146.51V158.504H136.368V148.362ZM156.652 148.362H166.794V158.504H156.652V148.362ZM166.794 148.362H176.936V158.504H166.794V148.362ZM176.936 148.362H187.078V158.504H176.936V148.362ZM187.078 148.362H197.219V158.504H187.078V148.362ZM207.361 148.362H217.503V158.504H207.361V148.362ZM227.645 148.362H237.787V158.504H227.645V148.362ZM247.929 148.362H258.071V158.504H247.929V148.362ZM258.071 148.362H268.212V158.504H258.071V148.362ZM288.496 148.362H298.638V158.504H288.496V148.362ZM298.638 148.362H308.78V158.504H298.638V148.362ZM308.78 148.362H318.922V158.504H308.78V148.362ZM329.063 148.362H339.205V158.504H329.063V148.362ZM339.205 148.362H349.347V158.504H339.205V148.362ZM359.489 148.362H369.631V158.504H359.489V148.362ZM126.227 158.504H136.368V168.645H126.227V158.504ZM136.368 158.504H146.51V168.645H136.368V158.504ZM146.51 158.504H156.652V168.645H146.51V158.504ZM156.652 158.504H166.794V168.645H156.652V158.504ZM176.936 158.504H187.078V168.645H176.936V158.504ZM207.361 158.504H217.503V168.645H207.361V158.504ZM227.645 158.504H237.787V168.645H227.645V158.504ZM247.929 158.504H258.071V168.645H247.929V158.504ZM258.071 158.504H268.212V168.645H258.071V158.504ZM288.496 158.504H298.638V168.645H288.496V158.504ZM318.922 158.504H329.063V168.645H318.922V158.504ZM329.063 158.504H339.205V168.645H329.063V158.504ZM339.205 158.504H349.347V168.645H339.205V158.504ZM349.347 158.504H359.489V168.645H349.347V158.504ZM359.489 158.504H369.631V168.645H359.489V158.504ZM126.227 168.645H136.368V178.787H126.227V168.645ZM156.652 168.645H166.794V178.787H156.652V168.645ZM176.936 168.645H187.078V178.787H176.936V168.645ZM187.078 168.645H197.219V178.787H187.078V168.645ZM217.503 168.645H227.645V178.787H217.503V168.645ZM237.787 168.645H247.929V178.787H237.787V168.645ZM247.929 168.645H258.071V178.787H247.929V168.645ZM258.071 168.645H268.212V178.787H258.071V168.645ZM278.354 168.645H288.496V178.787H278.354V168.645ZM288.496 168.645H298.638V178.787H288.496V168.645ZM298.638 168.645H308.78V178.787H298.638V168.645ZM308.78 168.645H318.922V178.787H308.78V168.645ZM329.063 168.645H339.205V178.787H329.063V168.645ZM349.347 168.645H359.489V178.787H349.347V168.645ZM369.631 168.645H379.773V178.787H369.631V168.645ZM146.51 178.787H156.652V188.929H146.51V178.787ZM156.652 178.787H166.794V188.929H156.652V178.787ZM176.936 178.787H187.078V188.929H176.936V178.787ZM197.219 178.787H207.361V188.929H197.219V178.787ZM207.361 178.787H217.503V188.929H207.361V178.787ZM217.503 178.787H227.645V188.929H217.503V178.787ZM227.645 178.787H237.787V188.929H227.645V178.787ZM237.787 178.787H247.929V188.929H237.787V178.787ZM247.929 178.787H258.071V188.929H247.929V178.787ZM258.071 178.787H268.212V188.929H258.071V178.787ZM308.78 178.787H318.922V188.929H308.78V178.787ZM329.063 178.787H339.205V188.929H329.063V178.787ZM349.347 178.787H359.489V188.929H349.347V178.787ZM126.227 188.929H136.368V199.071H126.227V188.929ZM136.368 188.929H146.51V199.071H136.368V188.929ZM176.936 188.929H187.078V199.071H176.936V188.929ZM187.078 188.929H197.219V199.071H187.078V188.929ZM197.219 188.929H207.361V199.071H197.219V188.929ZM207.361 188.929H217.503V199.071H207.361V188.929ZM227.645 188.929H237.787V199.071H227.645V188.929ZM237.787 188.929H247.929V199.071H237.787V188.929ZM258.071 188.929H268.212V199.071H258.071V188.929ZM288.496 188.929H298.638V199.071H288.496V188.929ZM308.78 188.929H318.922V199.071H308.78V188.929ZM318.922 188.929H329.063V199.071H318.922V188.929ZM339.205 188.929H349.347V199.071H339.205V188.929ZM369.631 188.929H379.773V199.071H369.631V188.929ZM126.227 199.071H136.368V209.213H126.227V199.071ZM156.652 199.071H166.794V209.213H156.652V199.071ZM197.219 199.071H207.361V209.213H197.219V199.071ZM207.361 199.071H217.503V209.213H207.361V199.071ZM217.503 199.071H227.645V209.213H217.503V199.071ZM247.929 199.071H258.071V209.213H247.929V199.071ZM268.212 199.071H278.354V209.213H268.212V199.071ZM278.354 199.071H288.496V209.213H278.354V199.071ZM288.496 199.071H298.638V209.213H288.496V199.071ZM298.638 199.071H308.78V209.213H298.638V199.071ZM329.063 199.071H339.205V209.213H329.063V199.071ZM339.205 199.071H349.347V209.213H339.205V199.071ZM349.347 199.071H359.489V209.213H349.347V199.071ZM359.489 199.071H369.631V209.213H359.489V199.071ZM126.227 209.213H136.368V219.355H126.227V209.213ZM136.368 209.213H146.51V219.355H136.368V209.213ZM156.652 209.213H166.794V219.355H156.652V209.213ZM166.794 209.213H176.936V219.355H166.794V209.213ZM187.078 209.213H197.219V219.355H187.078V209.213ZM197.219 209.213H207.361V219.355H197.219V209.213ZM207.361 209.213H217.503V219.355H207.361V209.213ZM217.503 209.213H227.645V219.355H217.503V209.213ZM227.645 209.213H237.787V219.355H227.645V209.213ZM237.787 209.213H247.929V219.355H237.787V209.213ZM247.929 209.213H258.071V219.355H247.929V209.213ZM258.071 209.213H268.212V219.355H258.071V209.213ZM268.212 209.213H278.354V219.355H268.212V209.213ZM278.354 209.213H288.496V219.355H278.354V209.213ZM308.78 209.213H318.922V219.355H308.78V209.213ZM329.063 209.213H339.205V219.355H329.063V209.213ZM339.205 209.213H349.347V219.355H339.205V209.213ZM359.489 209.213H369.631V219.355H359.489V209.213ZM369.631 209.213H379.773V219.355H369.631V209.213ZM126.227 219.355H136.368V229.496H126.227V219.355ZM197.219 219.355H207.361V229.496H197.219V219.355ZM278.354 219.355H288.496V229.496H278.354V219.355ZM339.205 219.355H349.347V229.496H339.205V219.355ZM349.347 219.355H359.489V229.496H349.347V219.355ZM359.489 219.355H369.631V229.496H359.489V219.355ZM126.227 229.496H136.368V239.638H126.227V229.496ZM166.794 229.496H176.936V239.638H166.794V229.496ZM187.078 229.496H197.219V239.638H187.078V229.496ZM197.219 229.496H207.361V239.638H197.219V229.496ZM237.787 229.496H247.929V239.638H237.787V229.496ZM258.071 229.496H268.212V239.638H258.071V229.496ZM268.212 229.496H278.354V239.638H268.212V229.496ZM288.496 229.496H298.638V239.638H288.496V229.496ZM298.638 229.496H308.78V239.638H298.638V229.496ZM308.78 229.496H318.922V239.638H308.78V229.496ZM318.922 229.496H329.063V239.638H318.922V229.496ZM329.063 229.496H339.205V239.638H329.063V229.496ZM349.347 229.496H359.489V239.638H349.347V229.496ZM369.631 229.496H379.773V239.638H369.631V229.496ZM207.361 239.638H217.503V249.78H207.361V239.638ZM288.496 239.638H298.638V249.78H288.496V239.638ZM329.063 239.638H339.205V249.78H329.063V239.638ZM349.347 239.638H359.489V249.78H349.347V239.638ZM126.227 249.78H136.368V259.922H126.227V249.78ZM136.368 249.78H146.51V259.922H136.368V249.78ZM146.51 249.78H156.652V259.922H146.51V249.78ZM156.652 249.78H166.794V259.922H156.652V249.78ZM166.794 249.78H176.936V259.922H166.794V249.78ZM176.936 249.78H187.078V259.922H176.936V249.78ZM187.078 249.78H197.219V259.922H187.078V249.78ZM227.645 249.78H237.787V259.922H227.645V249.78ZM237.787 249.78H247.929V259.922H237.787V249.78ZM258.071 249.78H268.212V259.922H258.071V249.78ZM268.212 249.78H278.354V259.922H268.212V249.78ZM288.496 249.78H298.638V259.922H288.496V249.78ZM308.78 249.78H318.922V259.922H308.78V249.78ZM329.063 249.78H339.205V259.922H329.063V249.78ZM339.205 249.78H349.347V259.922H339.205V249.78ZM349.347 249.78H359.489V259.922H349.347V249.78ZM369.631 249.78H379.773V259.922H369.631V249.78ZM126.227 259.922H136.368V270.064H126.227V259.922ZM187.078 259.922H197.219V270.064H187.078V259.922ZM207.361 259.922H217.503V270.064H207.361V259.922ZM217.503 259.922H227.645V270.064H217.503V259.922ZM237.787 259.922H247.929V270.064H237.787V259.922ZM247.929 259.922H258.071V270.064H247.929V259.922ZM258.071 259.922H268.212V270.064H258.071V259.922ZM268.212 259.922H278.354V270.064H268.212V259.922ZM278.354 259.922H288.496V270.064H278.354V259.922ZM288.496 259.922H298.638V270.064H288.496V259.922ZM329.063 259.922H339.205V270.064H329.063V259.922ZM339.205 259.922H349.347V270.064H339.205V259.922ZM359.489 259.922H369.631V270.064H359.489V259.922ZM126.227 270.064H136.368V280.206H126.227V270.064ZM146.51 270.064H156.652V280.206H146.51V270.064ZM156.652 270.064H166.794V280.206H156.652V270.064ZM166.794 270.064H176.936V280.206H166.794V270.064ZM187.078 270.064H197.219V280.206H187.078V270.064ZM207.361 270.064H217.503V280.206H207.361V270.064ZM217.503 270.064H227.645V280.206H217.503V270.064ZM237.787 270.064H247.929V280.206H237.787V270.064ZM258.071 270.064H268.212V280.206H258.071V270.064ZM278.354 270.064H288.496V280.206H278.354V270.064ZM288.496 270.064H298.638V280.206H288.496V270.064ZM298.638 270.064H308.78V280.206H298.638V270.064ZM308.78 270.064H318.922V280.206H308.78V270.064ZM318.922 270.064H329.063V280.206H318.922V270.064ZM329.063 270.064H339.205V280.206H329.063V270.064ZM359.489 270.064H369.631V280.206H359.489V270.064ZM126.227 280.206H136.368V290.347H126.227V280.206ZM146.51 280.206H156.652V290.347H146.51V280.206ZM156.652 280.206H166.794V290.347H156.652V280.206ZM166.794 280.206H176.936V290.347H166.794V280.206ZM187.078 280.206H197.219V290.347H187.078V280.206ZM207.361 280.206H217.503V290.347H207.361V280.206ZM217.503 280.206H227.645V290.347H217.503V280.206ZM227.645 280.206H237.787V290.347H227.645V280.206ZM258.071 280.206H268.212V290.347H258.071V280.206ZM278.354 280.206H288.496V290.347H278.354V280.206ZM308.78 280.206H318.922V290.347H308.78V280.206ZM349.347 280.206H359.489V290.347H349.347V280.206ZM369.631 280.206H379.773V290.347H369.631V280.206ZM126.227 290.347H136.368V300.489H126.227V290.347ZM146.51 290.347H156.652V300.489H146.51V290.347ZM156.652 290.347H166.794V300.489H156.652V290.347ZM166.794 290.347H176.936V300.489H166.794V290.347ZM187.078 290.347H197.219V300.489H187.078V290.347ZM217.503 290.347H227.645V300.489H217.503V290.347ZM258.071 290.347H268.212V300.489H258.071V290.347ZM278.354 290.347H288.496V300.489H278.354V290.347ZM298.638 290.347H308.78V300.489H298.638V290.347ZM318.922 290.347H329.063V300.489H318.922V290.347ZM329.063 290.347H339.205V300.489H329.063V290.347ZM339.205 290.347H349.347V300.489H339.205V290.347ZM349.347 290.347H359.489V300.489H349.347V290.347ZM359.489 290.347H369.631V300.489H359.489V290.347ZM369.631 290.347H379.773V300.489H369.631V290.347ZM126.227 300.489H136.368V310.631H126.227V300.489ZM187.078 300.489H197.219V310.631H187.078V300.489ZM207.361 300.489H217.503V310.631H207.361V300.489ZM217.503 300.489H227.645V310.631H217.503V300.489ZM247.929 300.489H258.071V310.631H247.929V300.489ZM258.071 300.489H268.212V310.631H258.071V300.489ZM268.212 300.489H278.354V310.631H268.212V300.489ZM318.922 300.489H329.063V310.631H318.922V300.489ZM329.063 300.489H339.205V310.631H329.063V300.489ZM349.347 300.489H359.489V310.631H349.347V300.489ZM359.489 300.489H369.631V310.631H359.489V300.489ZM369.631 300.489H379.773V310.631H369.631V300.489ZM126.227 310.631H136.368V320.773H126.227V310.631ZM136.368 310.631H146.51V320.773H136.368V310.631ZM146.51 310.631H156.652V320.773H146.51V310.631ZM156.652 310.631H166.794V320.773H156.652V310.631ZM166.794 310.631H176.936V320.773H166.794V310.631ZM176.936 310.631H187.078V320.773H176.936V310.631ZM187.078 310.631H197.219V320.773H187.078V310.631ZM217.503 310.631H227.645V320.773H217.503V310.631ZM247.929 310.631H258.071V320.773H247.929V310.631ZM268.212 310.631H278.354V320.773H268.212V310.631ZM288.496 310.631H298.638V320.773H288.496V310.631ZM298.638 310.631H308.78V320.773H298.638V310.631ZM318.922 310.631H329.063V320.773H318.922V310.631ZM329.063 310.631H339.205V320.773H329.063V310.631ZM369.631 310.631H379.773V320.773H369.631V310.631Z" fill="#392783"/>
<path d="M176.032 33H169.888V-2.088H183.28C191.248 -2.088 195.904 1.944 195.904 8.856C195.904 13.56 193.696 16.92 189.568 18.6L196.24 33H189.52L183.568 19.896H176.032V33ZM176.032 3.384V14.472H183.28C187.168 14.472 189.472 12.408 189.472 8.856C189.472 5.352 187.168 3.384 183.28 3.384H176.032ZM210.341 33.624C203.285 33.624 198.341 28.488 198.341 21.144C198.341 13.704 203.189 8.568 210.149 8.568C217.253 8.568 221.765 13.32 221.765 20.712V22.488L203.909 22.536C204.341 26.712 206.549 28.824 210.437 28.824C213.653 28.824 215.765 27.576 216.437 25.32H221.861C220.853 30.504 216.533 33.624 210.341 33.624ZM210.197 13.368C206.741 13.368 204.629 15.24 204.053 18.792H215.957C215.957 15.528 213.701 13.368 210.197 13.368ZM232.547 33H226.691V9.288H232.116L232.595 12.36C234.083 9.96 236.964 8.568 240.18 8.568C246.132 8.568 249.203 12.264 249.203 18.408V33H243.348V19.8C243.348 15.816 241.38 13.896 238.356 13.896C234.755 13.896 232.547 16.392 232.547 20.232V33ZM263.261 33H257.405V14.184H252.845V9.288H257.405V1.896H263.261V9.288H267.869V14.184H263.261V33ZM300.166 35.64L296.326 31.32C293.83 32.76 290.854 33.576 287.542 33.576C277.51 33.576 270.598 26.136 270.598 15.432C270.598 4.776 277.558 -2.712 287.59 -2.712C297.622 -2.712 304.63 4.728 304.63 15.432C304.63 20.472 303.094 24.792 300.358 27.96L304.102 32.136L300.166 35.64ZM298.15 15.432C298.15 7.944 294.022 3.192 287.59 3.192C281.158 3.192 277.03 7.944 277.03 15.432C277.03 22.92 281.158 27.672 287.59 27.672C289.318 27.672 290.854 27.336 292.246 26.664L287.59 21.432L291.478 17.928L296.134 23.16C297.43 21.144 298.15 18.504 298.15 15.432ZM316.732 33H310.588V-2.088H323.98C331.948 -2.088 336.604 1.944 336.604 8.856C336.604 13.56 334.396 16.92 330.268 18.6L336.94 33H330.22L324.268 19.896H316.732V33ZM316.732 3.384V14.472H323.98C327.868 14.472 330.172 12.408 330.172 8.856C330.172 5.352 327.868 3.384 323.98 3.384H316.732Z" fill="#372583"/>
<ellipse cx="177.558" cy="303.379" rx="48.9436" ry="19.3825" transform="rotate(18.3728 177.558 303.379)" fill="#ECAF8C"/>
<ellipse cx="262.328" cy="445" rx="63.0648" ry="68.1729" fill="#CF815B"/>
<rect x="178.831" y="147.358" width="154.471" height="295.465" rx="21.2181" fill="white"/>
<rect x="178.831" y="147.358" width="154.471" height="295.465" rx="21.2181" stroke="black" stroke-width="4.71513"/>
<path d="M276.93 214.677C276.126 213.837 275.295 212.971 274.982 212.21C274.692 211.513 274.675 210.357 274.658 209.238C274.626 207.157 274.591 204.799 272.952 203.16C271.313 201.52 268.955 201.486 266.874 201.454C265.755 201.437 264.599 201.42 263.902 201.13C263.143 200.817 262.275 199.985 261.435 199.182C259.964 197.768 258.293 196.167 256.067 196.167C253.841 196.167 252.172 197.768 250.699 199.182C249.859 199.985 248.993 200.817 248.232 201.13C247.539 201.42 246.379 201.437 245.26 201.454C243.179 201.486 240.821 201.52 239.182 203.16C237.542 204.799 237.519 207.157 237.476 209.238C237.459 210.357 237.442 211.513 237.152 212.21C236.839 212.969 236.007 213.837 235.204 214.677C233.79 216.148 232.189 217.819 232.189 220.045C232.189 222.271 233.79 223.94 235.204 225.413C236.007 226.253 236.839 227.119 237.152 227.88C237.442 228.577 237.459 229.733 237.476 230.852C237.508 232.933 237.542 235.291 239.182 236.93C240.821 238.57 243.179 238.604 245.26 238.636C246.379 238.653 247.535 238.67 248.232 238.96C248.991 239.273 249.859 240.105 250.699 240.908C252.17 242.322 253.841 243.923 256.067 243.923C258.293 243.923 259.962 242.322 261.435 240.908C262.275 240.105 263.141 239.273 263.902 238.96C264.599 238.67 265.755 238.653 266.874 238.636C268.955 238.604 271.313 238.57 272.952 236.93C274.591 235.291 274.626 232.933 274.658 230.852C274.675 229.733 274.692 228.577 274.982 227.88C275.295 227.121 276.126 226.253 276.93 225.413C278.344 223.942 279.945 222.271 279.945 220.045C279.945 217.819 278.344 216.15 276.93 214.677ZM265.801 216.135L253.862 228.074C253.704 228.232 253.516 228.358 253.309 228.444C253.102 228.53 252.88 228.574 252.656 228.574C252.432 228.574 252.21 228.53 252.003 228.444C251.796 228.358 251.607 228.232 251.449 228.074L246.332 222.957C246.012 222.637 245.833 222.203 245.833 221.75C245.833 221.298 246.012 220.864 246.332 220.544C246.652 220.224 247.086 220.044 247.539 220.044C247.992 220.044 248.426 220.224 248.746 220.544L252.656 224.456L263.388 213.722C263.547 213.563 263.735 213.437 263.942 213.352C264.149 213.266 264.371 213.222 264.595 213.222C264.819 213.222 265.041 213.266 265.248 213.352C265.455 213.437 265.643 213.563 265.801 213.722C265.96 213.88 266.086 214.068 266.171 214.275C266.257 214.482 266.301 214.704 266.301 214.928C266.301 215.152 266.257 215.374 266.171 215.581C266.086 215.788 265.96 215.976 265.801 216.135Z" fill="#0DAA84"/>
<circle cx="256.067" cy="165.467" r="4.54818" fill="black"/>
<path d="M215.194 300.951L211.1 293.81V292.127H212.465C213.01 292.127 213.488 292.052 213.897 291.9C214.322 291.733 214.671 291.498 214.943 291.195C215.231 290.892 215.429 290.528 215.535 290.104H211.1V288.421H215.512C215.421 288.027 215.262 287.678 215.034 287.375C214.822 287.071 214.534 286.836 214.17 286.67C213.822 286.488 213.397 286.397 212.897 286.397H211.1V284.714H221.356V286.397H217.786C218.044 286.685 218.256 286.996 218.423 287.329C218.605 287.663 218.726 288.027 218.787 288.421H221.356V290.104H218.832C218.681 291.225 218.248 292.105 217.536 292.741C216.823 293.363 215.906 293.788 214.784 294.015L219.241 300.951H215.194ZM227.161 286.943H223.523V284.327H229.958V300.951H227.161V286.943ZM232.902 292.673C232.902 287.511 235.676 284.009 239.929 284.009C244.181 284.009 246.979 287.511 246.979 292.673C246.979 297.813 244.341 301.247 239.929 301.247C235.517 301.247 232.902 297.813 232.902 292.673ZM235.767 292.673C235.767 296.516 237.314 298.677 239.929 298.677C242.567 298.677 244.113 296.516 244.113 292.673C244.113 288.739 242.567 286.579 239.929 286.579C237.314 286.579 235.767 288.739 235.767 292.673ZM252.39 299.95C252.39 301.838 251.025 303.339 249.183 303.566V302.452C250.207 302.27 250.98 301.656 250.98 300.86C250.798 300.951 250.593 300.996 250.32 300.996C249.433 300.996 248.706 300.337 248.706 299.427C248.706 298.336 249.411 297.608 250.434 297.608C251.571 297.608 252.39 298.54 252.39 299.95ZM254.138 292.673C254.138 287.511 256.912 284.009 261.165 284.009C265.418 284.009 268.215 287.511 268.215 292.673C268.215 297.813 265.577 301.247 261.165 301.247C256.753 301.247 254.138 297.813 254.138 292.673ZM257.003 292.673C257.003 296.516 258.55 298.677 261.165 298.677C263.803 298.677 265.349 296.516 265.349 292.673C265.349 288.739 263.803 286.579 261.165 286.579C258.55 286.579 257.003 288.739 257.003 292.673ZM270.286 292.673C270.286 287.511 273.06 284.009 277.313 284.009C281.565 284.009 284.362 287.511 284.362 292.673C284.362 297.813 281.725 301.247 277.313 301.247C272.901 301.247 270.286 297.813 270.286 292.673ZM273.151 292.673C273.151 296.516 274.698 298.677 277.313 298.677C279.951 298.677 281.497 296.516 281.497 292.673C281.497 288.739 279.951 286.579 277.313 286.579C274.698 286.579 273.151 288.739 273.151 292.673ZM286.434 292.673C286.434 287.511 289.208 284.009 293.461 284.009C297.713 284.009 300.51 287.511 300.51 292.673C300.51 297.813 297.872 301.247 293.461 301.247C289.049 301.247 286.434 297.813 286.434 292.673ZM289.299 292.673C289.299 296.516 290.845 298.677 293.461 298.677C296.099 298.677 297.645 296.516 297.645 292.673C297.645 288.739 296.099 286.579 293.461 286.579C290.845 286.579 289.299 288.739 289.299 292.673Z" fill="#3D3D3D"/>
<path d="M221.357 323.679V323.025H223.085V323.679C223.085 324.971 223.794 325.899 225.25 325.899C226.742 325.899 227.397 324.989 227.397 323.625V314.183H229.179V323.698C229.179 326.063 227.597 327.554 225.25 327.554C222.739 327.554 221.357 325.954 221.357 323.679ZM238.099 318.44H239.791V327.336H238.263L238.081 325.99C237.572 326.918 236.389 327.554 235.079 327.554C233.005 327.554 231.841 326.154 231.841 323.971V318.44H233.551V323.407C233.551 325.317 234.37 326.044 235.68 326.044C237.244 326.044 238.099 325.044 238.099 323.134V318.44ZM244.11 327.336H242.4V313.946H244.11V327.336ZM245.863 331.32V329.92H247.009C247.828 329.92 248.483 329.792 248.901 328.664L249.211 327.809L245.627 318.44H247.428L250.011 325.608L252.649 318.44H254.414L250.211 329.337C249.611 330.866 248.719 331.502 247.355 331.502C246.791 331.502 246.318 331.43 245.863 331.32ZM266.029 318.367V319.932H265.265C263.646 319.932 262.646 320.914 262.646 322.624V327.336H260.935V318.458H262.536L262.646 319.804C263.009 318.877 263.901 318.258 265.12 318.258C265.429 318.258 265.684 318.294 266.029 318.367ZM271.243 327.554C268.623 327.554 266.822 325.662 266.822 322.897C266.822 320.114 268.587 318.185 271.17 318.185C273.699 318.185 275.355 319.932 275.355 322.57V323.206L268.478 323.225C268.605 325.098 269.588 326.135 271.28 326.135C272.608 326.135 273.481 325.59 273.772 324.571H275.373C274.936 326.481 273.445 327.554 271.243 327.554ZM271.17 319.622C269.679 319.622 268.733 320.514 268.514 322.078H273.645C273.645 320.605 272.68 319.622 271.17 319.622ZM279.066 327.336H277.356V318.44H278.902L279.084 319.804C279.648 318.786 280.776 318.185 282.031 318.185C284.378 318.185 285.452 319.622 285.452 321.897V327.336H283.741V322.279C283.741 320.478 282.905 319.75 281.595 319.75C279.994 319.75 279.066 320.896 279.066 322.624V327.336ZM290.422 327.336H288.712V319.877H286.965V318.44H288.712V315.656H290.422V318.44H292.168V319.877H290.422V327.336Z" fill="#6F6F6F"/>
<rect x="202.8" y="344.996" width="106.882" height="11.3704" rx="5.68522" fill="#EEEEF1"/>
<rect x="202.8" y="360.915" width="106.882" height="11.3704" rx="5.68522" fill="#EEEEF1"/>
<path d="M254.56 507.274L252.033 543.318C251.97 544.227 252.69 545 253.601 545H334.212C335.081 545 335.788 544.302 335.804 543.433C335.888 538.874 336.379 525.392 339.247 516.686C342.099 508.034 350.002 495.898 350.036 495.845L350.037 495.844C350.071 495.791 376.015 455.635 375.279 427.224C374.925 413.535 368.134 393.184 367.58 391.544C367.553 391.465 367.539 391.409 367.525 391.327C367.2 389.428 362.843 363.682 362.454 346.805C362.104 331.591 364.649 309.266 365.465 302.569C365.588 301.561 364.745 300.709 363.741 300.853C359.395 301.477 348.915 303.346 343.115 307.481C333.778 314.138 332.04 321.789 328.458 332.452C322.221 351.021 327.349 360.698 323.369 379.838C321.873 387.031 315.756 399.709 314.6 402.066C314.477 402.319 314.291 402.528 314.057 402.683C310.645 404.945 283.513 423.318 270.033 444.133C256.219 465.465 254.583 506.698 254.562 507.243C254.561 507.26 254.561 507.257 254.56 507.274Z" fill="#D8956E"/>
<ellipse cx="177.593" cy="346.979" rx="23.3792" ry="15.4361" transform="rotate(18.3728 177.593 346.979)" fill="#D8956E"/>
<ellipse cx="176.341" cy="375.073" rx="22.5915" ry="13.8346" transform="rotate(18.3728 176.341 375.073)" fill="#D8956E"/>
<ellipse cx="178.86" cy="403.29" rx="19.8631" ry="13.8346" transform="rotate(18.3728 178.86 403.29)" fill="#D8956E"/>
</g>
<defs>
<clipPath id="clip0_116_5092">
<rect width="500" height="500" fill="white"/>
</clipPath>
<clipPath id="clip1_116_5092">
<rect width="79.3158" height="27.5881" fill="white" transform="translate(210.867 247.536)"/>
</clipPath>
</defs>
</svg>
